<?xml version="1.0" encoding="utf-8"?>
<!-- Generator: Adobe Illustrator 24.0.1, SVG Export Plug-In . SVG Version: 6.00 Build 0)  -->
<svg version="1.1" xmlns="http://www.w3.org/2000/svg" xmlns:xlink="http://www.w3.org/1999/xlink" x="0px" y="0px"
	 viewBox="0 0 500 200" style="enable-background:new 0 0 500 200;" xml:space="preserve">
<style type="text/css">
	.st0{fill-rule:evenodd;clip-rule:evenodd;fill:#070204;}
</style>
<g id="Layer_43">
</g>
<g id="Layer_42">
</g>
<g id="Layer_41">
</g>
<g id="Layer_40">
</g>
<g id="Layer_39">
</g>
<g id="Layer_38">
</g>
<g id="Layer_37">
</g>
<g id="Layer_36">
</g>
<g id="Layer_35">
</g>
<g id="Layer_34">
</g>
<g id="Layer_33">
</g>
<g id="Layer_32">
</g>
<g id="Layer_31">
</g>
<g id="Layer_30">
</g>
<g id="Layer_29">
</g>
<g id="Layer_28">
</g>
<g id="Layer_27">
</g>
<g id="Layer_26">
</g>
<g id="Layer_25">
</g>
<g id="Layer_24">
</g>
<g id="Layer_23">
	<polygon class="st0" points="158.3,146.5 168.7,146.5 168.7,149.5 161.4,149.5 161.4,153.6 167.9,153.6 167.9,156.7 161.4,156.7 
		161.4,164.4 158.3,164.4 	"/>
</g>
<g id="Layer_22">
	<path class="st0" d="M175.9,153.8c-0.9,0-1.6,0.5-2,1.5c-0.4,0.8-0.5,1.6-0.5,2.6c0,1,0.2,1.9,0.5,2.6c0.5,1,1.1,1.5,2,1.5
		c0.9,0,1.6-0.5,2-1.5c0.3-0.7,0.5-1.6,0.5-2.6c0-1-0.2-1.9-0.5-2.6C177.5,154.3,176.8,153.8,175.9,153.8L175.9,153.8z M175.9,164.9
		c-1.6,0-2.8-0.5-3.8-1.6c-1.1-1.2-1.6-3-1.6-5.4c0-2.4,0.5-4.3,1.6-5.4c1-1.1,2.2-1.6,3.8-1.6c1.6,0,2.8,0.5,3.8,1.6
		c1.1,1.2,1.6,3,1.6,5.4c0,2.4-0.6,4.2-1.6,5.4C178.7,164.4,177.5,164.9,175.9,164.9z"/>
</g>
<g id="Layer_21">
	<path class="st0" d="M188.9,153.8c-0.9,0-1.6,0.5-2,1.5c-0.4,0.8-0.5,1.6-0.5,2.6c0,1,0.2,1.9,0.5,2.6c0.5,1,1.1,1.5,2,1.5
		c0.9,0,1.6-0.5,2-1.5c0.4-0.7,0.5-1.6,0.5-2.6c0-1-0.2-1.9-0.5-2.6C190.4,154.3,189.8,153.8,188.9,153.8L188.9,153.8z M188.9,164.9
		c-1.6,0-2.8-0.5-3.8-1.6c-1.1-1.2-1.6-3-1.6-5.4c0-2.4,0.5-4.3,1.6-5.4c1-1.1,2.2-1.6,3.8-1.6c1.6,0,2.8,0.5,3.8,1.6
		c1.1,1.2,1.6,3,1.6,5.4c0,2.4-0.5,4.2-1.6,5.4C191.7,164.4,190.4,164.9,188.9,164.9z"/>
</g>
<g id="Layer_20">
	<path class="st0" d="M201.6,153.8c-0.9,0-1.5,0.5-1.9,1.5c-0.3,0.7-0.5,1.6-0.5,2.6c0,1,0.2,1.8,0.5,2.6c0.4,1,1.1,1.5,1.9,1.5
		c0.8,0,1.5-0.5,1.9-1.5c0.3-0.8,0.5-1.6,0.5-2.6c0-1-0.1-1.8-0.5-2.6C203,154.3,202.4,153.8,201.6,153.8L201.6,153.8z M206.8,146.5
		v18h-2.9V163c-0.7,1.2-1.6,1.8-2.8,1.9c-1,0-1.8-0.2-2.4-0.7c-0.6-0.5-1.2-1.3-1.6-2.4c-0.5-1.3-0.8-2.5-0.8-3.7
		c-0.1-1.4,0.2-2.8,0.7-4.3c0.7-1.9,2-2.9,3.8-3c1.5-0.1,2.6,0.6,3.1,2v-6.4H206.8z"/>
</g>
<g id="Layer_19">
	<path class="st0" d="M209.3,160.5h2.8c0.2,0.7,0.5,1.2,0.9,1.5c0.3,0.2,0.8,0.3,1.6,0.4c0.6,0.1,1,0,1.3-0.3c0.3-0.3,0.4-0.6,0.4-1
		c0-0.6-0.2-1-0.7-1.2l-3.6-1.2c-1.5-0.5-2.3-1.6-2.3-3.2c0-1.5,0.4-2.6,1.3-3.5c0.7-0.6,1.7-1,2.9-1c1.4,0,2.5,0.3,3.4,1
		c1.1,0.8,1.6,2,1.6,3.5h-2.7c0-0.5-0.1-0.8-0.2-1c-0.1-0.3-0.4-0.5-0.9-0.7c-0.4-0.1-0.7-0.2-1.1-0.2c-0.4,0-0.8,0.1-1.2,0.4
		c-0.3,0.2-0.5,0.5-0.5,0.9c0,0.5,0.2,0.7,0.7,0.9l4.1,1.4c0.5,0.2,1,0.5,1.4,1.1c0.4,0.6,0.7,1.3,0.7,2.1c0,0.8-0.2,1.6-0.5,2.3
		c-0.4,0.9-1.1,1.6-1.9,2c-0.8,0.3-1.7,0.5-2.8,0.4c-1,0-1.9-0.2-2.4-0.5C210.1,163.6,209.3,162.3,209.3,160.5z"/>
</g>
<g id="Layer_18">
	<path class="st0" d="M228,151.1h2.9v13.3H228V151.1L228,151.1z M228,146.4h2.9v3.1H228V146.4z"/>
</g>
<g id="Layer_17">
	<path class="st0" d="M234.2,164.4v-13.3h2.9v2c0.3-0.7,0.7-1.2,1.1-1.6c0.5-0.4,1-0.6,1.6-0.6c2.8,0,4.3,1.5,4.3,4.6v8.9h-2.9v-7.9
		c0-0.8-0.1-1.4-0.3-1.8c-0.3-0.5-0.9-0.8-1.7-0.8c-1.4,0-2.1,0.7-2.1,2.2v8.3H234.2z"/>
</g>
<g id="Layer_16">
	<path class="st0" d="M251.7,153.8c-0.9,0-1.5,0.5-1.9,1.5c-0.3,0.7-0.5,1.6-0.5,2.6c0,1,0.2,1.8,0.5,2.6c0.4,1,1.1,1.5,1.9,1.5
		c0.8,0,1.5-0.5,1.9-1.5c0.3-0.8,0.5-1.6,0.5-2.6c0-1-0.2-1.8-0.5-2.6C253.2,154.3,252.5,153.8,251.7,153.8L251.7,153.8z
		 M256.9,146.5v18h-2.9V163c-0.7,1.2-1.6,1.8-2.8,1.9c-1,0-1.8-0.2-2.4-0.7c-0.6-0.5-1.1-1.3-1.6-2.4c-0.5-1.3-0.8-2.5-0.8-3.7
		c-0.1-1.4,0.2-2.8,0.7-4.3c0.7-1.9,1.9-2.9,3.8-3c1.6-0.1,2.6,0.6,3.1,2v-6.4H256.9z"/>
</g>
<g id="Layer_15">
	<path class="st0" d="M269.9,151.1v13.3h-2.9v-1.6c-0.6,1.3-1.5,2-2.7,2.2c-1.2,0-2.1-0.2-2.7-0.7c-1-0.7-1.6-2-1.6-4v-9.2h2.9v8.2
		c0,0.9,0.1,1.5,0.2,1.8c0.3,0.6,0.9,0.9,1.8,0.8c1.3-0.1,2-0.9,2.1-2.2v-8.6H269.9z"/>
</g>
<g id="Layer_14">
	<path class="st0" d="M272.4,160.5h2.8c0.2,0.7,0.5,1.2,0.9,1.5c0.3,0.2,0.8,0.3,1.6,0.4c0.6,0.1,1,0,1.3-0.3c0.3-0.3,0.4-0.6,0.4-1
		c0-0.6-0.2-1-0.7-1.2l-3.6-1.2c-1.5-0.5-2.3-1.6-2.3-3.2c0-1.5,0.4-2.6,1.3-3.5c0.7-0.6,1.6-1,2.9-1c1.4,0,2.5,0.3,3.4,1
		c1.1,0.8,1.6,2,1.6,3.5h-2.7c0-0.5-0.1-0.8-0.2-1c-0.1-0.3-0.4-0.5-0.9-0.7c-0.4-0.1-0.7-0.2-1-0.2c-0.5,0-0.9,0.1-1.3,0.4
		c-0.3,0.2-0.4,0.5-0.4,0.9c0,0.5,0.2,0.7,0.7,0.9l4.1,1.4c0.6,0.2,1,0.5,1.4,1.1c0.4,0.6,0.6,1.3,0.6,2.1c0,0.8-0.1,1.6-0.5,2.3
		c-0.4,0.9-1,1.6-1.9,2c-0.8,0.3-1.7,0.5-2.8,0.4c-1,0-1.8-0.2-2.4-0.5C273.2,163.6,272.4,162.3,272.4,160.5z"/>
</g>
<g id="Layer_13">
	<path class="st0" d="M283.9,151.4h1.3v-3.7h2.9v3.7h1.6v2.3h-1.6v7.5c0,0.8,0.2,1.1,0.5,1.1h1.1v2.3c-0.5,0.2-0.9,0.3-1.4,0.3
		c-1.8,0.1-2.8-0.8-3.1-2.7v-8.7h-1.3V151.4z"/>
</g>
<g id="Layer_12">
	<path class="st0" d="M292.1,164.4v-13.3h2.9v2.6c0.2-0.8,0.6-1.5,1.3-2.1c0.6-0.5,1.1-0.8,1.6-0.8c0.1,0,0.2,0,0.4,0v3.5
		c-0.4-0.1-0.7-0.1-1-0.1c-1.4,0-2.2,0.9-2.4,2.6v7.5H292.1z"/>
</g>
<g id="Layer_11">
	<path class="st0" d="M299.5,151.1h3.1l2.4,9.6l2.3-9.6h2.9l-4.7,16.1c-0.1,0.6-0.4,1.2-0.8,1.7c-0.5,0.6-1.8,0.9-3.7,0.9V167
		c0.7,0.1,1.4,0,1.8-0.4c0.4-0.3,0.7-0.8,0.7-1.5c0-0.2-0.1-0.5-0.1-0.7L299.5,151.1z"/>
</g>
<g id="Layer_10">
	<path class="st0" d="M168.2,119.1H179c4.4,0,7.6-0.6,9.7-1.8c2.1-1.2,3.1-3,3.1-5.4c0-2.7-1.1-4.7-3.2-6.1c-2.2-1.4-5.4-2-9.6-2
		h-10.8V119.1L168.2,119.1z M168.2,94.3h9.3c4,0,7-0.6,8.9-1.7c2-1.1,3-2.8,3-5.1c0-2.2-0.9-3.8-2.8-4.9c-1.9-1.1-4.8-1.6-8.7-1.6
		h-9.7V94.3L168.2,94.3z M158.4,129.5V70.7h16c3.2,0,5.8,0.1,7.7,0.3c1.9,0.2,3.6,0.5,5.1,1c4.1,1.3,7.3,3.2,9.4,5.7
		c2.2,2.5,3.3,5.4,3.3,8.7c0,2.8-0.7,5.1-1.9,7c-1.3,2-3.2,3.4-5.7,4.4c3.7,0.8,6.6,2.5,8.7,4.9c2.1,2.5,3.1,5.4,3.1,8.8
		c0,2.7-0.6,5.3-1.9,7.7c-1.3,2.4-3.1,4.4-5.4,6c-2.3,1.5-4.8,2.6-7.7,3.2c-2.8,0.7-6.8,1-12,1H158.4z"/>
</g>
<g id="Layer_9">
	<path class="st0" d="M206.3,84.9h9.1v44.6h-9.1V84.9L206.3,84.9z M215.4,80.3h-9.1v-9.9h9.1V80.3z"/>
</g>
<g id="Layer_8">
	<path class="st0" d="M232.2,84.9v5.1c1.4-2,2.9-3.5,4.7-4.5c1.8-1,3.8-1.5,6-1.5c2.9,0,5.4,0.6,7.5,1.8c2.2,1.2,4,3,5.4,5.5
		c0.9,1.6,1.6,3.5,2,5.5c0.4,2.1,0.6,5.1,0.6,9.1v23.6h-9.3v-19.7c0-6-0.6-10.1-1.8-12.3c-1.2-2.2-3.4-3.3-6.4-3.3
		c-3.1,0-5.3,1.2-6.7,3.7c-1.4,2.4-2.1,6.6-2.1,12.6v19.1h-9V84.9H232.2z"/>
</g>
<g id="Layer_7">
	<path class="st0" d="M310.6,106.1l-6.6-19l-6.7,19H310.6L310.6,106.1z M293.5,117.1l-4.3,12.3h-11.3l21.7-59h9.4l21.4,59h-11.7
		l-4.4-12.3H293.5z"/>
</g>
<g id="Layer_6">
	<path class="st0" d="M342,107.3c0,3.6,1.1,6.7,3.2,9.2c2.2,2.5,4.7,3.8,7.8,3.8c3.4,0,6.3-1.3,8.5-3.7c2.3-2.5,3.4-5.6,3.4-9.4
		c0-3.6-1.1-6.7-3.4-9.3c-2.3-2.6-4.9-3.9-8.1-3.9c-3.2,0-5.9,1.3-8.1,3.8C343.1,100.4,342,103.6,342,107.3L342,107.3z M341.7,88.4
		c1.7-1.6,3.6-2.8,5.6-3.5c2-0.7,4.3-1.1,6.8-1.1c2.7,0,5.1,0.5,7.5,1.5c2.3,1,4.4,2.4,6.2,4.4c2.1,2.2,3.8,4.8,5,7.8
		c1.2,3,1.7,6.2,1.7,9.5c0,3.6-0.6,6.9-1.9,10.1c-1.3,3.1-3.1,5.9-5.5,8.2c-1.7,1.7-3.7,3-5.9,3.9c-2.2,0.9-4.6,1.3-7.1,1.3
		c-2.3,0-4.5-0.4-6.5-1.2c-2-0.8-3.9-2-5.8-3.6v3.7h-9.1V66.1h9.1V88.4z"/>
</g>
<g id="Layer_5">
	<rect x="377.9" y="66.1" class="st0" width="10.1" height="63.4"/>
</g>
<g id="Layer_4">
	<path class="st0" d="M401.2,106.8c0,3.8,1.1,6.9,3.3,9.4c2.2,2.5,4.9,3.8,8,3.8c2.9,0,5.4-1.3,7.6-3.8c2.2-2.5,3.3-5.5,3.3-8.9
		c0-3.6-1.1-6.7-3.3-9.3c-2.2-2.6-4.8-3.9-7.7-3.9c-3.1,0-5.7,1.2-7.9,3.7C402.3,100.2,401.2,103.2,401.2,106.8L401.2,106.8z
		 M424.4,129.4V124c-1.1,2.2-2.6,3.9-4.6,4.9c-2,1.1-4.5,1.6-7.6,1.6c-5.8,0-10.6-2.3-14.5-6.8c-3.9-4.5-5.8-10.1-5.8-16.8
		c0-3.1,0.5-6.1,1.5-8.9c1-2.8,2.3-5.3,4.1-7.4c1.9-2.3,4.1-4.1,6.5-5.2c2.4-1.1,5-1.7,8-1.7c2.8,0,5.3,0.5,7.3,1.6
		c2,1.1,3.7,2.7,4.9,4.9v-5.4h8.9v44.6H424.4z"/>
</g>
<g id="Layer_3">
	<path class="st0" d="M449.2,84.9v5.1c1.4-2,2.9-3.5,4.7-4.5c1.8-1,3.8-1.5,6.1-1.5c2.9,0,5.5,0.6,7.6,1.8c2.2,1.2,4,3,5.4,5.5
		c0.9,1.6,1.6,3.5,2,5.5c0.4,2.1,0.6,5.1,0.6,9.1v23.6h-9.4v-19.7c0-6-0.7-10.1-1.9-12.3c-1.2-2.2-3.4-3.3-6.5-3.3
		c-3.1,0-5.4,1.2-6.8,3.7c-1.4,2.4-2.1,6.6-2.1,12.6v19.1H440V84.9H449.2z"/>
</g>
<g id="Layer_2">
	<path class="st0" d="M91.5,53.8c10.3,1.2,10,12.2,10,12.2c0.8,11.6-10.2,13-10.2,13l0.2,13.2h27.8c-3,24.1-21.4,42.7-43.9,42.7
		c-24.5,0-44.3-22.2-44.3-49.5H19.1c0,34.9,25.3,63.1,56.4,63.1c31.1-0.1,56.3-28.2,56.3-63.1v-6.8h-21.5c2-3.9,3.7-8.7,3.8-14.3
		c0-4.8-1.5-10.1-4.8-14.6c-3.3-4.5-9.3-9.8-17.7-11.5V53.8L91.5,53.8z M82.2,19.4v102.2H68.9V19.4H82.2L82.2,19.4z M82,174.5H69.2
		v-14.9H82V174.5z"/>
</g>
</svg>
