<?xml version="1.0" encoding="utf-8"?>
<!-- Generator: Adobe Illustrator 24.0.1, SVG Export Plug-In . SVG Version: 6.00 Build 0)  -->
<svg version="1.1" id="Layer_1" xmlns="http://www.w3.org/2000/svg" xmlns:xlink="http://www.w3.org/1999/xlink" x="0px" y="0px"
	 viewBox="0 0 500 200" style="enable-background:new 0 0 500 200;" xml:space="preserve">
<style type="text/css">
	.st0{display:none;fill-rule:evenodd;clip-rule:evenodd;fill:#030202;}
	.st1{fill-rule:evenodd;clip-rule:evenodd;fill:#C4161C;}
	.st2{fill-rule:evenodd;clip-rule:evenodd;fill:#020202;}
	.st3{fill:#FFFFFF;}
</style>
<rect x="-4001.8" y="-1175.2" class="st0" width="8503.9" height="2551.2"/>
<rect x="163" y="174.1" class="st1" width="178.2" height="14.7"/>
<path class="st2" d="M247.7,128.7h-8.5v-8.5v-35L221.3,92v29.5l-8.5-4.7V92l39.3-83.5L291.4,92v24.8l-8.5,4.7V92L265,85.2v35v8.5
	h-8.5H247.7z M247.7,73.4v8.5v38.3h8.8V81.9v-8.5l21.9,8.6l-17.2-38.4h-18.2L225.8,82L247.7,73.4z"/>
<path d="M338,139.2h-0.3l-9.6,21.2l-9.8-21.2h-0.3l-2.6,22.6c-0.2,1.4-1.3,2.2-2.6,2.2h-0.6v0.4h6.8V164h-0.5
	c-0.8,0-1.4-0.7-1.4-1.5l1.5-17.2l9,19.5h0.3c0.2-1.5,1.2-3.6,1.2-3.6l7.4-16.4l1.6,17.7c0.1,0.8-0.6,1.5-1.4,1.5h-0.5v0.3h7.6V164
	h-0.6c-1.3,0-2.4-0.8-2.6-2.2L338,139.2z M309.7,158.7c-1.1,2.7-2.5,4.6-6.2,4.6h-5v-10.5h6c0.9,0,1.7,0.8,1.7,1.7v0.5h0.3v-5.6
	h-0.3v0.5c0,0.9-0.8,1.7-1.7,1.7h-5.9v-10.9h7.2c1.1,0.1,2,1,2,2.1v0.6h0.4v-2.8v-0.6v-1c-0.7,0.3-2.7,0.6-4.2,0.6h-10.3v0.4h0.4
	c1.2,0,2.2,0.9,2.2,2v19.7c0,1.2-1,2.2-2.3,2.2h-0.4l0,0.4H308l2-5.7H309.7z M290.5,158.7c-1.1,2.7-2.5,4.6-6.2,4.6h-5v-21
	c0-1.2,1-2.2,2.3-2.2h0.4l0-0.4h-7.7l0,0.4h0.4c1.2,0,2.2,1,2.3,2.2v19.5c0,1.2-1,2.2-2.3,2.2h-0.4l0,0.4h14.6l2-5.7H290.5z
	 M254.9,154.7l4.4-11.3l4.2,11.3H254.9z M259.7,139.2h-0.3c0,0.8-1.3,3.6-1.3,3.6l-8,18.9c-0.7,1.6-2,2.2-3.1,2.2h-0.3v0.4h7.1V164
	h-0.3c-0.9,0-1.8-0.8-1.3-2.2l2.4-6h9.5l2.2,6c0.5,1.4-0.4,2.2-1.3,2.2h-0.3v0.4h7.9V164h-0.3c-1.1,0-2.4-0.7-3.1-2.2L259.7,139.2z
	 M234.1,151.1l8.2-9.5c0.9-1,2.3-1.6,3.8-1.6h0.2v-0.3h-7.4v0.3h0.3c1,0,1.4,0.9,0.9,1.7l-8.3,10.4l11.7,12.4
	c6.2,6.6,11.5,6,13.9,5.5v-0.4c-4.3,0-8.3-2.7-11.1-5.7L234.1,151.1z M230.6,142.3c0-1.2,1-2.2,2.3-2.2h0.4l0-0.4h-7.7l0,0.4h0.4
	c1.2,0,2.2,1,2.3,2.2v19.5c0,1.2-1,2.2-2.3,2.2h-0.4l0,0.4h7.7l0-0.4h-0.4c-1.2,0-2.2-1-2.3-2.2V142.3z M193,139.7l0,0.4h0.4
	c1.2,0,2.2,1,2.3,2.2v19.5c0,1.2-1,2.2-2.3,2.2H193l0,0.4h7.7l0-0.4h-0.4c-1.2,0-2.2-1-2.3-2.2v-21c0.5,0,2.6-0.1,4.4,0
	c2.6,0.1,4.3,2.2,4.4,5.4c0,0.8-0.1,1.6-0.2,2.1c-1,3.2-3.7,3.6-5.5,3.7c-1.1,0-1.9,0-1.9,0v0.3c1.3,0,2.3,1.2,3.2,2.4
	c0.3,0.3,4.2,6.1,4.6,6.6c1.1,1.3,2.9,3.1,6.1,3.1h1.9V164c-2.1,0-3.4-1.1-4.8-2.7c-1.4-1.5-4.4-5.8-4.4-5.8c-0.7-1-1.8-2.1-2.5-2.5
	c3.4,0,6-3.3,6-6.7c0-4.1-2.6-6.6-6.9-6.6H193z M188.8,164h-0.4c-1.2,0-2.2-1-2.3-2.2v-19.5c0-1.2,1-2.2,2.3-2.2h0.4l0-0.4h-7.7
	l0,0.4h0.4c1.2,0,2.2,1,2.3,2.2v19.5c0,1.2-1,2.2-2.3,2.2h-0.4l0,0.4h7.7L188.8,164z M165.5,140.9h0.5c3.3,0,5.1,1.4,5.1,4.6
	c0,3.6-2.3,4.8-4.4,4.8l0,0.3c3.4,0,8.6,1,8.6,6.4c0,3.7-2.5,6.5-7.2,6.5c-0.9,0-1.8-0.1-2.6-0.2V140.9z M160.5,139.7l0,0.4h0.4
	c1.2,0,2.2,0.9,2.3,2.2v20.5c-2.3-1-3.8-3-4.3-6.8l-0.4,0.1c-0.2,5.9,3.8,8.8,9.5,8.8c5.9,0,10-3.1,10-7.6c0-3.6-2.3-6.5-7.1-7.2
	c1.7-0.6,2.8-2.3,2.8-4.6c0-3.6-3-5.7-7.3-5.7H160.5z"/>
<path class="st3" d="M273.1,186.2v-9.6h1.2v5.5l2.8-2.8h1.5l-2.7,2.6l2.9,4.4h-1.5l-2.3-3.6l-0.8,0.8v2.8H273.1z M269.8,186.2v-7
	h1.2v7H269.8z M261.9,186.2v-7h1.1v1.1c0.3-0.5,0.5-0.8,0.8-1c0.2-0.2,0.5-0.2,0.8-0.2c0.4,0,0.8,0.1,1.2,0.4l-0.4,1.1
	c-0.3-0.2-0.6-0.2-0.9-0.2c-0.3,0-0.5,0.1-0.7,0.2c-0.2,0.2-0.4,0.4-0.4,0.6c-0.1,0.4-0.2,0.9-0.2,1.4v3.7H261.9z M258.9,182.7
	c-0.4,0.2-1.1,0.3-1.9,0.4c-0.5,0.1-0.8,0.1-1,0.2c-0.2,0.1-0.4,0.2-0.5,0.4c-0.1,0.2-0.2,0.4-0.2,0.6c0,0.3,0.1,0.6,0.4,0.8
	c0.2,0.2,0.6,0.3,1.1,0.3c0.5,0,0.9-0.1,1.2-0.3c0.4-0.2,0.6-0.5,0.8-0.8c0.1-0.3,0.2-0.7,0.2-1.2L258.9,182.7z M259,185.3
	c-0.4,0.4-0.9,0.6-1.3,0.8c-0.4,0.2-0.8,0.2-1.3,0.2c-0.8,0-1.4-0.2-1.8-0.6c-0.4-0.4-0.6-0.9-0.6-1.4c0-0.3,0.1-0.7,0.2-0.9
	c0.2-0.3,0.4-0.5,0.6-0.7c0.3-0.2,0.5-0.3,0.9-0.4c0.2-0.1,0.6-0.1,1.1-0.2c1-0.1,1.7-0.2,2.1-0.4c0-0.2,0-0.3,0-0.3
	c0-0.5-0.1-0.8-0.3-1c-0.3-0.3-0.8-0.4-1.4-0.4c-0.6,0-1,0.1-1.2,0.3c-0.3,0.2-0.5,0.5-0.6,1l-1.2-0.2c0.1-0.5,0.3-0.9,0.5-1.2
	c0.2-0.3,0.6-0.5,1.1-0.7c0.5-0.2,1-0.2,1.6-0.2c0.6,0,1.1,0.1,1.5,0.2c0.4,0.1,0.6,0.3,0.8,0.5c0.2,0.2,0.3,0.5,0.4,0.8
	c0,0.2,0.1,0.6,0.1,1.1v1.6c0,1.1,0,1.8,0.1,2.1c0,0.3,0.1,0.6,0.3,0.8h-1.2C259.1,185.9,259,185.7,259,185.3z M243.2,186.2v-7h1.1
	v1c0.2-0.3,0.5-0.6,0.9-0.8c0.4-0.2,0.8-0.3,1.2-0.3c0.5,0,0.9,0.1,1.3,0.3c0.3,0.2,0.6,0.5,0.7,0.9c0.6-0.8,1.3-1.2,2.2-1.2
	c0.7,0,1.2,0.2,1.6,0.6c0.4,0.4,0.6,1,0.6,1.8v4.8h-1.2v-4.4c0-0.5,0-0.8-0.1-1c-0.1-0.2-0.2-0.4-0.4-0.5c-0.2-0.1-0.4-0.2-0.7-0.2
	c-0.5,0-0.9,0.2-1.2,0.5c-0.3,0.3-0.5,0.9-0.5,1.6v4.1h-1.2v-4.5c0-0.5-0.1-0.9-0.3-1.2c-0.2-0.3-0.5-0.4-0.9-0.4
	c-0.3,0-0.6,0.1-0.9,0.3c-0.3,0.2-0.5,0.4-0.6,0.8c-0.1,0.3-0.2,0.8-0.2,1.5v3.6H243.2z M240.2,186.2v-7h1.2v7H240.2z M240.2,177.9
	v-1.3h1.2v1.3H240.2z M266.4,186.2v-9.6h1.2v9.6H266.4z M229.1,186.2v-9.6h1.9l2.3,6.8c0.2,0.6,0.4,1.1,0.5,1.4
	c0.1-0.4,0.3-0.9,0.5-1.5l2.3-6.7h1.7v9.6h-1.2v-8.1l-2.8,8.1h-1.1l-2.8-8.2v8.2H229.1z"/>
</svg>
