<?xml version="1.0" encoding="utf-8"?>
<!-- Generator: Adobe Illustrator 24.0.1, SVG Export Plug-In . SVG Version: 6.00 Build 0)  -->
<svg version="1.1" xmlns="http://www.w3.org/2000/svg" xmlns:xlink="http://www.w3.org/1999/xlink" x="0px" y="0px"
	 viewBox="0 0 500 200" style="enable-background:new 0 0 500 200;" xml:space="preserve">
<style type="text/css">
	.st0{display:none;}
	.st1{display:inline;fill-rule:evenodd;clip-rule:evenodd;fill:#939598;}
	.st2{display:inline;}
	.st3{fill-rule:evenodd;clip-rule:evenodd;}
	.st4{fill-rule:evenodd;clip-rule:evenodd;fill:#FFFFFF;}
</style>
<g id="Layer_15" class="st0">
	<rect x="-7899.6" y="-1427.2" class="st1" width="16299.2" height="3118.1"/>
</g>
<g id="Layer_14" class="st0">
	<g class="st2">
		<polygon class="st3" points="-593.9,506.6 -904.7,506.6 -904.7,-242.9 -596.8,-242.9 -596.8,-143.7 -792.6,-143.7 -792.6,75.2 
			-624,75.2 -624,172.4 -792.6,172.4 -792.6,407.5 -593.9,407.5 		"/>
		<path class="st3" d="M346.2-242.8L202.5,507.6H90.9L-52.3-242.8H60.2L144,271c0.7,14.7,1.6,36,2.9,64.2c-0.3-14.6,0.7-36,2.9-64.2
			l84.3-513.8H346.2z"/>
		<polygon class="st3" points="1210.6,506.6 899.8,506.6 899.8,-242.9 1207.8,-242.9 1207.8,-143.7 1011.9,-143.7 1011.9,75.2 
			1180.5,75.2 1180.5,172.4 1011.9,172.4 1011.9,407.5 1210.6,407.5 		"/>
		<path class="st3" d="M2161.2,506.6h-116.7l-123.6-348.1V90.9H2031v-237.5h-141.3v653.2h-112.1v-749.5H2075c45,0,67.5,23,67.5,69
			V98.6c0,31.5-10.7,52-32,61.3c-11.5,4.8-35.8,7.1-72.8,7.1L2161.2,506.6z"/>
		<path class="st3" d="M3097-238.5l-99.1,313.2c-12.3,31.1-28.6,83.2-49.4,156.6v275.4H2836V231.2c-5.1-25-12.4-51.2-22-79.1
			c-16.9-47.4-26-73.4-27.3-77.5L2688-238.5c-0.3-0.3-0.3-1.7,0-4.3h115.4L2893,82.9l89-325.7h115V-238.5z"/>
		<path class="st3" d="M3906,346.7V-83.8c0-41.7-21.9-62.8-65.7-62.8H3757v557h80.4C3883.1,410.4,3906,389.2,3906,346.7L3906,346.7z
			 M4018.4,365.4c0,44-13.2,78.6-39.2,103.7c-26.2,25.1-61.6,37.6-105.9,37.6h-228.4v-749.5h228.4c44.4,0,79.7,12.7,105.9,38.1
			c26,25.3,39.2,60.1,39.2,104.1V365.4z"/>
		<path class="st3" d="M4825.9,268.1L4771.3-70l-55.1,338.2H4825.9L4825.9,268.1z M4975.2,506.6h-111l-22.4-142.2h-140.4
			l-22.6,142.2h-110.6v-2l145.2-748.5h117.7L4975.2,506.6z"/>
		<path class="st3" d="M5905.3-238.5l-99.1,313.2c-12.1,31.1-28.6,83.2-49.3,156.6v275.4h-112.7V231.2c-5-25-12.4-51.2-21.9-79.1
			c-17-47.4-26-73.4-27.4-77.5l-98.6-313.2c-0.3-0.3-0.3-1.7,0-4.3h115.3l89.6,325.7l89-325.7h115V-238.5z"/>
	</g>
</g>
<g id="Layer_13">
	<path class="st3" d="M333.9,99.8c0,52.1-39.7,94.4-88.7,94.4c-49,0-88.7-42.3-88.7-94.4c0-52.1,39.7-94.4,88.7-94.4
		C294.1,5.4,333.9,47.7,333.9,99.8z"/>
</g>
<g id="Layer_12">
	<path class="st4" d="M197,77.7h-11.2c-2.1,0-3.2,1.2-3.2,3.5v31.1c0,2.3,1.1,3.5,3.2,3.5H197c2.2,0,3.3-1.2,3.3-3.5v-9.4h-5.3v8
		H188V82.6h6.9v7.5h5.3v-8.9C200.2,78.8,199.2,77.7,197,77.7z"/>
</g>
<g id="Layer_11">
	<path class="st4" d="M215.9,91.1c-0.9,0-2,0.1-3.3,0.4c-1.1,0.2-2.1,0.4-3.2,0.6v-0.9h-5.2v24.6h5.2V96l4.1-0.1v5.6h5.2v-7.4
		C218.8,92.1,217.8,91.1,215.9,91.1z"/>
</g>
<g id="Layer_10">
	<path class="st4" d="M231.7,101.2h-4.9v-5.9h4.9V101.2L231.7,101.2z M233.7,91.2h-9.1c-2,0-3,1-3,3v18.5c0,2,1,3,3,3h9.1
		c2,0,3-1,3-3v-5.1h-5v4.1h-4.9v-6.9h8.5l1.4-1.5v-9C236.7,92.2,235.7,91.2,233.7,91.2z"/>
</g>
<g id="Layer_9">
	<path class="st4" d="M250.7,109.3c0,1.2-0.6,1.9-1.7,1.9h-3.3V96l4.9-0.1V109.3L250.7,109.3z M253.1,91.1c-0.9,0-2.1,0.1-3.7,0.4
		c-1.2,0.2-2.4,0.4-3.7,0.6v-0.9h-5.2l0,32.3h5.2l0-7.7c0.4,0,1,0,1.8,0c0.8,0,1.5,0.1,1.9,0.1c2,0,3.5-0.3,4.4-0.9
		c1.3-0.8,2-2.2,2-4.2V94.1C255.9,92.1,255,91.1,253.1,91.1z"/>
</g>
<g id="Layer_8">
	<rect x="278.6" y="77.7" class="st4" width="5.2" height="38.1"/>
</g>
<g id="Layer_7">
	<rect x="287.8" y="77.7" class="st4" width="5.2" height="38.1"/>
</g>
<g id="Layer_6">
	<path class="st4" d="M306.9,111.2h-5V95.9h5V111.2L306.9,111.2z M309.2,91.2h-9.4c-2,0-3,1-3,3v18.5c0,2,1,3,3,3h9.4
		c1.9,0,2.9-1,2.9-3V94.3C312.1,92.2,311.1,91.2,309.2,91.2z"/>
</g>
<g id="Layer_5">
	<path class="st4" d="M269.6,101.2h-4.9v-5.9h4.9V101.2L269.6,101.2z M271.7,91.2h-9.1c-2,0-3,1-3,3v9l1.4,1.5h8.5v6.9h-4.9v-4.1h-5
		v5.1c0,2,1,3,3,3h9.1c2,0,3-1,3-3V94.3C274.6,92.2,273.6,91.2,271.7,91.2z"/>
</g>
<g id="Layer_4">
	<polygon class="st4" points="306.7,82.9 306.7,80.9 306,80.9 306,80.5 307.8,80.5 307.8,80.9 307.1,80.9 307.1,82.9 	"/>
</g>
<g id="Layer_3">
	<polygon class="st4" points="308.1,82.9 308.1,80.5 308.8,80.5 309.2,82.1 309.6,80.5 310.3,80.5 310.3,82.9 309.9,82.9 309.9,81 
		309.4,82.9 309,82.9 308.5,81 308.5,82.9 	"/>
</g>
<g id="Layer_2">
	<path class="st4" d="M308.2,85.2c0.5,0,1-0.1,1.4-0.3c0.4-0.2,0.7-0.4,1-0.8c0.3-0.3,0.5-0.7,0.6-1.1c0.2-0.4,0.2-0.9,0.2-1.4
		c0-0.5-0.1-1-0.2-1.4c-0.1-0.4-0.4-0.8-0.6-1.1c-0.3-0.3-0.6-0.6-1-0.7c-0.4-0.2-0.8-0.3-1.4-0.3c-0.5,0-0.9,0.1-1.3,0.3
		c-0.4,0.2-0.7,0.4-1,0.7c-0.3,0.3-0.5,0.7-0.6,1.1c-0.2,0.4-0.2,0.9-0.2,1.4c0,0.5,0.1,1,0.2,1.4c0.1,0.4,0.4,0.8,0.6,1.1
		c0.3,0.3,0.6,0.6,1,0.8C307.3,85.1,307.8,85.2,308.2,85.2L308.2,85.2z M308.2,85.7c-0.6,0-1.1-0.1-1.6-0.3
		c-0.5-0.2-0.9-0.5-1.2-0.9c-0.3-0.4-0.6-0.8-0.8-1.3c-0.2-0.5-0.3-1-0.3-1.6c0-0.6,0.1-1.1,0.3-1.6c0.2-0.5,0.4-0.9,0.8-1.3
		c0.3-0.4,0.7-0.6,1.2-0.9c0.5-0.2,1-0.3,1.6-0.3c0.6,0,1.1,0.1,1.6,0.3c0.5,0.2,0.9,0.5,1.2,0.9c0.3,0.4,0.6,0.8,0.8,1.3
		c0.2,0.5,0.3,1,0.3,1.6c0,0.6-0.1,1.1-0.3,1.6c-0.2,0.5-0.4,0.9-0.8,1.3c-0.3,0.4-0.7,0.6-1.2,0.9
		C309.3,85.6,308.8,85.7,308.2,85.7z"/>
</g>
</svg>
