<?xml version="1.0" encoding="utf-8"?>
<!-- Generator: Adobe Illustrator 24.0.1, SVG Export Plug-In . SVG Version: 6.00 Build 0)  -->
<svg version="1.1" xmlns="http://www.w3.org/2000/svg" xmlns:xlink="http://www.w3.org/1999/xlink" x="0px" y="0px"
	 viewBox="0 0 500 200" style="enable-background:new 0 0 500 200;" xml:space="preserve">
<style type="text/css">
	.st0{fill-rule:evenodd;clip-rule:evenodd;}
	.st1{fill-rule:evenodd;clip-rule:evenodd;fill:#D2AB67;}
	.st2{fill-rule:evenodd;clip-rule:evenodd;fill:#E4DCCA;}
</style>
<g id="Layer_52">
	<path class="st0" d="M310,170.1h-12.7v-26.7h-1.9v28.2H310V170.1L310,170.1z M272.9,160.8h11l-5.5-14.7L272.9,160.8L272.9,160.8z
		 M279.2,143.5l10.7,28.2H288l-3.5-9.3h-12.2l-3.5,9.3h-1.9l10.8-28.2H279.2L279.2,143.5z M267.3,143.5h-17.5v1.5h7.8v26.7h1.8
		v-26.7h7.9V143.5L267.3,143.5z M244.6,143.5h-1.8v28.2h1.8V143.5L244.6,143.5z M226.7,143c-4.1,0-7.4,1.4-9.8,4.2
		c-2.5,2.8-3.7,6.2-3.7,10.3c0,4.4,1.2,7.9,3.7,10.6c2.5,2.6,5.8,4,9.9,4c1.7,0,3.3-0.2,4.9-0.7c1.6-0.5,2.7-0.8,3.2-1.1
		c0.5-0.3,0.9-0.5,1.2-0.7v-10.8h-1.9v9.8l-0.8,0.5c-0.5,0.3-1.4,0.6-2.6,1c-1.2,0.3-2.6,0.5-4,0.5c-3.4,0-6.2-1.2-8.4-3.6
		c-2.2-2.4-3.3-5.5-3.3-9.4c0-3.8,1.1-6.9,3.2-9.3c2.2-2.4,5-3.6,8.4-3.6c2,0,3.7,0.5,5.1,1.4c1.4,0.9,2.3,1.9,2.6,2.8l1.5-0.7
		c-0.3-1-1.3-2.1-2.9-3.3C231.3,143.6,229.2,143,226.7,143L226.7,143z M206.7,143.5h-1.8v28.2h1.8V143.5L206.7,143.5z M196.6,157.6
		c0,4.1-1.1,7.2-3.2,9.3c-2.1,2.2-5.2,3.3-9.1,3.3h-5.2v-25.2h5.3c3.9,0,7,1.1,9.1,3.3C195.6,150.4,196.6,153.5,196.6,157.6
		L196.6,157.6z M198.5,157.6c0-4.4-1.2-7.9-3.7-10.4c-2.5-2.5-6-3.7-10.4-3.7h-7.1v28.2h7.1c4.5,0,7.9-1.2,10.4-3.7
		C197.2,165.4,198.5,162,198.5,157.6z"/>
</g>
<g id="Layer_51">
	<g>
		<path class="st1" d="M242,57c0,0.5-0.3,1-0.7,1.2c-0.5,0.3-1,0.2-1.4,0c0,0-18.2-10.5-18.2-10.5c-0.4-0.2-0.7-0.7-0.7-1.2
			c0-0.5,0.3-1,0.7-1.2c0,0,16.7-9.6,18.2-10.5h0c0.4-0.2,1-0.3,1.4,0c0.5,0.3,0.7,0.7,0.7,1.2l0,0C242,43,242,50,242,57z"/>
		<path class="st1" d="M242,88.4c0,0.5-0.3,1-0.7,1.2c-0.5,0.3-1,0.2-1.4,0c0,0-18.2-10.5-18.2-10.5c-0.4-0.2-0.7-0.7-0.7-1.2
			c0-0.5,0.3-1,0.7-1.2c0,0,16.7-9.6,18.2-10.5h0c0.4-0.2,1-0.3,1.4,0c0.5,0.3,0.7,0.7,0.7,1.2l0,0C242,74.4,242,81.4,242,88.4z"/>
		<path class="st1" d="M242,119.8c0,0.5-0.3,1-0.7,1.2c-0.5,0.3-1,0.2-1.4,0c0,0-18.2-10.5-18.2-10.5c-0.4-0.2-0.7-0.7-0.7-1.2
			c0-0.5,0.3-1,0.7-1.2c0,0,16.7-9.6,18.2-10.5l0,0c0.4-0.2,1-0.3,1.4,0c0.5,0.3,0.7,0.7,0.7,1.2l0,0C242,105.8,242,112.8,242,119.8
			z"/>
		<path class="st1" d="M245.2,57c0,0.5,0.3,1,0.7,1.2c0.5,0.3,1,0.2,1.4,0c0,0,18.2-10.5,18.2-10.5c0.4-0.2,0.7-0.7,0.7-1.2
			c0-0.5-0.3-1-0.7-1.2c0,0-16.7-9.6-18.2-10.5h0c-0.4-0.2-1-0.3-1.4,0c-0.5,0.3-0.7,0.7-0.7,1.2l0,0C245.2,43,245.2,50,245.2,57z"
			/>
		<path class="st1" d="M269.2,72.7c0,0.5-0.3,1-0.7,1.2c-0.5,0.3-1,0.2-1.4,0c0,0-18.2-10.5-18.2-10.5c-0.4-0.2-0.7-0.7-0.7-1.2
			c0-0.5,0.3-1,0.7-1.2c0,0,16.7-9.6,18.2-10.5l0,0c0.4-0.2,1-0.3,1.4,0c0.5,0.3,0.7,0.7,0.7,1.2l0,0
			C269.2,58.7,269.2,65.7,269.2,72.7z"/>
		<path class="st1" d="M272.4,72.7c0,0.5,0.3,1,0.7,1.2c0.5,0.3,1,0.2,1.4,0c0,0,18.2-10.5,18.2-10.5c0.4-0.2,0.7-0.7,0.7-1.2
			c0-0.5-0.3-1-0.7-1.2c0,0-16.7-9.6-18.2-10.5v0c-0.4-0.2-1-0.3-1.4,0c-0.5,0.3-0.7,0.7-0.7,1.2l0,0
			C272.4,58.7,272.4,65.7,272.4,72.7z"/>
		<path class="st1" d="M218,41.3c0,0.5,0.3,1,0.7,1.2c0.5,0.3,1,0.2,1.4,0c0,0,18.2-10.5,18.2-10.5c0.4-0.2,0.7-0.7,0.7-1.2
			c0-0.5-0.3-1-0.7-1.2c0,0-16.7-9.6-18.2-10.5l0,0c-0.4-0.2-1-0.3-1.4,0c-0.5,0.3-0.7,0.7-0.7,1.2l0,0C218,27.3,218,34.3,218,41.3z
			"/>
		<path class="st1" d="M218,72.7c0,0.5,0.3,1,0.7,1.2c0.5,0.3,1,0.2,1.4,0c0,0,18.2-10.5,18.2-10.5c0.4-0.2,0.7-0.7,0.7-1.2
			c0-0.5-0.3-1-0.7-1.2c0,0-16.7-9.6-18.2-10.5l0,0c-0.4-0.2-1-0.3-1.4,0c-0.5,0.3-0.7,0.7-0.7,1.2l0,0C218,58.7,218,65.7,218,72.7z
			"/>
		<path class="st1" d="M218,104.1c0,0.5,0.3,1,0.7,1.2c0.5,0.3,1,0.2,1.4,0c0,0,18.2-10.5,18.2-10.5c0.4-0.2,0.7-0.7,0.7-1.2
			c0-0.5-0.3-1-0.7-1.2c0,0-16.7-9.6-18.2-10.5l0,0c-0.4-0.2-1-0.3-1.4,0c-0.5,0.3-0.7,0.7-0.7,1.2l0,0C218,90.1,218,97.1,218,104.1
			z"/>
		<path class="st1" d="M296.4,88.4c0,0.5-0.3,1-0.7,1.2c-0.5,0.3-1,0.2-1.4,0c0,0-18.2-10.5-18.2-10.5c-0.4-0.2-0.7-0.7-0.7-1.2
			c0-0.5,0.3-1,0.7-1.2c0,0,16.7-9.6,18.2-10.5h0c0.4-0.2,1-0.3,1.4,0c0.5,0.3,0.7,0.7,0.7,1.2l0,0
			C296.4,74.4,296.4,81.4,296.4,88.4z"/>
	</g>
</g>
<g id="Layer_50">
	<g>
		<path class="st2" d="M245.2,25.6c0,0.5,0.3,1,0.7,1.2c0.5,0.3,1,0.2,1.4,0c0,0,18.2-10.5,18.2-10.5c0.4-0.2,0.7-0.7,0.7-1.2
			c0-0.5-0.3-1-0.7-1.2c0,0-16.7-9.6-18.2-10.5l0,0c-0.4-0.2-1-0.3-1.4,0c-0.5,0.3-0.7,0.7-0.7,1.2l0,0
			C245.2,11.6,245.2,18.6,245.2,25.6z"/>
		<path class="st2" d="M242,25.6c0,0.5-0.3,1-0.7,1.2c-0.5,0.3-1,0.2-1.4,0c0,0-18.2-10.5-18.2-10.5c-0.4-0.2-0.7-0.7-0.7-1.2
			c0-0.5,0.3-1,0.7-1.2c0,0,16.7-9.6,18.2-10.5l0,0c0.4-0.2,1-0.3,1.4,0c0.5,0.3,0.7,0.7,0.7,1.2l0,0C242,11.6,242,18.6,242,25.6z"
			/>
		<path class="st2" d="M245.2,88.4c0,0.5,0.3,1,0.7,1.2c0.5,0.3,1,0.2,1.4,0c0,0,18.2-10.5,18.2-10.5c0.4-0.2,0.7-0.7,0.7-1.2
			c0-0.5-0.3-1-0.7-1.2c0,0-16.7-9.6-18.2-10.5h0c-0.4-0.2-1-0.3-1.4,0c-0.5,0.3-0.7,0.7-0.7,1.2l0,0
			C245.2,74.4,245.2,81.4,245.2,88.4z"/>
		<path class="st2" d="M245.2,119.8c0,0.5,0.3,1,0.7,1.2c0.5,0.3,1,0.2,1.4,0c0,0,18.2-10.5,18.2-10.5c0.4-0.2,0.7-0.7,0.7-1.2
			c0-0.5-0.3-1-0.7-1.2c0,0-16.7-9.6-18.2-10.5l0,0c-0.4-0.2-1-0.3-1.4,0c-0.5,0.3-0.7,0.7-0.7,1.2l0,0
			C245.2,105.8,245.2,112.8,245.2,119.8z"/>
		<path class="st2" d="M269.2,41.3c0,0.5-0.3,1-0.7,1.2c-0.5,0.3-1,0.2-1.4,0c0,0-18.2-10.5-18.2-10.5c-0.4-0.2-0.7-0.7-0.7-1.2
			c0-0.5,0.3-1,0.7-1.2c0,0,16.7-9.6,18.2-10.5l0,0c0.4-0.2,1-0.3,1.4,0c0.5,0.3,0.7,0.7,0.7,1.2l0,0
			C269.2,27.3,269.2,34.3,269.2,41.3z"/>
		<path class="st2" d="M269.2,104.1c0,0.5-0.3,1-0.7,1.2c-0.5,0.3-1,0.2-1.4,0c0,0-18.2-10.5-18.2-10.5c-0.4-0.2-0.7-0.7-0.7-1.2
			c0-0.5,0.3-1,0.7-1.2c0,0,16.7-9.6,18.2-10.5l0,0c0.4-0.2,1-0.3,1.4,0c0.5,0.3,0.7,0.7,0.7,1.2l0,0
			C269.2,90.1,269.2,97.1,269.2,104.1z"/>
		<path class="st2" d="M272.4,41.3c0,0.5,0.3,1,0.7,1.2c0.5,0.3,1,0.2,1.4,0c0,0,18.2-10.5,18.2-10.5c0.4-0.2,0.7-0.7,0.7-1.2
			c0-0.5-0.3-1-0.7-1.2c0,0-16.7-9.6-18.2-10.5v0c-0.4-0.2-1-0.3-1.4,0c-0.5,0.3-0.7,0.7-0.7,1.2l0,0
			C272.4,27.3,272.4,34.3,272.4,41.3z"/>
		<path class="st2" d="M272.4,104.1c0,0.5,0.3,1,0.7,1.2c0.5,0.3,1,0.2,1.4,0c0,0,18.2-10.5,18.2-10.5c0.4-0.2,0.7-0.7,0.7-1.2
			c0-0.5-0.3-1-0.7-1.2c0,0-16.7-9.6-18.2-10.5v0c-0.4-0.2-1-0.3-1.4,0c-0.5,0.3-0.7,0.7-0.7,1.2l0,0
			C272.4,90.1,272.4,97.1,272.4,104.1z"/>
		<path class="st2" d="M296.4,57c0,0.5-0.3,1-0.7,1.2c-0.5,0.3-1,0.2-1.4,0c0,0-18.2-10.5-18.2-10.5c-0.4-0.2-0.7-0.7-0.7-1.2
			c0-0.5,0.3-1,0.7-1.2c0,0,16.7-9.6,18.2-10.5h0c0.4-0.2,1-0.3,1.4,0c0.5,0.3,0.7,0.7,0.7,1.2l0,0C296.4,43,296.4,50,296.4,57z"/>
		<path class="st2" d="M190.8,57c0,0.5,0.3,1,0.7,1.2c0.5,0.3,1,0.2,1.4,0c0,0,18.2-10.5,18.2-10.5c0.4-0.2,0.7-0.7,0.7-1.2
			c0-0.5-0.3-1-0.7-1.2c0,0-16.7-9.6-18.2-10.5h0c-0.4-0.2-1-0.3-1.4,0c-0.5,0.3-0.7,0.7-0.7,1.2l0,0C190.8,43,190.8,50,190.8,57z"
			/>
		<path class="st2" d="M190.8,88.4c0,0.5,0.3,1,0.7,1.2c0.5,0.3,1,0.2,1.4,0c0,0,18.2-10.5,18.2-10.5c0.4-0.2,0.7-0.7,0.7-1.2
			c0-0.5-0.3-1-0.7-1.2c0,0-16.7-9.6-18.2-10.5h0c-0.4-0.2-1-0.3-1.4,0c-0.5,0.3-0.7,0.7-0.7,1.2l0,0
			C190.8,74.4,190.8,81.4,190.8,88.4z"/>
		<path class="st2" d="M214.8,41.3c0,0.5-0.3,1-0.7,1.2c-0.5,0.3-1,0.2-1.4,0c0,0-18.2-10.5-18.2-10.5c-0.4-0.2-0.7-0.7-0.7-1.2
			c0-0.5,0.3-1,0.7-1.2c0,0,16.7-9.6,18.2-10.5l0,0c0.4-0.2,1-0.3,1.4,0c0.5,0.3,0.7,0.7,0.7,1.2l0,0
			C214.8,27.3,214.8,34.3,214.8,41.3z"/>
		<path class="st2" d="M214.8,72.7c0,0.5-0.3,1-0.7,1.2c-0.5,0.3-1,0.2-1.4,0c0,0-18.2-10.5-18.2-10.5c-0.4-0.2-0.7-0.7-0.7-1.2
			c0-0.5,0.3-1,0.7-1.2c0,0,16.7-9.6,18.2-10.5l0,0c0.4-0.2,1-0.3,1.4,0c0.5,0.3,0.7,0.7,0.7,1.2l0,0
			C214.8,58.7,214.8,65.7,214.8,72.7z"/>
		<path class="st2" d="M214.8,104.1c0,0.5-0.3,1-0.7,1.2c-0.5,0.3-1,0.2-1.4,0c0,0-18.2-10.5-18.2-10.5c-0.4-0.2-0.7-0.7-0.7-1.2
			c0-0.5,0.3-1,0.7-1.2c0,0,16.7-9.6,18.2-10.5l0,0c0.4-0.2,1-0.3,1.4,0c0.5,0.3,0.7,0.7,0.7,1.2l0,0
			C214.8,90.1,214.8,97.1,214.8,104.1z"/>
	</g>
</g>
<g id="Layer_49">
	<path class="st1" d="M179.1,194.5h-1.6l5.8-14.9h1.8l5.8,14.9h-1.6l-1.8-4.7h-6.6L179.1,194.5L179.1,194.5z M187.1,188.5l-2.8-7.5
		l-2.8,7.5H187.1L187.1,188.5z M193.3,181.1v13.5h-1.4v-14.9h4c0.9,0,1.6,0.1,2.1,0.2c0.5,0.1,1,0.4,1.5,0.7c0.6,0.4,1.1,1,1.4,1.7
		c0.3,0.7,0.5,1.4,0.5,2.2c0,1.2-0.3,2.1-1,3c-0.7,0.8-1.5,1.3-2.6,1.4l3.6,5.8h-1.7l-4.4-7.2h1.4c0.9,0,1.7-0.3,2.3-0.8
		c0.6-0.6,0.9-1.3,0.9-2.1c0-0.5-0.1-1-0.3-1.4c-0.2-0.4-0.4-0.8-0.8-1.1c-0.3-0.3-0.6-0.5-1.1-0.6c-0.4-0.1-1.2-0.2-2.2-0.2H193.3
		L193.3,181.1z M215.6,183.5c-0.7-0.9-1.4-1.6-2.2-2.1c-0.8-0.4-1.8-0.7-2.8-0.7c-1.7,0-3.1,0.6-4.3,1.8c-1.2,1.2-1.8,2.7-1.8,4.4
		c0,1.8,0.6,3.3,1.8,4.6c1.2,1.2,2.6,1.9,4.3,1.9c1,0,2-0.2,2.8-0.6c0.8-0.4,1.6-1.1,2.2-1.9h1.7c-0.7,1.3-1.6,2.3-2.7,3
		c-1.1,0.7-2.4,1-3.9,1c-2.2,0-4-0.7-5.5-2.2c-1.5-1.5-2.2-3.4-2.2-5.6c0-1,0.2-2,0.6-3c0.4-0.9,1-1.8,1.7-2.5
		c0.7-0.7,1.5-1.2,2.4-1.6c0.9-0.4,1.8-0.5,2.9-0.5c1.5,0,2.8,0.4,4,1.1c1.2,0.7,2.1,1.8,2.8,3.1H215.6L215.6,183.5z M221,194.5
		h-1.5v-14.9h1.5v6.7h7.1v-6.7h1.5v14.9h-1.5v-6.8H221V194.5L221,194.5z M233.8,194.5h-1.5v-14.9h1.5V194.5L233.8,194.5z
		 M239.8,194.5h-1.5v-13.5h-3v-1.5h7.4v1.5h-3V194.5L239.8,194.5z M245.7,186.3h6.3v1.5h-6.3v5.3h6.3v1.4h-7.7v-14.9h7.7v1.5h-6.3
		V186.3L245.7,186.3z M266.7,183.5c-0.7-0.9-1.4-1.6-2.2-2.1c-0.8-0.4-1.8-0.7-2.8-0.7c-1.7,0-3.1,0.6-4.3,1.8
		c-1.2,1.2-1.8,2.7-1.8,4.4c0,1.8,0.6,3.3,1.8,4.6c1.2,1.2,2.6,1.9,4.3,1.9c1,0,2-0.2,2.8-0.6c0.8-0.4,1.6-1.1,2.2-1.9h1.7
		c-0.7,1.3-1.6,2.3-2.7,3c-1.1,0.7-2.4,1-3.9,1c-2.2,0-4-0.7-5.5-2.2c-1.5-1.5-2.2-3.4-2.2-5.6c0-1,0.2-2,0.6-3
		c0.4-0.9,1-1.8,1.7-2.5c0.7-0.7,1.5-1.2,2.4-1.6c0.9-0.4,1.8-0.5,2.9-0.5c1.5,0,2.8,0.4,4,1.1c1.2,0.7,2.1,1.8,2.8,3.1H266.7
		L266.7,183.5z M273.8,194.5h-1.5v-13.5h-3v-1.5h7.4v1.5h-3V194.5L273.8,194.5z M278.1,179.6h1.5v9.4c0,0.7,0,1.3,0.1,1.6
		c0.1,0.4,0.2,0.7,0.3,1c0.3,0.6,0.7,1,1.2,1.3c0.5,0.3,1.1,0.5,1.7,0.5c1.1,0,2-0.4,2.5-1.2c0.5-0.8,0.8-2,0.8-3.6v-9.1h1.4v9.5
		c0,1.9-0.4,3.4-1.2,4.3c-0.8,0.9-1.9,1.4-3.5,1.4c-1.7,0-2.9-0.5-3.7-1.4c-0.8-0.9-1.2-2.4-1.2-4.4V179.6L278.1,179.6z
		 M291.4,181.1v13.5h-1.4v-14.9h4c0.9,0,1.6,0.1,2.1,0.2c0.5,0.1,1,0.4,1.5,0.7c0.6,0.4,1.1,1,1.4,1.7c0.3,0.7,0.5,1.4,0.5,2.2
		c0,1.2-0.3,2.1-1,3c-0.7,0.8-1.5,1.3-2.6,1.4l3.6,5.8h-1.7l-4.4-7.2h1.4c0.9,0,1.7-0.3,2.3-0.8c0.6-0.6,0.9-1.3,0.9-2.1
		c0-0.5-0.1-1-0.3-1.4c-0.2-0.4-0.4-0.8-0.8-1.1c-0.3-0.3-0.6-0.5-1.1-0.6c-0.4-0.1-1.2-0.2-2.2-0.2H291.4L291.4,181.1z
		 M303.3,186.3h6.3v1.5h-6.3v5.3h6.3v1.4h-7.7v-14.9h7.7v1.5h-6.3V186.3z"/>
</g>
</svg>
