<?xml version="1.0" encoding="utf-8"?>
<!-- Generator: Adobe Illustrator 24.0.1, SVG Export Plug-In . SVG Version: 6.00 Build 0)  -->
<svg version="1.1" xmlns="http://www.w3.org/2000/svg" xmlns:xlink="http://www.w3.org/1999/xlink" x="0px" y="0px"
	 viewBox="0 0 500 200" style="enable-background:new 0 0 500 200;" xml:space="preserve">
<style type="text/css">
	.st0{fill-rule:evenodd;clip-rule:evenodd;fill:#002561;}
	.st1{fill-rule:evenodd;clip-rule:evenodd;fill:#FFFFFF;}
	.st2{fill-rule:evenodd;clip-rule:evenodd;fill:#F58220;}
	.st3{display:none;}
	
		.st4{display:inline;fill-rule:evenodd;clip-rule:evenodd;fill:none;stroke:#58595B;stroke-width:0.5;stroke-linecap:round;stroke-linejoin:round;stroke-miterlimit:2.6131;stroke-dasharray:0.5,1.5001;}
	.st5{display:inline;fill-rule:evenodd;clip-rule:evenodd;fill:none;stroke:#58595B;stroke-width:0.5;stroke-miterlimit:2.6131;}
</style>
<g id="Layer_33">
	<polygon class="st0" points="61.3,196.5 286.4,160.6 286.4,5.6 61.3,78.1 61.3,196.5 	"/>
</g>
<g id="Layer_32">
	<path class="st1" d="M211.6,153.5v-27.9H233c0.2,0.2,0.4,0.3,0.6,0.3c0.2,0,0.4,0,0.6,0c0.2,0,0.4,0,0.7-0.1
		c0.3-0.1,0.5-0.1,0.8-0.2c0.8-0.1,1.5-0.3,2.2-0.5c0.7-0.2,1.3-0.5,1.9-0.9c0.6-0.3,1.1-0.7,1.4-1.1c0.3-0.5,0.5-0.9,0.5-1.4
		c0-0.2-0.1-0.4-0.2-0.7c-0.1-0.3-0.3-0.5-0.5-0.8c-0.2-0.3-0.5-0.6-0.8-1c-0.3-0.4-0.7-0.7-1.1-1.1c-0.1-0.1-0.2-0.2-0.2-0.2
		c-0.1-0.1-0.1-0.1-0.2-0.2c-0.1-0.1-0.2-0.2-0.2-0.2c-0.1-0.1-0.1-0.1-0.2-0.2c-0.6-0.4-1.2-0.8-1.8-1.2c-0.6-0.4-1.2-0.8-1.8-1.2
		c-0.6-0.5-1.2-1-1.7-1.4c-0.5-0.5-1-0.9-1.5-1.3c-2.9-2.2-5.6-4.5-8-6.7c-2.4-2.3-4.5-4.6-6.3-7c-14.8-17.9-0.9-39.2,22.7-40.4
		c1-0.1,2-0.1,2.9-0.1l29.2-0.3v25.8h-20.4c-1.1,0.2-2.1,0.4-3,0.6c-0.9,0.2-1.7,0.5-2.4,0.8c-0.7,0.4-1.2,0.8-1.5,1.1
		c-0.3,0.4-0.5,0.8-0.5,1.3c0,0.2,0.1,0.4,0.2,0.7c0.1,0.3,0.2,0.5,0.3,0.8c0.2,0.3,0.4,0.6,0.7,0.9c0.3,0.3,0.6,0.6,1,0.9
		c0,0.1,0.1,0.2,0.2,0.2c0.1,0.1,0.2,0.1,0.3,0.2c0.1,0.1,0.2,0.2,0.3,0.2c0.1,0.1,0.2,0.1,0.3,0.2c0.2,0.2,0.4,0.4,0.7,0.6
		c0.3,0.2,0.5,0.4,0.8,0.6c0.3,0.2,0.6,0.4,0.9,0.6c0.3,0.2,0.6,0.4,0.9,0.6c0.2,0.1,0.4,0.2,0.5,0.4c0.2,0.2,0.3,0.3,0.4,0.5
		c0.1,0.1,0.2,0.2,0.3,0.2c0.1,0.1,0.2,0.1,0.3,0.1c0,0.1,0.1,0.2,0.2,0.2c0.1,0.1,0.2,0.1,0.3,0.1c2.7,2.1,5.4,4.2,7.9,6.3
		c2.6,2.1,5,4.3,7.2,6.6c2.3,2.2,4.1,4.7,5.3,7.6c1.2,2.8,2,5.8,2.3,9.1v3c0,4.4-0.8,8.3-2.5,11.5c-1.7,3.2-4.1,5.8-7.3,7.9
		c-3.2,2-6.6,3.6-10.2,4.7c-3.6,1.1-7.3,1.8-11.1,2c-0.2,0-0.4,0-0.6,0c-0.2,0-0.4,0-0.6,0c-0.2,0-0.4,0-0.6,0c-0.2,0-0.4,0-0.6,0
		L211.6,153.5L211.6,153.5z"/>
</g>
<g id="Layer_31">
	<polygon class="st1" points="168.9,153.5 168.9,57.4 199.2,57.4 199.2,153.5 168.9,153.5 	"/>
</g>
<g id="Layer_30">
	<path class="st1" d="M77.1,153.5V57.4h34.6c6.8,0.2,13,1.4,18.4,3.6c5.4,2.2,10.3,5.5,14.5,10c4.2,4.3,7.5,9.4,9.7,15.1
		c2.3,5.7,3.6,12.1,3.9,19.2v2.1c0,7.2-1.1,13.5-3.4,19.1c-2.3,5.6-5.6,10.5-10,14.7c-4.4,4.2-9.4,7.4-15,9.4
		c-5.5,2.1-11.6,3.1-18.1,3.1v-28.2c1.9,0.2,3.7-0.1,5.4-0.9c1.7-0.8,3.4-2,5-3.6c1.5-1.7,2.7-3.8,3.5-6.2c0.8-2.4,1.2-5.2,1.2-8.5
		c0-3.8-0.5-7.1-1.4-9.7c-1-2.6-2.4-4.7-4.3-6.2c-1.9-1.5-4-2.6-6.3-3.4c-2.3-0.8-4.7-1.1-7.3-1.1v67.5H77.1L77.1,153.5z"/>
</g>
<g id="Layer_29">
	<polygon class="st2" points="198.5,49.5 191.5,5.6 159.3,5.6 173.5,49.5 198.5,49.5 	"/>
</g>
<g id="Layer_28">
	<path class="st0" d="M306.8,68.2c1.5,0,2.8,0.1,3.8,0.4c1,0.2,1.9,0.8,2.8,1.6c1.8,1.7,2.7,3.9,2.7,6.7c0,2.5-0.8,4.6-2.3,6.3
		c-0.8,0.9-1.7,1.5-2.8,1.9c-1,0.4-2.2,0.5-3.5,0.5h-5.7V68.2H306.8L306.8,68.2z M305.8,82.3h1.4c0.9,0,1.6-0.1,2.2-0.4
		c0.6-0.3,1.1-0.7,1.5-1.5c0.6-1.1,1-2.3,1-3.7c0-1.6-0.4-2.9-1.2-3.9c-0.4-0.6-0.9-0.9-1.4-1.1c-0.5-0.2-1.2-0.3-2-0.3h-1.4V82.3
		L305.8,82.3z M322.5,71.6v3.5h6.6v3.3h-6.6v3.9h8.3v3.4h-12.4V68.2h12.4v3.4H322.5L322.5,71.6z M341.3,85.5H337l-5.2-17.4h4.3
		l3.5,12.4l3.6-12.4h3.4L341.3,85.5L341.3,85.5z M352.4,71.6v3.5h6.6v3.3h-6.6v3.9h8.3v3.4h-12.4V68.2h12.4v3.4H352.4L352.4,71.6z
		 M373.9,82.1v3.5h-11V68.2h4v13.9H373.9L373.9,82.1z M376.7,83c-1.2-1.7-1.8-3.8-1.8-6.2c0-1.6,0.3-3,0.8-4.4
		c0.5-1.4,1.4-2.4,2.5-3.3c1.1-0.8,2.5-1.2,4.1-1.2c2.4,0,4.3,0.9,5.5,2.6c0.6,0.8,1.1,1.8,1.4,2.9c0.3,1.1,0.5,2.2,0.5,3.3
		c0,1.1-0.1,2.1-0.4,3.2c-0.3,1.1-0.7,2-1.2,2.8c-1.3,2-3.2,2.9-5.7,2.9C379.9,85.8,378,84.9,376.7,83L376.7,83z M379.7,73.2
		c-0.3,0.9-0.5,2.1-0.5,3.6c0,3.8,1.1,5.7,3.2,5.7c1.3,0,2.2-0.7,2.6-2c0.3-0.9,0.5-2.2,0.5-3.7c0-1.7-0.2-3-0.6-3.9
		c-0.5-1.1-1.3-1.7-2.5-1.7C381.1,71.2,380.2,71.9,379.7,73.2L379.7,73.2z M396.4,85.5h-4.1V68.2h6.5c1.1,0,2,0.1,2.7,0.2
		c0.7,0.1,1.3,0.4,2,0.8c1.5,1.1,2.2,2.5,2.2,4.3c0,1.9-0.6,3.4-1.9,4.4c-0.7,0.5-1.4,0.9-2.1,1c-0.7,0.1-1.7,0.2-2.8,0.2h-2.6V85.5
		L396.4,85.5z M398.7,75.9c0.6,0,1.1,0,1.5-0.1c0.4-0.1,0.7-0.3,1-0.6c0.4-0.4,0.6-0.9,0.6-1.5c0-0.8-0.3-1.4-0.8-1.8
		c-0.4-0.3-1.1-0.5-2.2-0.5h-2.3v4.6H398.7L398.7,75.9z M412.1,71.6v3.5h6.6v3.3h-6.6v3.9h8.3v3.4h-12.4V68.2h12.4v3.4H412.1
		L412.1,71.6z M427.7,68.2c1.5,0,2.8,0.1,3.8,0.4c1,0.2,1.9,0.8,2.8,1.6c1.8,1.7,2.7,3.9,2.7,6.7c0,2.5-0.7,4.6-2.3,6.3
		c-0.8,0.9-1.7,1.5-2.8,1.9c-1,0.4-2.2,0.5-3.5,0.5h-5.7V68.2H427.7L427.7,68.2z M426.8,82.3h1.4c0.9,0,1.6-0.1,2.2-0.4
		c0.6-0.3,1.1-0.7,1.5-1.5c0.7-1.1,1-2.3,1-3.7c0-1.6-0.4-2.9-1.2-3.9c-0.4-0.6-0.9-0.9-1.4-1.1c-0.5-0.2-1.2-0.3-2-0.3h-1.4V82.3z"
		/>
</g>
<g id="Layer_27">
	<path class="st0" d="M305.9,113.4h-4.1V96.1h4.1V113.4L305.9,113.4z M322.8,113.4h-3.5l-6.6-11.6h-0.1v11.6h-3.1V96.1h4.4l5.8,10.2
		h0.1V96.1h3.1V113.4L322.8,113.4z M331.1,96.1c1.5,0,2.8,0.1,3.8,0.4c1,0.2,1.9,0.8,2.8,1.6c1.8,1.7,2.7,3.9,2.7,6.7
		c0,2.5-0.7,4.6-2.3,6.3c-0.8,0.9-1.7,1.5-2.8,1.9c-1,0.4-2.2,0.5-3.5,0.5H326V96.1H331.1L331.1,96.1z M330.1,110.1h1.4
		c0.9,0,1.6-0.1,2.2-0.4c0.6-0.3,1.1-0.7,1.5-1.5c0.7-1.1,1-2.3,1-3.7c0-1.6-0.4-2.9-1.2-3.9c-0.4-0.6-0.9-0.9-1.4-1.1
		c-0.5-0.2-1.2-0.3-2-0.3h-1.4V110.1L330.1,110.1z M356.4,106.5c0,1.3-0.1,2.3-0.2,3.1c-0.2,0.8-0.5,1.5-1.2,2.1
		c-1.2,1.2-3,1.8-5.3,1.8c-2.4,0-4.2-0.5-5.3-1.5c-0.8-0.7-1.2-1.4-1.5-2.3c-0.2-0.9-0.3-2-0.3-3.3V96.1h4.4v10.5
		c0,1.3,0.1,2.2,0.4,2.7c0.4,0.8,1.3,1.2,2.6,1.2c1.2,0,2-0.3,2.5-0.9c0.3-0.5,0.5-1.5,0.5-2.9V96.1h3.5V106.5L356.4,106.5z
		 M368.3,101c-0.5-1.4-1.5-2-3-2c-1.6,0-2.4,0.5-2.4,1.6c0,0.9,0.8,1.5,2.5,1.7c1.3,0.3,2.3,0.5,2.9,0.7c0.6,0.2,1.2,0.4,1.7,0.8
		c1.5,1,2.2,2.4,2.2,4.1c0,1.8-0.7,3.2-2.1,4.3c-1.2,0.9-2.9,1.4-5.1,1.4c-1.7,0-3.3-0.4-4.5-1.2c-1.3-0.8-2.1-2-2.5-3.6l3.7-0.9
		c0.5,1.6,1.7,2.5,3.6,2.5c0.7,0,1.4-0.1,1.9-0.4c0.5-0.3,0.8-0.8,0.8-1.4c0-0.6-0.3-1.1-0.8-1.3c-0.5-0.2-1.3-0.4-2.3-0.7
		c-1.3-0.3-2.3-0.6-3.2-0.9c-0.9-0.3-1.5-0.9-2.1-1.6c-0.5-0.7-0.8-1.7-0.8-2.8c0-1.7,0.6-3,1.9-4.1c1.1-0.9,2.6-1.4,4.4-1.4
		c3.4,0,5.6,1.4,6.5,4.1L368.3,101L368.3,101z M386.3,99.5h-4.3v13.9h-4.1V99.5h-4.4v-3.5h12.8V99.5L386.3,99.5z M392.5,113.4h-4.1
		V96.1h7.3c1,0,1.9,0,2.6,0.1c0.7,0.1,1.3,0.3,1.9,0.7c0.7,0.5,1.2,1.1,1.6,1.8c0.4,0.8,0.6,1.6,0.6,2.5c0,1-0.3,1.9-0.8,2.7
		c-0.5,0.8-1.3,1.4-2.2,1.7l3.2,7.7h-4.5l-2.7-6.9h-2.9V113.4L392.5,113.4z M392.5,103.6h2.2c1.2,0,2-0.1,2.5-0.4c0.7-0.4,1-1.1,1-2
		c0-0.3-0.1-0.7-0.3-1c-0.2-0.3-0.4-0.6-0.7-0.7c-0.3-0.2-0.9-0.3-1.7-0.3h-0.9h-2.1V103.6L392.5,103.6z M409.2,113.4h-4.1V96.1h4.1
		V113.4L409.2,113.4z M427,113.4h-4.4l-1-3.6h-5.6l-1.1,3.6h-3.6l5.6-17.4h4.7L427,113.4L427,113.4z M420.6,106.7l-1.9-6.1l-1.8,6.1
		H420.6L420.6,106.7z M439.8,109.9v3.5h-11V96.1h4v13.9H439.8z"/>
</g>
<g id="Layer_26">
	<path class="st0" d="M310.6,128.8c-0.5-1.4-1.5-2-3-2c-1.6,0-2.4,0.5-2.4,1.6c0,0.9,0.8,1.5,2.5,1.7c1.3,0.3,2.3,0.5,2.9,0.7
		c0.6,0.2,1.2,0.4,1.7,0.8c1.5,1,2.2,2.4,2.2,4.1c0,1.8-0.7,3.2-2.1,4.3c-1.2,0.9-2.9,1.4-5.1,1.4c-1.7,0-3.3-0.4-4.5-1.2
		c-1.3-0.8-2.1-2-2.5-3.6l3.7-0.9c0.5,1.6,1.7,2.5,3.6,2.5c0.7,0,1.4-0.1,1.9-0.4c0.5-0.3,0.8-0.8,0.8-1.4c0-0.6-0.3-1.1-0.8-1.3
		c-0.5-0.2-1.3-0.4-2.3-0.7c-1.3-0.3-2.3-0.6-3.2-0.9c-0.9-0.3-1.5-0.9-2.1-1.6c-0.5-0.7-0.8-1.7-0.8-2.8c0-1.7,0.6-3,1.9-4.1
		c1.1-0.9,2.6-1.4,4.4-1.4c3.4,0,5.6,1.4,6.5,4.1L310.6,128.8L310.6,128.8z M318.1,138.8c-1.2-1.7-1.8-3.8-1.8-6.2
		c0-1.6,0.3-3,0.8-4.4c0.5-1.4,1.4-2.4,2.5-3.3c1.1-0.8,2.5-1.2,4.1-1.2c2.4,0,4.3,0.9,5.5,2.6c0.6,0.8,1.1,1.8,1.4,2.9
		c0.3,1.1,0.5,2.2,0.5,3.3c0,1.1-0.1,2.1-0.4,3.2c-0.3,1.1-0.7,2-1.2,2.8c-1.3,2-3.2,2.9-5.7,2.9
		C321.2,141.5,319.3,140.6,318.1,138.8L318.1,138.8z M321,128.9c-0.3,0.9-0.5,2.1-0.5,3.6c0,3.8,1.1,5.7,3.2,5.7
		c1.3,0,2.2-0.7,2.6-2c0.3-0.9,0.5-2.2,0.5-3.7c0-1.7-0.2-3-0.6-3.9c-0.5-1.1-1.3-1.7-2.5-1.7C322.4,127,321.5,127.6,321,128.9
		L321,128.9z M344.6,137.8v3.5h-11v-17.4h4v13.9H344.6L344.6,137.8z M359.9,134.4c0,1.3-0.1,2.3-0.2,3.1c-0.2,0.8-0.5,1.5-1.2,2.2
		c-1.2,1.2-3,1.8-5.3,1.8c-2.4,0-4.2-0.5-5.3-1.5c-0.8-0.7-1.2-1.4-1.5-2.3c-0.2-0.9-0.3-2-0.3-3.3v-10.5h4.4v10.5
		c0,1.3,0.1,2.2,0.4,2.7c0.4,0.8,1.3,1.2,2.6,1.2c1.2,0,2-0.3,2.5-0.9c0.3-0.5,0.5-1.5,0.5-2.9v-10.5h3.5V134.4L359.9,134.4z
		 M374.6,127.4h-4.3v13.9h-4.1v-13.9h-4.4v-3.5h12.8V127.4L374.6,127.4z M380.8,141.3h-4.1v-17.4h4.1V141.3L380.8,141.3z
		 M385.4,138.8c-1.2-1.7-1.8-3.8-1.8-6.2c0-1.6,0.3-3,0.8-4.4c0.5-1.4,1.4-2.4,2.5-3.3c1.1-0.8,2.5-1.2,4.1-1.2
		c2.4,0,4.3,0.9,5.5,2.6c0.6,0.8,1.1,1.8,1.4,2.9c0.3,1.1,0.5,2.2,0.5,3.3c0,1.1-0.1,2.1-0.4,3.2c-0.3,1.1-0.7,2-1.2,2.8
		c-1.3,2-3.2,2.9-5.7,2.9C388.5,141.5,386.7,140.6,385.4,138.8L385.4,138.8z M388.4,128.9c-0.3,0.9-0.5,2.1-0.5,3.6
		c0,3.8,1.1,5.7,3.2,5.7c1.3,0,2.2-0.7,2.6-2c0.3-0.9,0.5-2.2,0.5-3.7c0-1.7-0.2-3-0.6-3.9c-0.5-1.1-1.3-1.7-2.5-1.7
		C389.8,127,388.9,127.6,388.4,128.9L388.4,128.9z M414.4,141.3h-3.5l-6.6-11.6h-0.1v11.6H401v-17.4h4.4l5.8,10.2h0.1v-10.2h3.1
		V141.3L414.4,141.3z M426.5,128.8c-0.5-1.4-1.5-2-3-2c-1.6,0-2.4,0.5-2.4,1.6c0,0.9,0.8,1.5,2.5,1.7c1.3,0.3,2.3,0.5,2.9,0.7
		c0.6,0.2,1.2,0.4,1.7,0.8c1.5,1,2.2,2.4,2.2,4.1c0,1.8-0.7,3.2-2.1,4.3c-1.2,0.9-2.9,1.4-5.1,1.4c-1.7,0-3.3-0.4-4.5-1.2
		c-1.3-0.8-2.1-2-2.5-3.6l3.7-0.9c0.5,1.6,1.7,2.5,3.6,2.5c0.7,0,1.4-0.1,1.9-0.4c0.5-0.3,0.8-0.8,0.8-1.4c0-0.6-0.3-1.1-0.8-1.3
		c-0.5-0.2-1.3-0.4-2.3-0.7c-1.3-0.3-2.3-0.6-3.2-0.9c-0.9-0.3-1.5-0.9-2.1-1.6c-0.5-0.7-0.8-1.7-0.8-2.8c0-1.7,0.6-3,1.9-4.1
		c1.1-0.9,2.6-1.4,4.4-1.4c3.4,0,5.6,1.4,6.5,4.1L426.5,128.8z"/>
</g>
<g id="Layer_23" class="st3">
	<line class="st4" x1="300.8" y1="38.4" x2="100.6" y2="38.4"/>
</g>
<g id="Layer_22" class="st3">
	<line class="st4" x1="231.3" y1="115.7" x2="231.3" y2="-4.7"/>
</g>
<g id="Layer_21" class="st3">
	<line class="st4" x1="322.8" y1="73.6" x2="113.7" y2="73.6"/>
</g>
<g id="Layer_20" class="st3">
	<line class="st4" x1="225.9" y1="107.8" x2="225.9" y2="-16.2"/>
</g>
<g id="Layer_19" class="st3">
	<line class="st4" x1="154" y1="116.9" x2="154" y2="-18"/>
</g>
<g id="Layer_18" class="st3">
	<line class="st4" x1="148.7" y1="109.1" x2="148.7" y2="-2.6"/>
</g>
<g id="Layer_17" class="st3">
	<line class="st4" x1="314.5" y1="-7.3" x2="115.4" y2="56.7"/>
</g>
<g id="Layer_16" class="st3">
	<line class="st4" x1="314.5" y1="-7.3" x2="115.4" y2="56.7"/>
</g>
<g id="Layer_15" class="st3">
	<line class="st4" x1="320.6" y1="61.8" x2="114.1" y2="95.2"/>
</g>
<g id="Layer_14" class="st3">
	<line class="st4" x1="220.2" y1="130.6" x2="170.5" y2="-24.8"/>
</g>
<g id="Layer_13" class="st3">
	<line class="st4" x1="215.9" y1="134" x2="188.7" y2="-26.8"/>
</g>
<g id="Layer_12" class="st3">
	<line class="st4" x1="322.8" y1="89.6" x2="113.7" y2="89.6"/>
</g>
<g id="Layer_11" class="st3">
	<line class="st4" x1="322.8" y1="19.4" x2="113.7" y2="19.4"/>
</g>
<g id="Layer_10" class="st3">
	<line class="st4" x1="280.5" y1="35.5" x2="113.7" y2="35.5"/>
</g>
<g id="Layer_9" class="st3">
	<line class="st4" x1="188.2" y1="109.7" x2="188.2" y2="-36.5"/>
</g>
<g id="Layer_8" class="st3">
	<line class="st4" x1="199.3" y1="100.5" x2="199.3" y2="-36.5"/>
</g>
<g id="Layer_7" class="st3">
	<path class="st5" d="M151.3,19.4c1.5,0,2.7-1.2,2.7-2.7c0-1.5-1.2-2.7-2.7-2.7c-1.5,0-2.7,1.2-2.7,2.7
		C148.7,18.2,149.9,19.4,151.3,19.4z"/>
</g>
<g id="Layer_6" class="st3">
	<path class="st5" d="M228.7,19.4c1.5,0,2.7-1.2,2.7-2.7c0-1.5-1.2-2.7-2.7-2.7c-1.5,0-2.7,1.2-2.7,2.7
		C226,18.2,227.2,19.4,228.7,19.4z"/>
</g>
<g id="Layer_5" class="st3">
	<path class="st5" d="M156.5,43.2c1.3,0,2.3-1,2.3-2.3c0-1.3-1-2.3-2.3-2.3c-1.3,0-2.3,1-2.3,2.3C154.2,42.2,155.3,43.2,156.5,43.2z
		"/>
</g>
<g id="Layer_4" class="st3">
	<path class="st5" d="M181.3,89.6c1.5,0,2.7-1.2,2.7-2.7c0-1.5-1.2-2.7-2.7-2.7s-2.7,1.2-2.7,2.7C178.7,88.4,179.9,89.6,181.3,89.6z
		"/>
</g>
<g id="Layer_3" class="st3">
	<path class="st5" d="M193.7,100.7c3.1,0,5.6-2.5,5.6-5.6s-2.5-5.6-5.6-5.6c-3.1,0-5.6,2.5-5.6,5.6S190.7,100.7,193.7,100.7z"/>
</g>
<g id="Layer_2" class="st3">
	<path class="st5" d="M136.8,49.5c3.1,0,5.6-2.5,5.6-5.6c0-3.1-2.5-5.6-5.6-5.6c-3.1,0-5.6,2.5-5.6,5.6
		C131.2,47,133.7,49.5,136.8,49.5z"/>
</g>
</svg>
