<?xml version="1.0" encoding="utf-8"?>
<!-- Generator: Adobe Illustrator 24.0.1, SVG Export Plug-In . SVG Version: 6.00 Build 0)  -->
<svg version="1.1" id="Layer_1" xmlns="http://www.w3.org/2000/svg" xmlns:xlink="http://www.w3.org/1999/xlink" x="0px" y="0px"
	 viewBox="0 0 500 200" style="enable-background:new 0 0 500 200;" xml:space="preserve">
<style type="text/css">
	.st0{fill-rule:evenodd;clip-rule:evenodd;}
</style>
<path class="st0" d="M14,33.8v5c0.3,0.3,0.8,0.8,1,1c2.4,2.1,4.4,4.9,4.4,8.2V65v5.1v56.8c0,5.3-2.2,9.7-6.9,12.5
	c-0.8,0.5-2.3,1.5-2.3,2.6v4.8c0,0.2,0,0.6,0.1,0.7c0.2,0.2,0.9,0.2,1.2,0.2h73.9l0-42.6c-0.2,0-0.4,0-0.5,0h-5.9
	c-0.4,1.4-0.7,3.6-0.9,4.7c-1.3,7.1-3.6,16.1-8.6,21.7c-4.4,5-10.5,6.9-17,6.9H38.9V70.1V65V48.1c0-3.3,2-6.1,4.4-8.2
	c0.2-0.2,0.8-0.7,1-1v-5H14z"/>
<path class="st0" d="M114.2,33.6l-24.9,0.5v5c0.3,0.3,0.8,0.8,1,1c2.4,2.1,4.4,4.9,4.4,8.2v80.4c0,5.4,1.2,10.8,4.7,15
	c3.3,4,7.8,5.4,12.9,5.4c7.5,0,16.1-5.9,21.7-10.4l4.8-3.9V148l24.9-0.5v-5.3c-0.3-0.4-0.8-0.8-1.1-1.1c-2.4-2.2-4.4-4.9-4.4-8.3
	V33.6l-24.6,0.5l-0.1,5c0.2,0.3,0.8,0.9,1,1.1c2.3,2.1,4.3,4.9,4.3,8.1V128l-0.6,0.8c-3.4,4.5-8.2,8.8-14.2,8.8
	c-7.2,0-9.8-5.6-9.8-12.1V33.6z"/>
<path class="st0" d="M204.7,103.1L204.7,103.1c-5,0-8.3-2.9-10-7.5c-2-5.5-2.2-13.8-2.2-19.7c0-9.1,0.1-19.4,1.7-28.3
	c1.1-6,4.2-11.6,11-11.6c5.2,0,8.2,3.6,9.7,8.2c2.3,6.8,2.2,19.5,2.2,26.7c0,6.7,0,17.8-2.2,24.1C213.4,99.9,210,103.1,204.7,103.1
	 M172.2,146.7c0.4,0.1,0.8,0.1,1,0.1c2.2,0,4.3,0,6.5-0.1c4.9-0.2,9.9-0.4,14.8-0.4c11.1,0,33.1,1.2,33.1,16.7
	c0,5.6-2.7,9.9-7.1,13.1c-4.7,3.4-10.1,4.9-15.8,4.9c-4.8,0-9.5-1.1-13.8-3.2l-2.7-1.3l1.3-2.7c0.7-1.4,1.5-3.3,1.5-4.9
	c0-2.2-0.8-3.8-2.4-5.3c-1.8-1.6-4-2.2-6.4-2.2c-2.5,0-4.8,0.7-6.6,2.5c-1.8,1.8-2.5,3.9-2.5,6.4c0,5.3,2.7,9,7.2,11.7
	c6.3,3.9,14.8,4.8,22.1,4.8c10.1,0,20.4-2,28.7-8.2c7.3-5.5,10.5-12.9,10.5-22c0-23.2-21.5-27.2-40.6-27.2h-16l9.1-22.6l2.4,0.5
	c3.1,0.6,6.4,1.1,9.5,1.1c9.1,0,16.4-3.2,21.8-10.6c6.3-8.5,8.1-19.6,8.1-29.9c0-10.1-3-19.1-8.9-27.3l-1.9-2.6l2.8-1.6
	c1.7-1,3.6-1.5,5.6-1.5c1.6,0,3.4,0.9,4.8,1.6c1.2,0.6,2.7,1.3,4,1.3c3.3,0,4.5-1.3,4.5-4.6c0-1.9-0.7-3.3-2.2-4.5
	c-1.8-1.4-3.7-2-6-2c-5,0-10.4,4.7-13.7,8l-1.7,1.7l-2-1.3c-5-3.2-10.5-4.5-16.5-4.5c-9.4,0-17.6,2.8-23.1,10.6
	c-5.8,8.3-7.8,18.4-7.8,28.4c0,12.8,3.3,24.8,13.2,33.4l1.6,1.4l-14.9,37.2C173.5,142.7,172.5,145.3,172.2,146.7z"/>
<path class="st0" d="M286.2,82.7L286.2,82.7V121c0,3.7-0.8,7.1-2.6,10.3c-1.9,3.4-4.9,5.5-8.8,5.5c-10.6,0-12.1-12.6-12.1-20.7
	c0-14.6,5.4-26.6,19.6-31.9L286.2,82.7z M284,76.8c-23.4,6-41.6,18.4-41.6,44.4c0,7.6,1.6,15.1,6.3,21.1c4,5.1,8.9,7.9,15.4,7.9
	c8.4,0,16.1-7.1,21.2-13.1l3.2-3.7l1.8,4.5c3,7.7,8.3,11.7,16.6,11.7c2.7,0,7.5-0.1,7.5-3.8v-5.5c0-0.1,0-0.2,0-0.2
	c-0.1-0.1-0.5-0.2-0.7-0.2c-3.1-0.7-5.7-2.3-6.8-5.3c-1.1-2.7-1.3-6.1-1.3-9V62.1c0-8.6-2-17.1-8.3-23.3c-6.4-6.2-15.1-8.2-23.8-8.2
	c-7,0-13.4,1.8-19.1,5.8c-4.9,3.4-7.7,7.9-7.7,13.9c0,2.9,0.7,5.7,2.8,7.8c2.1,2.1,4.8,2.9,7.8,2.9c2.5,0,4.9-0.6,6.7-2.5
	c1.7-1.8,2.4-3.8,2.4-6.2c0-1.7-0.7-3.7-1.3-5.3c-0.5-1.2-1-2.8-1-4.1c0-4.1,3.6-5.6,7.2-5.6c11.3,0,15,8.7,15,18.7v20.2L284,76.8z"
	/>
<path class="st0" d="M322.5,142.3v5.3h29.6v-5.3c-0.2-0.3-0.5-0.6-0.6-0.7c-2.5-2.7-3.8-5.9-3.8-9.5V52.9l0.6-0.8
	c3.5-4.6,8.4-8.8,14.5-8.8c7.2,0,9.5,6,9.5,12.3v77.8c0,3.6-1.8,6.6-4.7,8.8c-0.1,0-0.1,0.1-0.2,0.2v5.2h29.6v-4
	c-0.3-0.4-0.8-1-1-1.3c-2.4-2.9-4.2-6.2-4.2-10V55.7c0-6.2-1.2-12.5-4.9-17.6c-3.1-4.3-7.3-6.2-12.6-6.2c-8.7,0-15.7,4.4-21.5,10.6
	l-5.1,5.4V33.6l-27.2,0.8c0,0,0,0,0,0v4.3c0,0.4,0.4,0.6,0.6,0.7c5,2.4,7.2,6.9,7.2,12.3v78.8c0,4.5-1.7,8.4-5.2,11.3
	C322.9,142,322.7,142.1,322.5,142.3"/>
<path class="st0" d="M453.5,78.3L453.5,78.3v30.3c0,7.4-0.1,19.2-2.8,26.2c-1.9,4.9-5.3,8.7-11,8.7c-6.7,0-10.3-5-11.9-11
	c-2.6-9.2-2.6-23.1-2.6-32.6V71.1c0-9.1,0.2-33.8,14-33.8c6.2,0,9.6,4.7,11.4,10.1C453.4,55.8,453.5,69.5,453.5,78.3 M438.2,30.7
	c-10.7,0-18.6,5.2-24.7,13.7c-8.6,12.1-10.1,31.5-10.1,45.9c0,14.6,1.7,32.9,9.8,45.4c6.3,9.7,15.1,14.5,26.7,14.5
	c11.5,0,20.1-4.9,26.1-14.8c7.7-12.6,9.5-30,9.5-44.4C475.5,65.2,470.9,30.7,438.2,30.7z"/>
<path class="st0" d="M314.1,176.6L314.1,176.6l4.6-12.6l4.6,12.6H314.1z M319.8,160.9L319.8,160.9h-2.1l-9.6,25.6h2.4l2.9-8H324l3,8
	h2.4L319.8,160.9z M445.6,184.6L445.6,184.6h-12.2v-10.4h11.5v-2h-11.5v-9.3h11.9v-2h-14.1v25.6h14.4V184.6z M406.2,160.9
	L406.2,160.9h-13.8v25.6h2.3v-12.3h11.1v-2h-11.1v-9.3h11.5V160.9z M367.4,160.9L367.4,160.9h-13.8v25.6h2.3v-12.3H367v-2h-11.1
	v-9.3h11.5V160.9z M284.4,182.3l-0.9,0.7c-0.6,0.4-1.5,0.9-2.8,1.3c-1.3,0.4-2.6,0.7-3.9,0.7c-3,0-5.4-1.1-7.2-3.2
	c-1.9-2.2-2.8-4.8-2.8-8c0-3.2,0.9-5.8,2.8-7.9c1.9-2.1,4.1-3.1,6.9-3.1c1.8,0,3.2,0.4,4.3,1.2c1.1,0.8,1.9,1.6,2.3,2.5l2-1
	c-0.5-1.1-1.5-2.1-2.9-3.1c-1.5-1-3.4-1.5-5.7-1.5c-3.5,0-6.3,1.2-8.6,3.7c-2.3,2.5-3.4,5.6-3.4,9.4c0,3.9,1.1,7.1,3.4,9.6
	c2.3,2.5,5.2,3.7,8.9,3.7c1.6,0,3.1-0.3,4.6-0.8c1.5-0.5,2.5-0.9,3-1.2c0.5-0.3,0.8-0.6,1.1-0.8L284.4,182.3z"/>
<path class="st0" d="M180.9,177.6h-168c-1.7,0-3-1.4-3-3c0-1.7,1.4-3,3-3h168c1.7,0,3,1.4,3,3C183.9,176.2,182.6,177.6,180.9,177.6"
	/>
<path class="st0" d="M438.4,157.7L435,155l-1,1.1l0.5,0.5c0.4,0.3,0.9,0.7,1.6,1c0.7,0.4,1.4,0.7,2,0.8L438.4,157.7z"/>
<path d="M471.3,26h2.6c1.3,0,2.1-0.2,2.6-0.6c0.5-0.4,0.7-0.9,0.7-1.5c0-0.4-0.1-0.8-0.3-1.1c-0.2-0.3-0.5-0.6-0.9-0.7
	c-0.4-0.2-1.1-0.2-2.2-0.2h-2.5V26z M469.1,33.6V20.1h4.7c1.6,0,2.7,0.1,3.5,0.4c0.7,0.3,1.3,0.7,1.7,1.3c0.4,0.6,0.6,1.3,0.6,2
	c0,1-0.4,1.8-1.1,2.6c-0.7,0.7-1.6,1.1-2.8,1.2c0.5,0.2,0.9,0.4,1.1,0.7c0.5,0.5,1.2,1.4,2,2.7l1.6,2.6h-2.6l-1.2-2.1
	c-0.9-1.7-1.7-2.7-2.3-3.1c-0.4-0.3-1-0.5-1.7-0.5h-1.3v5.7H469.1z M474.6,16.2c-1.8,0-3.5,0.5-5.2,1.4c-1.7,0.9-3,2.2-3.9,3.9
	c-0.9,1.7-1.4,3.4-1.4,5.3c0,1.8,0.5,3.5,1.4,5.2c0.9,1.7,2.2,3,3.9,3.9c1.7,0.9,3.4,1.4,5.2,1.4c1.8,0,3.5-0.5,5.2-1.4
	c1.7-0.9,3-2.2,3.9-3.9c0.9-1.7,1.4-3.4,1.4-5.2c0-1.8-0.5-3.6-1.4-5.3c-0.9-1.7-2.2-3-3.9-3.9C478.1,16.6,476.3,16.2,474.6,16.2z
	 M474.6,14.1c2.1,0,4.2,0.5,6.2,1.6c2,1.1,3.6,2.6,4.7,4.6c1.1,2,1.7,4.1,1.7,6.3c0,2.2-0.6,4.3-1.7,6.2c-1.1,2-2.6,3.6-4.6,4.7
	c-2,1.1-4.1,1.7-6.3,1.7c-2.2,0-4.3-0.6-6.3-1.7c-2-1.1-3.5-2.7-4.7-4.7c-1.1-2-1.7-4.1-1.7-6.2c0-2.2,0.6-4.3,1.7-6.3
	c1.1-2,2.7-3.6,4.7-4.6C470.4,14.6,472.5,14.1,474.6,14.1z"/>
</svg>
