<?xml version="1.0" encoding="utf-8"?>
<!-- Generator: Adobe Illustrator 24.0.1, SVG Export Plug-In . SVG Version: 6.00 Build 0)  -->
<svg version="1.1" xmlns="http://www.w3.org/2000/svg" xmlns:xlink="http://www.w3.org/1999/xlink" x="0px" y="0px"
	 viewBox="0 0 500 200" style="enable-background:new 0 0 500 200;" xml:space="preserve">
<style type="text/css">
	.st0{fill-rule:evenodd;clip-rule:evenodd;}
	.st1{fill-rule:evenodd;clip-rule:evenodd;fill:#FFCB00;}
	.st2{fill-rule:evenodd;clip-rule:evenodd;fill:#FFFFFF;}
	.st3{fill-rule:evenodd;clip-rule:evenodd;fill:url(#SVGID_1_);}
</style>
<g id="Layer_17">
	<path class="st0" d="M151.5,36.2c0-8,3.5-15.3,9-20.6l0,0l0.1,0c5.6-5.3,13.2-8.5,21.7-8.5h134.9c8.5,0,16.2,3.3,21.7,8.6l0,0
		l0.1,0.1c5.5,5.3,9,12.6,9,20.6v128c0,8-3.5,15.3-9,20.6c-5.6,5.3-13.3,8.6-21.7,8.6H182.3c-8.5,0-16.2-3.3-21.7-8.6
		c-5.6-5.3-9-12.6-9-20.6V36.2L151.5,36.2z M165.1,19.9c-4.4,4.2-7.1,10-7.1,16.3v128c0,6.3,2.7,12.1,7.1,16.3
		c4.4,4.2,10.5,6.8,17.2,6.8h134.9c6.7,0,12.8-2.6,17.2-6.8c4.4-4.2,7.1-9.9,7.1-16.3v-128c0-6.3-2.7-12.1-7.1-16.3
		c-4.4-4.2-10.5-6.8-17.2-6.8H182.3C175.6,13.2,169.5,15.8,165.1,19.9z"/>
</g>
<g id="Layer_16">
	<path class="st1" d="M182.3,13.1h134.9c13.4,0,24.4,10.4,24.4,23.1v128c0,12.7-11,23.1-24.4,23.1H182.3
		c-13.4,0-24.4-10.4-24.4-23.1v-128C157.9,23.5,168.9,13.1,182.3,13.1z"/>
</g>
<g id="Layer_15">
	<path class="st2" d="M182.3,10h134.9c7.6,0,14.5,3,19.5,7.7c5,4.7,8.1,11.3,8.1,18.5v128c0,7.2-3.1,13.8-8.1,18.5
		c-5,4.7-11.9,7.7-19.5,7.7H182.3c-7.6,0-14.5-3-19.5-7.7c-5-4.7-8.1-11.3-8.1-18.5v-128c0-7.2,3.1-13.8,8.1-18.5
		C167.8,13,174.7,10,182.3,10L182.3,10z M182.3,13.1c-13.4,0-24.4,10.4-24.4,23.1v128c0,12.7,11,23.1,24.4,23.1h134.9
		c13.4,0,24.4-10.4,24.4-23.1v-128c0-12.7-11-23.1-24.4-23.1H182.3z"/>
</g>
<g id="Layer_14">
	<g>
		<path class="st0" d="M280,150.6v-37.9h12.8v0h6.9c0.4,0,0.8,0,1.2,0h0c4.3,0,7.2-0.4,8.8-0.9c1.7-0.6,3-1.6,4-3
			c1-1.3,1.4-2.9,1.4-4.7c0-2.2-0.7-4-2-5.4c-1.3-1.4-3-2.3-5.1-2.7c-1.3-0.2-3.6-0.4-7.1-0.4v0h-1.9h-0.2h-6.1H280V85.6h20.4
			c7.7,0,12.8,0.3,15.1,0.9c3.6,0.9,6.6,2.9,9.1,5.9c2.4,3,3.7,6.9,3.7,11.6c0,3.7-0.7,6.8-2.1,9.3c-1.4,2.5-3.2,4.5-5.3,5.9
			c-2.2,1.4-4.4,2.4-6.6,2.8c-3,0.6-7.4,0.9-13.2,0.9h-8.3v27.8H280z"/>
		<path class="st0" d="M257,92.8c-2-1.5-4.5-2.1-6.8-2.1h-68.9c-2.4,0-4.9,0.4-7,2.1c-1.1,0.8-1.9,1.9-2.4,3.1
			c-0.5,1.1-0.6,2.2-0.6,3.2c0,1.9,0.5,3.5,1.1,4.9h0c0.8,2,1.9,3.8,2.9,5.4c1,1.5,1.9,2.9,2.2,3.4c2.4,4.1,4.9,8.3,7.3,12.5
			c1.7,2.8,4.1,4.9,6.8,6.4c2.8,1.5,5.8,2.5,9.2,2.6h28.7c3.4,0,6.4-1,9.2-2.5c2.8-1.5,5.2-3.5,6.9-6.3l12.9-20.9
			c1-1.6,1.6-3.4,1.7-5.4C260.3,96.9,259.1,94.2,257,92.8L257,92.8z M236.5,120.4L236.5,120.4c-0.4,0.7-1.6,1.8-3,2.6
			c-1.4,0.8-3,1.2-3.9,1.2h-28.7c-0.8,0-2.4-0.4-3.8-1.2c-1.4-0.8-2.5-1.9-2.9-2.6c-2.4-4.2-4.9-8.3-7.3-12.5
			c-0.7-1.1-1.5-2.3-2.4-3.7c-0.7-1.1-1.4-2.3-1.9-3.3h65.9L236.5,120.4L236.5,120.4z M191.6,150.7L191.6,150.7
			c-3,0-5.4-2.3-5.4-5.1c0-2.8,2.4-5.1,5.4-5.1h52.9l35.2-54.9h14.5c3,0,5.4,2.3,5.4,5.1c0,2.8-2.4,5.1-5.4,5.1h-8.5l-35.2,54.9
			H191.6L191.6,150.7z M209.9,164.4L209.9,164.4c0,5.2-4.4,9.4-9.9,9.4c-5.5,0-9.9-4.2-9.9-9.4c0-5.2,4.4-9.4,9.9-9.4
			C205.4,155,209.9,159.2,209.9,164.4L209.9,164.4z M248.6,164.4L248.6,164.4c0,5.2-4.4,9.4-9.9,9.4c-5.5,0-9.9-4.2-9.9-9.4
			c0-5.2,4.4-9.4,9.9-9.4C244.2,155,248.6,159.2,248.6,164.4z"/>
	</g>
</g>
<g id="Layer_13">
	
		<radialGradient id="SVGID_1_" cx="454.4433" cy="185.9658" r="16.5222" gradientTransform="matrix(1.0362 0 0 0.9834 -180.6479 -26.2102)" gradientUnits="userSpaceOnUse">
		<stop  offset="0" style="stop-color:#FF1D00"/>
		<stop  offset="1" style="stop-color:#DE1400"/>
	</radialGradient>
	<path class="st3" d="M276.9,160.3c0.3-0.7,0.6-1.2,1.2-1.8c0,0,0.4-0.4,1-0.8c0.8-0.6,2-0.8,3.1-0.8h0.1c1.7,0,3.2,0.7,4.1,1.5
		c0.4-0.3,1.5-1.3,3-1.8c0.6-0.2,1.3-0.3,1.9-0.3c0.7,0,1.4,0.1,2,0.4c1,0.4,1.9,0.9,2.4,1.5c0.5,0.6,0.8,1.2,1.1,2
		c0.5,1.4,0.5,2.8-0.2,4.3c-0.2,0.4-0.4,0.8-0.6,1.2h0l0,0c0,0,0,0.1-0.1,0.1h0l-0.3,0.4h0c0,0-0.1,0.1-0.1,0.1l0,0l0,0
		c-0.2,0.3-0.5,0.7-0.8,1c-0.4,0.5-0.9,1-1.4,1.4c-0.2,0.2-0.4,0.4-0.6,0.6c-1.2,1.2-2.6,2.4-3.8,3.3c-0.6,0.4-1.5,1-2,1.2l-0.1,0
		l-0.1,0c-0.1,0-0.2-0.1-0.3-0.1c-0.7-0.3-1.7-1.1-2.9-2c-0.9-0.7-1.7-1.5-2.5-2.3c-0.2-0.2-0.4-0.4-0.6-0.6c-0.5-0.5-1-0.9-1.4-1.4
		c-0.3-0.4-0.6-0.7-0.9-1.1l0,0l-0.5-0.7l0,0c-0.3-0.5-0.5-0.9-0.6-1.2C276.6,162.9,276.5,161.5,276.9,160.3z"/>
</g>
<g id="Layer_12">
	<path class="st0" d="M171.3,32.5h4.7v2.6c0.6-0.9,1.4-1.6,2.5-2.2c1-0.6,2.2-0.8,3.5-0.8c2.2,0,4.1,0.8,5.6,2.5
		c1.5,1.6,2.3,3.9,2.3,6.9c0,3-0.8,5.4-2.3,7c-1.5,1.7-3.4,2.5-5.6,2.5c-1,0-2-0.2-2.9-0.6c-0.8-0.4-1.8-1.1-2.7-2v9h-5V32.5
		L171.3,32.5z M176.2,41.2L176.2,41.2c0,2,0.4,3.5,1.3,4.5c0.8,1,1.9,1.5,3.1,1.5c1.2,0,2.1-0.4,2.9-1.3c0.8-0.9,1.2-2.4,1.2-4.4
		c0-1.9-0.4-3.3-1.2-4.2c-0.8-0.9-1.8-1.4-3-1.4c-1.2,0-2.2,0.5-3.1,1.4C176.6,38.1,176.2,39.4,176.2,41.2z"/>
</g>
<g id="Layer_11">
	<path class="st0" d="M197.5,38l-4.5-0.8c0.5-1.8,1.4-3.1,2.6-3.9c1.3-0.8,3.1-1.3,5.6-1.3c2.2,0,3.9,0.2,5,0.8
		c1.1,0.5,1.9,1.1,2.3,1.9c0.4,0.8,0.7,2.2,0.7,4.3l-0.1,5.6c0,1.6,0.1,2.8,0.2,3.5c0.2,0.8,0.5,1.6,0.9,2.4h-5
		c-0.1-0.3-0.3-0.8-0.5-1.4c-0.1-0.3-0.1-0.5-0.2-0.6c-0.9,0.8-1.8,1.4-2.7,1.8c-1,0.4-2,0.6-3.1,0.6c-1.9,0-3.5-0.5-4.6-1.5
		c-1.1-1-1.7-2.3-1.7-3.8c0-1,0.3-1.9,0.8-2.7c0.5-0.8,1.2-1.4,2.2-1.8c0.9-0.4,2.3-0.8,4-1.1c2.3-0.4,4-0.8,4.9-1.2v-0.5
		c0-0.9-0.2-1.6-0.7-2c-0.5-0.4-1.4-0.6-2.7-0.6c-0.9,0-1.6,0.2-2.1,0.5C198.2,36.6,197.8,37.2,197.5,38L197.5,38z M204.3,41.9
		L204.3,41.9c-0.6,0.2-1.7,0.4-3.1,0.7c-1.4,0.3-2.3,0.6-2.7,0.8c-0.7,0.4-1,1-1,1.7c0,0.7,0.3,1.2,0.8,1.7c0.5,0.5,1.2,0.7,2,0.7
		c0.9,0,1.8-0.3,2.6-0.8c0.6-0.4,1-1,1.2-1.6c0.1-0.4,0.2-1.2,0.2-2.3V41.9z"/>
</g>
<g id="Layer_10">
	<path class="st0" d="M212.1,50.5v-3.8l7.1-7.7c1.2-1.3,2-2.2,2.6-2.7c-0.6,0-1.4,0.1-2.3,0.1l-6.7,0v-4h15.7v3.4l-7.3,7.9l-2.6,2.6
		c1.4-0.1,2.3-0.1,2.6-0.1h7.8v4.2H212.1z"/>
</g>
<g id="Layer_9">
	<path class="st0" d="M236.2,38l-4.5-0.8c0.5-1.8,1.4-3.1,2.6-3.9c1.3-0.8,3.1-1.3,5.6-1.3c2.2,0,3.9,0.2,5,0.8
		c1.1,0.5,1.9,1.1,2.3,1.9c0.4,0.8,0.7,2.2,0.7,4.3l-0.1,5.6c0,1.6,0.1,2.8,0.2,3.5c0.2,0.8,0.5,1.6,0.9,2.4h-5
		c-0.1-0.3-0.3-0.8-0.5-1.4c-0.1-0.3-0.1-0.5-0.2-0.6c-0.9,0.8-1.8,1.4-2.7,1.8c-1,0.4-2,0.6-3.1,0.6c-1.9,0-3.5-0.5-4.6-1.5
		c-1.1-1-1.7-2.3-1.7-3.8c0-1,0.3-1.9,0.8-2.7c0.5-0.8,1.2-1.4,2.2-1.8c0.9-0.4,2.3-0.8,4-1.1c2.3-0.4,4-0.8,4.9-1.2v-0.5
		c0-0.9-0.2-1.6-0.7-2c-0.5-0.4-1.4-0.6-2.7-0.6c-0.9,0-1.6,0.2-2.1,0.5C236.9,36.6,236.5,37.2,236.2,38L236.2,38z M242.9,41.9
		L242.9,41.9c-0.6,0.2-1.7,0.4-3.1,0.7c-1.4,0.3-2.3,0.6-2.7,0.8c-0.7,0.4-1,1-1,1.7c0,0.7,0.3,1.2,0.8,1.7c0.5,0.5,1.2,0.7,2,0.7
		c0.9,0,1.8-0.3,2.6-0.8c0.6-0.4,1-1,1.2-1.6c0.1-0.4,0.2-1.2,0.2-2.3V41.9z"/>
</g>
<g id="Layer_8">
	<path class="st0" d="M257.6,50.5h-5v-18h4.7V35c0.8-1.2,1.5-2,2.2-2.4c0.6-0.4,1.4-0.6,2.2-0.6c1.1,0,2.3,0.3,3.3,0.9l-1.6,4.2
		c-0.8-0.5-1.6-0.8-2.4-0.8c-0.7,0-1.3,0.2-1.8,0.6c-0.5,0.4-0.9,1-1.2,2c-0.3,1-0.4,3-0.4,6V50.5z"/>
</g>
<g id="Layer_7">
	<path class="st0" d="M270.8,38l-4.5-0.8c0.5-1.8,1.4-3.1,2.6-3.9c1.3-0.8,3.1-1.3,5.6-1.3c2.2,0,3.9,0.2,5,0.8
		c1.1,0.5,1.9,1.1,2.3,1.9c0.4,0.8,0.7,2.2,0.7,4.3l-0.1,5.6c0,1.6,0.1,2.8,0.2,3.5c0.2,0.8,0.5,1.6,0.9,2.4h-5
		c-0.1-0.3-0.3-0.8-0.5-1.4c-0.1-0.3-0.1-0.5-0.2-0.6c-0.9,0.8-1.8,1.4-2.7,1.8c-1,0.4-2,0.6-3.1,0.6c-1.9,0-3.5-0.5-4.6-1.5
		c-1.1-1-1.7-2.3-1.7-3.8c0-1,0.3-1.9,0.8-2.7c0.5-0.8,1.2-1.4,2.2-1.8c0.9-0.4,2.3-0.8,4-1.1c2.3-0.4,4-0.8,4.9-1.2v-0.5
		c0-0.9-0.2-1.6-0.7-2c-0.5-0.4-1.4-0.6-2.7-0.6c-0.9,0-1.6,0.2-2.1,0.5C271.5,36.6,271.1,37.2,270.8,38L270.8,38z M277.6,41.9
		L277.6,41.9c-0.6,0.2-1.7,0.4-3.1,0.7c-1.4,0.3-2.3,0.6-2.7,0.8c-0.7,0.4-1,1-1,1.7c0,0.7,0.3,1.2,0.8,1.7c0.5,0.5,1.2,0.7,2,0.7
		c0.9,0,1.8-0.3,2.6-0.8c0.6-0.4,1-1,1.2-1.6c0.1-0.4,0.2-1.2,0.2-2.3V41.9z"/>
</g>
<g id="Layer_6">
	<path class="st0" d="M287.3,32.5h4.7v2.6c0.6-0.9,1.4-1.6,2.5-2.2c1-0.6,2.2-0.8,3.5-0.8c2.2,0,4.1,0.8,5.6,2.5
		c1.5,1.6,2.3,3.9,2.3,6.9c0,3-0.8,5.4-2.3,7c-1.5,1.7-3.4,2.5-5.6,2.5c-1.1,0-2-0.2-2.9-0.6c-0.8-0.4-1.8-1.1-2.7-2v9h-5V32.5
		L287.3,32.5z M292.3,41.2L292.3,41.2c0,2,0.4,3.5,1.3,4.5c0.8,1,1.9,1.5,3.1,1.5c1.2,0,2.1-0.4,2.9-1.3c0.8-0.9,1.2-2.4,1.2-4.4
		c0-1.9-0.4-3.3-1.2-4.2c-0.8-0.9-1.8-1.4-3-1.4c-1.2,0-2.2,0.5-3.1,1.4C292.7,38.1,292.3,39.4,292.3,41.2z"/>
</g>
<g id="Layer_5">
	<path class="st0" d="M309.7,32.5h4.7v2.6c0.6-0.9,1.4-1.6,2.5-2.2c1-0.6,2.2-0.8,3.5-0.8c2.2,0,4.1,0.8,5.6,2.5
		c1.5,1.6,2.3,3.9,2.3,6.9c0,3-0.8,5.4-2.3,7c-1.6,1.7-3.4,2.5-5.6,2.5c-1,0-2-0.2-2.9-0.6c-0.8-0.4-1.8-1.1-2.7-2v9h-5V32.5
		L309.7,32.5z M314.6,41.2L314.6,41.2c0,2,0.4,3.5,1.3,4.5c0.8,1,1.9,1.5,3.1,1.5c1.2,0,2.1-0.4,2.9-1.3c0.8-0.9,1.2-2.4,1.2-4.4
		c0-1.9-0.4-3.3-1.2-4.2c-0.8-0.9-1.8-1.4-3-1.4c-1.2,0-2.2,0.5-3.1,1.4C315,38.1,314.6,39.4,314.6,41.2z"/>
</g>
<g id="Layer_4">
	<path class="st0" d="M318.8,64.3c1.4,0,2.7,0.3,4,1c1.3,0.7,2.3,1.6,3,2.8c0.7,1.2,1.1,2.5,1.1,3.9c0,1.3-0.4,2.6-1.1,3.8
		c-0.7,1.2-1.7,2.2-3,2.8c-1.3,0.7-2.6,1-4,1c-1.4,0-2.7-0.3-4-1c-1.3-0.7-2.3-1.6-3-2.8c-0.7-1.2-1.1-2.5-1.1-3.8
		c0-1.3,0.4-2.6,1.1-3.9c0.7-1.2,1.7-2.2,3-2.8C316.1,64.6,317.4,64.3,318.8,64.3L318.8,64.3z M318.8,65.6L318.8,65.6
		c-1.1,0-2.3,0.3-3.3,0.8c-1.1,0.6-1.9,1.3-2.5,2.4c-0.6,1-0.9,2.1-0.9,3.2c0,1.1,0.3,2.2,0.9,3.2c0.6,1,1.4,1.8,2.5,2.4
		c1.1,0.6,2.2,0.9,3.4,0.9c1.2,0,2.3-0.3,3.4-0.9c1.1-0.6,1.9-1.4,2.5-2.4c0.6-1,0.9-2.1,0.9-3.2c0-1.1-0.3-2.2-0.9-3.2
		c-0.6-1-1.4-1.8-2.5-2.4C321,65.8,319.9,65.6,318.8,65.6L318.8,65.6z M315.2,76.2L315.2,76.2h1.4v-3.5h0.8c0.5,0,0.9,0.1,1.1,0.3
		c0.4,0.3,0.9,0.9,1.5,1.9l0.8,1.3h1.7l-1.1-1.6c-0.5-0.8-0.9-1.3-1.3-1.6c-0.2-0.2-0.4-0.3-0.7-0.4c0.8-0.1,1.4-0.3,1.8-0.8
		c0.5-0.4,0.7-1,0.7-1.6c0-0.4-0.1-0.8-0.4-1.2c-0.3-0.4-0.6-0.6-1.1-0.8c-0.5-0.2-1.2-0.2-2.2-0.2h-3V76.2L315.2,76.2z M316.6,71.6
		L316.6,71.6h1.7c0.8,0,1.4-0.1,1.7-0.3c0.3-0.2,0.4-0.5,0.4-0.9c0-0.2-0.1-0.5-0.2-0.7c-0.1-0.2-0.3-0.3-0.6-0.4
		c-0.3-0.1-0.7-0.1-1.4-0.1h-1.6V71.6z"/>
</g>
</svg>
