<?xml version="1.0" encoding="utf-8"?>
<!-- Generator: Adobe Illustrator 24.0.1, SVG Export Plug-In . SVG Version: 6.00 Build 0)  -->
<svg version="1.1" id="Layer_1" xmlns="http://www.w3.org/2000/svg" xmlns:xlink="http://www.w3.org/1999/xlink" x="0px" y="0px"
	 viewBox="0 0 500 200" style="enable-background:new 0 0 500 200;" xml:space="preserve">
<style type="text/css">
	.st0{fill-rule:evenodd;clip-rule:evenodd;fill:#FFFFFF;}
	.st1{fill-rule:evenodd;clip-rule:evenodd;fill:#FFCA05;}
	.st2{clip-path:url(#SVGID_2_);fill:url(#SVGID_3_);}
	.st3{clip-path:url(#SVGID_5_);fill:url(#SVGID_6_);}
	.st4{clip-path:url(#SVGID_8_);fill:url(#SVGID_9_);}
	.st5{fill:#EC1C24;}
	.st6{fill:#2E3191;}
	.st7{fill:#FFFFFF;}
</style>
<g>
	<path class="st0" d="M388.2,83.6c5.7,16.5-5.5,31.4-18.4,42.6c-1,0.9-2.1,1.8-3.2,2.7c-5.5,8.7-11.6,17.1-18.2,25.1
		c-30.1,36.5-64.9,43.5-112.9,39.6c-24.8-2-51.7-6.2-74.6-15.1c-13.3-2.9-25.8-8.7-32.6-19.8c-14.7-14.6-17.9-32.3-12.2-51.3
		c6.1-20.3,17.1-42.5,29.8-60.3c5.3-7.5,11.9-13.9,19.9-19.1c22.6-14.8,54.2-17.9,81.3-19.9C276.7,6,347.6,3,373.3,18.1
		C397.5,32.3,394.9,61.6,388.2,83.6"/>
	<path class="st1" d="M151,50.2c19.2-27,51.3-33.2,96.5-36.5c57.7-4.2,105.4-1,122.5,9.1c34.4,20.2,10.7,82.7-26.6,127.9
		c-29.5,35.7-63.1,40.9-107.4,37.4c-75.8-6.1-128.6-30.3-114-79.2C127.5,90.5,138.2,68.1,151,50.2"/>
	<g>
		<defs>
			<path id="SVGID_1_" d="M152.7,51.2c-4.8,6.7-9.1,13.7-12.9,20.9c-6.4,11.8-12,24.6-15.8,37.3c-3.3,11-3.5,22.3,1.8,32.9
				c16.3,32.1,76,41.2,110.4,44c45.1,3.6,77.2-2.3,105.5-36.6c4.3-5.2,8.4-10.6,12.2-16.1c12-17.4,22.9-37.7,28-57.7
				c3.6-14.1,5.2-32.5-5-44.7c-2.2-2.7-4.9-4.9-8-6.7c-10.9-6.4-32.4-8.7-45.1-9.6c-11.7-0.8-23.5-1.1-35.2-1
				c-13.6,0.1-27.3,0.8-40.9,1.8c-14.6,1.1-29.7,2.5-44,5.6c-11.8,2.6-23.3,6.5-33.1,12.9C163.3,38.8,157.5,44.5,152.7,51.2"/>
		</defs>
		<clipPath id="SVGID_2_">
			<use xlink:href="#SVGID_1_"  style="overflow:visible;"/>
		</clipPath>
		
			<linearGradient id="SVGID_3_" gradientUnits="userSpaceOnUse" x1="-477.328" y1="-377.6708" x2="-471.221" y2="-427.9482" gradientTransform="matrix(3.3771 -3.473376e-02 3.124016e-02 3.0375 1868.1488 1309.3684)">
			<stop  offset="0" style="stop-color:#FFF100"/>
			<stop  offset="1" style="stop-color:#FFCA05"/>
		</linearGradient>
		<polygon class="st2" points="121,191.5 388.6,188.8 386.8,12.8 119.2,15.5 		"/>
	</g>
	<g>
		<defs>
			<path id="SVGID_4_" d="M233.8,172.5c58.6-8.2,104-26.3,131.6-50.2c17.8-15.5,23.3-30.3,12.6-44.8c-14.1-19.1-53.8-33.7-78.8-40.8
				c-26.1-7.4-62.3-14.4-90.9-13c-15.4,0.7-28.8,5.5-40.1,16.8c-31.8,31.9-41.2,68.1-38.9,101.7
				C131.6,175.4,176.1,180.5,233.8,172.5"/>
		</defs>
		<clipPath id="SVGID_5_">
			<use xlink:href="#SVGID_4_"  style="overflow:visible;"/>
		</clipPath>
		
			<linearGradient id="SVGID_6_" gradientUnits="userSpaceOnUse" x1="-507.4632" y1="-389.1032" x2="-444.3872" y2="-415.0963" gradientTransform="matrix(3.3771 -3.473376e-02 3.124016e-02 3.0375 1868.1488 1309.3684)">
			<stop  offset="0" style="stop-color:#2E3191"/>
			<stop  offset="1" style="stop-color:#005AA9"/>
		</linearGradient>
		<polygon class="st3" points="127.8,181 389.6,178.3 388,20.7 126.2,23.4 		"/>
	</g>
	<path class="st0" d="M236.2,163.8c52-7.2,92.2-23.3,116.7-44.5c15.8-13.7,20.7-26.9,11.2-39.7c-12.5-16.9-47.7-29.9-69.9-36.2
		C271,36.8,239,30.6,213.6,31.9c-13.7,0.7-25.5,4.8-35.6,14.9c-28.2,28.3-36.6,60.4-34.5,90.1C145.6,166.4,185,170.9,236.2,163.8"/>
	<g>
		<defs>
			<path id="SVGID_7_" d="M217.6,142.9c-1,1.3-2,2.3-2.9,2.8c-1,0.5-1.8,0.8-2.3,0.8c-1.5,0-3.1-0.8-4.7-2.4c-2.6,6-5.9,8.9-9.7,8.4
				c-2.4-0.3-4.4-2-6.1-4.7c-1.7-2.7-2.6-5.9-2.9-9.8c-0.5-6.1,0.9-11.2,3.9-15.3c3.1-4.2,7-6.3,11.7-6.4c1.8,0,3.1,0.2,4,0.7
				c0.9,0.5,1.4,1.1,1.7,1.8c0.2,0.7,0.4,1.6,0.5,2.7c0.4,5.3-0.3,11.8-1.9,19.6c1.2,1.3,2.3,2,3.5,1.9c1.3,0,2.9-1.5,4.7-4.5
				c3.5-6.1,6.3-13.5,8.3-22c2.4-0.9,4.7-1.8,7.1-2.8c-0.3,2.6-0.5,5.1-0.8,7.7c1.4-2.8,2.7-4.9,4-6.3c1.3-1.4,2.8-2.3,4.4-2.6
				c2.2-0.4,4,0.4,5.5,2.3c1.5,2,2.4,4.8,2.6,8.5c0.1,1.5,0.1,3.1,0,4.6c2.7-5.8,4.5-11.3,5.5-16.5c1.4-0.9,2.9-1.6,4.4-2.3
				c1.5-0.7,2.4-1.1,2.7-1.1c0.2-0.1,0.3,0,0.3,0.3c0,0.4-0.1,0.9-0.2,1.4c-0.3,1.4-0.3,2.7-0.3,4c0.1,1.5,0.9,3.4,2.3,5.7
				c1.4,2.3,2.3,4.5,2.4,6.8c0.3,4.4-1,9.1-3.9,14c-2.9,4.9-6,7.7-9.4,8.5c-1.5,0.3-2.8,0.1-4.1-0.7c-1.3-0.8-1.9-1.8-2-3
				c0-0.7,0.5-2.2,1.5-4.3c1.1-2.2,1.9-3.4,2.4-3.5c0.7-0.2,1.4,0.9,2.1,3.2c0.7,2.3,1.7,3.2,3,2.9c1.3-0.3,2.5-1.4,3.5-3.3
				c1-1.9,1.5-3.8,1.4-5.7c-0.1-1.8-1-4.1-2.7-6.8c-1.7-2.7-2.8-5.1-3.4-7c-2,5.5-4.5,11.3-7.6,17.1c-0.5,1.5-1.1,3-1.9,4.5
				c-2.9,6-6.3,9.4-10.1,9.9c-1.1,0.1-1.9,0.1-2.6-0.1c-0.6-0.2-1.5-0.9-2.6-1.9c-0.5,4.7-1.3,15.7-2,26.1c-0.7,10.5-0.4,3-0.5,5.8
				c-2.6,0.9-5.3,1.5-7.9,2.1c0.3-6.9,0.3-2.9,1.2-16.5c0.9-13.6,2-27.2,2.7-34.3C220.2,138.5,218.5,141.7,217.6,142.9 M352.1,109.1
				c-2.5,3.9-4.8,6.9-6.8,9c-2.1,2.1-4.4,3.6-7,4.4c-3,0.9-5.4,0.5-7.4-1.2c-1.5-1.2-2.5-3-3-5.4c-2.7,4.2-5.1,7.4-7.2,9.7
				c-2.1,2.3-4.2,3.8-6.2,4.4c-2.3,0.8-4.3,0.3-5.9-1.5c-1.2-1.3-2-3.3-2.5-5.7c-2.5,4.2-4.7,7.4-6.9,9.7c-2.2,2.4-4.5,3.9-7.1,4.7
				c-2.8,0.9-5.2,0.4-7.2-1.4c-1.5-1.4-2.5-3.3-3-5.8c-4.6,8.4-8.1,12.9-10.6,13.6c-1.4,0.4-2.6-0.2-3.7-1.8
				c-1.1-1.6-1.7-3.9-1.9-6.8c-0.4-6.2,0.6-15.1,3-26.8c2.7-1.4,5.4-2.9,8.1-4.4c0.1,0,0.2-0.1,0.4-0.1c-0.8,4.8-1.6,9.6-2.4,14.3
				c-1,6-1.4,10.1-1.2,12.5c0.1,1,0.3,1.7,0.6,2.2c0.4,0.5,0.8,0.7,1.2,0.5c0.8-0.2,1.7-0.9,2.5-2c0.8-1,1.9-3,3.5-6.1
				c0-5.3,1.4-10.6,4-15.9c3-6,6.5-9.6,10.4-10.6c1.9-0.5,3.5-0.2,4.8,0.8c1.3,1.1,2,2.7,2.2,4.9c0.1,0.8,0,1.4-0.2,1.8
				c-0.2,0.4-0.6,1-1.2,1.5c-1.2,1.1-2.4,2.2-3.6,3.4c-0.4,0.4-0.8,0.6-1,0.7c-0.3,0.1-0.5-0.2-0.5-0.7c0-0.2,0-1,0-2.3
				c0-1.3,0-2.1,0-2.3c-0.1-1.2-0.4-2.2-0.8-2.8c-0.5-0.7-1-0.9-1.7-0.7c-1.6,0.4-2.9,2.3-4,5.7c-1.1,3.4-1.5,7.1-1.3,11
				c0.2,3.4,1,5.9,2.4,7.5c1.4,1.6,3.1,2.1,5.1,1.5c1.8-0.5,3.4-1.7,4.8-3.5c1.4-1.7,2.9-4,4.6-7c-0.2-5.4,0.3-12.1,1.6-19.8
				c1.4-8.6,3.2-16.7,5.5-24.2c2.6-1.9,5.3-3.8,7.9-5.7c0.3-0.2,0.4-0.2,0.6-0.3c0.6-0.1,1.2,0.3,1.7,1.4c0.5,1.1,0.8,2.6,0.9,4.5
				c0.4,5.5-0.2,11.1-1.8,16.7c-1.6,5.7-4.4,12-8.3,19.1c0,2.8,0.1,4.8,0.2,5.9c0.2,2.3,0.7,4.1,1.5,5.2c0.8,1.2,1.8,1.6,2.9,1.2
				c1.2-0.4,2.4-1.3,3.6-2.7c1.2-1.4,3-4.1,5.4-8c-0.1-5.1,1.1-10.1,3.6-14.9c2.8-5.3,6.1-8.4,10-9.3c2-0.5,3.6-0.2,4.9,0.7
				c1.3,1,2,2.4,2.2,4.4c0.4,5.3-3.9,10.8-13.2,16.7c1.3,4.8,3.8,6.6,7.4,5.6c1.4-0.4,2.7-1.3,4-2.5c1.2-1.3,3-3.8,5.4-7.5
				C351.9,106.3,352,107.7,352.1,109.1z M334.6,106.7c5.4-3.4,7.8-7.5,7.4-12.5c-0.2-2.5-1.1-3.5-2.6-3.2c-1.4,0.3-2.7,2-3.8,4.9
				C334.6,99,334.2,102.5,334.6,106.7z M314.3,104c2.5-4.6,4.3-9.4,5.7-14.6c1.3-5.1,1.9-9.4,1.6-12.8c-0.1-1-0.3-1.8-0.5-2.3
				c-0.3-0.5-0.6-0.8-1-0.7c-0.8,0.2-1.8,2.9-2.9,8.3C316.1,87.2,315.1,94.6,314.3,104z M278.6,86.5c0.5,6.9-1.2,10.8-5,11.8
				c-1.8,0.5-3.5,0.1-4.9-1.1c1.1-2.9,1.9-6,2.4-9.3c1.8,1,3.2,1.4,4.2,1.1C276.4,88.7,277.5,87.9,278.6,86.5z M229.4,145.3
				c1.3,2.4,2.6,3.4,3.9,3.3c2.1-0.3,3.9-2.8,5.3-7.5c1.4-4.8,1.9-9.3,1.7-13.6c-0.1-2.2-0.6-4-1.3-5.3c-0.8-1.3-1.7-1.8-2.7-1.6
				c-0.8,0.1-1.7,0.8-2.5,1.9c-0.9,1.2-1.5,2.5-1.9,3.9c-0.4,1.4-0.8,3.9-1.1,7.3C230.2,137.6,229.8,141.5,229.4,145.3z
				 M177.9,105.4c0.6-5.8,1.2-11.6,1.9-17.4c0.4-3.6,0.8-7.6,1.7-11.1c0.6-2.2,1.6-4.2,2.9-6.1c1-1.4,2.5-2.9,4.4-3.3
				c2.4-0.4,4,1.1,5.1,2.9c1.4,2.4,2,5.5,2.1,8.2c0.4,6.9-0.6,13.9-2.5,20.6c-1.1,3.7-3.6,11.2-8.7,11.9c-3.3,0.5-5.6-3.1-6.8-5.3
				l-0.1-0.2L177.9,105.4z M173.4,168.6c0-0.6,0-1.3,0.1-1.9c0.1-1.3,0.2-2.6,0.3-3.9c0.3-3.7,0.5-7.4,0.8-11.1
				c0.1-1.1,0.2-2.3,0.2-3.4c0.5-7,1-14,1.5-20.9c0.4-5,0.7-10,1.2-14.9l0.2-1.8l1.3,1.3c0.9,0.8,2.4,2.2,3.5,2.7
				c1,0.4,2.3,0.3,3.4,0.2c7.1-1,11.9-9.1,14.5-14.4c3.7-7.5,6.1-19.6,5.6-27.8c-0.2-4.1-1.1-8.9-3.7-12.3c-1.8-2.4-4.1-3.8-7.4-3.2
				c-2.5,0.5-4.6,1.8-6.2,3.6c-2.4,2.7-4.3,6.2-5.9,9.3l-2.2,4.4l0.5-4.8c0.3-3.4,0.7-6.8,1-10.2c-2.9,1.2-5.9,2.3-8.9,3.5
				c-3.8,25.2-6,50.5-7.8,75.9c-0.7,10.8-1.7,21.7-2.2,32.5C166.8,170.5,170.1,169.7,173.4,168.6z M205.6,119.4
				c-0.3-0.2-0.8-0.2-1.4-0.2c-2.7,0-4.8,1.9-6,5.6c-1.3,3.6-1.7,7.9-1.4,13c0.2,2.8,0.7,5.1,1.5,6.7c0.8,1.6,1.8,2.5,2.9,2.6
				c1.5,0.1,3-1.6,4.5-5.2c-2.2-3.5-3.4-7.1-3.7-10.9C201.7,126.5,202.9,122.6,205.6,119.4z"/>
		</defs>
		<clipPath id="SVGID_8_">
			<use xlink:href="#SVGID_7_"  style="overflow:visible;"/>
		</clipPath>
		
			<linearGradient id="SVGID_9_" gradientUnits="userSpaceOnUse" x1="-497.1474" y1="-406.8957" x2="-452.6443" y2="-387.7831" gradientTransform="matrix(3.3771 -3.473376e-02 3.124016e-02 3.0375 1868.1488 1309.3684)">
			<stop  offset="0" style="stop-color:#EC1C24"/>
			<stop  offset="1" style="stop-color:#B9131A"/>
		</linearGradient>
		<polygon class="st4" points="163.6,187.2 352.9,185.3 351.6,54.9 162.2,56.8 		"/>
	</g>
	<path class="st5" d="M349.2,39.4l1.9,0c0.9,0,1.5-0.1,1.9-0.4c0.3-0.2,0.5-0.6,0.5-1c0-0.3-0.1-0.5-0.2-0.7
		c-0.2-0.2-0.4-0.4-0.7-0.4c-0.3-0.1-0.8-0.1-1.6-0.1l-1.8,0L349.2,39.4z M347.7,44.4l-0.1-8.7l3.3,0c1.1,0,2,0.1,2.5,0.2
		c0.5,0.2,0.9,0.4,1.2,0.8c0.3,0.4,0.5,0.8,0.5,1.3c0,0.6-0.2,1.2-0.7,1.7c-0.5,0.5-1.2,0.8-2,0.8c0.3,0.1,0.6,0.3,0.8,0.5
		c0.4,0.3,0.9,0.9,1.5,1.7l1.2,1.7l-1.9,0l-0.9-1.4c-0.7-1.1-1.2-1.7-1.7-2c-0.3-0.2-0.7-0.3-1.3-0.3l-0.9,0l0,3.7L347.7,44.4z
		 M351.5,33c-1.3,0-2.5,0.3-3.7,0.9c-1.2,0.6-2.1,1.4-2.8,2.5c-0.7,1.1-1,2.2-1,3.4c0,1.2,0.4,2.3,1,3.4c0.7,1.1,1.6,1.9,2.8,2.5
		c1.2,0.6,2.5,0.9,3.8,0.9c1.3,0,2.5-0.3,3.7-0.9c1.2-0.6,2.1-1.5,2.8-2.5c0.7-1.1,1-2.2,1-3.4c0-1.2-0.4-2.3-1-3.4
		c-0.7-1.1-1.6-1.9-2.8-2.5C354,33.3,352.8,33,351.5,33z M351.5,31.7c1.5,0,3,0.3,4.5,1c1.4,0.7,2.6,1.7,3.4,3
		c0.8,1.3,1.2,2.6,1.3,4.1c0,1.4-0.4,2.7-1.2,4c-0.8,1.3-1.9,2.3-3.3,3c-1.4,0.7-2.9,1.1-4.5,1.1c-1.6,0-3.1-0.3-4.5-1
		c-1.4-0.7-2.6-1.7-3.4-3c-0.8-1.3-1.2-2.6-1.2-4c0-1.4,0.4-2.8,1.2-4.1c0.8-1.3,1.9-2.3,3.4-3C348.5,32.1,350,31.7,351.5,31.7z"/>
	<path class="st6" d="M293.2,66.5c0,1.6-0.5,3-1.5,4c-1,1-2.6,1.8-4.6,2.3c-0.1-0.9-0.2-1.7-0.4-2.6c0.9-0.2,1.6-0.5,2.1-1
		c0.5-0.5,0.9-1.1,1-2c-1.1,0.2-2.2,0.5-3.4,0.7c-1,0.2-1.9,0.2-2.7,0c-0.9-0.2-1.7-0.5-2.4-1c-0.7-0.5-1.3-1.1-1.8-1.9
		c-0.5-0.8-0.8-1.7-0.9-2.6c-0.1-1-0.1-1.9,0.2-2.8c0.2-0.9,0.6-1.7,1.2-2.3c0.6-0.7,1.2-1.3,2-1.8c0.8-0.5,1.7-0.8,2.7-1
		c1-0.2,1.9-0.2,2.7,0c0.8,0.2,1.6,0.5,2.3,1c0.7,0.5,1.2,1.1,1.6,1.8c0.4,0.7,0.7,1.6,0.9,2.5c0.2,1.1,0.3,2.2,0.5,3.3
		c2.1-0.5,0.5-0.1,2.6-0.6c0.6-0.1,1-0.3,1.4-0.5c0.3-0.2,0.6-0.5,0.7-0.9c0.1-0.2,0.1-0.5,0.1-0.8c0-0.4,0-0.8-0.1-1.3
		c-0.2-1.1-0.3-2.2-0.5-3.3c-0.2-1.1-0.3-2.2-0.5-3.4c1.2-0.2,2.3-0.4,3.5-0.6c0.2,1.3,0.4,2.6,0.6,3.9c0.2,1.3,0.4,2.6,0.6,3.8
		c0.3,1.7,0,3.1-0.7,4.1c-0.7,1-2,1.8-3.7,2.2C294.2,66.3,295.6,66,293.2,66.5 M289.2,63.9c-0.2-1.3-0.4-2.7-0.6-4
		c-0.1-0.6-0.4-1.1-0.7-1.4c-0.3-0.4-0.7-0.7-1.2-0.8c-0.5-0.2-1-0.2-1.6-0.1c-0.7,0.1-1.3,0.4-1.7,0.8c-0.5,0.4-0.8,0.8-1,1.4
		c-0.2,0.6-0.3,1.2-0.2,1.8c0.1,0.7,0.3,1.3,0.7,1.8c0.4,0.5,0.8,0.9,1.4,1.1c0.5,0.2,1.1,0.3,1.8,0.2
		C287.2,64.4,288.2,64.1,289.2,63.9z M277.6,76.4c-1.1,0.2-2.3,0.5-3.4,0.7c-0.2-1.1-0.3-2.2-0.5-3.3c1.1-0.2,2.3-0.4,3.4-0.6
		C277.3,74.2,277.4,75.3,277.6,76.4z M240.9,75.2c-0.5,1.1-1.1,2-1.8,2.8c-0.8,0.8-1.7,1.4-2.7,1.9c-1,0.5-2.1,0.7-3.2,0.8
		c-1.1,0.1-2.2-0.1-3.2-0.4c-1-0.3-2-0.7-2.9-1.3c-0.9-0.6-1.7-1.3-2.5-2.1c-0.7-0.8-1.3-1.7-1.8-2.6c-0.5-1-0.8-2-1-3.1
		c-0.1-0.9-0.3-1.9-0.4-2.8c1.2-0.1,2.3-0.1,3.5-0.2c0.1,0.8,0.2,1.6,0.4,2.4c0.2,1,0.4,1.9,0.9,2.8c0.4,0.8,1,1.6,1.6,2.2
		c0.7,0.6,1.4,1.1,2.2,1.4c0.8,0.3,1.7,0.5,2.7,0.4c0.9-0.1,1.8-0.3,2.5-0.7c0.7-0.4,1.3-1,1.8-1.7c0.5-0.7,0.8-1.5,1-2.4
		c0.2-0.9,0.2-1.9,0.1-2.9c-0.3-2.2-0.6-4.5-1-6.7c-0.3-2.2-1.1-6.3-1.4-8.5c1.2-0.1,2.4-0.3,3.5-0.4c0.3,2.3,1.1,6.4,1.4,8.7
		c0.3,2.3,0.7,4.6,1,6.9c0,0.3,0.1,0.6,0.1,0.9c0,0.3,0,0.6,0,0.9c11.9-1.1-2.6,0.3,6.4-0.8c0.9-0.1,1.5-0.5,1.9-1.1
		c0.4-0.6,0.5-1.6,0.3-2.7c-0.3-2.2-0.6-4.4-0.9-6.6c1.2-0.2,2.4-0.3,3.5-0.5c0.3,2.2,0.6,4.4,0.9,6.5c0.1,0.9,0.2,1.6,0.2,2.2
		c0,0.6-0.1,1-0.2,1.3c0,0.1,0,0.1,0,0.2c0.3,0,0.7-0.1,1-0.1c0.9-0.1,1.5-0.5,1.9-1.1c0.4-0.6,0.5-1.5,0.3-2.6
		c-0.3-2.3-0.6-4.6-1-6.9c1.2-0.2,2.4-0.4,3.5-0.5c0.3,2.2,0.6,4.4,0.9,6.5c0.1,1,0.2,1.8,0.2,2.4c0,0.6-0.2,1.1-0.4,1.4
		c0.4-0.1,0.8-0.1,1.1-0.2c0.9-0.1,1.5-0.5,1.9-1.1c0.4-0.6,0.5-1.5,0.3-2.6c-0.3-2.3-0.7-4.6-1-6.9c1.2-0.2,2.3-0.4,3.5-0.6
		c0.3,2.2,0.6,4.3,0.9,6.5c0.1,0.7,0.1,1.4,0.1,2c0,0.6-0.2,1.3-0.3,1.8c2.4-0.4,1.1-0.2,3.5-0.6c0.6-0.1,1-0.3,1.4-0.5
		c0.3-0.2,0.6-0.5,0.7-0.9c0-0.2,0.1-0.5,0.1-0.8c0-0.4-0.1-0.8-0.1-1.4c-0.2-1.2-0.3-2.3-0.5-3.5c-0.2-1.2-0.3-2.3-0.5-3.5
		c1.2-0.2,2.3-0.4,3.5-0.6c0.2,1.4,0.4,2.7,0.6,4.1c0.2,1.4,0.4,2.7,0.6,4.1c0.3,1.8,0,3.2-0.7,4.3c-0.7,1.1-2,1.8-3.7,2.1
		C261.4,72.6,251.2,74.2,240.9,75.2z M302.7,70.7c-1.1,0.3-2.3,0.6-3.4,0.8c-0.2-1-0.3-2.1-0.5-3.2c1.1-0.3,2.3-0.5,3.4-0.8
		C302.3,68.6,302.5,69.6,302.7,70.7z"/>
</g>
<g>
	
		<image style="overflow:visible;opacity:0.66;" width="185" height="56" xlink:href="476CF83A.png"  transform="matrix(1 0 0 1 -1302.0146 348.2867)">
	</image>
	<g>
		<g>
			<path class="st7" d="M-1289.9,372.3c0.6-1.3,1.9-2.2,2.6-2c1.8-4,5.2-3.5,6.2-0.3c-0.1,6.8-5.6,12.9-8.2,10l-1.6,5.4
				c-0.8,1-2.4,0.6-1.9-0.9L-1289.9,372.3z M-1283.5,371.7c0.3-3-3-1.8-3.3-0.9c-1.2,2.8-1.4,4.6-2.2,8.1
				C-1288.3,380.5-1285.3,378.5-1283.5,371.7z"/>
			<path class="st7" d="M-1279.5,374.9c-0.4,1.5-0.9,3.2-1.3,4.6c0.2,1.5,0.4,1.7,0.7,1.9c0.5,0.2,1.3-0.8,2.7-2.3
				c-1,1.7-2,3.2-3.2,3.8c-0.8,0.4-1.5,0.4-2.1,0c-2.2-2.3,1.5-9.7,2.6-8.6C-1279.7,374.2-1279.4,374.4-1279.5,374.9z
				 M-1276.9,370.7c-0.2,1-1.1,1.8-2.1,1.8c-1,0-1.6-0.8-1.3-1.8c0.1-1,1.1-1.8,2.1-1.8C-1277.3,368.9-1276.8,369.6-1276.9,370.7z"
				/>
			<path class="st7" d="M-1274.6,376.2c0.2,0.8,1.1,1.5,2.3,2c1.1,0,1.8,0,2.5-0.6c0.2-0.1-1.1,1-2.2,1.3c0,0,0.4,0.9,0.4,0.9
				c0.2,3.7-7.8,4.2-7.2,1c0.1-0.7,0.8-1.3,1.9-1.8l1.4-0.5c-2.1-1.5-2.4-3.5,0-4.8c0.4-0.2,3.5,1.1,1,1.6
				C-1274.7,375.5-1274.7,375.8-1274.6,376.2z M-1274.4,379.5c-2-0.3-3.3,0.3-4.2,1.3C-1278,382.9-1273.8,381.8-1274.4,379.5z"/>
			<path class="st7" d="M-1268.9,372.9c-3,0.3-3.1,0.1,0.3-1c0.5-2.8,1.6-3.5,2.4-3.6c0.9,0,1.4,0.2,0.4,3c5.5-1.2,4.2,1-0.1,1.2
				l-2.3,8c-0.1,0.6-0.1,1.6,0.3,1.7c0.4,0.1,1.2-0.6,2.5-1.9c-0.9,1.4-1.9,2.6-2.9,3.1c-0.8,0.3-1.4,0.3-1.9-0.1
				c-0.5-0.4-1-1.1-0.6-1.8L-1268.9,372.9z"/>
			<path class="st7" d="M-1257.8,380.6c0.4,0.2,1.2-0.6,2.5-1.9c-0.9,1.4-1.9,2.6-2.9,3.1c-0.8,0.4-1.4,0.3-1.9,0
				c-0.3-0.3-0.4-0.5-0.6-0.8c-0.2-0.5-0.3-1.2-0.2-2.2c-1,3.1-2.4,4.4-4.1,4.3c-2.6-0.5-0.9-5.3,2.1-8.1c2.1-1.6,3.3-1.1,4,0.1
				C-1258.4,379.8-1258.2,380.4-1257.8,380.6z M-1263.1,378.6c-1,2.3-1,3.3,0.1,2.9c1.8-1.7,2.3-4.1,2.1-5.6
				C-1261.5,376.4-1262,376.6-1263.1,378.6z"/>
			<path class="st7" d="M-1251.7,374.6c-1.7,0.5-3.9,5.8-2.8,6.5c0.9,0.4,2.7-1.6,4.8-3.6c-0.4,1.1-1.7,3.2-3.6,4.2
				c-2.1,1-3.5,1.1-4.1-0.3c-0.4-3.1,1.7-6.5,4-7.8c1.5-0.1,2.1,0.9,2.1,2.3L-1251.7,374.6z"/>
			<path class="st7" d="M-1243,366.7c-0.2,1.4-1.6,4.1-3.6,6c-0.4,1.3-0.6,2.4-0.6,3.2c1.6-1.9,3-2.6,4-1.9c1.8,1.4-1.5,6.3-1,7.2
				c1.8-1.8,2.3-3.2,2.8-3.9c-0.8,1.8-2.9,5.4-4.6,4.9c-1.6-1.2-0.2-3.2,0.5-5.1c0.5-1.3,0.5-2.1,0-2c-0.5-0.1-1.2,0.7-2.1,2.3
				c-0.4,1.4-0.5,4.2-1.3,4.7c-0.8,0.5-1.5,0.4-2.2,0C-1249.8,371.2-1246.6,363.4-1243,366.7z M-1246.6,372.2c1.3-1.4,2.8-3.9,3.1-5
				C-1244.4,367.9-1246,370.3-1246.6,372.2z"/>
			<path class="st7" d="M-1238.5,374.9c-0.4,1.5-0.9,3.2-1.3,4.6c0.2,1.5,0.4,1.7,0.7,1.9c0.5,0.2,1.3-0.8,2.7-2.3
				c-1,1.7-2,3.2-3.2,3.8c-0.8,0.4-1.5,0.4-2.1,0c-2.2-2.3,1.5-9.7,2.6-8.6C-1238.7,374.2-1238.5,374.4-1238.5,374.9z
				 M-1235.9,370.7c-0.2,1-1.1,1.8-2.1,1.8c-1,0-1.6-0.8-1.3-1.8c0.1-1,1.1-1.8,2.1-1.8C-1236.3,368.9-1235.8,369.6-1235.9,370.7z"
				/>
			<path class="st7" d="M-1230.9,377.1c0.6,0.5,1.7-0.8,1.9-1.5c0.1-0.3-0.3,1.5-0.8,1.9c-0.6,0.5-0.9,0.5-1.1,0.5
				c-0.1,2.9-3.1,5.6-5.1,4.4c-2.9-1.6-0.1-7.7,2.4-8C-1231.6,373.3-1230.5,375.1-1230.9,377.1z M-1234.5,381.3
				c2.2,0,3.2-1.9,3.4-3.2c-1.5,0.5-1.8-0.3-2.5-1.2C-1235.2,379.7-1235.1,380.8-1234.5,381.3z M-1232.5,375.7
				c0,0.5,0.4,1.5,1.2,1.4c0.1-0.3,0-1.6-0.6-1.9L-1232.5,375.7z"/>
			<path class="st7" d="M-1226.2,376.2c0.2,0.8,1.1,1.5,2.3,2c1.1,0,1.8,0,2.5-0.6c0.2-0.1-1.1,1-2.2,1.3c0,0,0.4,0.9,0.4,0.9
				c0.2,3.7-7.8,4.2-7.2,1c0.1-0.7,0.8-1.3,1.9-1.8l1.4-0.5c-2.1-1.5-2.4-3.5,0-4.8c0.4-0.2,3.5,1.1,1,1.6
				C-1226.2,375.5-1226.3,375.8-1226.2,376.2z M-1225.9,379.5c-2-0.3-3.3,0.3-4.2,1.3C-1229.5,382.9-1225.3,381.8-1225.9,379.5z"/>
			<path class="st7" d="M-1203.7,377.7c-0.1,1.4-3.4,4.6-6.1,5.6c-0.1,0.8-0.2,1.6-0.4,2.5c-0.1,0.5-1.2,0.5-1.1,0.2
				c0.1-0.8,0.2-1.5,0.3-2.3c-1.8,0.4-4.8-0.3-5.3-1.7c-0.7-2,0.6-3.6,1.9-4.7c0.7-0.6,4.3-1.4,5-1.9c-3.2,0.2-8.5-2.4-3.7-4.9
				c0.4-0.2,3-1.1,3.8-1.3c0.2-1,0.3-1.9,0.4-2.9c0-0.5,1.3-0.2,1.3,0.1c-0.1,0.9-0.3,1.8-0.4,2.7c1.2-0.2,3.4-0.3,3.7,0.5
				c0.8,1.9-3.9,4.2-4.6,3.6c-0.7-0.6,0.2-0.7,0.4-0.7c0.6-0.2,1.1-0.5,1.5-1c0.2-0.2,0.4-0.4,0.2-0.5c-1-1.1-6.2,0.4-5.6,2.4
				c0.2,0.7,0.9,1.1,1.6,1.3c0.6,0.2,1.6,0,2.3,0c0.2-0.2,0.4-0.3,0.7-0.1c0.2,0,0.3,0.1,0.2,0.3c0,0,0.1,0,0.1,0.1
				c-0.1,0.1-0.3,0.2-0.4,0.2c-0.2,0.2-0.6,0.4-1,0.7c-1.5,1.1-3.5,2.4-4.5,4c-1,1.5,0,2.8,1.6,2.6c1.2-0.2,3.7-0.9,5.2-2.8
				c0.3-0.4,0.5-0.9,0.5-1.3c0,0,0-0.3,0-0.3c0-0.1,0-0.1,0-0.1c-0.3-0.2-1.3,0.4-1.8,0.7C-1213.7,382.4-1203.3,373.3-1203.7,377.7z
				"/>
			<path class="st7" d="M-1196,366.7c1.4-0.4-0.5,11.1,1.1,14c2.8-3,6.5-9.1,7.2-14.3l0.8-1c0.3,6-6,16.7-9.5,17.9
				C-1199.4,382.3-1198.3,368.1-1196,366.7z"/>
			<path class="st7" d="M-1181.2,380.6c0.4,0.2,1.2-0.6,2.5-1.9c-0.9,1.4-1.9,2.6-2.9,3.1c-0.8,0.4-1.4,0.3-1.9,0
				c-0.3-0.3-0.4-0.5-0.6-0.8c-0.2-0.5-0.3-1.2-0.2-2.2c-1,3.1-2.4,4.4-4.1,4.3c-2.6-0.5-0.9-5.3,2.1-8.1c2.1-1.6,3.3-1.1,4,0.1
				C-1181.8,379.8-1181.6,380.4-1181.2,380.6z M-1186.5,378.6c-1,2.3-1,3.3,0.1,2.9c1.8-1.7,2.3-4.1,2.1-5.6
				C-1184.9,376.4-1185.4,376.6-1186.5,378.6z"/>
			<path class="st7" d="M-1174.8,375.7l-3.3,3.7c-0.6,1.3,0.2,2.1-0.9,2.7c-0.7,0.4-1.2,0.5-1.9,0.4l0.8-5.6c0.1-0.6,0.5-1.2,1-1.7
				c0.4-0.4-0.2,0,0.4-0.3c0.9-0.4,1.1-0.2,1.6,0.3l-0.6,2.6c0.7-0.8,6-6.7,5.9-3c0,0.9-0.5,1.8-0.6,2.7c0,0.1-1.2,4.2-1.2,4.4
				l0.8-0.5c1.6-1.8,2-3,2.3-3.7c-0.4,2-1.2,2.9-2.2,4.1c-0.7,0.9-1.3,1.3-1.9,1.2c-0.6,0.2-0.8-0.2-1-0.5
				C-1176.7,381.3-1174.6,376.3-1174.8,375.7z"/>
			<path class="st7" d="M-1168.5,374.9c-0.4,1.5-0.9,3.2-1.3,4.6c0.2,1.5,0.4,1.7,0.7,1.9c0.5,0.2,1.3-0.8,2.7-2.3
				c-1,1.7-2,3.2-3.2,3.8c-0.8,0.4-1.5,0.4-2.1,0c-2.2-2.3,1.5-9.7,2.6-8.6C-1168.7,374.2-1168.5,374.4-1168.5,374.9z M-1166,370.7
				c-0.2,1-1.1,1.8-2.1,1.8c-1,0-1.6-0.8-1.3-1.8c0.1-1,1.1-1.8,2.1-1.8C-1166.4,368.9-1165.8,369.6-1166,370.7z"/>
			<path class="st7" d="M-1164.5,380.3c-0.1,0.1,0.2,1.7,0.5,1.7c0.2-0.1,4.4-3.7,4.4-3.7c-1.2,2.2-4.4,5-6,5
				c-2.9-0.4-2.4-8.2,1.7-15.3c1.5-2,2.7-2.3,3.5-0.7c-0.1,1.4-1.2,3.2-3,5.2C-1164.2,375.2-1164.5,377.8-1164.5,380.3z
				 M-1163,371.6c1.2-1.5,1.8-2.7,2.2-3.8C-1161.8,368.5-1162.5,369.7-1163,371.6z"/>
			<path class="st7" d="M-1157.9,380.3c-0.1,0.1,0.2,1.7,0.5,1.7c0.2-0.1,4.4-3.7,4.4-3.7c-1.2,2.2-4.4,5-6,5
				c-2.9-0.4-2.4-8.2,1.7-15.3c1.5-2,2.7-2.3,3.5-0.7c-0.1,1.4-1.2,3.2-3,5.2C-1157.6,375.2-1157.9,377.8-1157.9,380.3z
				 M-1156.4,371.6c1.2-1.5,1.8-2.7,2.2-3.8C-1155.2,368.5-1155.9,369.7-1156.4,371.6z"/>
			<path class="st7" d="M-1146.1,380.6c0.4,0.2,1.2-0.6,2.5-1.9c-0.9,1.4-1.9,2.6-2.9,3.1c-0.8,0.4-1.4,0.3-1.9,0
				c-0.3-0.3-0.4-0.5-0.6-0.8c-0.2-0.5-0.3-1.2-0.2-2.2c-1,3.1-2.4,4.4-4.1,4.3c-2.6-0.5-0.9-5.3,2.1-8.1c2.1-1.6,3.3-1.1,4,0.1
				C-1146.7,379.8-1146.5,380.4-1146.1,380.6z M-1151.4,378.6c-1,2.3-1,3.3,0.1,2.9c1.8-1.7,2.3-4.1,2.1-5.6
				C-1149.8,376.4-1150.3,376.6-1151.4,378.6z"/>
		</g>
	</g>
</g>
</svg>
