<?xml version="1.0" encoding="utf-8"?>
<!-- Generator: Adobe Illustrator 24.0.1, SVG Export Plug-In . SVG Version: 6.00 Build 0)  -->
<svg version="1.1" id="Layer_1" xmlns="http://www.w3.org/2000/svg" xmlns:xlink="http://www.w3.org/1999/xlink" x="0px" y="0px"
	 viewBox="0 0 500 200" style="enable-background:new 0 0 500 200;" xml:space="preserve">
<style type="text/css">
	.st0{fill-rule:evenodd;clip-rule:evenodd;fill:#005A2F;}
	.st1{fill-rule:evenodd;clip-rule:evenodd;fill:#D71920;}
</style>
<path class="st0" d="M361.5,162.5c-83.1-25.4-161.1-21.8-247.9,15c-17.4,7.4-18.6,2.3-2.3-7.7c3.8-2.4,8.6-4.8,14.1-7.6
	c73.4-42.5,178-36.1,249.6-1.4c5.2,2.3,18.8,9.3,23.5,12.5c1.6,0.7,2,1.1,1.5,1.3c0.3,0.5-0.2,0.6-1.9,0.2c-3.2,0-9.5-0.9-14.7-1.8
	c-50.5-8.8-92.1-16.3-102.2,18.3c-37-0.1-69.4-6.4-97.4-18.5C231.3,147.9,296.8,146.8,361.5,162.5z"/>
<path class="st1" d="M353.4,132.5V126c1.1,0.4,2.4,0.8,3.8,0.9c0.5,0.1,0.5,0.5,0,1.3c-0.4,0.8-1.1,1.7-2.2,2.7
	C354.6,131.4,354,132,353.4,132.5L353.4,132.5z M353.4,122.1c0.6,0.3,1.2,0.4,1.8,0.4c1.6,0,3.2-0.6,4.7-1.8
	c1.5-1.2,2.9-2.7,4.3-4.5c1.4-1.8,2.7-3.6,3.9-5.5c1.2-1.9,2.3-3.6,3.3-5c-0.5,1.8-0.9,3.6-1.2,5.5c-0.3,1.9-0.5,3.7-0.5,5.5
	c-0.1,1.8,0.1,3.5,0.4,5c0.3,1.6,0.9,2.9,1.7,4.1c1.2,1.5,2.4,2.5,3.7,3c1.3,0.5,2.6,0.8,3.8,0.8c1.2,0,2.3-0.2,3.3-0.6
	c1-0.4,1.7-0.9,2.3-1.3c0.7-0.5,0.8-1.1,0.3-1.9c-0.9-1.2-1.7-2.9-2.3-5.1c-0.6-2.2-1-4.6-1-7.4c-0.1-2.8,0.2-5.8,0.8-9.1
	c0.6-3.2,1.6-6.5,3.1-9.8c0.1-0.2,0.2-0.4,0.2-0.6c0-0.2,0.1-0.4,0.1-0.5c0.1-0.1,0.2-0.2,0.2-0.3c0.3-0.5,0.2-1-0.2-1.4l-0.6-0.3
	c-1.8-0.7-3.5-0.8-5.1-0.4c-1.6,0.5-3.1,1.2-4.5,2.3c-1.4,1.1-2.7,2.4-3.9,3.9c-1.2,1.5-2.3,2.8-3.4,4c-1.1,1.2-2.1,2.2-3,2.9
	c-0.9,0.7-1.8,0.8-2.5,0.4c-0.5-0.3-0.7-1-0.5-2.3c0.2-1.3,0.6-2.7,1.4-4.3c0.8-1.6,1.9-3.1,3.3-4.7c1.4-1.6,3.1-2.8,5-3.8
	c2-1,4.2-1.5,6.7-1.5c2.5,0,5.2,0.7,8,2.2c1,0.5,1.8,0.5,2.5-0.1c0.7-0.6,1.1-1.5,1.3-2.7c0.2-1.2,0.2-2.6-0.1-4.1
	c-0.3-1.5-0.8-3-1.7-4.4c-0.9-1.4-2.1-2.5-3.7-3.5c-1.6-0.9-3.5-1.5-5.8-1.5c-2.3-0.1-4.7,0.7-7.2,2.3c-2.5,1.6-5,3.7-7.4,6.3
	c-2.4,2.6-4.7,5.5-6.8,8.7c-1.8,2.8-3.4,5.6-4.7,8.4V122.1z M353.4,99.4v22.7c-0.4-0.2-0.8-0.4-1.2-0.7c-1-0.8-1.8-2.2-2.5-4.3
	c-0.6-1.9-0.6-4.3,0-7.1c0.6-2.9,1.6-5.9,3.1-9.1C353,100.3,353.2,99.9,353.4,99.4L353.4,99.4z M353.4,126c-1.7-0.7-3.1-1.6-4.3-2.8
	c-2-2.1-3.4-4.6-4.2-7.5c-0.8-3-1.3-6.2-1.3-9.7c0-3.5,0.2-7,0.7-10.4c0.5-3.4,1-6.6,1.8-9.6c0.7-3,1.3-5.4,1.9-7.2
	c0.1-0.5,0.3-1.1,0.5-1.9c0.2-0.8,0.3-1.6,0.4-2.5c0.1-0.9,0.1-1.7,0-2.5c-0.1-0.8-0.5-1.4-1.1-1.8c-1.6-0.7-3.2-0.9-4.8-0.5
	c-1.7,0.4-3.3,1.1-4.9,2.2c-1.6,1.1-3.2,2.4-4.8,4c-1.6,1.6-3,3.2-4.4,4.8c-1.3,1.7-2.5,3.3-3.6,4.9c-1.1,1.6-1.9,2.9-2.6,4
	c0.2-3,0.1-5.1-0.3-6.2c-0.4-1.1-0.9-1.6-1.7-1.5c-0.7,0.2-1.6,0.9-2.6,2.2c-1,1.3-2,2.9-2.9,4.7c-0.9,1.9-1.8,4-2.6,6.3l-0.2,0.5
	v18.1c0.6,0.7,1.3,1.2,2,1.6c1,0.6,2,1,2.9,1.2c1,0.2,1.9,0.3,2.8,0.2c0.9-0.1,1.7-0.2,2.4-0.5c0.7-0.3,1.1-0.7,1.3-1.2
	c0.1-0.5,0.2-0.8,0.2-1.2c0-2.7,0.5-5.8,1.6-9.3c1-3.5,2.3-6.8,3.7-10c1.4-3.2,2.9-6.1,4.4-8.6c1.5-2.5,2.6-4.1,3.5-4.8
	c1-0.8,1.5-0.9,1.5-0.2c0,0.7-0.2,1.6-0.6,2.8c-2.9,8.2-4.9,15.3-6,21.2c-1.1,5.9-1.5,10.9-1.3,14.9c0.2,4,0.9,7.3,2.2,9.7
	c1.2,2.4,2.6,4.2,4.3,5.4c1.6,1.2,3.3,1.8,5,2c1.7,0.2,3.2,0,4.5-0.3c1.7-0.6,3.3-1.4,4.8-2.4c0.7-0.5,1.4-1,2.1-1.5V126L353.4,126z
	 M312.3,90.4v-12c0.1,0.1,0.2,0.3,0.3,0.4c0.9,1.4,1.5,2.8,1.7,4.4c0.3,1.5,0.3,2.9,0.1,4.1c-0.2,1.2-0.6,2.1-1.3,2.7
	C312.8,90.2,312.5,90.3,312.3,90.4z M312.3,78.4v12c-0.5,0.1-1.1,0.1-1.7-0.3c-2.9-1.5-5.5-2.2-8-2.2c-2.5,0-4.7,0.5-6.7,1.5
	c-2,1-3.6,2.3-5,3.8c-1.4,1.6-2.5,3.1-3.3,4.7c-0.8,1.6-1.3,3-1.4,4.3c-0.2,1.3,0,2,0.5,2.3c0.8,0.5,1.6,0.3,2.5-0.4
	c0.9-0.7,1.9-1.7,3-2.9c1.1-1.2,2.2-2.5,3.4-4c1.2-1.5,2.5-2.8,3.9-3.9c1.4-1.1,2.9-1.9,4.5-2.3c1.6-0.5,3.3-0.3,5.1,0.4l0.6,0.3
	c0.4,0.4,0.5,0.8,0.2,1.4c0,0.1-0.1,0.2-0.2,0.3c-0.1,0.1-0.1,0.3-0.1,0.5c0,0.2-0.1,0.4-0.2,0.6c-1.5,3.3-2.5,6.6-3.1,9.8
	c-0.6,3.2-0.8,6.2-0.8,9.1c0.1,2.8,0.4,5.3,1,7.4c0.6,2.2,1.4,3.8,2.3,5.1c0.5,0.8,0.4,1.4-0.3,1.9c-0.5,0.5-1.3,0.9-2.3,1.3
	c-1,0.4-2.1,0.6-3.3,0.6c-1.2,0-2.5-0.3-3.8-0.8c-1.3-0.5-2.5-1.5-3.7-3c-0.8-1.2-1.3-2.5-1.7-4.1c-0.3-1.6-0.5-3.2-0.4-5
	c0.1-1.8,0.2-3.6,0.5-5.5c0.3-1.9,0.7-3.7,1.2-5.5c-1,1.4-2.1,3.1-3.3,5c-1.2,1.9-2.5,3.8-3.9,5.5c-1.4,1.8-2.8,3.2-4.3,4.5
	c-1.5,1.2-3.1,1.8-4.7,1.8c-0.2,0-0.5,0-0.7-0.1V97.2c1.1-2,2.2-4.1,3.6-6.1c2.1-3.2,4.3-6.1,6.8-8.7c2.4-2.6,4.9-4.7,7.4-6.3
	c2.5-1.6,4.9-2.4,7.2-2.3c2.3,0.1,4.2,0.6,5.8,1.5C310.3,76.2,311.4,77.2,312.3,78.4L312.3,78.4z M312.3,95.4
	c-0.7,2.1-1.3,4.2-1.7,6.3c-0.4,2.2-0.6,4.3-0.5,6.3c0.1,2,0.6,3.5,1.5,4.7c0.2,0.3,0.4,0.6,0.7,0.8V95.4L312.3,95.4z M278.2,141.8
	v-8c1.4,0.7,3.1,1.1,4.9,1.3c0.5,0.1,0.5,0.5,0,1.4c-0.4,0.8-1.2,1.8-2.3,2.9C280.2,140.2,279.2,141,278.2,141.8z M168.6,122.1
	c0.8,0.5,1.5,1.4,2.2,2.7c0.7,1.3,1.2,2.7,1.6,4.4c0.4,1.7,0.6,3.4,0.5,5.2c0,1.8-0.4,3.6-1,5.2c-0.7,1.7-1.7,3.1-3,4.4
	c-0.1,0.1-0.3,0.2-0.4,0.4V122C168.6,122.1,168.6,122.1,168.6,122.1L168.6,122.1z M278.2,97.2v25.3c-0.8-0.1-1.6-0.5-2.3-1.1
	c-1-0.8-1.8-2.2-2.5-4.3c-0.6-1.9-0.6-4.3,0-7.1c0.6-2.9,1.6-5.9,3.1-9.1C277,99.5,277.6,98.4,278.2,97.2L278.2,97.2z M278.2,133.8
	c-1.5-0.7-2.8-1.6-3.8-2.7c-2.1-2.2-3.7-4.9-4.6-8.1c-0.9-3.2-1.4-6.7-1.4-10.5c0-3.8,0.2-7.6,0.7-11.3c0.5-3.7,1.1-7.1,1.8-10.4
	c0.7-3.2,1.4-5.8,2-7.8c0.1-0.5,0.3-1.1,0.5-2c0.2-0.9,0.3-1.8,0.4-2.7c0.1-0.9,0.1-1.8-0.1-2.6c-0.2-0.8-0.5-1.5-1.1-2
	c-1.7-0.8-3.4-1-5.2-0.5c-1.8,0.4-3.6,1.2-5.3,2.4c-1.8,1.2-3.5,2.6-5.1,4.3c-1.7,1.7-3.2,3.5-4.6,5.3c-1.4,1.8-2.7,3.6-3.8,5.3
	c-1.1,1.7-2.1,3.1-2.8,4.3c0.4-6.5,1.2-12.4,2.5-17.8c1.3-5.4,2.6-10.1,4-14.1c1.6-4.6,3.4-8.8,5.3-12.6c-0.4-0.7-0.9-1-1.7-1.1
	c-0.6-0.1-1.4,0.1-2.3,0.6c-0.9,0.5-2.1,1.5-3.4,3.2c-2,2.3-3.9,5.4-5.8,9.1c-1.9,3.8-3.7,7.8-5.3,12.2c-1.6,4.4-3,8.9-4.3,13.6
	c-1.2,4.7-2.1,9.1-2.6,13.3c-0.6,4.2-0.7,7.9-0.5,11.2c0.2,3.3,0.9,5.8,2.3,7.5c0.8,1.1,1.8,2,2.8,2.6c1,0.6,2.1,1,3.2,1.3
	c1.1,0.2,2.1,0.3,3.1,0.2c1-0.1,1.9-0.3,2.6-0.6c0.8-0.3,1.2-0.7,1.4-1.2c0.1-0.5,0.2-0.9,0.2-1.2c0-2,0.2-4.1,0.7-6.5
	c0.5-2.3,1.2-4.7,2-7.2c0.8-2.4,1.8-4.8,2.8-7.2c1-2.3,2-4.5,3.1-6.5c1-2,2-3.7,2.9-5.1c0.9-1.4,1.7-2.4,2.3-2.9
	c0.5-0.5,0.9-0.7,1.2-0.7c0.3,0,0.4,0.2,0.4,0.5c0,0.3,0,0.8-0.1,1.3c-0.1,0.5-0.3,1.1-0.5,1.8c-3.1,8.9-5.3,16.5-6.4,22.8
	c-1.1,6.4-1.5,11.7-1.3,16.1c0.3,4.4,1,7.8,2.3,10.4c1.3,2.5,2.8,4.4,4.6,5.7c1.8,1.2,3.6,2,5.4,2.2c1.9,0.2,3.5,0.1,4.8-0.4
	c1.8-0.6,3.6-1.4,5.2-2.5c0.5-0.3,0.9-0.6,1.3-1V133.8L278.2,133.8z M168.5,121.6c1.4-0.5,3.1-1.5,5-2.9c1.9-1.4,3.9-3.1,5.9-5.1
	c1-1,1.9-1.9,2.9-3c-0.3,1.8-0.2,3.3,0.3,4.6c0.6,1.8,2.3,2.8,5.2,3.1c1.8,0,4-1.1,6.8-3.3c2.8-2.2,5.8-5,9-8.4
	c3.2-3.4,6.4-7.1,9.7-11c3.3-3.9,6.2-7.6,8.8-11c-1.4,3.3-3,6.9-4.9,10.8c-1.9,3.9-3.9,7.8-6.1,11.8c-2.2,4-4.4,7.9-6.8,11.8
	c-2.3,3.9-4.5,7.5-6.7,10.8c-1.4,2.3-3.1,4.6-4.8,7c-1.8,2.4-3.8,4.4-5.9,6.1c-2.1,1.7-4.4,2.8-6.9,3.4c-2.5,0.6-5.1,0.2-7.9-1.2
	c-0.4-0.2-0.6,0.2-0.7,1.1c-0.1,0.9,0,2.1,0.2,3.5c0.3,1.4,0.7,3,1.4,4.7c0.7,1.7,1.6,3.3,2.8,4.7c0.7,0.8,1.6,1.6,2.8,2.3
	c1.1,0.7,2.4,1.2,3.9,1.5c1.4,0.3,3,0.2,4.7-0.2c1.7-0.4,3.5-1.3,5.4-2.6c3.1-2.2,6.2-5.6,9.3-10.2c3.1-4.6,6-9.7,9-15.5
	c2.9-5.8,5.7-11.8,8.4-18.1c2.7-6.3,5.2-12.4,7.6-18.2c0.1-0.5,0.5-1.4,1-2.9c0.6-1.5,1.1-3.1,1.7-5c0.6-1.9,1-3.9,1.4-5.9
	c0.4-2.1,0.5-3.9,0.4-5.5c-0.1-1.6-0.6-2.9-1.5-3.9c-0.8-0.9-2.2-1.3-4.1-0.9c-1.7,1.8-3.5,3.7-5.3,5.9c-1.8,2.2-3.7,4.4-5.6,6.7
	c-1.9,2.3-3.8,4.5-5.6,6.6c-1.8,2.2-3.5,4.1-5.1,5.8c-1.6,1.7-3,3-4.3,4c-1.3,1-2.3,1.5-3.1,1.5c-0.7-0.1-0.8-0.5-0.5-1.4
	c0.3-0.9,0.8-2,1.7-3.4c0.8-1.4,1.8-3,2.8-4.7c1.1-1.8,2.1-3.5,2.9-5.3c0.9-1.8,1.5-3.5,1.9-5.1c0.4-1.7,0.3-3.1-0.2-4.3
	c-0.6-1.2-1.7-2.1-3.4-2.7c-1.7-0.6-4.3-0.7-7.7-0.4c0.7,1.4,0.5,3.3-0.3,5.8c-0.6,1.6-1.3,3.3-2.1,5.1c-3.2,4-6.3,7.7-9.2,11
	c-1.6,1.7-3.1,3.4-4.7,5c-1.6,1.7-3.1,3.1-4.6,4.4c-1.5,1.3-2.9,2.3-4.2,3.1c-0.2,0.1-0.3,0.2-0.5,0.3V121.6L168.5,121.6z
	 M168.5,101.8v-5.5c0.2-0.2,0.5-0.4,0.7-0.6c1.7-1.6,3.2-3.1,4.6-4.7c1.2-1.3,2-2.5,2.5-3.5c0.5-1,0.8-1.9,0.8-2.5
	c0-0.9-0.4-1.4-1.1-1.4c-0.7,0-1.6,0.5-2.6,1.6c-0.7,0.7-1.5,1.6-2.3,2.6c-0.8,1-1.7,2.2-2.5,3.5l-0.1,0.1V77.5
	c0.9-0.7,1.8-1.2,2.7-1.7c2-1.1,3.8-1.7,5.6-1.7h0.4c2.9,0.1,4.9,0.7,6.1,1.8c1.2,1.1,1.8,2.5,1.8,4.2c0,2.1-0.8,4.5-2.3,7.1
	c-1.6,2.7-3.5,5.2-5.8,7.6c-2.3,2.4-4.7,4.5-7.3,6.3C169.3,101.3,168.9,101.6,168.5,101.8z M168.5,144.4c-1.3,1-3,1.8-5.2,2.2
	c-0.4,0.1-0.8,0.2-1.2,0.2v-16.9c1-0.4,2-1,2.9-1.7c1.3-1.1,2.1-2.8,2.3-5.1c0.1-0.7,0.3-1,0.6-1.1c0.3,0,0.5,0,0.6,0V144.4
	L168.5,144.4z M168.5,77.5c-1,0.8-2.1,1.7-3.1,2.7c-1.1,1.1-2.2,2.3-3.3,3.5v38.9c0.3,0,0.6,0,0.9,0c1.8,0,3.6-0.3,5.4-1l0.1,0v-9.9
	c-1.1,0.6-2,0.9-2.8,0.9c-0.4,0-0.7,0-0.8-0.1c-0.9-0.4-1.5-1.1-1.9-2.2c-0.4-1.1-0.5-2.3-0.5-3.6c0-0.5,0-0.9,0-1.3
	c0-0.4,0.1-0.8,0.2-1.2c1.7-0.3,3.7-1.2,5.8-2.5v-5.5c-1.5,1.3-3,2.4-4.5,3.4c0.6-1.4,1.3-2.9,2.1-4.3c0.8-1.4,1.6-2.7,2.4-4V77.5z
	 M162.2,146.8c-3.4,0.5-6.6,0.2-9.7-0.8c-3.5-1.2-6.7-3-9.6-5.4c-2.6-2.2-5.1-4.8-7.3-7.7v-18.3c1.1,1.9,2.4,3.8,3.9,5.7
	c1.8,2.3,3.8,4.3,6,6c2.2,1.7,4.5,3,7.1,3.8c2.5,0.8,5.2,0.9,8,0.2c0.5-0.1,1-0.3,1.5-0.4V146.8L162.2,146.8z M135.7,54.2
	c8.4-6.2,17.9-8.5,23.6-0.8c1.5,2,2.2,4.6,2.3,7.8c0,3.3-0.6,6.9-1.9,10.9c-1.3,4-3.2,7.9-5.8,11.7c-2.6,3.8-5.8,7.2-9.7,10.4
	c-2.6,2.1-5.5,3.8-8.6,5.2V85.7c0.6-0.7,1.3-1.5,1.9-2.3c1.8-2.4,3.5-4.9,5-7.5c1.5-2.6,2.7-5,3.5-7c0.8-2.1,1.2-3.7,1.1-4.9
	c-0.1-1.2-0.9-1.6-2.3-1.2c-0.8,0.3-1.8,1-3,2.1c-1.1,1.1-2.3,2.6-3.6,4.3c-0.9,1.1-1.7,2.4-2.6,3.7V54.2L135.7,54.2z M162.2,83.7
	c-0.7,0.9-1.4,1.8-2.1,2.8c-1.7,2.4-3.2,5-4.5,7.6c-1.3,2.7-2.3,5.4-3.1,8.1c-0.7,2.7-1.1,5.3-1.1,7.7c0,1.3,0.1,2.6,0.4,3.8
	c0.3,1.2,0.7,2.4,1.3,3.4c0.9,1.6,2.3,3,4,4c1.5,0.9,3.2,1.4,5.2,1.5V83.7z M135.7,132.8c-0.2-0.3-0.5-0.7-0.7-1
	c-2.4-3.4-4.4-6.8-6-10.5c-1.6-3.6-2.9-7.2-3.7-10.8c-0.8-3.6-1.2-6.7-1-9.5c-0.7-0.3-1.3-0.7-1.8-1.2c-0.9,4.3-1.6,8.8-2,13.4
	c-0.4,4.6-0.5,9.4-0.2,14.3c0,0.4-0.1,0.8-0.4,1.4c-0.3,0.5-0.9,0.9-1.8,1.1c-0.8,0.2-1.8,0.3-2.9,0.2c-1.1-0.1-2.2-0.3-3.4-0.8
	c-1.1-0.5-2.2-1.1-3.3-2c-1-0.9-2-2-2.7-3.4c-1-1.8-1.4-4.3-1.3-7.3c0.1-3,0.7-6.4,1.6-10.2c0.9-3.8,2.2-7.8,3.8-12
	c1.6-4.2,3.4-8.4,5.5-12.6c2.1-4.1,4.4-8.1,6.5-12c3.2-5.8,8.3-11.6,13.9-15.8v18.6c-0.4,0.6-0.9,1.3-1.3,2
	c-1.3,2.1-2.6,4.3-3.9,6.5c-1.2,2.2-2.4,4.3-3.5,6.5c-1.1,2.1-2.1,4-2.8,5.7c0.9,0,1.8-0.2,2.6-0.5c1.6-0.5,3.3-1.6,5.2-3.4
	c1.2-1.2,2.5-2.5,3.7-3.9v13.7c-1.5,0.7-3.1,1.3-4.8,1.7c0,1.4,0.4,3.2,1.1,5.4c0.7,2.2,1.7,4.5,3,6.8c0.2,0.4,0.5,0.9,0.7,1.3
	V132.8z"/>
<path class="st1" d="M387.8,48.1c1.5,0,2.9,0.4,4.4,1.1c1.4,0.8,2.5,1.9,3.3,3.3c0.8,1.4,1.2,2.9,1.2,4.5c0,1.5-0.4,3-1.2,4.4
	c-0.8,1.4-1.9,2.5-3.3,3.3c-1.4,0.8-2.9,1.2-4.4,1.2h0v-1.5h0c1.3,0,2.5-0.3,3.7-1c1.2-0.7,2.1-1.6,2.7-2.7c0.7-1.2,1-2.4,1-3.7
	c0-1.3-0.3-2.5-1-3.7c-0.7-1.2-1.6-2.1-2.8-2.7c-1.2-0.6-2.4-1-3.6-1h0L387.8,48.1L387.8,48.1L387.8,48.1z M387.8,58.3
	c0.4,0.4,0.9,1.1,1.4,2l0.9,1.5h1.9l-1.2-1.9c-0.6-0.9-1-1.5-1.4-1.9c-0.2-0.2-0.5-0.4-0.8-0.5c0.8-0.1,1.5-0.4,2-0.9
	c0.5-0.5,0.8-1.1,0.8-1.8c0-0.5-0.1-1-0.4-1.4c-0.3-0.4-0.7-0.7-1.2-0.9c-0.4-0.1-1-0.2-1.8-0.3v1.3c0.4,0,0.8,0.1,1,0.2
	c0.3,0.1,0.5,0.3,0.7,0.5c0.2,0.2,0.2,0.5,0.2,0.8c0,0.4-0.2,0.8-0.5,1.1c-0.3,0.2-0.7,0.3-1.4,0.4V58.3z M387.8,65.9
	c-1.5,0-3-0.4-4.4-1.2c-1.4-0.8-2.5-1.9-3.3-3.3c-0.8-1.4-1.2-2.9-1.2-4.4c0-1.5,0.4-3,1.2-4.5c0.8-1.4,1.9-2.5,3.3-3.3
	c1.4-0.8,2.9-1.1,4.4-1.1v1.5c-1.2,0-2.5,0.3-3.6,1c-1.2,0.6-2.1,1.6-2.8,2.7c-0.7,1.2-1,2.4-1,3.7c0,1.3,0.3,2.5,1,3.7
	c0.7,1.2,1.6,2.1,2.8,2.7c1.2,0.7,2.4,1,3.7,1V65.9L387.8,65.9z M387.8,52.3c-0.2,0-0.4,0-0.6,0h-3.3v9.6h1.5v-4.1h0.9
	c0.5,0,1,0.1,1.2,0.3c0.1,0,0.1,0.1,0.2,0.2v-1.8c-0.1,0-0.3,0-0.5,0h-1.9v-2.9h1.8c0.2,0,0.4,0,0.6,0V52.3z"/>
<path class="st0" d="M330.7,26.4c0.4-0.1,0.7-0.3,1-0.5c1.5-1.1,2.5-3.3,2.1-5.1c-0.4-2.3-1.7-3.2-3.2-3.2V26.4L330.7,26.4z
	 M330.7,51.9v-4.5c0.6-0.2,1-0.5,1.3-0.6c4.8-2.8,7.3-4.5,10.7-8.8c0.4-0.5,1.9-2.4,2.2-2.7c1.1-0.8,2.2,0.3,2.2,1.5l-1.4,7.6
	c-0.5,2.8-0.7,4.6-3,6.6c-2.7,2.3-8,3-11.2,1.4C331.3,52.2,331,52.1,330.7,51.9z M313.5,10.5c-6.1,6.7-12.5,18.4-14.7,24.9
	c-1.4,4.3-2.1,10.2,0.1,14.3c4.3,8.1,17.4,3.8,23.4-1.3c3.2-2.7,6.4-6.4,5.9-10.9c-0.7-6.8-6.9-4.2-8.4-6c-0.9-1.1,1.2-3.4,2-4.1
	c3.2-2.9,6.2-0.2,8.9-1v-8.8c-2-0.1-4.6,1.4-6.1,2.9c-2.6,2.5-6.4,6.4-8.2,9.4c-7.7,12.8,3.2,10.5,2.3,13.2
	c-0.8,2.5-11.9,8.9-11.9-2.6c0-4.3,1.6-10.3,2.9-14.4c0.7-2.1,5.3-12.6,6.3-14.6C319.2,5.6,316.9,6.6,313.5,10.5L313.5,10.5z
	 M330.7,47.4v4.5c-0.9-0.4-1.9-0.8-2.4-1.1C326.1,49.6,328.9,48.3,330.7,47.4L330.7,47.4z M291.3,47.9v-7.1c0.5-0.4,0.9-0.6,1.2-0.6
	c2.7-0.2,0.9,4.7,0.1,5.9C292.3,46.7,291.8,47.3,291.3,47.9L291.3,47.9z M291.3,33.5v-7.7c0.8-0.6,1.5-1,1.9-1.2
	c1.3-0.6,2,0.5,2.5,1.5c0.5,1,1.4,1.9,1.1,3.1c-0.3,1.3-3.5,3.6-4.6,4.2C291.8,33.5,291.5,33.5,291.3,33.5L291.3,33.5z M291.3,14.2
	v-1.9C292,12.2,292.2,12.7,291.3,14.2L291.3,14.2z M312,62.9c-0.7-1.2,2.1-5.1,3-5.4c2.6-1,4.2,3,5.2,3.2c0.8,0.2,2-3.8,3.8-4.6
	c1.6-0.7,4.7,1.8,5.3,3.2c0.7,1.5-1.7,5-2.9,5.3c-1.6,0.5-4.6-2.7-5.4-2.2c-0.7,0.5-1.2,4.7-3.9,4.4C316,66.6,312.6,63.8,312,62.9z
	 M291.3,12.3v1.9c-0.5,0.8-1.2,1.8-2.4,3.2c-4.7,5.8-7.7,15.9-7.3,23.2c0.2,3.3,1.6,5.1,5,3.7c1.5-0.6,3.3-2.4,4.6-3.4v7.1
	c-4.8,5.6-14.5,10.6-18.6,5c-3.2-4.3-0.9-12.1,0.6-16.7c2.4-7.6,6.9-13.7,11.9-19.5C286.9,14.7,290,12.5,291.3,12.3L291.3,12.3z
	 M291.3,25.8c-1.3,0.9-2.7,2.1-2.7,2.9c0,0.7,1,2.3,1.4,3c0.4,0.8,0.5,1.8,1.3,1.9V25.8z"/>
</svg>
