<?xml version="1.0" encoding="utf-8"?>
<!-- Generator: Adobe Illustrator 24.0.1, SVG Export Plug-In . SVG Version: 6.00 Build 0)  -->
<svg version="1.1" id="Layer_1" xmlns="http://www.w3.org/2000/svg" xmlns:xlink="http://www.w3.org/1999/xlink" x="0px" y="0px"
	 viewBox="0 0 512 512" style="enable-background:new 0 0 512 512;" xml:space="preserve">
<style type="text/css">
	.st0{fill:#FFFFFF;}
</style>
<title>Brand-corporate-design-development-identity</title>
<g id="Expand">
	<path class="st0" d="M456,176c4.4,0,8-3.6,8-8V88c0-4.4-3.6-8-8-8h-48V56c0-4.4-3.6-8-8-8H112c-4.4,0-8,3.6-8,8v200H56
		c-4.4,0-8,3.6-8,8v224c0,4.4,3.6,8,8,8h400c4.4,0,8-3.6,8-8V344c0-4.4-3.6-8-8-8h-48v-16h48c4.4,0,8-3.6,8-8v-48c0-4.4-3.6-8-8-8
		h-48v-16h48c4.4,0,8-3.6,8-8v-32c0-4.4-3.6-8-8-8h-48v-16H456z M448,160H320V96h128V160z M448,480H208v-96.9
		c10.5,10.8,24.9,16.9,40,16.9h160c15.1,0,29.5-6.1,40-16.9V480z M208.8,352h238.4c-3.8,18.6-20.2,32-39.2,32H248
		C229,384,212.6,370.6,208.8,352z M448,304h-64v-32h64V304z M360,304c-4.4,0-8-3.6-8-8v-24h16v32H360z M448,224h-96v-16h96V224z
		 M289.9,224l-16-8l16-8H336v16H289.9z M392,192H288c-1.2,0-2.5,0.3-3.6,0.8L254.1,208H240v16h14.1l30.3,15.2
		c1.1,0.5,2.3,0.8,3.6,0.8h104v16h-48c-4.4,0-8,3.6-8,8v32c0,13.3,10.7,24,24,24h32v16H200c-4.4,0-8,3.6-8,8v136H64V272h240v48h16
		v-56c0-4.4-3.6-8-8-8H120V64h272v16h-80c-4.4,0-8,3.6-8,8v80c0,4.4,3.6,8,8,8h80V192z"/>
	<rect x="336" y="112" class="st0" width="16" height="16"/>
	<rect x="136" y="80" class="st0" width="16" height="16"/>
	<rect x="80" y="288" class="st0" width="16" height="16"/>
	<rect x="168" y="80" class="st0" width="64" height="16"/>
	<rect x="112" y="288" class="st0" width="64" height="16"/>
	<rect x="224" y="448" class="st0" width="16" height="16"/>
	<rect x="256" y="448" class="st0" width="64" height="16"/>
	<rect x="368" y="112" class="st0" width="64" height="16"/>
	<rect x="16" y="344" class="st0" width="16" height="128"/>
	<path class="st0" d="M104,32h136V16H104c-17.7,0-32,14.3-32,32v56h16V48C88,39.2,95.2,32,104,32z"/>
	<rect x="256" y="16" class="st0" width="16" height="16"/>
	<rect x="480" y="208" class="st0" width="16" height="160"/>
</g>
</svg>
