<?xml version="1.0" encoding="utf-8"?>
<!-- Generator: Adobe Illustrator 24.0.1, SVG Export Plug-In . SVG Version: 6.00 Build 0)  -->
<svg version="1.1" id="Layer_1" xmlns="http://www.w3.org/2000/svg" xmlns:xlink="http://www.w3.org/1999/xlink" x="0px" y="0px"
	 viewBox="0 0 496 496" style="enable-background:new 0 0 496 496;" xml:space="preserve">
<style type="text/css">
	.st0{fill:#FFFFFF;}
</style>
<path class="st0" d="M136,304c-57.3,0-104-46.7-104-104S78.7,96,136,96s104,46.7,104,104S193.3,304,136,304z"/>
<path class="st0" d="M432,467.3l-24-24l-21.9,21.9l-11.3-90.4l90.4,11.3L443.3,408l24,24L432,467.3z"/>
<path class="st0" d="M472,0H24C10.8,0,0,10.8,0,24v472h496V24C496,10.8,485.2,0,472,0z M24,16h448c4.4,0,8,3.6,8,8v40H16V24
	C16,19.6,19.6,16,24,16z M16,480V80h464v400H16z"/>
<path class="st0" d="M32,32h16v16H32V32z"/>
<path class="st0" d="M64,32h16v16H64V32z"/>
<path class="st0" d="M96,32h16v16H96V32z"/>
<path class="st0" d="M104,144.5v111.1l77.8-55.6L104,144.5z M120,175.5l34.2,24.5L120,224.5V175.5z"/>
<path class="st0" d="M192,200h16c0-25.6-13.8-49.5-36-62.4l-8,13.8C181.3,161.5,192,180.1,192,200z"/>
<path class="st0" d="M154,130.3c-5.9-1.5-11.9-2.3-18-2.3v16c4.7,0,9.4,0.6,14,1.8L154,130.3z"/>
<path class="st0" d="M385.9,329.4l-11.3-11.3L360,332.7V312h-16v20.7l-14.6-14.6l-11.3,11.3l14.6,14.6H312v16h20.7l-14.6,14.6
	l11.3,11.3l14.6-14.6V392h16v-24h-14.6l-9.4-9.4v-13.3l9.4-9.4h13.3l9.4,9.4V360h24v-16h-20.7L385.9,329.4z"/>
<path class="st0" d="M280,312c0-3-0.6-5.9-1.7-8.6l21.8-18.7c3.5,2,7.5,3.3,11.9,3.3c13.2,0,24-10.8,24-24c0-10.4-6.7-19.2-16-22.5
	V168h16v-48h-16V96h-16v24h-16v48h16v73.5c-9.3,3.3-16,12.1-16,22.5c0,3,0.6,5.9,1.7,8.6l-21.8,18.7c-3.5-2-7.5-3.3-11.9-3.3
	c-13.2,0-24,10.8-24,24c0,10.4,6.7,19.2,16,22.5v43c-2.6,0.9-5,2.3-7.2,4.1l-41.3-24.8c0.3-1.6,0.5-3.1,0.5-4.8
	c0-13.2-10.8-24-24-24s-24,10.8-24,24c0,2,0.3,4,0.8,5.9l-40,31.3l-37.1-39.5c2.7-3.9,4.3-8.6,4.3-13.7c0-13.2-10.8-24-24-24
	s-24,10.8-24,24s10.8,24,24,24c2.3,0,4.4-0.4,6.5-1l41.5,44.2v14.3c-9.3,3.3-16,12.1-16,22.5c0,13.2,10.8,24,24,24s24-10.8,24-24
	c0-10.4-6.7-19.2-16-22.5v-13.6l41.7-32.7c4,3,8.9,4.8,14.3,4.8c5.8,0,11-2.1,15.2-5.6l41.3,24.8c-0.3,1.6-0.5,3.1-0.5,4.8
	c0,13.2,10.8,24,24,24s24-10.8,24-24c0-10.4-6.7-19.2-16-22.5v-43C273.3,331.2,280,322.4,280,312z M304,136h16v16h-16V136z M48,336
	c0-4.4,3.6-8,8-8s8,3.6,8,8s-3.6,8-8,8S48,340.4,48,336z M312,256c4.4,0,8,3.6,8,8s-3.6,8-8,8s-8-3.6-8-8S307.6,256,312,256z
	 M256,304c4.4,0,8,3.6,8,8s-3.6,8-8,8s-8-3.6-8-8S251.6,304,256,304z M112,448c-4.4,0-8-3.6-8-8s3.6-8,8-8s8,3.6,8,8
	S116.4,448,112,448z M176,360c-4.4,0-8-3.6-8-8s3.6-8,8-8s8,3.6,8,8S180.4,360,176,360z M256,408c-4.4,0-8-3.6-8-8s3.6-8,8-8
	s8,3.6,8,8S260.4,408,256,408z"/>
<path class="st0" d="M448,96h-16v32h-16v48h16v112h16V176h16v-48h-16V96z M448,160h-16v-16h16V160z"/>
<path class="st0" d="M384,96h-16v80h-16v48h16v64h16v-64h16v-48h-16V96z M384,208h-16v-16h16V208z"/>
</svg>
