<?xml version="1.0" encoding="utf-8"?>
<!-- Generator: Adobe Illustrator 24.0.1, SVG Export Plug-In . SVG Version: 6.00 Build 0)  -->
<svg version="1.1" id="Layer_1" xmlns="http://www.w3.org/2000/svg" xmlns:xlink="http://www.w3.org/1999/xlink" x="0px" y="0px"
	 viewBox="0 0 480 480" style="enable-background:new 0 0 480 480;" xml:space="preserve">
<style type="text/css">
	.st0{fill:#FCFAFA;}
</style>
<path class="st0" d="M208.3,189.7l-11,5.5c-16.6,8.3-26.9,24.8-26.9,43.4v187.6c0,11.7,9,20.7,20.7,20.7h96.6
	c11.7,0,20.7-9,20.7-20.7V237.9c0-18.6-10.3-35.2-26.9-43.5l-11-5.5c-2.1-1.4-4.1-3.4-4.1-6.2V63.4l8.3-8.3l-9.7-22.1h-49.7
	l-11,22.1l8.3,8.3v120C212.4,185.5,211,188.3,208.3,189.7z M223.4,46.9h33.1l2.8,5.5l-1.4,1.4h-35.9l-1.4-1.4L223.4,46.9z
	 M214.5,201.4c6.9-3.4,11.7-10.3,11.7-18.6V67.6h27.6v115.9c0,7.6,4.1,15.2,11.7,18.6l11,5.5c11.7,5.5,19.3,17.9,19.3,31v187.6
	c0,4.1-2.8,6.9-6.9,6.9h-97.2c-4.1,0-6.9-2.8-6.9-6.9V237.9c0-13.1,7.6-24.8,19.3-31L214.5,201.4z"/>
<path class="st0" d="M405.5,88.3h-89.7V120l-34.5,34.5v23.4h13.8v-13.8h62.1v248.3h-34.5v13.8H440V154.5L405.5,120V88.3z
	 M382.1,129.7l-20.7,20.7h-56.6l20.7-20.7H382.1z M398.6,132.4l17.9,17.9h-35.9L398.6,132.4z M391.7,102.1v13.8h-62.1v-13.8H391.7z
	 M371,412.4V164.1h55.2v248.3H371z"/>
<path class="st0" d="M384.8,357.2h27.6V371h-27.6V357.2z"/>
<path class="st0" d="M384.8,384.8h27.6v13.8h-27.6V384.8z"/>
<path class="st0" d="M315.9,184.8h27.6v13.8h-27.6V184.8z"/>
<path class="st0" d="M240,343.4c22.8,0,41.4-18.6,41.4-41.4s-18.6-41.4-41.4-41.4s-41.4,18.6-41.4,41.4S217.2,343.4,240,343.4z
	 M240,274.5c15.2,0,27.6,12.4,27.6,27.6s-12.4,27.6-27.6,27.6s-27.6-12.4-27.6-27.6S224.8,274.5,240,274.5z"/>
<path class="st0" d="M212.4,233.1h55.2v13.8h-55.2V233.1z"/>
<path class="st0" d="M198.6,364.1h82.8v13.8h-82.8V364.1z"/>
<path class="st0" d="M198.6,391.7h82.8v13.8h-82.8V391.7z"/>
<path class="st0" d="M115.9,253.8c-19.3,0-34.5,15.2-34.5,34.5c0,19.3,15.2,34.5,34.5,34.5s34.5-15.2,34.5-34.5
	C150.3,269,135.2,253.8,115.9,253.8z M115.9,309c-11.7,0-20.7-9-20.7-20.7c0-11.7,9-20.7,20.7-20.7s20.7,9,20.7,20.7
	C136.6,300,127.6,309,115.9,309z"/>
<path class="st0" d="M81.4,336.6h69v13.8h-69V336.6z"/>
<path class="st0" d="M81.4,364.1h69v13.8h-69V364.1z"/>
<path class="st0" d="M322.8,274.5v13.8c4.1,0,6.9,2.8,6.9,6.9c0,4.1-2.8,6.9-6.9,6.9v13.8c11.7,0,20.7-9,20.7-20.7
	C343.4,283.4,334.5,274.5,322.8,274.5z"/>
<path class="st0" d="M322.8,329.7h20.7v13.8h-20.7V329.7z"/>
<path class="st0" d="M322.8,357.2h20.7V371h-20.7V357.2z"/>
<path class="st0" d="M157.2,419.3H53.8V157.2h13.8v82.1l27.6-18.6l27.6,18.6v-82.1h55.2v27.6h13.8v-36.6l-24.1-32.4H64.1L40,148.3
	v284.8h117.2V419.3z M109,213.1l-13.8-9l-13.8,9v-55.9H109V213.1z M71,129.7h89.7l10.3,13.8H60.7L71,129.7z"/>
</svg>
