<?xml version="1.0" encoding="utf-8"?>
<!-- Generator: Adobe Illustrator 24.0.1, SVG Export Plug-In . SVG Version: 6.00 Build 0)  -->
<svg version="1.1" id="Layer_1" xmlns="http://www.w3.org/2000/svg" xmlns:xlink="http://www.w3.org/1999/xlink" x="0px" y="0px"
	 viewBox="0 0 512 512" style="enable-background:new 0 0 512 512;" xml:space="preserve">
<style type="text/css">
	.st0{opacity:0.2;fill:#72D8FF;}
	.st1{opacity:0.2;fill:#E889C3;}
	.st2{opacity:0.2;fill:#FFB954;}
	.st3{opacity:0.2;fill:#898998;}
	.st4{fill:#FFFFFF;}
</style>
<path class="st0" d="M191.9,138.8l-47-60.2l-46.6,59.7h0.1C83.8,156,75,178.8,75,203.5c0,45.2,29.3,83.6,70,97.2
	c40.7-13.6,70-52,70-97.2C214.9,179,206.3,156.5,191.9,138.8L191.9,138.8z"/>
<path class="st1" d="M287.6,138.8L287.6,138.8L208.2,37l-29.7,38l49.8,63.8h0c14.4,17.6,23,40.2,23,64.7c0,46.3-30.7,85.3-72.8,98.1
	c9.4,2.8,19.4,4.4,29.7,4.4c56.6,0,102.5-45.9,102.5-102.5C310.6,179,302,156.5,287.6,138.8z"/>
<path class="st2" d="M383.3,142L383.3,142L303.8,40.1l-29.3,37.5l50.2,64.4h0c14.4,17.6,23,40.2,23,64.7c0,46.4-30.9,85.6-73.2,98.2
	c9.3,2.8,19.1,4.2,29.2,4.2c56.6,0,102.5-45.9,102.5-102.5C406.3,182.1,397.7,159.6,383.3,142z"/>
<path class="st3" d="M469.7,145.8L469.7,145.8L390.2,44l-26.5,34l53,67.9h0c14.4,17.6,23,40.1,23,64.7c0,47.4-32.2,87.3-75.9,99
	c8.4,2.3,17.3,3.5,26.5,3.5c56.6,0,102.5-45.9,102.5-102.5C492.7,186,484,163.5,469.7,145.8z"/>
<path class="st4" d="M487,132.8c0,0-0.1-0.1-0.1-0.1L407.4,30.8c-1.9-2.4-4.8-3.8-7.9-3.8s-6,1.4-7.9,3.8l-40,51.2l-40-51.2
	c-1.9-2.4-4.8-3.8-7.9-3.8c-3.1,0-6,1.4-7.9,3.8l-40,51.2l-40-51.2c-1.9-2.4-4.8-3.8-7.9-3.8c-3.1,0-6,1.4-7.9,3.8l-40,51.2
	l-40-51.2c-1.9-2.4-4.8-3.8-7.9-3.8c-3.1,0-6,1.4-7.9,3.8L54.1,95.6c-3.4,4.4-2.6,10.6,1.7,14c4.4,3.4,10.6,2.6,14-1.7l42.6-54.6
	L152,104c0.2,0.3,0.5,0.6,0.7,0.9l30.3,38.8c0.2,0.3,0.5,0.7,0.7,1c13.6,16.5,21.1,37.4,21.1,58.8c0,51-41.5,92.5-92.5,92.5
	c-51,0-92.5-41.5-92.5-92.5c0-6.4,0.7-12.8,1.9-18.9c1.1-5.4-2.3-10.7-7.8-11.8c-5.4-1.1-10.7,2.3-11.8,7.8C0.8,188,0,195.8,0,203.5
	C0,265.5,50.4,316,112.5,316c17.1,0,33.3-3.8,47.8-10.7c14.9,7,31.3,10.7,47.9,10.7c17.1,0,33.3-3.8,47.8-10.7
	c14.9,7,31.3,10.7,47.9,10.7c17.1,0,33.3-3.8,47.8-10.7c14.9,7,31.3,10.7,47.9,10.7c62,0,112.5-50.4,112.5-112.5
	C512,177.8,503.1,152.8,487,132.8z M181.7,292.1c26.3-20.6,43.2-52.6,43.2-88.6c0-25.7-8.9-50.8-25.1-70.8c-0.1-0.2-0.3-0.4-0.4-0.6
	L173,98.3l35.2-45l71.4,91.5c0.1,0.1,0.2,0.3,0.3,0.4c13.4,16.4,20.8,37.1,20.8,58.4c0,51-41.5,92.5-92.5,92.5
	C199.2,296,190.2,294.7,181.7,292.1z M277.4,292.1c26.3-20.6,43.2-52.6,43.2-88.6c0-25.7-8.9-50.8-25-70.7c0,0-0.1-0.1-0.1-0.1
	l-26.8-34.4l35.2-45.1l71.4,91.5c0.1,0.1,0.2,0.3,0.3,0.4c13.4,16.4,20.8,37.1,20.8,58.4c0,51-41.5,92.5-92.5,92.5
	C294.9,296,285.9,294.7,277.4,292.1z M399.5,296c-9,0-17.9-1.3-26.5-3.9c26.3-20.6,43.2-52.6,43.2-88.6c0-25.7-8.9-50.8-25-70.7
	c0,0-0.1-0.1-0.1-0.1l-26.8-34.4l35.2-45.1l71.4,91.5c0.1,0.2,0.2,0.3,0.3,0.4c13.4,16.4,20.8,37.1,20.8,58.4
	C492,254.5,450.5,296,399.5,296z"/>
<path class="st4" d="M106.1,404.9h12.8c5.8,0,10.5,4.7,10.5,10.5c0,5.5,4.5,10,10,10s10-4.5,10-10c0-16.8-13.7-30.5-30.5-30.5h-12.8
	c-16.8,0-30.5,13.7-30.5,30.5v38.9c0,16.8,13.7,30.5,30.5,30.5h12.8c16.8,0,30.5-13.7,30.5-30.5c0-5.5-4.5-10-10-10s-10,4.5-10,10
	c0,5.8-4.7,10.5-10.5,10.5h-12.8c-5.8,0-10.5-4.7-10.5-10.5v-38.9C95.5,409.7,100.3,404.9,106.1,404.9z"/>
<path class="st4" d="M246.6,385.7c-3.7-1.5-8-0.7-10.9,2.2l-21.3,21.3l-21.3-21.3c-2.9-2.9-7.2-3.7-10.9-2.2
	c-3.7,1.5-6.2,5.2-6.2,9.2v80c0,5.5,4.5,10,10,10s10-4.5,10-10v-55.9l11.3,11.3c1.9,1.9,4.4,2.9,7.1,2.9s5.2-1.1,7.1-2.9l11.3-11.3
	v55.9c0,5.5,4.5,10,10,10c5.5,0,10-4.5,10-10v-80C252.7,390.9,250.3,387.2,246.6,385.7z"/>
<path class="st4" d="M336.6,387.9l-21.3,21.3l-21.3-21.3c-3.9-3.9-10.2-3.9-14.1,0c-3.9,3.9-3.9,10.2,0,14.1l25.4,25.4v47.5
	c0,5.5,4.5,10,10,10c5.5,0,10-4.5,10-10v-47.5l25.4-25.4c3.9-3.9,3.9-10.2,0-14.1S340.5,384,336.6,387.9z"/>
<path class="st4" d="M433.4,387.9c-3.9-3.9-10.2-3.9-14.1,0l-22.9,22.9v-15.9c0-5.5-4.5-10-10-10c-5.5,0-10,4.5-10,10v40v0v40
	c0,5.5,4.5,10,10,10c5.5,0,10-4.5,10-10v-15.9l22.9,22.9c2,2,4.5,2.9,7.1,2.9s5.1-1,7.1-2.9c3.9-3.9,3.9-10.2,0-14.1l-32.9-32.9
	l32.9-32.9C437.3,398.1,437.3,391.8,433.4,387.9z"/>
<path class="st4" d="M33,148.8L33,148.8c3.3,0,6.3-1.6,8.1-4.1l0.2-0.2c3.4-4.4,2.6-10.6-1.7-14c-4.4-3.4-10.6-2.6-14,1.7l-0.3,0.4
	c-2.3,3-2.8,7.1-1.1,10.5C25.7,146.7,29.2,148.8,33,148.8z"/>
</svg>
