<?xml version="1.0" encoding="utf-8"?>
<!-- Generator: Adobe Illustrator 24.0.2, SVG Export Plug-In . SVG Version: 6.00 Build 0)  -->
<svg version="1.1" id="Layer_1" xmlns="http://www.w3.org/2000/svg" xmlns:xlink="http://www.w3.org/1999/xlink" x="0px" y="0px"
	 viewBox="0 0 595.3 841.9" style="enable-background:new 0 0 595.3 841.9;" xml:space="preserve">
<style type="text/css">
	.st0{fill-rule:evenodd;clip-rule:evenodd;fill:#FFFFFF;}
	
		.st1{clip-path:url(#SVGID_2_);fill-rule:evenodd;clip-rule:evenodd;fill:none;stroke:#FFFFFF;stroke-width:2.8346;stroke-miterlimit:2.6131;}
</style>
<path class="st0" d="M136.9,482.5l9.3-10l-9.1-8.9l-63-61.6c-5.2-15.2-5-69.3,2.1-89.8l193.5,87.6c-44.6,73.6-40.1,167.8,2.3,232.4
	c6.2,0.8,12.3,1.9,18.4,3.1c-48.9-68.5-55.6-155.9-8.6-230.8c25.8,0.7,18.4,0.2,37.1-1.6c3.8,3.4,13.5,15.4,22.8,22.8
	c52.4,45.8,125.6,49.7,180.1,26.5c6.7-3,0.8-13.8-9.9-9.7c-65.3,26.8-142.8,2.3-178.6-42.3c32.2-8.6,59.3-20.7,86.9-49.7
	c62.3-5.9,111.3-56.1,115.7-114.9c1.6-17.2-8-17.3-12-13.6c-1.6,72.6-57.3,107.3-90.9,113.6c28.4-34.7,52.8-108.6,22.9-174.9
	c-9.6-21.6-14.1-2.3-8.7,12.8c39.4,110.2-48.1,221.1-157.1,218.7c-12.3-0.3-24.5-6.5-37.2-13.8c82-1.9,129.1-74.2,126.5-129.1
	c-0.2-6.8-12.7-1.2-13,7.7c-8,85-90.7,130.5-165.5,98L67.7,294.5c-15.9,53.2-8.1,102-5.1,115.4l65.2,63.8
	C74.7,537.2,55,616.6,76.3,695c3.1-2.9,7.4-6.7,10.7-9.5c-0.8-4-1.4-4.8-1.7-7.9C71.7,589.2,96.6,531.5,136.9,482.5z"/>
<path class="st0" d="M304.3,466.9h-18.9v4.4h7v21.4h5v-21.4h7V466.9L304.3,466.9z M332.9,466.9h-5l-7.4,10.8l-7.5-10.8h-4.9v25.7
	h4.8v-15.7l-0.1-2.5l1.3,2.2l4.6,6.3h3.5l4.6-6.3l1.4-2.2l-0.1,2.5v15.8h4.9V466.9z"/>
<path class="st0" d="M5478.9-157.7c-1.3-0.4-2.6-0.5-3.9-0.2c-1.2,0.3-2.2,0.8-3.1,1.6c-0.9,0.9-1.6,1.9-2.1,3.1
	c-0.5,1.3-0.8,2.6-0.8,4c0,1.4,0.4,2.6,1.4,3.6c1,1,2.2,1.4,3.6,1.4c1.7,0,3.3-0.7,4.6-1.7c1.6-1.1,2.5-2.7,2.9-4.6
	c0.3-1.5,0.4-3,0.1-4.4c-0.3-1.3-1.1-2.1-2.2-2.6l0,0L5478.9-157.7z"/>
<g>
	<defs>
		<path id="SVGID_1_" d="M260.1,643.6c-38.7-65.2-33.9-172.3,9.6-243.9L76.2,312.2c-7.1,20.5-7.3,74.6-2.1,89.8l63,61.6l9.1,8.9
			c-54.3,58.6-57,144.4-47,219.6c38.9-30.8,88-49.3,141.5-49.3C247.2,642.8,253.7,643.1,260.1,643.6z"/>
	</defs>
	<clipPath id="SVGID_2_">
		<use xlink:href="#SVGID_1_"  style="overflow:visible;"/>
	</clipPath>
	<path class="st1" d="M-88.2,428.8l340-196.3 M-81.4,440.7l340-196.3 M-74.5,452.5l340-196.3 M-67.7,464.4l340-196.3 M-60.8,476.3
		l340-196.3 M-54,488.1l340-196.3 M-47.1,500l340-196.3 M-40.3,511.8l340-196.3 M-33.4,523.7l340-196.3 M-26.6,535.6l340-196.3
		 M-19.7,547.4l340-196.3 M-12.9,559.3l340-196.3 M-6,571.2l340-196.3 M0.8,583l340-196.3 M7.7,594.9l340-196.3 M14.5,606.8
		l340-196.3 M21.4,618.6l340-196.3 M28.2,630.5l340-196.3 M35.1,642.4l340-196.3 M41.9,654.2l340-196.3 M48.8,666.1l340-196.3
		 M55.6,678l340-196.3 M62.5,689.8l340-196.3 M69.3,701.7l340-196.3 M76.2,713.6l340-196.3 M83,725.4l340-196.3 M89.9,737.3
		l340-196.3"/>
</g>
</svg>
