<?xml version="1.0" encoding="utf-8"?>
<!-- Generator: Adobe Illustrator 24.0.1, SVG Export Plug-In . SVG Version: 6.00 Build 0)  -->
<svg version="1.1" xmlns="http://www.w3.org/2000/svg" xmlns:xlink="http://www.w3.org/1999/xlink" x="0px" y="0px"
	 viewBox="0 0 595.3 395.2" style="enable-background:new 0 0 595.3 395.2;" xml:space="preserve">
<style type="text/css">
	.st0{fill-rule:evenodd;clip-rule:evenodd;}
	.st1{display:none;}
	.st2{display:inline;fill-rule:evenodd;clip-rule:evenodd;}
	.st3{display:inline;}
	.st4{display:inline;fill-rule:evenodd;clip-rule:evenodd;fill:none;stroke:#6D6E71;stroke-width:0.5;stroke-miterlimit:2.6131;}
	.st5{fill-rule:evenodd;clip-rule:evenodd;fill:#EFA020;}
	.st6{fill-rule:evenodd;clip-rule:evenodd;fill:none;stroke:#6D6E71;stroke-width:0.5;stroke-miterlimit:2.6131;}
</style>
<g id="Layer_29">
	<path class="st0" d="M245.5,221.3l4.6-4.9l-4.5-4.4l-31-30.3c-2.5-7.4-2.4-34,1.1-44.1l95,43c-21.9,36.2-19.7,82.4,1.1,114.1
		c3,0.4,6.1,0.9,9,1.5c-24-33.6-27.3-76.6-4.2-113.3c12.7,0.3,9,0.1,18.2-0.8c1.9,1.7,6.7,7.6,11.2,11.2
		c25.7,22.5,61.7,24.4,88.4,13c3.3-1.5,0.4-6.8-4.8-4.8c-32.1,13.2-70.1,1.1-87.7-20.8c15.8-4.2,29.1-10.1,42.7-24.4
		c30.6-2.9,54.7-27.5,56.8-56.4c0.8-8.4-3.9-8.5-5.9-6.7c-0.8,35.7-28.1,52.7-44.6,55.8c13.9-17,25.9-53.3,11.2-85.9
		c-4.7-10.6-6.9-1.1-4.3,6.3c19.3,54.1-23.6,108.6-77.1,107.4c-6-0.1-12-3.2-18.3-6.8c40.3-0.9,63.4-36.4,62.1-63.4
		c-0.1-3.3-6.3-0.6-6.4,3.8c-3.9,41.7-44.5,64.1-81.3,48.1l-65.4-29.6c-7.8,26.1-4,50.1-2.5,56.7l32,31.3
		c-26.1,31.2-35.8,70.2-25.3,108.7c1.5-1.4,3.6-3.3,5.2-4.6c-0.4-1.9-0.7-2.4-0.9-3.9C213.5,273.7,225.7,245.4,245.5,221.3z"/>
</g>
<g id="Layer_28" class="st1">
	<path class="st2" d="M123.6,268.8l-0.5,0.3c-0.3,0.2-0.9,0.5-1.5,0.7s-1.3,0.4-2,0.4c-1.2,0-2.2-0.4-2.9-1.2
		c-0.7-0.8-1.1-1.9-1.1-3.2c0-1.3,0.4-2.4,1.1-3.2c0.7-0.8,1.7-1.2,2.8-1.2c0.4,0,0.8,0.1,1.2,0.2c0.4,0.1,0.7,0.3,0.9,0.5
		c0.2,0.2,0.4,0.4,0.6,0.6c0.1,0.2,0.3,0.4,0.3,0.5l2.1-1c-0.1-0.2-0.3-0.5-0.5-0.8c-0.2-0.3-0.6-0.6-1-1c-0.4-0.3-0.9-0.6-1.6-0.9
		c-0.7-0.2-1.4-0.3-2.1-0.3c-1.9,0-3.4,0.6-4.6,1.9c-1.2,1.2-1.8,2.8-1.8,4.8c0,1.9,0.6,3.5,1.8,4.8c1.2,1.2,2.8,1.8,4.7,1.8
		c0.6,0,1.2-0.1,1.7-0.2c0.6-0.1,1.1-0.2,1.4-0.4c0.4-0.1,0.7-0.3,1.1-0.5c0.3-0.2,0.6-0.3,0.7-0.4c0.1-0.1,0.2-0.1,0.2-0.2
		L123.6,268.8z"/>
</g>
<g id="Layer_27" class="st1">
	<path class="st2" d="M134.3,267.5c-0.4-0.6-0.7-0.9-1.1-1c0.7-0.2,1.3-0.6,1.8-1.2c0.5-0.6,0.7-1.3,0.7-2.1c0-1.2-0.4-2.2-1.2-2.9
		c-0.8-0.7-1.9-1-3.4-1h-4.1v12.9h2.5v-4.7h0.8c0.6,0,1,0.1,1.2,0.2c0.2,0.1,0.5,0.4,0.7,0.8l1.4,2.3c0.6,1,1.5,1.5,2.9,1.5l0.4-2.1
		c-0.7,0-1.2-0.2-1.4-0.6L134.3,267.5L134.3,267.5z M133.2,263.3c0,0.6-0.2,1.1-0.6,1.5c-0.4,0.4-1,0.6-1.7,0.6h-1.5v-3.9h1.7
		c0.7,0,1.3,0.2,1.7,0.5C133.1,262.3,133.2,262.7,133.2,263.3z"/>
</g>
<g id="Layer_26" class="st1">
	<polygon class="st2" points="147.2,270 141.3,270 141.3,266.7 146.9,266.7 146.9,264.5 141.3,264.5 141.3,261.5 147.1,261.5 
		147.1,259.3 138.8,259.3 138.8,272.2 147.2,272.2 	"/>
</g>
<g id="Layer_25" class="st1">
	<path class="st2" d="M156.6,266.9h-3.4l1.2-3.4l0.5-1.9l0.5,1.9L156.6,266.9L156.6,266.9z M157.3,269l1.1,3.2h2.6l-4.8-12.9h-2.6
		l-4.8,12.9h2.6l1.1-3.2H157.3z"/>
</g>
<g id="Layer_24" class="st1">
	<polygon class="st2" points="169.6,259.3 160.2,259.3 160.2,261.5 163.6,261.5 163.6,272.2 166.1,272.2 166.1,261.5 169.6,261.5 	
		"/>
</g>
<g id="Layer_23" class="st1">
	<rect x="171.5" y="259.3" class="st2" width="2.5" height="12.9"/>
</g>
<g id="Layer_22" class="st1">
	<polygon class="st2" points="185.6,259.3 182.6,267.9 182.1,269.9 181.6,267.9 178.6,259.3 176,259.3 180.7,272.2 183.5,272.2 
		188.2,259.3 	"/>
</g>
<g id="Layer_21" class="st1">
	<polygon class="st2" points="198.6,270 192.6,270 192.6,266.7 198.2,266.7 198.2,264.5 192.6,264.5 192.6,261.5 198.4,261.5 
		198.4,259.3 190.1,259.3 190.1,272.2 198.6,272.2 	"/>
</g>
<g id="Layer_20" class="st1">
	<path class="st2" d="M214.8,268.3c0-0.8-0.2-1.4-0.5-2c-0.3-0.5-0.8-0.9-1.3-1.2c-0.5-0.2-1.1-0.5-1.7-0.6
		c-0.6-0.2-1.2-0.3-1.7-0.4c-0.5-0.1-0.9-0.3-1.3-0.5c-0.3-0.2-0.5-0.5-0.5-0.9c0-0.5,0.2-0.8,0.7-1c0.4-0.2,1-0.3,1.6-0.3
		c1.2,0,2.2,0.3,3.1,0.8l1.1-2l-0.5-0.3c-0.3-0.2-0.9-0.3-1.6-0.5c-0.7-0.2-1.4-0.2-2.1-0.2c-1.4,0-2.5,0.3-3.4,1
		c-0.9,0.7-1.4,1.6-1.4,2.7c0,0.7,0.2,1.4,0.5,1.8c0.3,0.5,0.8,0.9,1.3,1.1c0.5,0.2,1.1,0.4,1.7,0.6c0.6,0.2,1.2,0.3,1.7,0.4
		c0.5,0.1,0.9,0.3,1.3,0.6c0.3,0.3,0.5,0.6,0.5,1c0,0.6-0.2,1-0.7,1.3c-0.5,0.3-1.1,0.5-1.9,0.5c-0.5,0-1-0.1-1.7-0.3
		c-0.6-0.2-1.1-0.4-1.3-0.5c-0.2-0.1-0.4-0.2-0.6-0.3l-1,2l0.2,0.1c0.1,0.1,0.4,0.2,0.6,0.3c0.3,0.1,0.6,0.3,1,0.4
		c0.4,0.1,0.8,0.2,1.3,0.3c0.5,0.1,1,0.1,1.5,0.1c1.6,0,2.8-0.4,3.8-1.2C214.4,270.3,214.8,269.4,214.8,268.3z"/>
</g>
<g id="Layer_19" class="st1">
	<path class="st2" d="M226.3,263.6c0-1.3-0.4-2.4-1.2-3.1c-0.8-0.8-2-1.1-3.5-1.1h-4.2v12.9h2.5v-4.2h1.7c1.5,0,2.7-0.4,3.5-1.2
		C225.9,266,226.3,264.9,226.3,263.6L226.3,263.6z M223.8,263.6c0,0.6-0.2,1.1-0.6,1.6c-0.4,0.4-0.9,0.6-1.7,0.6h-1.7v-4.3h1.7
		c0.7,0,1.3,0.2,1.7,0.6C223.6,262.5,223.8,263,223.8,263.6z"/>
</g>
<g id="Layer_18" class="st1">
	<path class="st2" d="M233.4,266.9H230l1.2-3.4l0.5-1.9l0.5,1.9L233.4,266.9L233.4,266.9z M234.2,269l1.1,3.2h2.6l-4.8-12.9h-2.6
		l-4.8,12.9h2.6l1.1-3.2H234.2z"/>
</g>
<g id="Layer_17" class="st1">
	<path class="st2" d="M249.1,268.8l-0.5,0.3c-0.3,0.2-0.9,0.5-1.5,0.7c-0.7,0.2-1.3,0.4-2,0.4c-1.2,0-2.2-0.4-2.9-1.2
		c-0.7-0.8-1.1-1.9-1.1-3.2c0-1.3,0.4-2.4,1.1-3.2c0.7-0.8,1.7-1.2,2.8-1.2c0.4,0,0.8,0.1,1.2,0.2c0.4,0.1,0.7,0.3,0.9,0.5
		c0.2,0.2,0.4,0.4,0.6,0.6c0.1,0.2,0.3,0.4,0.3,0.5l2.1-1c-0.1-0.2-0.3-0.5-0.5-0.8c-0.2-0.3-0.6-0.6-1-1c-0.4-0.3-0.9-0.6-1.6-0.9
		c-0.7-0.2-1.4-0.3-2.1-0.3c-1.9,0-3.4,0.6-4.6,1.9c-1.2,1.2-1.8,2.8-1.8,4.8c0,1.9,0.6,3.5,1.8,4.8c1.2,1.2,2.8,1.8,4.7,1.8
		c0.6,0,1.2-0.1,1.7-0.2c0.6-0.1,1.1-0.2,1.4-0.4c0.4-0.1,0.7-0.3,1.1-0.5c0.3-0.2,0.6-0.3,0.7-0.4c0.1-0.1,0.2-0.1,0.2-0.2
		L249.1,268.8z"/>
</g>
<g id="Layer_16" class="st1">
	<polygon class="st2" points="260.9,270 255,270 255,266.7 260.6,266.7 260.6,264.5 255,264.5 255,261.5 260.8,261.5 260.8,259.3 
		252.5,259.3 252.5,272.2 260.9,272.2 	"/>
</g>
<g id="Layer_15" class="st1">
	<path class="st2" d="M458.5,213.6h-9.3v2.1h3.4v10.5h2.5v-10.5h3.4V213.6L458.5,213.6z M472.6,213.6h-2.4l-3.6,5.3l-3.7-5.3h-2.4
		v12.6h2.4v-7.7l-0.1-1.2l0.6,1.1l2.2,3.1h1.7l2.2-3.1l0.7-1.1l-0.1,1.2v7.7h2.4V213.6z"/>
</g>
<g id="Layer_14" class="st1">
	<path class="st2" d="M101.3,187.7c-0.9-0.3-1.9-0.4-2.9-0.2c-0.9,0.2-1.6,0.6-2.3,1.2c-0.7,0.6-1.2,1.4-1.6,2.3
		c-0.4,0.9-0.6,1.9-0.6,3c0,1,0.3,1.9,1.1,2.7c0.7,0.7,1.6,1.1,2.7,1.1c1.3,0,2.4-0.5,3.4-1.2c1.2-0.8,1.8-2,2.1-3.4
		c0.2-1.1,0.3-2.2,0-3.3c-0.2-0.9-0.8-1.5-1.6-1.9l0,0L101.3,187.7z"/>
</g>
<g id="Layer_13" class="st1">
	<g class="st3">
		<path class="st0" d="M152.6,216.6c0.8-2.9,1.8-5.7,3-8.5c1.2-2.9,2.7-5.8,4.4-8.5c1.7-2.7,3.6-5.2,5.7-7.4c2-2.2,4.4-4.1,7-5.5
			c2.6-1.4,5.3-2.3,8.2-2.6c3.2-0.3,6.3,0.2,9.3,1.3l0.3,0.1l0.2,0.2c0.4,0.5,0.7,1.1,0.8,1.8c0,0.4,0.1,0.7,0.3,1.1
			c0.5,1,1.3,1.8,2.4,2.2c1.1,0.4,2.2,0.4,3.3,0c0.9-0.5,1.6-1.1,2-2c0.4-0.9,0.5-1.9,0.4-3c-0.1-1.1-0.4-2.2-1-3.2
			c-0.5-0.9-1.1-1.8-1.8-2.6c-2-1.8-4.2-3.1-6.8-3.8c-2.6-0.7-5.3-1-8-0.8c-2.8,0.2-5.6,0.8-8.2,1.7c-2.6,0.9-5.1,2.2-7.3,3.8l0,0
			l0,0c-2.5,1.7-4.8,3.7-6.8,5.9c-2.2,2.4-4.3,5.1-6.1,7.8c-1.9,2.9-3.6,5.9-5.1,9c-1.5,3.1-2.8,6.3-3.8,9.6l-0.3,1l-0.9-0.1
			c-0.2,0-0.4,0-0.6,0c-0.5,0.1-0.9,0.3-1.4,0.6c-0.5,0.4-0.9,0.8-1.3,1.2c-0.4,0.5-0.7,1-1,1.5c-0.4,0.7-1.2,1.7-1.7,2.4
			c-1.1,1.3-2.2,2.5-3.3,3.8c-1.3,1.4-2.8,2.8-4.2,4.2c-1.4,1.2-2.8,2.4-4.4,3.4c-1.2,0.7-2.7,1.3-4.1,1.3c-1.7,0-2.7-1.3-3.1-2.9
			l0-0.1l0-0.1c-0.6-4.1-0.3-8.2,0.4-12.3c0.9-4.4,2.1-8.8,3.8-13c1.6-4.2,3.5-8.3,5.7-12.2c1.9-3.4,4-6.8,6.5-9.8l0.1-0.2l0.2-0.1
			c0.9-0.5,1.4-1.2,1.6-2.2c0.2-1.1,0-2.2-0.5-3.2l0,0c-0.3-0.5-0.6-0.9-1-1.3c-0.4-0.4-1-0.7-1.5-1c-0.5-0.2-1-0.3-1.5-0.3
			c-0.4,0-0.7,0.2-1,0.4l0,0c-2.3,2.2-4.3,4.6-6.1,7.2c-2,2.9-3.9,6-5.5,9.1c-1.7,3.3-3.3,6.7-4.6,10.2c-1.3,3.5-2.4,7-3.3,10.6
			c-0.5,2-0.9,4.1-1.2,6.1l0,0.2l-0.1,0.1c-0.9,1.9-2,3.6-3.3,5.2c-1.7,2-3.5,3.9-5.6,5.5c-1.7,1.3-3.6,2.6-5.6,3.4
			c-1.4,0.6-3.3,1.1-4.7,0.4l-0.7-0.3l0.1-0.8c0.4-2,0.9-4.1,1.5-6.1c0.6-2,1.3-3.9,2.1-5.8c0.8-1.9,1.5-3.8,2.3-5.6
			c0.8-1.8,1.5-3.6,2.1-5.5l0,0c0.4-1,0.3-1.9-0.2-2.8c-0.5-0.9-1.2-1.6-2.2-2c-0.5-0.2-1-0.3-1.6-0.2c-0.6,0-1.1,0.2-1.6,0.4
			c-0.5,0.2-1,0.5-1.5,0.9c-0.4,0.3-0.7,0.7-0.9,1.2c-1.4,3.4-2.7,6.7-4,10.2c-1.2,3.4-2.2,6.8-3.1,10.3c-1,4-1.8,9.6,1.4,13
			c0.6,0.5,1.3,1,2,1.4c0.9,0.5,1.9,0.6,2.9,0.6c2.5,0,4.9-0.6,7.2-1.5c2.7-1.1,5.1-2.5,7.4-4.3c1.5-1.1,2.9-2.4,4.2-3.7l1.3-1.3
			l0.5,1.8c0.4,1.3,0.9,2.6,1.8,3.7c1.1,1.3,2.4,2.3,4,2.9c1.6,0.6,3.3,0.9,5.1,0.8c1.9-0.1,3.8-0.5,5.5-1.2
			c1.9-0.8,3.7-1.9,5.3-3.1c1.9-1.4,3.6-3,5.3-4.7c0.9-0.9,1.8-1.9,2.6-2.9l2-2.3l-0.1,3c0,1,0,2,0,3c0.2,3.3,1.1,6.5,2.7,9.5
			c1.5,2.7,3.4,5.1,6,6.9l0,0l0,0c2.2,1.7,4.6,2.7,7.4,2.9c2.9,0.2,5.7-0.1,8.5-0.9c2.8-0.8,5.5-2,8-3.5c2.2-1.3,4.3-2.8,6.1-4.6
			l1.9-2l-0.1,2.8c0,0.9-0.1,1.9-0.1,2.8c0,0.9,0,1.9,0,2.8l0,0v0c0,1.1,0.4,2,1.2,2.8c0.9,0.8,1.9,1.1,3.1,1.1h0.1
			c1.2,0,2.1-0.4,2.9-1.2c0.8-0.8,1.2-1.7,1.2-2.8c-0.2-5.6,0.1-11.2,0.9-16.8c0.7-4.9,1.7-9.9,3.2-14.7c0.1-0.2,0.2-0.4,0.3-0.7
			c0.1-0.2,0.2-0.5,0.3-0.7l0,0l0,0c0.6-1.3,1.2-2.7,1.7-4.1c0.5-1.4,0.8-2.8,0.9-4.2c0-1.2-0.1-2.3-0.7-3.3c-0.6-1-1.8-1.4-2.9-1.6
			c-0.7-0.1-1.4-0.1-2,0.1c-0.7,0.2-1.4,0.4-2.1,0.8c-0.7,0.3-1.4,0.7-2,1.2c-0.7,0.4-1.3,0.9-2,1.3l0,0l0,0
			c-2.5,1.3-5.2,2.2-7.9,2.9c-3.1,0.8-6.2,1.7-9.3,2.6l-0.1,0h-0.1c0,0-0.1,0-0.1,0c-0.2,0-0.4,0.1-0.6,0.1h-0.3l-0.2-0.1
			c-0.5-0.3-1.1-0.5-1.7-0.6c-0.6-0.1-1.1,0-1.7,0.2l-0.1,0l-0.1,0c-1.1,0.3-1.9,0.9-2.5,1.8c-0.5,1-0.7,2-0.4,3
			c0.2,0.5,0.5,1,0.8,1.5c0.4,0.6,0.9,1.1,1.5,1.4c0.9,0.5,2,0.7,3,0.8c1.6,0.2,3.4-0.2,4.9-0.6c1.2-0.3,2.4-0.6,3.6-0.9
			c1.2-0.3,2.4-0.5,3.6-0.8c1.1-0.3,2.3-0.6,3.4-0.9c1-0.3,1.9-0.6,2.8-0.9l1.8-0.7l-0.4,1.9c-0.1,0.7-0.3,1.4-0.4,2.1
			c-0.2,1.2-0.5,2.4-0.7,3.6c-0.2,1.2-0.5,2.3-0.7,3.5c-0.1,0.7-0.3,1.4-0.4,2.1l0,0.1l-0.1,0.1c-0.9,1.7-2.2,3.2-3.5,4.6
			c-1.6,1.7-3.5,3.2-5.4,4.6c-2.1,1.5-4.4,2.7-6.7,3.6c-2.4,1-4.9,1.6-7.4,1.7l0,0h0c-1.8,0-3.7-0.4-5.2-1.4
			c-1.4-0.9-2.4-2.2-3.2-3.7c-0.8-1.6-1.2-3.3-1.4-5.1c-0.2-1.8-0.3-3.7-0.1-5.5c0.1-1.8,0.4-3.6,0.7-5.4
			C151.8,219.5,152.2,218,152.6,216.6z"/>
		<path class="st0" d="M226.2,211c0.4,0,0.8,0.1,1.1,0.4l0.5,0.5l-0.3,0.6c-0.7,1.7-1.6,3.4-2.5,5.1c-1,1.9-2.2,3.6-3.5,5.3
			c-1.3,1.7-2.7,3.2-4.3,4.6c-1.5,1.3-3.1,2.3-5,2.8l-1.4,0.4l0.1-1.5c0.2-3.1,1-6.1,2.5-8.9c1.4-2.6,3.1-4.9,5.4-6.8
			c1-0.9,2.3-1.5,3.6-2C223.6,211.2,224.9,210.9,226.2,211L226.2,211z M318,205.5c0.8,0.9,1.4,2,1.6,3.2c0.2,1.1,0.2,2.3,0,3.4
			c-0.2,1.1-0.4,2.2-0.8,3.2c-0.3,0.8-0.7,1.7-1.1,2.4l-0.5,0.9l-0.9-0.5c-1-0.6-1.6-1.6-1.9-2.7c-0.3-1.2-0.5-2.3-0.4-3.5
			c0-1.2,0.3-2.5,0.7-3.6c0.4-1.1,1-2.1,2-2.9l0.8-0.6L318,205.5L318,205.5z M307.9,209.7l0.7-3.5l-2.5,2.6c-2.1,2.2-4,4.7-5.3,7.4
			c-1.3,2.9-1.9,6.2-1.9,9.3l0,0l0,0c0,1.9,0.3,4.5,1.8,5.8c1.2,1.1,2.7,1.5,4.3,1.1c1.7-0.3,3.2-1.2,4.5-2.3
			c1.4-1.1,2.7-2.4,3.7-3.9l0.7-1l-1.1-0.5c-2.5-1.1-4.1-2.9-5-5.5C307.1,216.2,307.3,212.8,307.9,209.7L307.9,209.7z M331.3,220.8
			c-0.9,0.2-1.9,0.1-2.8,0.1c-1.1,0-2.5-0.2-3.2-1.2l-0.3-0.4l0.2-0.5c0.7-2.1,1.2-4.4,1.3-6.6c0.1-1.9,0-3.9-0.5-5.7
			c-0.4-1.6-1.1-3-2.1-4.3c-0.9-1.1-2.1-1.9-3.5-2.4c-1.8-0.6-3.6-0.6-5.4,0.1l-0.5,0.2l-1.1-0.7c-2.8-0.4-5.5,0.1-8,1.5
			c-2.8,1.5-5.1,3.5-7.1,6c-2.1,2.7-3.7,5.7-4.9,8.9c-0.3,0.7-0.5,1.4-0.7,2.1l-0.1,0.2l-0.1,0.2c-0.1,0.2-0.3,0.4-0.4,0.5
			c-0.9,1.5-1.9,3-2.9,4.4c-1.3,1.9-2.6,3.7-3.9,5.5c-1.5,2-3,4-4.6,5.9c-1.5,1.8-3.1,3.6-4.8,5.3c-1.4,1.4-2.9,2.7-4.5,3.8
			c-1.2,0.8-2.7,1.5-4.2,1.5l-0.5,0l-0.3-0.4c-1.2-1.6-1-3.5-0.3-5.3c0.9-2,1.9-3.9,3.1-5.8c1.3-2.1,2.7-4.2,4.1-6.2
			c1.2-1.8,2.3-3.8,3-5.9l0,0c0.6-1.7,0.6-3.4-0.3-5c-0.7-0.9-1.5-1.8-2.4-2.4c-0.9-0.5-1.9-1-2.9-1.2c-1-0.2-2.1-0.3-3.2-0.2
			c-1.2,0.1-2.3,0.2-3.4,0.5l-1.2,0.2v-1.3c0-0.2,0-0.3,0.1-0.5v0l0.1-0.2c0.2-0.5,0.5-1,0.7-1.5c0.5-1.1,0.9-2.3,1.1-3.5
			c0.3-1.4,0.4-2.9,0.4-4.4c0-1.4-0.5-2.6-1.4-3.7c-0.7-0.9-1.6-1.4-2.7-1.7c-1.2-0.3-2.5-0.1-3.6,0.2c-1.6,0.6-2.9,1.7-3.8,3.1
			c-1,1.7-1.7,3.5-2.1,5.4c-0.4,1.9-0.6,3.9-0.6,5.9c0,1.4,0.2,3.1,0.6,4.4c0,0.1,0.1,0.2,0.1,0.3l0.3,0.7l-0.6,0.5
			c-0.3,0.3-0.5,0.6-0.7,1c-0.9,2.2-2.1,4.2-3.7,6c-1.5,1.7-3.1,3.3-4.9,4.7c-1.6,1.2-3.3,2.3-5.1,3.2c-1.3,0.6-2.9,1.2-4.3,1.2
			h-0.6l-0.3-0.6c-0.6-1.2-0.5-2.7-0.2-4c0.4-1.6,1.1-3.1,1.8-4.5c0.9-1.7,1.8-3.3,2.8-5c1-1.7,2-3.3,2.9-5c0.8-1.5,1.6-3,2.3-4.5
			c0.4-1,0.9-2.2,0.9-3.3c0-1.1-0.4-1.9-1.3-2.6c-1-0.8-2.2-1.1-3.4-1.1c-0.9,0-1.9,0.1-2.8,0.5c-0.7,0.3-1.4,0.7-2.1,1.2l-0.4,0.3
			l-0.5-0.1c-3.4-0.9-7-1.1-10.4-0.3c-3.5,0.8-6.6,2.2-9.5,4.3c-1.7,1.2-3.2,2.7-4.5,4.4c-1.4,1.9-2.6,3.9-3.5,6.1
			c-0.9,2.1-1.6,4.3-2,6.6c-0.4,2-0.4,4.1,0,6.1c0.3,1.7,1.1,3.3,2.3,4.6c1.3,1.4,3.1,2.1,5,2.4l0,0c1,0.2,2,0.2,3,0
			c1.1-0.2,2.1-0.6,3.1-1.1c1-0.5,2-1.1,3-1.7c0.9-0.6,1.8-1.3,2.6-2l1.3-1.1l0.4,1.6c0.6,2.1,1.6,3.7,3.4,4.9
			c1.8,1.1,3.7,1.7,5.8,1.7c2.4,0,4.7-0.6,6.8-1.6c2.6-1.1,5-2.6,7.3-4.3c2.4-1.8,4.7-3.9,6.7-6.1c1.9-2.1,3.7-4.4,5.2-6.9
			c0.1-0.2,0.2-0.4,0.3-0.6l0.3-0.7l0.8,0c1,0,2,0,2.9-0.1c1.6-0.2,3.1-0.4,4.7-0.6l2.2-0.3l-1.2,1.9c-1.2,1.9-2.4,3.7-3.6,5.6
			c-1.1,1.8-2.2,3.7-3.3,5.6c-0.9,1.7-1.8,3.4-2.5,5.1c-0.6,1.4-1,2.9-1.1,4.3c-0.1,2.7,0.5,5.3,2.4,7.3c2,2.1,4.8,2.8,7.6,2.9
			c1.9,0.1,3.8-0.6,5.4-1.4c2.2-1.1,4.2-2.6,6.1-4.2c2.1-1.8,4.1-3.8,6-5.9c1.9-2.2,3.7-4.4,5.4-6.7c0.3-0.4,0.6-0.8,0.8-1.2
			l1.1-1.5l0.7,1.6c0.3,0.6,0.5,1.1,0.9,1.6c0.7,1.1,1.6,2.1,2.6,2.8c1.1,0.7,2.2,1.3,3.4,1.8c1.3,0.5,2.7,0.7,4,0.7
			c1.8,0,3.5-0.3,5.2-1c1.7-0.7,3.3-1.6,4.7-2.8c1.5-1.2,2.8-2.5,4-3.9c1.2-1.4,2.2-2.8,3.1-4.4l0.4-0.6l0.7,0.1
			c1.9,0.4,4,0.5,6,0.5c1.1,0,2.2,0,3.2-0.2C341.6,226,336.4,219.7,331.3,220.8z"/>
		<path class="st0" d="M33.8,252.4c0.1,1.1,0.6,1.9,1.4,2.6c0.8,0.7,1.8,1,2.9,1h0.4c1.2-0.1,2.1-0.6,2.9-1.5c0.7-0.9,1-1.8,0.9-2.9
			l0,0l0,0c-0.2-2.3,0.1-4.8,0.5-7c0.5-2.9,1-5.8,1.7-8.6c0.7-2.9,1.4-5.7,2.2-8.5c0.6-2.2,1.2-4.4,1.9-6.6l0.1-0.5l0.5-0.2
			c4.4-1.5,8.8-2.9,13.3-4c4.5-1.1,9-2.1,13.6-2.9l0,0l0,0c1.2-0.1,2.4-0.5,3.2-1.5c0.6-0.8,1-1.7,1-2.7c0-1-0.4-1.9-1.1-2.7
			c-0.8-0.9-1.8-1.1-3-1.1h-0.1c-1.8,0.1-3.7,0.4-5.5,0.7c-2.1,0.4-4.1,0.8-6.1,1.3c-2,0.5-4,1-6,1.6c-1.7,0.5-3.5,1-5.2,1.5
			l-1.8,0.6l0.5-1.8c0.3-1.1,0.6-2.2,0.9-3.3c0.4-1.3,0.7-2.6,1-3.9c0.3-1.3,0.6-2.6,1-3.9c0.3-1.1,0.6-2.2,0.9-3.3l0.2-0.5l0.5-0.2
			c2.5-0.9,5.1-1.7,7.6-2.4c2.9-0.8,5.9-1.6,8.8-2.3c3-0.7,5.9-1.2,8.9-1.6c2.7-0.3,5.3-0.5,8-0.4l0,0l0,0c1.2,0.1,2.2-0.2,3-1
			c0.8-0.7,1.3-1.6,1.3-2.7l0,0c0.1-1.1-0.2-2.1-1-2.9c-0.8-0.9-1.8-1.3-3-1.3c-2.3-0.1-4.6,0.1-6.9,0.3c-2.6,0.3-5.3,0.6-7.9,1.1
			c-2.6,0.4-5.2,0.9-7.7,1.5c-2.2,0.5-4.3,1-6.4,1.6l-2.5,0.7l1.3-2.3c0.6-1.1,1-2.3,0.9-3.5c0-1.2-0.8-2-1.8-2.6l0,0
			c-1-0.6-2-0.8-3.2-0.5c-1.1,0.2-2.1,0.8-2.7,1.7c-1,1.6-1.9,3.3-2.6,5.1c-0.7,1.8-1.3,3.6-1.8,5.4l-0.1,0.5l-0.5,0.2
			c-2.7,1.1-5.5,2.1-8.3,2.8c-1.4,0.4-2.8,0.7-4.1,1.1c-1.4,0.4-2.7,1-3.8,1.7c-0.9,0.7-1.5,1.5-1.7,2.6c-0.2,1.1,0,2,0.7,2.9l0,0
			l0,0c0.4,0.6,0.9,1.1,1.6,1.4c0.7,0.3,1.3,0.5,2.1,0.5c1.6,0,3.2-0.4,4.6-1.1c1.6-0.7,3.3-1.4,5-1.9l2-0.6l-0.7,2
			c-0.3,1-0.6,2-0.9,3c-0.3,1.3-0.7,2.5-1,3.8c-0.3,1.3-0.7,2.6-1,3.9c-0.3,1.1-0.6,2.2-0.8,3.2l-0.1,0.5l-0.5,0.2
			c-1.5,0.5-2.9,1-4.4,1.6c-1.4,0.6-2.9,1.1-4.3,1.6c-1.1,0.4-1.9,1.2-2.3,2.2c-0.4,1-0.5,2,0,3c0.4,0.8,0.9,1.4,1.6,1.9
			c0.7,0.5,1.5,0.7,2.4,0.7c0.5,0,1-0.1,1.4-0.2c0.5-0.2,1-0.3,1.5-0.5l1.9-0.7l-0.5,2c-0.6,2.2-1.2,4.5-1.8,6.7
			c-0.6,2.3-1.1,4.5-1.6,6.8c-0.5,2.2-0.8,4.5-1,6.7C33.7,248.3,33.6,250.4,33.8,252.4z"/>
	</g>
</g>
<g id="Layer_48" class="st1">
	
		<ellipse transform="matrix(0.9873 -0.1586 0.1586 0.9873 -23.5206 57.1541)" class="st4" cx="346.2" cy="175.9" rx="31.2" ry="31.2"/>
</g>
<g id="Layer_47" class="st1">
	<circle class="st4" cx="346.2" cy="175.9" r="28.1"/>
</g>
<g id="Layer_46" class="st1">
	<circle class="st4" cx="356.5" cy="170.8" r="42.7"/>
</g>
<g id="Layer_45" class="st1">
	<circle class="st4" cx="356.5" cy="170.8" r="39.6"/>
</g>
<g id="Layer_44" class="st1">
	<ellipse transform="matrix(0.97 -0.2432 0.2432 0.97 -33.3462 101.71)" class="st4" cx="395.3" cy="185.9" rx="42.3" ry="42.3"/>
</g>
<g id="Layer_43" class="st1">
	
		<ellipse transform="matrix(0.482 -0.8762 0.8762 0.482 41.8836 442.7049)" class="st4" cx="395.3" cy="185.9" rx="39.3" ry="39.3"/>
</g>
<g id="Layer_42" class="st1">
	
		<ellipse transform="matrix(0.1206 -0.9927 0.9927 0.1206 110.4377 604.3329)" class="st4" cx="396.3" cy="239.8" rx="53.1" ry="53.1"/>
</g>
<g id="Layer_41" class="st1">
	<ellipse transform="matrix(0.1207 -0.9927 0.9927 0.1207 110.4052 604.3075)" class="st4" cx="396.3" cy="239.8" rx="50" ry="50"/>
</g>
<g id="Layer_40" class="st1">
	
		<ellipse transform="matrix(9.512481e-02 -0.9955 0.9955 9.512481e-02 58.8098 601.6146)" class="st4" cx="360.3" cy="268.5" rx="58.1" ry="58.1"/>
</g>
<g id="Layer_39" class="st1">
	<ellipse transform="matrix(0.1523 -0.9883 0.9883 0.1523 40.1149 583.6884)" class="st4" cx="360.3" cy="268.5" rx="55" ry="55"/>
</g>
<g id="Layer_38" class="st1">
	<circle class="st4" cx="357.9" cy="203.3" r="58.1"/>
</g>
<g id="Layer_37" class="st1">
	<ellipse transform="matrix(0.7071 -0.7071 0.7071 0.7071 -38.9104 312.599)" class="st4" cx="357.9" cy="203.3" rx="55" ry="55"/>
</g>
<g id="Layer_36" class="st1">
	<line class="st4" x1="201.8" y1="141.4" x2="460.4" y2="258.5"/>
</g>
<g id="Layer_35" class="st1">
	<line class="st4" x1="204.1" y1="145.8" x2="460.5" y2="261.9"/>
</g>
<g id="Layer_34" class="st1">
	<line class="st4" x1="226.3" y1="141.8" x2="414.4" y2="325.7"/>
</g>
<g id="Layer_33" class="st1">
	<line class="st4" x1="235" y1="145.7" x2="416" y2="322.7"/>
</g>
<g id="Layer_32" class="st1">
	
		<ellipse transform="matrix(0.9873 -0.1586 0.1586 0.9873 -21.9928 63.0947)" class="st4" cx="384.2" cy="169.3" rx="31.2" ry="31.2"/>
</g>
<g id="Layer_31" class="st1">
	
		<ellipse transform="matrix(0.9739 -0.227 0.227 0.9739 -28.4032 91.6419)" class="st4" cx="384.2" cy="169.3" rx="28.1" ry="28.1"/>
</g>
<g id="Layer_12">
	<path class="st5" d="M306,300.4c-19-32-16.6-84.6,4.7-119.8l-95-43c-3.5,10.1-3.6,36.6-1.1,44.1l31,30.3l4.5,4.4
		c-26.7,28.8-28,70.9-23.1,107.8c19.1-15.1,43.2-24.2,69.5-24.2C299.7,300,302.9,300.1,306,300.4z"/>
</g>
<g id="Layer_11" class="st1">
	<g class="st3">
		<circle class="st6" cx="343.9" cy="326" r="58.1"/>
		<ellipse transform="matrix(0.1575 -0.9875 0.9875 0.1575 -32.2066 614.3145)" class="st6" cx="343.9" cy="326" rx="55" ry="55"/>
	</g>
	<g id="Layer_30" class="st3">
	</g>
</g>
<g id="Layer_10" class="st1">
	<line class="st4" x1="136.8" y1="249.4" x2="464.1" y2="249.4"/>
</g>
<g id="Layer_9" class="st1">
	<line class="st4" x1="136.8" y1="241.9" x2="464.1" y2="241.9"/>
</g>
<g id="Layer_8" class="st1">
	<line class="st4" x1="136.8" y1="209" x2="464.1" y2="209"/>
</g>
<g id="Layer_7" class="st1">
	<line class="st4" x1="150" y1="192.3" x2="150" y2="266.1"/>
</g>
<g id="Layer_6" class="st1">
	<polyline class="st4" points="299.6,155.8 299.6,232 299.6,302.6 	"/>
</g>
<g id="Layer_5" class="st1">
	<line class="st4" x1="136.8" y1="257.3" x2="464.1" y2="257.3"/>
</g>
<g id="Layer_4" class="st1">
	<circle class="st4" cx="223.5" cy="229.2" r="76.2"/>
</g>
<g id="Layer_3" class="st1">
	<circle class="st4" cx="176.1" cy="229.2" r="28.9"/>
</g>
<g id="Layer_2" class="st1">
	<circle class="st4" cx="252.2" cy="229.2" r="47.5"/>
</g>
</svg>
