<?xml version="1.0" encoding="utf-8"?>
<!-- Generator: Adobe Illustrator 24.0.2, SVG Export Plug-In . SVG Version: 6.00 Build 0)  -->
<svg version="1.1" id="Layer_1" xmlns="http://www.w3.org/2000/svg" xmlns:xlink="http://www.w3.org/1999/xlink" x="0px" y="0px"
	 viewBox="0 0 211 133" style="enable-background:new 0 0 211 133;" xml:space="preserve">
<style type="text/css">
	.st0{fill-rule:evenodd;clip-rule:evenodd;fill:#FDFDFD;stroke:#D73135;stroke-width:0.5;stroke-miterlimit:2.6131;}
	.st1{fill-rule:evenodd;clip-rule:evenodd;fill:#D73135;stroke:#D73135;stroke-width:0.5;stroke-miterlimit:2.6131;}
	.st2{fill-rule:evenodd;clip-rule:evenodd;fill:none;stroke:#D73135;stroke-width:0.5;stroke-miterlimit:2.6131;}
	.st3{fill-rule:evenodd;clip-rule:evenodd;fill:#D73135;}
	.st4{fill-rule:evenodd;clip-rule:evenodd;fill:#FDFDFD;}
</style>
<g>
	<polygon class="st0" points="154.3,73.8 139.9,73.8 143.7,77.5 136.7,83.6 71.4,83.6 57.4,95.8 57.4,108.9 71.4,96.6 136.7,96.6 
		150.6,84.5 154.3,88.1 	"/>
	<polygon class="st0" points="71.4,57.4 57.4,69.7 57.4,82.7 71.4,70.4 136.7,70.4 150.6,58.3 154.3,61.9 154.3,47.6 139.9,47.6 
		143.7,51.3 136.7,57.4 	"/>
	<polygon class="st0" points="154.3,21.5 139.9,21.5 143.7,25.2 136.7,31.2 71.4,31.2 57.4,43.5 57.4,56.5 71.4,44.3 136.7,44.3 
		150.6,32.1 154.3,35.8 	"/>
	<circle class="st0" cx="104.1" cy="63.9" r="32.7"/>
	<path class="st1" d="M76.4,57.4h55.3c0.5,2.1,0.8,4.3,0.8,6.5c0,2.2-0.3,4.4-0.8,6.5H76.4c-0.5-2.1-0.8-4.3-0.8-6.5
		C75.6,61.7,75.9,59.5,76.4,57.4z"/>
	
		<ellipse transform="matrix(0.7071 -0.7071 0.7071 0.7071 -14.7223 92.2976)" class="st2" cx="104.1" cy="63.9" rx="28.4" ry="28.4"/>
	<path class="st2" d="M126,45.9c-5.2-6.4-13.1-10.4-22-10.4c-8.9,0-16.8,4.1-22,10.4c5.2,3.7,13.1,6.1,22,6.1
		C112.9,52,120.8,49.7,126,45.9z"/>
	<path class="st1" d="M118.9,39.7c-4.3-2.6-9.4-4.2-14.8-4.2S93.6,37,89.3,39.7c4.2,2.9,9.3,4.6,14.8,4.6S114.6,42.6,118.9,39.7z"/>
	<path class="st1" d="M118.9,88.2c-4.3,2.6-9.4,4.2-14.8,4.2s-10.5-1.5-14.8-4.2c4.2-2.9,9.3-4.6,14.8-4.6S114.6,85.3,118.9,88.2z"
		/>
	<path class="st2" d="M126,81.9c-5.2,6.4-13.1,10.4-22,10.4c-8.9,0-16.8-4.1-22-10.4c5.2-3.7,13.1-6.1,22-6.1
		C112.9,75.8,120.8,78.2,126,81.9z"/>
	<ellipse class="st2" cx="104.1" cy="63.9" rx="18" ry="28.4"/>
	<path class="st3" d="M74.8,109h-2.9l-0.3,0.8c-0.1,0.3-0.2,0.5-0.2,0.7c0,0.2,0.1,0.4,0.3,0.5c0.1,0.1,0.4,0.1,0.8,0.1v0.2h-2.7
		v-0.2c0.3,0,0.5-0.2,0.7-0.4c0.2-0.2,0.4-0.6,0.7-1.2l3-6.6h0.1l3,6.8c0.3,0.6,0.5,1,0.7,1.2c0.1,0.1,0.3,0.2,0.6,0.2v0.2h-4v-0.2
		h0.2c0.3,0,0.5,0,0.7-0.1c0.1-0.1,0.1-0.2,0.1-0.3c0-0.1,0-0.1,0-0.2c0,0-0.1-0.2-0.2-0.5L74.8,109L74.8,109z M74.6,108.6l-1.2-2.8
		l-1.3,2.8H74.6L74.6,108.6z M86.5,108.5l-0.3,2.9h-7.3v-0.2h0.3c0.2,0,0.4,0,0.6-0.1c0.1-0.1,0.2-0.2,0.2-0.3
		c0-0.1,0.1-0.4,0.1-0.8v-5.4c0-0.4,0-0.7-0.1-0.8c0-0.1-0.1-0.2-0.3-0.3c-0.1-0.1-0.3-0.1-0.6-0.1h-0.3v-0.2h4.4v0.2h-0.4
		c-0.2,0-0.4,0-0.6,0.1c-0.1,0.1-0.2,0.2-0.2,0.3c0,0.1-0.1,0.4-0.1,0.8v5.3c0,0.4,0,0.7,0.1,0.8c0,0.1,0.1,0.2,0.3,0.3
		c0.1,0,0.3,0.1,0.7,0.1h0.7c0.4,0,0.8-0.1,1.1-0.2c0.3-0.2,0.5-0.4,0.8-0.7c0.2-0.3,0.4-0.8,0.6-1.5H86.5L86.5,108.5z M93.9,109H91
		l-0.3,0.8c-0.1,0.3-0.2,0.5-0.2,0.7c0,0.2,0.1,0.4,0.3,0.5c0.1,0.1,0.4,0.1,0.8,0.1v0.2h-2.7v-0.2c0.3,0,0.5-0.2,0.7-0.4
		c0.2-0.2,0.4-0.6,0.7-1.2l3-6.6h0.1l3,6.8c0.3,0.6,0.5,1,0.7,1.2c0.1,0.1,0.3,0.2,0.6,0.2v0.2h-4v-0.2h0.2c0.3,0,0.5,0,0.7-0.1
		c0.1-0.1,0.1-0.2,0.1-0.3c0-0.1,0-0.1,0-0.2c0,0-0.1-0.2-0.2-0.5L93.9,109L93.9,109z M93.7,108.6l-1.2-2.8l-1.3,2.8H93.7
		L93.7,108.6z M103.7,108.6l2.2-5.4h3.4v0.2H109c-0.2,0-0.4,0-0.6,0.1c-0.1,0.1-0.2,0.2-0.2,0.3c0,0.1-0.1,0.4-0.1,0.8v5.4
		c0,0.4,0,0.7,0.1,0.8c0,0.1,0.1,0.2,0.3,0.3c0.1,0.1,0.3,0.1,0.6,0.1h0.3v0.2h-4.3v-0.2h0.3c0.2,0,0.4,0,0.6-0.1
		c0.1-0.1,0.2-0.2,0.2-0.3c0-0.1,0.1-0.4,0.1-0.8v-6.1l-3.2,7.5h-0.1l-3.2-7.5v5.8c0,0.4,0,0.7,0,0.8c0.1,0.2,0.2,0.4,0.3,0.5
		c0.2,0.1,0.5,0.2,0.8,0.2v0.2H98v-0.2H98c0.2,0,0.4,0,0.5-0.1c0.2-0.1,0.3-0.1,0.4-0.3c0.1-0.1,0.1-0.3,0.2-0.4c0,0,0-0.3,0-0.6
		v-5.2c0-0.4,0-0.7-0.1-0.8c0-0.1-0.1-0.2-0.3-0.3c-0.1-0.1-0.3-0.1-0.6-0.1H98v-0.2h3.4L103.7,108.6L103.7,108.6z M114.7,109h-2.9
		l-0.3,0.8c-0.1,0.3-0.2,0.5-0.2,0.7c0,0.2,0.1,0.4,0.3,0.5c0.1,0.1,0.4,0.1,0.8,0.1v0.2h-2.7v-0.2c0.3,0,0.5-0.2,0.7-0.4
		c0.2-0.2,0.4-0.6,0.7-1.2l3-6.6h0.1l3,6.8c0.3,0.6,0.5,1,0.7,1.2c0.1,0.1,0.3,0.2,0.6,0.2v0.2h-4v-0.2h0.2c0.3,0,0.5,0,0.7-0.1
		c0.1-0.1,0.1-0.2,0.1-0.3c0-0.1,0-0.1,0-0.2c0,0-0.1-0.2-0.2-0.5L114.7,109L114.7,109z M114.5,108.6l-1.2-2.8l-1.3,2.8H114.5
		L114.5,108.6z M121.6,103.1l4.1,5.1v-3.5c0-0.5-0.1-0.8-0.2-1c-0.2-0.2-0.5-0.3-1-0.3v-0.2h2.7v0.2c-0.3,0-0.6,0.1-0.7,0.2
		c-0.1,0.1-0.2,0.2-0.3,0.3c-0.1,0.2-0.1,0.4-0.1,0.8v6.9h-0.2l-5.6-6.9v5.2c0,0.5,0.1,0.8,0.3,1c0.2,0.2,0.5,0.3,0.7,0.3h0.2v0.2
		h-2.9v-0.2c0.5,0,0.8-0.1,1-0.3c0.2-0.2,0.3-0.5,0.3-0.9v-5.8l-0.2-0.2c-0.2-0.2-0.3-0.4-0.5-0.4c-0.1-0.1-0.3-0.1-0.6-0.1v-0.2
		H121.6L121.6,103.1z M138.9,102.9v2.9h-0.2c-0.2-0.7-0.5-1.3-1-1.7c-0.5-0.4-1-0.6-1.7-0.6c-0.5,0-1,0.1-1.4,0.4
		c-0.4,0.3-0.7,0.7-0.9,1.2c-0.3,0.6-0.4,1.3-0.4,2c0,0.7,0.1,1.4,0.3,2c0.2,0.6,0.5,1.1,0.9,1.4c0.4,0.3,0.9,0.5,1.5,0.5
		c0.5,0,1-0.1,1.4-0.3c0.4-0.2,0.9-0.6,1.4-1.2v0.7c-0.5,0.5-0.9,0.8-1.4,1c-0.5,0.2-1.1,0.3-1.8,0.3c-0.9,0-1.7-0.2-2.3-0.5
		c-0.7-0.4-1.2-0.9-1.6-1.5c-0.4-0.7-0.6-1.4-0.6-2.1c0-0.8,0.2-1.5,0.6-2.2c0.4-0.7,1-1.3,1.7-1.6c0.7-0.4,1.4-0.6,2.2-0.6
		c0.6,0,1.2,0.1,1.8,0.4c0.4,0.1,0.6,0.2,0.7,0.2c0.1,0,0.2,0,0.3-0.1c0.1-0.1,0.2-0.2,0.2-0.5H138.9L138.9,102.9z M142.7,105.5
		c0.5,0,1,0.1,1.4,0.4c0.4,0.3,0.8,0.6,1,1.1c0.2,0.5,0.3,1,0.3,1.5c0,0.8-0.2,1.5-0.6,2c-0.5,0.7-1.2,1-2.1,1c-0.9,0-1.5-0.3-2-0.9
		c-0.5-0.6-0.7-1.3-0.7-2.1c0-0.8,0.2-1.5,0.7-2.1C141.2,105.8,141.9,105.5,142.7,105.5L142.7,105.5z M142.7,106
		c-0.2,0-0.4,0.1-0.5,0.2c-0.1,0.2-0.2,0.5-0.3,0.9c0,0.5-0.1,1.1-0.1,1.9c0,0.4,0,0.8,0.1,1.2c0,0.3,0.1,0.5,0.3,0.7
		c0.1,0.2,0.3,0.2,0.5,0.2c0.2,0,0.3-0.1,0.5-0.2c0.2-0.1,0.3-0.3,0.3-0.6c0.1-0.4,0.1-1.2,0.1-2.3c0-0.7,0-1.2-0.1-1.4
		c-0.1-0.3-0.2-0.4-0.3-0.6C143,106,142.9,106,142.7,106L142.7,106z M147.4,109.5c0.3,0,0.5,0.1,0.7,0.3c0.2,0.2,0.3,0.4,0.3,0.7
		c0,0.3-0.1,0.5-0.3,0.7c-0.2,0.2-0.4,0.3-0.7,0.3c-0.3,0-0.5-0.1-0.7-0.3c-0.2-0.2-0.3-0.4-0.3-0.7c0-0.3,0.1-0.5,0.3-0.7
		C146.9,109.6,147.1,109.5,147.4,109.5z"/>
	<path class="st4" d="M85.9,63l2.9,3.6c0.4,0.5,0.8,0.9,1.1,1c0.2,0.1,0.4,0.2,0.7,0.2V68h-4.3v-0.2c0.3,0,0.4-0.1,0.5-0.1
		c0.1-0.1,0.1-0.1,0.1-0.2c0-0.2-0.2-0.5-0.6-1l-1.9-2.4l-0.3,0.3v2.3c0,0.4,0,0.7,0.1,0.8c0,0.1,0.1,0.2,0.3,0.3
		c0.1,0.1,0.4,0.1,0.7,0.1V68H81v-0.2h0.3c0.2,0,0.4,0,0.6-0.1c0.1-0.1,0.2-0.2,0.2-0.3c0-0.1,0.1-0.4,0.1-0.8v-5.4
		c0-0.4,0-0.7-0.1-0.8c0-0.1-0.1-0.2-0.3-0.3c-0.1-0.1-0.3-0.1-0.6-0.1H81v-0.2h4.1V60c-0.3,0-0.5,0-0.6,0.1
		c-0.1,0.1-0.2,0.2-0.2,0.3c0,0.1-0.1,0.4-0.1,0.8v2.6l3.1-2.5c0.4-0.3,0.6-0.6,0.6-0.8c0-0.2-0.1-0.3-0.3-0.4
		c-0.1,0-0.3-0.1-0.7-0.1v-0.2h3.2V60c-0.3,0-0.5,0.1-0.7,0.2c-0.2,0.1-0.5,0.4-1.1,0.8L85.9,63L85.9,63z M95.6,65.7l0.4,1
		c0.1,0.3,0.2,0.4,0.2,0.5c0,0.1,0,0.2,0,0.2c0,0.1,0,0.2-0.1,0.3c-0.1,0.1-0.4,0.1-0.7,0.1h-0.2V68h4v-0.2c-0.3,0-0.4-0.1-0.6-0.2
		c-0.2-0.2-0.4-0.6-0.7-1.2l-3-6.8h-0.1l-3,6.6c-0.3,0.6-0.5,1-0.7,1.2c-0.2,0.2-0.4,0.3-0.7,0.4V68h2.7v-0.2
		c-0.4,0-0.7-0.1-0.8-0.1c-0.2-0.1-0.3-0.3-0.3-0.5c0-0.2,0.1-0.4,0.2-0.7l0.3-0.8H95.6L95.6,65.7z M95.4,65.2h-2.5l1.3-2.8
		L95.4,65.2L95.4,65.2z M102.7,64.3v2.3c0,0.4,0,0.7,0.1,0.8c0.1,0.1,0.2,0.2,0.3,0.3c0.1,0.1,0.4,0.1,0.8,0.1V68h-4.2v-0.2
		c0.4,0,0.6,0,0.8-0.1c0.1-0.1,0.2-0.2,0.3-0.3c0.1-0.1,0.1-0.4,0.1-0.8v-5.4c0-0.4,0-0.7-0.1-0.8c-0.1-0.1-0.2-0.2-0.3-0.3
		c-0.1-0.1-0.4-0.1-0.8-0.1v-0.2h3.8c1,0,1.7,0.1,2.2,0.2c0.5,0.1,0.8,0.4,1.1,0.8c0.3,0.4,0.4,0.8,0.4,1.3c0,0.6-0.2,1.1-0.7,1.5
		c-0.3,0.3-0.7,0.4-1.2,0.6l2,2.8c0.3,0.4,0.4,0.6,0.6,0.7c0.2,0.1,0.4,0.2,0.6,0.2V68h-2.6l-2.7-3.8H102.7L102.7,64.3z M102.7,60.2
		v3.6h0.3c0.6,0,1-0.1,1.3-0.2c0.3-0.1,0.5-0.3,0.7-0.6c0.2-0.3,0.2-0.6,0.2-1.1c0-0.6-0.1-1.1-0.4-1.4c-0.3-0.3-0.8-0.5-1.4-0.5
		H102.7L102.7,60.2z M117,59.6v2.9h-0.2c-0.3-0.8-0.7-1.4-1.2-1.8c-0.5-0.4-1.1-0.6-1.8-0.6c-0.6,0-1.1,0.2-1.5,0.5
		c-0.4,0.3-0.7,0.8-0.9,1.5c-0.2,0.6-0.3,1.3-0.3,1.9c0,0.8,0.1,1.5,0.3,2.1c0.2,0.6,0.5,1,0.9,1.3c0.4,0.3,0.9,0.4,1.5,0.4
		c0.2,0,0.4,0,0.6-0.1c0.2,0,0.4-0.1,0.6-0.2v-1.7c0-0.3,0-0.5-0.1-0.6c0-0.1-0.1-0.2-0.3-0.3c-0.1-0.1-0.3-0.1-0.5-0.1H114v-0.2h4
		v0.2c-0.3,0-0.5,0.1-0.6,0.1c-0.1,0.1-0.2,0.2-0.3,0.3c0,0.1-0.1,0.3-0.1,0.6v1.7c-0.5,0.2-1.1,0.4-1.6,0.5
		c-0.6,0.1-1.2,0.2-1.8,0.2c-0.8,0-1.4-0.1-2-0.3c-0.5-0.2-1-0.5-1.4-0.8c-0.4-0.3-0.7-0.7-0.9-1.2c-0.3-0.6-0.4-1.2-0.4-1.9
		c0-1.2,0.4-2.3,1.3-3.1c0.9-0.9,2-1.3,3.3-1.3c0.4,0,0.8,0,1.1,0.1c0.2,0,0.5,0.1,0.9,0.3c0.4,0.2,0.6,0.2,0.7,0.2
		c0.1,0,0.2,0,0.3-0.1c0.1-0.1,0.2-0.2,0.3-0.5H117L117,59.6z M122.9,59.7c1.3-0.1,2.4,0.3,3.2,1.1c0.8,0.8,1.2,1.8,1.2,3.1
		c0,1-0.3,2-0.9,2.8c-0.8,1.1-2,1.6-3.4,1.6c-1.5,0-2.6-0.5-3.4-1.5c-0.6-0.8-1-1.7-1-2.8c0-1.2,0.4-2.2,1.3-3.1
		C120.7,60,121.7,59.6,122.9,59.7L122.9,59.7z M123,60.1c-0.8,0-1.3,0.4-1.7,1.2c-0.3,0.6-0.5,1.5-0.5,2.7c0,1.4,0.2,2.5,0.7,3.1
		c0.3,0.5,0.8,0.7,1.5,0.7c0.4,0,0.8-0.1,1-0.3c0.4-0.3,0.6-0.7,0.8-1.2c0.2-0.6,0.3-1.3,0.3-2.2c0-1.1-0.1-1.9-0.3-2.5
		c-0.2-0.5-0.5-0.9-0.8-1.1C123.8,60.2,123.4,60.1,123,60.1z"/>
</g>
</svg>
