<?xml version="1.0" encoding="utf-8"?>
<!-- Generator: Adobe Illustrator 24.0.2, SVG Export Plug-In . SVG Version: 6.00 Build 0)  -->
<svg version="1.1" id="Layer_1" xmlns="http://www.w3.org/2000/svg" xmlns:xlink="http://www.w3.org/1999/xlink" x="0px" y="0px"
	 viewBox="0 0 211 133" style="enable-background:new 0 0 211 133;" xml:space="preserve">
<style type="text/css">
	
		.st0{fill-rule:evenodd;clip-rule:evenodd;fill:#3B3B89;stroke:#FDFDFD;stroke-width:7.0551;stroke-linecap:round;stroke-linejoin:round;stroke-miterlimit:22.9256;}
	
		.st1{fill-rule:evenodd;clip-rule:evenodd;fill:none;stroke:#FDFDFD;stroke-width:7.0554;stroke-linecap:round;stroke-linejoin:round;stroke-miterlimit:22.9256;}
	
		.st2{fill-rule:evenodd;clip-rule:evenodd;fill:#3B3B89;stroke:#FDFDFD;stroke-width:7.0554;stroke-linecap:round;stroke-linejoin:round;stroke-miterlimit:22.9256;}
	
		.st3{fill-rule:evenodd;clip-rule:evenodd;fill:#FDFDFD;stroke:#FDFDFD;stroke-width:6.988;stroke-linecap:round;stroke-linejoin:round;stroke-miterlimit:22.9256;}
	
		.st4{fill-rule:evenodd;clip-rule:evenodd;fill:none;stroke:#303C7A;stroke-width:0.7095;stroke-linecap:round;stroke-linejoin:round;stroke-miterlimit:22.9256;}
	
		.st5{fill-rule:evenodd;clip-rule:evenodd;fill:#FDFDFD;stroke:#303C7A;stroke-width:0.7095;stroke-linecap:round;stroke-linejoin:round;stroke-miterlimit:22.9256;}
	.st6{fill-rule:evenodd;clip-rule:evenodd;fill:#303C7A;}
	.st7{fill-rule:evenodd;clip-rule:evenodd;fill:#C42F33;}
	.st8{fill-rule:evenodd;clip-rule:evenodd;fill:#FDFDFD;}
</style>
<g>
	<path class="st0" d="M53.3,56c0.6,0,1.1,0.5,1.1,1.1c0,0.6-0.5,1.1-1.1,1.1c-0.6,0-1.1-0.5-1.1-1.1C52.2,56.5,52.7,56,53.3,56
		L53.3,56z M59.8,48.6c0.6,0,1.1,0.5,1.1,1.1c0,0.6-0.5,1.1-1.1,1.1c-0.6,0-1.1-0.5-1.1-1.1C58.7,49.1,59.2,48.6,59.8,48.6
		L59.8,48.6z M68.2,43.3c0.6,0,1.1,0.5,1.1,1.1c0,0.6-0.5,1.1-1.1,1.1c-0.6,0-1.1-0.5-1.1-1.1C67.1,43.8,67.6,43.3,68.2,43.3
		L68.2,43.3z M77.4,39.5c0.6,0,1.1,0.5,1.1,1.1c0,0.6-0.5,1.1-1.1,1.1c-0.6,0-1.1-0.5-1.1-1.1C76.3,40,76.8,39.5,77.4,39.5
		L77.4,39.5z M87.4,36.9c0.6,0,1.1,0.5,1.1,1.1c0,0.6-0.5,1.1-1.1,1.1c-0.6,0-1.1-0.5-1.1-1.1C86.3,37.4,86.8,36.9,87.4,36.9
		L87.4,36.9z M97.6,35.3c0.6,0,1.1,0.5,1.1,1.1c0,0.6-0.5,1.1-1.1,1.1c-0.6,0-1.1-0.5-1.1-1.1C96.5,35.8,97,35.3,97.6,35.3
		L97.6,35.3z M107.9,34.8c0.6,0,1.1,0.5,1.1,1.1c0,0.6-0.5,1.1-1.1,1.1c-0.6,0-1.1-0.5-1.1-1.1C106.8,35.3,107.3,34.8,107.9,34.8
		L107.9,34.8z M118.3,35c0.6,0,1.1,0.5,1.1,1.1c0,0.6-0.5,1.1-1.1,1.1c-0.6,0-1.1-0.5-1.1-1.1C117.2,35.5,117.7,35,118.3,35
		L118.3,35z M128.8,36.5c0.6,0,1.1,0.5,1.1,1.1c0,0.6-0.5,1.1-1.1,1.1c-0.6,0-1.1-0.5-1.1-1.1C127.7,37,128.2,36.5,128.8,36.5
		L128.8,36.5z M138.9,39.1c0.6,0,1.1,0.5,1.1,1.1c0,0.6-0.5,1.1-1.1,1.1c-0.6,0-1.1-0.5-1.1-1.1C137.8,39.6,138.3,39.1,138.9,39.1
		L138.9,39.1z M148.6,43.1c0.6,0,1.1,0.5,1.1,1.1s-0.5,1.1-1.1,1.1c-0.6,0-1.1-0.5-1.1-1.1S148,43.1,148.6,43.1L148.6,43.1z
		 M157,48.4c0.6,0,1.1,0.5,1.1,1.1s-0.5,1.1-1.1,1.1c-0.6,0-1.1-0.5-1.1-1.1S156.4,48.4,157,48.4L157,48.4z M163.6,56.1
		c0.6,0,1.1,0.5,1.1,1.1c0,0.6-0.5,1.1-1.1,1.1c-0.6,0-1.1-0.5-1.1-1.1C162.5,56.6,163,56.1,163.6,56.1L163.6,56.1z M166.8,65.3
		c0.6,0,1.1,0.5,1.1,1.1c0,0.6-0.5,1.1-1.1,1.1c-0.6,0-1.1-0.5-1.1-1.1C165.8,65.8,166.2,65.3,166.8,65.3L166.8,65.3z M165.3,75.3
		c0.6,0,1.1,0.5,1.1,1.1c0,0.6-0.5,1.1-1.1,1.1c-0.6,0-1.1-0.5-1.1-1.1C164.2,75.8,164.7,75.3,165.3,75.3L165.3,75.3z M158.9,83.4
		c0.6,0,1.1,0.5,1.1,1.1c0,0.6-0.5,1.1-1.1,1.1c-0.6,0-1.1-0.5-1.1-1.1C157.8,83.9,158.3,83.4,158.9,83.4L158.9,83.4z M150.4,89.5
		c0.6,0,1.1,0.5,1.1,1.1c0,0.6-0.5,1.1-1.1,1.1c-0.6,0-1.1-0.5-1.1-1.1C149.3,90,149.8,89.5,150.4,89.5L150.4,89.5z M140.7,94
		c0.6,0,1.1,0.5,1.1,1.1c0,0.6-0.5,1.1-1.1,1.1c-0.6,0-1.1-0.5-1.1-1.1C139.6,94.5,140.1,94,140.7,94L140.7,94z M130.1,96.9
		c0.6,0,1.1,0.5,1.1,1.1c0,0.6-0.5,1.1-1.1,1.1c-0.6,0-1.1-0.5-1.1-1.1C129,97.4,129.5,96.9,130.1,96.9L130.1,96.9z M119.2,98.7
		c0.6,0,1.1,0.5,1.1,1.1s-0.5,1.1-1.1,1.1c-0.6,0-1.1-0.5-1.1-1.1S118.6,98.7,119.2,98.7L119.2,98.7z M108.4,99
		c0.6,0,1.1,0.5,1.1,1.1c0,0.6-0.5,1.1-1.1,1.1c-0.6,0-1.1-0.5-1.1-1.1C107.4,99.5,107.8,99,108.4,99L108.4,99z M97.2,98.5
		c0.6,0,1.1,0.5,1.1,1.1c0,0.6-0.5,1.1-1.1,1.1c-0.6,0-1.1-0.5-1.1-1.1C96.1,99,96.6,98.5,97.2,98.5L97.2,98.5z M86.2,96.7
		c0.6,0,1.1,0.5,1.1,1.1c0,0.6-0.5,1.1-1.1,1.1c-0.6,0-1.1-0.5-1.1-1.1C85.1,97.2,85.6,96.7,86.2,96.7L86.2,96.7z M75.6,93.8
		c0.6,0,1.1,0.5,1.1,1.1c0,0.6-0.5,1.1-1.1,1.1c-0.6,0-1.1-0.5-1.1-1.1C74.6,94.3,75,93.8,75.6,93.8L75.6,93.8z M65.9,89.2
		c0.6,0,1.1,0.5,1.1,1.1c0,0.6-0.5,1.1-1.1,1.1c-0.6,0-1.1-0.5-1.1-1.1C64.9,89.7,65.3,89.2,65.9,89.2L65.9,89.2z M57.7,83.2
		c0.6,0,1.1,0.5,1.1,1.1c0,0.6-0.5,1.1-1.1,1.1s-1.1-0.5-1.1-1.1C56.6,83.7,57.1,83.2,57.7,83.2L57.7,83.2z M51.4,75.3
		c0.6,0,1.1,0.5,1.1,1.1s-0.5,1.1-1.1,1.1c-0.6,0-1.1-0.5-1.1-1.1S50.8,75.3,51.4,75.3L51.4,75.3z M49.6,65.5c0.6,0,1.1,0.5,1.1,1.1
		c0,0.6-0.5,1.1-1.1,1.1c-0.6,0-1.1-0.5-1.1-1.1C48.5,65.9,49,65.5,49.6,65.5z"/>
	<path class="st1" d="M87.4,35.2c1.6,0,2.8,1.3,2.8,2.8c0,1.6-1.3,2.8-2.8,2.8c-1.6,0-2.8-1.3-2.8-2.8
		C84.5,36.4,85.8,35.2,87.4,35.2L87.4,35.2z M77.4,37.8c1.6,0,2.8,1.3,2.8,2.8c0,1.6-1.3,2.8-2.8,2.8c-1.6,0-2.8-1.3-2.8-2.8
		C74.5,39.1,75.8,37.8,77.4,37.8L77.4,37.8z M68.2,41.5c1.6,0,2.8,1.3,2.8,2.8c0,1.6-1.3,2.8-2.8,2.8c-1.6,0-2.8-1.3-2.8-2.8
		C65.4,42.8,66.7,41.5,68.2,41.5L68.2,41.5z M59.8,46.9c1.6,0,2.8,1.3,2.8,2.8c0,1.6-1.3,2.8-2.8,2.8c-1.6,0-2.8-1.3-2.8-2.8
		C57,48.2,58.3,46.9,59.8,46.9L59.8,46.9z M53.3,54.3c1.6,0,2.8,1.3,2.8,2.8c0,1.6-1.3,2.8-2.8,2.8c-1.6,0-2.8-1.3-2.8-2.8
		C50.5,55.6,51.8,54.3,53.3,54.3L53.3,54.3z M49.6,63.7c1.6,0,2.8,1.3,2.8,2.8c0,1.6-1.3,2.8-2.8,2.8c-1.6,0-2.8-1.3-2.8-2.8
		C46.7,65,48,63.7,49.6,63.7L49.6,63.7z M51.4,73.5c1.6,0,2.8,1.3,2.8,2.8s-1.3,2.8-2.8,2.8c-1.6,0-2.8-1.3-2.8-2.8
		S49.9,73.5,51.4,73.5L51.4,73.5z M57.7,81.5c1.6,0,2.8,1.3,2.8,2.8c0,1.6-1.3,2.8-2.8,2.8c-1.6,0-2.8-1.3-2.8-2.8
		C54.9,82.7,56.2,81.5,57.7,81.5L57.7,81.5z M65.9,87.5c1.6,0,2.8,1.3,2.8,2.8c0,1.6-1.3,2.8-2.8,2.8c-1.6,0-2.8-1.3-2.8-2.8
		C63.1,88.8,64.4,87.5,65.9,87.5L65.9,87.5z M75.6,92.1c1.6,0,2.8,1.3,2.8,2.8c0,1.6-1.3,2.8-2.8,2.8c-1.6,0-2.8-1.3-2.8-2.8
		C72.8,93.4,74.1,92.1,75.6,92.1L75.6,92.1z M86.2,95c1.6,0,2.8,1.3,2.8,2.8c0,1.6-1.3,2.8-2.8,2.8c-1.6,0-2.8-1.3-2.8-2.8
		C83.4,96.3,84.6,95,86.2,95L86.2,95z M97.2,96.8c1.6,0,2.8,1.3,2.8,2.8c0,1.6-1.3,2.8-2.8,2.8c-1.6,0-2.8-1.3-2.8-2.8
		C94.4,98.1,95.7,96.8,97.2,96.8L97.2,96.8z M108.4,97.3c1.6,0,2.8,1.3,2.8,2.8s-1.3,2.8-2.8,2.8c-1.6,0-2.8-1.3-2.8-2.8
		S106.9,97.3,108.4,97.3L108.4,97.3z M119.2,96.9c1.6,0,2.8,1.3,2.8,2.8s-1.3,2.8-2.8,2.8c-1.6,0-2.8-1.3-2.8-2.8
		S117.7,96.9,119.2,96.9L119.2,96.9z M130.1,95.1c1.6,0,2.8,1.3,2.8,2.8s-1.3,2.8-2.8,2.8c-1.6,0-2.8-1.3-2.8-2.8
		S128.5,95.1,130.1,95.1L130.1,95.1z M140.7,92.2c1.6,0,2.8,1.3,2.8,2.8c0,1.6-1.3,2.8-2.8,2.8c-1.6,0-2.8-1.3-2.8-2.8
		C137.9,93.5,139.1,92.2,140.7,92.2L140.7,92.2z M150.4,87.7c1.6,0,2.8,1.3,2.8,2.8c0,1.6-1.3,2.8-2.8,2.8c-1.6,0-2.8-1.3-2.8-2.8
		C147.5,89,148.8,87.7,150.4,87.7L150.4,87.7z M158.9,81.6c1.6,0,2.8,1.3,2.8,2.8c0,1.6-1.3,2.8-2.8,2.8c-1.6,0-2.8-1.3-2.8-2.8
		C156,82.9,157.3,81.6,158.9,81.6L158.9,81.6z M165.3,73.6c1.6,0,2.8,1.3,2.8,2.8c0,1.6-1.3,2.8-2.8,2.8c-1.6,0-2.8-1.3-2.8-2.8
		C162.5,74.8,163.7,73.6,165.3,73.6L165.3,73.6z M166.8,63.6c1.6,0,2.8,1.3,2.8,2.8c0,1.6-1.3,2.8-2.8,2.8c-1.6,0-2.8-1.3-2.8-2.8
		C164,64.8,165.3,63.6,166.8,63.6L166.8,63.6z M163.6,54.3c1.6,0,2.8,1.3,2.8,2.8c0,1.6-1.3,2.8-2.8,2.8c-1.6,0-2.8-1.3-2.8-2.8
		C160.7,55.6,162,54.3,163.6,54.3L163.6,54.3z M157,46.7c1.6,0,2.8,1.3,2.8,2.8c0,1.6-1.3,2.8-2.8,2.8s-2.8-1.3-2.8-2.8
		C154.2,47.9,155.5,46.7,157,46.7L157,46.7z M148.6,41.3c1.6,0,2.8,1.3,2.8,2.8c0,1.6-1.3,2.8-2.8,2.8c-1.6,0-2.8-1.3-2.8-2.8
		C145.8,42.6,147,41.3,148.6,41.3L148.6,41.3z M138.9,37.4c1.6,0,2.8,1.3,2.8,2.8c0,1.6-1.3,2.8-2.8,2.8c-1.6,0-2.8-1.3-2.8-2.8
		C136.1,38.7,137.4,37.4,138.9,37.4L138.9,37.4z M128.8,34.8c1.6,0,2.8,1.3,2.8,2.8c0,1.6-1.3,2.8-2.8,2.8c-1.6,0-2.8-1.3-2.8-2.8
		C125.9,36.1,127.2,34.8,128.8,34.8L128.8,34.8z M118.3,33.2c1.6,0,2.8,1.3,2.8,2.8c0,1.6-1.3,2.8-2.8,2.8c-1.6,0-2.8-1.3-2.8-2.8
		C115.5,34.5,116.8,33.2,118.3,33.2L118.3,33.2z M107.9,33c1.6,0,2.8,1.3,2.8,2.8c0,1.6-1.3,2.8-2.8,2.8c-1.6,0-2.8-1.3-2.8-2.8
		C105.1,34.3,106.4,33,107.9,33L107.9,33z M97.6,33.5c1.6,0,2.8,1.3,2.8,2.8s-1.3,2.8-2.8,2.8c-1.6,0-2.8-1.3-2.8-2.8
		S96,33.5,97.6,33.5z"/>
	<path class="st1" d="M68.2,39.4c2.8,0,5,2.3,5,5s-2.2,5-5,5c-2.8,0-5-2.3-5-5S65.5,39.4,68.2,39.4L68.2,39.4z M59.8,44.7
		c2.8,0,5,2.3,5,5c0,2.8-2.2,5-5,5c-2.8,0-5-2.3-5-5C54.8,47,57.1,44.7,59.8,44.7L59.8,44.7z M53.3,52.1c2.8,0,5,2.3,5,5
		c0,2.8-2.2,5-5,5c-2.8,0-5-2.3-5-5C48.3,54.4,50.6,52.1,53.3,52.1L53.3,52.1z M49.6,61.5c2.8,0,5,2.3,5,5c0,2.8-2.2,5-5,5
		c-2.8,0-5-2.3-5-5C44.6,63.8,46.8,61.5,49.6,61.5L49.6,61.5z M51.4,71.4c2.8,0,5,2.3,5,5c0,2.8-2.2,5-5,5c-2.8,0-5-2.3-5-5
		C46.4,73.6,48.7,71.4,51.4,71.4L51.4,71.4z M57.7,79.3c2.8,0,5,2.3,5,5c0,2.8-2.2,5-5,5s-5-2.3-5-5C52.7,81.5,55,79.3,57.7,79.3
		L57.7,79.3z M65.9,85.3c2.8,0,5,2.3,5,5c0,2.8-2.2,5-5,5c-2.8,0-5-2.3-5-5C60.9,87.6,63.2,85.3,65.9,85.3L65.9,85.3z M75.6,89.9
		c2.8,0,5,2.3,5,5c0,2.8-2.2,5-5,5c-2.8,0-5-2.3-5-5C70.6,92.2,72.9,89.9,75.6,89.9L75.6,89.9z M86.2,92.8c2.8,0,5,2.3,5,5
		c0,2.8-2.2,5-5,5s-5-2.3-5-5C81.2,95.1,83.4,92.8,86.2,92.8L86.2,92.8z M97.2,94.6c2.8,0,5,2.3,5,5c0,2.8-2.2,5-5,5
		c-2.8,0-5-2.3-5-5C92.2,96.9,94.5,94.6,97.2,94.6L97.2,94.6z M108.4,95.1c2.8,0,5,2.3,5,5c0,2.8-2.2,5-5,5c-2.8,0-5-2.3-5-5
		C103.4,97.4,105.7,95.1,108.4,95.1L108.4,95.1z M119.2,94.8c2.8,0,5,2.3,5,5s-2.2,5-5,5c-2.8,0-5-2.3-5-5S116.5,94.8,119.2,94.8
		L119.2,94.8z M130.1,93c2.8,0,5,2.3,5,5c0,2.8-2.2,5-5,5c-2.8,0-5-2.3-5-5C125.1,95.2,127.3,93,130.1,93L130.1,93z M140.7,90.1
		c2.8,0,5,2.3,5,5c0,2.8-2.2,5-5,5c-2.8,0-5-2.3-5-5C135.7,92.3,137.9,90.1,140.7,90.1L140.7,90.1z M150.4,85.6c2.8,0,5,2.3,5,5
		c0,2.8-2.2,5-5,5c-2.8,0-5-2.3-5-5C145.4,87.8,147.6,85.6,150.4,85.6L150.4,85.6z M158.9,79.5c2.8,0,5,2.3,5,5c0,2.8-2.2,5-5,5
		c-2.8,0-5-2.3-5-5C153.9,81.7,156.1,79.5,158.9,79.5L158.9,79.5z M165.3,71.4c2.8,0,5,2.3,5,5c0,2.8-2.2,5-5,5s-5-2.3-5-5
		C160.3,73.6,162.5,71.4,165.3,71.4L165.3,71.4z M166.8,61.4c2.8,0,5,2.3,5,5c0,2.8-2.2,5-5,5c-2.8,0-5-2.3-5-5
		C161.8,63.6,164.1,61.4,166.8,61.4L166.8,61.4z M163.6,52.1c2.8,0,5,2.3,5,5c0,2.8-2.2,5-5,5c-2.8,0-5-2.3-5-5
		C158.6,54.4,160.8,52.1,163.6,52.1L163.6,52.1z M157,44.5c2.8,0,5,2.3,5,5s-2.2,5-5,5c-2.8,0-5-2.3-5-5S154.3,44.5,157,44.5
		L157,44.5z M148.6,39.2c2.8,0,5,2.3,5,5s-2.2,5-5,5c-2.8,0-5-2.3-5-5S145.8,39.2,148.6,39.2L148.6,39.2z M138.9,35.2
		c2.8,0,5,2.3,5,5c0,2.8-2.2,5-5,5c-2.8,0-5-2.3-5-5C133.9,37.5,136.2,35.2,138.9,35.2L138.9,35.2z M128.8,32.6c2.8,0,5,2.3,5,5
		c0,2.8-2.2,5-5,5c-2.8,0-5-2.3-5-5C123.8,34.9,126,32.6,128.8,32.6L128.8,32.6z M118.3,31c2.8,0,5,2.3,5,5c0,2.8-2.2,5-5,5
		c-2.8,0-5-2.3-5-5C113.3,33.3,115.6,31,118.3,31L118.3,31z M107.9,30.8c2.8,0,5,2.3,5,5c0,2.8-2.2,5-5,5s-5-2.3-5-5
		C102.9,33.1,105.2,30.8,107.9,30.8L107.9,30.8z M97.6,31.4c2.8,0,5,2.3,5,5s-2.2,5-5,5c-2.8,0-5-2.3-5-5S94.8,31.4,97.6,31.4
		L97.6,31.4z M87.4,33c2.8,0,5,2.3,5,5c0,2.8-2.2,5-5,5c-2.8,0-5-2.3-5-5C82.4,35.2,84.6,33,87.4,33L87.4,33z M77.4,35.6
		c2.8,0,5,2.3,5,5c0,2.8-2.2,5-5,5c-2.8,0-5-2.3-5-5C72.3,37.9,74.6,35.6,77.4,35.6z"/>
	<path class="st2" d="M43.2,59.2c1.2,0.4,1.9,1.6,2.5,1.7c1.6,0.3,2-2.1,0.5-2.4C45.6,58.5,44.4,59.4,43.2,59.2L43.2,59.2z
		 M41.9,72.6c1.2,0.1,2.2,1.1,2.8,1.2c1.6,0,1.5-2.4,0-2.5C44.1,71.3,43.1,72.5,41.9,72.6L41.9,72.6z M47.5,85.3
		c1.1-0.5,2.5,0,3-0.3c1.4-0.8,0.2-2.8-1.2-2.1C48.9,83.2,48.6,84.7,47.5,85.3L47.5,85.3z M55.8,94.7c0.7-1,0.6-2.4,1-2.9
		c1-1.2,2.8,0.4,1.8,1.6C58.2,93.8,56.6,93.8,55.8,94.7L55.8,94.7z M66.4,100.5c0.5-1.1,0-2.5,0.3-3c0.7-1.4,2.8-0.2,2.2,1.2
		C68.6,99.1,67.1,99.5,66.4,100.5L66.4,100.5z M78.5,104.5c0.2-1.2-0.6-2.5-0.4-3c0.4-1.5,2.7-0.9,2.4,0.6
		C80.2,102.7,78.8,103.4,78.5,104.5L78.5,104.5z M90.1,107.3c0-1.2-0.9-2.3-0.8-2.9c0.2-1.6,2.6-1.2,2.4,0.3
		C91.5,105.2,90.3,106.1,90.1,107.3L90.1,107.3z M102.1,108.1c0-1.2-1-2.3-1-2.9c0.1-1.6,2.5-1.3,2.4,0.2
		C103.5,106,102.2,106.9,102.1,108.1L102.1,108.1z M113.8,108.1c-0.1-1.2-1.2-2.2-1.2-2.8c0-1.6,2.4-1.5,2.4,0
		C115,105.9,113.8,106.9,113.8,108.1L113.8,108.1z M125.9,106.7c0-1.2,0.9-2.3,0.8-2.9c-0.2-1.6-2.6-1.2-2.4,0.3
		C124.4,104.7,125.6,105.6,125.9,106.7L125.9,106.7z M137.2,103.9c-0.2-1.2,0.6-2.5,0.4-3c-0.4-1.5-2.7-0.9-2.4,0.6
		C135.5,102.1,136.9,102.8,137.2,103.9L137.2,103.9z M148.9,100c-0.5-1.1,0-2.5-0.3-3c-0.7-1.4-2.8-0.2-2.2,1.2
		C146.8,98.6,148.3,99,148.9,100L148.9,100z M159.5,93.8c-0.7-1-0.6-2.4-1-2.9c-1-1.2-2.8,0.4-1.8,1.6
		C157.1,92.9,158.6,92.9,159.5,93.8L159.5,93.8z M169.4,84.8c-1.1-0.5-2.5,0-3-0.3c-1.4-0.8-0.2-2.8,1.2-2.1
		C168,82.7,168.4,84.2,169.4,84.8L169.4,84.8z M174.7,72.3c-1.2,0.1-2.2,1.1-2.8,1.2c-1.6,0-1.5-2.4,0-2.5
		C172.5,71,173.5,72.2,174.7,72.3L174.7,72.3z M173.4,59.7c-1.2,0.4-1.9,1.6-2.5,1.7c-1.6,0.3-2-2.1-0.5-2.4
		C171,58.9,172.2,59.8,173.4,59.7L173.4,59.7z M166.6,48.4c-0.9,0.8-1.2,2.2-1.6,2.5c-1.3,0.9-2.6-1.1-1.4-2
		C164,48.6,165.5,49,166.6,48.4L166.6,48.4z M157.4,40.4c-0.7,1-0.6,2.4-1,2.9c-1,1.2-2.8-0.4-1.8-1.6
		C155,41.3,156.6,41.3,157.4,40.4L157.4,40.4z M147.6,34.5c-0.5,1.1,0,2.5-0.3,3c-0.7,1.4-2.8,0.2-2.2-1.2
		C145.5,35.9,147,35.5,147.6,34.5L147.6,34.5z M136.5,30.9c-0.2,1.2,0.6,2.5,0.4,3c-0.4,1.5-2.7,0.9-2.4-0.6
		C134.7,32.7,136.1,32,136.5,30.9L136.5,30.9z M125.3,28.5c0,1.2,0.9,2.3,0.8,2.9c-0.2,1.6-2.6,1.2-2.4-0.3
		C123.8,30.5,125.1,29.7,125.3,28.5L125.3,28.5z M113.3,27.6c-0.1,1.2-1.2,2.2-1.2,2.8c0,1.6,2.4,1.5,2.4,0
		C114.5,29.8,113.3,28.8,113.3,27.6L113.3,27.6z M101.9,27.7c0,1.2-1,2.3-1,2.9c0.1,1.6,2.5,1.3,2.4-0.2
		C103.3,29.8,102.1,28.9,101.9,27.7L101.9,27.7z M91.3,28.5c0,1.2-0.9,2.3-0.8,2.9c0.2,1.6,2.6,1.2,2.4-0.3
		C92.8,30.5,91.6,29.7,91.3,28.5L91.3,28.5z M80.1,30.9c0.2,1.2-0.6,2.5-0.4,3c0.4,1.5,2.7,0.9,2.4-0.6C81.9,32.7,80.5,32,80.1,30.9
		L80.1,30.9z M69.2,34.4c0.5,1.1,0,2.5,0.3,3c0.7,1.4,2.8,0.2,2.2-1.2C71.3,35.7,69.9,35.4,69.2,34.4L69.2,34.4z M59.2,40.4
		c0.7,1,0.6,2.4,1,2.9c1,1.2,2.8-0.4,1.8-1.6C61.6,41.3,60.1,41.3,59.2,40.4L59.2,40.4z M50.1,48.1c0.9,0.8,1.2,2.2,1.6,2.5
		c1.3,0.9,2.6-1.1,1.4-2C52.6,48.3,51.1,48.7,50.1,48.1z"/>
	<ellipse class="st3" cx="108.4" cy="68" rx="58.6" ry="32.3"/>
	<path class="st4" d="M68.2,39.4c2.8,0,5,2.3,5,5s-2.2,5-5,5c-2.8,0-5-2.3-5-5S65.5,39.4,68.2,39.4L68.2,39.4z M59.8,44.7
		c2.8,0,5,2.3,5,5c0,2.8-2.2,5-5,5c-2.8,0-5-2.3-5-5C54.8,47,57.1,44.7,59.8,44.7L59.8,44.7z M53.3,52.1c2.8,0,5,2.3,5,5
		c0,2.8-2.2,5-5,5c-2.8,0-5-2.3-5-5C48.3,54.4,50.6,52.1,53.3,52.1L53.3,52.1z M49.6,61.5c2.8,0,5,2.3,5,5c0,2.8-2.2,5-5,5
		c-2.8,0-5-2.3-5-5C44.6,63.8,46.8,61.5,49.6,61.5L49.6,61.5z M51.4,71.4c2.8,0,5,2.3,5,5c0,2.8-2.2,5-5,5c-2.8,0-5-2.3-5-5
		C46.4,73.6,48.7,71.4,51.4,71.4L51.4,71.4z M57.7,79.3c2.8,0,5,2.3,5,5c0,2.8-2.2,5-5,5s-5-2.3-5-5C52.7,81.5,55,79.3,57.7,79.3
		L57.7,79.3z M65.9,85.3c2.8,0,5,2.3,5,5c0,2.8-2.2,5-5,5c-2.8,0-5-2.3-5-5C60.9,87.6,63.2,85.3,65.9,85.3L65.9,85.3z M75.6,89.9
		c2.8,0,5,2.3,5,5c0,2.8-2.2,5-5,5c-2.8,0-5-2.3-5-5C70.6,92.2,72.9,89.9,75.6,89.9L75.6,89.9z M86.2,92.8c2.8,0,5,2.3,5,5
		c0,2.8-2.2,5-5,5s-5-2.3-5-5C81.2,95.1,83.4,92.8,86.2,92.8L86.2,92.8z M97.2,94.6c2.8,0,5,2.3,5,5c0,2.8-2.2,5-5,5
		c-2.8,0-5-2.3-5-5C92.2,96.9,94.5,94.6,97.2,94.6L97.2,94.6z M108.4,95.1c2.8,0,5,2.3,5,5c0,2.8-2.2,5-5,5c-2.8,0-5-2.3-5-5
		C103.4,97.4,105.7,95.1,108.4,95.1L108.4,95.1z M119.2,94.8c2.8,0,5,2.3,5,5s-2.2,5-5,5c-2.8,0-5-2.3-5-5S116.5,94.8,119.2,94.8
		L119.2,94.8z M130.1,93c2.8,0,5,2.3,5,5c0,2.8-2.2,5-5,5c-2.8,0-5-2.3-5-5C125.1,95.2,127.3,93,130.1,93L130.1,93z M140.7,90.1
		c2.8,0,5,2.3,5,5c0,2.8-2.2,5-5,5c-2.8,0-5-2.3-5-5C135.7,92.3,137.9,90.1,140.7,90.1L140.7,90.1z M150.4,85.6c2.8,0,5,2.3,5,5
		c0,2.8-2.2,5-5,5c-2.8,0-5-2.3-5-5C145.4,87.8,147.6,85.6,150.4,85.6L150.4,85.6z M158.9,79.5c2.8,0,5,2.3,5,5c0,2.8-2.2,5-5,5
		c-2.8,0-5-2.3-5-5C153.9,81.7,156.1,79.5,158.9,79.5L158.9,79.5z M165.3,71.4c2.8,0,5,2.3,5,5c0,2.8-2.2,5-5,5s-5-2.3-5-5
		C160.3,73.6,162.5,71.4,165.3,71.4L165.3,71.4z M166.8,61.4c2.8,0,5,2.3,5,5c0,2.8-2.2,5-5,5c-2.8,0-5-2.3-5-5
		C161.8,63.6,164.1,61.4,166.8,61.4L166.8,61.4z M163.6,52.1c2.8,0,5,2.3,5,5c0,2.8-2.2,5-5,5c-2.8,0-5-2.3-5-5
		C158.6,54.4,160.8,52.1,163.6,52.1L163.6,52.1z M157,44.5c2.8,0,5,2.3,5,5s-2.2,5-5,5c-2.8,0-5-2.3-5-5S154.3,44.5,157,44.5
		L157,44.5z M148.6,39.2c2.8,0,5,2.3,5,5s-2.2,5-5,5c-2.8,0-5-2.3-5-5S145.8,39.2,148.6,39.2L148.6,39.2z M138.9,35.2
		c2.8,0,5,2.3,5,5c0,2.8-2.2,5-5,5c-2.8,0-5-2.3-5-5C133.9,37.5,136.2,35.2,138.9,35.2L138.9,35.2z M128.8,32.6c2.8,0,5,2.3,5,5
		c0,2.8-2.2,5-5,5c-2.8,0-5-2.3-5-5C123.8,34.9,126,32.6,128.8,32.6L128.8,32.6z M118.3,31c2.8,0,5,2.3,5,5c0,2.8-2.2,5-5,5
		c-2.8,0-5-2.3-5-5C113.3,33.3,115.6,31,118.3,31L118.3,31z M107.9,30.8c2.8,0,5,2.3,5,5c0,2.8-2.2,5-5,5s-5-2.3-5-5
		C102.9,33.1,105.2,30.8,107.9,30.8L107.9,30.8z M97.6,31.4c2.8,0,5,2.3,5,5s-2.2,5-5,5c-2.8,0-5-2.3-5-5S94.8,31.4,97.6,31.4
		L97.6,31.4z M87.4,33c2.8,0,5,2.3,5,5c0,2.8-2.2,5-5,5c-2.8,0-5-2.3-5-5C82.4,35.2,84.6,33,87.4,33L87.4,33z M77.4,35.6
		c2.8,0,5,2.3,5,5c0,2.8-2.2,5-5,5c-2.8,0-5-2.3-5-5C72.3,37.9,74.6,35.6,77.4,35.6z"/>
	<path class="st4" d="M87.4,35.2c1.6,0,2.8,1.3,2.8,2.8c0,1.6-1.3,2.8-2.8,2.8c-1.6,0-2.8-1.3-2.8-2.8
		C84.5,36.4,85.8,35.2,87.4,35.2L87.4,35.2z M77.4,37.8c1.6,0,2.8,1.3,2.8,2.8c0,1.6-1.3,2.8-2.8,2.8c-1.6,0-2.8-1.3-2.8-2.8
		C74.5,39.1,75.8,37.8,77.4,37.8L77.4,37.8z M68.2,41.5c1.6,0,2.8,1.3,2.8,2.8c0,1.6-1.3,2.8-2.8,2.8c-1.6,0-2.8-1.3-2.8-2.8
		C65.4,42.8,66.7,41.5,68.2,41.5L68.2,41.5z M59.8,46.9c1.6,0,2.8,1.3,2.8,2.8c0,1.6-1.3,2.8-2.8,2.8c-1.6,0-2.8-1.3-2.8-2.8
		C57,48.2,58.3,46.9,59.8,46.9L59.8,46.9z M53.3,54.3c1.6,0,2.8,1.3,2.8,2.8c0,1.6-1.3,2.8-2.8,2.8c-1.6,0-2.8-1.3-2.8-2.8
		C50.5,55.6,51.8,54.3,53.3,54.3L53.3,54.3z M49.6,63.7c1.6,0,2.8,1.3,2.8,2.8c0,1.6-1.3,2.8-2.8,2.8c-1.6,0-2.8-1.3-2.8-2.8
		C46.7,65,48,63.7,49.6,63.7L49.6,63.7z M51.4,73.5c1.6,0,2.8,1.3,2.8,2.8s-1.3,2.8-2.8,2.8c-1.6,0-2.8-1.3-2.8-2.8
		S49.9,73.5,51.4,73.5L51.4,73.5z M57.7,81.5c1.6,0,2.8,1.3,2.8,2.8c0,1.6-1.3,2.8-2.8,2.8c-1.6,0-2.8-1.3-2.8-2.8
		C54.9,82.7,56.2,81.5,57.7,81.5L57.7,81.5z M65.9,87.5c1.6,0,2.8,1.3,2.8,2.8c0,1.6-1.3,2.8-2.8,2.8c-1.6,0-2.8-1.3-2.8-2.8
		C63.1,88.8,64.4,87.5,65.9,87.5L65.9,87.5z M75.6,92.1c1.6,0,2.8,1.3,2.8,2.8c0,1.6-1.3,2.8-2.8,2.8c-1.6,0-2.8-1.3-2.8-2.8
		C72.8,93.4,74.1,92.1,75.6,92.1L75.6,92.1z M86.2,95c1.6,0,2.8,1.3,2.8,2.8c0,1.6-1.3,2.8-2.8,2.8c-1.6,0-2.8-1.3-2.8-2.8
		C83.4,96.3,84.6,95,86.2,95L86.2,95z M97.2,96.8c1.6,0,2.8,1.3,2.8,2.8c0,1.6-1.3,2.8-2.8,2.8c-1.6,0-2.8-1.3-2.8-2.8
		C94.4,98.1,95.7,96.8,97.2,96.8L97.2,96.8z M108.4,97.3c1.6,0,2.8,1.3,2.8,2.8s-1.3,2.8-2.8,2.8c-1.6,0-2.8-1.3-2.8-2.8
		S106.9,97.3,108.4,97.3L108.4,97.3z M119.2,96.9c1.6,0,2.8,1.3,2.8,2.8s-1.3,2.8-2.8,2.8c-1.6,0-2.8-1.3-2.8-2.8
		S117.7,96.9,119.2,96.9L119.2,96.9z M130.1,95.1c1.6,0,2.8,1.3,2.8,2.8s-1.3,2.8-2.8,2.8c-1.6,0-2.8-1.3-2.8-2.8
		S128.5,95.1,130.1,95.1L130.1,95.1z M140.7,92.2c1.6,0,2.8,1.3,2.8,2.8c0,1.6-1.3,2.8-2.8,2.8c-1.6,0-2.8-1.3-2.8-2.8
		C137.9,93.5,139.1,92.2,140.7,92.2L140.7,92.2z M150.4,87.7c1.6,0,2.8,1.3,2.8,2.8c0,1.6-1.3,2.8-2.8,2.8c-1.6,0-2.8-1.3-2.8-2.8
		C147.5,89,148.8,87.7,150.4,87.7L150.4,87.7z M158.9,81.6c1.6,0,2.8,1.3,2.8,2.8c0,1.6-1.3,2.8-2.8,2.8c-1.6,0-2.8-1.3-2.8-2.8
		C156,82.9,157.3,81.6,158.9,81.6L158.9,81.6z M165.3,73.6c1.6,0,2.8,1.3,2.8,2.8c0,1.6-1.3,2.8-2.8,2.8c-1.6,0-2.8-1.3-2.8-2.8
		C162.5,74.8,163.7,73.6,165.3,73.6L165.3,73.6z M166.8,63.6c1.6,0,2.8,1.3,2.8,2.8c0,1.6-1.3,2.8-2.8,2.8c-1.6,0-2.8-1.3-2.8-2.8
		C164,64.8,165.3,63.6,166.8,63.6L166.8,63.6z M163.6,54.3c1.6,0,2.8,1.3,2.8,2.8c0,1.6-1.3,2.8-2.8,2.8c-1.6,0-2.8-1.3-2.8-2.8
		C160.7,55.6,162,54.3,163.6,54.3L163.6,54.3z M157,46.7c1.6,0,2.8,1.3,2.8,2.8c0,1.6-1.3,2.8-2.8,2.8s-2.8-1.3-2.8-2.8
		C154.2,47.9,155.5,46.7,157,46.7L157,46.7z M148.6,41.3c1.6,0,2.8,1.3,2.8,2.8c0,1.6-1.3,2.8-2.8,2.8c-1.6,0-2.8-1.3-2.8-2.8
		C145.8,42.6,147,41.3,148.6,41.3L148.6,41.3z M138.9,37.4c1.6,0,2.8,1.3,2.8,2.8c0,1.6-1.3,2.8-2.8,2.8c-1.6,0-2.8-1.3-2.8-2.8
		C136.1,38.7,137.4,37.4,138.9,37.4L138.9,37.4z M128.8,34.8c1.6,0,2.8,1.3,2.8,2.8c0,1.6-1.3,2.8-2.8,2.8c-1.6,0-2.8-1.3-2.8-2.8
		C125.9,36.1,127.2,34.8,128.8,34.8L128.8,34.8z M118.3,33.2c1.6,0,2.8,1.3,2.8,2.8c0,1.6-1.3,2.8-2.8,2.8c-1.6,0-2.8-1.3-2.8-2.8
		C115.5,34.5,116.8,33.2,118.3,33.2L118.3,33.2z M107.9,33c1.6,0,2.8,1.3,2.8,2.8c0,1.6-1.3,2.8-2.8,2.8c-1.6,0-2.8-1.3-2.8-2.8
		C105.1,34.3,106.4,33,107.9,33L107.9,33z M97.6,33.5c1.6,0,2.8,1.3,2.8,2.8s-1.3,2.8-2.8,2.8c-1.6,0-2.8-1.3-2.8-2.8
		S96,33.5,97.6,33.5z"/>
	<ellipse class="st5" cx="108.4" cy="68" rx="58.6" ry="32.3"/>
	<path class="st6" d="M43.2,59.2c1.2,0.4,1.9,1.6,2.5,1.7c1.6,0.3,2-2.1,0.5-2.4C45.6,58.5,44.4,59.4,43.2,59.2L43.2,59.2z
		 M41.9,72.6c1.2,0.1,2.2,1.1,2.8,1.2c1.6,0,1.5-2.4,0-2.5C44.1,71.3,43.1,72.5,41.9,72.6L41.9,72.6z M47.5,85.3
		c1.1-0.5,2.5,0,3-0.3c1.4-0.8,0.2-2.8-1.2-2.1C48.9,83.2,48.6,84.7,47.5,85.3L47.5,85.3z M55.8,94.7c0.7-1,0.6-2.4,1-2.9
		c1-1.2,2.8,0.4,1.8,1.6C58.2,93.8,56.6,93.8,55.8,94.7L55.8,94.7z M66.4,100.5c0.5-1.1,0-2.5,0.3-3c0.7-1.4,2.8-0.2,2.2,1.2
		C68.6,99.1,67.1,99.5,66.4,100.5L66.4,100.5z M78.5,104.5c0.2-1.2-0.6-2.5-0.4-3c0.4-1.5,2.7-0.9,2.4,0.6
		C80.2,102.7,78.8,103.4,78.5,104.5L78.5,104.5z M90.1,107.3c0-1.2-0.9-2.3-0.8-2.9c0.2-1.6,2.6-1.2,2.4,0.3
		C91.5,105.2,90.3,106.1,90.1,107.3L90.1,107.3z M102.1,108.1c0-1.2-1-2.3-1-2.9c0.1-1.6,2.5-1.3,2.4,0.2
		C103.5,106,102.2,106.9,102.1,108.1L102.1,108.1z M113.8,108.1c-0.1-1.2-1.2-2.2-1.2-2.8c0-1.6,2.4-1.5,2.4,0
		C115,105.9,113.8,106.9,113.8,108.1L113.8,108.1z M125.9,106.7c0-1.2,0.9-2.3,0.8-2.9c-0.2-1.6-2.6-1.2-2.4,0.3
		C124.4,104.7,125.6,105.6,125.9,106.7L125.9,106.7z M137.2,103.9c-0.2-1.2,0.6-2.5,0.4-3c-0.4-1.5-2.7-0.9-2.4,0.6
		C135.5,102.1,136.9,102.8,137.2,103.9L137.2,103.9z M148.9,100c-0.5-1.1,0-2.5-0.3-3c-0.7-1.4-2.8-0.2-2.2,1.2
		C146.8,98.6,148.3,99,148.9,100L148.9,100z M159.5,93.8c-0.7-1-0.6-2.4-1-2.9c-1-1.2-2.8,0.4-1.8,1.6
		C157.1,92.9,158.6,92.9,159.5,93.8L159.5,93.8z M169.4,84.8c-1.1-0.5-2.5,0-3-0.3c-1.4-0.8-0.2-2.8,1.2-2.1
		C168,82.7,168.4,84.2,169.4,84.8L169.4,84.8z M174.7,72.3c-1.2,0.1-2.2,1.1-2.8,1.2c-1.6,0-1.5-2.4,0-2.5
		C172.5,71,173.5,72.2,174.7,72.3L174.7,72.3z M173.4,59.7c-1.2,0.4-1.9,1.6-2.5,1.7c-1.6,0.3-2-2.1-0.5-2.4
		C171,58.9,172.2,59.8,173.4,59.7L173.4,59.7z M166.6,48.4c-0.9,0.8-1.2,2.2-1.6,2.5c-1.3,0.9-2.6-1.1-1.4-2
		C164,48.6,165.5,49,166.6,48.4L166.6,48.4z M157.4,40.4c-0.7,1-0.6,2.4-1,2.9c-1,1.2-2.8-0.4-1.8-1.6
		C155,41.3,156.6,41.3,157.4,40.4L157.4,40.4z M147.6,34.5c-0.5,1.1,0,2.5-0.3,3c-0.7,1.4-2.8,0.2-2.2-1.2
		C145.5,35.9,147,35.5,147.6,34.5L147.6,34.5z M136.5,30.9c-0.2,1.2,0.6,2.5,0.4,3c-0.4,1.5-2.7,0.9-2.4-0.6
		C134.7,32.7,136.1,32,136.5,30.9L136.5,30.9z M125.3,28.5c0,1.2,0.9,2.3,0.8,2.9c-0.2,1.6-2.6,1.2-2.4-0.3
		C123.8,30.5,125.1,29.7,125.3,28.5L125.3,28.5z M113.3,27.6c-0.1,1.2-1.2,2.2-1.2,2.8c0,1.6,2.4,1.5,2.4,0
		C114.5,29.8,113.3,28.8,113.3,27.6L113.3,27.6z M101.9,27.7c0,1.2-1,2.3-1,2.9c0.1,1.6,2.5,1.3,2.4-0.2
		C103.3,29.8,102.1,28.9,101.9,27.7L101.9,27.7z M91.3,28.5c0,1.2-0.9,2.3-0.8,2.9c0.2,1.6,2.6,1.2,2.4-0.3
		C92.8,30.5,91.6,29.7,91.3,28.5L91.3,28.5z M80.1,30.9c0.2,1.2-0.6,2.5-0.4,3c0.4,1.5,2.7,0.9,2.4-0.6C81.9,32.7,80.5,32,80.1,30.9
		L80.1,30.9z M69.2,34.4c0.5,1.1,0,2.5,0.3,3c0.7,1.4,2.8,0.2,2.2-1.2C71.3,35.7,69.9,35.4,69.2,34.4L69.2,34.4z M59.2,40.4
		c0.7,1,0.6,2.4,1,2.9c1,1.2,2.8-0.4,1.8-1.6C61.6,41.3,60.1,41.3,59.2,40.4L59.2,40.4z M50.1,48.1c0.9,0.8,1.2,2.2,1.6,2.5
		c1.3,0.9,2.6-1.1,1.4-2C52.6,48.3,51.1,48.7,50.1,48.1z"/>
	<ellipse class="st7" cx="108.4" cy="68" rx="54.8" ry="28.8"/>
	<path class="st8" d="M130.4,86.4c12.3-4.9,21.1-10.2,23.6-16.3c0.2-0.3,0.5-1.2,0-2.7c-1.1-3.4-3-6.2-6.4-9.1
		c-0.1-0.1-1.6-1.5-1.7-1.4c-0.1,0,1.4,11.2,1.4,11.8c0,2.3-0.9,4.9-4.7,5.9c-1.6,0.4-3.4,0.2-5-0.2c-5-1-2.8-4.1-3-6.4
		c-10.2,0-34.3,13.4-45.6-1.2c-0.3-0.1-0.6-0.2-0.8-0.3c-2.6,4.4-7.5,3-8.7-3c-0.2-0.8-1.5-0.9-1.8-0.3c-2.5,4.3-11.4,9.6-10.7,11.1
		c0.8,1.7,3.8,1.9,6,2c24.5,1.4,48.5-0.7,69.7,0c-0.9,1.5-4.7,2.7-11.4,3.4c-19.4,0.3-38.9,0.6-58.7,0.2c-4.5-0.2-9.6-0.8-9.9-5.4
		c-0.2-3,4.8-5.7,8.3-8.2c2.6-1.8,5.9-6.7,6.7-6.9c0.6-0.2,1.5-0.4,2.2,0c2.3,1.9-0.5,6.7,8.2,5.7c0-5.1-0.6-10.2-2.2-15.3
		c0.3-1.6,0.7-3.1,1-4.7c3.8,4.8,2.7,12.8,4.5,18.6c4.1,7.7,19.7,6.3,39.9,1.5c-3.6-2-7.7-5-9.6-3c-1.6-0.7-3.1-1.3-4.7-2
		c1-1,1.9-2.2,3-3c1.3-1,2.7-0.6,4.2,0c6.7,2.8,13.8,7.8,18.1,8.1c-0.4,0.9-0.9,1.8-1.3,2.7c-1.5,0-2.9,0-4.4,0
		c-0.5,3.8,3.2,3.7,8,2.5c-0.7-6.9-1.8-13-3.4-18.6c0.4-1,0.9-2,1.3-3c5.5,4.6,10.2,8.3,12.1,12.4c1.8,3.9,2.3,8.2-1.7,15.3
		C148.9,83.7,140.6,86.2,130.4,86.4z"/>
	<path class="st8" d="M94.9,59.4c0.8-1.5,1.2-3.3,3.9-3.9c11.6-3.3,23.2-6.7,34.8-10c1.2-0.2,1.7,0.2,1.5,1.2
		c-0.9,1.3-2.2,2.1-4,2.5C119.1,52.6,107,56,94.9,59.4z"/>
	<path class="st8" d="M81.8,48.9c1.5-1,2.8,0.6,1.4,2.1c-0.4,0.4-0.2,2.5-0.6,3.2c-1,1.8-1.5,1.7-1.7,0c-1.1-1.2-3.8-0.7-4.3-2.2
		c-0.5-1.4,0.4-1.8,1.7-1.9c0.5,0,2.2,2.3,3.1,1.9C81.9,51.9,81.4,49.2,81.8,48.9z"/>
	<path class="st8" d="M65.3,59.1c0.8-2.2,2.2-3.7,4.5-4.1c1.6-0.2,3.1-0.3,4.2,0c1.1,0.3,1.5,0.7,1.4,1.2c-0.6,4.8-4.4,6.1-9.5,5.5
		c4.8-1.5,8.6-4.3,4.4-4.3C69.1,57.4,66.6,58.9,65.3,59.1z"/>
	<path class="st8" d="M98.2,47.6c1.3-3.6,4.1-5,7.6-4.1c1.1,0.2,1.5,0.7,1.4,1.2c-0.6,4.8-4.4,6.1-9.5,5.5c4.4-1.2,8.6-3.6,4.1-3.8
		C100.5,46.3,99.5,47.4,98.2,47.6z"/>
	<path class="st8" d="M61.5,61.8c-0.4,2.2-1.3,5.8,0.2,5.7c0.7,0,1.3-1.3,1.9-1.7c0.2,1.5,0.1,2.9-1.9,4.4C60,71,59,70.5,58.7,68.6
		C58.5,66.4,59.9,64.1,61.5,61.8z"/>
	<polygon class="st8" points="77.7,69.1 81.1,71.1 79.1,74.4 75.8,72.5 	"/>
	<polygon class="st8" points="81.9,83.5 85,86 82.5,89 79.5,86.5 	"/>
	<polygon class="st8" points="87.8,82.9 90.8,85.4 88.3,88.4 85.3,85.9 	"/>
	<path class="st8" d="M90.1,70.2c-3.4,2-7.3,2.9-6.7,4.6C87.7,72.8,89.4,71.4,90.1,70.2z"/>
	<path class="st8" d="M98.1,83.5c2.3,1.6,2.5,4.6,1.7,8.3c-0.5-3.1-1.1-5.2-2-6.4C97.9,84.7,98,84.1,98.1,83.5z"/>
	<path class="st8" d="M110.2,82.9c-0.9-0.1-1.2,2.2-1.9,3.2c-0.3,0.5-0.8,0.5-1.2,0c-0.5-0.7-0.9-1.3-1.8-1.3
		c-0.9,0-1.3,0.5-1.4,1.4c-0.1,0.7,0.6,1,1.6,1c1.4,0.8,2.1,1.7,2.2,2.5c0.1,0.9,0.5,0.9,0.7,0c0.8-3.5,1.6-5.7,2.5-4.9
		C111.9,83.5,111.6,83.1,110.2,82.9z"/>
	<path class="st8" d="M112.6,58.4c-0.9-0.1-1.2,2.1-1.9,3.2c-0.3,0.5-0.7,0.5-1.2,0c-0.4-0.8-0.9-1.3-1.8-1.3
		c-0.9,0-1.3,0.5-1.4,1.4c-0.1,0.7,0.6,1,1.6,1c1.4,0.8,2.1,1.7,2.2,2.5c0.2,0,0.5,0,0.7,0c0.8-3.5,1.6-5.7,2.5-4.9
		C114.3,59,114,58.6,112.6,58.4z"/>
	<path class="st8" d="M136.9,50.6c-0.9-0.1-1.2,2.1-1.9,3.2c-0.3,0.5-0.7,0.5-1.2,0c-0.4-0.8-0.9-1.3-1.8-1.3
		c-0.9,0-1.3,0.5-1.4,1.4c-0.1,0.7,0.6,1,1.6,1c1.4,0.8,2.1,1.7,2.2,2.5c0.2,0,0.5,0,0.7,0c0.8-3.5,1.6-5.7,2.5-4.9
		C138.5,51.3,138.3,50.8,136.9,50.6z"/>
	<path class="st8" d="M114.6,85.4c-0.2-1.4,2.3-3.2,4.4-2.2c0.8,0.4,0,1.1-0.5,2.1c-0.7,1.3,0.2,2.5,1.6,2.1c2-0.4,4-2.1,5.7-3.2
		c-1.6,2.5-3.9,4.7-7.8,5.4c-0.7,0.1-1.6-0.6-1.4-1.6c0.2-1.2,1.2-2.9,1.2-3.8C117.1,83.8,114.9,85.7,114.6,85.4z"/>
	<path class="st8" d="M113.4,44.5c-1,0.3-1.8,1.1-2.4,2.7c-0.1,0.6-0.3,1.4,1.5,1.9c0.6,0.2,1.3,0,1.9-0.3c1.3-0.5,1.3-1.5,1-2.7
		C115.3,45.1,114.9,44,113.4,44.5L113.4,44.5z M112.5,47.2c-0.3-2.2,3.3-0.9,1.3,0.3C113.4,47.8,112.6,47.9,112.5,47.2z"/>
</g>
</svg>
