<?xml version="1.0" encoding="utf-8"?>
<!-- Generator: Adobe Illustrator 24.0.2, SVG Export Plug-In . SVG Version: 6.00 Build 0)  -->
<svg version="1.1" id="Layer_1" xmlns="http://www.w3.org/2000/svg" xmlns:xlink="http://www.w3.org/1999/xlink" x="0px" y="0px"
	 viewBox="0 0 211 133" style="enable-background:new 0 0 211 133;" xml:space="preserve">
<style type="text/css">
	.st0{fill-rule:evenodd;clip-rule:evenodd;fill:#E2DBC9;}
	.st1{fill-rule:evenodd;clip-rule:evenodd;fill:#D1AD6D;}
</style>
<polygon class="st0" points="142.2,77.1 118.7,82.6 142.2,93.8 "/>
<polygon class="st1" points="142.2,76.4 142.2,76.1 68.4,93.3 68.4,93.6 68.4,93.9 142.2,76.7 "/>
<path class="st1" d="M139.5,20.4H71.1c-1.5,0-2.7,1.2-2.7,2.7v35.6l48.2,22.9l25.7-6.1V23.1C142.2,21.6,141,20.4,139.5,20.4z"/>
<path class="st0" d="M72.9,112.1C72.9,112.1,72.9,112.1,72.9,112.1c-0.1-0.1-0.1-0.1-0.1-0.1c0,0,0-0.1,0-0.1l-0.2-0.5h-0.9
	l-0.3,0.8h-0.4c0,0,0-0.1,0-0.1c0,0,0-0.1,0-0.1c0,0,0-0.1,0-0.1l0.8-2.3h0.3c0,0,0,0.1,0.1,0.1c0,0.1,0.1,0.1,0.1,0.2l0.8,2.3H72.9
	L72.9,112.1z M72.3,110.3c0,0,0-0.1,0-0.1c0,0,0-0.1,0-0.1c0,0,0-0.1,0-0.1c0,0,0-0.1,0-0.1l-0.1,0.4l-0.2,0.7h0.7L72.3,110.3z"/>
<path class="st0" d="M73.7,112.2c0,0,0-0.1-0.1-0.1c0,0,0-0.1,0-0.1c0,0,0-0.1,0-0.2v-2.3l0.4-0.1c0,0,0,0.1,0,0.1c0,0,0,0.1,0,0.1
	c0,0,0,0.1,0,0.1v2.2l0.1,0.2L73.7,112.2z"/>
<path class="st0" d="M77.6,112.1C77.6,112.1,77.6,112.1,77.6,112.1c0-0.2,0-0.2-0.1-0.4l-0.1-1.1c0,0,0-0.1,0-0.1c0-0.1,0-0.1,0-0.1
	c0,0,0-0.1,0-0.1c0,0,0-0.1,0-0.1c0,0,0,0,0,0.1c0,0,0,0.1,0,0.1c0,0,0,0.1,0,0.1c0,0,0,0.1-0.1,0.1l-0.4,1.2h-0.3c0,0,0,0-0.1-0.1
	c0,0,0-0.1,0-0.1c0,0,0-0.1,0-0.1l-0.3-0.9c0,0,0-0.1,0-0.1c0,0,0-0.1,0-0.1c0,0,0-0.1,0-0.1c0,0,0-0.1,0-0.1l-0.1,0.4l-0.2,1.5
	h-0.3c0,0,0-0.1,0-0.1c0,0,0-0.1,0-0.1c0,0,0-0.1,0-0.1l0.3-2.3h0.3c0,0,0,0.1,0.1,0.1c0,0,0,0.1,0.1,0.1c0,0,0,0.1,0.1,0.1l0.4,1.1
	c0,0,0,0.1,0,0.1c0,0.1,0,0.1,0,0.2c0,0.1,0,0.1,0.1,0.2c0-0.1,0-0.1,0.1-0.2c0-0.1,0-0.1,0-0.2c0-0.1,0-0.1,0-0.1l0.5-1.4h0.3
	c0,0,0,0.1,0,0.1c0,0,0,0.1,0,0.1c0,0,0,0.1,0,0.1l0.3,2.3H77.6z"/>
<path class="st0" d="M79.6,112.2C79.6,112.1,79.6,112.1,79.6,112.2c-0.1-0.1-0.1-0.1-0.1-0.2c0,0,0-0.1,0-0.1c0,0-0.1,0.1-0.1,0.1
	c0,0-0.1,0.1-0.1,0.1c0,0-0.1,0.1-0.1,0.1c-0.1,0-0.1,0-0.2,0c-0.2,0-0.3-0.1-0.4-0.2c-0.1-0.1-0.2-0.2-0.2-0.4c0-0.1,0-0.2,0.1-0.3
	c0-0.1,0.1-0.1,0.2-0.2c0.1-0.1,0.2-0.1,0.3-0.1c0.1,0,0.2,0,0.3,0c0,0,0.1,0,0.1,0c0,0,0.1,0,0.1,0v-0.2c0-0.1,0-0.2-0.1-0.2
	c0,0-0.1-0.1-0.2-0.1c-0.1,0-0.2,0-0.3,0.1c-0.1,0-0.2,0.1-0.3,0.1l-0.1-0.2c0.2-0.1,0.3-0.1,0.4-0.2c0.1,0,0.3-0.1,0.4-0.1
	c0.2,0,0.3,0,0.4,0.1c0.1,0.1,0.2,0.2,0.2,0.3v1.2L80,112L79.6,112.2L79.6,112.2z M79.5,111.2c0,0-0.1,0-0.1,0c0,0-0.1,0-0.1,0
	c-0.2,0-0.3,0-0.4,0.1c-0.1,0.1-0.1,0.2-0.1,0.3c0,0.1,0,0.1,0.1,0.2c0,0.1,0.1,0.1,0.2,0.1c0.1,0,0.2,0,0.2-0.1
	c0.1-0.1,0.1-0.1,0.2-0.2V111.2z"/>
<path class="st0" d="M81.5,111.6c0,0.2-0.1,0.3-0.2,0.4c-0.1,0.1-0.3,0.1-0.5,0.1c-0.1,0-0.2,0-0.3-0.1c-0.1,0-0.2-0.1-0.3-0.1
	l0.1-0.3c0.1,0.1,0.2,0.1,0.3,0.1c0.1,0,0.2,0.1,0.2,0.1c0.1,0,0.1,0,0.2-0.1c0,0,0.1-0.1,0.1-0.2c0,0,0-0.1,0-0.1
	c0,0-0.1-0.1-0.1-0.1c-0.1-0.1-0.2-0.1-0.2-0.2c-0.1-0.1-0.2-0.1-0.3-0.2c-0.1,0-0.1-0.1-0.1-0.1c0-0.1-0.1-0.1-0.1-0.2
	c0-0.1,0-0.1,0-0.2c0-0.1,0.1-0.1,0.1-0.2c0.1,0,0.1-0.1,0.2-0.1c0.1,0,0.2,0,0.2,0c0.1,0,0.2,0,0.3,0c0.1,0,0.2,0,0.2,0.1l-0.1,0.3
	c-0.1,0-0.1-0.1-0.2-0.1c-0.1,0-0.1,0-0.2,0c-0.1,0-0.1,0-0.2,0.1c0,0-0.1,0.1-0.1,0.1c0,0,0,0.1,0,0.1c0,0,0.1,0.1,0.1,0.1
	c0.1,0,0.2,0.1,0.2,0.2c0.1,0.1,0.2,0.1,0.3,0.2C81.5,111.3,81.5,111.5,81.5,111.6z"/>
<path class="st0" d="M83.1,112.1c0,0,0-0.1,0-0.1c0,0,0-0.1,0-0.1c0,0,0-0.1,0-0.1v-1c0,0,0-0.1,0-0.1c0,0,0-0.1,0-0.1
	c0,0,0,0-0.1-0.1c0,0-0.1,0-0.1,0c0,0-0.1,0-0.1,0c0,0-0.1,0-0.1,0.1c0,0-0.1,0.1-0.1,0.1c0,0-0.1,0.1-0.1,0.1v1.3h-0.4
	c0,0,0-0.1,0-0.1c0-0.1,0-0.1,0-0.2v-2.3l0.4-0.1c0,0,0,0.1,0,0.1c0,0,0,0.1,0,0.1c0,0,0,0.1,0,0.1v0.9c0.1-0.1,0.2-0.2,0.3-0.2
	c0.1-0.1,0.2-0.1,0.3-0.1c0.1,0,0.1,0,0.2,0c0.1,0,0.1,0.1,0.1,0.1c0,0.1,0.1,0.1,0.1,0.2c0,0.1,0,0.1,0,0.2v1.3H83.1z"/>
<path class="st0" d="M85,110.7c0,0-0.1-0.1-0.1-0.1c0,0-0.1,0-0.1,0c-0.1,0-0.1,0-0.2,0.1c-0.1,0.1-0.1,0.1-0.2,0.2v1.3H84
	c0,0,0-0.1,0-0.1c0,0,0-0.1,0-0.1c0,0,0-0.1,0-0.1v-1.2l-0.1-0.3l0.4-0.1c0,0,0,0.1,0,0.1c0,0,0,0.1,0,0.1c0,0,0,0.1,0,0.1
	c0.1-0.1,0.2-0.2,0.2-0.2c0.1-0.1,0.2-0.1,0.2-0.1c0.1,0,0.1,0,0.2,0c0.1,0,0.1,0,0.1,0.1L85,110.7z"/>
<path class="st0" d="M85.4,109.5h0.4v0.4h-0.4V109.5L85.4,109.5z M85.4,112.1c0,0,0-0.1,0-0.1c0,0,0-0.1,0-0.1c0,0,0-0.1,0-0.1v-1.5
	l0.4-0.1v1.9H85.4z"/>
<path class="st0" d="M91,112.1C91,112.1,91,112.1,91,112.1C91,112,91,112,90.9,112c0,0,0-0.1,0-0.1l-0.2-0.5h-0.9l-0.3,0.8h-0.4
	c0,0,0-0.1,0-0.1c0,0,0-0.1,0-0.1c0,0,0-0.1,0-0.1l0.8-2.3h0.3c0,0,0,0.1,0.1,0.1c0,0.1,0.1,0.1,0.1,0.2l0.8,2.3H91L91,112.1z
	 M90.4,110.3c0,0,0-0.1,0-0.1c0,0,0-0.1,0-0.1c0,0,0-0.1,0-0.1c0,0,0-0.1,0-0.1l-0.1,0.4l-0.2,0.7h0.7L90.4,110.3z"/>
<path class="st0" d="M91.9,112.2c0,0,0-0.1-0.1-0.1c0,0,0-0.1,0-0.1c0,0,0-0.1,0-0.2v-2.3l0.4-0.1c0,0,0,0.1,0,0.1c0,0,0,0.1,0,0.1
	c0,0,0,0.1,0,0.1v2.2l0.1,0.2L91.9,112.2z"/>
<path class="st0" d="M95.9,110.8c0,0.2,0,0.4-0.1,0.6c-0.1,0.2-0.2,0.3-0.3,0.4c-0.1,0.1-0.2,0.2-0.4,0.3c-0.1,0.1-0.3,0.1-0.4,0.1
	c-0.2,0-0.3,0-0.5-0.1c-0.1-0.1-0.3-0.2-0.4-0.3c-0.1-0.1-0.2-0.3-0.2-0.4c-0.1-0.2-0.1-0.4-0.1-0.6c0-0.2,0-0.4,0.1-0.6
	c0.1-0.2,0.2-0.3,0.3-0.4c0.1-0.1,0.2-0.2,0.4-0.3c0.1-0.1,0.3-0.1,0.4-0.1c0.2,0,0.4,0,0.5,0.1c0.1,0.1,0.3,0.2,0.4,0.3
	c0.1,0.1,0.2,0.3,0.2,0.4C95.9,110.4,95.9,110.6,95.9,110.8L95.9,110.8z M95.5,110.8c0-0.1,0-0.3,0-0.4c0-0.1-0.1-0.2-0.1-0.3
	c-0.1-0.1-0.1-0.2-0.2-0.2c-0.1-0.1-0.2-0.1-0.3-0.1c-0.1,0-0.2,0-0.3,0.1c-0.1,0-0.2,0.1-0.2,0.2c-0.1,0.1-0.1,0.2-0.2,0.3
	c0,0.1-0.1,0.3-0.1,0.4c0,0.1,0,0.3,0,0.4c0,0.1,0.1,0.2,0.1,0.3c0.1,0.1,0.1,0.2,0.2,0.2c0.1,0.1,0.2,0.1,0.3,0.1
	c0.1,0,0.2,0,0.3-0.1c0.1-0.1,0.2-0.1,0.2-0.2c0.1-0.1,0.1-0.2,0.2-0.3C95.5,111.1,95.5,110.9,95.5,110.8z"/>
<path class="st0" d="M97.7,112.2C97.6,112.1,97.6,112.1,97.7,112.2c-0.1-0.1-0.1-0.1-0.1-0.2c0,0,0-0.1,0-0.1
	c-0.1,0.1-0.2,0.1-0.2,0.2c-0.1,0.1-0.2,0.1-0.3,0.1c-0.4,0-0.5-0.2-0.5-0.6v-1.3l0.4-0.1v1.3c0,0.1,0,0.2,0.1,0.3
	c0,0.1,0.1,0.1,0.2,0.1c0.1,0,0.2,0,0.2-0.1c0.1-0.1,0.1-0.1,0.2-0.2v-1.3l0.4-0.1v1.6L98,112L97.7,112.2z"/>
<path class="st0" d="M98.6,112.2c0,0,0-0.1-0.1-0.1c0,0,0-0.1,0-0.1c0,0,0-0.1,0-0.2v-2.3l0.4-0.1c0,0,0,0.1,0,0.1c0,0,0,0.1,0,0.1
	c0,0,0,0.1,0,0.1v2.2l0.1,0.2L98.6,112.2z"/>
<path class="st0" d="M100.5,112.2C100.5,112.1,100.4,112.1,100.5,112.2c-0.1-0.1-0.1-0.1-0.1-0.2c0,0,0-0.1,0-0.1
	c0,0-0.1,0.1-0.1,0.1c0,0-0.1,0.1-0.1,0.1c0,0-0.1,0.1-0.1,0.1c-0.1,0-0.1,0-0.2,0c-0.2,0-0.3-0.1-0.4-0.2c-0.1-0.1-0.2-0.2-0.2-0.4
	c0-0.1,0-0.2,0.1-0.3c0-0.1,0.1-0.1,0.2-0.2c0.1-0.1,0.2-0.1,0.3-0.1c0.1,0,0.2,0,0.3,0c0,0,0.1,0,0.1,0c0,0,0.1,0,0.1,0v-0.2
	c0-0.1,0-0.2-0.1-0.2c0,0-0.1-0.1-0.2-0.1c-0.1,0-0.2,0-0.3,0.1c-0.1,0-0.2,0.1-0.3,0.1l-0.1-0.2c0.2-0.1,0.3-0.1,0.4-0.2
	c0.1,0,0.3-0.1,0.4-0.1c0.2,0,0.3,0,0.4,0.1c0.1,0.1,0.2,0.2,0.2,0.3v1.2l0.1,0.2L100.5,112.2L100.5,112.2z M100.4,111.2
	c0,0-0.1,0-0.1,0c0,0-0.1,0-0.1,0c-0.2,0-0.3,0-0.4,0.1c-0.1,0.1-0.1,0.2-0.1,0.3c0,0.1,0,0.1,0.1,0.2c0,0.1,0.1,0.1,0.2,0.1
	c0.1,0,0.2,0,0.2-0.1c0.1-0.1,0.1-0.1,0.2-0.2V111.2z"/>
<path class="st0" d="M87.5,112.2C87.5,112.1,87.5,112.1,87.5,112.2c-0.1-0.1-0.1-0.1-0.1-0.2c0,0,0-0.1,0-0.1c0,0-0.1,0.1-0.1,0.1
	c0,0-0.1,0.1-0.1,0.1c0,0-0.1,0.1-0.1,0.1c-0.1,0-0.1,0-0.2,0c-0.2,0-0.3-0.1-0.4-0.2c-0.1-0.1-0.2-0.2-0.2-0.4c0-0.1,0-0.2,0.1-0.3
	c0-0.1,0.1-0.1,0.2-0.2c0.1-0.1,0.2-0.1,0.3-0.1c0.1,0,0.2,0,0.3,0c0,0,0.1,0,0.1,0c0,0,0.1,0,0.1,0v-0.2c0-0.1,0-0.2-0.1-0.2
	c0,0-0.1-0.1-0.2-0.1c-0.1,0-0.2,0-0.3,0.1c-0.1,0-0.2,0.1-0.3,0.1l-0.1-0.2c0.2-0.1,0.3-0.1,0.4-0.2c0.1,0,0.3-0.1,0.4-0.1
	c0.2,0,0.3,0,0.4,0.1c0.1,0.1,0.2,0.2,0.2,0.3v1.2l0.1,0.2L87.5,112.2L87.5,112.2z M87.4,111.2c0,0-0.1,0-0.1,0c0,0-0.1,0-0.1,0
	c-0.2,0-0.3,0-0.4,0.1c-0.1,0.1-0.1,0.2-0.1,0.3c0,0.1,0,0.1,0.1,0.2c0,0.1,0.1,0.1,0.2,0.1c0.1,0,0.2,0,0.2-0.1
	c0.1-0.1,0.1-0.1,0.2-0.2V111.2z"/>
<path class="st0" d="M130.2,106.1c0.2,0.1,0.5,0.2,0.9,0.2c1.2,0,2.3-1,2.3-2.2c0-1.2-1.1-2.3-2.3-2.3c-1.2,0-2.3,1-2.3,2.3v3.5h-4
	v-1.3h2.6V104c0-2.1,1.8-3.6,3.7-3.6c2,0,3.7,1.5,3.7,3.6c0,2-1.7,3.5-3.7,3.5c-0.3,0-0.6-0.1-0.8-0.2V106.1z"/>
<polygon class="st0" points="109.6,104.7 104.3,104.7 104.3,103.4 108.2,103.4 108.2,98 110.5,98 110.5,99.3 109.6,99.3 "/>
<polygon class="st0" points="112.2,107.6 108.3,107.6 108.3,106.3 110.8,106.3 110.8,100.5 113.1,100.5 113.1,101.8 112.2,101.8 "/>
<rect x="99.5" y="103.4" class="st0" width="5.2" height="1.3"/>
<rect x="99.5" y="106.3" class="st0" width="3.1" height="1.3"/>
<rect x="113.9" y="106.3" class="st0" width="10.8" height="1.3"/>
<rect x="99.5" y="104.3" class="st0" width="1.3" height="3.2"/>
<path class="st1" d="M124.5,97.6c0.5,0,0.9,0.4,0.9,0.9c0,0.5-0.4,0.9-0.9,0.9c-0.5,0-0.9-0.4-0.9-0.9C123.6,98,124,97.6,124.5,97.6
	z"/>
<path class="st1" d="M121.4,97.6c0.5,0,0.9,0.4,0.9,0.9c0,0.5-0.4,0.9-0.9,0.9c-0.5,0-0.9-0.4-0.9-0.9
	C120.5,98,120.9,97.6,121.4,97.6z"/>
<path class="st1" d="M118.3,97.6c0.5,0,0.9,0.4,0.9,0.9c0,0.5-0.4,0.9-0.9,0.9c-0.5,0-0.9-0.4-0.9-0.9
	C117.5,98,117.8,97.6,118.3,97.6z"/>
<path class="st0" d="M106.5,105.8c0.5,0,0.9,0.4,0.9,0.9c0,0.5-0.4,0.9-0.9,0.9c-0.5,0-0.9-0.4-0.9-0.9
	C105.7,106.2,106,105.8,106.5,105.8z"/>
<path class="st0" d="M104.3,105.8c0.5,0,0.9,0.4,0.9,0.9c0,0.5-0.4,0.9-0.9,0.9c-0.5,0-0.9-0.4-0.9-0.9
	C103.5,106.2,103.8,105.8,104.3,105.8z"/>
<polygon class="st0" points="138.4,107.6 130.7,107.6 130.7,106.3 136.9,106.3 136.9,97.7 139.3,97.7 139.3,98.9 138.4,98.9 "/>
<polygon class="st0" points="140.2,107.6 140.2,97.7 142.5,97.7 142.5,98.9 141.6,98.9 141.6,107.6 "/>
<polygon class="st0" points="114,107.6 114,97.7 116.3,97.7 116.3,98.9 115.4,98.9 115.4,107.6 "/>
<polygon class="st0" points="123.6,107.6 123.6,100.5 125.9,100.5 125.9,101.8 125,101.8 125,107.6 "/>
<polygon class="st0" points="120.5,107.6 120.5,100.5 122.9,100.5 122.9,101.8 121.9,101.8 121.9,107.6 "/>
<polygon class="st0" points="117.5,107.6 117.5,100.5 119.8,100.5 119.8,101.8 118.9,101.8 118.9,107.6 "/>
<path class="st0" d="M104.3,98.9c0.8,0,1.4,0.3,1.8,0.9c0.2-0.2,0.5-0.4,1-0.7v-1.3h-1.2v0.4c-0.2-0.4-1.1-0.6-1.6-0.6
	c-2,0-3.7,1.5-3.7,3.5c0,1.9,1.5,3.3,3.3,3.5v0h2.4v-1.3h-2v0c-1.3,0-2.3-1-2.3-2.2C101.9,99.9,103,98.9,104.3,98.9z"/>
<polygon class="st0" points="94.5,107.6 89.2,107.6 89.2,106.3 93.1,106.3 93.1,97.7 95.4,97.7 95.4,98.9 94.5,98.9 "/>
<polygon class="st0" points="80.8,107.6 77.3,107.6 77.3,106.3 79.4,106.3 79.4,97.7 81.7,97.7 81.7,98.9 80.8,98.9 "/>
<path class="st0" d="M84.3,107.6c3.1-4.6,3.3-4.9,3.4-5.1c0.2-0.4,0.4-0.9,0.4-1.2c0-1.3-1.1-2.4-2.3-2.4c-1.3,0-2.3,1.1-2.3,2.4
	c0,1.1,0.9,2,2,2.2l-0.9,1.3c-1.6-0.6-2.5-1.9-2.5-3.5c0-2.1,1.6-3.7,3.8-3.7c2.1,0,3.7,1.6,3.7,3.7c0,0.8-0.3,1.6-1,2.7l-2.5,3.6
	H84.3z"/>
<rect x="76.7" y="103" class="st0" width="1.4" height="4.6"/>
<rect x="74" y="103" class="st0" width="1.4" height="4.6"/>
<rect x="74.7" y="103" class="st0" width="3.2" height="1.4"/>
<rect x="72.9" y="106.3" class="st0" width="2.3" height="1.3"/>
<polygon class="st0" points="90.7,105.4 90.7,98.9 89.8,98.9 89.8,97.7 92.1,97.7 92.1,105.4 "/>
<polygon class="st0" points="96.3,107.6 96.3,97.7 98.7,97.7 98.7,98.9 97.7,98.9 97.7,107.6 "/>
<path class="st0" d="M73.2,106.3c-2,0-3.6-1.8-3.6-3.8c0-2,1.6-3.7,3.6-3.7c1.1,0,2,0.4,2.7,1.3l0.9-0.8v-1.6h-1.3v0.2
	c0,0.1,0,0.3,0,0.3c-0.5-0.5-1.6-0.7-2.3-0.7c-2.7,0-5.1,2.2-5.1,5c0,2.8,2.3,5.1,5.1,5.1L73.2,106.3
	C73.2,106.3,73.2,106.3,73.2,106.3z"/>
</svg>
