<?xml version="1.0" encoding="utf-8"?>
<!-- Generator: Adobe Illustrator 24.0.2, SVG Export Plug-In . SVG Version: 6.00 Build 0)  -->
<svg version="1.1" id="Layer_1" xmlns="http://www.w3.org/2000/svg" xmlns:xlink="http://www.w3.org/1999/xlink" x="0px" y="0px"
	 viewBox="0 0 211 133" style="enable-background:new 0 0 211 133;" xml:space="preserve">
<style type="text/css">
	.st0{fill-rule:evenodd;clip-rule:evenodd;fill:#303C7A;}
</style>
<path class="st0" d="M126.6,22.7l0.3,1.1L127,24l0.1,0.2l0.1,0.2l0.1,0.2l0.1,0.2l0.1,0.3l0.1,0.3l0.1,0.3l0.1,0.3l0.1,0.3l0.1,0.3
	l0.2,0.3l0.1,0.3l0.1,0.3l0.1,0.4l0.1,0.4l0.1,0.4l0.1,0.4l0.1,0.4l0.1,0.4l0.1,0.4l0.1,0.4l0,0.5l0,0.5l0,0.5l0,0.5l-0.1,0.5
	l-0.1,0.5l-0.1,0.5l-0.1,0.5l-0.2,0.6l-0.1,0.3l-0.2,0.3l-0.2,0.3l-0.2,0.3L128,37l-0.3,0.3l-0.3,0.3l-0.3,0.3l-0.3,0.2l-0.3,0.2
	l-0.3,0.2l-0.4,0.2l-0.4,0.2l-0.4,0.2l-0.4,0.2l-0.4,0.2l-0.4,0.2l-0.4,0.2l-0.4,0.2l-0.4,0.2l-0.4,0.2l-0.4,0.2l-0.4,0.2l-0.4,0.2
	l-0.4,0.2l-0.4,0.2l-0.4,0.2l-0.3,0.2l-0.3,0.2L119,42l-0.3,0.2l-0.3,0.2l-0.1,0.1l-0.2,0.1l-0.2,0.1l-0.2,0.1l-0.2,0.1l-0.2,0.1
	l-0.2,0.1L117,43l-0.2,0.1l-0.2,0.1l-0.2,0.1l-0.2,0.1l-0.2,0.1l-0.2,0.1l-0.2,0.1l-0.2,0.1l-0.2,0.1l-0.2,0.1l-0.2,0.1l-0.2,0.1
	l-0.1,0.1l-0.1,0.1l-0.1,0.1l-0.1,0.1l-0.1,0.1l0,0.1l0,0.1l0,0.1l0,0.1l0,0.1l0,0.1l0,0.1l0.1,0.2l0.1,0.1l0.1,0.1l0.1,0.1l0.1,0.1
	l0.1,0.1l0.1,0.1l0.1,0.1l0.1,0l0.2,0l0.2,0l0.2,0l0.2,0l0.2,0l0.2,0l0.2,0l0.3,0l0.3,0l0.3,0l0.3,0l0.3-0.1l0.3-0.1l0.3-0.1
	l0.3-0.1l0.3-0.1l0.3-0.1l0.3-0.1l0.3-0.1l0.3-0.1l0.3,0l0.3,0l0.3,0l0.3,0l0.2,0l0.3,0l0.3-0.1l0.3-0.1l0.3-0.1l0.3-0.1l0.3-0.1
	l0.3-0.1L124,45l0.4-0.1l0.4-0.1l0.4-0.1l0.4-0.1l0.4-0.1l0.4,0l0.4,0l0.4,0l0.4,0l0.4,0l0.4,0l0.4,0l0.4,0.1l0.4,0.1l0.4,0.1
	l0.4,0.1l0.4,0.1l0.4,0.2l0.4,0.2l0.4,0.2l0.4,0.3l0.4,0.3l0.4,0.3l0.3,0.3l0.3,0.3l0.3,0.3l0.3,0.3l0.2,0.3l0.2,0.3l0.2,0.4
	l0.2,0.4l0.2,0.4l0.1,0.4l0.1,0.4l0.1,0.4l0.1,0.4l0.1,0.4l0.1,0.4L136,52l0.1,0.3l0.1,0.3l0.1,0.3l0,0.3l0,0.3l0,0.3l0,0.3l0.1,0.3
	l0.1,0.3l0.1,0.3l0.1,0.3l0.1,0.3l0.1,0.3l0.1,0.3l0.4,1.1l-1,0.7l-0.2,0.2l-0.2,0.2l-0.2,0.2l-0.2,0.2l-0.2,0.2l-0.2,0.2l-0.2,0.2
	l-0.2,0.2l-0.2,0.2l-0.2,0.2l-0.2,0.2l-0.2,0.2l-0.2,0.2l-0.3,0.2l-0.3,0.2l-0.3,0.2l-0.3,0.2l-0.3,0.2l-0.3,0.2l-0.4,0.2l-0.4,0.2
	l-0.4,0.2l-0.4,0.1l-0.4,0.1l-0.5,0.1l-0.5,0.1l-0.5,0.1l-0.5,0l-0.6,0l-0.6,0l-0.6,0l-0.4,0l-0.4-0.1l-0.4-0.1l-0.4-0.1l-0.4-0.2
	l-0.4-0.2l-0.4-0.2l-0.4-0.2l-0.4-0.2l-0.4-0.2l-0.3-0.3l-0.3-0.3l-0.3-0.3l-0.3-0.3l-0.3-0.3l-0.3-0.3l-0.3-0.3l-0.3-0.3l-0.3-0.3
	l-0.3-0.3l-0.3-0.3l-0.3-0.3l-0.3-0.3l-0.3-0.3l-0.3-0.3l-0.3-0.3l-0.3-0.3l-0.2-0.3l-0.2-0.3l-0.2-0.3l-0.2-0.3l-0.2-0.2l-0.5-0.5
	l-0.5-0.4l-0.5-0.4l-0.5-0.4l-0.5-0.4l-0.5-0.3l-0.5-0.3l-0.5-0.3l-0.5-0.2l-0.5-0.2l-0.5-0.2l-0.5-0.2l-0.5-0.1l-0.5-0.1l-0.5-0.1
	l-0.5-0.1l-0.5,0l-0.5,0l-0.5,0l-0.5,0l-0.5,0l-0.5,0.1l-0.5,0.1l-0.5,0.1l-0.5,0.1l-0.5,0.2l-0.5,0.2l-0.5,0.2l-0.5,0.2l-0.5,0.2
	l-0.5,0.3l-0.5,0.3l-0.3,0.2l-0.3,0.2l-0.4,0.2l-0.4,0.3l-0.4,0.3L99,54.9l-0.4,0.3l-0.4,0.3l-0.4,0.3L97.6,56l-0.4,0.3l-0.4,0.3
	l-0.4,0.3l-0.4,0.3l-0.4,0.3l-0.4,0.3L95,58.1l-0.4,0.3l-0.4,0.3l-0.4,0.3l-0.3,0.3l-0.3,0.2l-0.3,0.2l-0.3,0.2l-0.3,0.2l-0.3,0.2
	l-0.3,0.2l-0.3,0.2l-0.3,0.2l-0.3,0.1L90.3,61l-0.3,0.1l-0.7,0.1l-0.7,0.1l-0.6,0l-0.6,0l-0.6,0l-0.6-0.1l-0.5-0.1l-0.5-0.1
	l-0.5-0.2l-0.5-0.2l-0.5-0.2l-0.4-0.2L82.9,60l-0.4-0.3l-0.4-0.3l-0.3-0.3l-0.3-0.3l-0.3-0.3l-0.3-0.3l-0.3-0.3l-0.3-0.3L80,57.1
	l-0.3-0.3l-0.3-0.3l-0.2-0.3L79,55.8l-0.2-0.3l-0.2-0.3l-0.2-0.3l-0.2-0.3l-0.2-0.2l-1-0.9l0.8-1.1l0.1-0.2l0.1-0.3l0.1-0.3l0.1-0.3
	l0.1-0.4l0.1-0.4l0.1-0.4l0.1-0.4l0.1-0.4l0.1-0.4l0.2-0.5l0.2-0.5l0.2-0.5l0.2-0.5l0.2-0.5l0.3-0.5l0.3-0.4l0.3-0.4l0.4-0.4
	l0.4-0.4l0.4-0.4l0.5-0.3l0.5-0.3l0.6-0.2l0.6-0.2l0.7-0.1l0.7-0.1l0.7,0l0.8,0l0.8,0.1l0.9,0.1l0.3,0.1l0.3,0.1l0.3,0.1l0.3,0.1
	l0.3,0.1l0.3,0.1l0.3,0.1l0.3,0.1l0.3,0.1l0.3,0.1l0.3,0.1l0.3,0.1l0.3,0.1l0.3,0.1l0.3,0.1l0.3,0.1l0.3,0.1l0.3,0.1l0.3,0.1
	l0.3,0.1l0.3,0.1l0.3,0.1l0.3,0.1l0.3,0.1l0.3,0.1L97,45l0.3,0.1l0.3,0.1l0.3,0.1l0.3,0.1l0.3,0.1l0.3,0.1l0.1,0l0.1,0l0.1,0l0.1,0
	l0.1,0l0.1,0l0.1,0l0.1,0l0.1,0l0.1,0c0.9,0.2,1.8-1.4,0.5-2l-0.2-0.1l-0.2-0.1l-0.2-0.1l-0.2-0.1l-0.2-0.1l-0.2-0.1l-0.2-0.1
	l-0.2-0.1l-0.2-0.1l-0.2-0.1l-0.2-0.1l-0.3-0.1l-0.3-0.1l-0.3-0.2l-0.3-0.2l-0.4-0.2L96.5,42l-0.4-0.2l-0.4-0.2l-0.4-0.2l-0.4-0.2
	L94.3,41l-0.5-0.2l-0.5-0.2l-0.5-0.3L92.4,40L92,39.7l-0.5-0.3l-0.5-0.3l-0.4-0.3l-0.4-0.3l-0.4-0.4l-0.4-0.4l-0.4-0.4l-0.4-0.4
	l-0.3-0.5l-0.3-0.5l-0.3-0.5l-0.3-0.5l-0.2-0.6L87,33.7l-0.1-0.6l-0.1-0.6l0-0.3l0-0.3l0-0.3l0-0.3l0-0.3l0.1-0.3l0.1-0.3l0.1-0.3
	l0.1-0.3l0.1-0.3l0.1-0.3l0.1-0.3l0.1-0.3l0.1-0.3l0.1-0.3l0.1-0.3l0.1-0.3l0.1-0.3l0.1-0.3l0.1-0.3l0.1-0.3l0.1-0.3l0.1-0.3
	l0.1-0.3l0.1-0.3l0.1-0.3l0.1-0.3l0.1-0.3l0.1-0.3l0.1-0.3l0.1-0.3l0.4-1.1l1.2,0.1l0.3,0l0.3,0l0.3,0l0.4,0l0.4,0l0.4,0l0.4-0.1
	l0.4-0.1l0.5-0.1l0.5,0l0.5,0l0.5,0l0.5,0l0.5,0l0.5,0l0.5,0l0.5,0.1l0.5,0.1l0.5,0.1l0.5,0.2l0.5,0.2l0.5,0.3l0.5,0.3l0.5,0.4
	l0.4,0.4l0.4,0.5l0.4,0.5l0.4,0.6l0.3,0.7l0.3,0.7l0.3,0.8l0.1,0.3l0.1,0.3l0.1,0.3l0.1,0.3l0.1,0.3l0.1,0.3l0.1,0.3l0.1,0.3
	l0.1,0.3l0.1,0.3l0.1,0.3l0.1,0.3l0.1,0.3l0.1,0.3l0,0.3l0,0.3l0,0.3l0,0.3l0,0.3l0,0.3l0,0.3l0,0.3l0,0.3l0,0.3l0,0.3l0,0.3l0,0.3
	l0,0.3l0,0.3l0,0.3l0,0.3l0,0.3l0,0.1l0,0.1l0,0.1l0,0.1l0,0.1l0,0.1l0,0.1l0,0.1l0,0.1l0,0.1l0,0.1l0,0.1l0,0.1l0,0.1l0,0.1l0,0.1
	l0,0.1l0,0.1l0,0.1l0,0.1l0,0.1l0,0l0.1,0l0.1,0l0.1,0l0.1,0l0.1,0l0.1,0l0.1,0l0.1,0l0.1,0l0.1,0l0.1,0l0.1,0l0.1,0l0.1,0l0,0l0,0
	l0,0l0,0l0,0l0,0l0,0l0,0l0-0.1l0-0.1l0.1-0.1l0.1-0.1l0.1-0.1l0.1-0.1l0.1-0.1l0.1-0.2l0.1-0.2l0.1-0.2l0.1-0.2l0.1-0.2l0-0.2
	l0-0.2l0-0.2l0-0.2l0-0.3l0-0.3l0-0.3l0-0.3l0.1-0.4l0.1-0.4l0-0.4l0-0.4l0-0.4l0-0.4l0-0.4l0-0.4l0-0.4l0-0.4l0-0.4l0-0.4l0-0.4
	l0.1-0.4l0.1-0.4l0.1-0.5l0.1-0.4l0.1-0.4l0.1-0.4l0.1-0.4L111,28l0.2-0.4l0.2-0.4l0.2-0.4l0.2-0.4l0.3-0.4l0.3-0.4l0.3-0.4l0.3-0.4
	l0.4-0.4l0.4-0.3l0.4-0.3l0.4-0.3l0.4-0.3l0.4-0.2l0.4-0.2l0.4-0.2l0.4-0.1l0.4-0.1l0.4-0.1l0.4-0.1l0.4,0l0.4,0l0.4,0l0.4,0l0.4,0
	l0.4,0l0.4,0l0.3,0.1l0.3,0.1l0.3,0.1l0.3,0.1l0.3,0.1l0.3,0.1l0.3,0.1l0.3,0.1l0.3,0.1l0.3,0l0.3,0l0.3,0l0.3,0l0.3,0l0.3,0
	L126.6,22.7L126.6,22.7z M131.6,79.7c1.3,0.1,2.4,0.9,3.5,1.9c0.8,0.7,1.4,0.3,2.1-0.2c1.1-0.9,2.6-1.4,4.2-1.5
	c0.7,0,0.9,0.5,0.3,1.1c-1.1,1.3-1.8,3-1.9,5c-0.1,3.4-0.4,6.7-0.3,10.1c0,1.4,0.9,2.3,2,2.7c-1.3,1-2.5,2.1-3.6,3.3
	c-0.3,0.3-0.7,0.4-1.1,0c-1.3-1.4-2.6-2.4-3.8-3.1c1.3-0.4,2.1-1.4,2.2-3.4C135.5,89.4,135.8,83.2,131.6,79.7L131.6,79.7z
	 M98.8,83.3c-0.6,1.3-1.3,0.8-0.7-0.3c1.3-2.2,6-4.2,9-0.3c2.1,2.7,1,6.6-2.2,7.8c-2.2,0.8-4,0.2-5.6-0.7c-0.9,0.5-0.2,3.7,2.4,3.3
	c1-0.2,2.6-1.2,3.8-1.9c2.3,1.8,3.7,3.9-0.9,7.7c-1.1,0.9-2.7,2.2-3.9,3.2c-2.4-1.8-4.6-2.7-7.8-0.6c1.8-3.1,4-5.2,6.8-4.6
	c1.1,0.2,2,1.1,3,1.6c0.7,0.3,1,0,0.9-1.4c-0.2-2.5-0.7-3.1-2.5-2.7c-1.9,0.4-4.1,3.8-6-0.3c-1.8-4,4.6-6.6,6.2-8.4
	c2.1,2.1,6.5,1,4.9-2.3C104.6,79.9,100.2,80.6,98.8,83.3L98.8,83.3z M108.8,87.4c0.6,3.1,1.8,6.2,0.3,11c1.5,0.3,4,2.2,5.5,3.6
	c1.7-1.9,3.6-3.4,5.6-4.6c-3.2,0.4-5.3-0.3-5.6-2.5c1.9-2.2,4.3-3.1,6.4-4.4c-1.1-1.9-2.2-3.6-3.3-5.6
	C115.5,86.4,111.4,87.8,108.8,87.4L108.8,87.4z M116,91.4c-0.7,0.9-1.2,1.3-2,1.6c-0.2-1.5-0.2-2.6,0.2-4.1
	C115.1,89.7,115.4,90.3,116,91.4L116,91.4z M94,97.3c-1.6,0.9-2.8,2.2-3.5,4.1c3.4,5.3,8.1,9.2,16.2,8.4c7.2-0.8,12.6-4.4,14.9-12
	c2.6-8.6-3.5-16.8-5.5-20.3c-2.8-4.9-5.6-9.9-8.2-14.9c-0.8-1.5-1.2-1.4-2.2,0c-5.6,8.8-14.4,18.2-17,26.2
	C89.5,91,90.1,98.6,94,97.3L94,97.3z M128.7,91.6c-0.7,0.9-1.2,1.3-2,1.6c-0.2-1.5-0.2-2.6,0.2-4.1
	C127.8,89.8,128.1,90.4,128.7,91.6L128.7,91.6z M77.4,83.1c-4.4-0.5-5.3-3.8-2.4-5c2.1-0.9,4.2-0.1,6,3.8c-2.1,4.1-4.3,8.1-6.4,12.2
	c-3.2,0.4-5.6,1.9-5.3,5.7c0.3,3.3,4.1,4.4,7,3c-4.3,1.2-5.8-1-4.6-3.3c1-1.9,3.2-2.2,5,0.4c1-2.1,2.6-3.1,4.4-3.7
	c-3.4-0.1-6-1-4.8-2.9c0.9-1.4,3.3-1,5-1c2.4,0,3.9,0.2,4.4,2.3c0.4,2,0.6,3.4-0.5,4.5c1.8,0.8,3.7,1.6,4.7,3.8c3.7,5,8.6,9,18,8
	c6.4-0.7,10.8-5.3,14.4-11.3c1.5,0.3,3,1.3,4.5,2.7c1.7-1.9,3.6-3.4,5.6-4.6c-3.3,0.7-5.2,0-5.3-2.5c1.9-2.2,4-3.1,6.1-4.4
	c-1.1-1.9-2.2-3.9-3.3-5.8c-2.5,0.9-4.9,1.9-7.4,2.1C117.9,78,113,69.1,108,60.3c-0.8-1.4-1.3-1.3-2.2,0c-6,8.5-12.3,16.8-17.9,25.9
	c-2.1-3.5-1.6-6.4-0.5-9.3c-0.7,0.5-1.7,1-2.4,1.4c-4.2-2.9-7-3.1-9.7-2.3c-2.5,0.8-4,2.5-3.3,4.8C72.8,82.9,74.6,83.6,77.4,83.1
	L77.4,83.1z M81.8,83.7c0.9,2.1,1.7,4.2,2.2,6.3c-1.8,0.3-3.7,0.2-5.5-0.3C79.2,87.5,80.4,85.5,81.8,83.7z"/>
</svg>
