<?xml version="1.0" encoding="utf-8"?>
<!-- Generator: Adobe Illustrator 24.0.2, SVG Export Plug-In . SVG Version: 6.00 Build 0)  -->
<svg version="1.1" id="Layer_1" xmlns="http://www.w3.org/2000/svg" xmlns:xlink="http://www.w3.org/1999/xlink" x="0px" y="0px"
	 viewBox="0 0 211 133" style="enable-background:new 0 0 211 133;" xml:space="preserve">
<style type="text/css">
	.st0{fill-rule:evenodd;clip-rule:evenodd;fill:#FAA842;}
	.st1{fill-rule:evenodd;clip-rule:evenodd;fill:#373435;}
</style>
<path class="st0" d="M53,52.3c3.5,0.4,3.4,4.1,3.4,4.1c0.3,3.9-3.5,4.4-3.5,4.4l0.1,4.5h9.4c-1,8.1-7.2,14.4-14.8,14.4
	c-8.3,0-14.9-7.5-15-16.7h-4.1c0,11.8,8.5,21.3,19,21.3c10.5,0,19-9.5,19-21.3v-2.3h-7.3c0.7-1.3,1.3-2.9,1.3-4.8
	c0-1.6-0.5-3.4-1.6-4.9c-1.1-1.5-3.1-3.3-6-3.9V52.3L53,52.3z M45.3,40.7L45.3,40.7h4.5v34.5h-4.5V40.7L45.3,40.7z M45.4,88.1
	L45.4,88.1h4.3v5h-4.3V88.1z"/>
<path class="st1" d="M78.9,66H82c1.3,0,2.4-0.2,3-0.6c0.7-0.4,1-1,1-1.7c0-0.7-0.3-1.3-0.9-1.6c-0.6-0.4-1.6-0.5-2.9-0.5h-3.3V66
	L78.9,66z M78.9,74.4L78.9,74.4h3.7c1.5,0,2.6-0.2,3.3-0.6c0.7-0.4,1-1,1-1.8c0-0.9-0.4-1.6-1.1-2c-0.7-0.5-1.8-0.7-3.2-0.7h-3.7
	V74.4L78.9,74.4z M87,67.2c1.2,0.3,2.2,0.8,2.9,1.7c0.7,0.8,1.1,1.8,1.1,3c0,0.9-0.2,1.8-0.7,2.6c-0.4,0.8-1,1.5-1.8,2
	c-0.8,0.5-1.6,0.9-2.6,1.1c-0.9,0.2-2.3,0.3-4.1,0.3h-6.3V58H81c1.1,0,2,0,2.6,0.1c0.6,0.1,1.2,0.2,1.7,0.3c1.4,0.4,2.4,1.1,3.2,1.9
	c0.7,0.8,1.1,1.8,1.1,2.9c0,0.9-0.2,1.7-0.7,2.4C88.5,66.4,87.8,66.9,87,67.2L87,67.2L87,67.2z M91.7,62.8L91.7,62.8h3.1v15.1h-3.1
	V62.8L91.7,62.8z M91.7,58L91.7,58h3.1v3.3h-3.1V58L91.7,58z M97.4,77.9L97.4,77.9h3v-6.4c0-2,0.2-3.4,0.7-4.2
	c0.5-0.8,1.2-1.2,2.3-1.2c1,0,1.7,0.4,2.2,1.1c0.4,0.7,0.6,2.1,0.6,4.1v6.7h3.1v-8c0-1.3-0.1-2.4-0.2-3.1c-0.1-0.7-0.4-1.3-0.7-1.9
	c-0.5-0.8-1.1-1.4-1.8-1.9c-0.7-0.4-1.6-0.6-2.5-0.6c-0.8,0-1.4,0.2-2,0.5c-0.6,0.3-1.1,0.8-1.6,1.5v-1.7h-3.1V77.9L97.4,77.9z
	 M127,70L127,70l-2.2-6.4l-2.3,6.4H127L127,70z M119.7,77.9h-3.8l7.3-19.9h3.2l7.2,19.9h-3.9l-1.5-4.2h-7L119.7,77.9L119.7,77.9
	L119.7,77.9z M137.6,70.4L137.6,70.4c0,1.2,0.4,2.3,1.1,3.1c0.7,0.8,1.6,1.3,2.6,1.3c1.2,0,2.1-0.4,2.9-1.3c0.8-0.8,1.1-1.9,1.1-3.2
	c0-1.2-0.4-2.3-1.1-3.1c-0.8-0.9-1.7-1.3-2.7-1.3c-1.1,0-2,0.4-2.7,1.3C137.9,68.1,137.6,69.1,137.6,70.4L137.6,70.4z M134.4,77.9
	V56.5h3.1V64c0.6-0.5,1.2-0.9,1.9-1.2c0.7-0.2,1.4-0.4,2.3-0.4c0.9,0,1.7,0.2,2.5,0.5c0.8,0.3,1.5,0.8,2.1,1.5
	c0.7,0.7,1.3,1.6,1.7,2.6c0.4,1,0.6,2.1,0.6,3.2c0,1.2-0.2,2.3-0.6,3.4c-0.4,1.1-1.1,2-1.9,2.8c-0.6,0.6-1.3,1-2,1.3
	c-0.7,0.3-1.5,0.4-2.4,0.4c-0.8,0-1.5-0.1-2.2-0.4c-0.7-0.3-1.3-0.7-2-1.2v1.2H134.4L134.4,77.9L134.4,77.9z M149.7,56.5L149.7,56.5
	h3.4v21.4h-3.4V56.5L149.7,56.5z M157.6,70.2L157.6,70.2c0,1.3,0.4,2.3,1.1,3.2c0.7,0.8,1.6,1.3,2.7,1.3c1,0,1.8-0.4,2.5-1.3
	c0.7-0.9,1.1-1.9,1.1-3c0-1.2-0.4-2.3-1.1-3.2c-0.7-0.9-1.6-1.3-2.6-1.3c-1,0-1.9,0.4-2.7,1.3C157.9,68,157.6,69,157.6,70.2
	L157.6,70.2z M154.4,70.3c0-1.1,0.2-2.1,0.5-3c0.3-0.9,0.8-1.8,1.4-2.5c0.7-0.8,1.4-1.4,2.2-1.8c0.8-0.4,1.7-0.6,2.7-0.6
	c1,0,1.8,0.2,2.5,0.5c0.7,0.4,1.2,0.9,1.7,1.7v-1.8h3v15.1h-3V76c-0.4,0.7-0.9,1.3-1.6,1.7c-0.7,0.4-1.5,0.5-2.6,0.5
	c-2,0-3.6-0.8-4.9-2.3C155.1,74.4,154.4,72.5,154.4,70.3L154.4,70.3L154.4,70.3z M170.6,77.9L170.6,77.9h3.1v-6.4
	c0-2,0.2-3.4,0.7-4.2c0.5-0.8,1.2-1.2,2.3-1.2c1,0,1.8,0.4,2.2,1.1c0.4,0.7,0.6,2.1,0.6,4.1v6.7h3.2v-8c0-1.3-0.1-2.4-0.2-3.1
	c-0.1-0.7-0.4-1.3-0.7-1.9c-0.5-0.8-1.1-1.4-1.8-1.9c-0.7-0.4-1.6-0.6-2.6-0.6c-0.8,0-1.5,0.2-2.1,0.5c-0.6,0.3-1.1,0.8-1.6,1.5
	v-1.7h-3.1V77.9z"/>
</svg>
