<?xml version="1.0" encoding="utf-8"?>
<!-- Generator: Adobe Illustrator 24.0.2, SVG Export Plug-In . SVG Version: 6.00 Build 0)  -->
<svg version="1.1" id="Layer_1" xmlns="http://www.w3.org/2000/svg" xmlns:xlink="http://www.w3.org/1999/xlink" x="0px" y="0px"
	 viewBox="0 0 211 133" style="enable-background:new 0 0 211 133;" xml:space="preserve">
<style type="text/css">
	.st0{fill-rule:evenodd;clip-rule:evenodd;fill:#C42F33;}
	.st1{fill-rule:evenodd;clip-rule:evenodd;fill:#606062;}
	.st2{fill-rule:evenodd;clip-rule:evenodd;fill:#373435;}
	.st3{fill-rule:evenodd;clip-rule:evenodd;fill:#FDFDFD;}
</style>
<g>
	<rect x="55.5" y="109" class="st0" width="100.9" height="8.3"/>
	<path class="st1" d="M103.4,52v4.8v21.7h5V56.8V52l12.4,4.9l-9.7-21.7h-10.3L91,56.8L103.4,52L103.4,52z M103.4,83.3h-4.8v-4.8
		V58.7l-10.1,3.9v16.7l-4.8-2.6v-14l22.2-47.3l22.2,47.3v14l-4.8,2.6V62.5l-10.1-3.9v19.8v4.8h-4.8H103.4z"/>
	<path class="st2" d="M54.1,89.5l0,0.2h0.2c0.7,0,1.2,0.5,1.3,1.2v11.6c-1.3-0.5-2.2-1.7-2.5-3.8l-0.2,0c-0.1,3.4,2.2,5,5.4,5
		c3.4,0,5.6-1.7,5.6-4.3c0-2.1-1.3-3.7-4-4.1c0.9-0.4,1.6-1.3,1.6-2.6c0-2-1.7-3.2-4.1-3.2H54.1L54.1,89.5z M56.9,90.2h0.3
		c1.8,0,2.9,0.8,2.9,2.6c0,2-1.3,2.7-2.5,2.7l0,0.2c1.9,0,4.9,0.6,4.9,3.6c0,2.1-1.4,3.7-4.1,3.7c-0.5,0-1,0-1.5-0.1V90.2L56.9,90.2
		z M70.1,103.3h-0.3c-0.7,0-1.3-0.6-1.3-1.3V91c0-0.7,0.6-1.2,1.3-1.2h0.3l0-0.2h-4.4l0,0.2H66c0.7,0,1.3,0.6,1.3,1.2v11
		c0,0.7-0.6,1.3-1.3,1.3h-0.3l0,0.2h4.4L70.1,103.3L70.1,103.3z M72.5,89.5l0,0.2h0.3c0.7,0,1.3,0.6,1.3,1.3v11
		c0,0.7-0.6,1.2-1.3,1.2h-0.3l0,0.2h4.4l0-0.2h-0.3c-0.7,0-1.3-0.6-1.3-1.3V90.1c0.3,0,1.5,0,2.5,0c1.5,0.1,2.4,1.2,2.5,3
		c0,0.4,0,0.9-0.1,1.2c-0.6,1.8-2.1,2-3.1,2.1c-0.6,0-1.1,0-1.1,0v0.2c0.7,0,1.3,0.7,1.8,1.3c0.2,0.2,2.4,3.5,2.6,3.7
		c0.6,0.7,1.6,1.7,3.5,1.7H85v-0.2c-1.2,0-1.9-0.6-2.7-1.5c-0.8-0.8-2.5-3.3-2.5-3.3c-0.4-0.5-1-1.2-1.4-1.4c1.9,0,3.4-1.9,3.4-3.8
		c0-2.3-1.5-3.7-3.9-3.7H72.5L72.5,89.5z M93.8,91c0-0.7,0.6-1.2,1.3-1.2h0.3l0-0.2h-4.4l0,0.2h0.3c0.7,0,1.3,0.6,1.3,1.2v11
		c0,0.7-0.6,1.3-1.3,1.3h-0.3l0,0.2h4.4l0-0.2H95c-0.7,0-1.3-0.6-1.3-1.3V91L93.8,91z M95.8,96l6.8,7.2c1.6,1.7,3.9,3.2,6.3,3.2v0.2
		c-1.3,0.3-4.3,0.7-7.8-3.1l-6.6-7l4.7-5.9c0.3-0.4,0.1-0.9-0.5-0.9h-0.2v-0.2h4.2v0.2h-0.1c-0.9,0-1.6,0.4-2.1,0.9L95.8,96L95.8,96
		z M110.2,89.2H110c0,0.4-0.7,2.1-0.7,2.1l-4.5,10.7c-0.4,0.9-1.1,1.3-1.7,1.3h-0.2v0.2h4v-0.2h-0.2c-0.5,0-1-0.4-0.8-1.2l1.3-3.4
		h5.4l1.3,3.4c0.3,0.8-0.2,1.3-0.8,1.3H113v0.2h4.5v-0.2h-0.2c-0.6,0-1.3-0.4-1.8-1.3L110.2,89.2L110.2,89.2z M107.5,98h4.9
		l-2.4-6.4L107.5,98L107.5,98z M127.7,100.2c-0.6,1.5-1.4,2.6-3.5,2.6h-2.9V91c0-0.7,0.6-1.3,1.3-1.3h0.3l0-0.2h-4.4l0,0.2h0.3
		c0.7,0,1.3,0.6,1.3,1.3v11c0,0.7-0.6,1.3-1.3,1.3h-0.3l0,0.2h8.3l1.2-3.2H127.7L127.7,100.2z M138.5,100.2
		c-0.6,1.5-1.4,2.6-3.5,2.6h-2.9v-6h3.4c0.5,0,0.9,0.5,0.9,1v0.3h0.2V95h-0.2v0.3c0,0.5-0.4,1-1,1h-3.4v-6.2h4.1
		c0.6,0,1.1,0.6,1.1,1.2v0.4h0.2v-1.6v-0.3v-0.6c-0.4,0.2-1.5,0.4-2.4,0.4h-5.8v0.2h0.3c0.7,0,1.3,0.5,1.3,1.1V102
		c0,0.7-0.6,1.3-1.3,1.3h-0.3l0,0.2h8.3l1.2-3.2H138.5L138.5,100.2z M154.5,89.3h-0.2l-5.4,12l-5.6-12h-0.2l-1.5,12.8
		c-0.1,0.8-0.7,1.2-1.5,1.2h-0.3v0.2h3.9v-0.2h-0.3c-0.4,0-0.8-0.4-0.8-0.8l0.9-9.7l5.1,11h0.2c0.1-0.8,0.7-2,0.7-2l4.2-9.3l0.9,10
		c0,0.5-0.3,0.8-0.8,0.8h-0.3v0.2h4.3v-0.2h-0.3c-0.7,0-1.4-0.5-1.5-1.2L154.5,89.3z"/>
	<path class="st3" d="M92.9,115.8v-5.5H94l1.3,3.9c0.1,0.4,0.2,0.6,0.3,0.8c0.1-0.2,0.2-0.5,0.3-0.9l1.3-3.8h1v5.5h-0.7v-4.6
		l-1.6,4.6h-0.7l-1.6-4.7v4.7H92.9L92.9,115.8z M114,115.8v-5.5h0.7v5.5H114L114,115.8z M99.2,111.1v-0.8h0.7v0.8H99.2L99.2,111.1z
		 M99.2,115.8v-4h0.7v4H99.2L99.2,115.8z M100.9,115.8v-4h0.6v0.6c0.1-0.2,0.3-0.3,0.5-0.5c0.2-0.1,0.4-0.2,0.7-0.2
		c0.3,0,0.5,0.1,0.7,0.2c0.2,0.1,0.3,0.3,0.4,0.5c0.3-0.5,0.7-0.7,1.2-0.7c0.4,0,0.7,0.1,0.9,0.3c0.2,0.2,0.3,0.6,0.3,1v2.7h-0.7
		v-2.5c0-0.3,0-0.5-0.1-0.6c0-0.1-0.1-0.2-0.2-0.3c-0.1-0.1-0.2-0.1-0.4-0.1c-0.3,0-0.5,0.1-0.7,0.3c-0.2,0.2-0.3,0.5-0.3,0.9v2.3
		h-0.7v-2.6c0-0.3-0.1-0.5-0.2-0.7c-0.1-0.1-0.3-0.2-0.5-0.2c-0.2,0-0.4,0-0.5,0.1c-0.2,0.1-0.3,0.2-0.3,0.4
		c-0.1,0.2-0.1,0.5-0.1,0.8v2.1H100.9L100.9,115.8z M109.8,115.3c-0.2,0.2-0.5,0.4-0.7,0.4c-0.2,0.1-0.5,0.1-0.7,0.1
		c-0.4,0-0.8-0.1-1-0.3c-0.2-0.2-0.4-0.5-0.4-0.8c0-0.2,0-0.4,0.1-0.5c0.1-0.2,0.2-0.3,0.3-0.4c0.1-0.1,0.3-0.2,0.5-0.2
		c0.1,0,0.3-0.1,0.6-0.1c0.5-0.1,0.9-0.1,1.2-0.2c0-0.1,0-0.1,0-0.2c0-0.3-0.1-0.5-0.2-0.6c-0.2-0.2-0.4-0.2-0.8-0.2
		c-0.3,0-0.6,0.1-0.7,0.2c-0.2,0.1-0.3,0.3-0.3,0.6l-0.7-0.1c0.1-0.3,0.2-0.5,0.3-0.7c0.1-0.2,0.3-0.3,0.6-0.4
		c0.3-0.1,0.6-0.1,0.9-0.1c0.3,0,0.6,0,0.8,0.1c0.2,0.1,0.4,0.2,0.5,0.3c0.1,0.1,0.2,0.3,0.2,0.5c0,0.1,0,0.3,0,0.6v0.9
		c0,0.6,0,1,0,1.2c0,0.2,0.1,0.3,0.2,0.5H110C109.9,115.7,109.9,115.5,109.8,115.3L109.8,115.3z M109.8,113.8
		c-0.2,0.1-0.6,0.2-1.1,0.3c-0.3,0-0.5,0.1-0.6,0.1c-0.1,0-0.2,0.1-0.3,0.2c-0.1,0.1-0.1,0.2-0.1,0.3c0,0.2,0.1,0.3,0.2,0.4
		c0.1,0.1,0.3,0.2,0.6,0.2c0.3,0,0.5-0.1,0.7-0.2c0.2-0.1,0.3-0.3,0.4-0.5c0.1-0.2,0.1-0.4,0.1-0.7L109.8,113.8L109.8,113.8z
		 M111.5,115.8v-4h0.6v0.6c0.2-0.3,0.3-0.5,0.4-0.6c0.1-0.1,0.3-0.1,0.4-0.1c0.2,0,0.5,0.1,0.7,0.2l-0.2,0.6
		c-0.2-0.1-0.3-0.1-0.5-0.1c-0.1,0-0.3,0-0.4,0.1c-0.1,0.1-0.2,0.2-0.2,0.4c-0.1,0.2-0.1,0.5-0.1,0.8v2.1H111.5L111.5,115.8z
		 M116,115.8v-4h0.7v4H116L116,115.8z M117.8,115.8v-5.5h0.7v3.1l1.6-1.6h0.9l-1.5,1.5l1.7,2.5h-0.8l-1.3-2l-0.5,0.5v1.6H117.8z"/>
</g>
</svg>
