<?xml version="1.0" encoding="utf-8"?>
<!-- Generator: Adobe Illustrator 24.0.2, SVG Export Plug-In . SVG Version: 6.00 Build 0)  -->
<svg version="1.1" id="Layer_1" xmlns="http://www.w3.org/2000/svg" xmlns:xlink="http://www.w3.org/1999/xlink" x="0px" y="0px"
	 viewBox="0 0 211 133" style="enable-background:new 0 0 211 133;" xml:space="preserve">
<style type="text/css">
	.st0{fill-rule:evenodd;clip-rule:evenodd;fill:#7F3A2F;}
	.st1{fill-rule:evenodd;clip-rule:evenodd;fill:#FDFDFD;}
	.st2{fill-rule:evenodd;clip-rule:evenodd;fill:url(#SVGID_1_);}
	.st3{fill-rule:evenodd;clip-rule:evenodd;fill:url(#SVGID_2_);}
	.st4{fill-rule:evenodd;clip-rule:evenodd;fill:url(#SVGID_3_);}
	.st5{fill-rule:evenodd;clip-rule:evenodd;fill:url(#SVGID_4_);}
	.st6{fill-rule:evenodd;clip-rule:evenodd;fill:url(#SVGID_5_);}
	.st7{fill-rule:evenodd;clip-rule:evenodd;fill:url(#SVGID_6_);}
	.st8{fill-rule:evenodd;clip-rule:evenodd;fill:url(#SVGID_7_);}
	.st9{fill-rule:evenodd;clip-rule:evenodd;fill:#F48534;}
</style>
<g>
	<g>
		<g>
			<g>
				<path class="st0" d="M97.2,41.6c-3.4,1.5-1.1,7.4-6.2,11.4c6.6-4.9,3.3-9.2,6.9-11c3.2,2.4,2.2,10.2-3.6,12.7
					c-2.2,1-6.4,0.7-6.7-4C87.1,45.1,92.7,40.2,97.2,41.6z"/>
				<path class="st1" d="M94,42.1c-3.7,1.2-5.6,4.2-5.9,8.9C89,46.9,90.9,43.8,94,42.1z"/>
			</g>
			<g>
				<path class="st0" d="M108.8,40.2c-2.9,1.3-1,6.3-5.3,9.8c5.7-4.2,2.8-7.9,5.9-9.5c2.7,2.1,1.9,8.8-3.1,11
					c-1.9,0.8-5.5,0.6-5.8-3.4C100.1,43.2,104.9,38.9,108.8,40.2z"/>
				<path class="st1" d="M106.1,40.8c-3.2,1.1-4.8,3.6-5.1,7.7C101.8,44.9,103.3,42.2,106.1,40.8z"/>
			</g>
			<g>
				<path class="st0" d="M118.8,39.1c-2.5,1.1-0.8,5.5-4.6,8.5c4.9-3.6,2.4-6.8,5.1-8.1c2.4,1.8,1.7,7.6-2.7,9.4
					c-1.6,0.7-4.7,0.5-5-2.9C111.3,41.6,115.4,38,118.8,39.1z"/>
				<path class="st1" d="M116.4,39.6c-2.7,0.9-4.1,3.1-4.4,6.6C112.7,43.1,114.1,40.8,116.4,39.6z"/>
			</g>
			<g>
				<path class="st0" d="M127.3,38.1c-2.2,1-0.7,4.7-4,7.3c4.2-3.1,2.1-5.9,4.4-7c2,1.5,1.4,6.5-2.3,8.1c-1.4,0.6-4.1,0.4-4.3-2.5
					C120.9,40.3,124.5,37.2,127.3,38.1z"/>
				<path class="st1" d="M125.3,38.5c-2.3,0.8-3.6,2.7-3.8,5.7C122.1,41.5,123.3,39.6,125.3,38.5z"/>
			</g>
			<g>
				<path class="st0" d="M134.7,37.3c-1.9,0.8-0.6,4-3.4,6.2c3.6-2.7,1.8-5.1,3.8-6c1.7,1.3,1.2,5.6-2,7c-1.2,0.5-3.5,0.4-3.7-2.2
					C129.2,39.1,132.2,36.4,134.7,37.3z"/>
				<path class="st1" d="M133,37.6c-2,0.7-3.1,2.3-3.2,4.9C130.2,40.2,131.2,38.5,133,37.6z"/>
			</g>
			<g>
				<path class="st0" d="M141,36.5c-1.6,0.7-0.5,3.5-2.9,5.4c3.1-2.3,1.5-4.3,3.2-5.2c1.5,1.1,1,4.8-1.7,6c-1,0.4-3,0.3-3.2-1.9
					C136.3,38.1,138.9,35.8,141,36.5z"/>
				<path class="st1" d="M139.5,36.8c-1.7,0.6-2.6,2-2.8,4.2C137.2,39,138.1,37.5,139.5,36.8z"/>
			</g>
		</g>
		<linearGradient id="SVGID_1_" gradientUnits="userSpaceOnUse" x1="62.463" y1="7.0609" x2="181.1501" y2="113.9272">
			<stop  offset="0" style="stop-color:#F58220"/>
			<stop  offset="1" style="stop-color:#FFE293"/>
		</linearGradient>
		<path class="st2" d="M98.7,53.8c-2.2,1.1-1.2,3.2,2.5,5.1c8.5,4.2,19.1,2.3,31.9-5.8c-4.4,2.4-8.8,4.8-13.7,5.9
			c-4.6,1-8.2-0.6-11.4-3.5C105.1,52.7,101.7,52.3,98.7,53.8z"/>
		<linearGradient id="SVGID_2_" gradientUnits="userSpaceOnUse" x1="80.956" y1="11.8004" x2="179.0954" y2="100.1655">
			<stop  offset="0" style="stop-color:#F58220"/>
			<stop  offset="1" style="stop-color:#FFE293"/>
		</linearGradient>
		<path class="st3" d="M109.6,51c-2,1.1-1,3,2.4,4.5c7.9,3.6,17.5,1.6,28.8-6.3c-3.9,2.3-7.9,4.6-12.2,5.8
			c-4.2,1.1-7.5-0.3-10.4-2.8C115.3,49.7,112.3,49.4,109.6,51z"/>
		<linearGradient id="SVGID_3_" gradientUnits="userSpaceOnUse" x1="92.9737" y1="12.1335" x2="182.5039" y2="92.7468">
			<stop  offset="0" style="stop-color:#F58220"/>
			<stop  offset="1" style="stop-color:#FFE293"/>
		</linearGradient>
		<path class="st4" d="M119.2,48.3c-1.7,1.1-0.8,2.7,2.3,4c7.3,3,15.9,0.9,26-6.5c-3.5,2.2-7,4.5-11,5.6c-3.8,1.1-6.8,0-9.6-2.3
			C124.3,47.1,121.6,46.9,119.2,48.3z"/>
		<linearGradient id="SVGID_4_" gradientUnits="userSpaceOnUse" x1="114.0771" y1="17.1894" x2="169.8214" y2="81.3158">
			<stop  offset="0" style="stop-color:#F58220"/>
			<stop  offset="1" style="stop-color:#FFE293"/>
		</linearGradient>
		<path class="st5" d="M127.6,46.1c-1.4,0.9-0.7,2.3,1.9,3.4c6,2.5,13.2,0.8,21.5-5.3c-2.9,1.8-5.8,3.7-9.1,4.6
			c-3.1,0.9-5.6,0-7.9-1.9C131.9,45,129.6,44.9,127.6,46.1z"/>
		<linearGradient id="SVGID_5_" gradientUnits="userSpaceOnUse" x1="115.1707" y1="16.5124" x2="181.9762" y2="76.6643">
			<stop  offset="0" style="stop-color:#F58220"/>
			<stop  offset="1" style="stop-color:#FFE293"/>
		</linearGradient>
		<path class="st6" d="M134.7,44.3c-1.3,0.9-0.5,2.1,1.9,2.9c5.6,1.9,12-0.1,19.2-6.2c-2.5,1.8-5,3.7-8,4.7c-2.8,1-5.1,0.3-7.3-1.2
			C138.5,43.1,136.5,43.1,134.7,44.3z"/>
		<linearGradient id="SVGID_6_" gradientUnits="userSpaceOnUse" x1="127.2296" y1="19.0651" x2="178.3013" y2="65.0502">
			<stop  offset="0" style="stop-color:#F58220"/>
			<stop  offset="1" style="stop-color:#FFE293"/>
		</linearGradient>
		<path class="st7" d="M141.4,42.9c-0.9,1,0,2,2.3,2.2c5.4,0.5,10.6-2.6,15.7-9.5c-1.9,2.1-3.7,4.3-6.1,5.8
			c-2.3,1.5-4.5,1.3-6.7,0.4C144.6,41,142.7,41.4,141.4,42.9z"/>
		<linearGradient id="SVGID_7_" gradientUnits="userSpaceOnUse" x1="39.0852" y1="-1.9801" x2="189.1912" y2="133.1759">
			<stop  offset="0" style="stop-color:#F58220"/>
			<stop  offset="1" style="stop-color:#FFE293"/>
		</linearGradient>
		<path class="st8" d="M87.9,56.8c-2.4,1.2-1.5,3.5,2.5,5.6c9.2,4.9,20.9,3.3,35.2-5.3c-4.9,2.5-9.8,5-15.2,6
			c-5.1,0.9-9-0.9-12.4-4.2C94.9,55.8,91.2,55.2,87.9,56.8z"/>
		<path class="st0" d="M84.8,55.2c-11.8,2-23.6,1.6-35.8-3c-1.3-0.5-1.1-0.2-0.2,0.4c7.6,4.7,20.4,6,36.4,3.9
			C87.1,56.2,86.9,54.9,84.8,55.2z"/>
	</g>
	<g>
		<path class="st0" d="M43.7,83c1.5,0.3,2.6,0.8,3.2,1.3c0.9,0.7,1.3,1.6,1.3,2.8c0,1.2-0.5,2.2-1.4,2.9c-1.2,0.9-2.9,1.4-5.1,1.4
			h-8V91c0.7,0,1.2-0.1,1.5-0.2c0.3-0.1,0.4-0.3,0.5-0.5c0.1-0.2,0.2-0.8,0.2-1.6V78.4c0-0.9-0.1-1.4-0.2-1.6
			c-0.1-0.2-0.3-0.4-0.6-0.5c-0.3-0.1-0.8-0.2-1.5-0.2v-0.4h7.6c1.8,0,3.1,0.2,3.8,0.5c0.8,0.3,1.3,0.8,1.8,1.4
			c0.4,0.6,0.7,1.3,0.7,2c0,0.8-0.3,1.4-0.8,2C46,82.2,45.1,82.7,43.7,83L43.7,83z M39.4,82.7c1.1,0,1.9-0.1,2.4-0.4
			c0.5-0.3,0.9-0.6,1.2-1.1c0.3-0.4,0.4-1,0.4-1.7c0-0.7-0.1-1.3-0.4-1.7c-0.3-0.4-0.7-0.8-1.2-1c-0.5-0.2-1.3-0.3-2.5-0.3V82.7
			L39.4,82.7z M39.4,83.6v5.1l0,0.6c0,0.4,0.1,0.7,0.3,1c0.2,0.2,0.5,0.3,1,0.3c0.6,0,1.2-0.1,1.7-0.4c0.5-0.3,0.9-0.7,1.2-1.2
			c0.3-0.5,0.4-1.1,0.4-1.8c0-0.7-0.2-1.4-0.5-2c-0.3-0.6-0.8-1-1.4-1.2C41.5,83.7,40.6,83.6,39.4,83.6L39.4,83.6z M53.9,80.5V83
			c0.7-1.1,1.4-1.9,1.9-2.2c0.5-0.4,1.1-0.6,1.6-0.6c0.4,0,0.8,0.1,1,0.4c0.3,0.3,0.4,0.6,0.4,1.1c0,0.5-0.1,0.9-0.4,1.2
			c-0.3,0.3-0.6,0.4-0.9,0.4c-0.4,0-0.8-0.1-1.1-0.4c-0.3-0.3-0.5-0.4-0.5-0.4c-0.1,0-0.2-0.1-0.3-0.1c-0.2,0-0.4,0.1-0.6,0.3
			c-0.3,0.3-0.6,0.6-0.7,1.1c-0.3,0.8-0.4,1.6-0.4,2.5v2.5l0,0.7c0,0.4,0,0.7,0.1,0.8c0.1,0.2,0.2,0.4,0.4,0.5
			c0.2,0.1,0.5,0.2,0.9,0.2v0.4h-5.9V91c0.5,0,0.8-0.2,1-0.4c0.2-0.2,0.3-0.8,0.3-1.8v-6c0-0.6,0-1-0.1-1.2
			c-0.1-0.2-0.2-0.4-0.3-0.5C50,81,49.8,81,49.4,80.9v-0.4H53.9L53.9,80.5z M68.3,85.6h-6c0.1,1.4,0.5,2.6,1.2,3.4
			c0.5,0.6,1.2,1,1.9,1c0.5,0,0.9-0.1,1.3-0.4c0.4-0.3,0.8-0.7,1.2-1.4l0.4,0.3c-0.6,1.2-1.2,2.1-2,2.6c-0.7,0.5-1.5,0.8-2.5,0.8
			c-1.6,0-2.8-0.6-3.7-1.9c-0.7-1-1-2.2-1-3.7c0-1.8,0.5-3.3,1.5-4.3c1-1.1,2.1-1.6,3.5-1.6c1.1,0,2.1,0.4,2.9,1.4
			C67.8,82.4,68.2,83.8,68.3,85.6L68.3,85.6z M65.4,84.8c0-1.3-0.1-2.1-0.2-2.6c-0.1-0.5-0.3-0.8-0.6-1.1c-0.2-0.1-0.4-0.2-0.7-0.2
			c-0.4,0-0.7,0.2-1,0.6c-0.5,0.7-0.7,1.6-0.7,2.8v0.4H65.4L65.4,84.8z M75.2,89.8c-1.3,1.2-2.5,1.8-3.6,1.8c-0.6,0-1.1-0.2-1.5-0.6
			c-0.4-0.4-0.6-0.9-0.6-1.5c0-0.8,0.4-1.6,1.1-2.2c0.7-0.7,2.3-1.5,4.7-2.7v-1.1c0-0.8,0-1.3-0.1-1.6c-0.1-0.2-0.3-0.4-0.5-0.6
			c-0.3-0.2-0.5-0.2-0.8-0.2c-0.5,0-0.9,0.1-1.3,0.3c-0.2,0.1-0.3,0.3-0.3,0.5c0,0.2,0.1,0.4,0.3,0.6c0.3,0.3,0.4,0.7,0.4,1
			c0,0.4-0.1,0.7-0.4,1c-0.3,0.3-0.7,0.4-1.1,0.4c-0.5,0-0.9-0.2-1.2-0.4c-0.3-0.3-0.5-0.6-0.5-1c0-0.6,0.2-1.1,0.7-1.6
			c0.4-0.5,1.1-0.9,1.9-1.2c0.8-0.3,1.6-0.4,2.5-0.4c1,0,1.9,0.2,2.5,0.7c0.6,0.4,1,0.9,1.2,1.4c0.1,0.3,0.2,1.1,0.2,2.3v4.2
			c0,0.5,0,0.8,0.1,0.9c0,0.1,0.1,0.2,0.2,0.3c0.1,0.1,0.2,0.1,0.3,0.1c0.2,0,0.4-0.1,0.6-0.4l0.3,0.3c-0.4,0.6-0.8,1-1.2,1.3
			c-0.4,0.3-0.9,0.4-1.4,0.4c-0.6,0-1.1-0.1-1.5-0.4C75.5,90.8,75.3,90.4,75.2,89.8L75.2,89.8z M75.2,89v-3.7
			c-0.9,0.6-1.6,1.1-2.1,1.8c-0.3,0.4-0.5,0.8-0.5,1.3c0,0.4,0.1,0.7,0.4,0.9c0.2,0.2,0.5,0.3,0.8,0.3C74.3,89.6,74.7,89.4,75.2,89
			L75.2,89z M91.3,75.6v12.6c0,0.8,0,1.3,0.1,1.5c0.1,0.3,0.2,0.4,0.4,0.6c0.2,0.1,0.5,0.2,0.9,0.2v0.4L88,91.7V90
			c-0.6,0.7-1,1.1-1.5,1.4c-0.4,0.2-0.9,0.4-1.5,0.4c-1.4,0-2.5-0.6-3.3-1.9c-0.7-1-1-2.2-1-3.7c0-1.2,0.2-2.2,0.6-3.2
			c0.4-0.9,1-1.6,1.7-2.1c0.7-0.5,1.5-0.7,2.3-0.7c0.5,0,1,0.1,1.4,0.3c0.4,0.2,0.8,0.6,1.3,1.1v-3.3c0-0.8,0-1.3-0.1-1.5
			c-0.1-0.2-0.2-0.4-0.4-0.5c-0.2-0.1-0.5-0.2-1.1-0.2v-0.5H91.3L91.3,75.6z M88,83c-0.6-1.1-1.3-1.7-2.1-1.7
			c-0.3,0-0.5,0.1-0.7,0.2c-0.3,0.2-0.5,0.7-0.7,1.3c-0.2,0.6-0.3,1.5-0.3,2.8c0,1.4,0.1,2.4,0.3,3.1c0.2,0.7,0.5,1.1,0.8,1.4
			c0.2,0.1,0.4,0.2,0.7,0.2c0.7,0,1.3-0.5,1.9-1.6V83L88,83z M130.2,75.2v5.5h-0.5c-0.3-1.4-1-2.5-1.9-3.3c-0.9-0.8-2-1.1-3.2-1.1
			c-1,0-1.9,0.3-2.7,0.9c-0.8,0.6-1.4,1.3-1.8,2.2c-0.5,1.2-0.7,2.5-0.7,3.9c0,1.4,0.2,2.7,0.5,3.9c0.4,1.2,0.9,2,1.7,2.6
			c0.8,0.6,1.7,0.9,3,0.9c1,0,1.9-0.2,2.7-0.7c0.8-0.4,1.7-1.2,2.6-2.2v1.4c-0.9,0.9-1.8,1.6-2.8,2c-1,0.4-2.1,0.6-3.4,0.6
			c-1.7,0-3.2-0.3-4.5-1c-1.3-0.7-2.3-1.6-3-2.9c-0.7-1.3-1.1-2.6-1.1-4c0-1.5,0.4-2.9,1.2-4.3c0.8-1.4,1.9-2.4,3.2-3.1
			c1.3-0.7,2.8-1.1,4.3-1.1c1.1,0,2.3,0.2,3.5,0.7c0.7,0.3,1.2,0.4,1.4,0.4c0.2,0,0.5-0.1,0.6-0.3c0.2-0.2,0.3-0.5,0.4-0.9H130.2
			L130.2,75.2z M137,80.2c0.9,0,1.8,0.2,2.6,0.7c0.8,0.5,1.4,1.2,1.9,2.1c0.4,0.9,0.6,1.9,0.6,3c0,1.5-0.4,2.8-1.2,3.9
			c-0.9,1.3-2.3,1.9-3.9,1.9c-1.6,0-2.9-0.6-3.8-1.7c-0.9-1.2-1.3-2.5-1.3-4c0-1.6,0.5-2.9,1.4-4.1C134.2,80.8,135.4,80.2,137,80.2
			L137,80.2z M137.1,81c-0.4,0-0.7,0.1-1,0.4c-0.3,0.3-0.5,0.9-0.6,1.8c-0.1,0.9-0.1,2.1-0.1,3.7c0,0.8,0.1,1.6,0.2,2.3
			c0.1,0.6,0.3,1,0.5,1.3c0.3,0.3,0.6,0.4,1,0.4c0.4,0,0.6-0.1,0.9-0.3c0.3-0.3,0.5-0.6,0.6-1.1c0.2-0.7,0.2-2.2,0.2-4.5
			c0-1.3-0.1-2.2-0.2-2.7c-0.1-0.5-0.4-0.9-0.7-1.1C137.7,81.1,137.4,81,137.1,81L137.1,81z M148.1,81.7v7.6c0,0.7,0.1,1.2,0.2,1.4
			c0.2,0.3,0.7,0.4,1.4,0.4v0.4h-6.4V91c0.5,0,0.8-0.1,1-0.2c0.2-0.1,0.3-0.3,0.4-0.4c0.1-0.2,0.1-0.6,0.1-1.2v-7.6h-1.6v-1.1h1.6
			v-0.8l0-0.5c0-1.1,0.4-2.1,1.2-2.8c0.8-0.7,1.9-1.1,3.3-1.1c1,0,1.7,0.2,2.1,0.5c0.5,0.4,0.7,0.8,0.7,1.2c0,0.4-0.1,0.7-0.4,0.9
			c-0.3,0.3-0.7,0.4-1.1,0.4c-0.4,0-0.7-0.1-1-0.3c-0.2-0.2-0.4-0.4-0.4-0.7c0-0.1,0-0.2,0.1-0.4c0-0.1,0-0.3,0-0.4
			c0-0.2,0-0.3-0.1-0.4c-0.1-0.1-0.3-0.2-0.5-0.2c-0.2,0-0.4,0.1-0.6,0.3c-0.2,0.2-0.2,0.5-0.2,0.9l0,2v1.4h1.6v1.1H148.1
			L148.1,81.7z M155.6,81.7h1.6v-1.1h-1.6v-1.4l0-2c0-0.4,0.1-0.7,0.2-0.9c0.2-0.2,0.3-0.3,0.6-0.3c0.2,0,0.3,0.1,0.5,0.2
			c0.1,0.1,0.1,0.2,0.1,0.4c0,0.1,0,0.2,0,0.4c0,0.2-0.1,0.4-0.1,0.4c0,0.3,0.1,0.5,0.4,0.7c0.2,0.2,0.6,0.3,1,0.3
			c0.5,0,0.9-0.1,1.1-0.4c0.3-0.3,0.4-0.6,0.4-0.9c0-0.4-0.2-0.8-0.7-1.2c-0.5-0.4-1.2-0.5-2.1-0.5c-1.4,0-2.5,0.4-3.3,1.1
			c-0.8,0.7-1.2,1.7-1.2,2.8l0,0.5v0.8h-1.6v1.1h1.6v7.6c0,0.6,0,1-0.1,1.2c-0.1,0.2-0.2,0.3-0.4,0.4c-0.2,0.1-0.6,0.2-1,0.2v0.4
			h6.4V91c-0.7,0-1.1-0.1-1.4-0.4c-0.2-0.2-0.2-0.6-0.2-1.4V81.7L155.6,81.7z M167.6,85.6h-6c0.1,1.4,0.5,2.6,1.2,3.4
			c0.5,0.6,1.2,1,1.9,1c0.5,0,0.9-0.1,1.3-0.4c0.4-0.3,0.8-0.7,1.2-1.4l0.4,0.3c-0.6,1.2-1.2,2.1-2,2.6c-0.7,0.5-1.5,0.8-2.5,0.8
			c-1.6,0-2.8-0.6-3.7-1.9c-0.7-1-1-2.2-1-3.7c0-1.8,0.5-3.3,1.5-4.3c1-1.1,2.1-1.6,3.5-1.6c1.1,0,2.1,0.4,2.9,1.4
			C167.1,82.4,167.5,83.8,167.6,85.6L167.6,85.6z M164.7,84.8c0-1.3-0.1-2.1-0.2-2.6c-0.1-0.5-0.3-0.8-0.6-1.1
			c-0.2-0.1-0.4-0.2-0.7-0.2c-0.4,0-0.7,0.2-1,0.6c-0.5,0.7-0.7,1.6-0.7,2.8v0.4H164.7L164.7,84.8z M177.7,85.6h-6
			c0.1,1.4,0.5,2.6,1.2,3.4c0.5,0.6,1.2,1,1.9,1c0.5,0,0.9-0.1,1.3-0.4c0.4-0.3,0.8-0.7,1.2-1.4l0.4,0.3c-0.6,1.2-1.2,2.1-2,2.6
			c-0.7,0.5-1.5,0.8-2.5,0.8c-1.6,0-2.8-0.6-3.7-1.9c-0.7-1-1-2.2-1-3.7c0-1.8,0.5-3.3,1.5-4.3c1-1.1,2.1-1.6,3.5-1.6
			c1.1,0,2.1,0.4,2.9,1.4C177.2,82.4,177.7,83.8,177.7,85.6L177.7,85.6z M174.9,84.8c0-1.3-0.1-2.1-0.2-2.6
			c-0.1-0.5-0.3-0.8-0.6-1.1c-0.2-0.1-0.4-0.2-0.7-0.2c-0.4,0-0.7,0.2-1,0.6c-0.5,0.7-0.7,1.6-0.7,2.8v0.4H174.9z"/>
		<path class="st9" d="M107.4,82h4.9v0.5c-0.5,0.1-1,0.2-1.3,0.5c-0.3,0.2-0.7,0.8-1.2,1.7c-0.5,0.9-1.2,1.9-2.1,3
			c0.8,0.7,1.4,1.2,1.9,1.5c0.4,0.2,0.7,0.3,1,0.3c0.6,0,1.1-0.4,1.6-1.1l0.5,0.3c-0.6,1.3-1.3,2.1-2,2.7c-0.6,0.4-1.2,0.6-1.9,0.6
			c-0.6,0-1.2-0.1-1.7-0.4c-0.5-0.3-1.2-0.7-2-1.5c-1,0.7-1.9,1.1-2.7,1.4c-0.9,0.3-1.7,0.4-2.7,0.4c-1.5,0-2.7-0.4-3.5-1.2
			c-0.9-0.8-1.3-1.7-1.3-2.8c0-1.2,0.4-2.2,1.3-3c0.8-0.9,2-1.6,3.6-2.2c-0.2-0.5-0.4-1-0.5-1.5C99,80.5,99,80,99,79.6
			c0-1.2,0.4-2.3,1.3-3.1c0.9-0.8,2-1.2,3.4-1.2c1.1,0,2,0.3,2.6,0.8c0.6,0.5,1,1.2,1,1.9c0,0.9-0.3,1.6-1,2.3
			c-0.7,0.6-1.7,1.2-3.1,1.7c0.9,1.5,2.2,3.2,3.9,5c1.1-1.3,1.7-2.4,1.7-3.3c0-0.3-0.1-0.6-0.3-0.8c-0.2-0.2-0.6-0.4-1-0.4V82
			L107.4,82z M102.7,81.3c0.8-0.3,1.4-0.6,1.6-1c0.3-0.3,0.4-0.8,0.4-1.3c0-0.9-0.2-1.6-0.7-2.2c-0.3-0.4-0.7-0.6-1.1-0.6
			c-0.4,0-0.7,0.1-0.9,0.4c-0.3,0.3-0.4,0.7-0.4,1.2c0,0.4,0.1,0.8,0.2,1.2C102,79.5,102.3,80.2,102.7,81.3L102.7,81.3z M99.9,83.2
			c-0.6,0.3-1.1,0.5-1.3,0.8c-0.4,0.4-0.5,0.9-0.5,1.5c0,0.7,0.2,1.5,0.6,2.2c0.4,0.7,0.9,1.3,1.5,1.7c0.6,0.4,1.2,0.6,1.8,0.6
			c0.3,0,0.6-0.1,1-0.2c0.4-0.1,0.8-0.3,1.2-0.6C102.4,87.3,100.9,85.3,99.9,83.2z"/>
	</g>
</g>
</svg>
