<?xml version="1.0" encoding="utf-8"?>
<!-- Generator: Adobe Illustrator 24.0.2, SVG Export Plug-In . SVG Version: 6.00 Build 0)  -->
<svg version="1.1" id="Layer_1" xmlns="http://www.w3.org/2000/svg" xmlns:xlink="http://www.w3.org/1999/xlink" x="0px" y="0px"
	 viewBox="0 0 211 133" style="enable-background:new 0 0 211 133;" xml:space="preserve">
<style type="text/css">
	
		.st0{fill-rule:evenodd;clip-rule:evenodd;fill:none;stroke:#284B8B;stroke-width:1.9899;stroke-linecap:round;stroke-linejoin:round;stroke-miterlimit:22.9256;}
	.st1{fill-rule:evenodd;clip-rule:evenodd;fill:none;}
	.st2{fill-rule:evenodd;clip-rule:evenodd;fill:#284B8B;}
	.st3{fill-rule:evenodd;clip-rule:evenodd;fill:#90D7F6;stroke:#284B8B;stroke-width:0.4799;stroke-miterlimit:22.9256;}
	.st4{fill-rule:evenodd;clip-rule:evenodd;fill:#FDFDFD;stroke:#284B8B;stroke-width:0.4799;stroke-miterlimit:22.9256;}
	.st5{fill-rule:evenodd;clip-rule:evenodd;fill:#EC3237;}
</style>
<g>
	<g>
		<g>
			<path class="st0" d="M73.1,18.5h65.5c2.1,0,3.8,1.6,3.8,3.6v68.2c0,2-1.7,3.6-3.8,3.6H73.1c-2.1,0-3.8-1.6-3.8-3.6V22.1
				C69.2,20.1,71,18.5,73.1,18.5z"/>
			<path class="st1" d="M73.1,18.5h65.5c2.1,0,3.8,1.6,3.8,3.6v68.2c0,2-1.7,3.6-3.8,3.6H73.1c-2.1,0-3.8-1.6-3.8-3.6V22.1
				C69.2,20.1,71,18.5,73.1,18.5z"/>
		</g>
		<g>
			<path class="st2" d="M124.3,50.6h0.7v3.5h-0.7V50.6L124.3,50.6z M132.9,67.9h0.5v2.5h-0.5V67.9L132.9,67.9z M130.9,70.2
				c0-1.6,0-3.2,0-4.7c-1.4-2.7-2.7-5.4-4.2-8.1c-0.5-0.7-0.4-0.4-0.4,1c-1.1,0-1.9,0-3.1,0c0.3,0.4,0.6,0.8,0.9,1.2
				c0.7,0,1.4,0,2.2,0c0,0.4,0,0.7,0,1.1c-0.4,0-0.9,0-1.3,0C127.3,63.6,129.3,66.8,130.9,70.2L130.9,70.2z M139.9,90.3
				c-5.5-7.3-7.3-16.2-11.8-23.9c-5.4-9.1-13.1-15-22.1-17.5c5.5,12.8,6.7,25.2,5.8,35.3c7,0.9,15.2,6.1,15.5,6.1H139.9L139.9,90.3z
				 M132.2,73c0.7,0,1.4,0,2.1,0c0.8,1.7,2,3.2,2.3,5.1c0.4,2.3-0.1,3.9-0.4,4.9C134.9,79.7,133.6,76.3,132.2,73L132.2,73z
				 M105.5,49.1c4.5,12.2,6.7,24.2,5.4,34.5c-1.9-11.6-4.6-19.1-9.2-25.3C99.4,55.3,103.6,51.6,105.5,49.1L105.5,49.1z M125.2,90.3
				h-22.8c-1.5,0,0-3.8,5.3-5.4c0.7-0.2-0.1-0.5-1.2-0.9c-0.8-0.3-0.4-0.9,0.5-0.8c2,0.1,3.4,0.6,3,3.9
				C112.6,82.9,119.2,87.2,125.2,90.3L125.2,90.3z M137.1,77c0-1.1,0-2.3,0-3.4c-0.5-2.6-0.6-4-2.7-5.8c-0.5-0.4-2.3-0.7-2.7-0.1
				c0,1.1,0,2.3,0,3.4c0.5-0.3,1.2-0.7,1.7-0.4C135.7,71.9,136.3,74.4,137.1,77L137.1,77z M131.1,64.7c0-1.8,0-3.5,0-5.3
				c-0.8-4-2.3-6.8-5.6-9.6c-0.7-0.6-2.4-0.1-3.2,1c0,1.8,0,3.5,0,5.3c0.7-0.4,1.9-1,2.6-0.7C128.6,57.2,129.8,60.7,131.1,64.7z"/>
			<g>
				<path class="st3" d="M91.1,58.3v1.1h4.1c0.1,0,0.3,0.1,0.3,0.3l0.1,2.1c0,0.2-0.1,0.3-0.3,0.3h-4.2v17.6
					c0.8,1.5,1.8,2.6,2.7,3.2c0.9,0.7,1.9,0.9,2.9,0.7c0.3-0.1,0.6-0.2,0.9-0.3c1-0.5,2-1.3,2.7-2.3c0.7-1,1.1-2.1,0.9-3.1
					c0-0.1-0.1-0.3-0.1-0.4h-2.2c-0.2,0-0.4-0.3-0.2-0.5c0.4-0.6,0.9-1.1,1.3-1.7c0.1-0.1-0.1,0.1,2-2.6c0.1-0.1,0.4-0.1,0.5,0
					c0.3,0.3,0.5,0.7,0.8,1c0.8,1.1,1.7,2.2,2.5,3.3c0.1,0.2,0,0.5-0.2,0.5h-2.1c0.1,2-0.4,4-1.4,5.6c-0.9,1.5-2.3,2.7-4.1,3
					c-1.9,0.4-3.6,0.7-5,1.2c-1.3,0.5-2.3,1.3-3,2.6c-0.1,0.2-0.4,0.2-0.5,0c-0.6-1.3-1.5-2.1-2.6-2.6c-1.1-0.6-2.5-0.9-4.1-1.2
					c-2.2-0.4-3.7-1.5-4.7-2.9c-1.2-1.6-1.7-3.7-1.8-5.7h-2.1c-0.2,0-0.4-0.3-0.2-0.5c0.5-0.8,1.1-1.5,1.6-2.1
					c0.5-0.7,1.1-1.4,1.6-2.1c0.1-0.2,0.4-0.2,0.5,0c0.4,0.5,0.8,1,1.2,1.5c0.8,0.9,1.6,1.9,2.3,2.8c0.2,0.2,0,0.5-0.2,0.5h-2.6
					c-0.1,1.2,0.5,2.6,1.4,3.7c1,1.3,2.4,2.3,3.7,2.4c1,0.1,2-0.2,2.9-0.9c0.9-0.7,1.7-1.7,2.3-3V62.1h-4.2c-0.1,0-0.3-0.1-0.3-0.3
					v-2.1c0-0.1,0.1-0.3,0.3-0.3h4.2v-1.1c-0.7-0.3-1.3-0.7-1.7-1.3c-0.5-0.6-0.7-1.4-0.7-2.2c0-1,0.4-2,1.1-2.6
					c0.7-0.7,1.6-1.1,2.7-1.1c1,0,2,0.4,2.7,1.1c0.7,0.7,1.1,1.6,1.1,2.6c0,0.8-0.3,1.6-0.7,2.2C92.3,57.6,91.7,58,91.1,58.3z"/>
				<circle class="st4" cx="89.7" cy="54.7" r="1.7"/>
			</g>
			<g>
				<g>
					<rect x="104.9" y="28.2" class="st3" width="3.3" height="9.8"/>
					<path class="st3" d="M105.6,28.2c0.2-1,0.2-2,0-2.9c-0.5-2,0-3.1,1-3.2l0,0c1,0.1,1.5,1.2,1,3.2c-0.2,0.9-0.2,1.9,0,2.9H105.6z
						"/>
					<path class="st3" d="M106,38c0.1,1.2-0.1,4.6-0.4,5.5c-0.2,1-0.2,1.9-0.1,2.7h2.2c0.1-0.8,0.1-1.7-0.1-2.7
						c-0.2-0.9-0.5-4.4-0.4-5.5H106z"/>
				</g>
				<g>
					
						<rect x="113.8" y="34.6" transform="matrix(0.4898 -0.8718 0.8718 0.4898 28.9847 122.016)" class="st3" width="9.8" height="3.3"/>
					<path class="st3" d="M120.3,31.5c0.6-0.8,1.1-1.6,1.4-2.5c0.6-2,1.5-2.7,2.5-2.3l0,0c0.8,0.6,0.7,1.8-0.7,3.3
						c-0.6,0.7-1.1,1.6-1.4,2.5L120.3,31.5z"/>
					<path class="st3" d="M115.8,40.2c-0.5,1.1-2.4,3.9-3,4.6c-0.7,0.7-1.1,1.6-1.4,2.3l1.9,1.1c0.5-0.6,1-1.4,1.2-2.4
						c0.3-0.9,1.7-4,2.4-5L115.8,40.2z"/>
				</g>
				<g>
					
						<rect x="123.2" y="43.2" transform="matrix(0.8561 -0.5169 0.5169 0.8561 -4.7639 72.4009)" class="st3" width="8.9" height="3"/>
					<path class="st3" d="M130.9,41.7c0.8-0.3,1.6-0.8,2.2-1.4c1.3-1.3,2.4-1.4,2.9-0.7l0,0c0.4,0.8-0.2,1.7-2,2.3
						c-0.8,0.3-1.6,0.7-2.3,1.3L130.9,41.7z"/>
					<path class="st3" d="M123.5,46.5c-0.8,0.6-3.6,2-4.4,2.3c-0.8,0.3-1.6,0.7-2.1,1.2l1,1.7c0.7-0.2,1.4-0.7,2-1.3
						c0.6-0.6,3.2-2.4,4.1-2.9L123.5,46.5z"/>
				</g>
				<g>
					
						<rect x="93.2" y="31.3" transform="matrix(0.8483 -0.5295 0.5295 0.8483 -4.7693 55.7425)" class="st3" width="3.3" height="9.8"/>
					<path class="st3" d="M91.5,32.6c-0.4-0.9-0.9-1.8-1.6-2.4c-1.5-1.5-1.6-2.6-0.8-3.2l0,0c0.9-0.5,1.9,0.2,2.6,2.2
						c0.3,0.9,0.9,1.7,1.5,2.5L91.5,32.6z"/>
					<path class="st3" d="M97,40.7c0.7,0.9,2.3,4,2.6,4.9c0.3,0.9,0.8,1.7,1.3,2.3l1.9-1.2c-0.3-0.7-0.8-1.5-1.5-2.2
						c-0.7-0.7-2.7-3.4-3.2-4.5L97,40.7z"/>
				</g>
				<g>
					
						<rect x="84.4" y="39.6" transform="matrix(0.4603 -0.8878 0.8878 0.4603 6.9529 100.3967)" class="st3" width="3.3" height="9.8"/>
					<path class="st3" d="M81.2,43.1c-0.8-0.6-1.7-1.1-2.6-1.3c-2-0.5-2.8-1.4-2.4-2.4l0,0c0.5-0.9,1.7-0.8,3.3,0.6
						c0.7,0.6,1.6,1,2.6,1.4L81.2,43.1z"/>
					<path class="st3" d="M90.1,47.3c1.1,0.4,4,2.3,4.7,2.9c0.7,0.6,1.6,1.1,2.3,1.3l1-1.9c-0.6-0.5-1.5-0.9-2.4-1.2
						c-0.9-0.2-4.1-1.6-5.1-2.2L90.1,47.3z"/>
				</g>
				<path class="st3" d="M77.9,58.3l0-3.3l1.6,0c0,0.6-0.1,1.2-0.1,1.9c0,0.5,0,1,0,1.5L77.9,58.3z"/>
				<path class="st3" d="M77.9,57.6c-1-0.2-2-0.2-2.9,0c-2,0.5-3.1,0-3.2-1l0,0c0.1-1,1.2-1.5,3.2-1c0.9,0.2,1.9,0.2,2.9,0
					L77.9,57.6z"/>
				<path class="st3" d="M106.7,29.6c13.7,0,25.1,10.2,26.9,23.4c-1.8-2.7-3.1-4.6-4.5-5.4c-1.1-0.6-2.1-0.5-3.4,0.3
					c-3.4-6.9-11.2-11.9-19-11.9c-8.6,0-16,5.2-19.2,12.7c-2.6,1.2-4.4,3.6-4.4,6.3c0,0.6,0.1,1.2,0.3,1.7h-2.7v1.8h-1.2
					c0-0.6-0.1-1.1-0.1-1.7C79.4,41.8,91.7,29.6,106.7,29.6z"/>
			</g>
		</g>
	</g>
	<g>
		<path class="st5" d="M141,110.2h-1.7l-4.6-8.3l-0.3-0.4l-0.5-1v5.2c0,1,0,1.7,0.1,2.1c0,0.4,0.1,0.8,0.3,1c0.3,0.6,0.9,1,1.7,1.2
			l-0.2,0.1h-4.6c0.6-0.2,1.1-0.5,1.3-0.7c0.2-0.3,0.4-0.6,0.5-1c0.1-0.4,0.1-0.9,0.1-1.6v-7.3l-1.3-1h5l-1.4,0.9l4.8,8.6v-1.1v-0.5
			v-4.2c0-1,0-1.5,0-1.7c0-0.2-0.1-0.4-0.2-0.6c-0.2-0.5-0.7-0.9-1.5-1.3h4.5c-0.6,0.3-1,0.5-1.2,0.7c-0.2,0.2-0.4,0.4-0.5,0.8
			c-0.2,0.5-0.2,1.2-0.2,2.2V110.2L141,110.2z M126.1,98.5h4.7l-1.3,1.2v9.4l1.2,1h-4.6l1.4-1v-9.5L126.1,98.5L126.1,98.5z
			 M114.7,98.5c-0.2,0.3-0.4,0.7-0.8,1.3c-0.2,0.4-0.4,0.9-0.7,1.5l-0.1-0.1c-0.1-0.5-0.3-0.8-0.4-1.1c-0.3-0.6-1-0.9-2-0.9
			c-0.3,0-0.6,0-1,0v9.8l1.2,1h-4.5l1.4-1.1v-9v-0.2v-0.4c-0.3,0-0.7-0.1-1-0.1c-0.6,0-1,0.1-1.3,0.2c-0.3,0.1-0.6,0.3-0.7,0.6
			c-0.2,0.4-0.3,0.8-0.4,1.3h-0.1c-0.3-0.9-0.7-1.8-1.4-2.9H114.7L114.7,98.5z M96.2,99.5v4.5c0.3,0,0.5,0,0.8,0
			c1.3,0,2.2-0.2,2.9-0.5c0.6-0.4,0.9-0.9,0.9-1.7c0-1.3-0.7-2.1-2.1-2.3c-0.3-0.1-0.8-0.1-1.4-0.1C97.1,99.4,96.7,99.4,96.2,99.5
			L96.2,99.5z M93,98.5l1.2,1.1v4.4c-1,0-1.7,0.3-2.1,1l0.1,0.1c0.4-0.3,1-0.5,1.7-0.5c0.1,0,0.2,0,0.3,0v0.4v0.2v3.6l-1.4,1.1h4.6
			l-1.2-1v-4.4h1.2c1.3,0,2.2-0.1,3-0.2c0.7-0.2,1.3-0.4,1.7-0.8c0.6-0.6,0.9-1.2,0.9-2c0-1.1-0.5-1.9-1.5-2.5
			c-0.8-0.5-2.1-0.7-4-0.7H93L93,98.5z M87.8,98.5l-1,1.1l1.6,4l0.4-0.2l0.2-0.1c0.1-0.1,0.2-0.2,0.5-0.4c0.2-0.2,0.3-0.3,0.4-0.3
			c0.1,0.3,0.2,0.6,0.3,1c0.2,0.4,0.3,0.7,0.5,0.9c-0.2,0-0.3,0-0.4,0c-0.6,0-1.1,0.1-1.4,0.3l1.8,4.5l1.5,1.1h-5l1.4-1.1
			c-0.4-1.1-0.9-2.2-1.4-3.3c-0.3,0.2-0.7,0.6-1.1,1c-0.4,0.4-0.7,0.8-0.9,1.1c-0.5-0.7-1-1.4-1.6-2.1l-0.2-0.2l-0.4-0.4
			c-0.2,0.6-0.5,1.1-0.6,1.7c-0.2,0.6-0.3,1-0.3,1.3c0,0.5,0.2,0.9,0.5,1.2c0.1,0.1,0.3,0.3,0.7,0.7h-4.9c0.6-0.3,1.1-0.6,1.5-0.9
			c0.4-0.3,0.7-0.8,1.1-1.4c0.3-0.5,0.5-0.9,0.7-1.3c0.2-0.4,0.4-1,0.7-1.8c-0.1-0.1-0.4-0.2-0.7-0.3c-0.3-0.1-0.6-0.2-0.8-0.2
			c0.1-0.2,0.3-0.4,0.5-0.8c0.2-0.3,0.3-0.6,0.4-0.8c0.1,0.1,0.3,0.3,0.6,0.5c0.2,0.1,0.3,0.3,0.5,0.4l0.2-0.4L83,103l1.3-3.4l-1-1
			H87.8L87.8,98.5z M85.2,101.1l-0.3-0.7l-1.6,3.8c0.5,0.5,1.2,1.2,1.8,2.1c0.1-0.1,0.2-0.2,0.3-0.4c0.3-0.3,0.8-0.8,1.2-1.1
			L85.2,101.1L85.2,101.1z M79,98.8l-0.2-0.1c-0.3,0.2-0.6,0.3-0.9,0.3c-0.3,0-0.7-0.1-1.2-0.3c-0.6-0.2-1-0.3-1.3-0.4
			c-0.3-0.1-0.7-0.1-1.1-0.1c-1.4,0-2.5,0.4-3.4,1.2c-1.4,1.3-2.1,2.9-2.1,5c0,1,0.2,1.9,0.5,2.8c0.5,1.1,1.2,2,2.2,2.5
			c0.8,0.5,1.8,0.7,2.9,0.7c1,0,1.8-0.2,2.5-0.6c0.7-0.4,1.1-0.9,1.4-1.7c0.2-0.6,0.3-1.1,0.3-1.6c0-0.4-0.1-0.6-0.4-0.6
			c-0.2,0-0.3,0.1-0.3,0.4c-0.1,1-0.4,1.9-1,2.4c-0.5,0.6-1.3,0.9-2.2,0.9c-0.7,0-1.2-0.2-1.8-0.5c-0.5-0.3-0.8-0.7-1.1-1.2
			c-0.5-1-0.8-2.3-0.8-3.9c0-2.3,0.5-3.8,1.5-4.5c0.5-0.4,1.1-0.6,1.7-0.6c0.4,0,0.9,0.1,1.3,0.3c0.4,0.2,0.8,0.5,1,0.9
			c0.3,0.5,0.6,1.1,0.7,1.8l0.1,0.1C77.8,100.9,78.3,99.9,79,98.8L79,98.8z M121.1,98.5h-4.5l1,1l-1.3,3.4l-0.1,0.3l-0.2,0.4
			c-0.2-0.1-0.4-0.3-0.5-0.4c-0.3-0.3-0.5-0.4-0.6-0.5c-0.1,0.2-0.2,0.5-0.4,0.8c-0.2,0.3-0.3,0.6-0.5,0.8c0.3,0,0.6,0.1,0.8,0.2
			c0.3,0.1,0.5,0.2,0.7,0.3c-0.3,0.8-0.5,1.4-0.7,1.8c-0.2,0.4-0.4,0.8-0.7,1.3c-0.4,0.6-0.7,1.1-1.1,1.4c-0.4,0.3-0.8,0.6-1.5,0.9
			h4.9c-0.4-0.4-0.6-0.6-0.7-0.7c-0.3-0.3-0.5-0.8-0.5-1.2c0-0.2,0.1-0.7,0.3-1.3c0.2-0.6,0.4-1.2,0.6-1.7l0.4,0.4l0.2,0.2
			c0.6,0.7,1.1,1.4,1.6,2.1c0.2-0.3,0.5-0.7,0.9-1.1c0.4-0.4,0.7-0.7,1.1-1c0.5,1.1,0.9,2.2,1.4,3.3l-1.4,1.1h5l-1.5-1.1l-1.8-4.5
			c0.3-0.2,0.7-0.3,1.4-0.3c0.1,0,0.2,0,0.4,0c-0.1-0.2-0.3-0.5-0.5-0.9c-0.1-0.4-0.3-0.7-0.3-1c0,0.1-0.2,0.2-0.4,0.3
			c-0.2,0.2-0.4,0.3-0.5,0.4l-0.2,0.1l-0.4,0.2l-1.6-4L121.1,98.5L121.1,98.5z M118.5,101.1l1.5,3.7c-0.4,0.3-0.9,0.8-1.2,1.1
			c-0.2,0.2-0.3,0.3-0.3,0.4c-0.7-0.9-1.3-1.6-1.8-2.1l1.6-3.8L118.5,101.1z"/>
		<path class="st2" d="M71.8,115.2v-2.5h1.4c0.3,0,0.5,0,0.6,0.1c0.1,0,0.2,0.1,0.3,0.2c0.1,0.1,0.1,0.2,0.1,0.4
			c0,0.1,0,0.3-0.1,0.4c-0.1,0.1-0.2,0.2-0.3,0.2c-0.1,0-0.2,0.1-0.3,0.1c0.1,0,0.2,0.1,0.2,0.1c0,0,0.1,0.1,0.1,0.1
			c0.1,0.1,0.1,0.1,0.1,0.2l0.4,0.7h-0.9l-0.4-0.8c-0.1-0.1-0.1-0.2-0.2-0.2c-0.1,0-0.1-0.1-0.2-0.1h-0.1v1H71.8L71.8,115.2z
			 M72.6,113.8H73c0,0,0.1,0,0.2,0c0.1,0,0.1,0,0.1-0.1c0,0,0.1-0.1,0.1-0.1c0-0.1,0-0.1-0.1-0.2c-0.1,0-0.2-0.1-0.3-0.1h-0.4V113.8
			L72.6,113.8z M78.7,112.8h2.2v0.5h-1.4v0.4h1.3v0.5h-1.3v0.5H81v0.6h-2.3V112.8L78.7,112.8z M85.2,114.4l0.8,0
			c0,0.1,0.1,0.2,0.1,0.3c0.1,0.1,0.2,0.2,0.4,0.2c0.1,0,0.2,0,0.3-0.1c0.1-0.1,0.1-0.1,0.1-0.2c0-0.1,0-0.1-0.1-0.2
			c-0.1-0.1-0.2-0.1-0.4-0.1c-0.4-0.1-0.6-0.2-0.8-0.3c-0.2-0.1-0.2-0.3-0.2-0.5c0-0.1,0-0.2,0.1-0.4c0.1-0.1,0.2-0.2,0.4-0.3
			c0.2-0.1,0.4-0.1,0.7-0.1c0.3,0,0.6,0.1,0.8,0.2c0.2,0.1,0.3,0.3,0.3,0.6l-0.8,0c0-0.1-0.1-0.2-0.1-0.2c-0.1-0.1-0.2-0.1-0.3-0.1
			c-0.1,0-0.2,0-0.2,0.1c0,0-0.1,0.1-0.1,0.1c0,0,0,0.1,0.1,0.1c0,0,0.1,0.1,0.3,0.1c0.4,0.1,0.6,0.1,0.8,0.2
			c0.2,0.1,0.3,0.2,0.3,0.3c0.1,0.1,0.1,0.2,0.1,0.4c0,0.2,0,0.3-0.1,0.4c-0.1,0.1-0.2,0.2-0.4,0.3c-0.2,0.1-0.4,0.1-0.7,0.1
			c-0.5,0-0.8-0.1-1-0.2C85.4,114.9,85.3,114.7,85.2,114.4L85.2,114.4z M91.9,112.8h2.5v0.6h-0.9v1.9h-0.8v-1.9h-0.9V112.8
			L91.9,112.8z M100.2,114.8h-1l-0.1,0.4h-0.9l1-2.5h0.9l1,2.5h-0.9L100.2,114.8L100.2,114.8z M100,114.3l-0.3-0.9l-0.3,0.9H100
			L100,114.3z M107.1,112.8h0.8v1.5c0,0.1,0,0.3-0.1,0.4c0,0.1-0.1,0.2-0.2,0.3c-0.1,0.1-0.2,0.2-0.3,0.2c-0.2,0.1-0.4,0.1-0.6,0.1
			c-0.1,0-0.3,0-0.4,0c-0.2,0-0.3-0.1-0.4-0.1c-0.1-0.1-0.2-0.1-0.3-0.2c-0.1-0.1-0.1-0.2-0.2-0.3c-0.1-0.2-0.1-0.3-0.1-0.4v-1.5
			h0.8v1.5c0,0.1,0,0.2,0.1,0.3c0.1,0.1,0.2,0.1,0.3,0.1c0.1,0,0.3,0,0.3-0.1c0.1-0.1,0.1-0.2,0.1-0.3V112.8L107.1,112.8z
			 M112.4,115.2v-2.5h1.4c0.3,0,0.5,0,0.6,0.1c0.1,0,0.2,0.1,0.3,0.2c0.1,0.1,0.1,0.2,0.1,0.4c0,0.1,0,0.3-0.1,0.4
			c-0.1,0.1-0.2,0.2-0.3,0.2c-0.1,0-0.2,0.1-0.3,0.1c0.1,0,0.2,0.1,0.2,0.1c0,0,0.1,0.1,0.1,0.1c0.1,0.1,0.1,0.1,0.1,0.2l0.4,0.7
			h-0.9l-0.4-0.8c-0.1-0.1-0.1-0.2-0.2-0.2c-0.1,0-0.1-0.1-0.2-0.1h-0.1v1H112.4L112.4,115.2z M113.3,113.8h0.4c0,0,0.1,0,0.2,0
			c0.1,0,0.1,0,0.1-0.1c0,0,0.1-0.1,0.1-0.1c0-0.1,0-0.1-0.1-0.2c-0.1,0-0.2-0.1-0.3-0.1h-0.4V113.8L113.3,113.8z M121,114.8h-1
			l-0.1,0.4h-0.9l1-2.5h0.9l1,2.5h-0.9L121,114.8L121,114.8z M120.8,114.3l-0.3-0.9l-0.3,0.9H120.8L120.8,114.3z M126.3,112.8h0.8
			l1,1.4v-1.4h0.8v2.5h-0.8l-1-1.4v1.4h-0.8V112.8L126.3,112.8z M133.2,112.8h2.5v0.6h-0.9v1.9H134v-1.9h-0.9V112.8L133.2,112.8z
			 M139.9,114.4l0.8,0c0,0.1,0.1,0.2,0.1,0.3c0.1,0.1,0.2,0.2,0.4,0.2c0.1,0,0.2,0,0.3-0.1c0.1-0.1,0.1-0.1,0.1-0.2
			c0-0.1,0-0.1-0.1-0.2c-0.1-0.1-0.2-0.1-0.4-0.1c-0.4-0.1-0.6-0.2-0.8-0.3c-0.2-0.1-0.2-0.3-0.2-0.5c0-0.1,0-0.2,0.1-0.4
			c0.1-0.1,0.2-0.2,0.4-0.3c0.2-0.1,0.4-0.1,0.7-0.1c0.3,0,0.6,0.1,0.8,0.2c0.2,0.1,0.3,0.3,0.3,0.6l-0.8,0c0-0.1-0.1-0.2-0.1-0.2
			c-0.1-0.1-0.2-0.1-0.3-0.1c-0.1,0-0.2,0-0.2,0.1c0,0-0.1,0.1-0.1,0.1c0,0,0,0.1,0.1,0.1c0,0,0.1,0.1,0.3,0.1
			c0.4,0.1,0.6,0.1,0.8,0.2c0.2,0.1,0.3,0.2,0.3,0.3c0.1,0.1,0.1,0.2,0.1,0.4c0,0.2,0,0.3-0.1,0.4c-0.1,0.1-0.2,0.2-0.4,0.3
			c-0.2,0.1-0.4,0.1-0.7,0.1c-0.5,0-0.8-0.1-1-0.2C140.1,114.9,140,114.7,139.9,114.4z"/>
	</g>
</g>
</svg>
