<?xml version="1.0" encoding="utf-8"?>
<!-- Generator: Adobe Illustrator 24.0.2, SVG Export Plug-In . SVG Version: 6.00 Build 0)  -->
<svg version="1.1" id="Layer_1" xmlns="http://www.w3.org/2000/svg" xmlns:xlink="http://www.w3.org/1999/xlink" x="0px" y="0px"
	 viewBox="0 0 211 133" style="enable-background:new 0 0 211 133;" xml:space="preserve">
<style type="text/css">
	.st0{fill-rule:evenodd;clip-rule:evenodd;fill:#FFFFFF;}
	.st1{fill-rule:evenodd;clip-rule:evenodd;fill:#0055A3;}
	.st2{fill-rule:evenodd;clip-rule:evenodd;fill:#EC1C24;}
</style>
<g>
	<path class="st0" d="M104.4,79.7c8.9,0,16.2-7.3,16.2-16.2s-7.3-16.2-16.2-16.2c-8.9,0-16.2,7.3-16.2,16.2S95.5,79.7,104.4,79.7z"
		/>
	<path class="st1" d="M93,51.9H11.8v23.3h81.4c-3.1-3-5-7.1-5-11.7C88.2,58.9,90,54.8,93,51.9z"/>
	<path class="st1" d="M126.1,59v10.5c0,0.5,0.1,1.1,0.5,1.5c0.5,0.4,1.3,0.5,1.9,0.5h0.2v1.2h-7.8v-1.2h0.2c0.6,0,1.4-0.1,1.9-0.5
		c0.4-0.4,0.6-0.9,0.6-1.5v-11c0-0.5-0.1-1.2-0.6-1.5c-0.4-0.3-1.3-0.3-1.8-0.3h-0.1l-0.2-0.9l5.3-1.6v3.2c0.8-0.7,1.6-1.4,2.5-2
		c1.2-0.7,2.6-1.2,4-1.2c1,0,1.9,0.3,2.7,0.8c0.8,0.6,1.4,1.4,1.7,2.3c0.9-0.8,1.8-1.5,2.8-2.1c1.2-0.6,2.5-1,3.8-1
		c1.3,0,2.4,0.4,3.3,1.4c0.8,0.8,1.2,1.8,1.2,3v11c0,0.6,0.1,1.1,0.6,1.5c0.5,0.4,1.3,0.5,1.9,0.5h0.2v1.2h-7.7v-1.2h0.2
		c0.6,0,1.3-0.1,1.8-0.5c0.4-0.4,0.6-0.9,0.6-1.5V59.1c0-0.8-0.3-1.5-0.8-2c-0.6-0.7-1.5-0.9-2.4-0.9c-1,0-1.9,0.3-2.8,0.8
		c-0.9,0.5-1.7,1.2-2.5,1.9v10.7c0,0.6,0.1,1.1,0.6,1.5c0.5,0.4,1.2,0.5,1.8,0.5h0.2v1.2H132v-1.2h0.2c0.6,0,1.3-0.1,1.8-0.5
		c0.4-0.4,0.5-0.9,0.5-1.5V59c0-0.8-0.3-1.4-0.8-2c-0.6-0.6-1.3-0.8-2.2-0.8c-1.1,0-2.1,0.2-3,0.8C127.6,57.5,126.8,58.3,126.1,59
		L126.1,59z M152,70.3c1.7,2.1,4,3,6.6,3c2.6,0,4.9-0.9,6.6-2.9c1.5-1.9,2.1-4.2,2.1-6.6c0-2.4-0.6-4.7-2.1-6.6
		c-1.7-2.1-4-2.9-6.6-2.9c-2.6,0-4.9,0.9-6.6,3c-1.5,1.9-2.1,4.2-2.1,6.6C150,66.2,150.5,68.4,152,70.3L152,70.3z M171.8,58.2
		L172,58c1.1-1,2.3-2,3.6-2.8c1.1-0.7,2.4-1.4,3.7-1.4c0.6,0,1.1,0.2,1.5,0.6c0.4,0.4,0.6,0.8,0.6,1.4c0,0.5-0.3,0.9-0.6,1.3
		c-0.4,0.4-0.9,0.6-1.5,0.6c-0.3,0-0.7-0.1-0.9-0.2c-0.2-0.1-0.4-0.2-0.6-0.4l0,0l0,0c-0.1-0.1-0.4-0.3-0.6-0.4l0,0l0,0
		c-0.3-0.1-0.6,0-0.9,0.1c-0.7,0.3-1.3,0.7-1.9,1.2c-0.9,0.6-1.7,1.4-2.6,2.1v9.5c0,0.5,0.1,1.1,0.5,1.4c0.4,0.4,1.3,0.4,1.9,0.4
		h0.2v1.3h-7.6v-1.3h0.2c0.6,0,1.3-0.1,1.7-0.4c0.5-0.3,0.6-0.8,0.6-1.4V58.1c0-0.4,0-1-0.4-1.2c-0.4-0.3-1.3-0.3-1.8-0.3H167
		l-0.3-0.8l5.1-1.9V58.2L171.8,58.2z M183.3,63.2h14.2v-0.2c0-2.4-0.6-4.8-2.2-6.6c-1.6-1.7-3.7-2.3-6-2.3c-2.5,0-4.7,0.9-6.4,2.8
		c-1.7,1.9-2.3,4.2-2.3,6.7c0,2.6,0.7,5,2.4,7c1.7,1.9,4,2.6,6.5,2.6c1.8,0,3.6-0.4,5.1-1.3c1.3-0.8,2.3-1.9,3.1-3.2l0.1-0.1L197,68
		l-0.1,0.1c-0.8,1.1-1.9,2-3.1,2.6c-1.2,0.6-2.5,0.9-3.8,0.9c-1.8,0-3.4-0.5-4.7-1.9C183.7,68,183.3,65.5,183.3,63.2L183.3,63.2z
		 M158.6,55.4c2,0,3.4,0.9,4.5,2.5c1.1,1.7,1.4,3.8,1.4,5.8c0,2-0.4,4-1.4,5.7c-1,1.7-2.5,2.6-4.5,2.6c-2,0-3.5-0.9-4.5-2.6
		c-1.1-1.7-1.4-3.7-1.4-5.7c0-2,0.3-4.1,1.4-5.8C155.2,56.3,156.7,55.4,158.6,55.4L158.6,55.4z M194.7,61.8h-11.4
		c0.1-1.7,0.7-3.3,1.9-4.6c1.1-1.2,2.4-1.8,4-1.8c1.5,0,2.9,0.4,3.9,1.6C194.2,58.2,194.6,60.2,194.7,61.8z"/>
	<path class="st2" d="M100.2,60.1c-0.4-1.1-0.8-2.3-1-3.7c-0.2-1.1-0.3-2-0.3-2.7c0-1.1,0.3-2,1-2.7c0.7-0.8,1.7-1.2,2.8-1.2
		c0.9,0,1.8,0.4,2.5,1.2c0.7,0.8,1.1,1.7,1.1,2.7c0,1.2-0.4,2.3-1.2,3.3C104.1,58.2,102.4,59.2,100.2,60.1L100.2,60.1z M104.4,79.7
		c2.6,0,5.1-0.6,7.3-1.7c-0.6-0.1-1.3-0.3-2-0.6c-1-0.4-1.9-1-2.7-1.8c-1,0.7-2.1,1.3-3.3,1.8c-1.4,0.5-2.7,0.8-4,0.8
		c-1.2,0-2.3-0.2-3.3-0.6C98.8,78.9,101.5,79.7,104.4,79.7L104.4,79.7z M115.1,75.6c3.3-3,5.5-7.3,5.5-12.1c0-9-7.3-16.2-16.2-16.2
		c-9,0-16.2,7.3-16.2,16.2c0,3.8,1.3,7.4,3.6,10.1c-0.7-1.1-1-2.2-1-3.4c0-2.1,0.6-3.8,1.7-5.2c1.2-1.5,3.1-2.8,5.7-3.9
		c-0.6-1.5-1-2.7-1.3-3.6c-0.3-1-0.4-2-0.4-2.8c0-1.8,0.5-3.2,1.6-4.3c1.1-1.1,2.7-1.6,4.6-1.6c1.6,0,2.8,0.5,3.9,1.5
		c1,1,1.5,2.2,1.5,3.7c0,1.4-0.4,2.5-1.3,3.5c-1.2,1.3-3.2,2.5-6.2,3.6c1.1,2.3,2.2,4.6,3.5,6.7c1.3,2.1,2.5,3.9,3.8,5.4
		c1-1.2,1.8-2.5,2.5-4.1c0.6-1.4,1-2.8,1.2-4.3c0.1-1,0-1.7-0.5-2.2c-0.5-0.4-1.3-0.7-2.6-0.7v-1h8.5v1c-1.1,0-2,0.2-2.5,0.7
		c-0.5,0.4-0.9,1.1-1.1,2c-0.5,1.8-1.1,3.5-1.8,5c-0.8,1.8-1.8,3.2-2.9,4.4c0.6,0.6,1.2,1,1.8,1.3c0.7,0.4,1.3,0.6,1.9,0.6
		C113.4,76,114.4,75.9,115.1,75.6L115.1,75.6z M106.2,74.7c-0.7,0.6-1.5,1-2.3,1.3c-0.8,0.3-1.8,0.4-2.7,0.4c-2.2,0-4-0.8-5.5-2.3
		c-1.5-1.5-2.2-3.4-2.2-5.5c0-1.4,0.4-2.6,1.2-3.7c0.9-1.2,2.2-2.2,3.9-2.8c1,2.3,2.2,4.6,3.5,6.9C103.5,71.3,104.8,73.2,106.2,74.7
		z"/>
	<path class="st0" d="M34.1,68.3l-0.8-0.4L33.3,68c-0.9,1-1.9,2.1-3.1,2.7c-0.9,0.5-2,0.7-3,0.7c-1.9,0-3.5-0.7-4.7-2.2
		c-1.2-1.6-1.6-3.7-1.6-5.7c0-2.1,0.4-4.3,1.7-6c1-1.3,2.2-2.1,3.8-2.1c0.8,0,1.6,0.1,2.3,0.6c0.5,0.4,1,1,1.3,1.6l0.3,0.6
		c0.1,0.3,0.3,0.8,0.5,1c0.3,0.4,0.7,0.5,1.2,0.5c0.7,0,1.2-0.3,1.4-0.9c0.3-0.6,0.2-1.3-0.1-1.9c-0.4-0.9-1.3-1.5-2.2-1.9
		c-1.2-0.6-2.4-0.9-3.7-0.9c-2.5,0-4.7,0.9-6.4,2.7c-2,2-2.8,4.5-2.8,7.3c0,2.4,0.8,4.5,2.4,6.3c1.6,1.7,3.5,2.7,5.9,2.7
		c1.7,0,3.2-0.5,4.6-1.5c1.2-0.9,2.2-2.1,3-3.3L34.1,68.3L34.1,68.3z M52.4,71.3l-0.5-0.6l-0.1,0.1c-0.3,0.3-0.6,0.5-1,0.7
		c-0.2,0.1-0.4,0.1-0.7,0.1c-0.3,0-0.4-0.3-0.5-0.5c-0.1-0.4-0.1-0.9-0.1-1.4V59.3c0-1.5-0.4-2.8-1.5-3.8c-1.1-1-2.5-1.3-4-1.3
		c-2,0-4.1,0.2-5.9,1.1c-1,0.5-2.2,1.3-2.2,2.6c0,0.4,0.1,0.9,0.4,1.3c0.3,0.4,0.7,0.5,1.2,0.5c0.5,0,0.9-0.2,1.2-0.6
		c0.3-0.3,0.4-0.7,0.6-1.1c0.3-0.8,0.7-1.6,1.4-2c0.9-0.5,2.1-0.6,3.1-0.6c0.9,0,1.8,0.3,2.4,1c0.6,0.7,0.8,1.7,0.8,2.6v2.6l-0.1,0
		c-2.8,0.4-6.2,1.2-8.6,2.7c-1.6,1-3,2.4-3,4.5c0,1.2,0.4,2.3,1.3,3.2c1.1,1,2.6,1.3,4.1,1.3c1.3,0,2.6-0.2,3.8-0.7
		c0.8-0.4,1.6-0.9,2.3-1.5l0.2-0.2l0,0.2c0,0.4,0.1,0.9,0.4,1.3c0.4,0.6,1,0.9,1.7,0.9c0.7,0,1.3-0.2,1.8-0.6
		C51.5,72.4,52,71.8,52.4,71.3L52.4,71.3L52.4,71.3z M47.1,69.4c-0.7,0.6-1.5,1.2-2.3,1.5c-1,0.4-2.1,0.5-3.2,0.5
		c-0.9,0-1.9-0.2-2.6-0.8c-0.6-0.5-0.8-1.2-0.8-2c0-1.8,1.2-3.1,2.6-4c1.8-1.1,4.1-1.7,6.2-1.9l0.1,0L47.1,69.4L47.1,69.4L47.1,69.4
		z M64.3,56.6L64.3,56.6c0.2,0,0.5,0.2,0.6,0.4l0,0l0,0c0.2,0.1,0.4,0.3,0.6,0.4c0.3,0.2,0.6,0.2,0.9,0.2c0.6,0,1-0.2,1.4-0.6
		c0.4-0.3,0.6-0.8,0.6-1.3c0-0.5-0.2-1-0.6-1.3c-0.4-0.4-0.9-0.6-1.4-0.6c-1.3,0-2.6,0.7-3.7,1.4c-1.3,0.8-2.4,1.8-3.6,2.8l-0.3,0.3
		v-4.5l-5,1.9l0.3,0.8h0.1c0.5,0,1.4,0,1.8,0.3c0.3,0.3,0.4,0.9,0.4,1.3v11.5c0,0.6-0.2,1.1-0.6,1.4c-0.5,0.3-1.2,0.4-1.8,0.4h-0.1
		v1.2h7.5v-1.2h-0.1c-0.5,0-1.5,0-1.9-0.4c-0.4-0.3-0.5-1-0.5-1.4V60l0,0c0.8-0.7,1.7-1.4,2.5-2.1c0.6-0.4,1.2-0.8,1.9-1.2
		C63.6,56.6,63.9,56.5,64.3,56.6L64.3,56.6L64.3,56.6z M84.6,63.2H70.4l0,0.1c0,2.2,0.4,4.7,2,6.4c1.3,1.4,2.9,1.9,4.7,1.9
		c1.3,0,2.7-0.3,3.9-0.9c1.2-0.6,2.2-1.6,3.1-2.6l0.1-0.1l0.7,0.6l-0.1,0.1c-0.8,1.2-1.8,2.4-3.1,3.2c-1.5,1-3.3,1.3-5.1,1.3
		c-2.5,0-4.7-0.8-6.4-2.6c-1.8-1.9-2.4-4.4-2.4-7c0-2.5,0.7-4.8,2.3-6.7c1.7-1.9,3.8-2.7,6.3-2.7c2.3,0,4.3,0.6,5.9,2.3
		c1.7,1.8,2.2,4.2,2.2,6.6V63.2L84.6,63.2z M81.9,61.9l0-0.1c-0.1-1.6-0.5-3.5-1.6-4.8c-1-1.1-2.4-1.6-3.9-1.6c-1.6,0-3,0.7-4.1,1.9
		c-1.2,1.3-1.8,2.8-1.9,4.5l0,0.1H81.9z"/>
	<path class="st1" d="M120.9,81.6v-4.4h0.9l1.8,2.9v-2.9h0.8v4.4h-0.9l-1.8-2.9v2.9H120.9L120.9,81.6z M125.3,77.2h0.9v2.4
		c0,0.4,0,0.6,0,0.7c0,0.2,0.1,0.3,0.3,0.4c0.1,0.1,0.3,0.2,0.6,0.2c0.3,0,0.4-0.1,0.6-0.2c0.1-0.1,0.2-0.2,0.2-0.4
		c0-0.2,0-0.4,0-0.8v-2.4h0.9v2.3c0,0.5,0,0.9-0.1,1.1c0,0.2-0.1,0.4-0.3,0.6c-0.1,0.1-0.3,0.3-0.5,0.4c-0.2,0.1-0.5,0.1-0.9,0.1
		c-0.4,0-0.7,0-1-0.1c-0.2-0.1-0.4-0.2-0.5-0.4c-0.1-0.2-0.2-0.3-0.3-0.5c-0.1-0.3-0.1-0.6-0.1-1.1V77.2L125.3,77.2z M130.8,81.6V78
		h-1.3v-0.7h3.5V78h-1.3v3.7H130.8L130.8,81.6z M133.6,81.6v-4.4h1.9c0.5,0,0.8,0,1,0.1c0.2,0.1,0.4,0.2,0.5,0.4
		c0.1,0.2,0.2,0.4,0.2,0.7c0,0.3-0.1,0.6-0.3,0.8c-0.2,0.2-0.5,0.4-0.9,0.4c0.2,0.1,0.4,0.2,0.5,0.4c0.1,0.1,0.3,0.4,0.5,0.7
		l0.5,0.9h-1.1l-0.6-1c-0.2-0.3-0.4-0.6-0.5-0.6c-0.1-0.1-0.2-0.1-0.3-0.2c-0.1,0-0.2,0-0.4,0h-0.2v1.8H133.6L133.6,81.6z
		 M134.4,79.1h0.7c0.4,0,0.7,0,0.8-0.1c0.1,0,0.2-0.1,0.3-0.2c0.1-0.1,0.1-0.2,0.1-0.3c0-0.1,0-0.3-0.1-0.4
		c-0.1-0.1-0.2-0.1-0.3-0.2c-0.1,0-0.3,0-0.7,0h-0.7V79.1L134.4,79.1z M138,81.6v-4.4h0.9v4.4H138L138,81.6z M140.7,81.6V78h-1.3
		v-0.7h3.5V78h-1.3v3.7H140.7L140.7,81.6z M143.5,81.6v-4.4h0.9v4.4H143.5L143.5,81.6z M145,79.5c0-0.5,0.1-0.8,0.2-1.1
		c0.1-0.2,0.2-0.4,0.4-0.6c0.2-0.2,0.4-0.3,0.6-0.4c0.3-0.1,0.6-0.2,1-0.2c0.7,0,1.2,0.2,1.6,0.6c0.4,0.4,0.6,1,0.6,1.7
		c0,0.7-0.2,1.3-0.6,1.7c-0.4,0.4-0.9,0.6-1.6,0.6c-0.7,0-1.2-0.2-1.6-0.6C145.2,80.7,145,80.2,145,79.5L145,79.5z M145.9,79.4
		c0,0.5,0.1,0.9,0.3,1.1c0.2,0.3,0.5,0.4,0.9,0.4c0.4,0,0.6-0.1,0.9-0.4c0.2-0.3,0.3-0.6,0.3-1.2c0-0.5-0.1-0.9-0.3-1.1
		c-0.2-0.2-0.5-0.4-0.9-0.4c-0.4,0-0.7,0.1-0.9,0.4C146.1,78.5,145.9,78.9,145.9,79.4L145.9,79.4z M150,81.6v-4.4h0.9l1.8,2.9v-2.9
		h0.8v4.4h-0.9l-1.8-2.9v2.9H150L150,81.6z M155.9,80.2l0.9-0.1c0.1,0.3,0.2,0.5,0.3,0.6c0.2,0.1,0.4,0.2,0.6,0.2
		c0.3,0,0.5-0.1,0.6-0.2c0.1-0.1,0.2-0.3,0.2-0.4c0-0.1,0-0.2-0.1-0.3c-0.1-0.1-0.2-0.1-0.3-0.2c-0.1,0-0.3-0.1-0.7-0.2
		c-0.5-0.1-0.8-0.3-1-0.4c-0.3-0.2-0.4-0.5-0.4-0.9c0-0.2,0.1-0.4,0.2-0.6c0.1-0.2,0.3-0.3,0.6-0.4c0.2-0.1,0.5-0.2,0.9-0.2
		c0.6,0,1,0.1,1.3,0.4c0.3,0.2,0.4,0.6,0.4,1l-0.9,0c0-0.2-0.1-0.4-0.2-0.5c-0.1-0.1-0.3-0.1-0.6-0.1c-0.3,0-0.5,0.1-0.6,0.2
		c-0.1,0.1-0.1,0.2-0.1,0.3c0,0.1,0,0.2,0.1,0.3c0.1,0.1,0.4,0.2,0.8,0.3c0.4,0.1,0.8,0.2,1,0.3c0.2,0.1,0.4,0.3,0.5,0.4
		c0.1,0.2,0.2,0.4,0.2,0.7c0,0.3-0.1,0.5-0.2,0.7c-0.1,0.2-0.3,0.4-0.6,0.5c-0.3,0.1-0.6,0.2-1,0.2c-0.6,0-1-0.1-1.3-0.4
		C156.2,81.1,156,80.7,155.9,80.2L155.9,80.2z M160.3,77.2h0.9v2.4c0,0.4,0,0.6,0,0.7c0,0.2,0.1,0.3,0.3,0.4
		c0.1,0.1,0.3,0.2,0.6,0.2c0.3,0,0.4-0.1,0.6-0.2c0.1-0.1,0.2-0.2,0.2-0.4c0-0.2,0-0.4,0-0.8v-2.4h0.9v2.3c0,0.5,0,0.9-0.1,1.1
		c0,0.2-0.1,0.4-0.3,0.6c-0.1,0.1-0.3,0.3-0.5,0.4c-0.2,0.1-0.5,0.1-0.9,0.1c-0.4,0-0.7,0-1-0.1c-0.2-0.1-0.4-0.2-0.5-0.4
		c-0.1-0.2-0.2-0.3-0.2-0.5c-0.1-0.3-0.1-0.6-0.1-1.1V77.2L160.3,77.2z M164.7,81.6v-4.4h1.4c0.5,0,0.9,0,1.1,0.1
		c0.3,0.1,0.5,0.2,0.6,0.4c0.2,0.2,0.3,0.5,0.3,0.9c0,0.3,0,0.5-0.1,0.7c-0.1,0.2-0.2,0.3-0.4,0.4c-0.2,0.1-0.3,0.2-0.5,0.2
		c-0.2,0-0.5,0.1-0.9,0.1h-0.6v1.7H164.7L164.7,81.6z M165.6,78v1.3h0.5c0.4,0,0.6,0,0.7-0.1c0.1,0,0.2-0.1,0.3-0.2
		c0.1-0.1,0.1-0.2,0.1-0.3c0-0.2,0-0.3-0.1-0.4c-0.1-0.1-0.2-0.2-0.4-0.2c-0.1,0-0.3,0-0.6,0H165.6L165.6,78z M168.9,81.6v-4.4h1.4
		c0.5,0,0.9,0,1.1,0.1c0.3,0.1,0.5,0.2,0.6,0.4c0.2,0.2,0.3,0.5,0.3,0.9c0,0.3,0,0.5-0.1,0.7c-0.1,0.2-0.2,0.3-0.4,0.4
		c-0.2,0.1-0.3,0.2-0.5,0.2c-0.2,0-0.5,0.1-0.9,0.1h-0.6v1.7H168.9L168.9,81.6z M169.8,78v1.3h0.5c0.4,0,0.6,0,0.7-0.1
		c0.1,0,0.2-0.1,0.3-0.2c0.1-0.1,0.1-0.2,0.1-0.3c0-0.2,0-0.3-0.1-0.4c-0.1-0.1-0.2-0.2-0.4-0.2c-0.1,0-0.3,0-0.6,0H169.8L169.8,78z
		 M173,81.6v-4.4h0.9v3.6h2.2v0.7H173L173,81.6z M176.7,81.6v-4.4h3.3V78h-2.4v1h2.2v0.7h-2.2v1.2h2.5v0.7H176.7L176.7,81.6z
		 M180.8,81.6v-4.4h1.3l0.8,3l0.8-3h1.3v4.4h-0.8v-3.5l-0.9,3.5h-0.9l-0.9-3.5v3.5H180.8L180.8,81.6z M186,81.6v-4.4h3.3V78h-2.4v1
		h2.2v0.7h-2.2v1.2h2.5v0.7H186L186,81.6z M190.1,81.6v-4.4h0.9l1.8,2.9v-2.9h0.8v4.4h-0.9l-1.8-2.9v2.9H190.1L190.1,81.6z
		 M195.6,81.6V78h-1.3v-0.7h3.5V78h-1.3v3.7H195.6z"/>
	<path class="st1" d="M197.8,54.9c0.7,0,1.3-0.3,1.7-0.7c0.4-0.4,0.7-1.1,0.7-1.7c0-0.7-0.3-1.3-0.7-1.7c-0.4-0.4-1.1-0.7-1.7-0.7
		c-0.7,0-1.3,0.3-1.7,0.7c-0.4,0.4-0.7,1.1-0.7,1.7c0,0.7,0.3,1.3,0.7,1.7C196.5,54.6,197.1,54.9,197.8,54.9L197.8,54.9z
		 M199.8,54.5c-0.5,0.5-1.2,0.8-2,0.8c-0.8,0-1.5-0.3-2-0.8c-0.5-0.5-0.8-1.2-0.8-2c0-0.8,0.3-1.5,0.8-2c0.5-0.5,1.2-0.8,2-0.8
		c0.8,0,1.5,0.3,2,0.8c0.5,0.5,0.8,1.2,0.8,2C200.7,53.2,200.3,54,199.8,54.5z"/>
	<path class="st1" d="M196.4,54.1v-3.3h1.5c0.3,0,0.5,0,0.7,0.1c0.2,0.1,0.3,0.2,0.4,0.3c0.1,0.2,0.1,0.3,0.1,0.5
		c0,0.2-0.1,0.4-0.2,0.6c-0.2,0.2-0.4,0.3-0.7,0.3c0.6,0.3,0.7,1,1,1.5h-0.6c-0.2-0.4-0.3-1.1-0.7-1.4c-0.1,0-0.1-0.1-0.2-0.1
		c-0.1,0-0.1,0-0.2,0h-0.5v1.5H196.4L196.4,54.1z M196.9,52.2h1c0.2,0,0.4,0,0.5-0.1c0.1,0,0.2-0.1,0.3-0.2c0.1-0.1,0.1-0.2,0.1-0.3
		c0-0.2-0.1-0.3-0.2-0.4c-0.1-0.1-0.3-0.2-0.5-0.2h-1.1V52.2z"/>
</g>
</svg>
