<?xml version="1.0" encoding="utf-8"?>
<!-- Generator: Adobe Illustrator 24.0.2, SVG Export Plug-In . SVG Version: 6.00 Build 0)  -->
<svg version="1.1" id="Layer_1" xmlns="http://www.w3.org/2000/svg" xmlns:xlink="http://www.w3.org/1999/xlink" x="0px" y="0px"
	 viewBox="0 0 211 133" style="enable-background:new 0 0 211 133;" xml:space="preserve">
<style type="text/css">
	.st0{fill-rule:evenodd;clip-rule:evenodd;fill:#201E1E;}
	.st1{fill-rule:evenodd;clip-rule:evenodd;fill:#FDFDFD;}
</style>
<g>
	<path class="st0" d="M155.2,67.4c0,24.6-19.9,44.5-44.5,44.5C86.1,112,66.1,92,66.1,67.4c0-24.6,19.9-44.5,44.5-44.5
		C135.2,22.9,155.2,42.8,155.2,67.4z"/>
	<path class="st1" d="M86.5,57h-5.6c-1.1,0-1.6,0.6-1.6,1.7v14.7c0,1.1,0.5,1.6,1.6,1.6h5.6c1.1,0,1.6-0.5,1.6-1.6v-4.4h-2.7v3.8H82
		V59.3h3.5v3.6h2.7v-4.2C88.1,57.6,87.6,57,86.5,57z"/>
	<path class="st1" d="M96,63.3c-0.4,0-1,0.1-1.6,0.2c-0.5,0.1-1.1,0.2-1.6,0.3v-0.4h-2.6V75h2.6v-9.4l2.1,0v2.7h2.6v-3.5
		C97.4,63.8,97,63.3,96,63.3z"/>
	<path class="st1" d="M103.9,68.1h-2.5v-2.8h2.5V68.1L103.9,68.1z M104.9,63.4h-4.5c-1,0-1.5,0.5-1.5,1.4v8.7c0,1,0.5,1.4,1.5,1.4
		h4.5c1,0,1.5-0.5,1.5-1.4v-2.4h-2.5v1.9h-2.5v-3.3h4.3l0.7-0.7v-4.3C106.4,63.9,105.9,63.4,104.9,63.4z"/>
	<path class="st1" d="M113.4,71.9c0,0.6-0.3,0.9-0.8,0.9H111v-7.2l2.5,0V71.9L113.4,71.9z M114.6,63.3c-0.5,0-1.1,0.1-1.8,0.2
		c-0.6,0.1-1.2,0.2-1.8,0.3v-0.4h-2.6v15.2h2.6l0-3.6c0.2,0,0.5,0,0.9,0c0.4,0,0.7,0,1,0c1,0,1.7-0.1,2.2-0.4c0.7-0.4,1-1,1-2v-7.9
		C116.1,63.8,115.6,63.3,114.6,63.3z"/>
	<rect x="127.4" y="57" class="st1" width="2.6" height="18"/>
	<rect x="132" y="57" class="st1" width="2.6" height="18"/>
	<path class="st1" d="M141.7,72.8h-2.5v-7.2h2.5V72.8L141.7,72.8z M142.8,63.4h-4.7c-1,0-1.5,0.5-1.5,1.4v8.7c0,1,0.5,1.4,1.5,1.4
		h4.7c1,0,1.5-0.5,1.5-1.4v-8.7C144.2,63.9,143.8,63.4,142.8,63.4z"/>
	<path class="st1" d="M122.9,68.1h-2.5v-2.8h2.5V68.1L122.9,68.1z M124,63.4h-4.5c-1,0-1.5,0.5-1.5,1.4v4.3l0.7,0.7h4.3v3.3h-2.5
		v-1.9h-2.5v2.4c0,1,0.5,1.4,1.5,1.4h4.5c1,0,1.5-0.5,1.5-1.4v-8.7C125.5,63.9,125,63.4,124,63.4z"/>
	<polygon class="st1" points="141.5,59.5 141.5,58.5 141.2,58.5 141.2,58.3 142.1,58.3 142.1,58.5 141.8,58.5 141.8,59.5 	"/>
	<polygon class="st1" points="142.2,59.5 142.2,58.3 142.6,58.3 142.8,59.1 143,58.3 143.4,58.3 143.4,59.5 143.2,59.5 143.2,58.6 
		142.9,59.5 142.7,59.5 142.5,58.6 142.5,59.5 	"/>
	<path class="st1" d="M142.3,60.5c0.3,0,0.5,0,0.7-0.1c0.2-0.1,0.4-0.2,0.5-0.4c0.1-0.1,0.2-0.3,0.3-0.5c0.1-0.2,0.1-0.4,0.1-0.7
		c0-0.2,0-0.4-0.1-0.7c-0.1-0.2-0.2-0.4-0.3-0.5c-0.1-0.1-0.3-0.3-0.5-0.4c-0.2-0.1-0.4-0.1-0.7-0.1c-0.3,0-0.5,0-0.7,0.1
		c-0.2,0.1-0.4,0.2-0.5,0.4c-0.1,0.1-0.2,0.3-0.3,0.5c-0.1,0.2-0.1,0.4-0.1,0.7c0,0.2,0,0.5,0.1,0.7c0.1,0.2,0.2,0.4,0.3,0.5
		c0.1,0.1,0.3,0.3,0.5,0.4C141.9,60.5,142.1,60.5,142.3,60.5L142.3,60.5z M142.3,60.8c-0.3,0-0.5,0-0.8-0.1
		c-0.2-0.1-0.4-0.2-0.6-0.4c-0.2-0.2-0.3-0.4-0.4-0.6c-0.1-0.2-0.1-0.5-0.1-0.8c0-0.3,0-0.5,0.1-0.8c0.1-0.2,0.2-0.4,0.4-0.6
		c0.2-0.2,0.4-0.3,0.6-0.4c0.2-0.1,0.5-0.1,0.8-0.1c0.3,0,0.5,0,0.8,0.1c0.2,0.1,0.4,0.2,0.6,0.4c0.2,0.2,0.3,0.4,0.4,0.6
		c0.1,0.2,0.1,0.5,0.1,0.8c0,0.3,0,0.5-0.1,0.8c-0.1,0.2-0.2,0.4-0.4,0.6c-0.2,0.2-0.4,0.3-0.6,0.4
		C142.9,60.7,142.6,60.8,142.3,60.8z"/>
</g>
</svg>
