<?xml version="1.0" encoding="utf-8"?>
<!-- Generator: Adobe Illustrator 24.0.2, SVG Export Plug-In . SVG Version: 6.00 Build 0)  -->
<svg version="1.1" id="Layer_1" xmlns="http://www.w3.org/2000/svg" xmlns:xlink="http://www.w3.org/1999/xlink" x="0px" y="0px"
	 viewBox="0 0 211 133" style="enable-background:new 0 0 211 133;" xml:space="preserve">
<style type="text/css">
	.st0{fill-rule:evenodd;clip-rule:evenodd;fill:#D1AD6D;}
	.st1{fill-rule:evenodd;clip-rule:evenodd;fill:#E2DBC9;}
</style>
<g>
	<path class="st0" d="M138.8,102.2h-6.4V88.7h-0.9v14.2h7.4V102.2L138.8,102.2z M120.1,97.5h5.6l-2.8-7.4L120.1,97.5L120.1,97.5z
		 M123.3,88.7l5.4,14.2h-1l-1.8-4.7h-6.2l-1.8,4.7h-1l5.5-14.2H123.3L123.3,88.7z M117.3,88.7h-8.8v0.8h3.9v13.5h0.9V89.5h4V88.7
		L117.3,88.7z M105.8,88.7h-0.9v14.2h0.9V88.7L105.8,88.7z M96.8,88.5c-2.1,0-3.7,0.7-5,2.1C90.6,92,90,93.7,90,95.8
		c0,2.2,0.6,4,1.9,5.3c1.2,1.3,2.9,2,5,2c0.8,0,1.7-0.1,2.5-0.4c0.8-0.2,1.3-0.4,1.6-0.6c0.3-0.1,0.5-0.3,0.6-0.4v-5.5h-0.9v5
		l-0.4,0.3c-0.3,0.2-0.7,0.3-1.3,0.5c-0.6,0.2-1.3,0.2-2,0.2c-1.7,0-3.1-0.6-4.2-1.8c-1.1-1.2-1.6-2.8-1.6-4.7
		c0-1.9,0.5-3.5,1.6-4.7c1.1-1.2,2.5-1.8,4.2-1.8c1,0,1.9,0.2,2.6,0.7c0.7,0.5,1.2,0.9,1.3,1.4l0.8-0.4c-0.2-0.5-0.7-1.1-1.5-1.6
		C99.2,88.8,98.1,88.5,96.8,88.5L96.8,88.5z M86.7,88.7h-0.9v14.2h0.9V88.7L86.7,88.7z M81.6,95.8c0,2-0.5,3.6-1.6,4.7
		c-1.1,1.1-2.6,1.6-4.6,1.6h-2.6V89.5h2.7c2,0,3.5,0.5,4.6,1.6C81.1,92.2,81.6,93.8,81.6,95.8L81.6,95.8z M82.6,95.8
		c0-2.2-0.6-4-1.9-5.2c-1.3-1.3-3-1.9-5.3-1.9h-3.6v14.2h3.6c2.3,0,4-0.6,5.3-1.9C82,99.8,82.6,98.1,82.6,95.8z"/>
	<path class="st0" d="M74.9,110.9h4.7c-0.1,1.1-0.5,2-1.2,2.7c-0.7,0.7-1.6,1.1-2.7,1.1c-1.1,0-2-0.4-2.8-1.1
		c-0.7-0.8-1.1-1.7-1.1-2.8c0-0.5,0.1-1,0.3-1.5c0.2-0.5,0.5-0.9,0.9-1.3c0.4-0.4,0.8-0.6,1.2-0.8c0.5-0.2,1-0.3,1.5-0.3
		c0.7,0,1.4,0.2,2,0.5c0.6,0.4,1.1,0.9,1.4,1.5h-0.9c-0.4-0.5-0.7-0.8-1.2-1c-0.4-0.2-0.9-0.3-1.4-0.3c-0.9,0-1.6,0.3-2.2,0.9
		c-0.6,0.6-0.9,1.4-0.9,2.2c0,0.9,0.3,1.7,0.9,2.3c0.6,0.6,1.3,0.9,2.2,0.9c0.7,0,1.3-0.2,1.9-0.7c0.6-0.4,0.9-1,1.1-1.7h-3.8V110.9
		L74.9,110.9z M89.6,107.7v6.8h-0.7V107h2c0.4,0,0.8,0,1.1,0.1c0.3,0.1,0.5,0.2,0.7,0.3c0.3,0.2,0.5,0.5,0.7,0.8
		c0.2,0.4,0.3,0.7,0.3,1.1c0,0.6-0.2,1.1-0.5,1.5c-0.4,0.4-0.8,0.7-1.3,0.7l1.8,2.9h-0.9l-2.3-3.6h0.7c0.5,0,0.9-0.1,1.2-0.4
		c0.3-0.3,0.5-0.6,0.5-1.1c0-0.3,0-0.5-0.1-0.7c-0.1-0.2-0.2-0.4-0.4-0.6c-0.2-0.1-0.3-0.2-0.5-0.3c-0.2-0.1-0.6-0.1-1.1-0.1H89.6
		L89.6,107.7z M103.7,110.7c0,0.9,0.3,1.7,0.9,2.3c0.6,0.6,1.3,0.9,2.2,0.9c0.9,0,1.6-0.3,2.2-0.9c0.6-0.6,0.9-1.4,0.9-2.3
		c0-0.9-0.3-1.6-0.9-2.2c-0.6-0.6-1.3-0.9-2.2-0.9c-0.4,0-0.7,0.1-1,0.2c-0.3,0.1-0.6,0.3-0.9,0.5c-0.4,0.3-0.6,0.7-0.9,1.1
		C103.8,109.8,103.7,110.2,103.7,110.7L103.7,110.7z M102.9,110.7c0-0.5,0.1-1,0.3-1.5c0.2-0.5,0.5-0.9,0.9-1.3
		c0.4-0.4,0.8-0.6,1.2-0.8c0.4-0.2,0.9-0.3,1.5-0.3c0.5,0,1,0.1,1.5,0.3c0.5,0.2,0.9,0.5,1.2,0.8c0.4,0.4,0.7,0.8,0.9,1.3
		c0.2,0.5,0.3,1,0.3,1.5c0,0.5-0.1,1-0.3,1.5c-0.2,0.4-0.4,0.9-0.8,1.2c-0.4,0.4-0.8,0.7-1.3,1c-0.5,0.2-1,0.3-1.6,0.3
		c-1.1,0-2-0.4-2.8-1.1C103.2,112.7,102.9,111.8,102.9,110.7L102.9,110.7z M119.9,107h0.7v4.8c0,0.4,0,0.6,0,0.8
		c0,0.2,0.1,0.3,0.1,0.5c0.1,0.3,0.3,0.5,0.6,0.7c0.3,0.2,0.6,0.2,0.9,0.2c0.6,0,1-0.2,1.3-0.6c0.3-0.4,0.4-1,0.4-1.8V107h0.7v4.8
		c0,1-0.2,1.7-0.6,2.2c-0.4,0.5-1,0.7-1.8,0.7c-0.9,0-1.5-0.2-1.9-0.7c-0.4-0.5-0.6-1.2-0.6-2.2V107L119.9,107z M135,107.7v2.9h1.1
		c0.6,0,1.1-0.1,1.4-0.3c0.3-0.2,0.4-0.6,0.4-1.1c0-0.5-0.1-0.9-0.4-1.1c-0.3-0.2-0.8-0.3-1.4-0.3H135L135,107.7z M134.3,107h1.6
		c0.5,0,0.8,0,1.1,0.1c0.3,0,0.5,0.1,0.7,0.2c0.3,0.2,0.6,0.5,0.8,0.8c0.2,0.3,0.3,0.7,0.3,1.1c0,0.4-0.1,0.7-0.2,1.1
		c-0.2,0.3-0.4,0.6-0.7,0.8c-0.2,0.1-0.4,0.2-0.7,0.3c-0.3,0.1-0.6,0.1-1.1,0.1h-1v3.2h-0.7V107z"/>
	<path class="st0" d="M106.1,29.2c0,0.3,0.1,0.5,0.4,0.6c0.2,0.1,0.5,0.1,0.7,0c0,0,9.2-5.3,9.2-5.3c0.2-0.1,0.4-0.4,0.4-0.6
		c0-0.3-0.1-0.5-0.4-0.6c0,0-8.4-4.9-9.2-5.3l0,0c-0.2-0.1-0.5-0.1-0.7,0c-0.2,0.1-0.4,0.4-0.4,0.6l0,0
		C106.1,22.1,106.1,25.7,106.1,29.2z"/>
	<path class="st0" d="M104.5,29.2c0,0.3-0.1,0.5-0.4,0.6c-0.2,0.1-0.5,0.1-0.7,0c0,0-9.2-5.3-9.2-5.3c-0.2-0.1-0.4-0.4-0.4-0.6
		c0-0.3,0.1-0.5,0.4-0.6c0,0,8.4-4.9,9.2-5.3l0,0c0.2-0.1,0.5-0.1,0.7,0c0.2,0.1,0.4,0.4,0.4,0.6h0
		C104.5,22.1,104.5,25.7,104.5,29.2z"/>
	<path class="st0" d="M104.5,45.1c0,0.3-0.1,0.5-0.4,0.6c-0.2,0.1-0.5,0.1-0.7,0c0,0-9.2-5.3-9.2-5.3c-0.2-0.1-0.4-0.4-0.4-0.6
		c0-0.3,0.1-0.5,0.4-0.6c0,0,8.4-4.9,9.2-5.3h0c0.2-0.1,0.5-0.1,0.7,0c0.2,0.1,0.4,0.4,0.4,0.6l0,0C104.5,38,104.5,41.5,104.5,45.1z
		"/>
	<path class="st0" d="M104.5,60.9c0,0.3-0.1,0.5-0.4,0.6c-0.2,0.1-0.5,0.1-0.7,0c0,0-9.2-5.3-9.2-5.3c-0.2-0.1-0.4-0.4-0.4-0.6
		c0-0.3,0.1-0.5,0.4-0.6c0,0,8.4-4.9,9.2-5.3h0c0.2-0.1,0.5-0.1,0.7,0c0.2,0.1,0.4,0.4,0.4,0.6l0,0
		C104.5,53.9,104.5,57.4,104.5,60.9z"/>
	<path class="st0" d="M104.5,76.8c0,0.3-0.1,0.5-0.4,0.6c-0.2,0.1-0.5,0.1-0.7,0c0,0-9.2-5.3-9.2-5.3c-0.2-0.1-0.4-0.4-0.4-0.6
		c0-0.3,0.1-0.5,0.4-0.6c0,0,8.4-4.9,9.2-5.3l0,0c0.2-0.1,0.5-0.1,0.7,0c0.2,0.1,0.4,0.4,0.4,0.6l0,0
		C104.5,69.7,104.5,73.3,104.5,76.8z"/>
	<path class="st0" d="M106.1,45.1c0,0.3,0.1,0.5,0.4,0.6c0.2,0.1,0.5,0.1,0.7,0c0,0,9.2-5.3,9.2-5.3c0.2-0.1,0.4-0.4,0.4-0.6
		c0-0.3-0.1-0.5-0.4-0.6c0,0-8.4-4.9-9.2-5.3h0c-0.2-0.1-0.5-0.1-0.7,0c-0.2,0.1-0.4,0.4-0.4,0.6l0,0
		C106.1,38,106.1,41.5,106.1,45.1z"/>
	<path class="st0" d="M106.1,60.9c0,0.3,0.1,0.5,0.4,0.6c0.2,0.1,0.5,0.1,0.7,0c0,0,9.2-5.3,9.2-5.3c0.2-0.1,0.4-0.4,0.4-0.6
		c0-0.3-0.1-0.5-0.4-0.6c0,0-8.4-4.9-9.2-5.3h0c-0.2-0.1-0.5-0.1-0.7,0c-0.2,0.1-0.4,0.4-0.4,0.6l0,0
		C106.1,53.9,106.1,57.4,106.1,60.9z"/>
	<path class="st0" d="M106.1,76.8c0,0.3,0.1,0.5,0.4,0.6c0.2,0.1,0.5,0.1,0.7,0c0,0,9.2-5.3,9.2-5.3c0.2-0.1,0.4-0.4,0.4-0.6
		c0-0.3-0.1-0.5-0.4-0.6c0,0-8.4-4.9-9.2-5.3l0,0c-0.2-0.1-0.5-0.1-0.7,0c-0.2,0.1-0.4,0.4-0.4,0.6l0,0
		C106.1,69.7,106.1,73.3,106.1,76.8z"/>
	<path class="st0" d="M118.3,37.1c0,0.3-0.1,0.5-0.4,0.6c-0.2,0.1-0.5,0.1-0.7,0c0,0-9.2-5.3-9.2-5.3c-0.2-0.1-0.4-0.4-0.4-0.6
		c0-0.3,0.1-0.5,0.4-0.6c0,0,8.4-4.9,9.2-5.3l0,0c0.2-0.1,0.5-0.1,0.7,0c0.2,0.1,0.4,0.4,0.4,0.6l0,0
		C118.3,30.1,118.3,33.6,118.3,37.1z"/>
	<path class="st0" d="M118.3,53c0,0.3-0.1,0.5-0.4,0.6c-0.2,0.1-0.5,0.1-0.7,0c0,0-9.2-5.3-9.2-5.3c-0.2-0.1-0.4-0.4-0.4-0.6
		c0-0.3,0.1-0.5,0.4-0.6c0,0,8.4-4.9,9.2-5.3l0,0c0.2-0.1,0.5-0.1,0.7,0c0.2,0.1,0.4,0.4,0.4,0.6l0,0
		C118.3,45.9,118.3,49.5,118.3,53z"/>
	<path class="st0" d="M118.3,68.9c0,0.3-0.1,0.5-0.4,0.6c-0.2,0.1-0.5,0.1-0.7,0c0,0-9.2-5.3-9.2-5.3c-0.2-0.1-0.4-0.4-0.4-0.6
		c0-0.3,0.1-0.5,0.4-0.6c0,0,8.4-4.9,9.2-5.3l0,0c0.2-0.1,0.5-0.1,0.7,0c0.2,0.1,0.4,0.4,0.4,0.6h0
		C118.3,61.8,118.3,65.3,118.3,68.9z"/>
	<path class="st0" d="M119.9,37.1c0,0.3,0.1,0.5,0.4,0.6c0.2,0.1,0.5,0.1,0.7,0c0,0,9.2-5.3,9.2-5.3c0.2-0.1,0.4-0.4,0.4-0.6
		c0-0.3-0.1-0.5-0.4-0.6c0,0-8.4-4.9-9.2-5.3v0c-0.2-0.1-0.5-0.1-0.7,0c-0.2,0.1-0.4,0.4-0.4,0.6l0,0
		C119.9,30.1,119.9,33.6,119.9,37.1z"/>
	<path class="st0" d="M119.9,53c0,0.3,0.1,0.5,0.4,0.6c0.2,0.1,0.5,0.1,0.7,0c0,0,9.2-5.3,9.2-5.3c0.2-0.1,0.4-0.4,0.4-0.6
		c0-0.3-0.1-0.5-0.4-0.6c0,0-8.4-4.9-9.2-5.3v0c-0.2-0.1-0.5-0.1-0.7,0c-0.2,0.1-0.4,0.4-0.4,0.6l0,0
		C119.9,45.9,119.9,49.5,119.9,53z"/>
	<path class="st0" d="M119.9,68.9c0,0.3,0.1,0.5,0.4,0.6c0.2,0.1,0.5,0.1,0.7,0c0,0,9.2-5.3,9.2-5.3c0.2-0.1,0.4-0.4,0.4-0.6
		c0-0.3-0.1-0.5-0.4-0.6c0,0-8.4-4.9-9.2-5.3v0c-0.2-0.1-0.5-0.1-0.7,0c-0.2,0.1-0.4,0.4-0.4,0.6h0
		C119.9,61.8,119.9,65.3,119.9,68.9z"/>
	<path class="st0" d="M92.4,37.1c0,0.3,0.1,0.5,0.4,0.6c0.2,0.1,0.5,0.1,0.7,0c0,0,9.2-5.3,9.2-5.3c0.2-0.1,0.4-0.4,0.4-0.6
		c0-0.3-0.1-0.5-0.4-0.6c0,0-8.4-4.9-9.2-5.3l0,0c-0.2-0.1-0.5-0.1-0.7,0c-0.2,0.1-0.4,0.4-0.4,0.6l0,0
		C92.4,30.1,92.4,33.6,92.4,37.1z"/>
	<path class="st0" d="M92.4,53c0,0.3,0.1,0.5,0.4,0.6c0.2,0.1,0.5,0.1,0.7,0c0,0,9.2-5.3,9.2-5.3c0.2-0.1,0.4-0.4,0.4-0.6
		c0-0.3-0.1-0.5-0.4-0.6c0,0-8.4-4.9-9.2-5.3l0,0c-0.2-0.1-0.5-0.1-0.7,0c-0.2,0.1-0.4,0.4-0.4,0.6l0,0C92.4,45.9,92.4,49.5,92.4,53
		z"/>
	<path class="st0" d="M92.4,68.9c0,0.3,0.1,0.5,0.4,0.6c0.2,0.1,0.5,0.1,0.7,0c0,0,9.2-5.3,9.2-5.3c0.2-0.1,0.4-0.4,0.4-0.6
		c0-0.3-0.1-0.5-0.4-0.6c0,0-8.4-4.9-9.2-5.3l0,0c-0.2-0.1-0.5-0.1-0.7,0c-0.2,0.1-0.4,0.4-0.4,0.6h0C92.4,61.8,92.4,65.3,92.4,68.9
		z"/>
	<path class="st0" d="M132,45.1c0,0.3-0.1,0.5-0.4,0.6c-0.2,0.1-0.5,0.1-0.7,0c0,0-9.2-5.3-9.2-5.3c-0.2-0.1-0.4-0.4-0.4-0.6
		c0-0.3,0.1-0.5,0.4-0.6c0,0,8.4-4.9,9.2-5.3h0c0.2-0.1,0.5-0.1,0.7,0c0.2,0.1,0.4,0.4,0.4,0.6l0,0C132,38,132,41.5,132,45.1z"/>
	<path class="st0" d="M132,60.9c0,0.3-0.1,0.5-0.4,0.6c-0.2,0.1-0.5,0.1-0.7,0c0,0-9.2-5.3-9.2-5.3c-0.2-0.1-0.4-0.4-0.4-0.6
		c0-0.3,0.1-0.5,0.4-0.6c0,0,8.4-4.9,9.2-5.3h0c0.2-0.1,0.5-0.1,0.7,0c0.2,0.1,0.4,0.4,0.4,0.6l0,0C132,53.9,132,57.4,132,60.9z"/>
	<path class="st1" d="M78.7,45.1c0,0.3,0.1,0.5,0.4,0.6c0.2,0.1,0.5,0.1,0.7,0c0,0,9.2-5.3,9.2-5.3c0.2-0.1,0.4-0.4,0.4-0.6
		c0-0.3-0.1-0.5-0.4-0.6c0,0-8.4-4.9-9.2-5.3h0c-0.2-0.1-0.5-0.1-0.7,0c-0.2,0.1-0.4,0.4-0.4,0.6l0,0C78.7,38,78.7,41.5,78.7,45.1z"
		/>
	<path class="st1" d="M78.7,60.9c0,0.3,0.1,0.5,0.4,0.6c0.2,0.1,0.5,0.1,0.7,0c0,0,9.2-5.3,9.2-5.3c0.2-0.1,0.4-0.4,0.4-0.6
		c0-0.3-0.1-0.5-0.4-0.6c0,0-8.4-4.9-9.2-5.3h0c-0.2-0.1-0.5-0.1-0.7,0c-0.2,0.1-0.4,0.4-0.4,0.6l0,0C78.7,53.9,78.7,57.4,78.7,60.9
		z"/>
	<path class="st1" d="M90.8,37.1c0,0.3-0.1,0.5-0.4,0.6c-0.2,0.1-0.5,0.1-0.7,0c0,0-9.2-5.3-9.2-5.3c-0.2-0.1-0.4-0.4-0.4-0.6
		c0-0.3,0.1-0.5,0.4-0.6c0,0,8.4-4.9,9.2-5.3l0,0c0.2-0.1,0.5-0.1,0.7,0c0.2,0.1,0.4,0.4,0.4,0.6l0,0C90.8,30.1,90.8,33.6,90.8,37.1
		z"/>
	<path class="st1" d="M90.8,53c0,0.3-0.1,0.5-0.4,0.6c-0.2,0.1-0.5,0.1-0.7,0c0,0-9.2-5.3-9.2-5.3c-0.2-0.1-0.4-0.4-0.4-0.6
		c0-0.3,0.1-0.5,0.4-0.6c0,0,8.4-4.9,9.2-5.3l0,0c0.2-0.1,0.5-0.1,0.7,0c0.2,0.1,0.4,0.4,0.4,0.6l0,0C90.8,45.9,90.8,49.5,90.8,53z"
		/>
	<path class="st1" d="M90.8,68.9c0,0.3-0.1,0.5-0.4,0.6c-0.2,0.1-0.5,0.1-0.7,0c0,0-9.2-5.3-9.2-5.3c-0.2-0.1-0.4-0.4-0.4-0.6
		c0-0.3,0.1-0.5,0.4-0.6c0,0,8.4-4.9,9.2-5.3l0,0c0.2-0.1,0.5-0.1,0.7,0c0.2,0.1,0.4,0.4,0.4,0.6h0C90.8,61.8,90.8,65.3,90.8,68.9z"
		/>
</g>
</svg>
