<?xml version="1.0" encoding="utf-8"?>
<!-- Generator: Adobe Illustrator 24.0.2, SVG Export Plug-In . SVG Version: 6.00 Build 0)  -->
<svg version="1.1" id="Layer_1" xmlns="http://www.w3.org/2000/svg" xmlns:xlink="http://www.w3.org/1999/xlink" x="0px" y="0px"
	 viewBox="0 0 211 133" style="enable-background:new 0 0 211 133;" xml:space="preserve">
<style type="text/css">
	.st0{fill-rule:evenodd;clip-rule:evenodd;fill:#263868;}
	.st1{fill-rule:evenodd;clip-rule:evenodd;fill:#F48534;}
</style>
<g>
	<path class="st0" d="M46,97.2l71.2-11.3V36.8L65.1,53.5c0.9,0.2,1.8,0.4,2.6,0.8c1.7,0.7,3.3,1.8,4.6,3.2c1.3,1.4,2.4,3,3.1,4.8
		c0.7,1.8,1.1,3.8,1.2,6.1V69c0,2.3-0.4,4.3-1.1,6c-0.7,1.8-1.8,3.3-3.2,4.7c-1.4,1.3-3,2.3-4.7,3c-1.8,0.7-3.7,1-5.7,1v-8.9
		c0.6,0.1,1.2,0,1.7-0.3c0.5-0.3,1.1-0.6,1.6-1.1c0.5-0.5,0.8-1.2,1.1-2c0.3-0.8,0.4-1.7,0.4-2.7c0-1.2-0.2-2.2-0.5-3.1
		c-0.3-0.8-0.8-1.5-1.4-2c-0.6-0.5-1.3-0.8-2-1.1c-0.7-0.2-1.5-0.4-2.3-0.4v21.4h-9.6l0,0V58.1l-5,1.6V97.2L46,97.2L46,97.2z
		 M80,83.6V53.2h9.6v30.4H80L80,83.6L80,83.6z M93.5,83.6v-8.8h6.8c0.7,0,4.3-0.2,0-3.9c-0.2-0.1-0.3-0.3-0.5-0.4
		c-0.9-0.7-1.8-1.4-2.5-2.1c-0.8-0.7-1.4-1.5-2-2.2c-4.7-5.7-0.3-12.4,7.2-12.8c0.3,0,0.6,0,0.9,0l9.2-0.1v8.2h-6.5
		c-4.8,0-0.2,3.5,0.3,3.8c0.9,0.7,1.7,1.3,2.5,2c0.8,0.7,1.6,1.4,2.3,2.1c0.7,0.7,1.3,1.5,1.7,2.4c0.4,0.9,0.6,1.8,0.7,2.9v1
		c0,1.4-0.3,2.6-0.8,3.6c-0.5,1-1.3,1.8-2.3,2.5c-1,0.6-2.1,1.1-3.2,1.5c-1.1,0.4-2.3,0.6-3.5,0.6c-0.1,0-0.1,0-0.2,0
		c-0.1,0-0.1,0-0.2,0c-0.1,0-0.1,0-0.2,0c-0.1,0-0.1,0-0.2,0L93.5,83.6L93.5,83.6z"/>
	<polygon class="st1" points="89.4,50.7 87,35.6 76.6,35.6 81.4,50.7 89.4,50.7 	"/>
	<path class="st0" d="M123.6,55.8c0.5,0,0.9,0,1.2,0.1c0.3,0.1,0.6,0.2,0.9,0.5c0.6,0.5,0.9,1.2,0.9,2.1c0,0.8-0.2,1.5-0.7,2
		c-0.3,0.3-0.6,0.5-0.9,0.6c-0.3,0.1-0.7,0.2-1.1,0.2H122v-5.5H123.6L123.6,55.8z M123.3,60.3h0.4c0.3,0,0.5,0,0.7-0.1
		c0.2-0.1,0.3-0.2,0.5-0.5c0.2-0.3,0.3-0.7,0.3-1.2c0-0.5-0.1-0.9-0.4-1.2c-0.1-0.2-0.3-0.3-0.5-0.4c-0.2-0.1-0.4-0.1-0.6-0.1h-0.4
		V60.3L123.3,60.3z M128.6,56.9V58h2.1v1h-2.1v1.2h2.6v1.1h-3.9v-5.5h3.9v1.1H128.6L128.6,56.9z M134.6,61.3h-1.4l-1.7-5.5h1.4
		l1.1,3.9l1.1-3.9h1.1L134.6,61.3L134.6,61.3z M138,56.9V58h2.1v1H138v1.2h2.6v1.1h-3.9v-5.5h3.9v1.1H138L138,56.9z M144.9,60.2v1.1
		h-3.5v-5.5h1.3v4.4H144.9L144.9,60.2z M145.8,60.5c-0.4-0.5-0.6-1.2-0.6-2c0-0.5,0.1-1,0.3-1.4c0.2-0.4,0.4-0.8,0.8-1
		c0.4-0.3,0.8-0.4,1.3-0.4c0.8,0,1.3,0.3,1.7,0.8c0.2,0.3,0.3,0.6,0.4,0.9c0.1,0.4,0.2,0.7,0.2,1c0,0.3,0,0.7-0.1,1
		c-0.1,0.3-0.2,0.6-0.4,0.9c-0.4,0.6-1,0.9-1.8,0.9C146.8,61.4,146.2,61.1,145.8,60.5L145.8,60.5z M146.7,57.4
		c-0.1,0.3-0.2,0.7-0.2,1.1c0,1.2,0.3,1.8,1,1.8c0.4,0,0.7-0.2,0.8-0.6c0.1-0.3,0.2-0.7,0.2-1.2c0-0.5-0.1-0.9-0.2-1.2
		c-0.1-0.4-0.4-0.5-0.8-0.5C147.1,56.8,146.9,57,146.7,57.4L146.7,57.4z M152,61.3h-1.3v-5.5h2.1c0.3,0,0.6,0,0.8,0
		c0.2,0,0.4,0.1,0.6,0.3c0.5,0.3,0.7,0.8,0.7,1.4c0,0.6-0.2,1.1-0.6,1.4c-0.2,0.2-0.4,0.3-0.7,0.3c-0.2,0-0.5,0.1-0.9,0.1H152V61.3
		L152,61.3z M152.7,58.3c0.2,0,0.3,0,0.5,0c0.1,0,0.2-0.1,0.3-0.2c0.1-0.1,0.2-0.3,0.2-0.5c0-0.3-0.1-0.4-0.3-0.6
		c-0.1-0.1-0.4-0.2-0.7-0.2H152v1.4H152.7L152.7,58.3z M157,56.9V58h2.1v1H157v1.2h2.6v1.1h-3.9v-5.5h3.9v1.1H157L157,56.9z
		 M161.9,55.8c0.5,0,0.9,0,1.2,0.1c0.3,0.1,0.6,0.2,0.9,0.5c0.6,0.5,0.9,1.2,0.9,2.1c0,0.8-0.2,1.5-0.7,2c-0.3,0.3-0.6,0.5-0.9,0.6
		c-0.3,0.1-0.7,0.2-1.1,0.2h-1.8v-5.5H161.9L161.9,55.8z M161.6,60.3h0.4c0.3,0,0.5,0,0.7-0.1c0.2-0.1,0.3-0.2,0.5-0.5
		c0.2-0.3,0.3-0.7,0.3-1.2c0-0.5-0.1-0.9-0.4-1.2c-0.1-0.2-0.3-0.3-0.5-0.4c-0.2-0.1-0.4-0.1-0.6-0.1h-0.4V60.3z"/>
	<path class="st0" d="M123.3,70.2h-1.3v-5.5h1.3V70.2L123.3,70.2z M128.7,70.2h-1.1l-2.1-3.7h0v3.7h-1v-5.5h1.4l1.8,3.2h0v-3.2h1
		V70.2L128.7,70.2z M131.3,64.7c0.5,0,0.9,0,1.2,0.1c0.3,0.1,0.6,0.2,0.9,0.5c0.6,0.5,0.9,1.2,0.9,2.1c0,0.8-0.2,1.5-0.7,2
		c-0.3,0.3-0.6,0.5-0.9,0.6c-0.3,0.1-0.7,0.2-1.1,0.2h-1.8v-5.5H131.3L131.3,64.7z M131,69.1h0.4c0.3,0,0.5,0,0.7-0.1
		c0.2-0.1,0.3-0.2,0.5-0.5c0.2-0.3,0.3-0.7,0.3-1.2c0-0.5-0.1-0.9-0.4-1.2c-0.1-0.2-0.3-0.3-0.5-0.4c-0.2-0.1-0.4-0.1-0.6-0.1H131
		V69.1L131,69.1z M139.3,68c0,0.4,0,0.7-0.1,1c-0.1,0.3-0.2,0.5-0.4,0.7c-0.4,0.4-0.9,0.6-1.7,0.6c-0.8,0-1.3-0.2-1.7-0.5
		c-0.2-0.2-0.4-0.5-0.5-0.7c-0.1-0.3-0.1-0.6-0.1-1v-3.3h1.4V68c0,0.4,0,0.7,0.1,0.9c0.1,0.2,0.4,0.4,0.8,0.4c0.4,0,0.6-0.1,0.8-0.3
		c0.1-0.2,0.2-0.5,0.2-0.9v-3.3h1.1V68L139.3,68z M143.1,66.2c-0.2-0.4-0.5-0.6-1-0.6c-0.5,0-0.8,0.2-0.8,0.5c0,0.3,0.3,0.5,0.8,0.5
		c0.4,0.1,0.7,0.2,0.9,0.2c0.2,0.1,0.4,0.1,0.5,0.3c0.5,0.3,0.7,0.7,0.7,1.3c0,0.6-0.2,1-0.7,1.4c-0.4,0.3-0.9,0.4-1.6,0.4
		c-0.6,0-1-0.1-1.4-0.4c-0.4-0.2-0.7-0.6-0.8-1.1l1.2-0.3c0.1,0.5,0.5,0.8,1.1,0.8c0.2,0,0.4,0,0.6-0.1c0.2-0.1,0.3-0.2,0.3-0.4
		c0-0.2-0.1-0.3-0.2-0.4c-0.2-0.1-0.4-0.1-0.7-0.2c-0.4-0.1-0.7-0.2-1-0.3c-0.3-0.1-0.5-0.3-0.7-0.5c-0.2-0.2-0.3-0.5-0.3-0.9
		c0-0.5,0.2-1,0.6-1.3c0.4-0.3,0.8-0.4,1.4-0.4c1.1,0,1.8,0.4,2.1,1.3L143.1,66.2L143.1,66.2z M148.8,65.8h-1.4v4.4h-1.3v-4.4h-1.4
		v-1.1h4.1V65.8L148.8,65.8z M150.7,70.2h-1.3v-5.5h2.3c0.3,0,0.6,0,0.8,0c0.2,0,0.4,0.1,0.6,0.2c0.2,0.1,0.4,0.3,0.5,0.6
		c0.1,0.2,0.2,0.5,0.2,0.8c0,0.3-0.1,0.6-0.3,0.9c-0.2,0.3-0.4,0.4-0.7,0.5l1,2.4h-1.4l-0.9-2.2h-0.9V70.2L150.7,70.2z M150.7,67
		h0.7c0.4,0,0.6,0,0.8-0.1c0.2-0.1,0.3-0.3,0.3-0.6c0-0.1,0-0.2-0.1-0.3c-0.1-0.1-0.1-0.2-0.2-0.2c-0.1-0.1-0.3-0.1-0.5-0.1h-0.3
		h-0.7V67L150.7,67z M156,70.2h-1.3v-5.5h1.3V70.2L156,70.2z M161.6,70.2h-1.4l-0.3-1.1h-1.8l-0.3,1.1h-1.1l1.8-5.5h1.5L161.6,70.2
		L161.6,70.2z M159.6,68l-0.6-1.9l-0.6,1.9H159.6L159.6,68z M165.7,69.1v1.1h-3.5v-5.5h1.3v4.4H165.7z"/>
	<path class="st0" d="M124.8,75c-0.2-0.4-0.5-0.6-1-0.6c-0.5,0-0.8,0.2-0.8,0.5c0,0.3,0.3,0.5,0.8,0.5c0.4,0.1,0.7,0.2,0.9,0.2
		c0.2,0.1,0.4,0.1,0.5,0.3c0.5,0.3,0.7,0.7,0.7,1.3c0,0.6-0.2,1-0.7,1.4c-0.4,0.3-0.9,0.4-1.6,0.4c-0.6,0-1-0.1-1.4-0.4
		c-0.4-0.3-0.7-0.6-0.8-1.1l1.2-0.3c0.1,0.5,0.5,0.8,1.1,0.8c0.2,0,0.4,0,0.6-0.1c0.2-0.1,0.3-0.2,0.3-0.4c0-0.2-0.1-0.3-0.2-0.4
		c-0.2-0.1-0.4-0.1-0.7-0.2c-0.4-0.1-0.7-0.2-1-0.3c-0.3-0.1-0.5-0.3-0.7-0.5c-0.2-0.2-0.3-0.5-0.3-0.9c0-0.5,0.2-1,0.6-1.3
		c0.4-0.3,0.8-0.4,1.4-0.4c1.1,0,1.8,0.4,2.1,1.3L124.8,75L124.8,75z M127.2,78.2c-0.4-0.5-0.6-1.2-0.6-2c0-0.5,0.1-1,0.3-1.4
		c0.2-0.4,0.4-0.8,0.8-1c0.4-0.3,0.8-0.4,1.3-0.4c0.8,0,1.3,0.3,1.7,0.8c0.2,0.3,0.3,0.6,0.4,0.9c0.1,0.4,0.2,0.7,0.2,1
		c0,0.3,0,0.7-0.1,1c-0.1,0.3-0.2,0.6-0.4,0.9c-0.4,0.6-1,0.9-1.8,0.9C128.2,79,127.6,78.8,127.2,78.2L127.2,78.2z M128.1,75.1
		c-0.1,0.3-0.2,0.7-0.2,1.1c0,1.2,0.3,1.8,1,1.8c0.4,0,0.7-0.2,0.8-0.6c0.1-0.3,0.2-0.7,0.2-1.2c0-0.5-0.1-0.9-0.2-1.2
		c-0.1-0.4-0.4-0.5-0.8-0.5C128.6,74.4,128.3,74.7,128.1,75.1L128.1,75.1z M135.6,77.9V79h-3.5v-5.5h1.3v4.4H135.6L135.6,77.9z
		 M140.4,76.8c0,0.4,0,0.7-0.1,1c-0.1,0.3-0.2,0.5-0.4,0.7c-0.4,0.4-0.9,0.6-1.7,0.6c-0.8,0-1.3-0.2-1.7-0.5
		c-0.2-0.2-0.4-0.5-0.5-0.7c-0.1-0.3-0.1-0.6-0.1-1v-3.3h1.4v3.3c0,0.4,0,0.7,0.1,0.9c0.1,0.2,0.4,0.4,0.8,0.4
		c0.4,0,0.6-0.1,0.8-0.3c0.1-0.2,0.2-0.5,0.2-0.9v-3.3h1.1V76.8L140.4,76.8z M145.1,74.6h-1.4V79h-1.3v-4.4H141v-1.1h4.1V74.6
		L145.1,74.6z M147.1,79h-1.3v-5.5h1.3V79L147.1,79z M148.5,78.2c-0.4-0.5-0.6-1.2-0.6-2c0-0.5,0.1-1,0.3-1.4c0.2-0.4,0.4-0.8,0.8-1
		c0.4-0.3,0.8-0.4,1.3-0.4c0.8,0,1.3,0.3,1.7,0.8c0.2,0.3,0.3,0.6,0.4,0.9c0.1,0.4,0.2,0.7,0.2,1c0,0.3,0,0.7-0.1,1
		c-0.1,0.3-0.2,0.6-0.4,0.9c-0.4,0.6-1,0.9-1.8,0.9C149.5,79,148.9,78.8,148.5,78.2L148.5,78.2z M149.4,75.1
		c-0.1,0.3-0.2,0.7-0.2,1.1c0,1.2,0.3,1.8,1,1.8c0.4,0,0.7-0.2,0.8-0.6c0.1-0.3,0.2-0.7,0.2-1.2c0-0.5-0.1-0.9-0.2-1.2
		c-0.1-0.4-0.4-0.5-0.8-0.5C149.9,74.4,149.6,74.7,149.4,75.1L149.4,75.1z M157.7,79h-1.1l-2.1-3.7h0V79h-1v-5.5h1.4l1.8,3.2h0v-3.2
		h1V79L157.7,79z M161.5,75c-0.2-0.4-0.5-0.6-1-0.6c-0.5,0-0.8,0.2-0.8,0.5c0,0.3,0.3,0.5,0.8,0.5c0.4,0.1,0.7,0.2,0.9,0.2
		c0.2,0.1,0.4,0.1,0.5,0.3c0.5,0.3,0.7,0.7,0.7,1.3c0,0.6-0.2,1-0.7,1.4c-0.4,0.3-0.9,0.4-1.6,0.4c-0.6,0-1-0.1-1.4-0.4
		c-0.4-0.3-0.7-0.6-0.8-1.1l1.2-0.3c0.1,0.5,0.5,0.8,1.1,0.8c0.2,0,0.4,0,0.6-0.1c0.2-0.1,0.3-0.2,0.3-0.4c0-0.2-0.1-0.3-0.2-0.4
		c-0.2-0.1-0.4-0.1-0.7-0.2c-0.4-0.1-0.7-0.2-1-0.3c-0.3-0.1-0.5-0.3-0.7-0.5c-0.2-0.2-0.3-0.5-0.3-0.9c0-0.5,0.2-1,0.6-1.3
		c0.4-0.3,0.8-0.4,1.4-0.4c1.1,0,1.8,0.4,2.1,1.3L161.5,75z"/>
</g>
</svg>
