<?xml version="1.0" encoding="utf-8"?>
<!-- Generator: Adobe Illustrator 24.0.2, SVG Export Plug-In . SVG Version: 6.00 Build 0)  -->
<svg version="1.1" id="Layer_1" xmlns="http://www.w3.org/2000/svg" xmlns:xlink="http://www.w3.org/1999/xlink" x="0px" y="0px"
	 viewBox="0 0 211 133" style="enable-background:new 0 0 211 133;" xml:space="preserve">
<style type="text/css">
	.st0{fill-rule:evenodd;clip-rule:evenodd;fill:#373435;}
	.st1{fill-rule:evenodd;clip-rule:evenodd;fill:#8D2929;}
</style>
<g>
	<path class="st0" d="M57.1,49.2l0.4,7.5l-0.5,0c-0.2-1.3-0.5-2.3-1-3.2c-0.5-0.8-1.1-1.6-2-2.2c-0.7-0.5-1.6-0.9-2.5-1.1
		c-1-0.2-2.3-0.3-3.9-0.3h-5.2v13.7h1.4c1.4,0,2.4-0.1,3.1-0.3c0.7-0.2,1.3-0.5,1.7-1c0.4-0.4,0.7-1,1-1.6c0.2-0.6,0.4-1.5,0.5-2.7
		l0.5,0l-0.1,12.2h-0.5c-0.1-1.2-0.3-2.1-0.6-2.8c-0.3-0.7-0.6-1.3-1.1-1.8c-0.5-0.5-1.1-0.8-1.8-1.1c-0.7-0.2-1.7-0.3-2.8-0.3h-1.3
		v5.2c0,2.1,0.1,3.6,0.2,4.6c0.1,1,0.3,1.7,0.6,2.4c0.5,1.1,1.3,1.9,2.4,2.4c1.1,0.5,2.5,0.8,4.2,0.8c1.8,0,3.4-0.2,4.6-0.7
		c1.2-0.5,2.2-1.2,3-2.2c0.5-0.7,1-1.4,1.3-2.2c0.3-0.8,0.7-1.9,1-3.3l0.5,0l-0.3,8.5l0,0l0,0l0,0l0,0l0,0l0,0l0,0h0l0,0l0,0l0,0
		l0,0l0,0l0,0l0,0l0,0l0,0l0,0l0,0l0,0l0,0l0,0l0,0l0,0l0,0l0,0l0,0l0,0l0,0l0,0l0,0h0l0,0l0,0l0,0l0,0l0,0l0,0l0,0l0,0l0,0l0,0l0,0
		l0,0h0l0,0l0,0l0,0l0,0l0,0l0,0l0,0l0,0l0,0l0,0l0,0l0,0h0l0,0l0,0l0,0l0,0l0,0l0,0l0,0l0,0l0,0l0,0l0,0l0,0l0,0l0,0l0,0l0,0l0,0
		l0,0l0,0l0,0l0,0l0,0l0,0l0,0l0,0l0,0l0,0l0,0l0,0l0,0l0,0l0,0l0,0l0,0l0,0l0,0l0,0l0,0l0,0l0,0l0,0l0,0l0,0l0,0l0,0l0,0l0,0l0,0
		l0,0l0,0l0,0l0,0l0,0l0,0l0,0l0,0l0,0l0,0c0.5-0.2,1-0.5,1.4-1c0.5-0.5,0.8-1.1,1-1.9c0.2-0.7,0.3-1.9,0.3-3.5V56.4
		c0-0.7,0-1.4-0.1-2c-0.1-1.1-0.2-1.9-0.5-2.5c-0.4-0.7-0.9-1.2-1.6-1.6c-0.7-0.3-1.5-0.5-2.6-0.6v-0.5h9.9l9.9,24.4l10.3-24.4h9.4
		v0.5c-0.9,0-1.6,0.2-2.1,0.4c-0.5,0.2-1,0.5-1.4,1c-0.3,0.3-0.6,0.7-0.8,1.1c-0.2,0.4-0.3,0.9-0.3,1.5c-0.1,0.8-0.2,1.7-0.2,2.8
		v16.8c0,1.6,0.1,2.7,0.3,3.5c0.2,0.8,0.5,1.4,1,1.8c0.8,0.8,2,1.2,3.5,1.3v0.5H84.3v-0.5c0.9,0,1.6-0.2,2.1-0.4
		c0.5-0.2,1-0.5,1.5-1c0.5-0.5,0.8-1.1,1-1.9c0.2-0.7,0.3-1.9,0.3-3.5V52.8L77.3,80.4h-0.5L65.1,53.2v20c0,1.6,0.1,2.7,0.3,3.5
		c0.2,0.7,0.5,1.4,1,1.8c0.4,0.4,0.9,0.8,1.4,1c0.5,0.2,1.2,0.3,2.1,0.4v0.5H59.8h-0.4H32.5v-0.5c0.9,0,1.6-0.2,2.1-0.4
		c0.5-0.2,1-0.5,1.4-1c0.5-0.5,0.8-1.1,1-1.9c0.2-0.7,0.3-1.9,0.3-3.5V56.4c0-1.6-0.1-2.7-0.3-3.5c-0.2-0.8-0.5-1.4-1-1.9
		c-0.4-0.4-0.9-0.8-1.4-1c-0.5-0.2-1.3-0.3-2.1-0.4v-0.5H57.1L57.1,49.2z M180.4,46.6v-6.8h-0.5c0,0.9-0.2,1.6-0.4,2.1
		c-0.2,0.5-0.5,1-1,1.4c-0.5,0.5-1.1,0.8-1.8,1c-0.7,0.2-1.9,0.2-3.5,0.2H38.6c-1.6,0-2.7-0.1-3.5-0.2c-0.7-0.2-1.4-0.5-1.8-1
		c-0.4-0.4-0.8-0.9-1-1.4c-0.2-0.5-0.3-1.3-0.4-2.1h-0.5v6.8H180.4L180.4,46.6z M180.4,83v6.8h-0.5c0-0.9-0.2-1.6-0.4-2.1
		c-0.2-0.5-0.5-1-1-1.4c-0.5-0.5-1.1-0.8-1.8-1c-0.7-0.2-1.9-0.2-3.5-0.2H38.6c-1.6,0-2.7,0.1-3.5,0.2c-0.7,0.2-1.4,0.5-1.8,1
		c-0.4,0.4-0.8,0.9-1,1.4c-0.2,0.5-0.3,1.3-0.4,2.1h-0.5V83H180.4L180.4,83z M140.4,49.1l0.3,10.2h-0.5c-0.2-0.4-0.3-0.8-0.4-1
		c-0.5-1.5-1-2.5-1.3-3.3c-0.6-1.3-1.5-2.5-2.6-3.5c-0.8-0.8-1.7-1.4-2.7-1.8c-0.9-0.4-1.9-0.5-3.1-0.5c-1.7,0-3.2,0.4-4.5,1.1
		c-1.1,0.6-2.1,1.6-3.1,2.8c-1,1.2-1.7,2.6-2.4,4.2c-0.9,2.2-1.3,4.7-1.3,7.5c0,2.4,0.3,4.5,0.9,6.5c0.6,1.9,1.5,3.5,2.6,4.8
		c2.1,2.4,4.9,3.6,8.4,3.6c1.7,0,3.3-0.3,4.7-0.9l0,0l0,0l0,0l0,0l0,0l0,0l0,0l0,0l0,0l0,0l0,0l0,0l0,0l0,0l0,0l0,0l0,0l0,0l0,0l0,0
		l0,0l0,0h0l0,0l0,0l0,0l0,0l0,0l0,0l0,0l0,0l0,0l0,0l0,0l0,0l0,0l0,0l0,0l0,0l0,0l0,0l0,0l0,0l0,0l0,0l0,0l0,0l0,0l0,0l0,0l0,0l0,0
		l0,0l0,0l0,0l0,0l0,0l0,0l0,0l0,0l0,0l0,0l0,0l0,0l0,0l0,0l0,0l0,0l0,0l0,0l0,0l0,0l0,0l0,0l0,0l0,0l0,0l0,0l0,0l0,0l0,0l0,0l0,0
		l0,0l0,0l0,0l0,0l0,0l0,0l0,0l0,0l0,0l0,0l0,0l0,0l0,0l0,0l0,0l0,0l0,0l0,0l0,0l0,0l0,0l0,0l0,0l0,0l0,0l0,0l0,0l0,0l0,0l0,0l0,0
		l0,0l0,0l0,0l0,0l0,0l0,0l0,0l0,0l0,0l0,0l0,0l0,0l0,0l0,0l0,0l0,0l0,0l0,0l0,0l0,0l0,0l0,0l0,0l0,0l0,0l0,0l0,0l0,0l0,0l0,0l0,0
		l0,0l0,0l0,0v0l0,0l0,0l0,0v0l0,0l0,0l0,0l0,0l0,0l0,0l0,0l0,0l0,0l0,0l0,0l0,0l0,0l0,0l0,0l0,0l0,0l0,0l0,0l0,0l0,0l0,0v0l0,0l0,0
		l0,0v0l0,0v0v0c0-1.3,0.4-2.3,1.2-3.2c0.5-0.5,1-0.8,1.6-1.1c0.6-0.3,1.5-0.6,2.6-0.9c1.3-0.3,2.3-0.6,2.9-0.8
		c0.6-0.2,1.2-0.5,1.6-0.8c0.5-0.4,0.8-0.8,1-1.2c0.2-0.5,0.3-1.1,0.3-2c0-1.8-0.3-3.1-1-3.9c-0.3-0.4-0.7-0.7-1.2-0.9
		c-0.5-0.2-1-0.3-1.5-0.3c-0.6,0-1.2,0.2-1.7,0.5c-0.5,0.3-0.9,0.8-1.1,1.3l-0.6,1.3c-0.3,0.7-0.8,1.1-1.6,1.1c-0.5,0-1-0.2-1.3-0.5
		c-0.4-0.3-0.5-0.8-0.5-1.3c0-0.8,0.5-1.4,1.6-2c0.6-0.3,1.3-0.5,2.2-0.7c0.9-0.2,1.7-0.3,2.6-0.3c0.9,0,1.9,0.1,2.9,0.4
		c1,0.2,1.9,0.6,2.6,0.9c1,0.6,1.6,1.3,1.9,2.2c0.1,0.5,0.2,1.2,0.2,2.3v8.4c0,1.4,0.1,2.4,0.2,2.9c0.3,1.1,0.9,1.6,1.9,1.6
		c0.5,0,0.8-0.1,1.1-0.2c0.3-0.2,0.6-0.5,1-1l0,0l0,0l0,0l0,0l0,0l0,0l0,0l0,0l0,0l0,0l0,0l0,0l0,0l0,0l0,0l0,0l0,0l0,0l0,0l0,0l0,0
		l0,0l0,0l0,0l0,0l0,0l0,0l0,0l0,0l0,0l0,0l0,0l0,0l0,0l0,0v0l0,0l0,0l0,0l0,0l0,0l0,0l0,0l0,0l0,0l0,0l0,0l0,0l0,0l0,0l0,0l0,0l0,0
		l0,0l0,0l0,0v0l0,0l0,0l0,0l0,0l0,0l0,0l0,0l0,0l0,0l0,0l0,0l0,0l0,0l0,0l0,0l0,0l0,0l0,0l0,0l0,0v0l0,0l0,0l0,0l0,0l0,0l0,0l0,0
		l0,0l0,0l0,0l0,0l0,0l0,0l0,0l0,0l0,0l0,0l0,0v0l0,0l0,0l0,0l0,0l0,0l0,0l0,0l0,0l0,0l0,0l0,0l0,0l0,0l0,0l0,0l0,0l0,0l0,0v0l0,0
		c0.1-0.7,0.1-1.7,0.1-3.1V61.8h-3.3V61h3.3v-5.6c0-1.3,0.2-2.4,0.5-3.2c0.3-0.8,1-1.5,1.8-2.2c0.8-0.6,1.8-1,2.9-1.4
		c1.1-0.3,2.4-0.5,3.6-0.5c1.2,0,2.1,0.2,2.9,0.6c0.7,0.4,1.1,1,1.1,1.6c0,0.5-0.1,0.8-0.4,1.1c-0.3,0.3-0.7,0.5-1.1,0.5
		c-0.4,0-0.8-0.1-1.1-0.3c-0.3-0.2-0.6-0.6-0.9-1.1c-0.4-0.7-0.8-1.2-1.1-1.4c-0.3-0.2-0.6-0.3-1.1-0.3c-0.6,0-1.1,0.1-1.6,0.4
		c-0.5,0.2-0.9,0.5-1.2,0.9c-0.3,0.4-0.5,1-0.7,1.7c-0.1,0.7-0.2,1.7-0.2,3V61h4.5v0.9h-4.5v11.9l0,1.7c0,1,0.1,1.8,0.2,2.3
		c0.1,0.5,0.4,0.9,0.7,1.2c0.4,0.4,1.2,0.7,2.4,0.9v0.5h-8.5l0,0l0,0l0,0l0,0l0,0l0,0l0,0l0,0l0,0l0,0l0,0l0,0l0,0l0,0l0,0l0,0l0,0
		l0,0l0,0l0,0l0,0l0,0l0,0l0,0l0,0l0,0l0,0l0,0l0,0l0,0l0,0l0,0l0,0l0,0l0,0h0l0,0l0,0l0,0l0,0l0,0l0,0l0,0l0,0l0,0l0,0l0,0l0,0l0,0
		l0,0l0,0l0,0l0,0l0,0l0,0l0,0l0,0l0,0l0,0l0,0l0,0l0,0l0,0l0,0l0,0l0,0l0,0l0,0l0,0l0,0l0,0l-0.1,0l0,0l0,0l0,0l0,0l0,0l0,0l0,0
		l0,0l0,0l0,0h0l-0.1,0l0,0l0,0l0,0h0c-1.1,0-2-0.3-2.7-0.8c-0.5-0.3-1-1-1.5-1.8c-1,0.9-1.8,1.5-2.3,1.8c-1,0.5-2.1,0.8-3.5,0.8
		c-1.7,0-3-0.4-4-1.2l0,0l0,0l0,0l0,0l0,0l0,0l0,0l0,0l0,0l0,0l0,0l0,0l0,0l0,0l0,0l0,0l0,0l0,0l0,0l0,0l0,0l0,0l0,0l0,0l0,0l0,0
		l0,0l0,0l0,0l0,0l0,0l0,0l0,0l0,0l0,0l0,0l0,0l0,0l0,0l0,0l0,0l0,0l0,0l0,0l0,0l0,0l0,0l0,0l0,0l0,0l0,0l0,0l0,0l0,0l0,0l0,0l0,0
		l0,0l0,0l0,0l0,0l0,0l0,0l0,0l0,0l0,0l0,0l0,0l0,0l0,0l0,0l0,0l0,0l0,0l0,0l0,0l0,0l0,0l0,0l0,0l0,0l0,0l0,0l0,0l0,0l0,0l0,0l0,0
		l0,0l0,0l0,0l0,0l0,0l0,0l0,0l0,0l0,0l0,0l0,0l0,0l0,0l0,0l0,0l0,0l0,0l0,0l0,0l0,0l0,0l0,0l0,0l0,0l0,0l0,0l0,0l0,0l0,0l0,0l0,0
		l0,0l0,0l0,0l0,0l0,0l0,0l0,0l0,0l0,0l0,0l0,0l0,0l0,0l0,0l0,0l0,0l0,0l0,0l0,0l0,0l0,0l0,0l0,0l0,0l0,0l0,0l0,0l0,0l0,0l0,0l0,0
		l0,0l0,0l0,0l0,0l0,0l0,0l0,0l0,0l0,0l0,0l0,0l0,0l0,0l0,0l0,0l0,0l0,0l0,0l0,0l0,0l0,0l0,0l0,0l0,0l0,0l-0.1,0l0,0l0,0l0,0l0,0
		l0,0l0,0l0,0l0,0c-1.7,0.7-3.7,1.1-5.9,1.1c-2.1,0-4.1-0.3-6-0.9c-3.1-1-5.4-2.8-7.2-5.4c-1.7-2.6-2.6-5.8-2.6-9.4
		c0-2.8,0.5-5.4,1.5-7.7c1-2.4,2.4-4.2,4.2-5.7c1.4-1.1,3-2,5-2.6c1.9-0.6,3.9-1,5.8-1c1.8,0,3.8,0.4,5.8,1.1l1.9,0.6
		c0.4,0.1,0.7,0.2,1,0.2c0.4,0,0.7-0.2,0.9-0.5c0.1-0.2,0.2-0.4,0.4-0.8L140.4,49.1L140.4,49.1z M166.4,68h13.4
		c0-1.9-0.6-3.5-1.7-4.8c-0.7-0.8-1.6-1.5-2.6-1.9c-1-0.4-2.2-0.6-3.4-0.6c-2.3,0-4.3,0.7-6.1,2.1c-2.5,1.9-3.7,4.6-3.7,8.1
		c0,2.5,0.6,4.6,1.9,6.3c0.9,1.2,2.1,2.2,3.4,2.7c1.3,0.6,2.9,0.9,4.8,0.9c2.2,0,3.9-0.5,5.2-1.4c1.3-0.9,2.2-2.3,2.5-4l-0.5-0.2
		c-0.4,1.2-0.9,2-1.4,2.6c-0.5,0.5-1.1,0.9-1.8,1.1c-0.7,0.3-1.5,0.4-2.3,0.4c-1.1,0-2.2-0.2-3.2-0.7c-1-0.5-1.9-1.2-2.5-2
		c-0.7-0.8-1.2-1.9-1.6-3.1c-0.4-1.3-0.6-2.6-0.6-3.9C166.3,69.3,166.4,68.7,166.4,68L166.4,68z M176.4,67.1
		c-0.1-1.5-0.4-2.7-0.8-3.5c-0.4-0.7-1-1.3-1.6-1.8c-0.7-0.4-1.4-0.7-2.2-0.7c-1.3,0-2.5,0.6-3.4,1.7c-1,1.1-1.6,2.5-1.7,4.2H176.4
		L176.4,67.1z M169.8,57.6l4.2-6.2h4.2l-7.3,6.2H169.8L169.8,57.6z M148.4,69.2c-0.8,0.7-1.7,1.3-2.7,1.8c-1.1,0.6-1.9,1-2.3,1.3
		c-0.4,0.3-0.8,0.7-1.2,1.1c-0.7,0.9-1.1,1.9-1.1,3.1c0,1,0.3,1.8,0.8,2.5c0.6,0.7,1.3,1,2.1,1c0.7,0,1.4-0.2,2.1-0.7
		c0.7-0.5,1.2-1.1,1.5-1.9c0.5-1,0.7-2.5,0.7-4.4V69.2L148.4,69.2z M113.4,49.2H98.9v0.5c0.9,0,1.6,0.2,2.1,0.4c0.6,0.2,1,0.5,1.4,1
		c0.5,0.5,0.8,1.1,1,1.8c0.2,0.7,0.2,1.9,0.2,3.5v16.8c0,1.6-0.1,2.7-0.2,3.5c-0.2,0.7-0.5,1.4-1,1.8c-0.4,0.4-0.9,0.7-1.4,1
		c-0.5,0.2-1.3,0.3-2.1,0.4v0.5h14.6v-0.5c-1-0.1-1.9-0.2-2.5-0.5c-0.6-0.3-1.1-0.7-1.5-1.4c-0.3-0.4-0.5-1-0.6-1.8
		c-0.1-0.7-0.2-1.7-0.2-3V56.4c0-1.1,0-2,0.1-2.8c0.1-1.1,0.5-1.9,1.1-2.5c0.4-0.4,0.9-0.8,1.4-1c0.5-0.2,1.2-0.3,2.1-0.4V49.2z"/>
	<path class="st1" d="M47,89v2.8h-0.2c-0.2-0.7-0.5-1.3-1-1.7c-0.5-0.4-1-0.6-1.6-0.6c-0.5,0-1,0.1-1.4,0.4
		c-0.4,0.3-0.7,0.7-0.9,1.1c-0.3,0.6-0.4,1.3-0.4,2c0,0.7,0.1,1.4,0.3,2c0.2,0.6,0.5,1,0.9,1.3c0.4,0.3,0.9,0.5,1.5,0.5
		c0.5,0,1-0.1,1.4-0.3c0.4-0.2,0.9-0.6,1.3-1.2v0.7c-0.5,0.5-0.9,0.8-1.4,1c-0.5,0.2-1.1,0.3-1.7,0.3c-0.9,0-1.6-0.2-2.3-0.5
		c-0.7-0.3-1.2-0.8-1.6-1.5c-0.4-0.7-0.5-1.3-0.5-2.1c0-0.8,0.2-1.5,0.6-2.2c0.4-0.7,0.9-1.2,1.6-1.6c0.7-0.4,1.4-0.6,2.2-0.6
		c0.6,0,1.2,0.1,1.8,0.4c0.4,0.1,0.6,0.2,0.7,0.2c0.1,0,0.2,0,0.3-0.1c0.1-0.1,0.2-0.2,0.2-0.4H47L47,89z M69,94.5l-0.3,2.8h-7.2
		v-0.2h0.3c0.2,0,0.4,0,0.6-0.1c0.1-0.1,0.2-0.2,0.2-0.3c0-0.1,0.1-0.3,0.1-0.8v-5.3c0-0.4,0-0.7-0.1-0.8c0-0.1-0.1-0.2-0.3-0.3
		c-0.1-0.1-0.3-0.1-0.5-0.1h-0.3v-0.2h4.3v0.2h-0.4c-0.2,0-0.4,0-0.6,0.1c-0.1,0.1-0.2,0.2-0.2,0.3c0,0.1-0.1,0.3-0.1,0.8v5.2
		c0,0.4,0,0.7,0.1,0.8c0,0.1,0.1,0.2,0.3,0.3c0.1,0,0.3,0.1,0.7,0.1h0.7c0.4,0,0.8-0.1,1.1-0.2c0.3-0.2,0.5-0.4,0.7-0.7
		c0.2-0.3,0.4-0.8,0.6-1.4H69L69,94.5z M88,95h-2.9l-0.3,0.8c-0.1,0.3-0.2,0.5-0.2,0.7c0,0.2,0.1,0.4,0.3,0.5
		c0.1,0.1,0.4,0.1,0.8,0.1v0.2H83v-0.2c0.3,0,0.5-0.2,0.7-0.4c0.2-0.2,0.4-0.6,0.7-1.2l2.9-6.5h0.1l2.9,6.6c0.3,0.6,0.5,1,0.7,1.2
		c0.1,0.1,0.3,0.2,0.6,0.2v0.2h-3.9v-0.2h0.2c0.3,0,0.5,0,0.7-0.1c0.1-0.1,0.1-0.2,0.1-0.3c0-0.1,0-0.1,0-0.2c0,0-0.1-0.2-0.2-0.4
		L88,95L88,95z M87.8,94.6l-1.2-2.8l-1.2,2.8H87.8L87.8,94.6z M111.1,89l0.1,2.7h-0.2c-0.1-0.7-0.4-1.2-0.9-1.6
		c-0.5-0.4-0.9-0.6-1.5-0.6c-0.4,0-0.7,0.1-1,0.3c-0.2,0.2-0.4,0.5-0.4,0.8c0,0.2,0,0.3,0.1,0.5c0.1,0.2,0.3,0.4,0.6,0.6
		c0.2,0.1,0.6,0.4,1.3,0.7c0.9,0.5,1.6,0.9,1.9,1.3c0.3,0.4,0.5,0.9,0.5,1.4c0,0.7-0.3,1.3-0.8,1.7c-0.5,0.5-1.2,0.7-2,0.7
		c-0.3,0-0.5,0-0.7-0.1c-0.2-0.1-0.5-0.2-0.9-0.3c-0.2-0.1-0.3-0.1-0.5-0.1c-0.1,0-0.2,0-0.3,0.1c-0.1,0.1-0.2,0.2-0.3,0.4H106v-3.1
		h0.2c0.2,0.9,0.5,1.5,1,2c0.5,0.5,1,0.7,1.6,0.7c0.4,0,0.8-0.1,1.1-0.4c0.3-0.2,0.4-0.5,0.4-0.8c0-0.2-0.1-0.4-0.2-0.6
		c-0.1-0.2-0.3-0.3-0.5-0.5c-0.2-0.2-0.6-0.4-1.1-0.6c-0.7-0.4-1.3-0.7-1.6-0.9c-0.3-0.3-0.6-0.5-0.7-0.9c-0.2-0.3-0.3-0.7-0.3-1
		c0-0.6,0.2-1.2,0.7-1.6c0.5-0.5,1.1-0.7,1.8-0.7c0.3,0,0.5,0,0.8,0.1c0.2,0,0.4,0.1,0.7,0.3c0.3,0.1,0.5,0.2,0.6,0.2
		c0.1,0,0.2,0,0.2-0.1c0.1-0.1,0.1-0.2,0.2-0.5H111.1L111.1,89z M131.4,89l0.1,2.7h-0.2c-0.1-0.7-0.4-1.2-0.9-1.6
		c-0.5-0.4-0.9-0.6-1.5-0.6c-0.4,0-0.7,0.1-1,0.3c-0.2,0.2-0.4,0.5-0.4,0.8c0,0.2,0,0.3,0.1,0.5c0.1,0.2,0.3,0.4,0.6,0.6
		c0.2,0.1,0.6,0.4,1.3,0.7c0.9,0.5,1.6,0.9,1.9,1.3c0.3,0.4,0.5,0.9,0.5,1.4c0,0.7-0.3,1.3-0.8,1.7c-0.5,0.5-1.2,0.7-2,0.7
		c-0.3,0-0.5,0-0.7-0.1c-0.2-0.1-0.5-0.2-0.9-0.3c-0.2-0.1-0.3-0.1-0.5-0.1c-0.1,0-0.2,0-0.3,0.1c-0.1,0.1-0.2,0.2-0.3,0.4h-0.2
		v-3.1h0.2c0.2,0.9,0.5,1.5,1,2c0.5,0.5,1,0.7,1.6,0.7c0.4,0,0.8-0.1,1.1-0.4c0.3-0.2,0.4-0.5,0.4-0.8c0-0.2-0.1-0.4-0.2-0.6
		c-0.1-0.2-0.3-0.3-0.5-0.5c-0.2-0.2-0.6-0.4-1.1-0.6c-0.7-0.4-1.3-0.7-1.6-0.9c-0.3-0.3-0.6-0.5-0.7-0.9c-0.2-0.3-0.3-0.7-0.3-1
		c0-0.6,0.2-1.2,0.7-1.6c0.5-0.5,1.1-0.7,1.8-0.7c0.3,0,0.5,0,0.8,0.1c0.2,0,0.4,0.1,0.7,0.3c0.3,0.1,0.5,0.2,0.6,0.2
		c0.1,0,0.2,0,0.2-0.1c0.1-0.1,0.1-0.2,0.2-0.5H131.4L131.4,89z M150.5,97.1v0.2h-4.2v-0.2h0.3c0.2,0,0.4,0,0.6-0.1
		c0.1-0.1,0.2-0.2,0.2-0.3c0-0.1,0.1-0.3,0.1-0.8v-5.3c0-0.4,0-0.7-0.1-0.8c0-0.1-0.1-0.2-0.3-0.3c-0.1-0.1-0.3-0.1-0.5-0.1h-0.3
		v-0.2h4.2v0.2h-0.3c-0.2,0-0.4,0-0.6,0.1c-0.1,0.1-0.2,0.2-0.2,0.3c0,0.1-0.1,0.3-0.1,0.8v5.3c0,0.4,0,0.7,0.1,0.8
		c0,0.1,0.1,0.2,0.3,0.3c0.1,0.1,0.3,0.1,0.5,0.1H150.5L150.5,97.1z M172.5,89v2.8h-0.2c-0.2-0.7-0.5-1.3-1-1.7
		c-0.5-0.4-1-0.6-1.6-0.6c-0.5,0-1,0.1-1.4,0.4c-0.4,0.3-0.7,0.7-0.9,1.1c-0.3,0.6-0.4,1.3-0.4,2c0,0.7,0.1,1.4,0.3,2
		c0.2,0.6,0.5,1,0.9,1.3c0.4,0.3,0.9,0.5,1.5,0.5c0.5,0,1-0.1,1.4-0.3c0.4-0.2,0.9-0.6,1.3-1.2v0.7c-0.5,0.5-0.9,0.8-1.4,1
		c-0.5,0.2-1.1,0.3-1.7,0.3c-0.9,0-1.6-0.2-2.3-0.5c-0.7-0.3-1.2-0.8-1.6-1.5c-0.4-0.7-0.5-1.3-0.5-2.1c0-0.8,0.2-1.5,0.6-2.2
		c0.4-0.7,0.9-1.2,1.6-1.6c0.7-0.4,1.4-0.6,2.2-0.6c0.6,0,1.2,0.1,1.8,0.4c0.4,0.1,0.6,0.2,0.7,0.2c0.1,0,0.2,0,0.3-0.1
		c0.1-0.1,0.2-0.2,0.2-0.4H172.5z"/>
	<path class="st1" d="M105.9,47.6c-1.6,0-3-0.5-4.1-1.6c-1.1-1.1-1.6-2.4-1.6-4c0-1.5,0.5-2.9,1.6-3.9c1.1-1.1,2.5-1.6,4-1.6
		c1.6,0,2.9,0.5,4,1.6c1.1,1.1,1.6,2.4,1.6,3.9c0,1.6-0.5,2.9-1.6,4C108.9,47.1,107.5,47.6,105.9,47.6z"/>
</g>
</svg>
