<?xml version="1.0" encoding="utf-8"?>
<!-- Generator: Adobe Illustrator 24.0.2, SVG Export Plug-In . SVG Version: 6.00 Build 0)  -->
<svg version="1.1" id="Layer_1" xmlns="http://www.w3.org/2000/svg" xmlns:xlink="http://www.w3.org/1999/xlink" x="0px" y="0px"
	 viewBox="0 0 211 133" style="enable-background:new 0 0 211 133;" xml:space="preserve">
<style type="text/css">
	.st0{fill-rule:evenodd;clip-rule:evenodd;fill:#B12D30;}
	.st1{fill-rule:evenodd;clip-rule:evenodd;fill:#FDFDFD;}
	.st2{fill-rule:evenodd;clip-rule:evenodd;fill:#8D2929;}
</style>
<g>
	<path class="st0" d="M57.9,96.7C74.5,96.7,88,83.2,88,66.5c0-14.1-9.7-25.9-22.7-29.2c0.6,2.4,0.9,4.9,0.9,7.5
		c0,16.6-13.5,30.1-30.1,30.1c-2.6,0-5-0.3-7.4-0.9C32,87,43.8,96.7,57.9,96.7z"/>
	<g>
		<path class="st1" d="M80.6,71.6c0,0.5-0.4,1.6-1,3.1c-1.1,2.9-2.8,5-5.1,6.5l0,0c-1.2,0.8-2.5,1.1-3.9,1c-1.4-0.1-2.2-0.8-2.5-2.3
			c-0.1-0.5-0.1-1.8,0-3.8c-1,1.9-2.3,3.4-3.8,4.4l0,0l-0.2,0.1l0,0l0,0c-1.5,0.7-2.5,1.3-3.1,1.6c-1.5,0.9-2.5,1.6-2.9,2.3
			c-1.2,2.1-2.3,4.2-3.5,6.3c-1.6,2.7-3.3,4.2-4.9,4.7c-1.2,0.3-2.6,0.4-4,0.3c-2.9-0.2-4.8-0.6-5.6-1.1L40,94.9l0.2-0.2
			c0.8,0.2,1.6,0.3,2.5,0.4c2.3,0.2,4.6-0.4,6.7-1.8c1.9-1.2,3.6-2.9,5-5c0.1-0.2,0.8-1.3,2-3.4c0.8-1.4,1.6-2.5,2.3-3.2
			c0.7-0.8,1.9-1.6,3.4-2.4c1.7-0.9,2.8-1.6,3.5-2.1l0,0c1.1-0.8,1.9-1.5,2.2-2.1c0.5-0.7,0.7-1.8,0.8-3.2c0-0.5,0.1-1.3,0.1-2.4
			c0-1.1,0-1.8,0.1-2.4c0-0.3,0.2-0.7,0.5-1.4c0.3-0.7,0.6-1.1,0.7-1.3l0.2,0.1c0,1.5,0,3.4-0.2,5.8c-0.2,2.9-0.3,4.8-0.3,5.8
			c0,1,0.1,1.7,0.3,2.1c0.3,0.5,1,0.8,1.9,0.9c1.2,0.1,2.4-0.3,3.6-1l0,0l0,0c0.1-0.1,0.2-0.1,0.2-0.2l0,0c0.6-0.4,1.2-0.8,1.7-1.5
			c0.8-0.8,1.2-1.6,1.3-2.2c0-0.3-0.1-0.6-0.3-0.7c-0.9,0.6-1.6,0.9-2.2,0.9c-0.4,0-0.7-0.2-1-0.4c-0.3-0.3-0.4-0.6-0.4-1
			c0-0.7,0.5-1.7,1.2-3c0.8-1.4,1.5-2.1,2.1-2c0.7,0,1.3,0.5,1.8,1.4C80.4,70.1,80.6,70.9,80.6,71.6z"/>
		<path class="st1" d="M79.7,62.8l-0.9,1.3c-0.4,0.6-0.8,0.9-1.1,1.1c-0.5-0.3-1-0.8-1.6-1.3c0.1-0.1,0.7-1,1.9-2.6
			C79.1,61.9,79.7,62.3,79.7,62.8z"/>
		<path class="st1" d="M89.5,38.4c-6,10.1-9.3,17.1-9.7,20.9l-0.6,0.4c-0.2-1-0.2-2.4,0-4.1c-2.1,2.3-4.7,4.6-8,6.9
			c-3.8,2.7-6.9,4.2-9.3,4.5l-0.4-0.2c2.5-1.3,6.1-3.6,10.9-6.8c3.1-2.5,6.1-5.9,9.1-10.1c1.2-1.7,3.7-5.6,7.3-11.5l0.5-0.2
			L89.5,38.4z"/>
	</g>
	<polygon class="st0" points="44.8,41.6 47.5,50 56.3,50 49.2,55.2 51.9,63.6 44.8,58.4 37.6,63.6 40.4,55.2 33.2,50 42.1,50 	"/>
	<g>
		<path class="st2" d="M101.8,84v-1.3h3.2v-24h-3.3v-1.2h22.6l0.2,7.7h-1.4c-0.7-2.4-1.5-4.1-2.6-5c-1.1-1-2.7-1.5-4.8-1.5h-4.1
			l0,10.9c0.1,0,0.2,0,0.3,0c0.1,0,0.3,0,0.6,0c1.4,0,2.5-0.4,3.2-1.2c0.7-0.8,1.2-2,1.5-3.7h1.4v11.3h-1.4
			c-0.1-1.8-0.6-3.2-1.4-3.9c-0.8-0.8-1.9-1.2-3.5-1.2h-0.8v11.7h3.9V84H101.8L101.8,84z M167.2,82.8h1.9V69.3h-2.2v-1.2
			c1.3-0.1,2.6-0.1,3.9-0.2c1.3-0.1,2.6-0.2,3.9-0.3V72c0.6-1.4,1.3-2.4,2.2-3.2c0.9-0.8,1.8-1.2,2.8-1.2c1,0,1.9,0.3,2.5,1
			c0.7,0.6,1,1.5,1,2.4c0,0.9-0.3,1.6-0.8,2.1c-0.5,0.6-1.2,0.8-2.1,0.8c-0.7,0-1.3-0.3-1.9-0.8c-0.5-0.5-0.8-1.2-0.8-1.9
			c0-0.3,0.1-0.6,0.2-0.9c0.2-0.3,0.2-0.5,0.2-0.6c0-0.1,0-0.1-0.1-0.2c-0.1,0-0.1-0.1-0.2-0.1c-0.6,0-1.2,0.7-2,2
			c-0.7,1.3-1.1,2.7-1.1,4.1v7.2h3V84h-10.4h-0.3h-10h-0.3h-10.1v-1.2h2.1l-5.8-7.6l7.1-6h-3.8v-1.2h8.5v1.2h-3l-4.2,3.5l7.9,10h1.4
			h0.3h2.1V69.3h-2.7l0-1.2c1.5,0,2.9-0.1,4.3-0.2c1.4-0.1,2.7-0.2,4-0.3v15.2h2.2H167.2L167.2,82.8z M158.9,61.2
			c0-0.8,0.3-1.5,0.9-2c0.6-0.6,1.2-0.8,2-0.8c0.8,0,1.4,0.3,2,0.8c0.5,0.6,0.8,1.2,0.8,2c0,0.8-0.3,1.5-0.8,2
			c-0.5,0.6-1.2,0.9-2,0.9c-0.8,0-1.4-0.3-2-0.9C159.2,62.7,158.9,62,158.9,61.2L158.9,61.2z M135.2,82.8h-0.1h-2.4V67.6
			c-1.3,0.1-2.6,0.2-4,0.3c-1.4,0.1-2.8,0.1-4.3,0.2l0,1.2h2.7v13.5h-2.4V84h10.4h0.1h10v-1.2h-2.6V57c-1.5,0.1-2.8,0.2-4.1,0.3
			c-1.3,0.1-2.4,0.1-3.5,0.2v1.2h2v24.1H135.2L135.2,82.8z M126.9,61.2c0-0.8,0.3-1.5,0.9-2c0.6-0.6,1.2-0.8,2-0.8
			c0.8,0,1.4,0.3,2,0.8c0.5,0.6,0.8,1.2,0.8,2c0,0.8-0.3,1.5-0.8,2c-0.5,0.6-1.2,0.9-2,0.9c-0.8,0-1.4-0.3-2-0.9
			C127.2,62.7,126.9,62,126.9,61.2z"/>
		<path class="st0" d="M101.7,88.5h3.7c0.7,0,1.3,0.1,1.8,0.3c0.5,0.2,0.8,0.5,1.1,0.9c0.3,0.4,0.5,0.8,0.6,1.3
			c0.1,0.5,0.2,1,0.2,1.6c0,0.9-0.1,1.5-0.3,2c-0.2,0.5-0.5,0.9-0.8,1.2c-0.4,0.3-0.7,0.5-1.1,0.6c-0.6,0.1-1.1,0.2-1.5,0.2h-3.7
			V88.5L101.7,88.5z M104.2,90.3v4.5h0.6c0.5,0,0.9-0.1,1.1-0.2c0.2-0.1,0.4-0.3,0.5-0.6c0.1-0.3,0.2-0.8,0.2-1.4
			c0-0.9-0.1-1.5-0.4-1.8c-0.3-0.3-0.7-0.5-1.4-0.5H104.2L104.2,90.3z M110.6,88.5h2.5v1.7h-2.5V88.5L110.6,88.5z M113.1,90.8v5.8
			h-2.5v-5.8H113.1L113.1,90.8z M114.9,88.5h2.5v6.1h3.9v2h-6.5V88.5L114.9,88.5z M126.3,88.5h3.3l1.3,5l1.3-5h3.3v8.2h-2.1v-6.2
			l-1.6,6.2H130l-1.6-6.2v6.2h-2.1V88.5L126.3,88.5z M137.1,88.5h6.8v1.7h-4.2v1.3h3.9v1.7h-3.9v1.6h4.3v1.8h-6.9V88.5L137.1,88.5z
			 M145.3,96.6v-8.2h4.2c0.8,0,1.4,0.1,1.8,0.2c0.4,0.1,0.7,0.4,1,0.7c0.3,0.4,0.4,0.8,0.4,1.3c0,0.5-0.1,0.8-0.3,1.2
			c-0.2,0.3-0.5,0.6-0.8,0.8c-0.2,0.1-0.5,0.2-0.9,0.3c0.3,0.1,0.5,0.2,0.7,0.3c0.1,0.1,0.2,0.2,0.4,0.4c0.2,0.2,0.3,0.4,0.4,0.5
			l1.2,2.4h-2.8l-1.3-2.5c-0.2-0.3-0.3-0.5-0.5-0.6c-0.2-0.1-0.4-0.2-0.6-0.2h-0.2v3.3H145.3L145.3,96.6z M147.9,91.8h1.1
			c0.1,0,0.3,0,0.7-0.1c0.2,0,0.3-0.1,0.4-0.3c0.1-0.1,0.2-0.3,0.2-0.5c0-0.3-0.1-0.5-0.3-0.6c-0.2-0.1-0.5-0.2-0.9-0.2h-1.1V91.8
			L147.9,91.8z M154.2,88.5h2.5v3.1l2.6-3.1h3.3l-3,3.1l3.1,5.1h-3.1l-1.7-3.4l-1.3,1.4v2h-2.5V88.5L154.2,88.5z M163.7,88.5h6.8
			v1.7h-4.2v1.3h3.9v1.7h-3.9v1.6h4.3v1.8h-6.9V88.5L163.7,88.5z M171.7,88.5h7.1v1.6l-4.6,4.8h4.7v1.8h-7.7V95l4.5-4.7h-4.1V88.5
			L171.7,88.5z M180.2,88.5h2.5v1.7h-2.5V88.5L180.2,88.5z M182.7,90.8v5.8h-2.5v-5.8H182.7z"/>
	</g>
	<rect x="110.6" y="90.2" class="st1" width="2.5" height="0.6"/>
</g>
</svg>
