<?xml version="1.0" encoding="utf-8"?>
<!-- Generator: Adobe Illustrator 24.0.2, SVG Export Plug-In . SVG Version: 6.00 Build 0)  -->
<svg version="1.1" id="Layer_1" xmlns="http://www.w3.org/2000/svg" xmlns:xlink="http://www.w3.org/1999/xlink" x="0px" y="0px"
	 viewBox="0 0 211 133" style="enable-background:new 0 0 211 133;" xml:space="preserve">
<style type="text/css">
	.st0{fill-rule:evenodd;clip-rule:evenodd;fill:#882D2E;}
	.st1{fill-rule:evenodd;clip-rule:evenodd;fill:#F68123;}
	.st2{fill-rule:evenodd;clip-rule:evenodd;fill:#373435;}
</style>
<g>
	<g>
		<path class="st0" d="M89.5,92.4c0.1-1.3,1.2-2.7,1.9-3.2c3.9-3,5.2,0.9,2.5,2.6C92.7,92.5,90.9,92.5,89.5,92.4L89.5,92.4z
			 M80.5,103.9c-0.2-0.9-1.2-0.7-1.4-2.9c-0.1-1,0.1-2.9,0.5-3.8c0.8-0.2,2.4,0.2,3.3,0.3c0.1,2.3-0.1,3.9,1.1,5.6
			c2.8,3.9,8.5,1.6,11.1-1.7c0.4-0.6,1.1-1.2,1.3-2c-1.5-0.1-2.8,1.1-4.9,0.9c-2.7-0.2-2.9-2.3-2.4-2.8c0.4-0.4,2.6-0.2,5-1.1
			c5.1-1.8,7.7-7,4.6-11c-3.4-4.5-11.3-0.6-14.2,6.4l-2.9-0.3c0-1.6,5.1-10.9,2.9-14.6c-0.2-0.3-0.3-0.5-0.6-0.8l-0.6-0.5
			c0-0.1-0.1-0.1-0.1-0.1c-2.1-0.3-0.5-0.6-4.4-0.4c0.1,1.2,0.9,1.1,0.2,4.4c-0.9,4.1-3.2,8.2-4.2,11.4l-2.7,0
			c0.1-1.1,2.3-5.7,3-9.6c1-5.2-1.3-6.5-6.2-6.3c0.3,1.1,0.8,1.2,0.4,3.6c-0.7,3.7-3.2,9-4.6,12.7c-0.7,1.9-2.8,1.3-4.5,4.3
			c-0.6,1-1,2.1-1.2,3.3c1.1-0.3,2.3-1.3,3.6-1.6c0,1.5-1.2,5.3,1.3,7.3c1.9,1.4,5.3,0.5,6.7-1.1c-0.4-0.7-1.4-0.9-1.4-3.3
			c0-1.3,0.3-3.1,0.8-4.1l2.7,0c-0.1,1.9-1.7,5.7,0.7,8.2C76,107.1,79.8,104,80.5,103.9z"/>
		<path class="st0" d="M128.9,88.8c3.4-1.7-0.1,10.5-2.8,11.6C122.8,101.7,126.2,90.1,128.9,88.8L128.9,88.8z M136,93
			c1.2-8.4-4.7-10.8-9.1-8.5c-6.2,3.1-10.6,15.1-6.1,19.4c1.7,1.7,5,1.9,7.5,0.8C132,103,135.2,98.3,136,93z"/>
		<path class="st0" d="M137.5,97.9c-0.7,0.9-1.3,2.9-1,4.2c0.6,2.9,3.5,4.3,6.5,2.6c1.1-0.6,2.1-1.5,2.8-2.6
			c4-6.2-0.5-11.2,1.8-13.1c0.9-0.7,1.9-0.7,2.7,0.3c0.4,0.4,0.2,0.6,0.7,0.8c0.2-1.6,0.6-2.8-0.2-4.4c-0.5-1.1-1.5-1.9-3.2-1.9
			c-2.8,0-4.8,2.3-5.6,4.4c-1.6,4,0.1,6.8,0.1,8.8c0,1.4-0.9,2.8-2,3.1C138.4,100.4,137.9,98.4,137.5,97.9z"/>
		<path class="st0" d="M121.7,79.2c0-3.9-2.8-4.3-6.4-4.2c0.2,1.1,0.6,0.9,0.5,2.7c-0.3,5.9-9.2,19.8-6.5,25.6
			c1.8,3.9,6.6,1.7,7.9,0.4c-0.3-0.6-0.8-0.6-1.2-1.4c-1.4-3.2,2.3-11.5,3.6-14.5C120.5,85.4,121.7,81.9,121.7,79.2z"/>
		<path class="st0" d="M111.8,79.1c-0.1-4-2.7-4.1-6.3-4.1c-0.1,0.6,0.5,1.3,0.4,2.6c-0.4,6.2-9,19.7-6.6,25.5
			c1.7,4,6.1,2.3,7.9,0.6c-0.4-0.8-1.6-0.9-1.4-3.9C106.2,94.4,112,84.6,111.8,79.1z"/>
		<path class="st0" d="M138,86.2c1.6-0.3,3.1-3.5,2.5-6.3c-0.4-1.8-2-4.8-4.8-5c-1.2-0.1-2.4,1.3-1.7,2.5c0.6,1.1,3.9,2.6,4.5,5.2
			C138.9,84.2,138.7,84.6,138,86.2z"/>
		<path class="st1" d="M103.9,57.1c1-0.7,4.7-0.5,9.6-3.3c2.1-1.2,3.7-2.6,5.4-4.3c0.4-0.4,1.1-1.4,1.7-1.6
			c-0.2,1.9-1.2,3.8-2.2,4.9c-1,1.3-2.2,2.4-3.6,3.4c-2.4,1.7-5.4,2.3-8.5,1.9C105.1,58,104.8,57.8,103.9,57.1L103.9,57.1z
			 M99.3,49.2c0.9-0.6,1.9-1.8,3-2.8c1.8-1.5,2.9-1.8,3.5-2.3c-1.6-0.8-3.6,0.4-4.5,1.1C100.3,46.1,99.5,47.2,99.3,49.2L99.3,49.2z
			 M107.8,42.7c0.4-1.7,1.4-2.5,3-3.2c2.7-1.2,4.2,0.1,4.7,0.3c-1.6,0.5-2.6,0.5-4.1,1.2C110.1,41.4,109,42.3,107.8,42.7L107.8,42.7
			z M91.3,46.9l0.3-0.1c0.5,0,0.1,0,0.3,0.1l1.8,1.1c2.8,1.5,2.4,1.6,3.8,3.7c0.6,0.9,0.9,1.6,1.3,2.5c1.5,3.5,2,6.3,6.9,8
			c5.8,2,12.4-0.9,15.9-5.3c1-1.2,2.3-3.4,2.6-5.1l0.1,0.3c0.4-0.7,0.4-2.2,0.7-3.1c1.4-4.2,1.7-3.5,2.5-5c0.6-1.1-0.3-1.9-1.1-2.1
			c-3-0.7-7.3,4.4-9.4,5.5c0.3-1.5,2.4-3.6,3.1-4.4c-0.3-0.9-0.8-1.9-1.2-2.9c-1.4-3.4-7.4-17.7-9.4-18.1c-2.4,0.2-1.3,5.2-0.9,7
			c0.4,2.1,1,5.7,0.8,8c-2.4-2-8.1-15-11.2-14c-1.3,3.2,4.7,12.9,5,16.4C101,38,95.2,28,91.8,29.9c-2.3,1.3,1.3,6.1,2.1,7.2
			c0.9,1.1,1.6,1.9,2.5,3c0.8,1,1.8,1.9,2.2,3.3c-1.8-0.7-7.4-6.1-11-5.7c-1.2,0.1-1.9,1.1-1.6,2.4c0.2,1,1,2,1.4,2.6
			C87.8,43.3,90.8,46.6,91.3,46.9z"/>
		<path class="st0" d="M91.3,46.9c-0.5-0.3-3.5-3.6-3.9-4.2C86.9,42,86.2,41,86,40c-0.3-1.3,0.4-2.3,1.6-2.4c3.6-0.3,9.2,5,11,5.7
			c-0.4-1.4-1.4-2.3-2.2-3.3c-0.9-1.1-1.6-1.9-2.5-3c-0.8-1-4.4-5.9-2.1-7.2c3.4-2,9.2,8.1,11.6,9.5c-0.3-3.5-6.3-13.3-5-16.4
			c3.1-1,8.8,12,11.2,14c0.2-2.3-0.4-5.8-0.8-8c-0.4-1.9-1.5-6.8,0.9-7c2,0.4,8,14.7,9.4,18.1c0.4,1,0.9,1.9,1.2,2.9
			c-0.8,0.8-2.8,2.9-3.1,4.4c2.1-1.1,6.4-6.1,9.4-5.5c0.8,0.2,1.6,1,1.1,2.1c-0.8,1.5-1.2,0.8-2.5,5c-0.3,0.9-0.3,2.4-0.7,3.1
			c0.1,1.6-0.1,3.6,0.7,4.9c0.7-6.3,0.1-6.3,4.2-10.8c4.1-4.4,1.3-9.1-2.9-7.6c-1.4,0.5-3.5,2-4.5,3c-0.4,0.4-0.9,0.9-1.5,1.2
			c-0.6-6.9-3.1-13.4-5.8-18.7c-0.8-1.7-3.8-6.9-6.3-5c-1.6,1.3-2.1,4.9-1.9,7.2c0.1,0.7,0.3,2,0.3,2.6c0-0.7-2.2-4.2-2.6-4.7
			c-1-1.5-2.3-3.1-3.7-3.8c-2.2-1.2-3.7,0.7-4.1,2.7c-0.5,2.6,0.7,4.2,1,6.3c-0.6-0.3-1-0.9-1.7-1.3c-2.1-1.3-5.3-2.1-6.6,0.1
			c-0.8,1.4-0.5,3.6,0,5.1c0.6,1.9,1.5,2.5,2.2,3.9c-1.8-0.6-4.7-1.9-6.6-0.5c-1.8,1.3-1.2,4.2-0.2,6.2c1.6,3.3,5.3,6.7,8.1,8.6
			c2.4,1.7,2.4,1.7,3.6,4.6c1.7,4,3.2,7.4,6.9,9.8c1.1,0.7,4.3,2.4,5.9,2.6c-0.4-1.2-1.1-1.4-2.6-2.3c-1-0.6-1.8-1.3-2.8-2.1
			c-6.3-5-4.1-8.2-7.2-12.3C95,50,93.5,49,92.6,48.1C92.2,47.6,91.9,47.2,91.3,46.9z"/>
		<path class="st0" d="M103.9,57.1c0.9,0.7,1.2,0.9,2.5,1c3.1,0.4,6.1-0.2,8.5-1.9c1.4-1,2.6-2.2,3.6-3.4c0.9-1.1,1.9-3,2.2-4.9
			c-0.6,0.3-1.3,1.2-1.7,1.6c-1.7,1.7-3.3,3-5.4,4.3C108.6,56.6,104.9,56.4,103.9,57.1z"/>
		<path class="st0" d="M107.8,42.7c1.2-0.4,2.3-1.2,3.5-1.8c1.5-0.7,2.5-0.7,4.1-1.2c-0.5-0.1-2-1.5-4.7-0.3
			C109.3,40.1,108.2,41,107.8,42.7z"/>
		<path class="st0" d="M99.3,49.2c0.9-0.6,1.9-1.8,3-2.8c1.8-1.5,2.9-1.8,3.5-2.3c-1.6-0.8-3.6,0.4-4.5,1.1
			C100.3,46.1,99.5,47.2,99.3,49.2z"/>
		<path class="st0" d="M148.1,74.9c0.5,0,1,0.1,1.5,0.4c0.5,0.3,0.9,0.6,1.1,1.1c0.3,0.5,0.4,1,0.4,1.5c0,0.5-0.1,1-0.4,1.5
			c-0.3,0.5-0.6,0.8-1.1,1.1c-0.5,0.3-1,0.4-1.5,0.4c-0.5,0-1-0.1-1.5-0.4c-0.5-0.3-0.8-0.6-1.1-1.1c-0.3-0.5-0.4-1-0.4-1.5
			c0-0.5,0.1-1,0.4-1.5c0.3-0.5,0.6-0.8,1.1-1.1C147.1,75.1,147.6,74.9,148.1,74.9L148.1,74.9z M148.1,75.4c-0.4,0-0.8,0.1-1.2,0.3
			c-0.4,0.2-0.7,0.5-0.9,0.9c-0.2,0.4-0.3,0.8-0.3,1.2c0,0.4,0.1,0.8,0.3,1.2c0.2,0.4,0.5,0.7,0.9,0.9c0.4,0.2,0.8,0.3,1.2,0.3
			c0.4,0,0.8-0.1,1.2-0.3c0.4-0.2,0.7-0.5,0.9-0.9c0.2-0.4,0.3-0.8,0.3-1.2c0-0.4-0.1-0.8-0.3-1.2c-0.2-0.4-0.5-0.7-0.9-0.9
			C148.9,75.5,148.5,75.4,148.1,75.4L148.1,75.4z M146.8,79.6h0.5v-1.4h0.3c0.2,0,0.3,0,0.4,0.1c0.1,0.1,0.3,0.4,0.5,0.7l0.3,0.5
			h0.6l-0.4-0.6c-0.2-0.3-0.3-0.5-0.5-0.6c-0.1-0.1-0.2-0.1-0.3-0.2c0.3,0,0.5-0.1,0.7-0.3c0.2-0.2,0.3-0.4,0.3-0.6
			c0-0.2,0-0.3-0.2-0.5c-0.1-0.1-0.2-0.3-0.4-0.3c-0.2-0.1-0.4-0.1-0.8-0.1h-1.1V79.6L146.8,79.6z M147.3,77.8h0.6
			c0.3,0,0.5,0,0.6-0.1c0.1-0.1,0.2-0.2,0.2-0.4c0-0.1,0-0.2-0.1-0.3c-0.1-0.1-0.1-0.1-0.2-0.2c-0.1,0-0.3-0.1-0.5-0.1h-0.6V77.8z"
			/>
	</g>
	<path class="st2" d="M91.7,111.9l0.9-0.1c0.1,0.3,0.2,0.5,0.3,0.7c0.2,0.1,0.4,0.2,0.7,0.2c0.3,0,0.5-0.1,0.7-0.2
		c0.2-0.1,0.2-0.3,0.2-0.4c0-0.1,0-0.2-0.1-0.3c-0.1-0.1-0.2-0.1-0.3-0.2c-0.1,0-0.4-0.1-0.8-0.2c-0.5-0.1-0.9-0.3-1.1-0.5
		c-0.3-0.3-0.4-0.6-0.4-0.9c0-0.2,0.1-0.5,0.2-0.7c0.1-0.2,0.3-0.4,0.6-0.5c0.3-0.1,0.6-0.2,0.9-0.2c0.6,0,1,0.1,1.3,0.4
		c0.3,0.3,0.4,0.6,0.5,1l-0.9,0c0-0.2-0.1-0.4-0.3-0.5c-0.1-0.1-0.3-0.2-0.6-0.2c-0.3,0-0.5,0.1-0.6,0.2c-0.1,0.1-0.1,0.2-0.1,0.3
		c0,0.1,0,0.2,0.1,0.3c0.1,0.1,0.4,0.2,0.9,0.3c0.5,0.1,0.8,0.2,1,0.3c0.2,0.1,0.4,0.3,0.5,0.5c0.1,0.2,0.2,0.4,0.2,0.7
		c0,0.3-0.1,0.5-0.2,0.8c-0.1,0.2-0.4,0.4-0.6,0.5c-0.3,0.1-0.6,0.2-1,0.2c-0.6,0-1-0.1-1.4-0.4C92,112.8,91.8,112.4,91.7,111.9
		L91.7,111.9z M96.9,113.4l-1.1-4.7h1l0.7,3.2l0.9-3.2h1.1l0.8,3.3l0.7-3.3h0.9l-1.1,4.7h-1l-0.9-3.5l-0.9,3.5H96.9L96.9,113.4z
		 M102.4,113.4v-4.7h3.5v0.8h-2.5v1h2.3v0.8h-2.3v1.3h2.6v0.8H102.4L102.4,113.4z M106.8,113.4v-4.7h3.5v0.8h-2.5v1h2.3v0.8h-2.3
		v1.3h2.6v0.8H106.8L106.8,113.4z M112.2,113.4v-3.9h-1.4v-0.8h3.7v0.8h-1.4v3.9H112.2L112.2,113.4z M114.9,111.9l0.9-0.1
		c0.1,0.3,0.2,0.5,0.3,0.7c0.2,0.1,0.4,0.2,0.7,0.2c0.3,0,0.5-0.1,0.7-0.2c0.2-0.1,0.2-0.3,0.2-0.4c0-0.1,0-0.2-0.1-0.3
		c-0.1-0.1-0.2-0.1-0.3-0.2c-0.1,0-0.4-0.1-0.7-0.2c-0.5-0.1-0.9-0.3-1.1-0.5c-0.3-0.3-0.4-0.6-0.4-0.9c0-0.2,0.1-0.5,0.2-0.7
		c0.1-0.2,0.3-0.4,0.6-0.5c0.3-0.1,0.6-0.2,0.9-0.2c0.6,0,1,0.1,1.3,0.4c0.3,0.3,0.4,0.6,0.5,1l-0.9,0c0-0.2-0.1-0.4-0.3-0.5
		c-0.1-0.1-0.3-0.2-0.6-0.2c-0.3,0-0.5,0.1-0.6,0.2c-0.1,0.1-0.1,0.2-0.1,0.3c0,0.1,0,0.2,0.1,0.3c0.1,0.1,0.4,0.2,0.9,0.3
		c0.5,0.1,0.8,0.2,1,0.3c0.2,0.1,0.4,0.3,0.5,0.5c0.1,0.2,0.2,0.4,0.2,0.7c0,0.3-0.1,0.5-0.2,0.8c-0.1,0.2-0.4,0.4-0.6,0.5
		c-0.3,0.1-0.6,0.2-1,0.2c-0.6,0-1-0.1-1.4-0.4C115.1,112.8,114.9,112.4,114.9,111.9z"/>
</g>
</svg>
