<?xml version="1.0" encoding="utf-8"?>
<!-- Generator: Adobe Illustrator 24.0.2, SVG Export Plug-In . SVG Version: 6.00 Build 0)  -->
<svg version="1.1" id="Layer_1" xmlns="http://www.w3.org/2000/svg" xmlns:xlink="http://www.w3.org/1999/xlink" x="0px" y="0px"
	 viewBox="0 0 211 133" style="enable-background:new 0 0 211 133;" xml:space="preserve">
<style type="text/css">
	.st0{fill-rule:evenodd;clip-rule:evenodd;fill:#FAAD39;}
	.st1{fill-rule:evenodd;clip-rule:evenodd;fill:#FDD653;}
	.st2{fill-rule:evenodd;clip-rule:evenodd;fill:#E5E6E7;}
	.st3{fill-rule:evenodd;clip-rule:evenodd;fill:#FCB82E;}
	.st4{fill-rule:evenodd;clip-rule:evenodd;fill:#373435;}
	.st5{fill-rule:evenodd;clip-rule:evenodd;fill:#2074B8;}
	.st6{fill-rule:evenodd;clip-rule:evenodd;fill:#FDFDFD;}
</style>
<g>
	<path class="st0" d="M153.6,69c-1.2-0.7-1.6-3.1-2.6-4.3C151.6,62.7,153.6,66.1,153.6,69z"/>
	<path class="st1" d="M132.9,71.2c-1.1,0.6-3.5-5-4.3-8.6C130.1,65.1,131.4,68.4,132.9,71.2z"/>
	<path class="st2" d="M110.7,56.3l5.1,0l0,12.4l10.8,0l0,2.8l-15.8,0L110.7,56.3L110.7,56.3z M124.3,60l-0.1,8l5,0l0-8L124.3,60
		L124.3,60z M132.8,69.4l0,13.1l5,0l0-13.3L132.8,69.4L132.8,69.4z M131,74.5l-5.4,0l-3.6,4.1l-3.3-4.1l-5.5,0l6.2,6.9l-4.2,5l5.4,0
		L131,74.5L131,74.5z M110.4,72l-4.7,0l0,2.5l-1.9,0l0,2.4l1.6,0l0,5.5l4.7,0l0-5.5l2.6,0l0-2.4l-2.4,0L110.4,72L110.4,72z
		 M101.2,68.1c-0.7,1-1.3,2-2,3c-1.5-0.8-3-1.2-4.5-0.7c-1.3,0.5-2.1,1.7,0,2.2c5,1.2,7.4,2.6,7.3,4.4c-0.4,7.5-9.9,6.6-14.6,4
		c0.6-1,1.2-2,1.8-3c1.8,1,3.4,1.7,5,1.5c2.3-0.3,3.8-1.6,0.8-2.7c-2.5-1-5.4-1.2-6.4-2.8c-1.3-2-1.4-4.8,2.5-6.6
		C94.6,65.8,98,67.2,101.2,68.1L101.2,68.1z M157.3,64.6c-0.1-2.3-1.2-4.4-6-4.9c-2.4-0.3-4.9-0.1-6.9,1.2c-2.9,1.7-2.8,5-0.1,6.2
		c7.3,3.3,12.1,0.1,12.8-1.5c-1.5-0.1-3-0.1-4.5-0.2c-1.6,1.6-5,1.2-5.4-1C150.5,64.5,153.9,64.6,157.3,64.6L157.3,64.6z
		 M147.3,62.8c0.7-1.7,4.6-2,5.5,0C151,62.8,149.1,62.8,147.3,62.8L147.3,62.8z M155.5,78.9c-0.1-2.3-1.2-4.4-6-4.9
		c-2.4-0.3-4.9-0.1-6.9,1.2c-2.9,1.7-2.8,5-0.1,6.2c7.3,3.3,12.1,0.1,12.8-1.5c-1.5-0.1-3-0.1-4.5-0.2c-1.6,1.6-5,1.2-5.4-1
		C148.7,78.8,152.1,78.9,155.5,78.9L155.5,78.9z M145.4,77.2c0.7-1.7,4.6-2,5.5,0C149.1,77.2,147.3,77.2,145.4,77.2L145.4,77.2z
		 M126.8,55.2c-1.5,0-2.8,0.7-2.8,1.6c0,0.9,1.2,1.6,2.8,1.6c1.5,0,2.8-0.7,2.8-1.6S128.3,55.2,126.8,55.2L126.8,55.2z M132.9,67.9
		c1.7,0,3.3,0,5,0c0-1.9,0-3.7,0-5.6c1.1,0,2.2,0,3.2,0c0-0.8,0-1.6,0-2.4c-1,0-2.1,0-3.1,0c0-0.5,0-1,0-1.6
		c0.1-1.3,1.2-1.1,3.1-0.8c0-0.8,0-1.6,0-2.4c-4-0.8-8.4,0-8.2,4.7c-0.6,0-1.2,0-1.8,0c0,0.8,0,1.6,0,2.4c0.6,0,1.2,0,1.8,0
		C132.8,64.2,132.8,66.1,132.9,67.9z"/>
	<path class="st2" d="M111.3,55.7l5.1,0l0,12.4l10.8,0l0,2.8l-15.8,0L111.3,55.7L111.3,55.7z M124.8,59.4l-0.1,8l5,0l0-8L124.8,59.4
		L124.8,59.4z M133.4,68.8l0,13.1l5,0l0-13.3L133.4,68.8L133.4,68.8z M131.5,73.9l-5.4,0l-3.6,4.1l-3.3-4.1l-5.5,0l6.2,6.9l-4.2,5
		l5.4,0L131.5,73.9L131.5,73.9z M110.9,71.4l-4.7,0l0,2.5l-1.9,0l0,2.4l1.6,0l0,5.5l4.7,0l0-5.5l2.6,0l0-2.4l-2.4,0L110.9,71.4
		L110.9,71.4z M101.7,67.5c-0.7,1-1.3,2-2,3c-1.5-0.8-3-1.2-4.5-0.7c-1.3,0.5-2.1,1.7,0,2.2c5,1.2,7.4,2.6,7.3,4.4
		c-0.4,7.5-9.9,6.6-14.6,4c0.6-1,1.2-2,1.8-3c1.8,1,3.4,1.7,5,1.5c2.3-0.3,3.8-1.6,0.8-2.7c-2.5-1-5.4-1.2-6.4-2.8
		c-1.3-2-1.4-4.8,2.5-6.6C95.2,65.2,98.6,66.6,101.7,67.5L101.7,67.5z M157.9,64.1c-0.1-2.3-1.2-4.4-6-4.9c-2.4-0.3-4.9-0.1-6.9,1.2
		c-2.9,1.7-2.8,5-0.1,6.2c7.3,3.3,12.1,0.1,12.8-1.5c-1.5-0.1-3-0.1-4.5-0.2c-1.6,1.6-5,1.2-5.4-1C151.1,64,154.5,64,157.9,64.1
		L157.9,64.1z M147.8,62.3c0.7-1.7,4.6-2,5.5,0C151.5,62.3,149.7,62.3,147.8,62.3L147.8,62.3z M156,78.4c-0.1-2.3-1.2-4.4-6-4.9
		c-2.4-0.3-4.9-0.1-6.9,1.2c-2.9,1.7-2.8,5-0.1,6.2c7.3,3.3,12.1,0.1,12.8-1.5c-1.5-0.1-3-0.1-4.5-0.2c-1.6,1.6-5,1.2-5.4-1
		C149.2,78.3,152.6,78.4,156,78.4L156,78.4z M146,76.6c0.7-1.7,4.6-2,5.5,0C149.7,76.6,147.8,76.6,146,76.6L146,76.6z M127.3,54.7
		c-1.5,0-2.8,0.7-2.8,1.6c0,0.9,1.2,1.6,2.8,1.7c1.5,0,2.8-0.7,2.8-1.6C130.1,55.5,128.8,54.7,127.3,54.7L127.3,54.7z M133.4,67.4
		c1.7,0,3.3,0,5,0c0-1.9,0-3.7,0-5.6c1.1,0,2.2,0,3.2,0c0-0.8,0-1.6,0-2.4c-1,0-2.1,0-3.1,0c0-0.5,0-1,0-1.6
		c0.1-1.3,1.2-1.1,3.1-0.8c0-0.8,0-1.6,0-2.4c-4-0.8-8.4,0-8.2,4.7c-0.6,0-1.2,0-1.8,0c0,0.8,0,1.6,0,2.4c0.6,0,1.2,0,1.8,0
		C133.3,63.7,133.4,65.5,133.4,67.4z"/>
	<path class="st3" d="M56.6,93.5c-0.1,0.6-0.1,1.1-0.2,1.7c31.6-8.3,73.1,3.5,96.8-2.3c0.1-0.5,0.2-0.9,0.3-1.4
		C119.9,98.3,81.4,86.8,56.6,93.5z"/>
	<path class="st3" d="M58.9,95.3c-0.1,0.6-0.1,1.1-0.2,1.7c31.6-8.3,73.1,3.5,96.8-2.3c0.1-0.5,0.2-0.9,0.3-1.4
		C122.2,100,83.7,88.5,58.9,95.3z"/>
	<path class="st4" d="M109.2,58.5l5.1,0l0,12.4l10.8,0l0,2.8l-15.8,0L109.2,58.5L109.2,58.5z M122.8,62.1l-0.1,8l5,0l0-8L122.8,62.1
		L122.8,62.1z M131.3,71.5l0,13.1l5,0l0-13.3L131.3,71.5L131.3,71.5z M129.5,76.7l-5.4,0l-3.6,4.1l-3.3-4.1l-5.5,0l6.2,6.9l-4.2,5
		l5.4,0L129.5,76.7L129.5,76.7z M108.9,74.2l-4.7,0l0,2.5l-1.9,0l0,2.4l1.6,0l0,5.5l4.7,0l0-5.5l2.6,0l0-2.4l-2.4,0L108.9,74.2
		L108.9,74.2z M99.7,70.3c-0.7,1-1.3,2-2,3c-1.5-0.8-3-1.2-4.5-0.7c-1.3,0.5-2.1,1.7,0,2.2c5,1.2,7.4,2.6,7.3,4.4
		c-0.4,7.5-9.9,6.6-14.6,4c0.6-1,1.2-2,1.8-3c1.8,1,3.4,1.7,5,1.5c2.3-0.3,3.8-1.6,0.8-2.7c-2.5-1-5.4-1.2-6.4-2.8
		c-1.3-2-1.4-4.8,2.5-6.6C93.2,68,96.5,69.3,99.7,70.3L99.7,70.3z M155.9,66.8c-0.1-2.3-1.2-4.4-6-4.9c-2.4-0.3-4.9-0.1-6.9,1.2
		c-2.9,1.7-2.8,5-0.1,6.2c7.3,3.3,12.1,0.1,12.8-1.5c-1.5-0.1-3-0.1-4.5-0.2c-1.6,1.6-5,1.2-5.4-1C149.1,66.7,152.5,66.8,155.9,66.8
		L155.9,66.8z M145.8,65c0.7-1.7,4.6-2,5.5,0C149.5,65,147.7,65,145.8,65L145.8,65z M154,81.1c-0.1-2.3-1.2-4.4-6-4.9
		c-2.4-0.3-4.9-0.1-6.9,1.2c-2.9,1.7-2.8,5-0.1,6.2c7.3,3.3,12.1,0.1,12.8-1.5c-1.5-0.1-3-0.1-4.5-0.2c-1.6,1.6-5,1.2-5.4-1
		C147.2,81,150.6,81.1,154,81.1L154,81.1z M144,79.4c0.7-1.7,4.6-2,5.5,0C147.7,79.4,145.8,79.4,144,79.4L144,79.4z M125.3,57.4
		c-1.5,0-2.8,0.7-2.8,1.6s1.2,1.6,2.8,1.7c1.5,0,2.8-0.7,2.8-1.6C128.1,58.2,126.8,57.4,125.3,57.4L125.3,57.4z M131.4,70.1
		c1.7,0,3.3,0,5,0c0-1.9,0-3.7,0-5.6c1.1,0,2.2,0,3.2,0c0-0.8,0-1.6,0-2.4c-1,0-2.1,0-3.1,0c0-0.5,0-1,0-1.6
		c0.1-1.3,1.2-1.1,3.1-0.8c0-0.8,0-1.6,0-2.4c-4-0.8-8.4,0-8.2,4.7c-0.6,0-1.2,0-1.8,0c0,0.8,0,1.6,0,2.4c0.6,0,1.2,0,1.8,0
		C131.3,66.4,131.4,68.2,131.4,70.1z"/>
	<path class="st5" d="M109.7,54.6l5.1,0c0.1,0,0.3,0,0.4,0l1.2,0c1.3,0,3.5-0.2,4,1.7c1.9-3.5,8.2-3.7,10.3-0.7
		c0.4-0.4,0.8-0.7,1.2-0.9c1.4-0.9,3.1-1.3,4.9-1.4c1.2-0.1,2.5,0.1,3.8,0.3c1.3,0.3,2.7,1.9,2.7,3.3c0,0.7,0,1.3,0,2
		c0.9-0.4,1.9-0.6,2.9-0.8c1.5-0.2,3-0.2,4.4,0c3.2,0.3,5.4,1.3,6.7,2.7c5.2,5.1,0.8,11.1-5.1,12.4c1.4,0.5,2.4,1.2,3.3,1.9
		c5.7,5.5,0.1,11.9-6.4,12.6c-2.5,0.3-5.6-0.1-9.2-1.6c-0.1-0.1-0.3-0.1-0.4-0.2c-0.6,0.9-1.7,1.6-2.8,1.6l-5,0
		c-1.7,0-3.3-1.7-3.3-3.3l0-1.2l-6.4,7.3c-0.4,0.4-1.9,1.2-2.5,1.2l-5.4,0c-2.5,0-4-2.7-3-4.8c-0.6,0.5-1.3,0.8-2,0.8l-4.7,0
		c-1.2,0-2.5-0.9-3-2.1c-0.9,0.8-1.9,1.4-3,1.8c-1.8,0.7-3.7,0.9-5.6,0.8c-2.9-0.2-5.8-1.1-8-2.3c-1.5-0.8-2.1-3.1-1.2-4.6
		c0.3-0.6,0.7-1.1,2.4-2.2c-0.4-0.4-0.8-0.8-1.2-1.4h0c-0.2-0.3-0.3-0.6-0.5-0.9c-0.7-1.5-1-3.3-0.6-5.1c0.4-1.8,1.6-3.4,3.7-4.7
		c0.4-0.2,0.8-0.5,1.2-0.7c4.3-2,7.9-0.9,11.4,0.1c0.7,0.2,0.6,0.2,1,0.3c1.7,0.5,2.7,2.5,2.2,4.1c0.4-0.2,0.9-0.4,1.4-0.4l1.7,0
		l0-12.4C106.4,56.3,108.1,54.6,109.7,54.6z"/>
	<path class="st6" d="M109.8,57.9l5.1,0l0,12.4l10.8,0l0,2.8l-15.8,0L109.8,57.9L109.8,57.9z M123.4,61.6l-0.1,8l5,0l0-8L123.4,61.6
		L123.4,61.6z M131.9,71l0,13.1l5,0l0-13.3L131.9,71L131.9,71z M130,76.1l-5.4,0l-3.6,4.1l-3.3-4.1l-5.5,0l6.2,6.9l-4.2,5l5.4,0
		L130,76.1L130,76.1z M109.4,73.6l-4.7,0l0,2.5l-1.9,0l0,2.4l1.6,0l0,5.5l4.7,0l0-5.5l2.6,0l0-2.4l-2.4,0L109.4,73.6L109.4,73.6z
		 M100.2,69.7c-0.7,1-1.3,2-2,3c-1.5-0.8-3-1.2-4.5-0.7c-1.3,0.5-2.1,1.7,0,2.2c5,1.2,7.4,2.6,7.3,4.4c-0.4,7.5-9.9,6.6-14.6,4
		c0.6-1,1.2-2,1.8-3c1.8,1,3.4,1.7,5,1.5c2.3-0.3,3.8-1.6,0.8-2.7c-2.5-1-5.4-1.2-6.4-2.8c-1.3-2-1.4-4.8,2.5-6.6
		C93.7,67.4,97.1,68.8,100.2,69.7L100.2,69.7z M156.4,66.3c-0.1-2.3-1.2-4.4-6-4.9c-2.4-0.3-4.9-0.1-6.9,1.2c-2.9,1.7-2.8,5-0.1,6.2
		c7.3,3.3,12.1,0.1,12.8-1.5c-1.5-0.1-3-0.1-4.5-0.2c-1.6,1.6-5,1.2-5.4-1C149.6,66.2,153,66.2,156.4,66.3L156.4,66.3z M146.4,64.5
		c0.7-1.7,4.6-2,5.5,0C150,64.5,148.2,64.5,146.4,64.5L146.4,64.5z M154.5,80.6c-0.1-2.3-1.2-4.4-6-4.9c-2.4-0.3-4.9-0.1-6.9,1.2
		c-2.9,1.7-2.8,5-0.1,6.2c7.3,3.3,12.1,0.1,12.8-1.5c-1.5-0.1-3-0.1-4.5-0.2c-1.6,1.6-5,1.2-5.4-1C147.7,80.5,151.1,80.6,154.5,80.6
		L154.5,80.6z M144.5,78.8c0.7-1.7,4.6-2,5.5,0C148.2,78.8,146.3,78.8,144.5,78.8L144.5,78.8z M125.8,56.9c-1.5,0-2.8,0.7-2.8,1.6
		c0,0.9,1.2,1.6,2.8,1.7c1.5,0,2.8-0.7,2.8-1.6C128.6,57.7,127.3,56.9,125.8,56.9L125.8,56.9z M131.9,69.6c1.7,0,3.3,0,5,0
		c0-1.9,0-3.7,0-5.6c1.1,0,2.2,0,3.2,0c0-0.8,0-1.6,0-2.4c-1,0-2.1,0-3.1,0c0-0.5,0-1,0-1.6c0.1-1.3,1.2-1.1,3.1-0.8
		c0-0.8,0-1.6,0-2.4c-4-0.8-8.4,0-8.2,4.7c-0.6,0-1.2,0-1.8,0c0,0.8,0,1.6,0,2.4c0.6,0,1.2,0,1.8,0
		C131.9,65.9,131.9,67.7,131.9,69.6z"/>
	<path class="st5" d="M61,88.3c0,0,33-48-10-46.5c4.5-7.3,36.5-8.8,33.5,12.1C81.5,74.8,61,88.3,61,88.3z"/>
	<path class="st3" d="M107.7,33.1c0,0-25.2,1-7.3,30.5c-7.1-4.8-13.9-15.6-14.1-21.8C87,25.8,107.7,33.1,107.7,33.1z"/>
	<path class="st5" d="M81.9,17.6c-2.3,0-4.2,3.9-4.2,8.8c0,4.8,1.8,8.8,4.1,8.8c2.3,0,4.2-3.9,4.2-8.8C86,21.5,84.2,17.6,81.9,17.6z
		"/>
	<path class="st3" d="M95,17c-1.6,0-2.9,2.8-2.9,6.1c0,3.4,1.3,6.2,2.9,6.2c1.6,0,2.9-2.8,2.9-6.1C97.9,19.7,96.6,17,95,17z"/>
	<path class="st5" d="M158.8,51.9l0.1,0c0.3,0,0.5,0,0.6,0.1c0.1,0.1,0.3,0.2,0.3,0.3c0.1,0.1,0.1,0.3,0.1,0.5
		c0,0.2-0.1,0.4-0.2,0.6c-0.1,0.2-0.4,0.2-0.7,0.3c0.1,0.1,0.2,0.1,0.2,0.2c0.1,0.1,0.2,0.2,0.3,0.4l0.5,0.8l-0.5,0l-0.4-0.6
		c-0.1-0.2-0.2-0.3-0.3-0.4c-0.1-0.1-0.1-0.2-0.2-0.2c0,0,0,0-0.1,0v-0.4h0.1c0.2,0,0.3,0,0.4-0.1c0.1,0,0.2-0.1,0.2-0.2
		c0.1-0.1,0.1-0.2,0.1-0.3c0-0.1-0.1-0.3-0.2-0.4c-0.1-0.1-0.3-0.1-0.5-0.1l-0.2,0V51.9z M157.6,55l0-3.1l1.2,0v0.3l-0.8,0l0,1
		l0.8,0v0.4c0,0-0.1,0-0.1,0c0,0-0.1,0-0.2,0l-0.5,0l0,1.4L157.6,55z"/>
	<path class="st5" d="M159,50.5c1.7,0,3,1.4,3,3c0,1.7-1.4,3-3,3V56c1.4,0,2.5-1.1,2.5-2.5c0-1.4-1.1-2.5-2.5-2.5h0L159,50.5
		L159,50.5z M159,56.5L159,56.5c-1.7,0-3-1.4-3-3c0-1.7,1.4-3,3-3v0.5c-1.4,0-2.5,1.1-2.5,2.5c0,1.4,1.1,2.5,2.5,2.5h0V56.5z"/>
	<path class="st5" d="M66.2,105.4l0.9-0.1c0,0.4,0.1,0.7,0.3,0.9c0.2,0.2,0.4,0.4,0.7,0.6c0.3,0.1,0.7,0.2,1.1,0.2
		c0.4,0,0.7-0.1,1-0.2c0.3-0.1,0.5-0.3,0.6-0.5c0.1-0.2,0.2-0.4,0.2-0.6c0-0.2-0.1-0.4-0.2-0.6c-0.1-0.2-0.4-0.3-0.7-0.4
		c-0.2-0.1-0.6-0.2-1.3-0.4c-0.7-0.2-1.2-0.3-1.4-0.5c-0.4-0.2-0.6-0.4-0.8-0.7c-0.2-0.3-0.3-0.6-0.3-0.9c0-0.4,0.1-0.7,0.3-1.1
		c0.2-0.3,0.5-0.6,0.9-0.7c0.4-0.2,0.9-0.3,1.4-0.3c0.6,0,1,0.1,1.5,0.3c0.4,0.2,0.7,0.4,1,0.8c0.2,0.3,0.3,0.7,0.4,1.2l-0.9,0.1
		c-0.1-0.5-0.2-0.8-0.5-1.1c-0.3-0.2-0.7-0.4-1.3-0.4c-0.6,0-1,0.1-1.3,0.3c-0.3,0.2-0.4,0.5-0.4,0.8c0,0.3,0.1,0.5,0.3,0.7
		c0.2,0.2,0.7,0.4,1.5,0.5c0.8,0.2,1.4,0.3,1.6,0.5c0.4,0.2,0.8,0.5,1,0.8c0.2,0.3,0.3,0.7,0.3,1.1c0,0.4-0.1,0.8-0.3,1.1
		c-0.2,0.4-0.6,0.6-1,0.8c-0.4,0.2-0.9,0.3-1.4,0.3c-0.7,0-1.2-0.1-1.7-0.3c-0.5-0.2-0.8-0.5-1.1-0.9
		C66.4,106.3,66.2,105.9,66.2,105.4L66.2,105.4z M73.4,109.8v-7.5h0.8v0.7c0.2-0.3,0.4-0.5,0.7-0.6c0.2-0.1,0.5-0.2,0.9-0.2
		c0.5,0,0.9,0.1,1.2,0.4c0.4,0.2,0.6,0.6,0.8,1c0.2,0.4,0.3,0.9,0.3,1.4c0,0.6-0.1,1-0.3,1.5c-0.2,0.4-0.5,0.8-0.9,1
		c-0.4,0.2-0.8,0.4-1.2,0.4c-0.3,0-0.6-0.1-0.8-0.2c-0.2-0.1-0.4-0.3-0.6-0.5v2.6H73.4L73.4,109.8z M74.2,105.1
		c0,0.7,0.1,1.2,0.4,1.5c0.3,0.3,0.6,0.5,1,0.5c0.4,0,0.8-0.2,1-0.5c0.3-0.3,0.4-0.9,0.4-1.6c0-0.7-0.1-1.2-0.4-1.5
		c-0.3-0.3-0.6-0.5-1-0.5c-0.4,0-0.7,0.2-1,0.5C74.4,103.9,74.2,104.4,74.2,105.1L74.2,105.1z M78.8,105.1c0-1,0.3-1.7,0.8-2.2
		c0.5-0.4,1-0.6,1.7-0.6c0.7,0,1.3,0.2,1.8,0.7c0.5,0.5,0.7,1.2,0.7,2c0,0.7-0.1,1.2-0.3,1.6c-0.2,0.4-0.5,0.7-0.9,0.9
		c-0.4,0.2-0.8,0.3-1.3,0.3c-0.8,0-1.4-0.2-1.8-0.7C79.1,106.7,78.8,106,78.8,105.1L78.8,105.1z M79.8,105.1c0,0.7,0.2,1.2,0.5,1.6
		c0.3,0.3,0.7,0.5,1.1,0.5c0.5,0,0.8-0.2,1.1-0.5c0.3-0.3,0.5-0.9,0.5-1.6c0-0.7-0.2-1.2-0.5-1.5c-0.3-0.3-0.7-0.5-1.1-0.5
		c-0.5,0-0.8,0.2-1.1,0.5C79.9,103.9,79.8,104.4,79.8,105.1L79.8,105.1z M84.9,107.8v-5.4h0.8v0.8c0.2-0.4,0.4-0.6,0.6-0.8
		c0.2-0.1,0.4-0.2,0.6-0.2c0.3,0,0.6,0.1,0.9,0.3l-0.3,0.8c-0.2-0.1-0.4-0.2-0.7-0.2c-0.2,0-0.4,0.1-0.5,0.2
		c-0.2,0.1-0.3,0.3-0.3,0.5c-0.1,0.3-0.2,0.7-0.2,1.1v2.8H84.9L84.9,107.8z M90.4,106.9l0.1,0.8c-0.3,0.1-0.5,0.1-0.7,0.1
		c-0.3,0-0.6-0.1-0.8-0.2c-0.2-0.1-0.3-0.2-0.4-0.4c-0.1-0.2-0.1-0.5-0.1-1.1v-3.1h-0.7v-0.7h0.7V101l0.9-0.5v1.9h0.9v0.7h-0.9v3.2
		c0,0.3,0,0.4,0,0.5c0,0.1,0.1,0.1,0.2,0.2c0.1,0,0.2,0.1,0.3,0.1C90.1,107,90.2,107,90.4,106.9L90.4,106.9z M90.9,106.2l0.9-0.1
		c0.1,0.4,0.2,0.6,0.4,0.8c0.2,0.2,0.6,0.3,1,0.3c0.4,0,0.7-0.1,0.9-0.3c0.2-0.2,0.3-0.4,0.3-0.6c0-0.2-0.1-0.4-0.3-0.5
		c-0.1-0.1-0.4-0.2-0.9-0.3c-0.7-0.2-1.1-0.3-1.4-0.4c-0.3-0.1-0.5-0.3-0.6-0.5c-0.1-0.2-0.2-0.5-0.2-0.7c0-0.2,0.1-0.5,0.2-0.7
		c0.1-0.2,0.3-0.4,0.4-0.5c0.1-0.1,0.3-0.2,0.6-0.3c0.2-0.1,0.5-0.1,0.8-0.1c0.4,0,0.8,0.1,1.1,0.2c0.3,0.1,0.6,0.3,0.7,0.5
		c0.2,0.2,0.3,0.5,0.3,0.8l-0.9,0.1c0-0.3-0.2-0.5-0.4-0.7c-0.2-0.2-0.5-0.2-0.8-0.2c-0.4,0-0.7,0.1-0.9,0.2
		c-0.2,0.1-0.3,0.3-0.3,0.5c0,0.1,0,0.2,0.1,0.3c0.1,0.1,0.2,0.2,0.4,0.2c0.1,0,0.4,0.1,0.8,0.2c0.6,0.2,1.1,0.3,1.4,0.4
		c0.3,0.1,0.5,0.3,0.6,0.5c0.1,0.2,0.2,0.5,0.2,0.8c0,0.3-0.1,0.6-0.3,0.9c-0.2,0.3-0.4,0.5-0.8,0.6c-0.3,0.1-0.7,0.2-1.1,0.2
		c-0.7,0-1.2-0.1-1.6-0.4C91.3,107.2,91,106.7,90.9,106.2L90.9,106.2z M99.5,107.8v-7.4h5.4v0.9h-4.4v2.3h4.1v0.9h-4.1v2.5h4.6v0.9
		H99.5L99.5,107.8z M109.8,109.8v-2.6c-0.1,0.2-0.3,0.4-0.6,0.5c-0.3,0.1-0.5,0.2-0.8,0.2c-0.6,0-1.2-0.3-1.7-0.8
		c-0.5-0.5-0.7-1.2-0.7-2.1c0-0.5,0.1-1,0.3-1.5c0.2-0.4,0.5-0.8,0.8-1c0.4-0.2,0.7-0.3,1.2-0.3c0.7,0,1.2,0.3,1.6,0.8v-0.7h0.8v7.5
		H109.8L109.8,109.8z M107,105.1c0,0.7,0.1,1.2,0.4,1.6c0.3,0.3,0.6,0.5,1,0.5c0.4,0,0.7-0.2,1-0.5c0.3-0.3,0.4-0.8,0.4-1.5
		c0-0.7-0.1-1.3-0.4-1.6c-0.3-0.4-0.6-0.5-1-0.5c-0.4,0-0.7,0.2-1,0.5C107.1,103.8,107,104.3,107,105.1L107,105.1z M115.7,107.8V107
		c-0.4,0.6-1,0.9-1.7,0.9c-0.3,0-0.6-0.1-0.9-0.2c-0.3-0.1-0.5-0.3-0.6-0.5c-0.1-0.2-0.2-0.4-0.3-0.7c0-0.2-0.1-0.5-0.1-0.9v-3.3
		h0.9v3c0,0.5,0,0.8,0.1,1c0.1,0.2,0.2,0.4,0.4,0.6c0.2,0.1,0.4,0.2,0.7,0.2c0.3,0,0.5-0.1,0.8-0.2c0.2-0.1,0.4-0.3,0.5-0.6
		c0.1-0.2,0.2-0.6,0.2-1.1v-2.9h0.9v5.4H115.7L115.7,107.8z M117.9,101.4v-1.1h0.9v1.1H117.9L117.9,101.4z M117.9,107.8v-5.4h0.9
		v5.4H117.9L117.9,107.8z M120.2,109.8v-7.5h0.8v0.7c0.2-0.3,0.4-0.5,0.7-0.6c0.2-0.1,0.5-0.2,0.9-0.2c0.5,0,0.9,0.1,1.2,0.4
		c0.4,0.2,0.6,0.6,0.8,1c0.2,0.4,0.3,0.9,0.3,1.4c0,0.6-0.1,1-0.3,1.5c-0.2,0.4-0.5,0.8-0.9,1c-0.4,0.2-0.8,0.4-1.2,0.4
		c-0.3,0-0.6-0.1-0.8-0.2c-0.2-0.1-0.4-0.3-0.6-0.5v2.6H120.2L120.2,109.8z M121,105.1c0,0.7,0.1,1.2,0.4,1.5c0.3,0.3,0.6,0.5,1,0.5
		c0.4,0,0.8-0.2,1-0.5c0.3-0.3,0.4-0.9,0.4-1.6c0-0.7-0.1-1.2-0.4-1.5c-0.3-0.3-0.6-0.5-1-0.5c-0.4,0-0.7,0.2-1,0.5
		C121.2,103.9,121,104.4,121,105.1L121,105.1z M126,107.8v-5.4h0.8v0.8c0.2-0.3,0.4-0.5,0.7-0.6c0.3-0.2,0.6-0.2,1-0.2
		c0.4,0,0.7,0.1,1,0.3c0.3,0.2,0.4,0.4,0.5,0.7c0.4-0.6,1-0.9,1.7-0.9c0.5,0,0.9,0.1,1.2,0.4c0.3,0.3,0.4,0.8,0.4,1.4v3.7h-0.9v-3.4
		c0-0.4,0-0.6-0.1-0.8c-0.1-0.2-0.2-0.3-0.3-0.4c-0.2-0.1-0.3-0.1-0.5-0.1c-0.4,0-0.7,0.1-0.9,0.4c-0.2,0.3-0.4,0.7-0.4,1.2v3.1
		h-0.9v-3.5c0-0.4-0.1-0.7-0.2-0.9c-0.1-0.2-0.4-0.3-0.7-0.3c-0.3,0-0.5,0.1-0.7,0.2c-0.2,0.1-0.4,0.3-0.5,0.6
		c-0.1,0.3-0.1,0.6-0.1,1.1v2.8H126L126,107.8z M138.4,106l0.9,0.1c-0.1,0.6-0.4,1-0.8,1.3c-0.4,0.3-0.9,0.5-1.5,0.5
		c-0.8,0-1.4-0.2-1.9-0.7c-0.5-0.5-0.7-1.2-0.7-2c0-0.9,0.2-1.6,0.7-2.1c0.5-0.5,1.1-0.8,1.8-0.8c0.7,0,1.3,0.2,1.8,0.7
		c0.5,0.5,0.7,1.2,0.7,2.1c0,0.1,0,0.1,0,0.2h-4c0,0.6,0.2,1,0.5,1.4c0.3,0.3,0.7,0.5,1.1,0.5c0.3,0,0.6-0.1,0.9-0.3
		C138,106.7,138.2,106.4,138.4,106L138.4,106z M135.4,104.6h3c0-0.5-0.2-0.8-0.3-1c-0.3-0.4-0.7-0.5-1.1-0.5c-0.4,0-0.8,0.1-1.1,0.4
		C135.5,103.7,135.4,104.1,135.4,104.6L135.4,104.6z M140.5,107.8v-5.4h0.8v0.8c0.4-0.6,1-0.9,1.7-0.9c0.3,0,0.6,0.1,0.9,0.2
		c0.3,0.1,0.5,0.3,0.6,0.5c0.1,0.2,0.2,0.4,0.3,0.7c0,0.2,0.1,0.5,0.1,0.9v3.3h-0.9v-3.3c0-0.4,0-0.7-0.1-0.8
		c-0.1-0.2-0.2-0.3-0.4-0.4c-0.2-0.1-0.4-0.2-0.6-0.2c-0.4,0-0.7,0.1-1,0.4c-0.3,0.2-0.4,0.7-0.4,1.4v2.9H140.5L140.5,107.8z
		 M148.2,106.9l0.1,0.8c-0.3,0.1-0.5,0.1-0.7,0.1c-0.3,0-0.6-0.1-0.8-0.2c-0.2-0.1-0.3-0.2-0.4-0.4c-0.1-0.2-0.1-0.5-0.1-1.1v-3.1
		h-0.7v-0.7h0.7V101l0.9-0.5v1.9h0.9v0.7h-0.9v3.2c0,0.3,0,0.4,0,0.5c0,0.1,0.1,0.1,0.2,0.2c0.1,0,0.2,0.1,0.3,0.1
		C147.9,107,148.1,107,148.2,106.9z"/>
</g>
</svg>
