<?xml version="1.0" encoding="utf-8"?>
<!-- Generator: Adobe Illustrator 24.0.2, SVG Export Plug-In . SVG Version: 6.00 Build 0)  -->
<svg version="1.1" id="Layer_1" xmlns="http://www.w3.org/2000/svg" xmlns:xlink="http://www.w3.org/1999/xlink" x="0px" y="0px"
	 viewBox="0 0 211 133" style="enable-background:new 0 0 211 133;" xml:space="preserve">
<style type="text/css">
	.st0{fill-rule:evenodd;clip-rule:evenodd;fill:#F48534;}
	.st1{fill-rule:evenodd;clip-rule:evenodd;fill:#4D4D4D;}
</style>
<g>
	<g>
		<path class="st0" d="M105.1,22.6l22.5,0.1l-0.1,22.9c-0.4-0.5-0.8,0.9-1.2,0.4c0.4-0.3,0-0.3-0.2-0.1l0,0.1
			c-0.4,0.2-0.7-0.1-1.1,0.1c-0.1,0.8-2.3,0.4-2.7,0.6l0,0.1c-2.6,0.8-5,1.3-9,2l0,0.2c-0.1,0.1-0.3-1.3-0.4-1.2l-0.2-2l-1.3,0.4
			l-0.5-0.9c-0.8,0.5-1.6,1-2.4,1.5l0.1,0.1L98.3,49C101,40.9,103.4,30,105.1,22.6L105.1,22.6z M127.5,45.6c0,0.1-0.1,0.2-0.1,0.4
			c0,0,0,0-0.1,0l0.2,0L127.5,45.6L127.5,45.6z M126.5,46.2c0,0-0.1,0-0.1,0L126.5,46.2z"/>
		<path class="st1" d="M83.8,26.1l9.9,0c1.1-4.4,2.1-8.5,3.2-12.9l2,0c-4.1,17-7.9,34-12.9,50.6c0.5-0.2,1-0.3,1.3-0.3l0,0l0.1,0
			l0-0.1c0.6,0,1.9-0.8,2.2-0.7c6.9-1.6,13.9-2.7,20.7-4.8c-0.5-0.3-5.4,0.9-6.4,1.1c-0.1-0.2,0.1-0.3,0.3-0.3
			c-0.6-0.4-9,3.1-8.8,1.5c0.3-0.3,0.7-0.4,1.1-0.3c4.9-1.6,10.5-2.7,15.6-3.9c0.7-0.6,2.6-0.1,3.1-0.5l-0.1-0.2
			c1.7-0.4,2.8-0.6,3.8-1c-1,0.2-2.1,0.5-3.9,0.8l-0.2-0.4l0,0l0.5-0.1c0-0.2-0.5,0-0.5,0.1l-0.8-1.3c3.6-1,6.9-1.8,10-2.6
			c0,4.2,0,12.2-0.1,17.6l-40.3-0.1L83.8,26.1L83.8,26.1z M124.1,49.1c-0.1,0-0.2,0.1-0.3,0.1c-0.6-0.1-1,0.3-1.5,0.1l0,0.2
			c-0.2,0.1-0.6,0-0.8,0l0,0.2c0,0-3.5,1.2-4.3,1.6c1.2,0.1,2.3-0.4,3.5-0.6l0,0.1c-1.9,0.6-3.8,1.2-6.9,1.8L114,53l0.1,0
			c3.6-1,6.9-1.9,10.1-2.7L124.1,49.1L124.1,49.1z M110.9,53.2c-7.3,1.6-14.8,3.6-22,5.5l-0.2,0.5c7.4-2,14.9-4,22.4-5.6L110.9,53.2
			L110.9,53.2z M112,55.2l-2.8,0.6c0.8-0.3,1.8-0.6,2.7-0.8c-0.3-0.6-0.2-0.6-0.7-0.8l0.2-0.1l-0.2-0.3c-3.5,0.8-7.8,1.6-11.1,2.8
			c0.3,0.3,0.7,0,1.1,0c-1.3,0.2-2.6,1.2-4,1.3l0.1-0.1c-0.3-0.2-1.3,0.3-1.8,0.2l0-0.2c0.5-0.1,1.2-0.2,1.7-0.3l0-0.2
			c-1.2,0.3-2.5,0-1.7,1c-0.5,0.1-1.8,0.4-2.3,0.6c0.4-0.4,1-0.3,1.5-0.8c-1.1,0.1-1.5,0.5-2.6,1c0.1,0.8,10.6-2.2,12.4-2.5
			c2.6-0.4,5-0.7,7.6-1.2L112,55.2L112,55.2z M87.7,62.6c0.9,0,2.9-0.6,3.8-1l0-0.2c-0.8-0.3-2.6,0.3-3.6,0.5L87.7,62.6L87.7,62.6z
			 M87.8,66.6c0.3,0,0.6-0.1,0.7-0.3c6.6-1,13.1-2.9,19.7-4.9c-6.7,1.4-13.3,3.5-20.2,4.9C87.9,66.3,87.8,66.4,87.8,66.6L87.8,66.6z
			 M88,65.9l6.3-1.8C93.4,64.2,88.4,65.1,88,65.9L88,65.9z M97.6,63.6c0.3,0,2-0.5,2.2-0.6c-0.8,0-1.6,0.2-2.4,0.5L97.6,63.6
			L97.6,63.6L97.6,63.6z M104.4,56.6L104.4,56.6c0.2-0.2,0.5-0.1,0.5-0.2l-0.2-0.1C104.7,56.3,103.6,56.7,104.4,56.6L104.4,56.6z
			 M102.5,56.7l1.8-0.6l0-0.1l-2.5,0.6l0.5-0.1L102.5,56.7L102.5,56.7z M121.2,50.7c-0.8,0.2,1.8-0.6,1-0.5
			c-0.1-0.3-1.2,0.3-1.3,0.5C121,50.8,121.1,50.7,121.2,50.7z"/>
	</g>
	<g>
		<path class="st0" d="M137.7,120.2l0-6.8l5,0l0,1.2l-3.7,0l0,1.5l3.4,0l0,1.1l-3.4,0l0,1.9l3.8,0l0,1.1L137.7,120.2L137.7,120.2z
			 M119.9,120.2l0-6.8l1.3,0l2.8,4.6l0-4.5l1.3,0l0,6.8l-1.4,0l-2.7-4.4l0,4.4L119.9,120.2L119.9,120.2z M102.6,116.7
			c0,0.8,0.2,1.4,0.5,1.8c0.4,0.4,0.8,0.6,1.4,0.6c0.5,0,1-0.2,1.4-0.6c0.4-0.4,0.5-1,0.5-1.8c0-0.8-0.2-1.4-0.5-1.7
			c-0.3-0.4-0.8-0.6-1.4-0.6c-0.6,0-1,0.2-1.4,0.6C102.8,115.3,102.6,115.9,102.6,116.7L102.6,116.7z M101.2,116.7
			c0-0.7,0.1-1.3,0.3-1.7c0.2-0.3,0.4-0.7,0.6-0.9c0.3-0.3,0.6-0.5,0.9-0.6c0.4-0.2,0.9-0.3,1.5-0.3c1,0,1.8,0.3,2.4,0.9
			c0.6,0.6,0.9,1.5,0.9,2.6c0,1.1-0.3,2-0.9,2.6c-0.6,0.6-1.4,0.9-2.4,0.9c-1,0-1.8-0.3-2.4-0.9
			C101.5,118.7,101.2,117.8,101.2,116.7L101.2,116.7z M86.4,120.1l0-5.7l-2,0l0-1.2l5.4,0l0,1.2l-2,0l0,5.7L86.4,120.1L86.4,120.1z
			 M67.2,117.8l1.3-0.1c0.1,0.5,0.2,0.8,0.5,1c0.2,0.2,0.6,0.3,1,0.3c0.4,0,0.8-0.1,1-0.3c0.2-0.2,0.3-0.4,0.3-0.7
			c0-0.2,0-0.3-0.1-0.4c-0.1-0.1-0.3-0.2-0.5-0.3c-0.2-0.1-0.5-0.2-1.1-0.3c-0.7-0.2-1.3-0.4-1.5-0.7c-0.4-0.4-0.6-0.8-0.6-1.4
			c0-0.3,0.1-0.7,0.3-1c0.2-0.3,0.5-0.5,0.9-0.7c0.4-0.2,0.8-0.2,1.3-0.2c0.9,0,1.5,0.2,1.9,0.6c0.4,0.4,0.7,0.9,0.7,1.5l-1.4,0.1
			c-0.1-0.4-0.2-0.6-0.4-0.8c-0.2-0.2-0.5-0.2-0.9-0.2c-0.4,0-0.7,0.1-0.9,0.2c-0.1,0.1-0.2,0.2-0.2,0.4c0,0.2,0.1,0.3,0.2,0.4
			c0.2,0.1,0.6,0.3,1.3,0.5c0.7,0.2,1.2,0.3,1.5,0.5c0.3,0.2,0.6,0.4,0.8,0.7c0.2,0.3,0.3,0.7,0.3,1.1c0,0.4-0.1,0.8-0.3,1.1
			c-0.2,0.3-0.5,0.6-0.9,0.8c-0.4,0.2-0.9,0.2-1.5,0.2c-0.9,0-1.5-0.2-2-0.6C67.5,119.1,67.3,118.6,67.2,117.8z"/>
		<path class="st1" d="M137.7,109.9l0-0.4c0.1-3.7,0.1-6.4,0.1-8c0-2.8,0-5.3-0.1-7.7c-0.1-2.4-0.2-4.6-0.3-6.5l5.7-0.6
			c0.1,3.1,0.1,6.3,0.2,9.6c0,3.2,0.1,6.6,0,9.9l0,4c-0.7-0.1-1.3-0.2-2-0.2c-0.7,0-1.3-0.1-2-0.1c-0.4,0-0.8,0-1,0
			C138.1,109.9,137.9,109.9,137.7,109.9L137.7,109.9z M125.6,110c0-1.8,0.1-3.6,0.1-5.6c0-2,0-4,0-6.1c0-2,0-4,0-6.3
			c0-0.6,0-1,0-1.2c0-5,0.7-8.7,1.9-11.2c1.3-2.5,3.2-3.7,5.8-3.7c0.7,0,1.4,0.1,2,0.2c0.6,0.2,1.2,0.4,1.8,0.7l0,0.3
			c0,0.6-0.1,1.4-0.3,2.3c-0.2,0.9-0.5,2.4-1,4.3c-0.3-0.5-0.7-0.9-1-1.2c-0.3-0.2-0.7-0.4-1-0.4c-0.9,0-1.5,0.7-1.9,2
			c-0.4,1.3-0.6,3.7-0.6,7.2c0,0.3,0,0.8,0,1.5c0,0.7,0,1.2,0,1.6c0.5,0,1.1-0.1,1.8-0.2c0.6-0.1,1.3-0.3,2.1-0.4c0,0.2,0,0.5,0,0.8
			c0,0.4,0,0.6,0,0.8c0,0.8,0,1.5-0.1,2.2c-0.1,0.7-0.2,1.4-0.3,2c-0.6,0.2-1.2,0.4-1.7,0.6c-0.6,0.2-1.2,0.3-1.7,0.4
			c0,0.7-0.1,1.3-0.1,2c0,0.6,0,1.3,0,1.9c0,1,0,2,0.1,2.9c0.1,0.9,0.1,1.7,0.2,2.4c-0.5,0-1-0.1-1.5-0.1c-0.5,0-1,0-1.5,0
			c-0.6,0-1.2,0-1.8,0C126.6,109.9,126.1,110,125.6,110L125.6,110z M121,80.2c-0.1,1.3-0.2,2.8-0.3,4.3c-0.1,1.5-0.1,3.2-0.1,5.1
			c0,0.1,0,0.4,0,1c0,0.6,0,1.1,0,1.6c0.4,0,0.8-0.1,1.3-0.1c0.5-0.1,0.9-0.2,1.4-0.3c0,1.5,0.1,2.7,0.1,3.6
			c0.1,0.9,0.1,1.6,0.2,2.2c-0.3,0.1-0.6,0.3-1.1,0.4c-0.4,0.1-1.1,0.2-1.8,0.3c0,2.5,0,4.8,0,6.6c0,1.9,0.1,3.6,0.2,5.1
			c-0.2,0-0.6,0-1.1,0c-0.5,0-0.9,0-1.1,0c-0.7,0-1.7,0-3,0.1l-0.1,0l-0.3-11.7c-0.4,0-0.8-0.1-1.3-0.2c-0.5-0.1-0.9-0.2-1.4-0.4
			l0.3-5.3l2-0.1c-0.1-1.7-0.2-3.3-0.2-4.9c0-1.6-0.1-3.1-0.1-4.5l0-1.4L121,80.2L121,80.2z M105.7,110.3l-0.3-3
			c-0.6,1-1.3,1.8-2,2.3c-0.7,0.5-1.4,0.8-2.2,0.8c-1.5,0-2.6-1-3.3-2.9c-0.7-1.9-1-4.9-1-9c0-1.6,0.1-3.3,0.2-5.2
			c0.1-1.9,0.3-3.9,0.6-6.2c0.2,0,0.4,0,0.6,0c0.2,0,0.4,0,0.7,0c0.6,0,1.2,0,1.8-0.1c0.6-0.1,1.3-0.2,2.1-0.4
			c-0.2,2.3-0.4,4.4-0.5,6.4c-0.1,2-0.2,3.6-0.2,5c0,1.4,0.1,2.3,0.4,2.9c0.3,0.6,0.7,0.8,1.3,0.8c0.2,0,0.4,0,0.6-0.1
			c0.2-0.1,0.4-0.2,0.6-0.4l0.1-14c0.7-0.1,1.3-0.2,1.8-0.2c0.5,0,1-0.1,1.4-0.1c0.4,0,0.9,0,1.7,0.1c0.1,0,0.2,0,0.3,0l-0.1,21.4
			L105.7,110.3L105.7,110.3z M88.4,86.5c1.8,0,3.3,1.1,4.5,3.3c1.2,2.2,1.7,5.1,1.7,8.7c0,3.4-0.6,6.2-1.9,8.4
			c-1.3,2.2-2.8,3.3-4.7,3.2c-2,0-3.7-1.1-4.9-3.2c-1.2-2.1-1.9-5-1.8-8.5c0-3.5,0.7-6.3,2.1-8.6C84.7,87.6,86.4,86.5,88.4,86.5
			L88.4,86.5z M89.7,98.7c0-1.1-0.2-2-0.5-2.6c-0.3-0.6-0.8-0.9-1.4-0.9c-0.5,0-1,0.3-1.3,0.9c-0.3,0.6-0.5,1.5-0.5,2.6
			c0,1.1,0.1,2,0.4,2.5c0.3,0.5,0.7,0.8,1.3,0.8c0.6,0,1.1-0.3,1.4-0.9C89.5,100.7,89.7,99.8,89.7,98.7L89.7,98.7z M67,110.2
			c0.2-2.2,0.3-4.5,0.4-6.9c0.1-2.4,0.1-5.9,0.2-10.5c0-3.6,0-6.7-0.1-9.3c-0.1-2.6-0.2-4.9-0.4-6.8l6.2-0.3c0,0.4,0,1,0,1.8
			c0,0.8,0,1.5,0,1.9c0,1.6,0,4.2,0,7.5c0,3.4,0.1,6,0,7.8c0,1.8,0,3.4-0.1,4.9c0,1.5-0.1,2.9-0.1,4.1c0.5,0,0.9,0.1,1.4,0.1
			c0.5,0,1.2,0,2.1,0c0.4,0,1.1,0,2.1-0.1c0.1,0,0.2,0,0.3,0c0,0.5,0.1,0.9,0.1,1.2c0,0.3,0,0.6,0,0.8c0,0.6,0,1.3-0.1,1.9
			c0,0.7-0.1,1.3-0.2,2c-0.1,0-0.3,0-0.6,0c-0.3,0-0.5,0-0.6,0c-0.7,0-2.1-0.1-4.2-0.2c-2.2-0.1-4-0.1-5.5-0.1L67,110.2z"/>
		<path class="st0" d="M141.6,78.3c1.5,0,2.8,1.2,2.7,2.8c0,1.5-1.2,2.8-2.8,2.7c-1.5,0-2.8-1.2-2.7-2.8
			C138.8,79.5,140,78.3,141.6,78.3z"/>
	</g>
</g>
</svg>
