<?xml version="1.0" encoding="utf-8"?>
<!-- Generator: Adobe Illustrator 24.0.2, SVG Export Plug-In . SVG Version: 6.00 Build 0)  -->
<svg version="1.1" id="Layer_1" xmlns="http://www.w3.org/2000/svg" xmlns:xlink="http://www.w3.org/1999/xlink" x="0px" y="0px"
	 viewBox="0 0 211 133" style="enable-background:new 0 0 211 133;" xml:space="preserve">
<style type="text/css">
	.st0{fill-rule:evenodd;clip-rule:evenodd;fill:#373435;}
	.st1{fill-rule:evenodd;clip-rule:evenodd;fill:#373435;stroke:#373435;stroke-width:0.7087;stroke-miterlimit:2.6131;}
	.st2{fill-rule:evenodd;clip-rule:evenodd;fill:#FDFDFD;}
	.st3{fill-rule:evenodd;clip-rule:evenodd;fill:#00A759;}
	.st4{fill-rule:evenodd;clip-rule:evenodd;fill:#EC3237;}
</style>
<g>
	<path class="st0" d="M21.3,28v1.9c0.1,0.1,0.3,0.3,0.4,0.4c0.9,0.8,1.7,1.8,1.7,3.1v6.3v1.9v21.3c0,2-0.8,3.6-2.6,4.7
		c-0.3,0.2-0.9,0.5-0.9,1v1.8c0,0.1,0,0.2,0,0.3c0.1,0.1,0.4,0.1,0.4,0.1h27.8l0-16c-0.1,0-0.1,0-0.2,0h-2.2
		c-0.2,0.5-0.3,1.4-0.4,1.8c-0.5,2.7-1.4,6.1-3.2,8.2c-1.7,1.9-3.9,2.6-6.4,2.6h-5.2V41.6v-1.9v-6.3c0-1.3,0.8-2.3,1.7-3.1
		c0.1-0.1,0.3-0.3,0.4-0.4V28H21.3z"/>
	<g>
		<path class="st0" d="M59,27.9l-9.4,0.2V30c0.1,0.1,0.3,0.3,0.4,0.4c0.9,0.8,1.7,1.8,1.7,3.1v30.3c0,2,0.4,4,1.8,5.6
			c1.3,1.5,2.9,2,4.9,2c2.8,0,6-2.2,8.1-3.9l1.8-1.5v5l9.4-0.2v-2c-0.1-0.1-0.3-0.3-0.4-0.4c-0.9-0.8-1.7-1.8-1.7-3.1V27.9l-9.3,0.2
			l0,1.9c0.1,0.1,0.3,0.3,0.4,0.4c0.9,0.8,1.6,1.8,1.6,3.1v29.9l-0.2,0.3C66.8,65.4,65,67,62.7,67C60,67,59,64.9,59,62.4V27.9z"/>
		<path class="st0" d="M80.8,70.4c0.1,0,0.3,0,0.4,0c0.8,0,1.6,0,2.4,0c1.9-0.1,3.7-0.1,5.6-0.1c4.2,0,12.4,0.4,12.4,6.3
			c0,2.1-1,3.7-2.7,4.9c-1.7,1.3-3.8,1.8-5.9,1.8c-1.8,0-3.6-0.4-5.2-1.2l-1-0.5l0.5-1c0.3-0.5,0.6-1.2,0.6-1.8c0-0.8-0.3-1.4-0.9-2
			c-0.7-0.6-1.5-0.8-2.4-0.8c-0.9,0-1.8,0.3-2.5,0.9c-0.7,0.7-0.9,1.5-0.9,2.4c0,2,1,3.4,2.7,4.4c2.4,1.5,5.6,1.8,8.3,1.8
			c3.8,0,7.7-0.7,10.8-3.1c2.7-2.1,3.9-4.9,3.9-8.3c0-8.7-8.1-10.2-15.3-10.2h-6l3.4-8.5l0.9,0.2c1.2,0.2,2.4,0.4,3.6,0.4
			c3.4,0,6.2-1.2,8.2-4c2.4-3.2,3.1-7.4,3.1-11.3c0-3.8-1.1-7.2-3.3-10.3l-0.7-1l1.1-0.6c0.6-0.4,1.4-0.6,2.1-0.6
			c0.6,0,1.3,0.3,1.8,0.6c0.4,0.2,1,0.5,1.5,0.5c1.3,0,1.7-0.5,1.7-1.7c0-0.7-0.3-1.3-0.8-1.7c-0.7-0.5-1.4-0.7-2.2-0.7
			c-1.9,0-3.9,1.8-5.1,3L100,29l-0.8-0.5c-1.9-1.2-4-1.7-6.2-1.7c-3.5,0-6.6,1-8.7,4c-2.2,3.1-2.9,6.9-2.9,10.7
			c0,4.8,1.2,9.3,5,12.6l0.6,0.5l-5.6,14C81.3,68.9,80.9,69.9,80.8,70.4L80.8,70.4z M93.1,54L93.1,54c-1.9,0-3.1-1.1-3.7-2.8
			c-0.8-2.1-0.8-5.2-0.8-7.4c0-3.4,0-7.3,0.6-10.6c0.4-2.3,1.6-4.4,4.1-4.4c1.9,0,3.1,1.4,3.7,3.1c0.8,2.6,0.8,7.3,0.8,10
			c0,2.5,0,6.7-0.8,9.1C96.3,52.8,95,54,93.1,54z"/>
		<path class="st0" d="M122.9,44.1c-8.8,2.3-15.6,6.9-15.6,16.7c0,2.8,0.6,5.7,2.4,7.9c1.5,1.9,3.4,3,5.8,3c3.2,0,6-2.7,8-4.9
			l1.2-1.4l0.7,1.7c1.1,2.9,3.1,4.4,6.3,4.4c1,0,2.8,0,2.8-1.4V68c0,0,0-0.1,0-0.1c-0.1,0-0.2-0.1-0.3-0.1c-1.2-0.2-2.1-0.9-2.6-2
			c-0.4-1-0.5-2.3-0.5-3.4V38.6c0-3.2-0.7-6.4-3.1-8.7c-2.4-2.3-5.7-3.1-9-3.1c-2.6,0-5,0.7-7.2,2.2c-1.8,1.3-2.9,3-2.9,5.2
			c0,1.1,0.3,2.1,1.1,2.9c0.8,0.8,1.8,1.1,2.9,1.1c0.9,0,1.8-0.2,2.5-0.9c0.6-0.7,0.9-1.4,0.9-2.3c0-0.6-0.3-1.4-0.5-2
			c-0.2-0.5-0.4-1-0.4-1.6c0-1.6,1.4-2.1,2.7-2.1c4.2,0,5.6,3.3,5.6,7v7.6L122.9,44.1L122.9,44.1z M123.7,46.3L123.7,46.3v14.4
			c0,1.4-0.3,2.7-1,3.9c-0.7,1.3-1.8,2.1-3.3,2.1c-4,0-4.6-4.7-4.6-7.8c0-5.5,2-10,7.4-12L123.7,46.3z"/>
		<path class="st0" d="M137.3,68.8v2h11.1v-2c-0.1-0.1-0.2-0.2-0.2-0.3c-0.9-1-1.4-2.2-1.4-3.6V35.1l0.2-0.3
			c1.3-1.7,3.1-3.3,5.4-3.3c2.7,0,3.6,2.2,3.6,4.6v29.3c0,1.4-0.7,2.5-1.8,3.3c0,0-0.1,0-0.1,0.1v2h11.1v-1.5
			c-0.1-0.2-0.3-0.4-0.4-0.5c-0.9-1.1-1.6-2.3-1.6-3.8V36.2c0-2.3-0.4-4.7-1.8-6.6c-1.2-1.6-2.7-2.3-4.7-2.3c-3.3,0-5.9,1.7-8.1,4
			l-1.9,2v-5.4l-10.2,0.3c0,0,0,0,0,0v1.6c0,0.1,0.2,0.2,0.2,0.3c1.9,0.9,2.7,2.6,2.7,4.6v29.6c0,1.7-0.6,3.2-2,4.2
			C137.5,68.6,137.4,68.7,137.3,68.8z"/>
		<path class="st0" d="M180.9,26.8c-4,0-7,1.9-9.3,5.2c-3.2,4.5-3.8,11.9-3.8,17.2c0,5.5,0.6,12.4,3.7,17.1c2.4,3.7,5.7,5.5,10,5.5
			c4.3,0,7.6-1.9,9.8-5.5c2.9-4.7,3.6-11.3,3.6-16.7C194.9,39.8,193.2,26.8,180.9,26.8L180.9,26.8z M186.6,44.7L186.6,44.7v11.4
			c0,2.8-0.1,7.2-1.1,9.9c-0.7,1.9-2,3.3-4.1,3.3c-2.5,0-3.9-1.9-4.5-4.1c-1-3.5-1-8.7-1-12.3V42c0-3.4,0.1-12.7,5.3-12.7
			c2.3,0,3.6,1.8,4.3,3.8C186.6,36.2,186.6,41.4,186.6,44.7z"/>
		<path class="st0" d="M123,83.8l-0.3,0.2c-0.2,0.2-0.6,0.3-1,0.5c-0.5,0.2-1,0.2-1.5,0.2c-1.1,0-2-0.4-2.7-1.2c-0.7-0.8-1-1.8-1-3
			s0.3-2.2,1-3c0.7-0.8,1.6-1.2,2.6-1.2c0.7,0,1.2,0.1,1.6,0.4c0.4,0.3,0.7,0.6,0.9,0.9l0.7-0.4c-0.2-0.4-0.5-0.8-1.1-1.2
			c-0.5-0.4-1.3-0.6-2.2-0.6c-1.3,0-2.4,0.5-3.2,1.4c-0.9,0.9-1.3,2.1-1.3,3.5c0,1.5,0.4,2.7,1.3,3.6c0.8,0.9,2,1.4,3.4,1.4
			c0.6,0,1.2-0.1,1.7-0.3c0.6-0.2,0.9-0.3,1.1-0.5c0.2-0.1,0.3-0.2,0.4-0.3L123,83.8L123,83.8z M154.2,75.8L154.2,75.8H149v9.6h0.9
			v-4.6h4.2V80h-4.2v-3.5h4.3V75.8L154.2,75.8z M168.8,75.8L168.8,75.8h-5.2v9.6h0.9v-4.6h4.2V80h-4.2v-3.5h4.3V75.8L168.8,75.8z
			 M183.6,84.7L183.6,84.7H179v-3.9h4.3V80H179v-3.5h4.5v-0.7h-5.3v9.6h5.4V84.7L183.6,84.7z M136.3,75.8L136.3,75.8h-0.8l-3.6,9.6
			h0.9l1.1-3h4l1.1,3h0.9L136.3,75.8L136.3,75.8z M134.2,81.7L134.2,81.7l1.7-4.7l1.7,4.7H134.2z"/>
		<path class="st0" d="M84.1,82H20.9c-0.6,0-1.1-0.5-1.1-1.1c0-0.6,0.5-1.1,1.1-1.1h63.2c0.6,0,1.1,0.5,1.1,1.1
			C85.2,81.5,84.7,82,84.1,82z"/>
		<path class="st0" d="M180.9,74.6l-1.3-1l-0.4,0.4l0.2,0.2c0.1,0.1,0.3,0.2,0.6,0.4c0.3,0.1,0.5,0.2,0.8,0.3L180.9,74.6z"/>
	</g>
</g>
<g>
	<path class="st1" d="M27.1,92.7h160.5c3.9,0,7,3.3,7,7.2l0,0c0,4-3.2,7.2-7,7.2H27.1c-3.9,0-7-3.3-7-7.2l0,0
		C20.1,96,23.2,92.7,27.1,92.7z"/>
	<path class="st2" d="M27.1,93h160.5c3.7,0,6.8,3.1,6.8,7l0,0c0,3.8-3.1,7-6.8,7H27.1c-3.7,0-6.8-3.1-6.8-7l0,0
		C20.3,96.1,23.3,93,27.1,93z"/>
	<path class="st3" d="M27.1,106.5h51.4v-13H27.1c-3.5,0-6.3,2.9-6.3,6.5l0,0C20.8,103.6,23.6,106.5,27.1,106.5z"/>
	<path class="st4" d="M136.2,106.5h51.4c3.5,0,6.3-2.9,6.3-6.5l0,0c0-3.6-2.8-6.5-6.3-6.5h-51.4V106.5z"/>
</g>
<path class="st0" d="M195.3,22.4c0.8,0,1.6,0.2,2.3,0.6c0.8,0.4,1.3,1,1.8,1.7c0.4,0.8,0.6,1.6,0.6,2.4c0,0.8-0.2,1.6-0.6,2.3
	c-0.4,0.8-1,1.3-1.7,1.7c-0.8,0.4-1.5,0.6-2.4,0.6c-0.8,0-1.6-0.2-2.4-0.6c-0.8-0.4-1.3-1-1.7-1.7c-0.4-0.8-0.6-1.5-0.6-2.3
	c0-0.8,0.2-1.6,0.6-2.4c0.4-0.8,1-1.3,1.8-1.7C193.7,22.6,194.5,22.4,195.3,22.4L195.3,22.4z M195.3,23.1c-0.7,0-1.3,0.2-1.9,0.5
	c-0.6,0.3-1.1,0.8-1.5,1.5c-0.4,0.6-0.5,1.3-0.5,2c0,0.7,0.2,1.3,0.5,2c0.3,0.6,0.8,1.1,1.5,1.5c0.6,0.3,1.3,0.5,2,0.5
	c0.7,0,1.3-0.2,2-0.5c0.6-0.3,1.1-0.8,1.5-1.5c0.3-0.6,0.5-1.3,0.5-2c0-0.7-0.2-1.3-0.5-2c-0.4-0.6-0.8-1.1-1.5-1.5
	C196.6,23.3,195.9,23.1,195.3,23.1L195.3,23.1z M193.2,29.7h0.8v-2.2h0.5c0.3,0,0.5,0.1,0.7,0.2c0.2,0.2,0.5,0.6,0.9,1.2l0.5,0.8h1
	l-0.6-1c-0.3-0.5-0.5-0.8-0.8-1c-0.1-0.1-0.3-0.2-0.4-0.3c0.4,0,0.8-0.2,1.1-0.5c0.3-0.3,0.4-0.6,0.4-1c0-0.3-0.1-0.5-0.2-0.7
	c-0.2-0.2-0.4-0.4-0.6-0.5c-0.3-0.1-0.7-0.1-1.3-0.1h-1.7V29.7L193.2,29.7z M194,26.8h1c0.5,0,0.8-0.1,1-0.2
	c0.2-0.1,0.3-0.3,0.3-0.6c0-0.2,0-0.3-0.1-0.4c-0.1-0.1-0.2-0.2-0.3-0.3c-0.2-0.1-0.4-0.1-0.8-0.1H194V26.8z"/>
</svg>
