<?xml version="1.0" encoding="utf-8"?>
<!-- Generator: Adobe Illustrator 24.0.2, SVG Export Plug-In . SVG Version: 6.00 Build 0)  -->
<svg version="1.1" id="Layer_1" xmlns="http://www.w3.org/2000/svg" xmlns:xlink="http://www.w3.org/1999/xlink" x="0px" y="0px"
	 viewBox="0 0 211 133" style="enable-background:new 0 0 211 133;" xml:space="preserve">
<style type="text/css">
	.st0{fill-rule:evenodd;clip-rule:evenodd;fill:#CB9833;}
</style>
<g>
	<path class="st0" d="M105.7,38.2c-0.8-1.7-1.3-3.4-1.9-5l0,0c-0.6-1.6-1.1-3.3-1.6-4.9l0,0c-0.5-1.6-0.9-3.3-1.7-5l0,0
		c-0.2,0.5-0.4,0.9-0.5,1.3l0,0c-2.3,6.5-5,12.7-8.5,18.6l0,0c-0.4,0.7-0.7,0.8-1.5,0.6l0,0c-1-0.3-2.1-0.5-3.2-0.6l0,0
		c-2.7-0.3-5.3-0.4-7.8,1l0,0c-2.7,1.5-4.3,4.3-4,7l0,0c0.4,2.8,2.5,4.9,5.6,5.7l0,0c3.3,0.8,6.6,0.3,9.8-0.6l0,0
		c3.4-1,6.4-2.8,8.9-5.3l0,0c0.3-0.3,0.5-0.8,1.1-0.3l0,0c1.4,1.1,2.8,2.2,4.2,3.4l0,0c-0.2,0.2-0.3,0.3-0.4,0.4l0,0
		c-4.5,3.6-9.3,6.6-15.3,7.2l0,0c-0.5,0-1.1,0.1-1.1,0.7l0,0c0.1,0.7,0.7,0.7,1.2,0.6l0,0c1.1-0.2,2.2-0.3,3.2-0.6l0,0
		c4.8-1,8.7-3.8,12.5-6.7l0,0c0.7-0.6,1.1-0.6,1.9,0l0,0c3.7,3,7.7,5.6,12.4,6.7l0,0c1.2,0.3,2.4,0.5,3.7,0.6l0,0
		c0.5,0,0.9-0.1,0.9-0.6l0,0c0-0.4-0.3-0.7-0.7-0.7l0,0c-0.4-0.1-0.8-0.1-1.2-0.2l0,0c-5.8-0.7-10.4-3.7-14.8-7.4l0,0
		c1.4-1.1,2.8-2.2,4.1-3.3l0,0c0.5-0.4,0.8-0.4,1.2,0.1l0,0c1.5,1.6,3.3,2.9,5.2,3.9l0,0c4.3,2.1,8.8,3.3,13.6,2.2l0,0
		c3.4-0.8,5.6-3.5,5.5-6.6l0,0c-0.1-3.2-2.6-6.1-6.2-7l0,0c-3-0.7-6-0.2-8.9,0.5l0,0c-0.4,0.1-0.8,0.4-1.1-0.2l0,0
		c-2.6-4.2-4.7-8.7-6.6-13.3l0,0c-1-2.3-1.7-4.6-2.7-7.1l0,0C109,28.3,107.8,33.3,105.7,38.2L105.7,38.2z M111.2,48
		c-1.6-2.1-3.1-4.3-4.2-6.8l0,0c-0.4-0.9-0.4-1.7,0-2.7l0,0c1.5-3.5,2.6-7.2,3.8-11.1l0,0c0.8,2,1.5,3.7,2.2,5.3l0,0
		c1.6,3.8,3.4,7.4,5.5,10.9l0,0c0.4,0.6,0.4,0.9-0.4,1.2l0,0c-2.1,0.8-4.1,1.9-5.9,3.2l0,0c-0.2,0.2-0.4,0.3-0.6,0.3l0,0
		C111.6,48.3,111.4,48.2,111.2,48L111.2,48z M99.1,48.1c-2-1.3-4-2.5-6.2-3.4l0,0c-0.4-0.2-0.6-0.3-0.3-0.8l0,0
		c3.1-5.1,5.5-10.6,7.8-16.2l0,0c0,0,0.1,0,0.2-0.2l0,0c1.2,4,2.5,7.9,4.1,11.7l0,0c0.2,0.5,0,1-0.1,1.5l0,0c-1,2.7-2.7,5-4.4,7.3
		l0,0c-0.2,0.2-0.3,0.3-0.5,0.3l0,0C99.4,48.3,99.2,48.3,99.1,48.1L99.1,48.1z M105.2,52.9c-1.3-1.2-2.9-2-4.1-3.2l0,0
		c-0.2-0.2-0.4-0.4-0.1-0.7l0,0c1.7-2.3,3.4-4.5,4.6-7.3l0,0c1.4,2.6,2.8,5.1,4.6,7.2l0,0c0.2,0.3,0.2,0.5-0.1,0.7l0,0
		c-1.4,1.1-2.8,2.2-4.1,3.3l0,0c-0.1,0.1-0.3,0.2-0.4,0.2l0,0C105.5,53.1,105.4,53,105.2,52.9L105.2,52.9z M79.6,55.2
		c-3.6-1.5-4.5-5.4-2-8.3l0,0c1.3-1.4,2.9-2.2,4.7-2.4l0,0c2.3-0.2,4.6,0,6.9,0.6l0,0c0.7,0.2,0.7,0.3,0.3,0.9l0,0
		c-0.9,1.3-1.9,2.6-3,3.8l0,0c-0.2,0.2-0.4,0.4-0.6,0.7l0,0c-0.3,0.3-0.5,0.7-0.2,1.1l0,0c0.4,0.5,0.8,0.1,1.2-0.2l0,0
		c1.4-1.4,2.7-2.9,3.7-4.6l0,0c0.6-0.9,1.1-1,2-0.6l0,0c1.8,0.8,3.6,1.8,5.2,2.8l0,0c0.7,0.5,0.6,0.7,0.1,1.2l0,0
		c-3.8,3.5-8.3,5.4-13.4,5.7l0,0c-0.3,0-0.6,0-0.8,0l0,0C82.3,55.9,80.9,55.7,79.6,55.2L79.6,55.2z M125.4,51.5
		c0.5-0.5,0.1-0.9-0.2-1.3l0,0c-1-1.1-2-2.2-2.8-3.4l0,0c-0.4-0.5-0.7-1-1.1-1.6l0,0c3-0.7,5.8-1.2,8.7-0.5l0,0
		c2,0.5,3.6,1.6,4.6,3.5l0,0c1.4,2.9,0,5.9-3.2,7l0,0c-2.4,0.8-4.9,0.7-7.3,0.3l0,0c-4.2-0.7-7.7-2.6-10.8-5.5l0,0
		c-0.4-0.4-0.5-0.6,0-1l0,0c1.8-1.4,4-2.2,6.1-3.2l0,0c0.6-0.3,0.8,0.2,1,0.6l0,0c1,1.5,2.2,3,3.4,4.3l0,0c0.1,0.1,0.2,0.3,0.4,0.4
		l0,0c0.2,0.2,0.5,0.5,0.8,0.5l0,0C125.1,51.7,125.3,51.7,125.4,51.5L125.4,51.5z"/>
	<path class="st0" d="M41.6,96.5h6v-0.5H47c-0.7,0-1.2-0.2-1.5-0.5l0,0c-0.2-0.3-0.4-0.9-0.4-2l0,0V82.1l6.6,14.5h0.4l6.7-14.5v11.5
		c0,1-0.1,1.6-0.3,1.9l0,0c-0.2,0.2-0.4,0.4-0.6,0.5l0,0c-0.2,0.1-0.6,0.2-1,0.2l0,0h-0.6v0.5h7.3v-0.5h-0.6c-0.7,0-1.2-0.2-1.5-0.5
		l0,0c-0.2-0.3-0.4-0.9-0.4-2l0,0V82.3c0-0.5,0-0.9,0.1-1.2l0,0c0-0.3,0.1-0.5,0.2-0.7l0,0c0.3-0.4,0.9-0.6,1.6-0.6l0,0h0.6v-0.5
		h-4.9l-6.2,13.5l-6.2-13.5h-4.8v0.5c0.5,0,0.9,0,1.2,0.1l0,0c0.3,0.1,0.5,0.2,0.7,0.3l0,0c0.2,0.2,0.4,0.4,0.4,0.7l0,0
		c0.1,0.3,0.1,0.8,0.1,1.3l0,0v11.2c0,0.5,0,0.9-0.1,1.2l0,0c0,0.3-0.1,0.5-0.2,0.7l0,0c-0.2,0.2-0.4,0.4-0.6,0.5l0,0
		c-0.2,0.1-0.5,0.2-0.9,0.2l0,0h-0.6V96.5z"/>
	<path class="st0" d="M73.9,78.9h-0.5l-6,14.2c-0.2,0.5-0.4,0.9-0.6,1.2l0,0c-0.2,0.4-0.4,0.7-0.6,0.9l0,0c-0.2,0.2-0.5,0.4-0.7,0.6
		l0,0c-0.3,0.1-0.6,0.2-1,0.2v0.5H70v-0.5c-0.6-0.1-1.1-0.1-1.4-0.3l0,0c-0.3-0.1-0.5-0.3-0.6-0.5l0,0c-0.1-0.2-0.1-0.5,0-0.8l0,0
		c0.1-0.3,0.2-0.6,0.4-1l0,0l1.2-2.7h6.7l1,2.5c0.1,0.3,0.3,0.7,0.4,1l0,0c0.1,0.3,0.1,0.6,0.1,0.9l0,0c0,0.3-0.2,0.5-0.4,0.6l0,0
		C77,96,76.6,96.1,76,96.1l0,0v0.5h6.8v-0.5c-0.4,0-0.7-0.1-0.9-0.1l0,0c-0.3-0.1-0.5-0.2-0.7-0.4l0,0c-0.2-0.2-0.4-0.5-0.6-0.8l0,0
		c-0.2-0.4-0.4-0.8-0.7-1.4l0,0L73.9,78.9L73.9,78.9z M72.9,82.9l2.9,7H70L72.9,82.9z"/>
	<path class="st0" d="M91,96.5h6v-0.5h-0.6c-0.7,0-1.2-0.2-1.5-0.5l0,0c-0.2-0.3-0.4-0.9-0.4-2l0,0V82.1l6.6,14.5h0.4l6.7-14.5v11.5
		c0,1-0.1,1.6-0.3,1.9l0,0c-0.2,0.2-0.4,0.4-0.6,0.5l0,0c-0.2,0.1-0.6,0.2-1,0.2l0,0h-0.6v0.5h7.3v-0.5h-0.6c-0.7,0-1.2-0.2-1.5-0.5
		l0,0c-0.2-0.3-0.4-0.9-0.4-2l0,0V82.3c0-0.5,0-0.9,0.1-1.2l0,0c0-0.3,0.1-0.5,0.2-0.7l0,0c0.3-0.4,0.9-0.6,1.6-0.6l0,0h0.6v-0.5
		h-4.9L102,92.8l-6.2-13.5H91v0.5c0.5,0,0.9,0,1.2,0.1l0,0c0.3,0.1,0.5,0.2,0.7,0.3l0,0c0.2,0.2,0.4,0.4,0.4,0.7l0,0
		c0.1,0.3,0.1,0.8,0.1,1.3l0,0v11.2c0,0.5,0,0.9-0.1,1.2l0,0c0,0.3-0.1,0.5-0.2,0.7l0,0c-0.2,0.2-0.4,0.4-0.6,0.5l0,0
		c-0.2,0.1-0.6,0.2-0.9,0.2l0,0H91V96.5z"/>
	<path class="st0" d="M119.7,79.6c-1,0.4-2,1.1-2.7,1.9l0,0c-0.8,0.8-1.4,1.7-1.8,2.8l0,0c-0.4,1.1-0.7,2.3-0.7,3.6
		c0,1.4,0.2,2.6,0.7,3.7l0,0c0.4,1.1,1,2.1,1.8,2.9l0,0c0.8,0.8,1.7,1.4,2.7,1.8l0,0c1,0.4,2.1,0.7,3.3,0.7c0.8,0,1.6-0.1,2.3-0.3
		l0,0c0.7-0.2,1.4-0.5,2-0.9l0,0c0.6-0.4,1.2-0.9,1.7-1.4l0,0c0.5-0.5,0.9-1.2,1.3-1.8l0,0c0.4-0.7,0.6-1.4,0.8-2.2l0,0
		c0.2-0.8,0.3-1.6,0.3-2.5l0,0c0-0.9-0.1-1.7-0.3-2.4l0,0c-0.2-0.8-0.5-1.5-0.8-2.1l0,0c-0.4-0.7-0.8-1.3-1.3-1.8l0,0
		c-0.5-0.5-1.1-1-1.7-1.4l0,0c-0.6-0.4-1.3-0.7-2-0.9l0,0c-0.7-0.2-1.4-0.3-2.2-0.3l0,0C121.9,78.9,120.8,79.2,119.7,79.6
		L119.7,79.6z M120.5,95.4c-0.7-0.4-1.2-1-1.7-1.7l0,0c-0.5-0.7-0.8-1.6-1-2.6l0,0c-0.2-1-0.4-2.1-0.4-3.3l0,0
		c0-1.2,0.1-2.3,0.4-3.3l0,0c0.2-1,0.6-1.8,1.1-2.5l0,0c0.5-0.7,1-1.2,1.7-1.6l0,0c0.7-0.4,1.4-0.6,2.3-0.6l0,0c1,0,1.8,0.2,2.5,0.6
		l0,0c0.7,0.4,1.3,0.9,1.8,1.6l0,0c0.5,0.7,0.8,1.6,1,2.6l0,0c0.2,1,0.3,2.2,0.3,3.5l0,0c0,1.4-0.2,2.5-0.4,3.5l0,0
		c-0.3,1-0.7,1.8-1.2,2.5l0,0c-0.5,0.6-1.1,1.1-1.8,1.4l0,0c-0.7,0.3-1.4,0.5-2.3,0.5l0,0C122,96,121.2,95.8,120.5,95.4L120.5,95.4z
		"/>
	<path class="st0" d="M132.9,96.5h7.7c1.7,0,3.1-0.2,4.3-0.7l0,0c1.2-0.5,2.2-1.1,3-1.9l0,0c0.8-0.8,1.4-1.7,1.8-2.8l0,0
		c0.4-1.1,0.6-2.2,0.6-3.4c0-0.7-0.1-1.3-0.2-2l0,0c-0.1-0.6-0.3-1.2-0.5-1.8l0,0c-0.2-0.5-0.5-1.1-0.8-1.5l0,0
		c-0.3-0.5-0.7-0.9-1.1-1.2l0,0c-0.4-0.4-0.9-0.7-1.4-0.9l0,0c-0.5-0.3-1.1-0.5-1.7-0.6l0,0c-0.6-0.2-1.3-0.3-2.1-0.4l0,0
		c-0.8-0.1-1.6-0.1-2.6-0.1l0,0h-7v0.5h0.6c0.3,0,0.6,0,0.8,0.1l0,0c0.2,0.1,0.5,0.2,0.6,0.4l0,0c0.2,0.3,0.3,1,0.3,2l0,0v11.1
		c0,0.5,0,0.9-0.1,1.2l0,0c-0.1,0.3-0.1,0.5-0.2,0.7l0,0c-0.1,0.2-0.3,0.4-0.6,0.5l0,0c-0.3,0.1-0.6,0.2-0.9,0.2l0,0h-0.6V96.5
		L132.9,96.5z M140.5,95.7c-0.4,0-0.8,0-1.2-0.1l0,0c-0.4-0.1-0.9-0.2-1.5-0.3l0,0V80.7c0.5-0.1,1-0.2,1.4-0.3l0,0
		c0.4-0.1,0.8-0.1,1.2-0.1l0,0c1,0,1.9,0.2,2.8,0.5l0,0c0.9,0.4,1.6,0.9,2.2,1.5l0,0c0.6,0.7,1.1,1.5,1.4,2.4l0,0
		c0.3,0.9,0.5,2,0.5,3.2l0,0c0,1.2-0.2,2.3-0.5,3.2l0,0c-0.4,1-0.8,1.8-1.4,2.4l0,0c-0.6,0.7-1.3,1.2-2.2,1.5l0,0
		C142.3,95.5,141.5,95.7,140.5,95.7L140.5,95.7C140.5,95.7,140.5,95.7,140.5,95.7L140.5,95.7z"/>
	<path class="st0" d="M169.7,96.5v-0.5c-0.4,0-0.7-0.1-0.9-0.1l0,0c-0.3-0.1-0.5-0.2-0.7-0.4l0,0c-0.2-0.2-0.4-0.5-0.6-0.8l0,0
		c-0.2-0.4-0.4-0.8-0.7-1.4l0,0l-6-14.3h-0.5l-6,14.2c-0.2,0.5-0.4,0.9-0.6,1.2l0,0c-0.2,0.4-0.4,0.7-0.6,0.9l0,0
		c-0.2,0.2-0.5,0.4-0.7,0.6l0,0c-0.3,0.1-0.6,0.2-1,0.2l0,0v0.5h5.4v-0.5c-0.6-0.1-1.1-0.1-1.4-0.3l0,0c-0.3-0.1-0.5-0.3-0.6-0.5
		l0,0c-0.1-0.2-0.1-0.5,0-0.8l0,0c0.1-0.3,0.2-0.6,0.4-1l0,0l1.2-2.7h6.7l1,2.5c0.1,0.3,0.3,0.7,0.4,1l0,0c0.1,0.3,0.2,0.6,0.1,0.9
		l0,0c0,0.3-0.2,0.5-0.4,0.6l0,0c-0.3,0.2-0.7,0.3-1.3,0.3l0,0v0.5H169.7L169.7,96.5z M159.8,82.9l2.9,7h-5.9L159.8,82.9z"/>
	<path class="st0" d="M48.6,108.3c-0.2,0.3-0.4,0.6-0.6,0.8c-0.2,0.2-0.4,0.4-0.7,0.6c-0.2,0.2-0.5,0.3-0.8,0.4
		c-0.3,0.1-0.6,0.1-1,0.1c-0.4,0-0.7,0-1-0.1c-0.3-0.1-0.6-0.2-0.9-0.4c-0.3-0.2-0.5-0.4-0.7-0.6c-0.2-0.2-0.4-0.5-0.5-0.8
		c-0.1-0.3-0.2-0.6-0.3-0.9c-0.1-0.3-0.1-0.6-0.1-1c0-0.5,0.1-1,0.3-1.5c0.2-0.5,0.4-0.9,0.8-1.3c0.3-0.4,0.7-0.6,1.2-0.9
		c0.5-0.2,1-0.3,1.5-0.3c0.3,0,0.5,0,0.7,0.1c0.2,0.1,0.4,0.1,0.5,0.2c0.2,0.1,0.3,0.1,0.4,0.2c0.1,0.1,0.2,0.1,0.2,0.1
		c0.1,0,0.2,0,0.3-0.1c0.1-0.1,0.1-0.2,0.2-0.4h0.2l0.2,2.5h-0.2c-0.1-0.4-0.2-0.7-0.4-1c-0.2-0.3-0.3-0.5-0.6-0.7
		c-0.2-0.2-0.4-0.3-0.7-0.4c-0.2-0.1-0.5-0.1-0.8-0.1c-0.4,0-0.7,0.1-1,0.2c-0.3,0.1-0.6,0.4-0.8,0.7c-0.2,0.3-0.4,0.7-0.5,1.1
		c-0.1,0.4-0.2,1-0.2,1.6c0,0.5,0.1,1,0.2,1.4c0.1,0.4,0.3,0.7,0.6,1c0.2,0.3,0.5,0.5,0.9,0.6c0.3,0.1,0.7,0.2,1.1,0.2
		c0.2,0,0.5,0,0.7-0.1c0.2,0,0.4-0.1,0.6-0.2c0.2-0.1,0.4-0.3,0.6-0.5c0.2-0.2,0.4-0.4,0.6-0.8L48.6,108.3z"/>
	<path class="st0" d="M68.1,106.5c0-0.6,0-1.1-0.1-1.5c-0.1-0.4-0.2-0.8-0.4-1.1c-0.2-0.3-0.4-0.5-0.8-0.7c-0.3-0.2-0.7-0.2-1.1-0.2
		c-0.4,0-0.7,0.1-1,0.2c-0.3,0.2-0.5,0.4-0.7,0.7c-0.2,0.3-0.3,0.6-0.5,1.1c-0.1,0.4-0.2,0.9-0.2,1.4c0,0.5,0.1,1,0.2,1.4
		c0.1,0.4,0.2,0.8,0.4,1.1c0.2,0.3,0.4,0.5,0.7,0.7c0.3,0.2,0.6,0.3,1,0.3c0.3,0,0.7-0.1,1-0.2c0.3-0.1,0.5-0.3,0.8-0.6
		c0.2-0.3,0.4-0.6,0.5-1C68,107.6,68.1,107.1,68.1,106.5L68.1,106.5z M69.3,106.3c0,0.4,0,0.7-0.1,1.1c-0.1,0.3-0.2,0.6-0.4,0.9
		c-0.2,0.3-0.3,0.5-0.6,0.8c-0.2,0.2-0.5,0.4-0.7,0.6c-0.3,0.2-0.6,0.3-0.9,0.4c-0.3,0.1-0.6,0.1-1,0.1c-0.5,0-1-0.1-1.4-0.3
		c-0.4-0.2-0.8-0.4-1.1-0.8c-0.3-0.3-0.6-0.7-0.8-1.2c-0.2-0.5-0.3-1-0.3-1.6c0-0.5,0.1-1.1,0.3-1.5c0.2-0.5,0.4-0.9,0.8-1.2
		c0.3-0.3,0.7-0.6,1.2-0.8c0.4-0.2,0.9-0.3,1.5-0.3c0.3,0,0.6,0,0.9,0.1c0.3,0.1,0.6,0.2,0.8,0.4c0.3,0.2,0.5,0.4,0.7,0.6
		c0.2,0.2,0.4,0.5,0.5,0.8c0.2,0.3,0.3,0.6,0.4,0.9C69.3,105.6,69.3,106,69.3,106.3z"/>
	<path class="st0" d="M90.1,102.9c-0.2,0-0.3,0-0.4,0.1c-0.1,0-0.2,0.1-0.3,0.2c-0.1,0.1-0.1,0.4-0.1,0.8v6.2h-0.2l-4.8-5.9v4.5
		c0,0.4,0.1,0.7,0.2,0.9c0.1,0.1,0.3,0.2,0.6,0.2h0.3v0.2h-2.6v-0.2H83c0.2,0,0.3,0,0.4-0.1c0.1,0,0.2-0.1,0.3-0.2
		c0-0.1,0.1-0.2,0.1-0.3c0-0.1,0-0.3,0-0.5v-5.1c0,0-0.1-0.1-0.1-0.2c-0.1-0.1-0.1-0.2-0.2-0.3c-0.1-0.1-0.2-0.2-0.4-0.2
		c-0.1-0.1-0.3-0.1-0.5-0.1v-0.2h1.8l4.5,5.5V104c0-0.5-0.1-0.7-0.2-0.8c-0.1-0.2-0.3-0.2-0.6-0.2h-0.2v-0.2h2.5v0.2H90.1z"/>
	<path class="st0" d="M110.2,108.3c-0.2,0.3-0.4,0.6-0.6,0.8c-0.2,0.2-0.4,0.4-0.7,0.6c-0.2,0.2-0.5,0.3-0.8,0.4
		c-0.3,0.1-0.6,0.1-1,0.1c-0.4,0-0.7,0-1-0.1c-0.3-0.1-0.6-0.2-0.9-0.4c-0.3-0.2-0.5-0.4-0.7-0.6c-0.2-0.2-0.4-0.5-0.5-0.8
		c-0.1-0.3-0.2-0.6-0.3-0.9c-0.1-0.3-0.1-0.6-0.1-1c0-0.5,0.1-1,0.3-1.5c0.2-0.5,0.4-0.9,0.8-1.3c0.3-0.4,0.7-0.6,1.2-0.9
		c0.5-0.2,1-0.3,1.5-0.3c0.3,0,0.5,0,0.7,0.1c0.2,0.1,0.4,0.1,0.5,0.2c0.2,0.1,0.3,0.1,0.4,0.2c0.1,0.1,0.2,0.1,0.2,0.1
		c0.1,0,0.2,0,0.3-0.1c0.1-0.1,0.1-0.2,0.2-0.4h0.2l0.2,2.5h-0.2c-0.1-0.4-0.2-0.7-0.4-1c-0.2-0.3-0.3-0.5-0.6-0.7
		c-0.2-0.2-0.4-0.3-0.7-0.4c-0.2-0.1-0.5-0.1-0.8-0.1c-0.4,0-0.7,0.1-1,0.2c-0.3,0.1-0.6,0.4-0.8,0.7c-0.2,0.3-0.4,0.7-0.5,1.1
		c-0.1,0.4-0.2,1-0.2,1.6c0,0.5,0.1,1,0.2,1.4c0.1,0.4,0.3,0.7,0.6,1c0.2,0.3,0.5,0.5,0.9,0.6c0.3,0.1,0.7,0.2,1.1,0.2
		c0.2,0,0.5,0,0.7-0.1c0.2,0,0.4-0.1,0.6-0.2c0.2-0.1,0.4-0.3,0.6-0.5c0.2-0.2,0.4-0.4,0.6-0.8L110.2,108.3z"/>
	<path class="st0" d="M129.3,110h-5.6v-0.2h0.3c0,0,0.1,0,0.1,0c0,0,0.1,0,0.2,0c0.1,0,0.1,0,0.2-0.1c0.1,0,0.1,0,0.1-0.1
		c0,0,0.1-0.1,0.1-0.1c0,0,0-0.1,0.1-0.2c0-0.1,0-0.2,0-0.3c0-0.1,0-0.2,0-0.4V104c0-0.2,0-0.4,0-0.6c0-0.1-0.1-0.2-0.1-0.3
		c-0.1-0.1-0.3-0.2-0.7-0.2h-0.3v-0.2h5.6l0.1,1.6h-0.2c0-0.1,0-0.2-0.1-0.3c0-0.1,0-0.2-0.1-0.3c0-0.1-0.1-0.2-0.1-0.2
		c-0.1-0.1-0.1-0.1-0.2-0.2c-0.1-0.1-0.2-0.1-0.4-0.1c-0.1,0-0.3,0-0.5,0h-2v2.9h1.6c0.2,0,0.4,0,0.6-0.1c0.1,0,0.3-0.1,0.3-0.2
		c0.1-0.1,0.1-0.2,0.2-0.3c0-0.1,0.1-0.3,0.1-0.5h0.2v2.5h-0.2c0-0.2-0.1-0.4-0.1-0.5c0-0.1-0.1-0.2-0.2-0.3
		c-0.1-0.1-0.2-0.2-0.3-0.2c-0.1,0-0.3-0.1-0.6-0.1h-1.6v2.7c0,0.1,0,0.2,0.1,0.3c0,0.1,0.1,0.1,0.2,0.2c0.1,0,0.2,0.1,0.4,0.1h1.2
		c0.2,0,0.4,0,0.5,0c0.2,0,0.3,0,0.4-0.1c0.1,0,0.2-0.1,0.3-0.2c0.1-0.1,0.2-0.2,0.3-0.3c0.1-0.1,0.2-0.2,0.3-0.4
		c0.1-0.1,0.2-0.3,0.3-0.5h0.2L129.3,110z"/>
	<path class="st0" d="M147.4,104.9c0-0.2,0-0.4-0.1-0.6c-0.1-0.2-0.2-0.4-0.3-0.5c-0.1-0.2-0.3-0.3-0.5-0.4
		c-0.2-0.1-0.4-0.1-0.7-0.1c-0.1,0-0.2,0-0.3,0c-0.1,0-0.3,0-0.4,0.1v3.1c0.2,0,0.4,0,0.5,0.1c0.1,0,0.3,0,0.4,0
		c0.2,0,0.4,0,0.5-0.1c0.2-0.1,0.3-0.2,0.4-0.3c0.1-0.1,0.2-0.3,0.3-0.5C147.4,105.3,147.4,105.1,147.4,104.9L147.4,104.9z
		 M148.7,104.7c0,0.3,0,0.5-0.1,0.8c-0.1,0.2-0.2,0.5-0.4,0.6c-0.2,0.2-0.5,0.3-0.8,0.4c-0.3,0.1-0.7,0.2-1.2,0.2h-0.2
		c-0.1,0-0.1,0-0.2,0c-0.1,0-0.1,0-0.2,0c-0.1,0-0.2,0-0.3,0v2c0,0.2,0,0.4,0,0.6c0,0.1,0.1,0.2,0.1,0.3c0.1,0.2,0.3,0.2,0.6,0.2
		h0.3v0.2h-3.1v-0.2h0.3c0.2,0,0.3,0,0.4-0.1c0.1,0,0.2-0.1,0.3-0.2c0-0.1,0.1-0.2,0.1-0.3c0-0.1,0-0.3,0-0.5V104
		c0-0.4,0-0.7-0.1-0.9c-0.1-0.1-0.2-0.1-0.3-0.2c-0.1,0-0.2-0.1-0.4-0.1h-0.3v-0.2h2.7c0.2,0,0.4,0,0.6,0c0.2,0,0.4,0,0.6,0.1
		c0.2,0,0.3,0.1,0.5,0.1c0.2,0.1,0.3,0.1,0.4,0.2c0.1,0.1,0.2,0.2,0.3,0.3c0.1,0.1,0.2,0.2,0.3,0.3c0.1,0.1,0.1,0.3,0.2,0.4
		C148.6,104.4,148.7,104.6,148.7,104.7z"/>
	<path class="st0" d="M168,104.4c0-0.1,0-0.2-0.1-0.3c0-0.1,0-0.2-0.1-0.2c0-0.1-0.1-0.1-0.1-0.2c0,0-0.1-0.1-0.1-0.1
		c-0.1-0.1-0.2-0.2-0.4-0.3c-0.2-0.1-0.4-0.1-0.6-0.1h-1v5.6c0,0.2,0,0.4,0,0.6c0,0.1,0.1,0.2,0.1,0.3c0.1,0.1,0.3,0.2,0.6,0.2h0.3
		v0.2h-3.1v-0.2h0.3c0.2,0,0.3,0,0.4-0.1c0.1,0,0.2-0.1,0.3-0.2c0-0.1,0.1-0.2,0.1-0.3c0-0.1,0-0.3,0-0.5v-5.6h-0.9
		c-0.1,0-0.3,0-0.4,0c-0.1,0-0.2,0-0.3,0c-0.1,0-0.1,0-0.2,0.1c-0.1,0-0.1,0.1-0.2,0.1c-0.3,0.2-0.4,0.5-0.5,1h-0.2l0.1-1.7h6.1
		l0.1,1.7H168z"/>
</g>
</svg>
