<?xml version="1.0" encoding="utf-8"?>
<!-- Generator: Adobe Illustrator 24.0.2, SVG Export Plug-In . SVG Version: 6.00 Build 0)  -->
<svg version="1.1" id="Layer_1" xmlns="http://www.w3.org/2000/svg" xmlns:xlink="http://www.w3.org/1999/xlink" x="0px" y="0px"
	 viewBox="0 0 211 133" style="enable-background:new 0 0 211 133;" xml:space="preserve">
<style type="text/css">
	.st0{fill-rule:evenodd;clip-rule:evenodd;fill:#EC3237;}
	.st1{fill-rule:evenodd;clip-rule:evenodd;fill:#303C7A;}
</style>
<g>
	<path class="st0" d="M65.9,55.3c2.8,0.7,6-1.6,9.3-4.8c-3.8,1.1-7.4,1.5-10.9,0.7L65.9,55.3L65.9,55.3z M72.2,59.7
		c-3.4,7-3.4,8.3-6.5,20.1c-8.3-27.8-10.2-33.5-22.2-50.4c12.4,16.1,15.2,20.1,22.1,43.1C68.1,63.9,69.6,60.6,72.2,59.7L72.2,59.7z
		 M170.4,99.6c-5.6,2.7-12.7,4.3-20.4,4.3c-7.9,0-15.2-1.7-20.8-4.5V95c6.3,4.1,15.5,6.7,25.8,6.7
		C160.5,101.7,165.7,100.9,170.4,99.6L170.4,99.6z M106.5,96.8c-3.2-4.3-7.7-5.4-12.8-5c5.8-2.1,10.7-2.1,14.1,1.5L106.5,96.8
		L106.5,96.8z M72.5,87.2c4.7-1.4,9.9-2.1,15.4-2.1c10.2,0,19.4,2.6,25.8,6.7v-4.4c-5.6-2.8-12.9-4.5-20.8-4.5
		C85.2,82.9,78.1,84.5,72.5,87.2L72.5,87.2z M74.9,86.2C22.1,105.4,23.1,85,45.6,70C12.1,87.3,26.9,110.3,74.9,86.2L74.9,86.2z
		 M128.8,66.1c-0.8,0.3,1.6-0.8,2.4-1.1c20.6-9.4,41.8-5.7,53.3,9.9c-0.7,1.1-1.8,4.5-2.1,3.2C179.8,66.2,150.2,57.5,128.8,66.1z"/>
	<path class="st1" d="M100.2,61.5c3.6,0,5.5,1.1,5.5,3.3c0,2.4-1.8,3.6-5.4,3.6c-3.7,0-5.5-1.1-5.5-3.4
		C94.7,62.7,96.6,61.5,100.2,61.5L100.2,61.5z M94.3,69.7h12c-0.2,0.4-0.3,1-0.4,1.8v13.1c-3.5-0.9-7.3-1.5-11.2-1.6V71.4
		C94.7,70.6,94.5,70,94.3,69.7L94.3,69.7z M105.9,88v3.8c-3-1.9-6.9-1.8-11.2-0.3v-6C98.7,85.9,102.5,86.8,105.9,88L105.9,88z
		 M105.9,96c-2.9-3.4-6.9-4.5-11.2-4.3v5.7c0,0.7-0.1,1.3-0.4,1.8h12c-0.2-0.5-0.3-1.1-0.4-1.8V96L105.9,96z M115.2,69.7h11.3v1.9
		c2.2-1.4,3.7-2.1,6.8-3.3l0.5,5.1c-2.5,0.9-5.8,4.1-5.8,4.1c-1.1,1.1-1.1,2.2-1.1,3.8v16.2c0,0.8,0.1,1.4,0.4,1.8h-12
		c0.2-0.5,0.3-1,0.4-1.8v-26C115.6,70.6,115.5,70.1,115.2,69.7L115.2,69.7z M140.8,70.8c-2.6,0.8-3.3,0.8-5.7,1.9l-0.4-5.1
		c2.2-0.7,3.8-1,6.1-1.4v-3.2c3.7-0.5,7.5-0.6,11.2-0.3v2.8c2,0,3.3,0.1,5.3,0.5l-0.4,4.3c-1.5-0.2-3.2-0.3-4.9-0.5v22.4
		c0,1.2,0.5,1.8,1.6,1.8c0.6,0,1.4-0.3,2.2-0.8v5.2c-2.5,0.9-4.8,1.3-6.9,1.3c-2.9,0-5-0.6-6.5-1.9c-1-0.9-1.6-2.3-1.6-4.2V70.8
		L140.8,70.8z M140.8,61.6v-18l11.6-1.2c-0.2,0.5-0.3,1.2-0.3,1.8v15.7C148.3,60,144.6,60.6,140.8,61.6L140.8,61.6z M51.7,79.7
		l-1.6,13.5c-2.1,0.3-3.9,0.6-5.7,0.7l4-28.3c0.1-0.4,0.1-0.7,0.1-1c0-0.1,0-0.4-0.1-0.7H59c0,0.2-0.1,0.4-0.1,0.5
		c0,0.3,0.1,0.8,0.3,1.3l6.6,20.2l6.7-20.2c0.2-0.6,0.3-1.1,0.3-1.4c0-0.1,0-0.2,0-0.3h10.3c-0.1,0.4-0.1,0.6-0.1,0.7
		c0,0.2,0,0.6,0.1,1l2.3,17.8c-4.1,0.6-8,1.6-11.3,3l-0.6-6.7l-2.7,7.9c-5.7,2-10.7,3.4-15.1,4.4L51.7,79.7L51.7,79.7z M49.8,95.5
		l-0.2,2c0,0.1,0,0.3,0,0.4c0,0.4,0.1,0.9,0.3,1.3h-6.6c0.3-0.4,0.5-1,0.6-1.8l0.1-1.1C45.9,96.2,47.8,95.9,49.8,95.5L49.8,95.5z
		 M85.7,85.1c-4.1,0.2-7.9,0.7-11.5,1.6l1,10.7c0,0.4,0.1,0.8,0.1,1c0,0.1,0,0.4-0.1,0.7H88c-0.3-0.4-0.5-1-0.7-1.8L85.7,85.1
		L85.7,85.1z M74.2,86.6c0.3-0.1,0.5-0.2,0.8-0.4C74.7,86.3,74.4,86.4,74.2,86.6L74.2,86.6L74.2,86.6z M70.6,88.3
		c-5.2,2.4-10,4.2-14.3,5.5l1.2,3.6c0.2,0.6,0.3,1.1,0.3,1.4c0,0.1,0,0.2,0,0.3h9.5c0-0.2,0-0.3,0-0.4c0-0.4,0.1-0.8,0.3-1.4
		L70.6,88.3L70.6,88.3z M170.8,84c-1.2,0.6-2,1.4-2.7,2.5c-0.6,1-0.9,2.2-0.9,3.6c0,0.9,0.2,1.5,0.5,2c0.4,0.5,0.8,0.8,1.5,0.8
		c1.1,0,1.6-0.6,1.6-1.9V84L170.8,84z M168.4,68.9c-2.9-1-5.9-2.2-9.5-2.5l-0.5,4.3c2.4,0.3,11.7,3.5,12.5,6.3
		c0,0.9-0.3,1.6-0.9,2.2c-0.6,0.5-1.5,1-2.8,1.4c-2.4,0.7-4.1,1.3-5.1,1.7c-1,0.4-1.9,1.1-2.7,1.9c-1.7,1.7-2.6,3.9-2.6,6.8
		c0,2.8,0.8,5,2.4,6.8c0.7,0.8,1.5,1.3,2.3,1.6c0.8,0.3,1.9,0.5,3.2,0.5c1.5,0,2.7-0.2,3.7-0.5c1-0.3,2-1,3-1.9
		c0.4,0.4,0.8,0.8,1.2,1c4.9-2.8,8.3-6.6,9.4-10.7c0.6-2,0.5-4,0-6C180.6,76.4,175.5,71.8,168.4,68.9z"/>
</g>
</svg>
