<?xml version="1.0" encoding="utf-8"?>
<!-- Generator: Adobe Illustrator 24.0.2, SVG Export Plug-In . SVG Version: 6.00 Build 0)  -->
<svg version="1.1" id="Layer_1" xmlns="http://www.w3.org/2000/svg" xmlns:xlink="http://www.w3.org/1999/xlink" x="0px" y="0px"
	 viewBox="0 0 211 133" style="enable-background:new 0 0 211 133;" xml:space="preserve">
<style type="text/css">
	.st0{fill-rule:evenodd;clip-rule:evenodd;fill:#DF0000;}
</style>
<g>
	<path class="st0" d="M140.1,102.2v-4.8h0.6c1.2,0,2-0.2,2.5-0.6c0.5-0.4,0.7-1,0.7-1.7c0-0.2,0-0.3,0-0.5c2-0.4,4.1-1,6.2-1.6
		c0.5,0.8,0.7,1.8,0.7,2.9c0,1.2-0.3,2.2-0.8,3.1c-0.5,0.9-1.3,1.6-2.2,2.2c-0.6,0.3-1.4,0.6-2.6,0.7c-1.5,0.2-2.6,0.3-3.1,0.3
		H140.1L140.1,102.2z M140.1,92.3v-3.6h0.1c1.1,0,1.8-0.2,2.2-0.6c0.4-0.4,0.6-0.9,0.6-1.6c0-0.6-0.2-1.2-0.6-1.5
		c-0.4-0.4-1.2-0.5-2.2-0.5h-0.1V80h3c2.1,0,3.8,0.5,4.9,1.6c1.1,1.1,1.7,2.4,1.7,3.9c0,1.3-0.4,2.4-1.2,3.4
		c-0.5,0.6-1.3,1.1-2.4,1.5c0.9,0.2,1.7,0.5,2.4,1C145.6,91.8,142.8,92.1,140.1,92.3L140.1,92.3z M158,80h6.9v7.2
		c-2.3,1.1-4.6,2.1-6.9,3v11.7c4.6-1.5,6.6-5.2,6.9-9.6v-5.1c-2.3,0.8-4.6,1.5-6.9,2.1V80z M59.7,79.6c0.1,0,0.3,0,0.4,0
		c3.7,0,6.5,1,8.5,3c0.9,0.9,1.6,2,2.1,3.2c-2.4,0.1-4.8,0.3-7.1,0.6c0,0-0.1-0.1-0.1-0.1c-0.8-1-2-1.4-3.4-1.4c-0.1,0-0.3,0-0.4,0
		V79.6L59.7,79.6z M140.1,80v4.5h-2.9v4.2h2.9v3.6c-3.3,0.2-6.6,0.3-9.8,0.2V80H140.1L140.1,80z M140.1,97.4v4.8h-9.8v-5.8
		c2.2-0.1,4.5-0.3,6.9-0.6v1.6H140.1L140.1,97.4z M59.7,102.5v-5.1c0.1,0,0.3,0,0.5,0c1.5,0,2.6-0.5,3.4-1.4c0.8-1,1.2-2.7,1.2-5.2
		c0-0.9-0.1-1.7-0.2-2.4c2.3-0.1,4.6-0.2,6.9-0.1c0.1,0.8,0.2,1.7,0.2,2.6c0,2.6-0.4,4.7-1.3,6.4c-0.9,1.7-2.1,2.9-3.8,3.9
		c-1.7,0.9-3.7,1.4-6.2,1.4C60.2,102.5,59.9,102.5,59.7,102.5L59.7,102.5z M78.7,80h6.9v6.7c-2.3-0.3-4.6-0.5-6.9-0.7V80L78.7,80z
		 M85.6,89.9v6.8h10.7v5.5H78.7V88.9C81,89.1,83.3,89.5,85.6,89.9L85.6,89.9z M116.4,98.5h-7.8l-1.1,3.7h-7l3.2-8.5
		c6,1.3,12.2,2.3,18.7,2.7l2.2,5.8h-7.2L116.4,98.5L116.4,98.5z M105.2,89.8l3.7-9.8h7.5l4.5,11.9c-2.2-0.2-4.4-0.5-6.6-0.8
		l-1.7-5.4l-1.5,4.9C109.1,90.4,107.1,90.1,105.2,89.8z M48.7,91.1c0-3.6,1-6.4,3-8.4c1.9-1.9,4.6-2.9,8-3v5.2
		c-1.2,0.1-2.2,0.6-2.9,1.5c-0.4,0.5-0.7,1.1-0.9,1.9C53.4,88.9,51.1,89.9,48.7,91.1L48.7,91.1L48.7,91.1z M59.7,97.4
		c-1.2-0.1-2.2-0.6-2.9-1.4c-0.8-1-1.2-2.6-1.2-4.8c0-0.6,0-1.1,0.1-1.6c-2.3,0.4-4.6,0.9-6.9,1.6c0,2.6,0.5,4.7,1.5,6.4
		c1,1.7,2.3,3,4,3.8c1.5,0.7,3.3,1.1,5.5,1.2V97.4z"/>
	<path class="st0" d="M121.2,73v-1.2h0c0.6,0,1-0.2,1.4-0.6c0.4-0.4,0.5-1,0.5-1.8c0-0.8-0.2-1.4-0.5-1.8c-0.4-0.4-0.8-0.6-1.4-0.6
		h0v-1.2c1,0,1.9,0.3,2.5,0.9c0.6,0.6,0.9,1.5,0.9,2.6c0,1.1-0.3,2-0.9,2.6C123.1,72.6,122.2,73,121.2,73L121.2,73L121.2,73z
		 M129.6,72.8V66h4.9v1.2H131v1.6h3v1.2h-3v2.9H129.6L129.6,72.8z M139.4,72.8V66h4.9v1.2h-3.4v1.6h3v1.2h-3v2.9H139.4L139.4,72.8z
		 M149.3,72.8V66h5.3v1.2h-3.8v1.5h3.6v1.1h-3.6v1.9h4v1.2H149.3L149.3,72.8z M159.8,72.8V66h5.3v1.2h-3.8v1.5h3.6v1.1h-3.6v1.9h4
		v1.2H159.8z M111.6,70.3l1.4,0.4c-0.2,0.7-0.6,1.3-1.1,1.7c-0.5,0.4-1.1,0.5-1.9,0.5c-0.9,0-1.7-0.3-2.3-0.9
		c-0.6-0.6-0.9-1.5-0.9-2.5c0-1.1,0.3-2,0.9-2.6c0.6-0.6,1.4-0.9,2.4-0.9c0.9,0,1.6,0.2,2.1,0.7c0.3,0.3,0.6,0.7,0.7,1.3l-1.4,0.3
		c-0.1-0.4-0.3-0.6-0.5-0.8c-0.3-0.2-0.6-0.3-1-0.3c-0.5,0-1,0.2-1.3,0.5c-0.3,0.4-0.5,0.9-0.5,1.8c0,0.9,0.2,1.5,0.5,1.8
		c0.3,0.4,0.7,0.5,1.3,0.5c0.4,0,0.7-0.1,1-0.3C111.3,71.2,111.5,70.8,111.6,70.3L111.6,70.3z M121.2,65.9v1.2
		c-0.6,0-1.1,0.2-1.4,0.6c-0.4,0.4-0.5,1-0.5,1.8c0,0.8,0.2,1.4,0.6,1.8c0.4,0.4,0.8,0.6,1.4,0.6V73c-1,0-1.9-0.3-2.5-0.9
		c-0.6-0.6-0.9-1.5-0.9-2.6c0-0.7,0.1-1.3,0.3-1.8c0.2-0.3,0.4-0.7,0.7-0.9c0.3-0.3,0.6-0.5,0.9-0.6C120.1,66,120.6,65.9,121.2,65.9
		L121.2,65.9z"/>
	<path class="st0" d="M94.5,29.8c0.5-0.3,0.9-0.2,0.7,1c-0.1,1-0.1,1.9,0.2,2.7c0.5,1.1,0.2,2.2,0.3,3.2c0,1,0.3,1.2,0.6,1.9
		c0.3,0.6,0,1.1-0.5,0.9C91.6,37.8,91.5,31.9,94.5,29.8z"/>
	<path class="st0" d="M96.1,29.6c-0.6-0.2-0.9,0.1-0.4,1.1c0.4,0.9,0.6,1.8,0.5,2.6c-0.2,1.2,0.3,2.1,0.6,3.2c0.2,1,0.1,1.3-0.1,2
		c-0.1,0.7,0.3,1,0.7,0.7C100.9,36.6,99.5,30.9,96.1,29.6z"/>
	<path class="st0" d="M108.9,37.7c0.3-0.6,0.6-0.6,1.2,0.4c0.5,0.9,1,1.6,1.8,2c1,0.6,1.5,1.6,2.1,2.5c0.6,0.8,0.9,0.9,1.6,1.2
		c0.6,0.3,0.6,0.9,0.1,1C111.2,45.9,107.7,41.2,108.9,37.7z"/>
	<path class="st0" d="M110.1,36.6c-0.6,0.2-0.7,0.6,0.3,1.2c0.9,0.5,1.5,1.1,1.9,1.9c0.5,1.1,1.5,1.6,2.3,2.3c0.8,0.7,0.8,1,1.1,1.7
		c0.3,0.6,0.9,0.7,1,0.2C118.1,39.5,113.6,35.6,110.1,36.6z"/>
	<path class="st0" d="M107.5,47.6c0.6,0.1,0.7,0.5-0.2,1.2c-0.8,0.6-1.4,1.3-1.7,2.1c-0.4,1.1-1.3,1.7-2,2.5
		c-0.7,0.7-0.7,1.1-0.9,1.8c-0.2,0.6-0.8,0.8-1,0.3C99.9,51.4,103.9,47,107.5,47.6z"/>
	<path class="st0" d="M108.8,48.5c-0.3-0.5-0.7-0.6-1.1,0.5c-0.4,0.9-0.8,1.7-1.5,2.2c-1,0.7-1.2,1.8-1.8,2.7
		c-0.5,0.9-0.8,1-1.4,1.4c-0.5,0.4-0.5,1,0,1C107.5,56.9,110.4,51.8,108.8,48.5z"/>
	<path class="st0" d="M70,39.9c-2.1-1.1-3.7,0.3-5.3,0.4c-2.1,0.2-4-0.1-5.1-2.7c-1.5-3.6,1.3-7.9,5.6-7.2c3.2,0.5,4.5,5,1.5,6.8
		c-2.8,1.7-4.2-0.9-2.3-2.5c-0.4,1.5,0.7,2.1,1.7,1.4c1.5-1,1.4-3.7-1.2-4.6c-1.8-0.6-5.4,1.9-4,5.7c0.5,1.4,2.1,2.2,5.9,1.7
		C69.1,38.8,69.6,39.3,70,39.9z"/>
	<path class="st0" d="M83,40.1c-1.7-0.5-2.4-1.8-3.2-3.2c-1.3-2.1-3.8-3-5.8-2c-2.9,1.5-3.6,4.5-2.7,6.8c1.3,3.1,4.4,3.7,6.7,2
		c1.3-1,1.7-3.5,0.2-5.1c-0.8-0.9-2.7-0.7-2.4,1.7c0.8-2.2,3.3-0.2,1.9,1.9c-1.1,1.6-3.5,1-4.3,0.2c-1.1-1.1-1.6-4,0.5-5.8
		c2-1.7,3.9-0.6,5.4,1C80.9,39.7,82.2,40.5,83,40.1z"/>
	<path class="st0" d="M64.1,66.5c2.3,1.6,5.6-0.7,7.4,0.8c0.8,0.8,0.8,1.8,0,2.4c-1.2,1-2.6,0-2.6-0.6c-0.1-0.9,0.7-1.3,1.4-1
		c-0.5,0.6-0.1,1,0.5,0.7c0.5-0.5,0-1.2-1-1.2C68.7,67.5,66.2,68.2,64.1,66.5z"/>
	<path class="st0" d="M65.2,62.3c-0.6,1.6,0.9,2.8,2,1.9c1.2-0.9,0.7-3.3-1.9-3.8C63,60,60.1,62,60.8,64.9c0.6,2.3,3.1,3.3,5,3.3
		c-1.4-0.4-3-0.8-3.5-3C61.8,63.1,63.3,61.9,65.2,62.3z"/>
	<path class="st0" d="M91.9,43.3c-7.3-2.6-24.2,6.1-26.4,11.9C72.6,47.7,82,44,91.9,43.3z"/>
	<path class="st0" d="M92.6,43.9c-0.8,3.2-7,7.7-13.6,10.6v10.2c0.4,0.1,0.8,0.2,1.1,0.3c3.3,0.6,9.4-2,8-7.1
		c-1.2,2.3-3.7,2.7-4.9,0.7c-0.9-1.5,1.5-4.3,4.4-4.2c5.1,0.3,6.3,8.6,0.9,11.7c-2.7,1.5-6.4,1.6-9.5,0.5v0.3
		c1.9,1.3,4.5,2.1,9.6,1.6C97.8,63.6,97.3,53.8,92.6,43.9L92.6,43.9z M79,70.4v-1.6c1.6,0.6,3.3,1,5.2,1.1
		C82.5,70.3,80.8,70.5,79,70.4z M79,54.5c-1.5,0.7-3,1.2-4.5,1.7l0,0c-2.2,3.9,1.4,7.4,4.5,8.5V54.5L79,54.5z M79,66.5
		c-0.3-0.1-0.5-0.2-0.7-0.3c0.2,0.2,0.5,0.4,0.7,0.6V66.5L79,66.5z M79,68.8v1.6c-4.6-0.4-9.1-3.4-13.9-13.9
		c1.7,0.8,4.2,0.8,6.9,0.2C70.6,61.5,73.7,66.6,79,68.8z"/>
	<path class="st0" d="M73.4,72.1c0,0.8,0.5,1.2,1.7,1.2c8.8-0.3,17.4-4,23.1-9.9c0.4-0.4,0.9-1,0.3-1.3c-0.4-0.2-1.1-0.3-2-0.2
		c1-0.5,2.6-0.7,3,0.6c2.2,6.2-13.8,16.9-22.7,13.5c5,0,9.8-1.1,14.2-3.8c0.9-0.5,1.3-1.1,0.9-1.8c-0.3-0.5-1.2-0.4-2.4,0.2
		c-7.2,3.3-15.2,4-16,2.9C73.2,73,73.3,72.6,73.4,72.1z"/>
	<path class="st0" d="M50.6,70.9v-3.4h1.5c0.3,0,0.5,0,0.7,0.1c0.2,0.1,0.3,0.2,0.4,0.3c0.1,0.2,0.1,0.3,0.1,0.5
		c0,0.2-0.1,0.5-0.2,0.6c-0.2,0.2-0.4,0.3-0.7,0.3c0.6,0.3,0.6,1.1,1,1.6h-0.6c-0.3-0.4-0.3-1.2-0.7-1.4c-0.1,0-0.1-0.1-0.2-0.1
		c-0.1,0-0.1,0-0.3,0H51v1.5H50.6L50.6,70.9z M51,68.9h1c0.2,0,0.4,0,0.5-0.1c0.1,0,0.2-0.1,0.3-0.2c0.1-0.1,0.1-0.2,0.1-0.3
		c0-0.2-0.1-0.3-0.2-0.4c-0.1-0.1-0.3-0.2-0.6-0.2H51V68.9L51,68.9z M51.9,72c0.8,0,1.5-0.3,2-0.8c0.5-0.5,0.8-1.2,0.8-2
		s-0.3-1.5-0.8-2c-0.5-0.5-1.2-0.8-2-0.8c-0.8,0-1.5,0.3-2,0.8c-0.5,0.5-0.8,1.2-0.8,2s0.3,1.5,0.8,2C50.4,71.7,51.1,72,51.9,72
		L51.9,72z M54.2,71.4c0.6-0.6,1-1.4,1-2.3c0-0.9-0.4-1.7-1-2.3c-0.6-0.6-1.4-1-2.3-1c-0.9,0-1.7,0.4-2.3,1c-0.6,0.6-1,1.4-1,2.3
		c0,0.9,0.4,1.7,1,2.3c0.6,0.6,1.4,1,2.3,1C52.8,72.4,53.6,72,54.2,71.4z"/>
</g>
</svg>
