<?xml version="1.0" encoding="utf-8"?>
<!-- Generator: Adobe Illustrator 24.0.2, SVG Export Plug-In . SVG Version: 6.00 Build 0)  -->
<svg version="1.1" id="Layer_1" xmlns="http://www.w3.org/2000/svg" xmlns:xlink="http://www.w3.org/1999/xlink" x="0px" y="0px"
	 viewBox="0 0 211 133" style="enable-background:new 0 0 211 133;" xml:space="preserve">
<style type="text/css">
	.st0{fill-rule:evenodd;clip-rule:evenodd;fill:#373435;}
	.st1{fill-rule:evenodd;clip-rule:evenodd;fill:#8D2929;}
	.st2{fill-rule:evenodd;clip-rule:evenodd;fill:#FDFDFD;}
</style>
<g>
	<polygon class="st0" points="72.7,32.2 138.6,32.2 176.2,47.4 35.1,47.4 	"/>
	<rect x="35.1" y="48.2" class="st0" width="141.1" height="3.6"/>
	<g>
		<path class="st1" d="M94.4,63.1v13.2c0,1.1,0.1,1.9,0.4,2.2c0.3,0.3,0.7,0.5,1.4,0.5c0.7,0,1.1-0.2,1.4-0.5
			c0.2-0.3,0.4-1.1,0.4-2.3v-0.7v-13c0-1.2-0.1-2-0.4-2.3c-0.3-0.3-0.7-0.5-1.4-0.5c-0.7,0-1.2,0.2-1.4,0.5c-0.2,0.3-0.4,1-0.4,2.1
			V63.1L94.4,63.1z M87.1,64c0-3.7,0.7-6.3,2.1-7.7c1.4-1.5,3.7-2.2,7-2.2c3.3,0,5.6,0.7,7,2.2c1.4,1.5,2.1,4.1,2.1,7.7v10.6
			c0,3.7-0.7,6.3-2.1,7.7s-3.7,2.2-7,2.2c-3.3,0-5.6-0.7-7-2.2c-1.4-1.5-2.1-4.1-2.1-7.7V64z"/>
		<polygon class="st1" points="106.5,54.4 113.7,54.4 113.7,78.5 121.2,78.5 121.2,84.2 106.5,84.2 		"/>
		<path class="st1" d="M129.9,73.7h3.5c0-2.8-0.2-5.3-0.5-7.5c-0.3-2.2-0.7-4.1-1.2-5.6c-0.5,1.5-1,3.4-1.3,5.6
			C130.1,68.3,130,70.8,129.9,73.7L129.9,73.7z M122.8,84.2v-5.8c0-5.6,0.5-10.3,1.4-14.1c0.9-3.8,2.4-7.1,4.3-9.8h6.5
			c2,2.8,3.4,6,4.3,9.9c0.9,3.8,1.4,8.5,1.4,14.1v5.8h-7.2v-4.9h-3.5v4.9H122.8z"/>
		<path class="st1" d="M150.1,65.7c1,0,1.7-0.2,2.1-0.6c0.4-0.4,0.6-1.1,0.6-2c0-1.3-0.2-2.1-0.5-2.6c-0.4-0.5-1-0.7-1.9-0.7H149
			v5.9H150.1L150.1,65.7z M149,78.5h1c1.1,0,1.9-0.3,2.3-0.8c0.4-0.5,0.6-1.6,0.6-3.3c0-1.3-0.2-2.3-0.6-2.9c-0.4-0.6-1-0.8-1.9-0.8
			H149V78.5L149,78.5z M141.9,84.2V54.4h10c3,0,5.1,0.6,6.3,1.8c1.2,1.2,1.8,3.2,1.8,6.1c0,1.6-0.2,2.9-0.5,3.7
			c-0.4,0.9-0.9,1.4-1.7,1.7c0.8,0.4,1.4,1,1.7,2c0.3,1,0.5,2.6,0.5,5c0,3.6-0.6,6.1-1.9,7.4c-1.3,1.3-3.5,2-6.8,2H141.9z"/>
		<rect x="161" y="54.4" class="st1" width="7.2" height="29.8"/>
	</g>
	<rect x="43.1" y="54" class="st0" width="41.6" height="30.5"/>
	<rect x="43.1" y="77.2" class="st2" width="125" height="2.2"/>
	<g>
		<g>
			<rect x="43.1" y="64.1" class="st2" width="41.6" height="2.2"/>
			<rect x="43.1" y="60.9" class="st2" width="41.6" height="2.2"/>
		</g>
		<g>
			<rect x="43.1" y="67.5" class="st2" width="41.6" height="0.5"/>
			<rect x="43.1" y="59.2" class="st2" width="41.6" height="0.5"/>
		</g>
	</g>
	<polygon class="st0" points="35.1,51.8 40.4,51.8 40.4,55.8 	"/>
	<polygon class="st0" points="176.2,51.8 170.9,51.8 170.9,55.8 	"/>
	<rect x="35.1" y="86.9" class="st0" width="141.1" height="3.6"/>
	<g>
		<path class="st0" d="M36,105.1v-6.7h0.9v6.7H36L36,105.1z M38.4,105.1v-6.7h0.9l3.5,5.2v-5.2h0.8v6.7h-0.9l-3.5-5.2v5.2H38.4
			L38.4,105.1z M46.8,105.1v-5.9h-2.2v-0.8h5.3v0.8h-2.2v5.9H46.8L46.8,105.1z M50.9,105.1v-6.7h4.8v0.8h-3.9v2h3.7v0.8h-3.7v2.3
			h4.1v0.8H50.9L50.9,105.1z M57.1,105.1v-6.7h3c0.6,0,1,0.1,1.4,0.2c0.3,0.1,0.6,0.3,0.7,0.6c0.2,0.3,0.3,0.6,0.3,1
			c0,0.5-0.2,0.9-0.5,1.2c-0.3,0.3-0.8,0.5-1.4,0.6c0.2,0.1,0.4,0.2,0.5,0.3c0.3,0.2,0.5,0.5,0.7,0.9l1.2,1.8h-1.1l-0.9-1.4
			c-0.3-0.4-0.5-0.7-0.6-0.9c-0.2-0.2-0.3-0.4-0.4-0.4c-0.1-0.1-0.3-0.1-0.4-0.2c-0.1,0-0.3,0-0.5,0h-1v3H57.1L57.1,105.1z
			 M57.9,101.4h1.9c0.4,0,0.7,0,0.9-0.1c0.2-0.1,0.4-0.2,0.5-0.4c0.1-0.2,0.2-0.4,0.2-0.6c0-0.3-0.1-0.6-0.3-0.8
			c-0.2-0.2-0.6-0.3-1.1-0.3h-2.1V101.4L57.9,101.4z M63.8,105.1v-6.7h0.9l3.5,5.2v-5.2H69v6.7h-0.9l-3.5-5.2v5.2H63.8L63.8,105.1z
			 M69.8,105.1l2.6-6.7h0.9l2.7,6.7h-1l-0.8-2h-2.8l-0.7,2H69.8L69.8,105.1z M71.7,102.4h2.3l-0.7-1.8c-0.2-0.6-0.4-1-0.5-1.4
			c-0.1,0.4-0.2,0.9-0.4,1.3L71.7,102.4L71.7,102.4z M77.7,105.1h0.9v-5.9h2.2v-0.8h-5.3v0.8h2.2V105.1L77.7,105.1z M81.8,105.1
			v-6.7h0.9v6.7H81.8L81.8,105.1z M84,101.9c0-1.1,0.3-2,0.9-2.6c0.6-0.6,1.4-0.9,2.3-0.9c0.6,0,1.2,0.1,1.7,0.4
			c0.5,0.3,0.9,0.7,1.1,1.2c0.3,0.5,0.4,1.1,0.4,1.8c0,0.7-0.1,1.3-0.4,1.8c-0.3,0.5-0.7,0.9-1.2,1.2c-0.5,0.3-1,0.4-1.6,0.4
			c-0.6,0-1.2-0.2-1.7-0.5c-0.5-0.3-0.9-0.7-1.1-1.2C84.1,103,84,102.5,84,101.9L84,101.9z M84.9,101.9c0,0.8,0.2,1.4,0.6,1.9
			c0.4,0.5,1,0.7,1.6,0.7c0.7,0,1.2-0.2,1.6-0.7c0.4-0.5,0.6-1.1,0.6-2c0-0.5-0.1-1-0.3-1.4c-0.2-0.4-0.5-0.7-0.8-0.9
			c-0.4-0.2-0.7-0.3-1.2-0.3c-0.6,0-1.2,0.2-1.6,0.6C85.1,100.2,84.9,100.9,84.9,101.9L84.9,101.9z M91.5,105.1v-6.7h0.9l3.5,5.2
			v-5.2h0.8v6.7h-0.9l-3.5-5.2v5.2H91.5L91.5,105.1z M97.5,105.1l2.6-6.7h0.9l2.7,6.7h-1l-0.8-2h-2.8l-0.7,2H97.5L97.5,105.1z
			 M99.4,102.4h2.3l-0.7-1.8c-0.2-0.6-0.4-1-0.5-1.4c-0.1,0.4-0.2,0.9-0.4,1.3L99.4,102.4L99.4,102.4z M104.4,105.1v-6.7h0.9v5.9
			h3.3v0.8H104.4z"/>
		<path class="st0" d="M113.4,105.1v-5.9h-2.2v-0.8h5.3v0.8h-2.2v5.9H113.4L113.4,105.1z M117.4,105.1v-6.7h3c0.6,0,1,0.1,1.4,0.2
			c0.3,0.1,0.6,0.3,0.7,0.6c0.2,0.3,0.3,0.6,0.3,1c0,0.5-0.2,0.9-0.5,1.2c-0.3,0.3-0.8,0.5-1.4,0.6c0.2,0.1,0.4,0.2,0.5,0.3
			c0.3,0.2,0.5,0.5,0.7,0.9l1.2,1.8h-1.1l-0.9-1.4c-0.3-0.4-0.5-0.7-0.6-0.9c-0.2-0.2-0.3-0.4-0.4-0.4c-0.1-0.1-0.3-0.1-0.4-0.2
			c-0.1,0-0.3,0-0.5,0h-1v3H117.4L117.4,105.1z M118.3,101.4h1.9c0.4,0,0.7,0,0.9-0.1c0.2-0.1,0.4-0.2,0.5-0.4
			c0.1-0.2,0.2-0.4,0.2-0.6c0-0.3-0.1-0.6-0.3-0.8c-0.2-0.2-0.6-0.3-1.1-0.3h-2.1V101.4L118.3,101.4z M123.4,105.1l2.6-6.7h0.9
			l2.7,6.7h-1l-0.8-2H125l-0.7,2H123.4L123.4,105.1z M125.3,102.4h2.3l-0.7-1.8c-0.2-0.6-0.4-1-0.5-1.4c-0.1,0.4-0.2,0.9-0.4,1.3
			L125.3,102.4L125.3,102.4z M130.3,105.1v-6.7h2.3c0.5,0,0.9,0,1.2,0.1c0.4,0.1,0.7,0.2,1,0.5c0.4,0.3,0.6,0.7,0.8,1.1
			c0.2,0.5,0.3,1,0.3,1.6c0,0.5-0.1,1-0.2,1.3c-0.1,0.4-0.3,0.7-0.5,1c-0.2,0.3-0.4,0.5-0.6,0.6c-0.2,0.1-0.5,0.3-0.8,0.3
			c-0.3,0.1-0.7,0.1-1.1,0.1H130.3L130.3,105.1z M131.2,104.3h1.4c0.4,0,0.8,0,1-0.1c0.3-0.1,0.4-0.2,0.6-0.3
			c0.2-0.2,0.4-0.5,0.5-0.8c0.1-0.4,0.2-0.8,0.2-1.3c0-0.7-0.1-1.2-0.3-1.6c-0.2-0.4-0.5-0.6-0.8-0.8c-0.2-0.1-0.6-0.1-1.1-0.1h-1.4
			V104.3L131.2,104.3z M137.2,105.1v-6.7h0.9v6.7H137.2L137.2,105.1z M139.6,105.1v-6.7h0.9l3.5,5.2v-5.2h0.8v6.7H144l-3.5-5.2v5.2
			H139.6L139.6,105.1z M149.5,102.5v-0.8l2.8,0v2.5c-0.4,0.3-0.9,0.6-1.3,0.8c-0.5,0.2-0.9,0.3-1.4,0.3c-0.7,0-1.3-0.1-1.8-0.4
			c-0.5-0.3-0.9-0.7-1.2-1.2c-0.3-0.5-0.4-1.1-0.4-1.8c0-0.6,0.1-1.3,0.4-1.8c0.3-0.6,0.7-1,1.2-1.3c0.5-0.3,1.1-0.4,1.8-0.4
			c0.5,0,0.9,0.1,1.3,0.2c0.4,0.2,0.7,0.4,0.9,0.7c0.2,0.3,0.4,0.6,0.5,1.1l-0.8,0.2c-0.1-0.3-0.2-0.6-0.4-0.8
			c-0.1-0.2-0.4-0.3-0.6-0.5c-0.3-0.1-0.6-0.2-0.9-0.2c-0.4,0-0.8,0.1-1,0.2c-0.3,0.1-0.5,0.3-0.7,0.5c-0.2,0.2-0.3,0.4-0.4,0.7
			c-0.2,0.4-0.3,0.9-0.3,1.3c0,0.6,0.1,1.1,0.3,1.5c0.2,0.4,0.5,0.7,0.9,0.9c0.4,0.2,0.8,0.3,1.2,0.3c0.4,0,0.8-0.1,1.1-0.2
			c0.4-0.1,0.6-0.3,0.8-0.5v-1.2H149.5L149.5,102.5z M156,105.1v-5.7h3.9v1h-2.8v1.4h2.4v1h-2.4v2.4H156L156,105.1z M160,105.1V104
			h1.1v1.1H160L160,105.1z M161.8,105.1v-1l3-3.7h-2.7v-1h4.2v0.9l-3.1,3.9h3.3v1H161.8L161.8,105.1z M167.1,105.1V104h1.1v1.1
			H167.1L167.1,105.1z M173,103l1.1,0.4c-0.2,0.6-0.5,1.1-0.9,1.4c-0.4,0.3-0.9,0.5-1.5,0.5c-0.8,0-1.4-0.3-1.9-0.8
			c-0.5-0.5-0.7-1.2-0.7-2.1c0-1,0.2-1.7,0.7-2.2c0.5-0.5,1.1-0.8,1.9-0.8c0.7,0,1.3,0.2,1.7,0.6c0.3,0.2,0.5,0.6,0.6,1.1l-1.1,0.3
			c-0.1-0.3-0.2-0.5-0.4-0.7c-0.2-0.2-0.5-0.3-0.8-0.3c-0.4,0-0.8,0.2-1,0.5c-0.3,0.3-0.4,0.8-0.4,1.5c0,0.7,0.1,1.2,0.4,1.5
			c0.3,0.3,0.6,0.5,1,0.5c0.3,0,0.6-0.1,0.8-0.3C172.7,103.7,172.9,103.4,173,103L173,103z M175.1,105.1V104h1.1v1.1H175.1z"/>
	</g>
</g>
</svg>
