<?xml version="1.0" encoding="utf-8"?>
<!-- Generator: Adobe Illustrator 24.0.2, SVG Export Plug-In . SVG Version: 6.00 Build 0)  -->
<svg version="1.1" id="Layer_1" xmlns="http://www.w3.org/2000/svg" xmlns:xlink="http://www.w3.org/1999/xlink" x="0px" y="0px"
	 viewBox="0 0 211 133" style="enable-background:new 0 0 211 133;" xml:space="preserve">
<style type="text/css">
	.st0{display:none;}
	.st1{display:inline;fill-rule:evenodd;clip-rule:evenodd;fill:#373435;}
	.st2{display:inline;}
	.st3{fill-rule:evenodd;clip-rule:evenodd;fill:#373435;}
	
		.st4{display:inline;fill-rule:evenodd;clip-rule:evenodd;fill:#373435;stroke:#373435;stroke-width:0.7087;stroke-miterlimit:2.6131;}
	.st5{display:inline;fill-rule:evenodd;clip-rule:evenodd;fill:#FDFDFD;}
	.st6{display:inline;fill-rule:evenodd;clip-rule:evenodd;fill:#00A759;}
	.st7{display:inline;fill-rule:evenodd;clip-rule:evenodd;fill:#EC3237;}
	.st8{fill:#58595B;}
	.st9{fill:#F48120;}
	.st10{fill:#6D6E70;}
</style>
<g class="st0">
	<path class="st1" d="M45.9,41.3v1.3c0.1,0.1,0.2,0.2,0.3,0.3c0.6,0.5,1.1,1.2,1.1,2.1v4.3v1.3V65c0,1.4-0.6,2.5-1.7,3.2
		c-0.2,0.1-0.6,0.4-0.6,0.7V70c0,0,0,0.1,0,0.2c0.1,0,0.2,0,0.3,0h18.8V59.4H64h-1.5c-0.1,0.4-0.2,0.9-0.2,1.2
		c-0.3,1.8-0.9,4.1-2.2,5.5c-1.1,1.3-2.7,1.8-4.3,1.8h-3.5V50.5v-1.3v-4.3c0-0.8,0.5-1.5,1.1-2.1c0.1-0.1,0.2-0.2,0.3-0.3v-1.3
		L45.9,41.3L45.9,41.3z"/>
	<g class="st2">
		<path class="st3" d="M71.5,41.2l-6.3,0.1v1.3c0.1,0.1,0.2,0.2,0.3,0.3c0.6,0.5,1.1,1.2,1.1,2.1v20.5c0,1.4,0.3,2.7,1.2,3.8
			c0.9,1,2,1.4,3.3,1.4c1.9,0,4.1-1.5,5.5-2.7l1.2-1v3.4l6.3-0.1V69c-0.1-0.1-0.2-0.2-0.3-0.3c-0.6-0.6-1.1-1.2-1.1-2.1V41.2
			l-6.3,0.1v1.3c0,0.1,0.2,0.2,0.3,0.3c0.6,0.5,1.1,1.2,1.1,2.1v20.3l-0.2,0.2c-0.9,1.2-2.1,2.2-3.6,2.2c-1.8,0-2.5-1.4-2.5-3.1
			V41.2z"/>
		<path class="st3" d="M86.2,70c0.1,0,0.2,0,0.3,0c0.6,0,1.1,0,1.7,0c1.3,0,2.5-0.1,3.8-0.1c2.8,0,8.4,0.3,8.4,4.3
			c0,1.4-0.7,2.5-1.8,3.3c-1.2,0.9-2.6,1.3-4,1.3c-1.2,0-2.4-0.3-3.5-0.8l-0.7-0.3l0.3-0.7c0.2-0.4,0.4-0.8,0.4-1.2
			c0-0.5-0.2-1-0.6-1.3c-0.5-0.4-1-0.6-1.6-0.6s-1.2,0.2-1.7,0.6c-0.4,0.5-0.6,1-0.6,1.6c0,1.4,0.7,2.3,1.8,3c1.6,1,3.8,1.2,5.6,1.2
			c2.6,0,5.2-0.5,7.3-2.1c1.9-1.4,2.7-3.3,2.7-5.6c0-5.9-5.5-6.9-10.3-6.9h-4.1l2.3-5.7l0.6,0.1c0.8,0.2,1.6,0.3,2.4,0.3
			c2.3,0,4.2-0.8,5.6-2.7c1.6-2.2,2.1-5,2.1-7.6s-0.8-4.9-2.3-6.9l-0.5-0.7l0.7-0.4c0.4-0.3,0.9-0.4,1.4-0.4c0.4,0,0.9,0.2,1.2,0.4
			c0.3,0.2,0.7,0.3,1,0.3c0.9,0,1.1-0.3,1.1-1.2c0-0.5-0.2-0.8-0.6-1.1c-0.4-0.4-0.9-0.5-1.5-0.5c-1.3,0-2.6,1.2-3.5,2L99.2,42
			l-0.5-0.3c-1.3-0.8-2.7-1.2-4.2-1.2c-2.4,0-4.5,0.7-5.9,2.7c-1.5,2.1-2,4.7-2,7.2c0,3.3,0.8,6.3,3.4,8.5l0.4,0.3l-3.8,9.5
			C86.5,69,86.3,69.7,86.2,70L86.2,70z M94.5,58.9L94.5,58.9c-1.3,0-2.1-0.7-2.5-1.9c-0.5-1.4-0.6-3.5-0.6-5c0-2.3,0-4.9,0.4-7.2
			c0.3-1.5,1.1-3,2.8-3c1.3,0,2.1,0.9,2.5,2.1c0.6,1.7,0.6,5,0.6,6.8c0,1.7,0,4.5-0.6,6.1C96.7,58.1,95.8,58.9,94.5,58.9z"/>
		<path class="st3" d="M114.7,52.2c-6,1.5-10.6,4.7-10.6,11.3c0,1.9,0.4,3.8,1.6,5.4c1,1.3,2.3,2,3.9,2c2.1,0,4.1-1.8,5.4-3.3
			l0.8-0.9l0.5,1.2c0.8,2,2.1,3,4.2,3c0.7,0,1.9,0,1.9-1v-1.4c0,0,0,0,0-0.1c0,0-0.1,0-0.2-0.1c-0.8-0.2-1.5-0.6-1.7-1.3
			c-0.3-0.7-0.3-1.6-0.3-2.3V48.5c0-2.2-0.5-4.4-2.1-5.9c-1.6-1.6-3.9-2.1-6.1-2.1c-1.8,0-3.4,0.4-4.9,1.5c-1.2,0.9-2,2-2,3.5
			c0,0.7,0.2,1.4,0.7,2c0.5,0.5,1.2,0.7,2,0.7c0.6,0,1.3-0.2,1.7-0.6c0.4-0.4,0.6-1,0.6-1.6c0-0.4-0.2-1-0.3-1.3
			c-0.1-0.3-0.3-0.7-0.3-1.1c0-1.1,0.9-1.4,1.8-1.4c2.9,0,3.8,2.2,3.8,4.8v5.1L114.7,52.2L114.7,52.2z M115.3,53.7L115.3,53.7v9.8
			c0,0.9-0.2,1.8-0.7,2.6c-0.5,0.9-1.2,1.4-2.3,1.4c-2.7,0-3.1-3.2-3.1-5.3c0-3.7,1.4-6.8,5-8.1L115.3,53.7z"/>
		<path class="st3" d="M124.5,68.9v1.3h7.5v-1.3c-0.1-0.1-0.1-0.1-0.2-0.2c-0.6-0.7-1-1.5-1-2.4V46.1l0.2-0.2
			c0.9-1.2,2.1-2.2,3.7-2.2c1.8,0,2.4,1.5,2.4,3.1v19.8c0,0.9-0.5,1.7-1.2,2.2c0,0,0,0-0.1,0v1.3h7.5v-1c-0.1-0.1-0.2-0.3-0.3-0.3
			c-0.6-0.7-1.1-1.6-1.1-2.6V46.9c0-1.6-0.3-3.2-1.2-4.5c-0.8-1.1-1.9-1.6-3.2-1.6c-2.2,0-4,1.1-5.5,2.7l-1.3,1.4v-3.7l-6.9,0.2l0,0
			v1.1c0,0.1,0.1,0.1,0.2,0.2c1.3,0.6,1.8,1.7,1.8,3.1v20.1C125.8,67.1,125.4,68,124.5,68.9C124.6,68.8,124.5,68.9,124.5,68.9z"/>
		<path class="st3" d="M154,40.5c-2.7,0-4.7,1.3-6.3,3.5c-2.2,3.1-2.6,8-2.6,11.7s0.4,8.4,2.5,11.6c1.6,2.5,3.8,3.7,6.8,3.7
			c2.9,0,5.1-1.3,6.7-3.8c2-3.2,2.4-7.6,2.4-11.3C163.5,49.3,162.3,40.5,154,40.5L154,40.5z M157.9,52.6L157.9,52.6v7.7
			c0,1.9,0,4.9-0.7,6.7c-0.5,1.3-1.4,2.2-2.8,2.2c-1.7,0-2.6-1.3-3-2.8c-0.7-2.3-0.7-5.9-0.7-8.3v-7.3c0-2.3,0-8.6,3.6-8.6
			c1.6,0,2.5,1.2,2.9,2.6C157.8,46.9,157.9,50.4,157.9,52.6z"/>
		<path class="st3" d="M114.8,79.1l-0.2,0.2c-0.1,0.1-0.4,0.2-0.7,0.3c-0.3,0.1-0.7,0.2-1,0.2c-0.8,0-1.4-0.3-1.8-0.8
			c-0.5-0.6-0.7-1.2-0.7-2s0.2-1.5,0.7-2s1.1-0.8,1.8-0.8c0.4,0,0.8,0.1,1.1,0.3c0.3,0.2,0.5,0.4,0.6,0.6l0.5-0.3
			c-0.1-0.3-0.4-0.5-0.7-0.8c-0.4-0.3-0.9-0.4-1.5-0.4c-0.9,0-1.6,0.3-2.2,0.9s-0.9,1.4-0.9,2.4s0.3,1.8,0.9,2.4s1.3,0.9,2.3,0.9
			c0.4,0,0.8-0.1,1.2-0.2c0.4-0.1,0.6-0.2,0.8-0.3c0.1-0.1,0.2-0.1,0.3-0.2L114.8,79.1L114.8,79.1z M135.9,73.7L135.9,73.7h-3.5v6.5
			h0.6V77h2.8v-0.5H133v-2.4h2.9V73.7L135.9,73.7z M145.8,73.7L145.8,73.7h-3.5v6.5h0.6V77h2.8v-0.5h-2.8v-2.4h2.9V73.7L145.8,73.7z
			 M155.8,79.7L155.8,79.7h-3.1V77h2.9v-0.5h-2.9v-2.4h3v-0.5h-3.6v6.5h3.7L155.8,79.7L155.8,79.7z M123.8,73.7L123.8,73.7h-0.5
			l-2.4,6.5h0.6l0.7-2h2.7l0.8,2h0.6L123.8,73.7L123.8,73.7z M122.4,77.6L122.4,77.6l1.2-3.2l1.2,3.2H122.4z"/>
		<path class="st3" d="M88.4,77.9H45.7c-0.4,0-0.8-0.3-0.8-0.8c0-0.4,0.3-0.8,0.8-0.8h42.8c0.4,0,0.8,0.3,0.8,0.8
			C89.2,77.6,88.9,77.9,88.4,77.9z"/>
		<path class="st3" d="M154,72.8l-0.9-0.7l-0.3,0.3l0.1,0.1c0.1,0.1,0.2,0.2,0.4,0.3c0.2,0.1,0.3,0.2,0.5,0.2L154,72.8z"/>
	</g>
</g>
<g class="st0">
	<path class="st4" d="M49.8,85.2h108.7c2.6,0,4.8,2.2,4.8,4.9l0,0c0,2.7-2.1,4.9-4.8,4.9H49.8c-2.6,0-4.8-2.2-4.8-4.9l0,0
		C45.1,87.4,47.2,85.2,49.8,85.2z"/>
	<path class="st5" d="M49.8,85.3h108.7c2.5,0,4.6,2.1,4.6,4.7l0,0c0,2.6-2.1,4.7-4.6,4.7H49.8c-2.5,0-4.6-2.1-4.6-4.7l0,0
		C45.2,87.4,47.3,85.3,49.8,85.3z"/>
	<path class="st6" d="M49.8,94.5h34.8v-8.8H49.8c-2.4,0-4.3,2-4.3,4.4l0,0C45.5,92.5,47.5,94.5,49.8,94.5z"/>
	<path class="st7" d="M123.7,94.5h34.8c2.4,0,4.3-2,4.3-4.4l0,0c0-2.4-1.9-4.4-4.3-4.4h-34.8V94.5z"/>
</g>
<path class="st8" d="M95.3,104.7v-1h1v1H95.3z M93.6,104.7v-1h1v1H93.6z M95.8,109.7v-0.6c-0.2,0.2-0.4,0.4-0.6,0.5
	c-0.3,0.1-0.5,0.2-0.8,0.2c-0.3,0-0.5-0.1-0.8-0.2c-0.2-0.1-0.4-0.3-0.5-0.5c-0.1-0.2-0.2-0.5-0.2-0.9v-2.7h1.1v1.9
	c0,0.6,0,1,0.1,1.1c0,0.1,0.1,0.2,0.2,0.3c0.1,0.1,0.2,0.1,0.4,0.1c0.2,0,0.4-0.1,0.5-0.2c0.2-0.1,0.3-0.2,0.3-0.4
	c0.1-0.2,0.1-0.5,0.1-1.1v-1.8h1.1v4.2H95.8z M92.2,109.7h-1.1v-2.2c0-0.5,0-0.7-0.1-0.9c0-0.1-0.1-0.2-0.2-0.3
	c-0.1-0.1-0.2-0.1-0.4-0.1c-0.2,0-0.4,0.1-0.5,0.2c-0.2,0.1-0.3,0.2-0.3,0.4c-0.1,0.2-0.1,0.5-0.1,1v1.9h-1.1v-4.2h1v0.6
	c0.4-0.5,0.8-0.7,1.4-0.7c0.2,0,0.5,0,0.7,0.1c0.2,0.1,0.4,0.2,0.5,0.3c0.1,0.1,0.2,0.3,0.2,0.5c0,0.2,0.1,0.4,0.1,0.7V109.7z
	 M86,104.7v-1h1v1H86z M84.3,104.7v-1h1v1H84.3z M86.5,109.7v-0.6c-0.2,0.2-0.4,0.4-0.6,0.5c-0.3,0.1-0.5,0.2-0.8,0.2
	c-0.3,0-0.5-0.1-0.8-0.2c-0.2-0.1-0.4-0.3-0.5-0.5c-0.1-0.2-0.2-0.5-0.2-0.9v-2.7h1.1v1.9c0,0.6,0,1,0.1,1.1c0,0.1,0.1,0.2,0.2,0.3
	c0.1,0.1,0.2,0.1,0.4,0.1c0.2,0,0.4-0.1,0.5-0.2c0.2-0.1,0.3-0.2,0.3-0.4c0.1-0.2,0.1-0.5,0.1-1.1v-1.8h1.1v4.2H86.5z M82,109.7
	h-1.1v-4.2h1v0.6c0.2-0.3,0.3-0.5,0.5-0.6c0.1-0.1,0.3-0.1,0.5-0.1c0.3,0,0.5,0.1,0.7,0.2l-0.3,1c-0.2-0.1-0.4-0.2-0.5-0.2
	c-0.2,0-0.3,0-0.4,0.1c-0.1,0.1-0.2,0.2-0.3,0.5c-0.1,0.2-0.1,0.7-0.1,1.4V109.7z M78.1,103.5v-1h1v1H78.1z M76.4,103.5v-1h1v1H76.4
	z M75.4,103.9h1.2v3.1c0,0.5,0,0.8,0,1c0,0.2,0.2,0.4,0.4,0.6c0.2,0.1,0.4,0.2,0.8,0.2c0.3,0,0.6-0.1,0.8-0.2
	c0.2-0.1,0.3-0.3,0.3-0.5c0-0.2,0.1-0.5,0.1-1v-3.2H80v3.1c0,0.7,0,1.2-0.1,1.5c-0.1,0.3-0.2,0.5-0.4,0.7c-0.2,0.2-0.4,0.4-0.7,0.5
	c-0.3,0.1-0.7,0.2-1.1,0.2c-0.6,0-1-0.1-1.3-0.2c-0.3-0.1-0.5-0.3-0.7-0.5c-0.2-0.2-0.3-0.4-0.3-0.6c-0.1-0.3-0.1-0.8-0.1-1.5V103.9
	z M72.6,105.5v4.1c0,0.5,0,0.9-0.1,1.1c-0.1,0.2-0.2,0.4-0.4,0.5c-0.2,0.1-0.5,0.2-0.8,0.2c-0.1,0-0.2,0-0.4,0c-0.1,0-0.3,0-0.4-0.1
	l0.2-1c0.1,0,0.1,0,0.1,0c0,0,0.1,0,0.1,0c0.1,0,0.2,0,0.3-0.1c0.1,0,0.1-0.1,0.1-0.2c0-0.1,0-0.3,0-0.6v-4H72.6z M71.5,104.9v-1
	h1.1v1H71.5z M69.6,107.7c-0.1,0-0.4,0.1-0.7,0.2c-0.3,0.1-0.5,0.1-0.6,0.2c-0.1,0.1-0.2,0.2-0.2,0.4c0,0.2,0.1,0.3,0.2,0.4
	c0.1,0.1,0.3,0.2,0.4,0.2c0.2,0,0.4-0.1,0.6-0.2c0.1-0.1,0.2-0.2,0.3-0.4c0-0.1,0-0.3,0-0.5V107.7z M68.1,106.8l-1-0.2
	c0.1-0.4,0.3-0.7,0.6-0.9c0.3-0.2,0.7-0.3,1.2-0.3c0.5,0,0.9,0.1,1.1,0.2c0.2,0.1,0.4,0.3,0.5,0.4c0.1,0.2,0.1,0.5,0.1,1l0,1.3
	c0,0.4,0,0.6,0.1,0.8c0,0.2,0.1,0.4,0.2,0.6h-1.1c0-0.1-0.1-0.2-0.1-0.3c0-0.1,0-0.1,0-0.1c-0.2,0.2-0.4,0.3-0.6,0.4
	c-0.2,0.1-0.4,0.1-0.7,0.1c-0.4,0-0.8-0.1-1-0.4c-0.3-0.2-0.4-0.5-0.4-0.9c0-0.2,0.1-0.4,0.2-0.6c0.1-0.2,0.3-0.3,0.5-0.4
	c0.2-0.1,0.5-0.2,0.9-0.3c0.5-0.1,0.9-0.2,1.1-0.3v-0.1c0-0.2-0.1-0.4-0.2-0.5c-0.1-0.1-0.3-0.1-0.6-0.1c-0.2,0-0.4,0-0.5,0.1
	C68.3,106.4,68.2,106.6,68.1,106.8z M65.4,109.7v-5.8h1.1v5.8H65.4z M63.5,107.7c-0.1,0-0.4,0.1-0.7,0.2c-0.3,0.1-0.5,0.1-0.6,0.2
	c-0.1,0.1-0.2,0.2-0.2,0.4c0,0.2,0.1,0.3,0.2,0.4c0.1,0.1,0.3,0.2,0.4,0.2c0.2,0,0.4-0.1,0.6-0.2c0.1-0.1,0.2-0.2,0.3-0.4
	c0-0.1,0-0.3,0-0.5V107.7z M62,106.8l-1-0.2c0.1-0.4,0.3-0.7,0.6-0.9c0.3-0.2,0.7-0.3,1.2-0.3c0.5,0,0.9,0.1,1.1,0.2
	c0.2,0.1,0.4,0.3,0.5,0.4c0.1,0.2,0.1,0.5,0.1,1l0,1.3c0,0.4,0,0.6,0.1,0.8c0,0.2,0.1,0.4,0.2,0.6h-1.1c0-0.1-0.1-0.2-0.1-0.3
	c0-0.1,0-0.1,0-0.1c-0.2,0.2-0.4,0.3-0.6,0.4c-0.2,0.1-0.4,0.1-0.7,0.1c-0.4,0-0.8-0.1-1-0.4c-0.3-0.2-0.4-0.5-0.4-0.9
	c0-0.2,0.1-0.4,0.2-0.6c0.1-0.2,0.3-0.3,0.5-0.4c0.2-0.1,0.5-0.2,0.9-0.3c0.5-0.1,0.9-0.2,1.1-0.3v-0.1c0-0.2-0.1-0.4-0.2-0.5
	c-0.1-0.1-0.3-0.1-0.6-0.1c-0.2,0-0.4,0-0.5,0.1C62.2,106.4,62.1,106.6,62,106.8z M57.6,107.5c0,0.4,0.1,0.8,0.2,1
	c0.2,0.3,0.4,0.4,0.8,0.4c0.2,0,0.5-0.1,0.6-0.3c0.2-0.2,0.3-0.5,0.3-1c0-0.5-0.1-0.8-0.3-1c-0.2-0.2-0.4-0.3-0.7-0.3
	c-0.3,0-0.5,0.1-0.7,0.3C57.7,106.8,57.6,107.1,57.6,107.5z M56.5,109.7v-5.8h1.1v2.1c0.3-0.4,0.7-0.6,1.2-0.6
	c0.5,0,0.9,0.2,1.3,0.6c0.3,0.4,0.5,0.9,0.5,1.6c0,0.7-0.2,1.3-0.5,1.7c-0.3,0.4-0.8,0.6-1.2,0.6c-0.2,0-0.5-0.1-0.7-0.2
	c-0.2-0.1-0.4-0.3-0.6-0.5v0.6H56.5z M49.6,105.5h1v0.6c0.4-0.4,0.8-0.7,1.3-0.7c0.3,0,0.5,0.1,0.7,0.2c0.2,0.1,0.4,0.3,0.5,0.5
	c0.2-0.2,0.4-0.4,0.6-0.5c0.2-0.1,0.4-0.2,0.7-0.2c0.3,0,0.6,0.1,0.8,0.2c0.2,0.1,0.4,0.3,0.5,0.6c0.1,0.2,0.1,0.5,0.1,0.9v2.7h-1.1
	v-2.4c0-0.4,0-0.7-0.1-0.8c-0.1-0.2-0.3-0.2-0.5-0.2c-0.2,0-0.3,0-0.4,0.1c-0.1,0.1-0.2,0.2-0.3,0.4c-0.1,0.2-0.1,0.5-0.1,0.9v2
	h-1.1v-2.3c0-0.4,0-0.7-0.1-0.8c0-0.1-0.1-0.2-0.2-0.3c-0.1-0.1-0.2-0.1-0.3-0.1c-0.2,0-0.3,0-0.5,0.1c-0.1,0.1-0.2,0.2-0.3,0.4
	c-0.1,0.2-0.1,0.5-0.1,0.9v2h-1.1V105.5z M47.2,107.4l-0.8-2.2l-0.8,2.2H47.2z M49.4,109.7h-1.3l-0.5-1.3h-2.3l-0.5,1.3h-1.2
	l2.3-5.8h1.2L49.4,109.7z"/>
<path class="st8" d="M157.5,105.5h0.6v-0.3c0-0.4,0-0.6,0.1-0.8c0.1-0.2,0.2-0.3,0.4-0.4c0.2-0.1,0.5-0.2,0.8-0.2
	c0.3,0,0.6,0,0.9,0.1l-0.2,0.8c-0.2,0-0.3-0.1-0.5-0.1c-0.2,0-0.3,0-0.3,0.1c-0.1,0.1-0.1,0.2-0.1,0.4v0.3h0.8v0.9h-0.8v3.3h-1.1
	v-3.3h-0.6V105.5z M155.1,105.5h0.6v-0.3c0-0.4,0-0.6,0.1-0.8c0.1-0.2,0.2-0.3,0.4-0.4c0.2-0.1,0.5-0.2,0.8-0.2c0.3,0,0.6,0,0.9,0.1
	l-0.2,0.8c-0.2,0-0.3-0.1-0.5-0.1c-0.2,0-0.3,0-0.3,0.1c-0.1,0.1-0.1,0.2-0.1,0.4v0.3h0.8v0.9h-0.8v3.3h-1.1v-3.3h-0.6V105.5z
	 M153.7,109.7v-0.6c-0.2,0.2-0.4,0.4-0.6,0.5c-0.3,0.1-0.5,0.2-0.8,0.2c-0.3,0-0.5-0.1-0.8-0.2c-0.2-0.1-0.4-0.3-0.5-0.5
	c-0.1-0.2-0.2-0.5-0.2-0.9v-2.7h1.1v1.9c0,0.6,0,1,0.1,1.1c0,0.1,0.1,0.2,0.2,0.3c0.1,0.1,0.2,0.1,0.4,0.1c0.2,0,0.4-0.1,0.5-0.2
	c0.2-0.1,0.3-0.2,0.3-0.4c0.1-0.2,0.1-0.5,0.1-1.1v-1.8h1.1v4.2H153.7z M150.5,105.5v0.9h-0.8v1.7c0,0.3,0,0.5,0,0.6
	c0,0.1,0,0.1,0.1,0.1c0.1,0,0.1,0.1,0.2,0.1c0.1,0,0.3,0,0.4-0.1l0.1,0.9c-0.3,0.1-0.6,0.2-0.9,0.2c-0.2,0-0.4,0-0.5-0.1
	c-0.2-0.1-0.3-0.2-0.4-0.3c-0.1-0.1-0.1-0.3-0.2-0.4c0-0.1,0-0.4,0-0.8v-1.8h-0.5v-0.9h0.5v-0.8l1.1-0.7v1.5H150.5z M143.2,107.8
	l1.1-0.1c0.1,0.4,0.2,0.7,0.4,0.8c0.2,0.2,0.5,0.3,0.9,0.3c0.4,0,0.7-0.1,0.9-0.2c0.2-0.2,0.3-0.3,0.3-0.6c0-0.1,0-0.3-0.1-0.4
	c-0.1-0.1-0.2-0.2-0.4-0.3c-0.1,0-0.5-0.1-0.9-0.3c-0.6-0.2-1.1-0.3-1.3-0.6c-0.4-0.3-0.5-0.7-0.5-1.2c0-0.3,0.1-0.6,0.3-0.8
	c0.2-0.3,0.4-0.5,0.7-0.6c0.3-0.1,0.7-0.2,1.1-0.2c0.7,0,1.3,0.2,1.6,0.5c0.4,0.3,0.6,0.7,0.6,1.3l-1.2,0.1
	c-0.1-0.3-0.2-0.5-0.3-0.6c-0.2-0.1-0.4-0.2-0.7-0.2c-0.3,0-0.6,0.1-0.8,0.2c-0.1,0.1-0.2,0.2-0.2,0.4c0,0.1,0.1,0.3,0.2,0.4
	c0.1,0.1,0.5,0.3,1.1,0.4c0.6,0.1,1,0.3,1.3,0.4c0.3,0.1,0.5,0.3,0.6,0.6c0.2,0.3,0.2,0.6,0.2,0.9c0,0.3-0.1,0.6-0.3,0.9
	c-0.2,0.3-0.4,0.5-0.8,0.6c-0.3,0.1-0.8,0.2-1.3,0.2c-0.7,0-1.3-0.2-1.7-0.5C143.5,108.9,143.3,108.5,143.2,107.8z M137.8,107.5
	c0,0.4,0.1,0.8,0.3,1c0.2,0.2,0.4,0.3,0.6,0.3c0.3,0,0.5-0.1,0.7-0.3c0.2-0.2,0.3-0.5,0.3-0.9c0-0.4-0.1-0.8-0.3-1
	c-0.2-0.2-0.4-0.3-0.7-0.3c-0.3,0-0.5,0.1-0.7,0.3C137.9,106.8,137.8,107.1,137.8,107.5z M136.8,110l1.3,0.2c0,0.1,0.1,0.3,0.1,0.3
	c0.1,0.1,0.3,0.1,0.5,0.1c0.3,0,0.5,0,0.7-0.1c0.1-0.1,0.2-0.2,0.2-0.3c0-0.1,0.1-0.3,0.1-0.5V109c-0.3,0.5-0.8,0.7-1.3,0.7
	c-0.6,0-1-0.2-1.3-0.7c-0.3-0.4-0.4-0.8-0.4-1.4c0-0.7,0.2-1.2,0.5-1.6c0.3-0.4,0.8-0.6,1.3-0.6c0.5,0,1,0.2,1.3,0.7v-0.6h1v3.8
	c0,0.5,0,0.9-0.1,1.1c-0.1,0.2-0.2,0.4-0.3,0.6c-0.1,0.1-0.3,0.2-0.6,0.3c-0.2,0.1-0.6,0.1-0.9,0.1c-0.7,0-1.2-0.1-1.5-0.4
	c-0.3-0.2-0.4-0.6-0.4-0.9C136.8,110.1,136.8,110,136.8,110z M136.1,109.7H135v-2.2c0-0.5,0-0.7-0.1-0.9c0-0.1-0.1-0.2-0.2-0.3
	c-0.1-0.1-0.2-0.1-0.4-0.1c-0.2,0-0.4,0.1-0.5,0.2c-0.2,0.1-0.3,0.2-0.3,0.4c-0.1,0.2-0.1,0.5-0.1,1v1.9h-1.1v-4.2h1v0.6
	c0.4-0.5,0.8-0.7,1.4-0.7c0.2,0,0.5,0,0.7,0.1c0.2,0.1,0.4,0.2,0.5,0.3c0.1,0.1,0.2,0.3,0.2,0.5c0,0.2,0.1,0.4,0.1,0.7V109.7z
	 M130.4,109.7v-4.2h1.1v4.2H130.4z M130.4,104.9v-1h1.1v1H130.4z M126.6,107.5c0,0.4,0.1,0.8,0.3,1c0.2,0.2,0.4,0.3,0.6,0.3
	c0.3,0,0.5-0.1,0.7-0.3c0.2-0.2,0.3-0.5,0.3-0.9c0-0.4-0.1-0.8-0.3-1c-0.2-0.2-0.4-0.3-0.7-0.3c-0.3,0-0.5,0.1-0.7,0.3
	C126.7,106.8,126.6,107.1,126.6,107.5z M125.6,110l1.3,0.2c0,0.1,0.1,0.3,0.1,0.3c0.1,0.1,0.3,0.1,0.5,0.1c0.3,0,0.5,0,0.7-0.1
	c0.1-0.1,0.2-0.2,0.2-0.3c0-0.1,0.1-0.3,0.1-0.5V109c-0.3,0.5-0.8,0.7-1.3,0.7c-0.6,0-1-0.2-1.3-0.7c-0.3-0.4-0.4-0.8-0.4-1.4
	c0-0.7,0.2-1.2,0.5-1.6c0.3-0.4,0.8-0.6,1.3-0.6c0.5,0,1,0.2,1.3,0.7v-0.6h1v3.8c0,0.5,0,0.9-0.1,1.1c-0.1,0.2-0.2,0.4-0.3,0.6
	c-0.1,0.1-0.3,0.2-0.6,0.3c-0.2,0.1-0.6,0.1-0.9,0.1c-0.7,0-1.2-0.1-1.5-0.4c-0.3-0.2-0.4-0.6-0.4-0.9
	C125.6,110.1,125.6,110,125.6,110z M123.9,107.7c-0.1,0-0.4,0.1-0.7,0.2c-0.3,0.1-0.5,0.1-0.6,0.2c-0.1,0.1-0.2,0.2-0.2,0.4
	c0,0.2,0.1,0.3,0.2,0.4c0.1,0.1,0.3,0.2,0.4,0.2c0.2,0,0.4-0.1,0.6-0.2c0.1-0.1,0.2-0.2,0.3-0.4c0-0.1,0-0.3,0-0.5V107.7z
	 M122.4,106.8l-1-0.2c0.1-0.4,0.3-0.7,0.6-0.9c0.3-0.2,0.7-0.3,1.2-0.3c0.5,0,0.9,0.1,1.1,0.2c0.2,0.1,0.4,0.3,0.5,0.4
	c0.1,0.2,0.1,0.5,0.1,1l0,1.3c0,0.4,0,0.6,0.1,0.8c0,0.2,0.1,0.4,0.2,0.6h-1.1c0-0.1-0.1-0.2-0.1-0.3c0-0.1,0-0.1,0-0.1
	c-0.2,0.2-0.4,0.3-0.6,0.4c-0.2,0.1-0.4,0.1-0.7,0.1c-0.4,0-0.8-0.1-1-0.4c-0.3-0.2-0.4-0.5-0.4-0.9c0-0.2,0.1-0.4,0.2-0.6
	c0.1-0.2,0.3-0.3,0.5-0.4c0.2-0.1,0.5-0.2,0.9-0.3c0.5-0.1,0.9-0.2,1.1-0.3v-0.1c0-0.2-0.1-0.4-0.2-0.5c-0.1-0.1-0.3-0.1-0.6-0.1
	c-0.2,0-0.4,0-0.5,0.1C122.5,106.4,122.4,106.6,122.4,106.8z M117.3,109.7v-5.8h1.1v3.1l1.3-1.5h1.4l-1.4,1.5l1.5,2.7H120l-1.1-1.9
	l-0.5,0.5v1.3H117.3z M116.8,106.7l-1.1,0.2c0-0.2-0.1-0.4-0.3-0.5c-0.1-0.1-0.3-0.2-0.5-0.2c-0.3,0-0.5,0.1-0.7,0.3
	c-0.2,0.2-0.2,0.5-0.2,1c0,0.5,0.1,0.9,0.3,1.1c0.2,0.2,0.4,0.3,0.7,0.3c0.2,0,0.4-0.1,0.5-0.2c0.1-0.1,0.2-0.3,0.3-0.6l1.1,0.2
	c-0.1,0.5-0.3,0.9-0.7,1.1c-0.3,0.3-0.8,0.4-1.3,0.4c-0.6,0-1.1-0.2-1.5-0.6c-0.4-0.4-0.5-0.9-0.5-1.6c0-0.7,0.2-1.2,0.6-1.6
	c0.4-0.4,0.9-0.6,1.5-0.6c0.5,0,0.9,0.1,1.2,0.3C116.5,105.9,116.7,106.3,116.8,106.7z M111.3,107.7c-0.1,0-0.4,0.1-0.7,0.2
	c-0.3,0.1-0.5,0.1-0.6,0.2c-0.1,0.1-0.2,0.2-0.2,0.4c0,0.2,0.1,0.3,0.2,0.4c0.1,0.1,0.3,0.2,0.4,0.2c0.2,0,0.4-0.1,0.6-0.2
	c0.1-0.1,0.2-0.2,0.3-0.4c0-0.1,0-0.3,0-0.5V107.7z M109.8,106.8l-1-0.2c0.1-0.4,0.3-0.7,0.6-0.9c0.3-0.2,0.7-0.3,1.2-0.3
	c0.5,0,0.9,0.1,1.1,0.2c0.2,0.1,0.4,0.3,0.5,0.4c0.1,0.2,0.1,0.5,0.1,1l0,1.3c0,0.4,0,0.6,0.1,0.8c0,0.2,0.1,0.4,0.2,0.6h-1.1
	c0-0.1-0.1-0.2-0.1-0.3c0-0.1,0-0.1,0-0.1c-0.2,0.2-0.4,0.3-0.6,0.4c-0.2,0.1-0.4,0.1-0.7,0.1c-0.4,0-0.8-0.1-1-0.4
	c-0.3-0.2-0.4-0.5-0.4-0.9c0-0.2,0.1-0.4,0.2-0.6c0.1-0.2,0.3-0.3,0.5-0.4c0.2-0.1,0.5-0.2,0.9-0.3c0.5-0.1,0.9-0.2,1.1-0.3v-0.1
	c0-0.2-0.1-0.4-0.2-0.5c-0.1-0.1-0.3-0.1-0.6-0.1c-0.2,0-0.4,0-0.5,0.1C110,106.4,109.9,106.6,109.8,106.8z M105.1,104.9v1.6h0.6
	c0.5,0,0.8,0,0.9-0.1c0.2-0.1,0.3-0.2,0.4-0.3c0.1-0.1,0.1-0.3,0.1-0.5c0-0.2-0.1-0.4-0.2-0.5c-0.1-0.1-0.3-0.2-0.5-0.3
	c-0.1,0-0.4,0-0.8,0H105.1z M103.9,109.7v-5.8h1.9c0.7,0,1.2,0,1.4,0.1c0.3,0.1,0.6,0.3,0.8,0.6c0.2,0.3,0.3,0.7,0.3,1.1
	c0,0.4-0.1,0.7-0.2,0.9c-0.1,0.2-0.3,0.4-0.5,0.6c-0.2,0.1-0.4,0.2-0.6,0.3c-0.3,0.1-0.7,0.1-1.2,0.1h-0.8v2.2H103.9z M99.4,108.1
	V107h2.2v1.1H99.4z"/>
<path class="st9" d="M108.9,70h7.9v15.2c0,1.5-0.2,2.9-0.7,4.3c-0.5,1.3-1.2,2.5-2.2,3.5c-1,1-2.1,1.7-3.2,2.1
	c-1.5,0.6-3.4,0.8-5.5,0.8c-1.2,0-2.6-0.1-4.1-0.3c-1.5-0.2-2.7-0.5-3.7-1c-1-0.5-1.9-1.3-2.7-2.2c-0.8-1-1.4-1.9-1.7-2.9
	c-0.5-1.6-0.7-3.1-0.7-4.3V70h7.9v15.6c0,1.4,0.4,2.5,1.2,3.3c0.8,0.8,1.8,1.2,3.2,1.2c1.4,0,2.4-0.4,3.2-1.2
	c0.8-0.8,1.2-1.9,1.2-3.3V70z M69.4,70h7.9v19.2h12.3v6.3H69.4V70z M51.6,80.9h1.9c1.5,0,2.6-0.3,3.2-0.8c0.6-0.5,0.9-1.2,0.9-2
	c0-0.8-0.3-1.5-0.8-2c-0.5-0.6-1.5-0.8-3-0.8h-2.2V80.9z M128.2,84.3L128.2,84.3c-2-0.6-3.4-1.4-4.5-2.3c-1.5-1.3-2.2-2.9-2.2-4.9
	c0-1.3,0.4-2.6,1.1-3.7c0.8-1.2,1.9-2.1,3.4-2.8c1.5-0.7,3.6-1,6.3-1c3.3,0,5.8,0.6,7.5,1.8c1.7,1.2,2.7,3.1,3.1,5.8l-7.4,0.4
	c-0.2-1.1-0.6-2-1.2-2.5c-0.6-0.5-1.5-0.8-2.6-0.8c-0.9,0-1.6,0.2-2.1,0.6c-0.5,0.4-0.7,0.9-0.7,1.4c0,0.4,0.2,0.8,0.6,1.1
	c0.4,0.3,1.3,0.6,2.7,0.9c3.4,0.7,5.9,1.5,7.4,2.3c1.5,0.8,2.6,1.7,3.3,2.8c0.7,1.1,1,2.4,1,3.8c0,1.6-0.5,3.1-1.4,4.5
	c-0.9,1.4-2.2,2.4-3.8,3.1c-1.6,0.7-3.7,1.1-6.1,1.1c-4.3,0-7.3-0.8-9-2.5c-1.7-1.7-2.6-3.8-2.8-6.4l4.9-0.3v0.1v2.4h4.8V94h4v-4.8
	h4.8v-4h-4.8v-4.8h-4v4.8L128.2,84.3z M43.6,70h13.1c2.9,0,5,0.7,6.4,2c1.4,1.4,2.1,3.3,2.1,5.8c0,2.6-0.8,4.6-2.3,6
	c-1.6,1.4-3.9,2.2-7.1,2.2h-4.3v9.5h-7.9V70z"/>
<path class="st9" d="M159.5,71.3h-5.1c-0.7,1.4-1.6,2.6-2.7,3.5c-1.2,1-2.8,1.8-4.9,2.5v5.1c1.4-0.4,2.6-0.9,3.6-1.4
	c0.9-0.5,1.9-1.1,3-1.9V94h6.3V71.3z M160.3,71.3V94c0,0.5-0.4,0.8-0.8,0.8h-6.3c-0.5,0-0.8-0.4-0.8-0.8V80.7
	c-0.1,0.1-0.2,0.1-0.2,0.2c-0.5,0.3-1,0.6-1.5,0.9c-0.5,0.2-1.1,0.5-1.7,0.7c-0.6,0.2-1.3,0.5-2,0.7c-0.4,0.1-0.9-0.1-1-0.5
	c0-0.1,0-0.2,0-0.2h0v-5.1c0-0.4,0.3-0.7,0.6-0.8c1-0.3,1.9-0.7,2.6-1.1l0,0c0.8-0.4,1.4-0.8,2-1.2c0.5-0.4,1-0.9,1.4-1.5
	c0.4-0.5,0.8-1.1,1.1-1.8c0.1-0.3,0.4-0.5,0.7-0.5v0h5.1C160,70.5,160.3,70.9,160.3,71.3z"/>
<path class="st10" d="M146.8,41.1c-0.3-3.1-1.2-5.4-2.5-6.7c-1.4-1.4-3.2-2-5.4-2c-2.6,0-4.6,1-6.2,3.1c-1,1.3-1.6,3.2-1.9,5.7
	H146.8z M163.2,48.9h-32.4c0.3,2.6,1,4.5,2.1,5.8c1.6,1.8,3.6,2.7,6.1,2.7c1.6,0,3.1-0.4,4.5-1.2c0.9-0.5,1.8-1.4,2.8-2.7l15.9,1.5
	c-2.4,4.2-5.4,7.3-8.8,9.1c-6.7,3.6-21.2,3.7-28,0.4c-0.7-0.4-1.4-0.7-2.1-1.2V39.1c0-2.9-0.3-5.4-1-7.5c-0.3-1.1-0.8-2.2-1.3-3.1
	c4.2-3.8,9.9-5.7,17.1-5.7c6,0,10.8,0.9,14.3,2.8c3.5,1.8,6.2,4.5,8,7.9c1.8,3.5,2.7,8,2.7,13.5V48.9z"/>
<path class="st10" d="M92.3,24.6H78.8v1c1.8,1.1,3.4,2.4,4.8,4c1.8,2.1,3.2,4.3,4.1,6.9c0.9,2.5,1.3,5.3,1.3,8.3
	c0,3.3-0.6,6.4-1.7,9.1c-1.1,2.8-2.8,5.2-5,7.4c-1.1,1-2.3,1.9-3.5,2.7v1.1h14.5V45.7c0-2,0.2-3.7,0.5-5.1c0.3-1.4,0.8-2.6,1.5-3.4
	l0,0c0.7-0.8,1.5-1.5,2.4-1.9c0.9-0.4,1.9-0.6,3-0.6c1,0,1.9,0.2,2.7,0.5c0.8,0.3,1.5,0.8,2.1,1.5c0.6,0.6,1,1.5,1.3,2.6
	c0.3,1,0.4,2.2,0.4,3.6v22.4h14.6v-26c0-2.7-0.3-5-0.9-7c-0.6-1.9-1.5-3.5-2.6-4.7c-1.2-1.2-2.6-2.2-4.2-2.8
	c-1.7-0.6-3.5-0.9-5.7-0.9c-1.6,0-3,0.1-4.4,0.4c0,0,0,0,0,0c-1.3,0.3-2.5,0.7-3.6,1.3c-1.1,0.6-2.2,1.3-3.3,2.3
	c-1.1,1-2.2,2.1-3.3,3.5c-0.1,0.2-0.4,0.4-0.7,0.4c-0.5,0-0.8-0.4-0.8-0.8V24.6z"/>
<path class="st10" d="M55.8,50.1c-0.4-1.5-0.6-3.2-0.6-5.1c0-1.9,0.2-3.6,0.6-5.1c0.4-1.5,1-2.7,1.9-3.7c0.8-1,1.8-1.7,2.9-2.2
	c1.1-0.5,2.3-0.8,3.6-0.8c1.2,0,2.4,0.3,3.4,0.7c1,0.5,2,1.2,2.8,2.2l0,0l0,0c0.8,1,1.5,2.2,1.9,3.7c0.4,1.4,0.6,3.1,0.6,5
	c0,2-0.2,3.8-0.6,5.3c-0.4,1.5-1,2.8-1.8,3.8l0,0c-0.8,1-1.8,1.7-2.8,2.2c-1.1,0.5-2.2,0.7-3.5,0.7c-1.3,0-2.4-0.3-3.5-0.8
	c-1-0.5-2-1.2-2.8-2.2c0,0,0,0,0,0C56.8,52.8,56.2,51.6,55.8,50.1 M42.2,36.5c-1,2.5-1.6,5.4-1.6,8.5c0,3.3,0.6,6.4,1.8,9
	c1.2,2.7,3.1,5,5.6,7.1l0,0c2,1.7,4.3,2.9,7,3.7c2.7,0.8,5.6,1.3,8.9,1.3c3.7,0,7-0.5,9.9-1.5c2.9-1,5.3-2.5,7.4-4.5
	c2.1-2,3.6-4.3,4.6-6.8c1-2.6,1.6-5.4,1.6-8.5c0-2.8-0.4-5.4-1.3-7.7c-0.8-2.3-2.1-4.4-3.7-6.3c-2.1-2.3-4.6-4.1-7.7-5.3
	c-3.1-1.2-6.7-1.8-10.8-1.8c-3.6,0-6.8,0.5-9.7,1.5c-2.8,1-5.3,2.5-7.4,4.5C44.8,31.7,43.3,33.9,42.2,36.5z"/>
</svg>
