<?xml version="1.0" encoding="utf-8"?>
<!-- Generator: Adobe Illustrator 24.0.2, SVG Export Plug-In . SVG Version: 6.00 Build 0)  -->
<svg version="1.1" id="Layer_1" xmlns="http://www.w3.org/2000/svg" xmlns:xlink="http://www.w3.org/1999/xlink" x="0px" y="0px"
	 viewBox="0 0 211 133" style="enable-background:new 0 0 211 133;" xml:space="preserve">
<style type="text/css">
	.st0{fill-rule:evenodd;clip-rule:evenodd;}
	.st1{fill-rule:evenodd;clip-rule:evenodd;fill:#FFCA00;}
	.st2{fill-rule:evenodd;clip-rule:evenodd;fill:#FFFFFF;}
	.st3{fill-rule:evenodd;clip-rule:evenodd;fill:url(#SVGID_1_);}
</style>
<g>
	<path class="st0" d="M66.7,39.6c0-3.4,1.4-6.4,3.6-8.6l0,0l0,0c2.2-2.2,5.3-3.6,8.6-3.6h53.7c3.4,0,6.4,1.4,8.6,3.6l0,0l0,0
		c2.2,2.2,3.6,5.3,3.6,8.6v53.7c0,3.4-1.4,6.4-3.6,8.7c-2.2,2.2-5.3,3.6-8.7,3.6H79c-3.4,0-6.4-1.4-8.7-3.6
		c-2.2-2.2-3.6-5.3-3.6-8.7V39.6L66.7,39.6z M72.2,32.7c-1.8,1.8-2.8,4.2-2.8,6.8v53.7c0,2.7,1.1,5.1,2.8,6.8
		c1.8,1.8,4.2,2.8,6.8,2.8h53.7c2.7,0,5.1-1.1,6.8-2.8c1.8-1.8,2.8-4.2,2.8-6.8V39.6c0-2.7-1.1-5.1-2.8-6.8
		c-1.8-1.8-4.2-2.8-6.8-2.8H79C76.3,29.9,73.9,31,72.2,32.7z"/>
	<path class="st1" d="M79,29.9h53.7c5.3,0,9.7,4.4,9.7,9.7v53.7c0,5.3-4.4,9.7-9.7,9.7H79c-5.3,0-9.7-4.4-9.7-9.7V39.6
		C69.3,34.2,73.7,29.9,79,29.9z"/>
	<path class="st2" d="M79,28.6h53.7c3,0,5.8,1.2,7.8,3.2s3.2,4.7,3.2,7.8v53.7c0,3-1.2,5.8-3.2,7.8c-2,2-4.7,3.2-7.8,3.2H79
		c-3,0-5.8-1.2-7.8-3.2c-2-2-3.2-4.7-3.2-7.8V39.6c0-3,1.2-5.8,3.2-7.8C73.2,29.8,76,28.6,79,28.6L79,28.6z M79,29.9
		c-5.3,0-9.7,4.4-9.7,9.7v53.7c0,5.3,4.4,9.7,9.7,9.7h53.7c5.3,0,9.7-4.4,9.7-9.7V39.6c0-5.3-4.4-9.7-9.7-9.7H79z"/>
	<g>
		<path class="st0" d="M117.9,87.5V71.6h5.1v0h2.8c0.2,0,0.3,0,0.5,0h0c1.7,0,2.9-0.2,3.5-0.4c0.7-0.3,1.2-0.7,1.6-1.2
			c0.4-0.6,0.6-1.2,0.6-2c0-0.9-0.3-1.7-0.8-2.3c-0.5-0.6-1.2-1-2-1.1c-0.5-0.1-1.4-0.1-2.8-0.2v0h-0.7h-0.1h-2.4h-5.1v-4.2h8.1
			c3.1,0,5.1,0.1,6,0.4c1.4,0.4,2.6,1.2,3.6,2.5c1,1.3,1.5,2.9,1.5,4.9c0,1.5-0.3,2.8-0.8,3.9c-0.6,1.1-1.3,1.9-2.1,2.5
			c-0.9,0.6-1.7,1-2.6,1.2c-1.2,0.2-3,0.4-5.2,0.4h-3.3v11.6H117.9z"/>
		<path class="st0" d="M108.7,63.2c-0.8-0.6-1.8-0.9-2.7-0.9H78.6c-1,0-1.9,0.2-2.8,0.9c-0.4,0.3-0.8,0.8-0.9,1.3
			c-0.2,0.5-0.2,0.9-0.2,1.3c0,0.8,0.2,1.5,0.4,2.1h0c0.3,0.8,0.8,1.6,1.2,2.3c0.4,0.6,0.8,1.2,0.9,1.4c1,1.7,1.9,3.5,2.9,5.2
			c0.7,1.2,1.6,2,2.7,2.7c1.1,0.6,2.3,1.1,3.7,1.1h11.4c1.3,0,2.6-0.4,3.7-1.1c1.1-0.6,2.1-1.5,2.8-2.6l5.1-8.8
			c0.4-0.7,0.7-1.4,0.7-2.3C110,65,109.5,63.9,108.7,63.2L108.7,63.2z M100.5,74.8L100.5,74.8c-0.2,0.3-0.6,0.8-1.2,1.1
			c-0.6,0.3-1.2,0.5-1.5,0.5H86.4c-0.3,0-1-0.2-1.5-0.5c-0.6-0.3-1-0.8-1.2-1.1c-1-1.7-1.9-3.5-2.9-5.3c-0.3-0.5-0.6-1-0.9-1.5
			c-0.3-0.5-0.6-1-0.7-1.4h26.2L100.5,74.8L100.5,74.8z M82.7,87.5L82.7,87.5c-1.2,0-2.1-1-2.1-2.1c0-1.2,1-2.1,2.1-2.1h21l14-23
			h5.8c1.2,0,2.1,1,2.1,2.1c0,1.2-1,2.1-2.1,2.1h-3.4l-14,23H82.7L82.7,87.5z M90,93.3L90,93.3c0,2.2-1.8,3.9-3.9,3.9
			c-2.2,0-3.9-1.8-3.9-3.9c0-2.2,1.8-3.9,3.9-3.9C88.2,89.3,90,91.1,90,93.3L90,93.3z M105.4,93.3L105.4,93.3c0,2.2-1.8,3.9-3.9,3.9
			c-2.2,0-3.9-1.8-3.9-3.9c0-2.2,1.8-3.9,3.9-3.9C103.6,89.3,105.4,91.1,105.4,93.3z"/>
	</g>
	<radialGradient id="SVGID_1_" cx="121.9232" cy="90.0391" r="6.8109" gradientUnits="userSpaceOnUse">
		<stop  offset="0" style="stop-color:#EB3225"/>
		<stop  offset="1" style="stop-color:#CA2026"/>
	</radialGradient>
	<path class="st3" d="M116.6,91.6c0.1-0.3,0.2-0.5,0.5-0.7c0,0,0.2-0.2,0.4-0.4c0.3-0.2,0.8-0.3,1.2-0.3h0c0.7,0,1.3,0.3,1.6,0.6
		c0.1-0.1,0.6-0.6,1.2-0.8c0.2-0.1,0.5-0.1,0.8-0.1c0.3,0,0.5,0.1,0.8,0.2c0.4,0.2,0.8,0.4,1,0.6c0.2,0.3,0.3,0.5,0.4,0.8
		c0.2,0.6,0.2,1.2-0.1,1.8c-0.1,0.2-0.1,0.3-0.3,0.5l0,0l0,0c0,0,0,0,0,0h0l-0.1,0.2h0c0,0,0,0,0,0l0,0l0,0
		c-0.1,0.1-0.2,0.3-0.3,0.4c-0.2,0.2-0.4,0.4-0.6,0.6c-0.1,0.1-0.2,0.2-0.2,0.2c-0.5,0.5-1,1-1.5,1.4c-0.2,0.2-0.6,0.4-0.8,0.5l0,0
		l0,0c0,0-0.1,0-0.1-0.1c-0.3-0.1-0.7-0.4-1.1-0.8c-0.3-0.3-0.7-0.6-1-0.9c-0.1-0.1-0.2-0.2-0.2-0.2c-0.2-0.2-0.4-0.4-0.6-0.6
		c-0.1-0.2-0.2-0.3-0.3-0.5l0,0l-0.2-0.3l0,0c-0.1-0.2-0.2-0.4-0.3-0.5C116.5,92.6,116.5,92.1,116.6,91.6z"/>
	<path class="st0" d="M74.6,38h1.9v1.1c0.2-0.4,0.6-0.7,1-0.9c0.4-0.2,0.9-0.3,1.4-0.3c0.9,0,1.6,0.3,2.2,1c0.6,0.7,0.9,1.6,0.9,2.9
		c0,1.3-0.3,2.2-0.9,2.9c-0.6,0.7-1.4,1.1-2.2,1.1c-0.4,0-0.8-0.1-1.1-0.3c-0.3-0.2-0.7-0.4-1.1-0.9v3.8h-2V38L74.6,38z M76.6,41.6
		L76.6,41.6c0,0.9,0.2,1.5,0.5,1.9c0.3,0.4,0.7,0.6,1.2,0.6c0.5,0,0.8-0.2,1.2-0.6c0.3-0.4,0.5-1,0.5-1.8c0-0.8-0.2-1.4-0.5-1.8
		c-0.3-0.4-0.7-0.6-1.2-0.6c-0.5,0-0.9,0.2-1.2,0.6C76.7,40.3,76.6,40.9,76.6,41.6z"/>
	<path class="st0" d="M85.1,40.3L83.2,40c0.2-0.7,0.6-1.3,1.1-1.6c0.5-0.4,1.2-0.5,2.2-0.5c0.9,0,1.6,0.1,2,0.3
		c0.4,0.2,0.7,0.5,0.9,0.8c0.2,0.3,0.3,0.9,0.3,1.8l0,2.3c0,0.7,0,1.2,0.1,1.5c0.1,0.3,0.2,0.7,0.4,1h-2C88.1,45.4,88,45.2,88,45
		c0-0.1-0.1-0.2-0.1-0.2c-0.3,0.3-0.7,0.6-1.1,0.8c-0.4,0.2-0.8,0.3-1.2,0.3c-0.8,0-1.4-0.2-1.8-0.6c-0.4-0.4-0.7-1-0.7-1.6
		c0-0.4,0.1-0.8,0.3-1.1c0.2-0.3,0.5-0.6,0.9-0.8c0.4-0.2,0.9-0.3,1.6-0.5c0.9-0.2,1.6-0.3,1.9-0.5v-0.2c0-0.4-0.1-0.7-0.3-0.8
		c-0.2-0.2-0.6-0.2-1.1-0.2c-0.4,0-0.6,0.1-0.8,0.2C85.3,39.7,85.2,39.9,85.1,40.3L85.1,40.3z M87.7,41.9L87.7,41.9
		c-0.3,0.1-0.7,0.2-1.2,0.3c-0.6,0.1-0.9,0.2-1.1,0.3C85.2,42.8,85,43,85,43.3c0,0.3,0.1,0.5,0.3,0.7c0.2,0.2,0.5,0.3,0.8,0.3
		c0.4,0,0.7-0.1,1-0.4c0.2-0.2,0.4-0.4,0.5-0.7c0.1-0.2,0.1-0.5,0.1-1V41.9z"/>
	<path class="st0" d="M90.9,45.5V44l2.8-3.2c0.5-0.5,0.8-0.9,1-1.1c-0.2,0-0.5,0-0.9,0l-2.7,0V38h6.2v1.4l-2.9,3.3l-1,1.1
		c0.6,0,0.9,0,1,0h3.1v1.8H90.9z"/>
	<path class="st0" d="M100.4,40.3L98.6,40c0.2-0.7,0.6-1.3,1.1-1.6c0.5-0.4,1.2-0.5,2.2-0.5c0.9,0,1.6,0.1,2,0.3
		c0.4,0.2,0.7,0.5,0.9,0.8c0.2,0.3,0.3,0.9,0.3,1.8l0,2.3c0,0.7,0,1.2,0.1,1.5c0.1,0.3,0.2,0.7,0.4,1h-2c-0.1-0.1-0.1-0.3-0.2-0.6
		c0-0.1-0.1-0.2-0.1-0.2c-0.3,0.3-0.7,0.6-1.1,0.8c-0.4,0.2-0.8,0.3-1.2,0.3c-0.8,0-1.4-0.2-1.8-0.6c-0.4-0.4-0.7-1-0.7-1.6
		c0-0.4,0.1-0.8,0.3-1.1c0.2-0.3,0.5-0.6,0.9-0.8c0.4-0.2,0.9-0.3,1.6-0.5c0.9-0.2,1.6-0.3,1.9-0.5v-0.2c0-0.4-0.1-0.7-0.3-0.8
		c-0.2-0.2-0.6-0.2-1.1-0.2c-0.4,0-0.6,0.1-0.8,0.2C100.7,39.7,100.6,39.9,100.4,40.3L100.4,40.3z M103.1,41.9L103.1,41.9
		c-0.3,0.1-0.7,0.2-1.2,0.3c-0.6,0.1-0.9,0.2-1.1,0.3c-0.3,0.2-0.4,0.4-0.4,0.7c0,0.3,0.1,0.5,0.3,0.7c0.2,0.2,0.5,0.3,0.8,0.3
		c0.4,0,0.7-0.1,1-0.4c0.2-0.2,0.4-0.4,0.5-0.7c0.1-0.2,0.1-0.5,0.1-1V41.9z"/>
	<path class="st0" d="M109,45.5h-2V38h1.9V39c0.3-0.5,0.6-0.8,0.9-1c0.3-0.2,0.5-0.2,0.9-0.2c0.5,0,0.9,0.1,1.3,0.4l-0.6,1.7
		c-0.3-0.2-0.7-0.3-0.9-0.3c-0.3,0-0.5,0.1-0.7,0.2c-0.2,0.2-0.3,0.4-0.5,0.8c-0.1,0.4-0.2,1.2-0.2,2.5V45.5z"/>
	<path class="st0" d="M114.2,40.3l-1.8-0.3c0.2-0.7,0.6-1.3,1.1-1.6c0.5-0.4,1.2-0.5,2.2-0.5c0.9,0,1.6,0.1,2,0.3
		c0.4,0.2,0.7,0.5,0.9,0.8c0.2,0.3,0.3,0.9,0.3,1.8l0,2.3c0,0.7,0,1.2,0.1,1.5c0.1,0.3,0.2,0.7,0.4,1h-2c-0.1-0.1-0.1-0.3-0.2-0.6
		c0-0.1-0.1-0.2-0.1-0.2c-0.3,0.3-0.7,0.6-1.1,0.8c-0.4,0.2-0.8,0.3-1.2,0.3c-0.8,0-1.4-0.2-1.8-0.6c-0.4-0.4-0.7-1-0.7-1.6
		c0-0.4,0.1-0.8,0.3-1.1c0.2-0.3,0.5-0.6,0.9-0.8c0.4-0.2,0.9-0.3,1.6-0.5c0.9-0.2,1.6-0.3,1.9-0.5v-0.2c0-0.4-0.1-0.7-0.3-0.8
		c-0.2-0.2-0.6-0.2-1.1-0.2c-0.4,0-0.6,0.1-0.8,0.2C114.5,39.7,114.3,39.9,114.2,40.3L114.2,40.3z M116.9,41.9L116.9,41.9
		c-0.3,0.1-0.7,0.2-1.2,0.3c-0.6,0.1-0.9,0.2-1.1,0.3c-0.3,0.2-0.4,0.4-0.4,0.7c0,0.3,0.1,0.5,0.3,0.7c0.2,0.2,0.5,0.3,0.8,0.3
		c0.4,0,0.7-0.1,1-0.4c0.2-0.2,0.4-0.4,0.5-0.7c0.1-0.2,0.1-0.5,0.1-1V41.9z"/>
	<path class="st0" d="M120.8,38h1.9v1.1c0.2-0.4,0.6-0.7,1-0.9c0.4-0.2,0.9-0.3,1.4-0.3c0.9,0,1.6,0.3,2.2,1
		c0.6,0.7,0.9,1.6,0.9,2.9c0,1.3-0.3,2.2-0.9,2.9c-0.6,0.7-1.4,1.1-2.2,1.1c-0.4,0-0.8-0.1-1.1-0.3c-0.3-0.2-0.7-0.4-1.1-0.9v3.8h-2
		V38L120.8,38z M122.7,41.6L122.7,41.6c0,0.9,0.2,1.5,0.5,1.9c0.3,0.4,0.7,0.6,1.2,0.6c0.5,0,0.8-0.2,1.2-0.6c0.3-0.4,0.5-1,0.5-1.8
		c0-0.8-0.2-1.4-0.5-1.8c-0.3-0.4-0.7-0.6-1.2-0.6c-0.5,0-0.9,0.2-1.2,0.6C122.9,40.3,122.7,40.9,122.7,41.6z"/>
	<path class="st0" d="M129.7,38h1.9v1.1c0.2-0.4,0.6-0.7,1-0.9c0.4-0.2,0.9-0.3,1.4-0.3c0.9,0,1.6,0.3,2.2,1
		c0.6,0.7,0.9,1.6,0.9,2.9c0,1.3-0.3,2.2-0.9,2.9c-0.6,0.7-1.4,1.1-2.2,1.1c-0.4,0-0.8-0.1-1.1-0.3c-0.3-0.2-0.7-0.4-1.1-0.9v3.8h-2
		V38L129.7,38z M131.6,41.6L131.6,41.6c0,0.9,0.2,1.5,0.5,1.9c0.3,0.4,0.7,0.6,1.2,0.6c0.5,0,0.8-0.2,1.2-0.6c0.3-0.4,0.5-1,0.5-1.8
		c0-0.8-0.2-1.4-0.5-1.8c-0.3-0.4-0.7-0.6-1.2-0.6c-0.5,0-0.9,0.2-1.2,0.6C131.8,40.3,131.6,40.9,131.6,41.6z"/>
	<path class="st0" d="M133.3,51.3c0.5,0,1.1,0.1,1.6,0.4c0.5,0.3,0.9,0.7,1.2,1.2c0.3,0.5,0.4,1.1,0.4,1.6c0,0.6-0.1,1.1-0.4,1.6
		c-0.3,0.5-0.7,0.9-1.2,1.2c-0.5,0.3-1,0.4-1.6,0.4c-0.6,0-1.1-0.1-1.6-0.4c-0.5-0.3-0.9-0.7-1.2-1.2c-0.3-0.5-0.4-1-0.4-1.6
		c0-0.6,0.1-1.1,0.4-1.6c0.3-0.5,0.7-0.9,1.2-1.2C132.2,51.5,132.8,51.3,133.3,51.3L133.3,51.3z M133.3,51.8L133.3,51.8
		c-0.5,0-0.9,0.1-1.3,0.3c-0.4,0.2-0.8,0.6-1,1c-0.2,0.4-0.4,0.9-0.4,1.3c0,0.5,0.1,0.9,0.4,1.3c0.2,0.4,0.6,0.8,1,1
		c0.4,0.2,0.9,0.4,1.3,0.4c0.5,0,0.9-0.1,1.3-0.4c0.4-0.2,0.8-0.6,1-1c0.2-0.4,0.4-0.9,0.4-1.3c0-0.5-0.1-0.9-0.4-1.3
		c-0.2-0.4-0.6-0.8-1-1C134.2,52,133.7,51.8,133.3,51.8L133.3,51.8z M131.9,56.3L131.9,56.3h0.6v-1.5h0.3c0.2,0,0.3,0,0.4,0.1
		c0.1,0.1,0.3,0.4,0.6,0.8l0.3,0.5h0.7l-0.4-0.7c-0.2-0.3-0.4-0.6-0.5-0.7c-0.1-0.1-0.2-0.1-0.3-0.2c0.3,0,0.5-0.1,0.7-0.3
		c0.2-0.2,0.3-0.4,0.3-0.7c0-0.2-0.1-0.3-0.2-0.5c-0.1-0.2-0.3-0.3-0.4-0.3c-0.2-0.1-0.5-0.1-0.9-0.1h-1.2V56.3L131.9,56.3z
		 M132.4,54.4L132.4,54.4h0.7c0.3,0,0.5,0,0.7-0.1c0.1-0.1,0.2-0.2,0.2-0.4c0-0.1,0-0.2-0.1-0.3c-0.1-0.1-0.1-0.1-0.2-0.2
		c-0.1,0-0.3-0.1-0.6-0.1h-0.6V54.4z"/>
</g>
</svg>
