<?xml version="1.0" encoding="utf-8"?>
<!-- Generator: Adobe Illustrator 24.0.2, SVG Export Plug-In . SVG Version: 6.00 Build 0)  -->
<svg version="1.1" id="Layer_1" xmlns="http://www.w3.org/2000/svg" xmlns:xlink="http://www.w3.org/1999/xlink" x="0px" y="0px"
	 viewBox="0 0 211 133" style="enable-background:new 0 0 211 133;" xml:space="preserve">
<style type="text/css">
	.st0{fill-rule:evenodd;clip-rule:evenodd;fill:url(#SVGID_1_);}
	.st1{fill-rule:evenodd;clip-rule:evenodd;fill:#373435;}
	.st2{fill-rule:evenodd;clip-rule:evenodd;fill:#FDFDFD;}
	.st3{fill-rule:evenodd;clip-rule:evenodd;fill:url(#SVGID_2_);}
	.st4{fill-rule:evenodd;clip-rule:evenodd;fill:url(#SVGID_3_);}
	.st5{fill-rule:evenodd;clip-rule:evenodd;fill:url(#SVGID_4_);}
	.st6{fill-rule:evenodd;clip-rule:evenodd;fill:url(#SVGID_5_);}
	.st7{fill-rule:evenodd;clip-rule:evenodd;fill:url(#SVGID_6_);}
</style>
<g>
	<linearGradient id="SVGID_1_" gradientUnits="userSpaceOnUse" x1="46.0298" y1="73.246" x2="46.0298" y2="91.9866">
		<stop  offset="0" style="stop-color:#ED1C24"/>
		<stop  offset="1" style="stop-color:#BA131A"/>
	</linearGradient>
	<path class="st0" d="M67.9,94.3v-8c0-1.9-0.1-3.4-0.4-4.3c-0.2-0.9-0.7-1.8-1.4-2.5c-0.7-0.7-1.6-1.3-2.7-1.6
		c-1.1-0.3-2.6-0.5-4.4-0.5c-1.9,0-3.5,0.2-4.5,0.7c-1.1,0.5-1.9,1.2-2.4,2.2h-0.3v-9.5H24.1v23.4h27.6v-7c0-1.3,0.1-2.2,0.2-2.8
		c0.1-0.6,0.4-1,0.7-1.4c0.7-0.7,2.1-1.1,4.3-1.1c2.1,0,3.5,0.3,4.1,1c0.3,0.3,0.5,0.7,0.6,1.1c0.1,0.5,0.1,1.2,0.1,2.1v8H67.9z"/>
	<path class="st1" d="M25.1,82.9h8.8c1.6,0,2.6,0,2.9-0.1c0.4,0,0.7-0.1,1-0.3c0.4-0.2,0.6-0.5,0.7-0.9c0.1-0.4,0.2-1,0.2-1.9
		c0-0.8-0.1-1.5-0.3-1.8c-0.2-0.4-0.5-0.7-0.9-0.8c-0.3-0.1-1.6-0.2-3.7-0.2h-8.8V82.9L25.1,82.9z M22,94.5V71h11.9
		c3.1,0,5.2,0.1,6.1,0.2c2.3,0.3,3.9,1.1,4.7,2.2c0.8,1.2,1.2,3.3,1.2,6.4c0,2.9-0.3,4.9-1,6.1c-0.5,0.8-1.1,1.4-1.9,1.8
		c-0.8,0.4-1.9,0.7-3.3,0.9c-1,0.1-2.9,0.2-5.6,0.2h-8.9v5.8H22z"/>
	<path class="st2" d="M30.3,82.9h4.9c1.6,0,2.6,0,2.9-0.1c0.4,0,0.7-0.1,1-0.3c0.4-0.2,0.6-0.5,0.7-0.9c0.1-0.4,0.2-1,0.2-1.9
		c0-0.8-0.1-1.5-0.3-1.9c-0.2-0.4-0.5-0.7-0.9-0.8c-0.3-0.1-1.6-0.2-3.7-0.2h-4.9V82.9L30.3,82.9z M23.2,94.6V70.9h11.9
		c3.1,0,5.2,0.1,6.1,0.2c2.3,0.3,3.9,1.1,4.7,2.3c0.8,1.2,1.2,3.3,1.2,6.4c0,2.9-0.3,5-1,6.2c-0.5,0.8-1.1,1.4-1.9,1.8
		c-0.8,0.4-1.9,0.7-3.3,0.9c-1,0.1-2.9,0.2-5.6,0.2h-4.9v5.8H23.2z"/>
	<linearGradient id="SVGID_2_" gradientUnits="userSpaceOnUse" x1="85.5003" y1="81.5516" x2="85.5003" y2="90.6767">
		<stop  offset="0" style="stop-color:#ED1C24"/>
		<stop  offset="1" style="stop-color:#BA131A"/>
	</linearGradient>
	<path class="st3" d="M86.2,84.1c0-0.6-0.1-1.1-0.1-1.3c-0.1-0.2-0.2-0.5-0.4-0.7c-0.5-0.5-2-0.8-4.3-0.8c-2.1,0-3.4,0.2-4.1,0.5
		c-0.7,0.4-1,1.1-1.1,2.3H86.2L86.2,84.1z M81.5,77.5c2.7,0,4.6,0.1,5.7,0.3c2,0.3,3.4,1.1,4.1,2.2c0.7,1.1,1.1,3.1,1.1,5.8
		c0,0.3,0,0.8,0,1.7H76.3c0,0.8,0.1,1.4,0.2,1.8c0.5,1.7,3.5,1.5,4.8,1.4h19.6l0,4.1H80.7c-2.4,0-4.2-0.1-5.5-0.3
		c-1.3-0.2-2.3-0.6-3-1.2c-0.8-0.6-1.3-1.4-1.6-2.4c-0.3-1-0.4-2.5-0.4-4.6v-0.1c0-1.5,0.1-2.7,0.2-3.4c0.1-0.8,0.3-1.5,0.6-2.1
		c0.7-1.3,1.8-2.2,3.6-2.6c1.5-0.3,3.8-0.5,6.9-0.5H81.5z"/>
	<linearGradient id="SVGID_3_" gradientUnits="userSpaceOnUse" x1="105.8542" y1="55.3068" x2="105.8542" y2="116.5027">
		<stop  offset="0" style="stop-color:#ED1C24"/>
		<stop  offset="1" style="stop-color:#BA131A"/>
	</linearGradient>
	<path class="st4" d="M94.7,94.3h6.1v-6.6c0-1.5,0.1-2.5,0.2-3.1c0.1-0.6,0.4-1.1,0.7-1.5c0.7-0.7,2.1-1.1,4.2-1.1
		c2.1,0,3.5,0.3,4.1,0.9c0.3,0.3,0.5,0.7,0.6,1.2c0.1,0.5,0.1,1.4,0.1,2.7v7.5h6.1v-7.5c0-2.3-0.1-3.9-0.3-4.8
		c-0.2-0.9-0.7-1.8-1.5-2.5c-0.7-0.8-1.7-1.3-2.8-1.6c-1.1-0.3-2.7-0.5-4.6-0.5c-2,0-3.5,0.2-4.6,0.7c-1.1,0.4-1.9,1.2-2.4,2.3h-0.3
		v-2.5h-5.8V94.3z"/>
	<rect x="119" y="70.4" class="st1" width="6.1" height="4.6"/>
	<rect x="119.7" y="71.2" class="st2" width="6.1" height="4.6"/>
	<linearGradient id="SVGID_4_" gradientUnits="userSpaceOnUse" x1="139.1083" y1="65.975" x2="139.1083" y2="106.6643">
		<stop  offset="0" style="stop-color:#ED1C24"/>
		<stop  offset="1" style="stop-color:#BA131A"/>
	</linearGradient>
	<polygon class="st5" points="150.3,77.9 142.4,77.9 139.1,82.4 138.8,82.4 135.7,77.9 127.4,77.9 134.3,86 127.2,94.7 134.8,94.7 
		138.9,89 139.2,89 143.1,94.7 151,94.7 143.7,85.7 	"/>
	<linearGradient id="SVGID_5_" gradientUnits="userSpaceOnUse" x1="122.8528" y1="78.237" x2="122.8528" y2="94.377">
		<stop  offset="0" style="stop-color:#ED1C24"/>
		<stop  offset="1" style="stop-color:#BA131A"/>
	</linearGradient>
	<polygon class="st6" points="110.9,94.7 134.8,94.7 134.8,90.6 125.8,90.6 125.8,77.9 119.7,77.9 119.7,90.6 110.9,90.6 	"/>
	<linearGradient id="SVGID_6_" gradientUnits="userSpaceOnUse" x1="141.1459" y1="-315.9374" x2="141.1459" y2="442.6266">
		<stop  offset="0" style="stop-color:#ED1C24"/>
		<stop  offset="1" style="stop-color:#BA131A"/>
	</linearGradient>
	<path class="st7" d="M126.9,68.9c3.1-1.8,6.1-3.7,9.1-5.5c2.1-0.2,4.3-0.3,4-1.9c0.4-0.4,1.3-0.7,2-0.9c0.6,0.3,1,0.8,1.3,1.3
		c0.8,1.2,0.5,2.4-0.4,3.6c-0.7,1-1.7,1.9-0.7,3.5c0.7,1.2,1.8,2.2,3.1,3c2.8,1.7,5.2,2.3,7.3,2.1c2-0.2,3.8,0.3,5,1.5
		c-0.6,0.3-1.3,0.1-1.9-0.1c-1-0.3-1.7,0-1.5,1.3c0.2-0.3,0.2-0.6,0.5-0.8c0.4-0.3,0.8-0.2,1.1,0.3c0.3,0.5,0,0.8-0.3,0.9
		c-0.8,0.3-0.9,0.7-0.9,1.2c0,0.7,0,0.8,0.4,1.2c0-0.3,0-0.5,0.1-0.8c0.1-0.4,0.2-0.7,0.6-0.9c0.2-0.1,0.4-0.1,0.6-0.1
		c0.2,0,0.4,0.1,0.5-0.1c0.2-0.2,0.6-0.3,1.1,0c0.8,0.5,0.9,1,0.2,1.8c-0.3,0.3-0.9,0.4-1.2,0.4c0.5,0.4,1.1,0.4,1.7-0.1
		c0,0.8-0.5,1-1.4,0.6c-0.7-0.3-2-0.3-1.7,1.3c0.4-0.7,0.8-1.3,1.5-0.7c0.4,0.4,0.4,0.8-0.3,1.2c-0.5,0.2-0.8,0.6-0.8,1.4
		c0,0.7,0.2,0.8,0.4,1c0-0.7,0.2-1.2,0.6-1.5c0.1-0.1,0.3-0.3,0.6-0.3c0.3,0,0.6,0.2,0.8-0.1c0.3-0.3,0.7-0.1,1.1,0.1
		c1,0.8-0.1,2.1-1,2.1c0.6,0.5,1.1,0.2,1.6-0.3c0.6-1,0.2-2.1-0.4-3.1c2.1,0.9,3.5,2.4,4.1,4.5c0.8,3.1,0,6.4-1.1,9.5
		c2-3,3.3-5.9,3-8.5c-0.1-0.5,0-0.9,0.1-1.1c0.5,0.9,0.3,2.9,0.4,4.3c0.3,2.6,2.7,3.9,6.5,4.2c-2.3-0.7-3.5-2.2-3.7-4.3
		c-0.2-1.6-0.7-3.4-1.7-4.9c1,1.3,2,2.6,3.5,1.9c0.7-0.7,1.4-1.2,2.1-1.9c-2,0.4-4.2-1-4.8-2.8c0.2,0,0.5-0.1,0.6-0.1
		c-0.4-0.8-0.8-1.7-1.1-2.5c-1-2.5-2.3-4.7-3.7-6.7c2.4,0.9,4.7,1.6,7.1,2.3c-2.7-1.1-5.2-2.5-7.8-3.8c-0.4-0.2-0.9-0.5-1.2-0.9
		c-0.9-1.5-2.1-2.7-3.4-3.6c-1.4-1-3-1.5-4.4-2.4c-1.4-0.9-2.7-2.1-3.9-3.4c-0.8-0.9-1.5-1.8-2.3-2.7c5.5-1.6,11.1-3.2,16.6-4.9
		c6.6-2.1,11.9-4.1,14.8-6.9c5.1-5,9.4-10.7,13.9-16.2c-4.6,4.6-9.3,9.2-14.7,13.8c-1.9,1.6-3.9,3.1-6.6,4.1
		c-8.9,3.3-17.7,5.5-26.5,8.3c-1.1-0.2-2.2-0.4-3.4-0.6c-0.7-0.6-1.3-1.2-2-1.8c-6.9-6.4-13.5-11.9-20.3-16
		c-4.4-2.6-9.4-3.2-14.3-3.8c-5.5-0.7-11.1-1.4-16.6-2.1c6.1,1.5,12.2,2.7,18.2,4.3c3.9,1,7.8,2,10.8,3.7c4.4,2.6,9,6.6,13.5,10.6
		c2,1.7,4.1,3.6,6.1,5.4c-2.7,0.8-3.9,1.7-4.1,3.4c-0.1,1-0.2,2.1-0.4,3c0.3,0,0.8-0.1,1.1-0.1C131.8,65,129.3,67.1,126.9,68.9
		L126.9,68.9z M131.1,60.7c-3.1-1.3-6.1-2.9-8.8-4.9c-1.5-1.1-2.7-2.9-3-4.2c-0.6-2.6-1.8-4-4.1-5.8c-4.3-3.5-8.4-5.9-12.6-8.1
		c3.2-0.1,6.2,0.5,9,1.5c5.7,2,9.9,5.2,13.9,8.6c3,2.5,5.9,5,8.5,7.6C132.7,56.5,131.8,58.4,131.1,60.7L131.1,60.7z M151.9,59.8
		L151.9,59.8c2-0.5,4-1,5.9-1.5c3.9-0.9,7.5-1.7,10.7-3.2c4.7-2.3,8.9-5.3,13.3-7.9c-5.6,7.4-11,15.2-16.7,22.5
		c-0.6,0.8-1.7,0.5-2.3,0c-1.6-1.3-2.8-2.9-3.7-4.5c-0.3-0.5-0.5-0.9-0.9-1.2C155.8,62.6,153.9,61.1,151.9,59.8z"/>
</g>
</svg>
