<?xml version="1.0" encoding="utf-8"?>
<!-- Generator: Adobe Illustrator 24.0.2, SVG Export Plug-In . SVG Version: 6.00 Build 0)  -->
<svg version="1.1" id="Layer_1" xmlns="http://www.w3.org/2000/svg" xmlns:xlink="http://www.w3.org/1999/xlink" x="0px" y="0px"
	 viewBox="0 0 211 133" style="enable-background:new 0 0 211 133;" xml:space="preserve">
<style type="text/css">
	.st0{fill-rule:evenodd;clip-rule:evenodd;fill:#FFCB29;}
	.st1{fill-rule:evenodd;clip-rule:evenodd;fill:#3D3A64;}
	.st2{fill-rule:evenodd;clip-rule:evenodd;fill:#FDFDFD;}
	.st3{fill-rule:evenodd;clip-rule:evenodd;fill:#ED3539;}
</style>
<path class="st0" d="M66.5,35.8C76.5,25,90.2,24.5,109,26.4c24,2.4,43.3,7.4,49.5,13.2c12.5,11.8-2.4,38.5-21.3,56.3
	c-15,14.1-29.2,14-47,9.1c-30.6-8.4-50.2-23.4-40.3-44.5C53.5,52.5,59.8,43,66.5,35.8z"/>
<path class="st1" d="M90.4,97.7c24.7,0.6,44.8-4.3,58-13.1c8.6-5.7,12-12.1,8.8-19.5c-4.2-9.7-19.3-19.4-29-24.5
	C118.2,35.3,104,29.5,92.1,28c-6.4-0.8-12.2,0.4-17.8,4.7c-15.6,12.2-22.4,28-24.2,43.4C48.3,91.4,66.1,97.1,90.4,97.7z"/>
<path class="st2" d="M92.1,93.9c21.9,0.6,39.7-3.8,51.4-11.6c7.6-5.1,10.7-10.7,7.8-17.3c-3.8-8.6-17.1-17.2-25.7-21.7
	c-8.9-4.7-21.6-9.9-32.1-11.2c-5.7-0.7-10.9,0.3-15.8,4.2C64,47.1,57.9,61.1,56.3,74.8C54.8,88.4,70.6,93.4,92.1,93.9z"/>
<path class="st3" d="M83.2,71.4c-0.1-0.1-0.3-0.2-0.5-0.2c-1.1-0.2-2.1,0.5-2.9,2.1c-0.8,1.6-1.3,3.5-1.6,5.8
	c-0.1,1.3-0.1,2.4,0.1,3.2c0.2,0.8,0.5,1.3,1,1.4c0.6,0.2,1.3-0.5,2.3-2c-0.6-1.7-0.8-3.5-0.6-5.2C81,74.4,81.8,72.7,83.2,71.4
	L83.2,71.4z M66,91.5c-1.4,0.2-2.9,0.4-4.3,0.5c1.1-4.9,2.4-9.8,3.6-14.6c2.8-11.4,5.7-22.8,9.4-34c1.3-0.3,2.6-0.6,3.9-0.9
	c-0.4,1.5-0.8,3-1.3,4.6l-0.6,2.1l1.2-1.8c0.9-1.3,2-2.8,3.2-3.8c0.8-0.7,1.7-1.2,2.8-1.2c1.4,0,2.2,0.8,2.8,2
	c0.8,1.8,0.8,4,0.5,5.9c-0.5,3.8-2.5,9.1-4.6,12.2c-1.5,2.2-4.1,5.6-7.1,5.5c-0.4,0-1-0.1-1.4-0.3c-0.4-0.3-0.9-1-1.2-1.5l-0.4-0.7
	l-0.2,0.8c-0.6,2.2-1.2,4.5-1.7,6.7c-0.8,3.1-1.6,6.3-2.3,9.4c-0.1,0.5-0.2,1-0.4,1.5c-0.4,1.7-0.8,3.4-1.2,5
	c-0.1,0.6-0.3,1.2-0.4,1.8C66.1,90.9,66.1,91.2,66,91.5L66,91.5z M73,63L73,63l0,0.2c0.3,1.1,1,2.9,2.4,2.9c2.2,0.1,3.8-3.2,4.5-4.8
	c1.3-2.9,2.3-6,2.7-9.2c0.1-1.2,0.2-2.7-0.2-3.9c-0.3-0.9-0.8-1.7-1.8-1.7c-0.8,0-1.5,0.6-2.1,1.2c-0.7,0.7-1.3,1.6-1.7,2.6
	c-0.7,1.5-1.2,3.3-1.6,4.9C74.4,57.8,73.7,60.4,73,63L73,63z M90.8,85c0.3,1.2,0.8,1.8,1.3,1.8c0.9,0,1.8-1,2.8-3
	c1-2.1,1.6-4.1,1.8-6.1c0.1-1,0.1-1.9-0.1-2.5c-0.2-0.6-0.5-1-1-1c-0.4,0-0.8,0.2-1.2,0.7c-0.4,0.5-0.8,1-1.1,1.6
	c-0.3,0.6-0.6,1.7-1.1,3.3C91.8,81.6,91.3,83.3,90.8,85L90.8,85z M115.8,61.8c-0.4,3.2-1.4,4.9-3,5c-0.8,0.1-1.4-0.2-1.9-0.9
	c0.7-1.2,1.2-2.6,1.7-4.1c0.7,0.6,1.2,0.9,1.6,0.8C114.7,62.7,115.2,62.4,115.8,61.8L115.8,61.8z M129,72.5c1.4-1.9,2.5-4,3.5-6.2
	c1-2.2,1.5-4.1,1.7-5.7c0.1-0.5,0-0.8,0-1.1c-0.1-0.3-0.2-0.4-0.3-0.4c-0.3,0-1,1.2-1.9,3.6C131.1,65,130.1,68.3,129,72.5L129,72.5z
	 M137.1,75.2c2.5-1.1,3.8-2.8,4.1-5.2c0.1-1.1-0.1-1.7-0.8-1.6c-0.6,0.1-1.3,0.7-1.9,2C137.7,71.7,137.3,73.3,137.1,75.2L137.1,75.2
	z M144.1,77.6c0.1-0.7,0.1-1.3,0.2-2c-1.3,1.5-2.2,2.6-2.8,3c-0.6,0.5-1.2,0.8-1.8,0.9c-1.6,0.2-2.4-0.8-2.6-3.1
	c4.3-2,6.5-4.2,6.8-6.6c0.1-0.9-0.1-1.6-0.5-2.2c-0.5-0.5-1.1-0.8-2-0.7c-1.7,0.1-3.3,1.3-4.9,3.5c-1.5,2-2.3,4.2-2.7,6.5
	c-1.3,1.6-2.2,2.7-2.8,3.2c-0.6,0.6-1.2,0.9-1.7,1c-0.5,0.1-0.9-0.2-1.1-0.8c-0.2-0.6-0.3-1.4-0.2-2.5c0.1-0.5,0.2-1.4,0.4-2.7
	c2.2-2.9,3.8-5.6,4.9-8.1c1.1-2.5,1.8-4.9,2.1-7.5c0.1-0.9,0.1-1.6,0-2.1c-0.1-0.5-0.3-0.8-0.6-0.8c-0.1,0-0.1,0-0.3,0.1
	c-1.2,0.7-2.5,1.3-3.7,2c-1.6,3.2-3,6.8-4.2,10.6c-1.1,3.5-1.9,6.4-2.3,8.9c-0.9,1.2-1.7,2.2-2.4,2.9c-0.7,0.7-1.5,1.1-2.3,1.2
	c-0.9,0.1-1.6-0.2-2-1.1c-0.4-0.8-0.6-2-0.4-3.6c0.2-1.8,0.7-3.4,1.4-4.9c0.7-1.5,1.4-2.2,2.1-2.3c0.3,0,0.5,0.1,0.6,0.4
	c0.1,0.3,0.2,0.8,0.1,1.3c0,0.1-0.1,0.5-0.2,1.1c-0.1,0.6-0.2,0.9-0.2,1c0,0.3,0,0.4,0.1,0.4c0.1,0,0.2-0.1,0.5-0.3
	c0.6-0.4,1.2-0.8,1.7-1.3c0.3-0.2,0.5-0.4,0.6-0.6c0.1-0.2,0.2-0.5,0.2-0.8c0.1-1-0.1-1.8-0.5-2.4c-0.4-0.6-1.1-0.8-1.9-0.7
	c-1.7,0.2-3.4,1.5-5.1,4.1c-1.5,2.2-2.5,4.5-2.9,6.9c-0.9,1.3-1.5,2.1-1.9,2.5c-0.4,0.4-0.8,0.7-1.2,0.7c-0.2,0-0.4-0.1-0.5-0.3
	c-0.1-0.3-0.1-0.6-0.1-1c0.1-1.1,0.6-3,1.5-5.6c0.7-2.1,1.4-4.2,2.1-6.4c-0.1,0-0.1,0-0.2,0c-1.2,0.5-2.4,0.9-3.7,1.4
	c-1.9,5.1-3.1,9.1-3.4,12c-0.2,1.3-0.1,2.4,0.2,3.2c0.3,0.8,0.8,1.2,1.4,1.1c1.1-0.2,2.9-2,5.4-5.4c0,1.2,0.3,2.1,0.8,2.9
	c0.7,1,1.6,1.4,2.8,1.2c1.1-0.2,2.2-0.7,3.3-1.6c1.1-0.9,2.3-2.2,3.6-3.9c0,1.2,0.2,2.1,0.5,2.8c0.5,0.9,1.3,1.3,2.3,1.1
	c0.9-0.1,1.8-0.7,2.9-1.6c1-0.9,2.3-2.2,3.7-3.9c0,1.1,0.3,2,0.8,2.7c0.7,0.9,1.7,1.3,2.9,1.1c1.1-0.2,2.2-0.7,3.2-1.5
	C141.6,80.4,142.7,79.2,144.1,77.6L144.1,77.6z M86.2,83.1c-0.5,0.5-1,0.9-1.4,1.1c-0.4,0.2-0.8,0.2-1,0.2c-0.6-0.1-1.2-0.6-1.7-1.4
	c-1.6,2.5-3.1,3.6-4.7,3.1c-1-0.3-1.7-1.2-2.1-2.6c-0.5-1.3-0.6-2.9-0.4-4.7c0.3-2.8,1.3-5,2.8-6.7c1.6-1.7,3.4-2.3,5.3-2
	c0.7,0.1,1.3,0.3,1.6,0.6c0.3,0.3,0.5,0.6,0.5,0.9c0,0.3,0,0.8,0,1.2c-0.3,2.4-1.1,5.4-2.4,8.8c0.4,0.7,0.8,1.1,1.3,1.1
	c0.5,0.1,1.3-0.5,2.3-1.7c1.9-2.5,3.7-5.7,5.2-9.4c1-0.2,2.1-0.5,3.1-0.8c-0.3,1.1-0.6,2.3-0.9,3.4c0.8-1.2,1.5-2,2.2-2.6
	c0.6-0.6,1.3-0.8,2-0.9c0.9,0,1.6,0.5,2.1,1.5c0.5,1,0.6,2.4,0.4,4.1c-0.1,0.7-0.2,1.4-0.4,2.1c1.6-2.5,2.8-4.8,3.6-7.1
	c0.7-0.3,1.3-0.5,2-0.7c0.7-0.2,1.1-0.3,1.2-0.3c0.1,0,0.1,0,0.1,0.1c0,0.2-0.1,0.4-0.2,0.6c-0.2,0.6-0.4,1.2-0.4,1.8
	c-0.1,0.7,0.1,1.6,0.5,2.8c0.4,1.1,0.6,2.2,0.4,3.3c-0.2,2-1.2,4.1-2.8,6.1c-1.6,2-3.1,3.1-4.5,3.2c-0.6,0-1.2-0.1-1.6-0.6
	c-0.5-0.5-0.6-1-0.6-1.5c0-0.3,0.4-0.9,1-1.9c0.6-0.9,1-1.4,1.2-1.4c0.3,0,0.5,0.5,0.6,1.6c0.1,1.1,0.4,1.6,1,1.6
	c0.6,0,1.1-0.5,1.7-1.3c0.6-0.8,0.9-1.6,1-2.5c0.1-0.8-0.1-1.9-0.5-3.3c-0.5-1.4-0.7-2.5-0.8-3.5c-1.3,2.4-2.8,4.8-4.5,7.3
	c-0.3,0.6-0.7,1.3-1.1,1.9c-1.7,2.5-3.3,3.8-5,3.8c-0.4,0-0.8-0.1-1-0.3c-0.2-0.2-0.5-0.5-0.9-1.1c-0.6,2.1-1.8,7.1-2.9,11.8
	c-1.1,4.7-0.4,1.3-0.7,2.6c-1.2,0.2-2.3,0.3-3.4,0.4c0.7-3.1,0.4-1.3,1.9-7.4c1.5-6.1,3-12.2,3.9-15.4
	C87.6,81.2,86.7,82.6,86.2,83.1z"/>
<path class="st3" d="M150.1,42.3c0.6,0.1,1.2,0.4,1.7,0.8s0.9,1,1.2,1.6c0.2,0.7,0.3,1.3,0.2,1.9c-0.1,0.6-0.4,1.2-0.8,1.8
	c-0.4,0.5-1,0.9-1.6,1.1c-0.6,0.2-1.3,0.3-1.9,0.2c-0.6-0.1-1.2-0.4-1.8-0.8c-0.5-0.4-0.9-1-1.1-1.6c-0.2-0.6-0.3-1.3-0.2-1.9
	c0.1-0.6,0.4-1.2,0.8-1.8c0.4-0.5,1-0.9,1.6-1.1C148.9,42.2,149.5,42.2,150.1,42.3L150.1,42.3z M150,42.9c-0.5-0.1-1.1,0-1.6,0.1
	c-0.5,0.2-1,0.5-1.4,0.9c-0.4,0.4-0.6,0.9-0.7,1.5c-0.1,0.5,0,1.1,0.2,1.6c0.2,0.5,0.5,1,1,1.3c0.4,0.4,0.9,0.6,1.5,0.7
	c0.5,0.1,1.1,0,1.6-0.2c0.5-0.2,1-0.5,1.3-1c0.4-0.4,0.6-0.9,0.7-1.5c0.1-0.5,0-1.1-0.2-1.6c-0.2-0.5-0.5-1-1-1.3
	C151,43.2,150.5,43,150,42.9L150,42.9z M147.5,47.8l0.6,0.1l0.3-1.7l0.4,0.1c0.2,0,0.4,0.1,0.5,0.2c0.1,0.2,0.3,0.5,0.5,1l0.2,0.7
	l0.8,0.1l-0.4-0.9c-0.2-0.4-0.3-0.7-0.5-0.9c-0.1-0.1-0.2-0.2-0.3-0.3c0.3,0,0.6,0,0.9-0.2c0.2-0.2,0.4-0.4,0.4-0.7
	c0-0.2,0-0.4-0.1-0.6c-0.1-0.2-0.2-0.4-0.4-0.5c-0.2-0.1-0.5-0.2-1-0.3l-1.4-0.2L147.5,47.8L147.5,47.8z M148.6,45.6l0.8,0.1
	c0.4,0.1,0.6,0,0.8,0c0.2-0.1,0.2-0.2,0.3-0.4c0-0.1,0-0.2,0-0.3c0-0.1-0.1-0.2-0.2-0.3c-0.1-0.1-0.3-0.1-0.6-0.2l-0.7-0.1
	L148.6,45.6z"/>
<path class="st1" d="M126.9,56.4c-0.5,0-1,0.1-1.5,0.1c0-0.5,0-1,0.1-1.5c0.5,0,1-0.1,1.5-0.1C127,55.5,127,55.9,126.9,56.4
	L126.9,56.4z M101.3,53.9c-0.3,0.5-0.6,0.8-1,1.1c-0.4,0.3-0.8,0.5-1.2,0.6c-0.4,0.1-0.9,0.2-1.4,0.1c-0.5-0.1-0.9-0.2-1.3-0.4
	c-0.4-0.2-0.8-0.5-1.1-0.8c-0.3-0.3-0.6-0.7-0.8-1.1c-0.2-0.4-0.4-0.9-0.5-1.3c-0.1-0.5-0.2-1-0.1-1.5c0-0.4,0-0.9,0.1-1.3
	c0.5,0.1,1,0.1,1.5,0.2c0,0.4,0,0.8-0.1,1.1c0,0.5,0,0.9,0.1,1.3c0.1,0.4,0.3,0.8,0.5,1.1c0.2,0.3,0.5,0.6,0.8,0.8
	c0.3,0.2,0.7,0.3,1.1,0.4c0.4,0,0.7,0,1.1-0.1c0.3-0.1,0.6-0.3,0.9-0.6c0.2-0.3,0.4-0.6,0.6-1c0.1-0.4,0.2-0.8,0.3-1.3
	c0-1,0.1-2.1,0.1-3.1c0.1-1,0.1-2.9,0.1-4c0.5,0,1,0.1,1.5,0.1c-0.1,1.1-0.1,3-0.1,4.1c-0.1,1.1-0.1,2.1-0.2,3.2c0,0.1,0,0.3,0,0.4
	c0,0.1,0,0.3-0.1,0.4c5,0.4-1.1-0.1,2.7,0.1c0.4,0,0.7-0.1,0.9-0.4c0.2-0.3,0.3-0.7,0.3-1.2c0.1-1,0.1-2.1,0.2-3.1c0.5,0,1,0,1.5,0
	c-0.1,1-0.1,2-0.2,3c0,0.4-0.1,0.8-0.1,1c-0.1,0.3-0.1,0.5-0.2,0.6c0,0,0,0.1,0,0.1c0.1,0,0.3,0,0.4,0c0.4,0,0.7-0.1,0.9-0.4
	c0.2-0.3,0.3-0.6,0.3-1.2c0.1-1.1,0.1-2.1,0.2-3.2c0.5,0,1,0,1.5,0c-0.1,1-0.1,2-0.2,3c0,0.5-0.1,0.8-0.1,1.1
	c-0.1,0.3-0.2,0.5-0.3,0.6c0.2,0,0.3,0,0.5,0c0.4,0,0.7-0.1,0.9-0.4c0.2-0.3,0.3-0.6,0.3-1.2c0.1-1.1,0.1-2.1,0.2-3.2
	c0.5,0,1,0,1.5,0c-0.1,1-0.1,2-0.2,3c0,0.3-0.1,0.6-0.1,0.9c-0.1,0.3-0.2,0.6-0.3,0.8c1,0,0.5,0,1.5,0c0.2,0,0.4,0,0.6-0.1
	c0.2-0.1,0.3-0.2,0.4-0.4c0-0.1,0.1-0.2,0.1-0.4c0-0.2,0-0.4,0.1-0.6c0-0.5,0.1-1.1,0.1-1.6c0-0.5,0.1-1.1,0.1-1.6c0.5,0,1,0,1.5,0
	c0,0.6-0.1,1.3-0.1,1.9c0,0.6-0.1,1.3-0.1,1.9c0,0.8-0.3,1.5-0.7,1.9c-0.4,0.4-1,0.6-1.7,0.7C109.9,54.2,105.6,54.2,101.3,53.9
	L101.3,53.9z M116.2,57.2c0-0.5,0-1,0.1-1.6c-0.5,0-1,0-1.4,0c0,0.5-0.1,1-0.1,1.6C115.2,57.2,115.7,57.2,116.2,57.2L116.2,57.2z
	 M122,52.4c0-0.6,0.1-1.2,0.1-1.9c0-0.3-0.1-0.5-0.2-0.7c-0.1-0.2-0.2-0.4-0.4-0.5c-0.2-0.1-0.4-0.2-0.7-0.2c-0.3,0-0.6,0.1-0.8,0.2
	c-0.2,0.1-0.4,0.3-0.5,0.6c-0.1,0.2-0.2,0.5-0.2,0.8c0,0.3,0,0.6,0.2,0.9c0.1,0.3,0.3,0.5,0.5,0.6c0.2,0.1,0.4,0.2,0.7,0.2
	C121.1,52.4,121.5,52.4,122,52.4L122,52.4z M123.4,53.8c1-0.1,0.4,0,1.4-0.1c0.7,0,1.3-0.3,1.7-0.7c0.4-0.4,0.6-1,0.6-1.8
	c0-0.6,0-1.2,0.1-1.8c0-0.6,0.1-1.2,0.1-1.8c-0.5,0-1,0-1.5,0c0,0.5,0,1-0.1,1.6c0,0.5,0,1-0.1,1.6c0,0.2,0,0.4-0.1,0.6
	c0,0.2-0.1,0.3-0.1,0.4c-0.1,0.1-0.2,0.3-0.4,0.3c-0.2,0.1-0.4,0.1-0.6,0.1c-0.9,0-0.2,0-1.1,0.1c0-0.5,0-1,0.1-1.6
	c0-0.4,0-0.8-0.2-1.2c-0.1-0.4-0.3-0.7-0.5-1c-0.2-0.3-0.5-0.5-0.8-0.6c-0.3-0.1-0.7-0.2-1.1-0.2c-0.4,0-0.8,0.1-1.2,0.2
	c-0.4,0.2-0.7,0.4-1,0.6c-0.3,0.3-0.5,0.6-0.7,1c-0.2,0.4-0.3,0.8-0.3,1.3c0,0.5,0,0.9,0.2,1.3c0.1,0.4,0.3,0.7,0.6,1
	c0.3,0.3,0.6,0.5,0.9,0.6c0.3,0.1,0.7,0.2,1.1,0.2c0.5,0,1-0.1,1.4-0.1c-0.1,0.4-0.3,0.6-0.6,0.8c-0.3,0.2-0.6,0.3-1,0.3
	c0,0.4,0,0.8-0.1,1.2c0.9-0.1,1.6-0.3,2.1-0.7C123,55.1,123.3,54.6,123.4,53.8z"/>
</svg>
