<?xml version="1.0" encoding="utf-8"?>
<!-- Generator: Adobe Illustrator 24.0.2, SVG Export Plug-In . SVG Version: 6.00 Build 0)  -->
<svg version="1.1" id="Layer_1" xmlns="http://www.w3.org/2000/svg" xmlns:xlink="http://www.w3.org/1999/xlink" x="0px" y="0px"
	 viewBox="0 0 211 133" style="enable-background:new 0 0 211 133;" xml:space="preserve">
<style type="text/css">
	.st0{fill-rule:evenodd;clip-rule:evenodd;fill:#FDFDFD;}
	.st1{fill-rule:evenodd;clip-rule:evenodd;fill:#01613E;}
	.st2{fill-rule:evenodd;clip-rule:evenodd;fill:#D00000;}
</style>
<g>
	<path class="st0" d="M111.8,101.8l0.6-2.2c0.6-2.1,1.6-4,3.4-5.3c3.4-2.7,8.9-2.9,13.1-2.8c7.1,0.3,14.2,1.7,21.2,2.9
		c1.9,0.3,3.9,0.7,5.9,0.7l0.2,0l0.2,0c1.6,0.2,3.1-0.2,3.7-1.8c0.1-0.2,0.2-0.5,0.2-0.8l0,0l0,0c0.2-1.3-0.4-2.5-1.4-3.2
		c-0.2-0.1-0.4-0.2-0.6-0.3l-0.2-0.1l-0.2-0.1c-2.8-1.9-6.3-3.6-9.4-5l0,0l0,0c-0.8-0.4-1.6-0.8-2.5-1.2l-2.4-1.1l1.6-5.1l2.6,0.5
		c0.4,0.1,0.8,0.1,1.2,0.1c0.9,0,1.7-0.2,2.5-0.5c0.6-0.2,1.1-0.5,1.6-0.9l0,0c1.4-1.1,1.7-3,0.8-4.6l-0.1-0.1l-0.2-0.3l-0.1-0.4
		c-0.1-0.2-0.1-0.4-0.2-0.6c-0.2-0.7-0.3-1.5-0.3-2.2c0-1,0.1-2,0.3-3c0.2-1,0.5-1.9,0.9-2.8l0.3-0.7l0.6-0.5c0,0,0.1-0.1,0.1-0.1
		c0.8-0.7,1.3-1.8,1.5-2.8c0.1-0.9,0.1-1.8,0-2.6c-0.1-0.6-0.3-1.1-0.5-1.6l-0.8-2l1.6-1.4c0.6-0.5,1-1.1,1.4-1.7
		c0.6-1,0.8-2.1,0.8-3.2c0-1.1-0.3-2.2-0.9-3.2c-0.6-1.1-1.5-1.9-2.5-2.5c-1-0.5-2.1-0.8-3.2-0.8c-1.1,0-2.2,0.3-3.2,0.8
		c-1.1,0.6-1.9,1.4-2.5,2.5c-0.6,1-0.9,2.1-0.9,3.3c0,0.6,0.1,1.1,0.2,1.7l0.6,2.2l-1.9,1.2c-0.1,0-0.1,0.1-0.2,0.1
		c-0.2,0.1-0.4,0.3-0.7,0.4l-3,2.1l-1.5-3.3c-0.3-0.6-0.7-1.2-1.3-1.6l-2.4-1.7l1.7-2.4c0.6-0.9,0.9-2.1,1.1-3.2L139,37l0-0.3
		c0-1.7-1.2-3.2-2.9-3.6l-2.2-0.5l-0.1-2.3c0-0.2,0-0.4-0.1-0.6c-0.4-2.1-1.8-3.6-4-3.7l-2.1-0.1l-0.6-2c-0.2-0.6-0.7-1.1-1.2-1.5
		c-2.1-1.5-4.1,0.1-5.5,1.7c-0.1,0.1-0.1,0.2-0.2,0.2l-2,2.3l-2.3-2c-1.2-1.1-2.8-0.9-4.2-0.2c-0.6,0.3-1.2,0.7-1.7,1.2
		c-0.4,0.3-0.7,0.7-1.1,1c-2.3,2.7-4.3,5.5-5.4,8.9c-0.1,0.3-0.2,0.7-0.3,1l-0.7,2.5l-2.6-0.4c-0.1,0-0.1,0-0.2,0
		c-0.9-0.1-1.8,0.2-2.6,0.6c-0.9,0.5-1.7,1.3-2.3,2c-1.1,1.3-1.9,2.7-2.7,4.2c-0.2,0.4-0.4,0.9-0.6,1.3l-0.9,1.9l-2.1-0.2
		c-0.5-0.1-1.1,0-1.6,0.1l-1,0.2l-0.7,0.7c-0.3,0.3-0.6,0.6-0.9,1l-1.8,2L80.3,51c-0.5-0.3-1-0.6-1.6-0.8c-1.4-0.5-2.9-0.4-4.3-0.3
		l-2.1,0.2l-0.8-0.5c-1.1-0.6-2.3-0.8-3.5-0.9l-0.1,0h-0.2c0,0-0.1,0-0.1,0l-2.9,0l-0.2-2.9c-0.1-1.6-0.5-3.1-1.5-4.3
		c-1.1-1.4-2.4-2.4-4.1-2.9c-4.6-1.2-9.4,2-12.4,5.1c-1.4,1.4-2.6,3-3.6,4.8c-0.9,1.6-1.8,3.2-2.7,4.9c-0.9,1.7-1.6,3.5-2.3,5.3
		c-0.6,1.7-1.2,3.4-1.6,5.2c-0.4,1.5-0.7,3.1-0.7,4.7c-0.1,1.5,0.1,3.1,0.9,4.5l0,0l0,0.1c0.5,0.8,1.1,1.6,1.8,2.2
		c0.6,0.5,1.4,1,2.1,1.3c0.7,0.3,1.5,0.5,2.3,0.5c0.7,0,1.3,0,2-0.1c0.3-0.1,0.6-0.2,0.9-0.3l2.1-1l1.5,1.8c0.1,0.2,0.3,0.3,0.4,0.5
		L52,81l-3.3,1.7c-1,0.5-2,1.1-3,1.6l-0.1,0l-0.1,0c-1.9,1-3.9,2-5.7,3.1c-1.4,0.9-2.9,1.9-4.2,3c-1.4,1.3-2.5,3.2-1.5,5.1
		c1,1.8,3,2.1,4.8,1.7c1.5-0.3,3.1-0.9,4.5-1.5c4.9-2.1,10-4,15.1-5.6l1.1-0.3l9.6,4.1c12.7,5.5,26.5,7.6,40.3,7.7L111.8,101.8z"/>
	<path class="st1" d="M141.8,87.2c-33.3-10.2-64.6-8.7-99.5,6c-7,3-7.5,0.9-0.9-3.1c1.5-1,3.4-1.9,5.6-3.1
		c29.5-17.1,71.4-14.5,100.1-0.5c2.1,0.9,7.5,3.7,9.4,5c0.6,0.3,0.8,0.4,0.6,0.5c0.1,0.2-0.1,0.2-0.8,0.1c-1.3,0-3.8-0.4-5.9-0.7
		c-20.3-3.5-36.9-6.5-41,7.4c-14.9,0-27.8-2.6-39.1-7.4C89.5,81.3,115.8,80.9,141.8,87.2z"/>
	<path class="st2" d="M138.5,75.1v-2.6c0.5,0.2,1,0.3,1.5,0.4c0.2,0,0.2,0.2,0,0.5c-0.2,0.3-0.5,0.7-0.9,1.1
		C139,74.7,138.8,74.9,138.5,75.1L138.5,75.1z M138.5,71c0.2,0.1,0.5,0.2,0.7,0.2c0.7,0,1.3-0.2,1.9-0.7c0.6-0.5,1.2-1.1,1.7-1.8
		c0.5-0.7,1.1-1.4,1.6-2.2c0.5-0.8,0.9-1.4,1.3-2c-0.2,0.7-0.4,1.4-0.5,2.2c-0.1,0.8-0.2,1.5-0.2,2.2c0,0.7,0,1.4,0.2,2
		c0.1,0.6,0.4,1.2,0.7,1.6c0.5,0.6,1,1,1.5,1.2c0.5,0.2,1,0.3,1.5,0.3c0.5,0,0.9-0.1,1.3-0.3c0.4-0.2,0.7-0.3,0.9-0.5
		c0.3-0.2,0.3-0.4,0.1-0.7c-0.4-0.5-0.7-1.2-0.9-2c-0.2-0.9-0.4-1.9-0.4-3c0-1.1,0.1-2.3,0.3-3.6c0.2-1.3,0.7-2.6,1.3-3.9
		c0.1-0.1,0.1-0.2,0.1-0.2c0-0.1,0-0.1,0.1-0.2c0.1-0.1,0.1-0.1,0.1-0.1c0.1-0.2,0.1-0.4-0.1-0.5l-0.2-0.1c-0.7-0.3-1.4-0.3-2.1-0.2
		c-0.6,0.2-1.2,0.5-1.8,0.9c-0.6,0.4-1.1,1-1.6,1.6c-0.5,0.6-0.9,1.1-1.4,1.6c-0.4,0.5-0.8,0.9-1.2,1.2c-0.4,0.3-0.7,0.3-1,0.2
		c-0.2-0.1-0.3-0.4-0.2-0.9c0.1-0.5,0.3-1.1,0.6-1.7c0.3-0.6,0.8-1.3,1.3-1.9c0.6-0.6,1.2-1.1,2-1.5c0.8-0.4,1.7-0.6,2.7-0.6
		c1,0,2.1,0.3,3.2,0.9c0.4,0.2,0.7,0.2,1-0.1c0.3-0.2,0.5-0.6,0.5-1.1c0.1-0.5,0.1-1,0-1.6c-0.1-0.6-0.3-1.2-0.7-1.7
		c-0.4-0.5-0.8-1-1.5-1.4c-0.6-0.4-1.4-0.6-2.3-0.6c-0.9,0-1.9,0.3-2.9,0.9c-1,0.6-2,1.5-3,2.5c-1,1-1.9,2.2-2.7,3.5
		c-0.7,1.1-1.4,2.2-1.9,3.4V71z M138.5,61.9V71c-0.2-0.1-0.3-0.2-0.5-0.3c-0.4-0.3-0.7-0.9-1-1.7c-0.2-0.8-0.2-1.7,0-2.9
		c0.2-1.2,0.7-2.4,1.2-3.7C138.4,62.2,138.5,62.1,138.5,61.9L138.5,61.9z M138.5,72.5c-0.7-0.3-1.3-0.6-1.7-1.1
		c-0.8-0.8-1.3-1.8-1.7-3c-0.3-1.2-0.5-2.5-0.5-3.9c0-1.4,0.1-2.8,0.3-4.2c0.2-1.4,0.4-2.7,0.7-3.9c0.3-1.2,0.5-2.2,0.7-2.9
		c0.1-0.2,0.1-0.4,0.2-0.7c0.1-0.3,0.1-0.6,0.2-1c0-0.4,0-0.7,0-1c-0.1-0.3-0.2-0.5-0.4-0.7c-0.6-0.3-1.3-0.4-1.9-0.2
		c-0.7,0.2-1.3,0.5-2,0.9c-0.7,0.4-1.3,1-1.9,1.6c-0.6,0.6-1.2,1.3-1.7,1.9c-0.5,0.7-1,1.3-1.5,2c-0.4,0.6-0.8,1.2-1,1.6
		c0.1-1.2,0-2-0.1-2.5c-0.2-0.5-0.4-0.7-0.7-0.6c-0.3,0.1-0.6,0.4-1,0.9c-0.4,0.5-0.8,1.1-1.2,1.9c-0.4,0.8-0.7,1.6-1.1,2.5
		l-0.1,0.2v7.2c0.2,0.3,0.5,0.5,0.8,0.7c0.4,0.2,0.8,0.4,1.2,0.5c0.4,0.1,0.8,0.1,1.1,0.1c0.4,0,0.7-0.1,1-0.2
		c0.3-0.1,0.5-0.3,0.5-0.5c0.1-0.2,0.1-0.3,0.1-0.5c0-1.1,0.2-2.3,0.6-3.7c0.4-1.4,0.9-2.7,1.5-4c0.6-1.3,1.2-2.4,1.7-3.4
		c0.6-1,1.1-1.6,1.4-1.9c0.4-0.3,0.6-0.4,0.6-0.1c0,0.3-0.1,0.6-0.3,1.1c-1.2,3.3-2,6.1-2.4,8.5c-0.4,2.4-0.6,4.4-0.5,6
		c0.1,1.6,0.4,2.9,0.9,3.9c0.5,1,1.1,1.7,1.7,2.2c0.7,0.5,1.3,0.7,2,0.8c0.7,0.1,1.3,0,1.8-0.1c0.7-0.2,1.3-0.6,1.9-1
		c0.3-0.2,0.6-0.4,0.8-0.6V72.5L138.5,72.5z M122,58.3v-4.8c0,0.1,0.1,0.1,0.1,0.2c0.4,0.5,0.6,1.1,0.7,1.7c0.1,0.6,0.1,1.2,0,1.6
		c-0.1,0.5-0.3,0.9-0.5,1.1C122.2,58.2,122.1,58.2,122,58.3z M122,53.4v4.8c-0.2,0.1-0.4,0-0.7-0.1c-1.2-0.6-2.2-0.9-3.2-0.9
		c-1,0-1.9,0.2-2.7,0.6c-0.8,0.4-1.5,0.9-2,1.5c-0.6,0.6-1,1.3-1.3,1.9c-0.3,0.6-0.5,1.2-0.6,1.7c-0.1,0.5,0,0.8,0.2,0.9
		c0.3,0.2,0.7,0.1,1-0.2c0.4-0.3,0.8-0.7,1.2-1.2c0.4-0.5,0.9-1,1.4-1.6c0.5-0.6,1-1.1,1.6-1.6c0.6-0.4,1.2-0.8,1.8-0.9
		c0.6-0.2,1.3-0.1,2.1,0.2l0.2,0.1c0.2,0.2,0.2,0.3,0.1,0.5c0,0,0,0.1-0.1,0.1c0,0.1,0,0.1-0.1,0.2c0,0.1,0,0.2-0.1,0.2
		c-0.6,1.3-1,2.7-1.3,3.9c-0.2,1.3-0.3,2.5-0.3,3.6c0,1.1,0.2,2.1,0.4,3c0.2,0.9,0.6,1.5,0.9,2c0.2,0.3,0.1,0.6-0.1,0.7
		c-0.2,0.2-0.5,0.4-0.9,0.5c-0.4,0.2-0.8,0.3-1.3,0.3c-0.5,0-1-0.1-1.5-0.3c-0.5-0.2-1-0.6-1.5-1.2c-0.3-0.5-0.5-1-0.7-1.6
		c-0.1-0.6-0.2-1.3-0.2-2c0-0.7,0.1-1.5,0.2-2.2c0.1-0.8,0.3-1.5,0.5-2.2c-0.4,0.6-0.8,1.3-1.3,2c-0.5,0.8-1,1.5-1.6,2.2
		c-0.5,0.7-1.1,1.3-1.7,1.8c-0.6,0.5-1.2,0.7-1.9,0.7c-0.1,0-0.2,0-0.3,0V61c0.4-0.8,0.9-1.6,1.4-2.5c0.8-1.3,1.7-2.5,2.7-3.5
		c1-1,2-1.9,3-2.5c1-0.6,2-0.9,2.9-0.9c0.9,0,1.7,0.2,2.3,0.6C121.2,52.5,121.7,53,122,53.4L122,53.4z M122,60.2
		c-0.3,0.9-0.5,1.7-0.7,2.5c-0.2,0.9-0.2,1.7-0.2,2.5c0,0.8,0.2,1.4,0.6,1.9c0.1,0.1,0.2,0.2,0.3,0.3V60.2L122,60.2z M108.4,78.9
		v-3.2c0.6,0.3,1.2,0.4,2,0.5c0.2,0,0.2,0.2,0,0.5c-0.2,0.3-0.5,0.7-0.9,1.2C109.1,78.3,108.8,78.6,108.4,78.9z M64.4,71
		c0.3,0.2,0.6,0.6,0.9,1.1c0.3,0.5,0.5,1.1,0.6,1.8c0.2,0.7,0.2,1.4,0.2,2.1c0,0.7-0.2,1.4-0.4,2.1c-0.3,0.7-0.7,1.3-1.2,1.7
		c-0.1,0-0.1,0.1-0.2,0.1L64.4,71C64.4,71,64.4,71,64.4,71L64.4,71z M108.4,61v10.1c-0.3-0.1-0.6-0.2-0.9-0.4
		c-0.4-0.3-0.7-0.9-1-1.7c-0.2-0.8-0.2-1.7,0-2.9c0.2-1.2,0.7-2.4,1.2-3.7C107.9,61.9,108.1,61.4,108.4,61L108.4,61z M108.4,75.7
		c-0.6-0.3-1.1-0.6-1.5-1.1c-0.9-0.9-1.5-2-1.8-3.3c-0.4-1.3-0.6-2.7-0.6-4.2c0-1.5,0.1-3,0.3-4.5c0.2-1.5,0.4-2.9,0.7-4.2
		c0.3-1.3,0.6-2.3,0.8-3.1c0.1-0.2,0.1-0.5,0.2-0.8c0.1-0.4,0.1-0.7,0.2-1.1c0-0.4,0-0.7,0-1.1s-0.2-0.6-0.5-0.8
		c-0.7-0.3-1.4-0.4-2.1-0.2c-0.7,0.2-1.4,0.5-2.1,1c-0.7,0.5-1.4,1-2.1,1.7c-0.7,0.7-1.3,1.4-1.8,2.1c-0.6,0.7-1.1,1.4-1.5,2.1
		C96,59,95.6,59.6,95.3,60c0.2-2.6,0.5-5,1-7.1c0.5-2.2,1.1-4.1,1.6-5.7c0.7-1.9,1.4-3.5,2.1-5.1c-0.2-0.3-0.4-0.4-0.7-0.4
		c-0.2,0-0.5,0.1-0.9,0.3c-0.4,0.2-0.8,0.6-1.4,1.3c-0.8,0.9-1.6,2.2-2.3,3.7c-0.8,1.5-1.5,3.1-2.1,4.9c-0.7,1.8-1.2,3.6-1.7,5.5
		c-0.5,1.9-0.8,3.7-1.1,5.3c-0.2,1.7-0.3,3.2-0.2,4.5c0.1,1.3,0.4,2.3,0.9,3c0.3,0.4,0.7,0.8,1.1,1c0.4,0.2,0.8,0.4,1.3,0.5
		c0.4,0.1,0.9,0.1,1.3,0.1c0.4,0,0.8-0.1,1-0.2c0.3-0.1,0.5-0.3,0.5-0.5c0.1-0.2,0.1-0.4,0.1-0.5c0-0.8,0.1-1.6,0.3-2.6
		c0.2-0.9,0.5-1.9,0.8-2.9c0.3-1,0.7-1.9,1.1-2.9c0.4-0.9,0.8-1.8,1.2-2.6c0.4-0.8,0.8-1.5,1.2-2c0.4-0.6,0.7-0.9,0.9-1.2
		c0.2-0.2,0.4-0.3,0.5-0.3c0.1,0,0.2,0.1,0.2,0.2c0,0.1,0,0.3,0,0.5c0,0.2-0.1,0.4-0.2,0.7c-1.3,3.6-2.1,6.6-2.6,9.2
		c-0.4,2.6-0.6,4.7-0.5,6.5c0.1,1.8,0.4,3.1,0.9,4.2c0.5,1,1.1,1.8,1.8,2.3c0.7,0.5,1.4,0.8,2.2,0.9c0.7,0.1,1.4,0,1.9-0.2
		c0.7-0.2,1.4-0.6,2.1-1c0.2-0.1,0.4-0.3,0.5-0.4V75.7L108.4,75.7z M64.3,70.8c0.6-0.2,1.2-0.6,2-1.2c0.8-0.6,1.6-1.3,2.4-2.1
		c0.4-0.4,0.8-0.8,1.2-1.2c-0.1,0.7-0.1,1.3,0.1,1.8c0.2,0.7,0.9,1.1,2.1,1.3c0.7,0,1.6-0.4,2.7-1.3c1.1-0.9,2.3-2,3.6-3.4
		c1.3-1.4,2.6-2.8,3.9-4.4c1.3-1.6,2.5-3.1,3.5-4.4c-0.5,1.3-1.2,2.8-2,4.3c-0.8,1.6-1.6,3.1-2.5,4.7c-0.9,1.6-1.8,3.2-2.7,4.7
		c-0.9,1.6-1.8,3-2.7,4.3c-0.6,0.9-1.2,1.9-1.9,2.8c-0.7,1-1.5,1.8-2.4,2.5c-0.9,0.7-1.8,1.1-2.8,1.4c-1,0.2-2.1,0.1-3.2-0.5
		c-0.2-0.1-0.3,0.1-0.3,0.4s0,0.8,0.1,1.4c0.1,0.6,0.3,1.2,0.6,1.9c0.3,0.7,0.6,1.3,1.1,1.9c0.3,0.3,0.7,0.7,1.1,0.9
		c0.5,0.3,1,0.5,1.6,0.6c0.6,0.1,1.2,0.1,1.9-0.1c0.7-0.2,1.4-0.5,2.2-1.1c1.3-0.9,2.5-2.3,3.7-4.1c1.2-1.8,2.4-3.9,3.6-6.2
		c1.2-2.3,2.3-4.7,3.4-7.3c1.1-2.5,2.1-5,3.1-7.3c0.1-0.2,0.2-0.6,0.4-1.2c0.2-0.6,0.4-1.3,0.7-2c0.2-0.8,0.4-1.6,0.6-2.4
		c0.2-0.8,0.2-1.6,0.2-2.2c-0.1-0.7-0.2-1.2-0.6-1.6c-0.3-0.4-0.9-0.5-1.6-0.4c-0.7,0.7-1.4,1.5-2.1,2.4c-0.7,0.9-1.5,1.8-2.2,2.7
		c-0.8,0.9-1.5,1.8-2.2,2.7c-0.7,0.9-1.4,1.6-2.1,2.3c-0.6,0.7-1.2,1.2-1.7,1.6c-0.5,0.4-0.9,0.6-1.2,0.6c-0.3,0-0.3-0.2-0.2-0.6
		c0.1-0.4,0.3-0.8,0.7-1.4c0.3-0.6,0.7-1.2,1.1-1.9c0.4-0.7,0.8-1.4,1.2-2.1c0.4-0.7,0.6-1.4,0.8-2.1c0.2-0.7,0.1-1.2-0.1-1.7
		c-0.2-0.5-0.7-0.8-1.4-1.1c-0.7-0.2-1.7-0.3-3.1-0.2c0.3,0.5,0.2,1.3-0.1,2.3c-0.2,0.6-0.5,1.3-0.8,2.1c-1.3,1.6-2.5,3.1-3.7,4.4
		c-0.6,0.7-1.3,1.4-1.9,2c-0.6,0.7-1.3,1.3-1.9,1.8c-0.6,0.5-1.2,0.9-1.7,1.2c-0.1,0-0.1,0.1-0.2,0.1V70.8L64.3,70.8z M64.3,62.8
		v-2.2c0.1-0.1,0.2-0.2,0.3-0.3c0.7-0.6,1.3-1.3,1.8-1.9c0.5-0.5,0.8-1,1-1.4c0.2-0.4,0.3-0.8,0.3-1c0-0.4-0.1-0.5-0.4-0.5
		c-0.3,0-0.6,0.2-1.1,0.6c-0.3,0.3-0.6,0.6-0.9,1.1c-0.3,0.4-0.7,0.9-1,1.4l0,0v-5.6c0.4-0.3,0.7-0.5,1.1-0.7
		c0.8-0.4,1.5-0.7,2.2-0.7h0.2c1.2,0.1,2,0.3,2.5,0.7c0.5,0.4,0.7,1,0.7,1.7c0,0.8-0.3,1.8-0.9,2.9c-0.6,1.1-1.4,2.1-2.3,3.1
		c-0.9,1-1.9,1.8-2.9,2.5C64.6,62.6,64.5,62.7,64.3,62.8z M64.3,79.9c-0.5,0.4-1.2,0.7-2.1,0.9c-0.2,0-0.3,0.1-0.5,0.1v-6.8
		c0.4-0.2,0.8-0.4,1.1-0.7c0.5-0.4,0.8-1.1,0.9-2c0-0.3,0.1-0.4,0.3-0.4c0.1,0,0.2,0,0.2,0V79.9L64.3,79.9z M64.3,53.1
		c-0.4,0.3-0.8,0.7-1.2,1.1c-0.4,0.4-0.9,0.9-1.3,1.4v15.6c0.1,0,0.2,0,0.4,0c0.7,0,1.5-0.1,2.2-0.4l0,0v-4
		c-0.4,0.2-0.8,0.4-1.1,0.4c-0.2,0-0.3,0-0.3,0c-0.4-0.2-0.6-0.5-0.8-0.9c-0.1-0.4-0.2-0.9-0.2-1.4c0-0.2,0-0.4,0-0.5
		c0-0.2,0-0.3,0.1-0.5c0.7-0.1,1.5-0.5,2.3-1v-2.2c-0.6,0.5-1.2,1-1.8,1.4c0.2-0.6,0.5-1.2,0.8-1.7c0.3-0.6,0.6-1.1,1-1.6V53.1z
		 M61.8,80.9c-1.3,0.2-2.6,0.1-3.9-0.3c-1.4-0.5-2.7-1.2-3.8-2.2c-1.1-0.9-2-1.9-2.9-3.1V68c0.4,0.8,1,1.5,1.6,2.3
		c0.7,0.9,1.5,1.7,2.4,2.4c0.9,0.7,1.8,1.2,2.8,1.5c1,0.3,2.1,0.4,3.2,0.1c0.2,0,0.4-0.1,0.6-0.2V80.9L61.8,80.9z M51.2,43.7
		c3.4-2.5,7.2-3.4,9.5-0.3c0.6,0.8,0.9,1.8,0.9,3.1c0,1.3-0.2,2.8-0.7,4.4c-0.5,1.6-1.3,3.2-2.3,4.7c-1,1.5-2.3,2.9-3.9,4.2
		c-1,0.8-2.2,1.5-3.4,2.1v-5.5c0.3-0.3,0.5-0.6,0.8-0.9c0.7-1,1.4-2,2-3c0.6-1,1.1-2,1.4-2.8c0.3-0.8,0.5-1.5,0.4-2
		c0-0.5-0.3-0.6-0.9-0.5c-0.3,0.1-0.7,0.4-1.2,0.8c-0.5,0.5-0.9,1-1.5,1.7c-0.3,0.5-0.7,1-1,1.5V43.7L51.2,43.7z M61.8,55.6
		c-0.3,0.4-0.6,0.7-0.9,1.1c-0.7,1-1.3,2-1.8,3.1c-0.5,1.1-0.9,2.2-1.2,3.2c-0.3,1.1-0.5,2.1-0.5,3.1c0,0.5,0.1,1,0.2,1.5
		c0.1,0.5,0.3,1,0.5,1.4c0.4,0.7,0.9,1.2,1.6,1.6c0.6,0.4,1.3,0.6,2.1,0.6V55.6z M51.2,75.3c-0.1-0.1-0.2-0.3-0.3-0.4
		c-1-1.3-1.8-2.7-2.4-4.2c-0.7-1.5-1.2-2.9-1.5-4.3c-0.3-1.4-0.5-2.7-0.4-3.8c-0.3-0.1-0.5-0.3-0.7-0.5c-0.4,1.7-0.6,3.5-0.8,5.4
		c-0.2,1.9-0.2,3.8-0.1,5.7c0,0.2-0.1,0.3-0.2,0.5c-0.1,0.2-0.4,0.4-0.7,0.4c-0.3,0.1-0.7,0.1-1.2,0.1c-0.4,0-0.9-0.1-1.4-0.3
		c-0.5-0.2-0.9-0.5-1.3-0.8c-0.4-0.4-0.8-0.8-1.1-1.4c-0.4-0.7-0.6-1.7-0.5-2.9c0.1-1.2,0.3-2.6,0.6-4.1c0.4-1.5,0.9-3.1,1.5-4.8
		c0.6-1.7,1.4-3.4,2.2-5c0.8-1.7,1.7-3.2,2.6-4.8c1.3-2.3,3.3-4.7,5.6-6.3v7.5c-0.2,0.3-0.3,0.5-0.5,0.8c-0.5,0.9-1.1,1.7-1.6,2.6
		c-0.5,0.9-1,1.7-1.4,2.6s-0.8,1.6-1.1,2.3c0.4,0,0.7-0.1,1.1-0.2c0.6-0.2,1.3-0.6,2.1-1.4c0.5-0.5,1-1,1.5-1.6v5.5
		c-0.6,0.3-1.3,0.5-1.9,0.7c0,0.6,0.1,1.3,0.4,2.2c0.3,0.9,0.7,1.8,1.2,2.7c0.1,0.2,0.2,0.3,0.3,0.5V75.3z"/>
	<path class="st2" d="M152.4,41.3c0.6,0,1.2,0.2,1.8,0.5c0.6,0.3,1,0.7,1.3,1.3c0.3,0.6,0.5,1.2,0.5,1.8c0,0.6-0.2,1.2-0.5,1.8
		c-0.3,0.6-0.8,1-1.3,1.3c-0.6,0.3-1.2,0.5-1.8,0.5h0v-0.6h0c0.5,0,1-0.1,1.5-0.4c0.5-0.3,0.8-0.6,1.1-1.1c0.3-0.5,0.4-1,0.4-1.5
		c0-0.5-0.1-1-0.4-1.5c-0.3-0.5-0.6-0.8-1.1-1.1c-0.5-0.3-1-0.4-1.5-0.4h0L152.4,41.3L152.4,41.3L152.4,41.3z M152.4,45.4
		c0.2,0.1,0.3,0.4,0.6,0.8l0.3,0.6h0.8l-0.5-0.8c-0.2-0.4-0.4-0.6-0.6-0.8c-0.1-0.1-0.2-0.1-0.3-0.2c0.3,0,0.6-0.1,0.8-0.3
		c0.2-0.2,0.3-0.5,0.3-0.7c0-0.2-0.1-0.4-0.2-0.6c-0.1-0.2-0.3-0.3-0.5-0.4c-0.2-0.1-0.4-0.1-0.7-0.1v0.5c0.2,0,0.3,0,0.4,0.1
		c0.1,0,0.2,0.1,0.3,0.2c0.1,0.1,0.1,0.2,0.1,0.3c0,0.2-0.1,0.3-0.2,0.4c-0.1,0.1-0.3,0.1-0.5,0.2V45.4z M152.4,48.4
		c-0.6,0-1.2-0.2-1.8-0.5c-0.6-0.3-1-0.8-1.3-1.3c-0.3-0.6-0.5-1.2-0.5-1.8c0-0.6,0.2-1.2,0.5-1.8c0.3-0.6,0.8-1,1.3-1.3
		c0.6-0.3,1.2-0.5,1.8-0.5v0.6c-0.5,0-1,0.1-1.5,0.4c-0.5,0.3-0.8,0.6-1.1,1.1c-0.3,0.5-0.4,1-0.4,1.5c0,0.5,0.1,1,0.4,1.5
		c0.3,0.5,0.6,0.8,1.1,1.1c0.5,0.3,1,0.4,1.5,0.4V48.4L152.4,48.4z M152.4,43c-0.1,0-0.2,0-0.2,0h-1.3v3.8h0.6v-1.6h0.4
		c0.2,0,0.4,0,0.5,0.1c0,0,0.1,0,0.1,0.1v-0.7c-0.1,0-0.1,0-0.2,0h-0.8v-1.2h0.7c0.1,0,0.2,0,0.2,0V43z"/>
	<path class="st1" d="M129.4,32.6c0.1,0,0.3-0.1,0.4-0.2c0.6-0.4,1-1.3,0.9-2.1c-0.2-0.9-0.7-1.3-1.3-1.3V32.6L129.4,32.6z
		 M129.4,42.8V41c0.2-0.1,0.4-0.2,0.5-0.2c1.9-1.1,2.9-1.8,4.3-3.5c0.2-0.2,0.7-1,0.9-1.1c0.4-0.3,0.9,0.1,0.9,0.6l-0.6,3
		c-0.2,1.1-0.3,1.8-1.2,2.6c-1.1,0.9-3.2,1.2-4.5,0.5C129.7,42.9,129.6,42.9,129.4,42.8z M122.5,26.2c-2.4,2.7-5,7.4-5.9,10
		c-0.6,1.7-0.8,4.1,0,5.7c1.7,3.2,7,1.5,9.4-0.5c1.3-1.1,2.6-2.6,2.4-4.4c-0.3-2.7-2.8-1.7-3.4-2.4c-0.4-0.4,0.5-1.4,0.8-1.7
		c1.3-1.2,2.5-0.1,3.6-0.4V29c-0.8,0-1.8,0.6-2.4,1.2c-1,1-2.6,2.6-3.3,3.8c-3.1,5.1,1.3,4.2,0.9,5.3c-0.3,1-4.8,3.6-4.8-1
		c0-1.7,0.6-4.1,1.2-5.8c0.3-0.9,2.1-5,2.5-5.9C124.8,24.2,123.9,24.6,122.5,26.2L122.5,26.2z M129.4,41v1.8c-0.4-0.2-0.7-0.3-1-0.4
		C127.6,41.9,128.7,41.4,129.4,41L129.4,41z M113.6,41.2v-2.9c0.2-0.1,0.4-0.2,0.5-0.3c1.1-0.1,0.4,1.9,0,2.4
		C114,40.7,113.8,41,113.6,41.2L113.6,41.2z M113.6,35.4v-3.1c0.3-0.2,0.6-0.4,0.8-0.5c0.5-0.3,0.8,0.2,1,0.6
		c0.2,0.4,0.6,0.7,0.5,1.2c-0.1,0.5-1.4,1.5-1.8,1.7C113.8,35.4,113.7,35.4,113.6,35.4L113.6,35.4z M113.6,27.7v-0.7
		C113.9,26.9,114,27.1,113.6,27.7L113.6,27.7z M121.9,47.2c-0.3-0.5,0.8-2,1.2-2.2c1-0.4,1.7,1.2,2.1,1.3c0.3,0.1,0.8-1.5,1.5-1.8
		c0.6-0.3,1.9,0.7,2.1,1.3c0.3,0.6-0.7,2-1.2,2.1c-0.6,0.2-1.9-1.1-2.1-0.9c-0.3,0.2-0.5,1.9-1.6,1.8
		C123.5,48.7,122.2,47.6,121.9,47.2z M113.6,26.9v0.7c-0.2,0.3-0.5,0.7-0.9,1.3c-1.9,2.3-3.1,6.4-2.9,9.3c0.1,1.3,0.7,2,2,1.5
		c0.6-0.2,1.3-1,1.9-1.4v2.9c-1.9,2.2-5.8,4.3-7.5,2c-1.3-1.7-0.4-4.8,0.2-6.7c1-3,2.8-5.5,4.8-7.8C111.9,27.9,113.1,27,113.6,26.9
		L113.6,26.9z M113.6,32.3c-0.5,0.4-1.1,0.9-1.1,1.1c0,0.3,0.4,0.9,0.6,1.2c0.2,0.3,0.2,0.7,0.5,0.7V32.3z"/>
</g>
</svg>
