<?xml version="1.0" encoding="utf-8"?>
<!-- Generator: Adobe Illustrator 24.0.2, SVG Export Plug-In . SVG Version: 6.00 Build 0)  -->
<svg version="1.1" id="Layer_1" xmlns="http://www.w3.org/2000/svg" xmlns:xlink="http://www.w3.org/1999/xlink" x="0px" y="0px"
	 viewBox="0 0 211 133" style="enable-background:new 0 0 211 133;" xml:space="preserve">
<style type="text/css">
	.st0{fill-rule:evenodd;clip-rule:evenodd;fill:#4B4B4D;}
	.st1{fill-rule:evenodd;clip-rule:evenodd;fill:#42BFBE;}
	.st2{fill-rule:evenodd;clip-rule:evenodd;fill:#FBD74C;}
	.st3{fill-rule:evenodd;clip-rule:evenodd;fill:#62BA51;}
</style>
<g>
	<path class="st0" d="M111.7,53c0,3.2-2.6,5.9-5.9,5.9c-3.2,0-5.9-2.6-5.9-5.9c0-3.2,2.6-5.9,5.9-5.9C109,47.1,111.7,49.7,111.7,53z
		"/>
	<path class="st0" d="M105.9,30.4c-12.5,0-22.6,10.1-22.6,22.6s10.1,22.6,22.6,22.6c12.5,0,22.6-10.1,22.6-22.6
		S118.3,30.4,105.9,30.4L105.9,30.4z M130.1,59.6c2.6-1,4.5-3.5,4.5-6.4c0-2.9-1.8-5.4-4.4-6.4c0.5,2,0.8,4.1,0.8,6.2
		C130.9,55.3,130.6,57.5,130.1,59.6L130.1,59.6z M129.2,44c4.4,0.7,7.8,4.6,7.8,9.2c0,4.6-3.4,8.5-7.9,9.2
		c-3.7,9.2-12.7,15.7-23.2,15.7c-10.5,0-19.5-6.5-23.2-15.7c-4.6-0.6-8.1-4.5-8.1-9.2c0-4.7,3.5-8.6,8-9.2
		c3.6-9.3,12.7-15.9,23.3-15.9C116.5,27.9,125.6,34.6,129.2,44L129.2,44z M81.7,59.6c-0.6-2.1-0.9-4.3-0.9-6.6
		c0-2.2,0.3-4.3,0.8-6.4C79,47.5,77,50.1,77,53.1C77,56.1,79,58.7,81.7,59.6z"/>
	<path class="st1" d="M118.2,36.2c-3.8-2.8-8.2-4.1-12.5-4.1l0,4.5l0,4.1v0.6c2.4,0,4.9,0.7,7,2.3c5.2,3.9,6.3,11.2,2.4,16.4
		c-3.9,5.2-11.2,6.3-16.4,2.4c-4-3-5.6-8.1-4.3-12.6l-0.2-0.1L90,48.5l-4.3-1.2c-2.3,8.1,0.5,17.2,7.7,22.5
		c9.3,6.9,22.4,4.9,29.3-4.4C129.5,56.1,127.5,43,118.2,36.2z"/>
	<path class="st2" d="M115.5,39.7c-2.9-2.1-6.3-3.2-9.7-3.2h0l0,4.1v0.6c2.4,0,4.9,0.7,7,2.3c5.2,3.9,6.3,11.2,2.4,16.4
		c-3.9,5.2-11.2,6.3-16.4,2.4c-4-3-5.6-8.1-4.3-12.6l-0.2-0.1L90,48.5c-1.8,6.4,0.4,13.6,6.1,17.8c7.3,5.3,17.6,3.7,22.9-3.6
		C124.4,55.3,122.8,45,115.5,39.7z"/>
	<path class="st3" d="M115.4,60.1c-3.9,5.3-11.4,6.4-16.7,2.5c-4.1-3-5.7-8.2-4.4-12.8l0.2,0.1l3.1,0.9l0.1,0l0.5,0.1l0.2,0.1
		c-0.2,0.7-0.3,1.4-0.3,2.1c0,4.2,3.4,7.7,7.7,7.7c4.2,0,7.7-3.4,7.7-7.7c0-4.2-3.4-7.7-7.7-7.7h0v-0.8l0-3.2v-0.2
		c2.5,0,5,0.8,7.1,2.3C118.2,47.3,119.3,54.8,115.4,60.1z"/>
	<path class="st0" d="M58.1,88.5c0.8,0,1.6,0.4,2.1,0.9c0.5,0.6,0.9,1.4,0.9,2.2v0.9l0,0c0,0.9-0.4,1.7-0.9,2.4
		c-0.6,0.6-1.4,1-2.2,1h-3.1c-1,0-1.8-0.3-2.4-0.9c-0.6-0.6-1-1.4-1-2.3v-0.7c0-0.3,0.1-0.6,0.3-0.8c0.2-0.2,0.5-0.4,0.8-0.4
		c0.3,0,0.6,0.2,0.8,0.4h0c0.2,0.2,0.3,0.5,0.3,0.8v0.7c0,0.3,0.1,0.5,0.3,0.7c0.2,0.2,0.6,0.3,0.9,0.3H58c0.3,0,0.5-0.1,0.7-0.3
		c0.2-0.2,0.3-0.5,0.3-0.8v-0.9c0-0.2-0.1-0.5-0.2-0.6c-0.1-0.2-0.3-0.2-0.6-0.2h-4.1c-0.8,0-1.5-0.3-2-0.9
		c-0.5-0.5-0.8-1.3-0.8-2.1v-0.6c0-0.9,0.4-1.7,0.9-2.3c0.6-0.6,1.3-1,2.2-1h3.5c0.8,0,1.4,0.3,2,0.9c0.5,0.5,0.8,1.3,0.8,2.1
		c0,0.3-0.1,0.6-0.3,0.8c-0.2,0.2-0.5,0.4-0.8,0.4c-0.3,0-0.6-0.2-0.8-0.4c-0.2-0.2-0.3-0.5-0.3-0.8c0-0.2-0.1-0.3-0.2-0.5
		c-0.1-0.1-0.3-0.2-0.4-0.2h-3.5c-0.2,0-0.5,0.1-0.6,0.3c-0.2,0.2-0.3,0.4-0.3,0.7v0.6c0,0.2,0.1,0.4,0.2,0.5
		c0.1,0.1,0.3,0.2,0.4,0.2H58.1L58.1,88.5z M96.9,85.8c0.3-0.2,0.6-0.4,1.1-0.4c0.4,0,0.7,0.1,1,0.3c0.2,0.2,0.4,0.5,0.4,0.8
		c0,0.4-0.1,0.8-0.4,1.1c-0.2,0.2-0.5,0.4-1.1,0.7c-0.1,0.1-0.3,0.1-0.4-0.1c-0.4-0.4-0.5-0.6-0.6-0.8c-0.2-0.3-0.3-0.6-0.3-0.9
		C96.5,86.4,96.6,86.1,96.9,85.8L96.9,85.8z M97.7,94.3c-0.6,0-1.2-0.2-1.6-0.5c-0.4-0.3-0.7-0.8-0.7-1.4c0-0.5,0.2-1,0.5-1.4
		c0.2-0.2,0.5-0.4,0.9-0.7c0.1-0.1,0.3-0.1,0.4,0.1l2.4,2.6c0.1,0.1,0.1,0.4,0,0.5C99,94.1,98.4,94.3,97.7,94.3L97.7,94.3z
		 M101.9,93.2c0.6-0.9,1-1.9,1.2-2.8c0.1-0.5-0.3-1-0.8-0.9c-0.4,0-0.7,0.3-0.7,0.6c-0.1,0.6-0.4,1.5-0.6,2l-2.2-2.4
		c0.6-0.3,1.1-0.6,1.5-1c0.6-0.6,0.9-1.3,0.9-2c0-0.8-0.3-1.4-0.9-1.9c-0.6-0.4-1.3-0.6-2-0.6c-0.8,0-1.5,0.2-2.1,0.6
		c-0.7,0.5-1,1.2-1,2c0,0.9,0.4,1.7,1.2,2.6c-1.6,0.7-2.4,1.8-2.4,3.2c0,1.1,0.4,1.9,1.2,2.5c0.7,0.5,1.6,0.8,2.6,0.8
		c1.3,0,2.4-0.4,3.3-1.3l0.8,0.9c0.1,0.2,0.4,0.3,0.6,0.3c0.7,0,1-0.8,0.6-1.3L101.9,93.2L101.9,93.2z M156.3,86.1h-2.6v3.3h2.5l0,0
		c0.8,0,1.4-0.4,1.7-0.9v0c0.1-0.2,0.2-0.4,0.2-0.7c0-0.2,0-0.5-0.1-0.7C157.8,86.6,157.2,86.2,156.3,86.1L156.3,86.1z M158.4,91.3
		l1.7,2.9l0,0c0.1,0.3,0.2,0.6,0.1,0.8c-0.1,0.3-0.2,0.5-0.5,0.7l0,0c-0.1,0.1-0.2,0.1-0.3,0.1c-0.1,0-0.2,0-0.3,0
		c-0.2,0-0.4-0.1-0.5-0.2h0c-0.1-0.1-0.3-0.2-0.4-0.4l0,0l-2-3.6l-2.6,0v3.1c0,0.3-0.1,0.6-0.3,0.8l0,0c-0.2,0.2-0.5,0.4-0.7,0.4
		c-0.3,0-0.6-0.1-0.7-0.4c-0.2-0.2-0.3-0.5-0.3-0.8h0l0-9.7h0c0-0.3,0.1-0.6,0.3-0.8v0c0.2-0.2,0.5-0.4,0.8-0.4h3
		c1.2,0,2.3,0.1,3.1,0.6h0c0.8,0.5,1.4,1.4,1.6,2.9l0,0C160.3,87.4,160.6,90.5,158.4,91.3L158.4,91.3z M135,95.9
		c-1.4,0-2.8-0.6-3.7-1.6v0c-1-1-1.6-2.3-1.6-3.8v-1.2c0-1.5,0.6-2.8,1.6-3.8c1-1,2.3-1.6,3.7-1.6h0.5c0.7,0,1.4,0.2,2.1,0.4
		c0.7,0.3,1.3,0.7,1.8,1.2l0,0c0.2,0.2,0.3,0.5,0.3,0.8c0,0.3-0.1,0.6-0.2,0.8l0,0c0,0,0,0.1-0.1,0.1c-0.2,0.2-0.4,0.3-0.7,0.3
		c-0.2,0-0.5-0.1-0.7-0.2c0,0-0.1,0-0.1-0.1l0,0c-0.3-0.3-0.7-0.6-1.1-0.8c-0.4-0.2-0.8-0.3-1.3-0.3H135c-0.9,0-1.7,0.4-2.2,0.9
		c-0.6,0.6-0.9,1.3-0.9,2.2v1.2c0,0.9,0.4,1.6,0.9,2.2c0.6,0.6,1.4,0.9,2.2,0.9h0.5c0.4,0,0.8-0.1,1.2-0.2c0.3-0.1,0.6-0.3,0.9-0.6
		v-1.1h-1.9c-0.3,0-0.6-0.1-0.7-0.4c-0.2-0.2-0.3-0.5-0.3-0.8c0-0.3,0.1-0.6,0.3-0.8c0.2-0.2,0.5-0.4,0.8-0.4h3
		c0.3,0,0.6,0.1,0.8,0.4v0c0.2,0.2,0.3,0.5,0.3,0.8v2.8c0,0.1,0,0.3-0.1,0.4v0c0,0.1-0.1,0.3-0.2,0.4l0,0c-0.5,0.6-1.1,1-1.8,1.3
		c-0.7,0.3-1.4,0.5-2.1,0.5H135L135,95.9z M122.7,95.9c-1.8-0.2-2.9-1-3.5-2c-0.6-1-0.7-2.2-0.7-3.5V85c0-0.3,0.1-0.6,0.3-0.8
		c0.2-0.2,0.5-0.4,0.7-0.4c0.3,0,0.6,0.1,0.8,0.4c0.2,0.2,0.3,0.5,0.3,0.8v5.3c0,1,0.1,1.8,0.4,2.3c0.3,0.5,0.9,0.8,1.8,0.9h1
		c0.3,0,0.6,0,0.8-0.1c0.2-0.1,0.4-0.2,0.6-0.4l0,0c0.3-0.3,0.5-0.8,0.6-1.2c0.1-0.5,0.1-1,0.1-1.4V85c0-0.3,0.1-0.6,0.3-0.8
		c0.2-0.2,0.5-0.4,0.8-0.4c0.3,0,0.6,0.1,0.7,0.4l0,0c0.2,0.2,0.3,0.5,0.3,0.8v5.3c0,0.9-0.1,1.7-0.3,2.4v0c-0.2,0.7-0.6,1.3-1,1.8
		l0,0c-0.4,0.4-0.8,0.7-1.3,0.9c-0.5,0.2-1,0.3-1.6,0.3L122.7,95.9L122.7,95.9L122.7,95.9z M113.8,88.5c0.8,0,1.6,0.4,2.1,0.9
		c0.5,0.6,0.9,1.4,0.9,2.2v0.9l0,0c0,0.9-0.4,1.7-0.9,2.4c-0.6,0.6-1.4,1-2.2,1h-3.1c-1,0-1.8-0.3-2.4-0.9c-0.6-0.6-1-1.4-1-2.3
		v-0.7c0-0.3,0.1-0.6,0.3-0.8c0.2-0.2,0.5-0.4,0.8-0.4c0.3,0,0.6,0.2,0.8,0.4c0.2,0.2,0.3,0.5,0.3,0.8v0.7c0,0.3,0.1,0.5,0.3,0.7
		c0.2,0.2,0.6,0.3,0.9,0.3h3.1c0.3,0,0.5-0.1,0.7-0.3c0.2-0.2,0.3-0.5,0.3-0.8v-0.9c0-0.2-0.1-0.5-0.2-0.6c-0.1-0.2-0.3-0.2-0.6-0.2
		h-4.1c-0.8,0-1.5-0.3-2-0.9c-0.5-0.5-0.8-1.3-0.8-2.1v-0.6c0-0.9,0.4-1.7,0.9-2.3c0.6-0.6,1.3-1,2.2-1h3.5c0.8,0,1.4,0.3,2,0.9
		c0.5,0.5,0.8,1.3,0.8,2.1c0,0.3-0.1,0.6-0.3,0.8c-0.2,0.2-0.5,0.4-0.8,0.4c-0.3,0-0.6-0.2-0.8-0.4c-0.2-0.2-0.3-0.5-0.3-0.8
		c0-0.2-0.1-0.3-0.2-0.5c-0.1-0.1-0.3-0.2-0.4-0.2h-3.5c-0.2,0-0.5,0.1-0.6,0.3c-0.2,0.2-0.3,0.4-0.3,0.7v0.6c0,0.2,0.1,0.4,0.2,0.5
		l0,0c0.1,0.1,0.3,0.2,0.4,0.2H113.8L113.8,88.5z M89.5,83.8c0.3,0,0.6,0.1,0.8,0.4c0.2,0.2,0.3,0.5,0.3,0.8c0,0.3-0.1,0.6-0.3,0.8
		c-0.2,0.2-0.5,0.4-0.7,0.4v0l-3.1,0v8.6c0,0.3-0.1,0.6-0.3,0.8l0,0c-0.2,0.2-0.5,0.4-0.7,0.4c-0.3,0-0.6-0.1-0.7-0.4
		c-0.2-0.2-0.3-0.5-0.3-0.8v-8.6l-2.6,0l0,0c-0.3,0-0.6-0.1-0.7-0.4c-0.2-0.2-0.3-0.5-0.3-0.8c0-0.3,0.1-0.6,0.3-0.8
		c0.2-0.2,0.5-0.4,0.7-0.4v0L89.5,83.8L89.5,83.8L89.5,83.8z M80.6,93.6h-5.5l0-8.7h0c0-0.3-0.1-0.6-0.3-0.8
		c-0.2-0.2-0.5-0.4-0.7-0.4c-0.3,0-0.6,0.1-0.7,0.4l0,0c-0.2,0.2-0.3,0.5-0.3,0.8h0l0,9.8h0c0,0.3,0.1,0.6,0.3,0.8
		c0.2,0.2,0.5,0.4,0.7,0.4h6.5c0.3,0,0.6-0.1,0.7-0.4c0.2-0.2,0.3-0.5,0.3-0.8c0-0.3-0.1-0.6-0.3-0.8v0
		C81.1,93.7,80.9,93.6,80.6,93.6L80.6,93.6z M147.2,91.7l-1.5-4.5l-1.6,4.5H147.2L147.2,91.7z M150.4,94.3c0.1,0.3,0.1,0.6,0,0.9v0
		c-0.1,0.3-0.3,0.5-0.6,0.6l0,0l0,0l0,0c-0.1,0-0.2,0.1-0.3,0.1c-0.2,0-0.4-0.1-0.6-0.2c-0.2-0.1-0.3-0.3-0.4-0.5l0,0L148,94h-4.7
		l-0.4,1.1h0c0,0,0,0.1,0,0.1l0,0c-0.1,0.2-0.3,0.4-0.5,0.5l0,0c-0.2,0.1-0.5,0.1-0.7,0.1l0,0c0,0-0.1,0-0.1,0v0
		c-0.2-0.1-0.4-0.3-0.5-0.6c-0.1-0.3-0.1-0.6,0-0.8v0l3.4-9.7l0,0c0.1-0.2,0.2-0.4,0.4-0.5c0.2-0.1,0.4-0.2,0.6-0.2h0.7
		c0.2,0,0.4,0.1,0.6,0.2l0,0c0.2,0.1,0.3,0.3,0.4,0.5v0L150.4,94.3L150.4,94.3L150.4,94.3z M68.6,91.7l-1.5-4.5l-1.6,4.5H68.6
		L68.6,91.7z M71.7,94.3c0.1,0.3,0.1,0.6,0,0.9v0c-0.1,0.3-0.3,0.5-0.6,0.6l0,0l0,0l0,0c-0.1,0-0.2,0.1-0.3,0.1
		c-0.2,0-0.4-0.1-0.6-0.2h0c-0.2-0.1-0.3-0.3-0.4-0.5l0,0L69.4,94h-4.7l-0.4,1.1h0c0,0,0,0.1,0,0.1l0,0c-0.1,0.2-0.3,0.4-0.5,0.5
		c-0.2,0.1-0.5,0.1-0.7,0.1l0,0c0,0-0.1,0-0.1,0v0c-0.2-0.1-0.4-0.3-0.5-0.6c-0.1-0.3-0.1-0.6,0-0.8v0l3.4-9.7l0,0
		c0.1-0.2,0.2-0.4,0.4-0.5l0,0c0.2-0.1,0.4-0.2,0.6-0.2h0.7c0.2,0,0.4,0.1,0.6,0.2l0,0c0.2,0.1,0.3,0.3,0.4,0.5v0L71.7,94.3
		L71.7,94.3z"/>
	<path class="st0" d="M67.1,101H68v5h-0.9V101L67.1,101z M63.6,101h0.9v5h-0.9V101L63.6,101z M64.1,103.2v0.7h3.5v-0.7H64.1
		L64.1,103.2z M72.9,106.1c-0.4,0-0.8-0.1-1.1-0.2c-0.3-0.2-0.6-0.4-0.8-0.7c-0.2-0.3-0.3-0.6-0.3-1v-1.4c0-0.4,0.1-0.7,0.3-1
		c0.2-0.3,0.4-0.5,0.8-0.7c0.3-0.2,0.7-0.2,1.1-0.2c0.4,0,0.8,0.1,1.1,0.2c0.3,0.2,0.6,0.4,0.8,0.7c0.2,0.3,0.3,0.6,0.3,1v1.4
		c0,0.4-0.1,0.7-0.3,1c-0.2,0.3-0.4,0.5-0.8,0.7C73.7,106,73.3,106.1,72.9,106.1L72.9,106.1z M72.9,105.4c0.3,0,0.5,0,0.7-0.1
		c0.2-0.1,0.3-0.2,0.5-0.4c0.1-0.2,0.2-0.4,0.2-0.6v-1.5c0-0.2-0.1-0.4-0.2-0.6c-0.1-0.2-0.3-0.3-0.5-0.4c-0.2-0.1-0.4-0.1-0.7-0.1
		c-0.3,0-0.5,0-0.7,0.1c-0.2,0.1-0.3,0.2-0.5,0.4c-0.1,0.2-0.2,0.4-0.2,0.6v1.5c0,0.2,0.1,0.4,0.2,0.6c0.1,0.2,0.3,0.3,0.5,0.4
		C72.4,105.3,72.6,105.4,72.9,105.4L72.9,105.4z M82.2,101H83v5h-0.9v-3.8l0,0.2l-1.5,2.9h-0.6l-1.5-2.8l0-0.3v3.8h-0.9v-5h0.8
		l1.8,3.3L82.2,101L82.2,101z M85.8,101h0.9v5h-0.9V101L85.8,101z M86.2,105.3v0.7h3.6v-0.7H86.2L86.2,105.3z M86.2,103.2v0.7h3.1
		v-0.7H86.2L86.2,103.2z M86.2,101v0.7h3.6V101H86.2L86.2,101z M96.8,101h0.8v5h-0.9v-3.8l0,0.2l-1.5,2.9h-0.6l-1.5-2.8l0-0.3v3.8
		h-0.9v-5h0.8l1.8,3.3L96.8,101L96.8,101z M102.1,101h0.7l2.3,5h-0.9l-1.7-4.1l-1.7,4.1h-0.9L102.1,101L102.1,101z M100.9,104.2v0.7
		h3.3v-0.7H100.9L100.9,104.2z M107.9,105.3h1.4c0.5,0,0.8-0.1,1.1-0.3c0.3-0.2,0.4-0.5,0.4-0.8v-1.5c0-0.4-0.1-0.6-0.4-0.8
		c-0.3-0.2-0.6-0.3-1.1-0.3h-1.4V101h1.4c0.5,0,0.9,0.1,1.3,0.2s0.6,0.3,0.8,0.6c0.2,0.3,0.3,0.6,0.3,1v1.4c0,0.4-0.1,0.7-0.3,1
		c-0.2,0.3-0.5,0.5-0.8,0.6c-0.4,0.1-0.8,0.2-1.3,0.2h-1.4V105.3L107.9,105.3z M107.4,101v5h0.9v-5H107.4L107.4,101z M114.4,101h0.9
		v5h-0.9V101L114.4,101z M114.8,105.3v0.7h3.6v-0.7H114.8L114.8,105.3z M114.8,103.2v0.7h3.1v-0.7H114.8L114.8,103.2z M114.8,101
		v0.7h3.6V101H114.8L114.8,101z M123.6,101h0.9v5h-0.9V101L123.6,101z M124.1,103.2v0.7h3v-0.7H124.1L124.1,103.2z M124.1,101v0.7
		h3.5V101H124.1L124.1,101z M131.9,106.1c-0.4,0-0.8-0.1-1.1-0.2c-0.3-0.2-0.6-0.4-0.8-0.7c-0.2-0.3-0.3-0.6-0.3-1v-1.4
		c0-0.4,0.1-0.7,0.3-1c0.2-0.3,0.4-0.5,0.8-0.7c0.3-0.2,0.7-0.2,1.1-0.2c0.4,0,0.8,0.1,1.1,0.2c0.3,0.2,0.6,0.4,0.8,0.7
		c0.2,0.3,0.3,0.6,0.3,1v1.4c0,0.4-0.1,0.7-0.3,1c-0.2,0.3-0.4,0.5-0.8,0.7C132.7,106,132.3,106.1,131.9,106.1L131.9,106.1z
		 M131.9,105.4c0.3,0,0.5,0,0.7-0.1c0.2-0.1,0.3-0.2,0.5-0.4c0.1-0.2,0.2-0.4,0.2-0.6v-1.5c0-0.2-0.1-0.4-0.2-0.6
		c-0.1-0.2-0.3-0.3-0.5-0.4c-0.2-0.1-0.4-0.1-0.7-0.1c-0.3,0-0.5,0-0.7,0.1c-0.2,0.1-0.3,0.2-0.5,0.4c-0.1,0.2-0.2,0.4-0.2,0.6v1.5
		c0,0.2,0.1,0.4,0.2,0.6c0.1,0.2,0.3,0.3,0.5,0.4C131.4,105.3,131.6,105.4,131.9,105.4L131.9,105.4z M138.8,106.1
		c-0.4,0-0.8-0.1-1.1-0.2c-0.3-0.2-0.6-0.4-0.8-0.7c-0.2-0.3-0.3-0.6-0.3-1v-1.4c0-0.4,0.1-0.7,0.3-1c0.2-0.3,0.4-0.5,0.8-0.7
		c0.3-0.2,0.7-0.2,1.1-0.2c0.4,0,0.8,0.1,1.1,0.2c0.3,0.2,0.6,0.4,0.8,0.7c0.2,0.3,0.3,0.6,0.3,1v1.4c0,0.4-0.1,0.7-0.3,1
		c-0.2,0.3-0.4,0.5-0.8,0.7C139.6,106,139.2,106.1,138.8,106.1L138.8,106.1z M138.8,105.4c0.3,0,0.5,0,0.7-0.1
		c0.2-0.1,0.3-0.2,0.5-0.4c0.1-0.2,0.2-0.4,0.2-0.6v-1.5c0-0.2-0.1-0.4-0.2-0.6c-0.1-0.2-0.3-0.3-0.5-0.4c-0.2-0.1-0.4-0.1-0.7-0.1
		c-0.3,0-0.5,0-0.7,0.1c-0.2,0.1-0.3,0.2-0.5,0.4c-0.1,0.2-0.2,0.4-0.2,0.6v1.5c0,0.2,0.1,0.4,0.2,0.6c0.1,0.2,0.3,0.3,0.5,0.4
		C138.3,105.3,138.5,105.4,138.8,105.4L138.8,105.4z M144.2,105.3h1.4c0.5,0,0.8-0.1,1.1-0.3c0.3-0.2,0.4-0.5,0.4-0.8v-1.5
		c0-0.4-0.1-0.6-0.4-0.8c-0.3-0.2-0.6-0.3-1.1-0.3h-1.4V101h1.4c0.5,0,0.9,0.1,1.3,0.2c0.4,0.1,0.6,0.3,0.8,0.6
		c0.2,0.3,0.3,0.6,0.3,1v1.4c0,0.4-0.1,0.7-0.3,1c-0.2,0.3-0.5,0.5-0.8,0.6c-0.4,0.1-0.8,0.2-1.3,0.2h-1.4V105.3L144.2,105.3z
		 M143.6,101v5h0.9v-5H143.6z"/>
</g>
</svg>
