<?xml version="1.0" encoding="utf-8"?>
<!-- Generator: Adobe Illustrator 24.0.2, SVG Export Plug-In . SVG Version: 6.00 Build 0)  -->
<svg version="1.1" id="Layer_1" xmlns="http://www.w3.org/2000/svg" xmlns:xlink="http://www.w3.org/1999/xlink" x="0px" y="0px"
	 viewBox="0 0 211 133" style="enable-background:new 0 0 211 133;" xml:space="preserve">
<style type="text/css">
	.st0{fill-rule:evenodd;clip-rule:evenodd;fill:#242E44;}
</style>
<g>
	<path class="st0" d="M72.2,47.6c0,0-8.8,6.3-12.9,9.9c-4,3.7-8.6,8.4-1.8,6c6.8-2.4,17.5-5.4,18.8-1.1c1.3,4.3-3.5,10.1-10.3,15.2
		c-6.8,5.1-15.3,10.4-19.4,9.8c-4.1-0.6-1-3.6,2-5.8c3-2.2,6.9-4.8,4.4-1.7c-2.6,3.1-3.6,4.9,0.4,2.2c2.8-1.8,29.7-21.7,11.4-16.4
		c-5.5,1.6-15.6,4.5-15.7,0C48.9,60.1,63.2,51.5,65.6,50c2.4-1.5,6.1-3.1,6.7-3.1C72.8,46.8,72.2,47.6,72.2,47.6z"/>
	<path class="st0" d="M100.4,64.6c2.5-7.9,4.5-14.6,5.4-18.6c0.3-1.4,1.3-5.2-0.5-6.1c-0.8-0.4-2.5,0.1-4.6,2.1
		c-2.4,2.3-2.8,3.1-1.7,2.7c1.1-0.4,3.5-2.4,2.9-0.5c-1.9,5.7-4.4,13.6-7.1,22.5c1.8-0.6,3.6-1,5.4-1.5
		C100.3,65,100.3,64.8,100.4,64.6L100.4,64.6z M93.1,72.4c-1.2,4.1-2.3,8.3-3.4,12.5c-0.5,1.9,0,2.4,0.8,1.9
		c2.1-1.2,5.6-10.1,7.8-16.4C96.6,71.1,94.8,71.7,93.1,72.4L93.1,72.4z M81.8,65.9c1-3.3,6.6-20.6,9.6-22.4c0.8-0.5,1.3,0,0.9,1.9
		c-2.1,8.6-4.5,17.1-6.7,24.6c-1.2,0.5-2.4,1-3.5,1.6c-0.8,0.4-1.5,0.7-2.3,1.1C80.4,70.6,81.1,68.3,81.8,65.9L81.8,65.9z
		 M77.9,79.4c-0.5,2-1,3.8-1.3,5.3c-0.3,1.4-1.3,5.2,0.6,6.1c0.8,0.4,2.5-0.1,4.6-2.2c2.3-2.3,2.7-3.1,1.6-2.7
		c-1.1,0.4-3.5,2.5-2.9,0.5c0.9-2.8,1.9-6.1,3-9.8C81.7,77.4,79.8,78.4,77.9,79.4z"/>
	<path class="st0" d="M133.8,60.7c1.1-2.5,9.5-23.4,6.6-9.9c-1.9,8.5-4.9,22.7-0.4,19.1c5.2-4.1,14-28.8,12.9-17.3
		c-0.3,2.7-0.6,5.2-0.4,7.1c0.5,7.4,10.5,1.7,12.1-2.6c-1.8,1.1-8.9,5.3-8.2-0.9c0.2-1.8,0.4-3.9,0.5-5.9c0.2-5.2-0.5-9.8-4.1-6.9
		c-2.4,1.9-4.2,4.6-5.6,6.8c-0.4,0.7-2.2,4.3-2.8,4.5c-0.3,0.1-0.3-0.8,0.4-3.4c0.7-2.7,1-5.6,1-7.9c0-4.3-1.3-6.8-4.5-4
		c-1.8,1.6-4.4,6-6.8,11.5c-2.2,5.1-4.7,11.7-6.9,17.8c-1.2,3.4-2.3,6.6-3,9.6c-0.7,2.8-0.9,4.3-0.4,4.6
		C124.9,83.4,132.9,62.6,133.8,60.7z"/>
	<path class="st0" d="M49.1,101.2c9.2-11.9,23.1-20.2,37.3-26.6c5.9-2.7,12.2-5,18.6-6.8c0.4-1.1,0.7-2.2,1.1-3.3
		C83.2,68.3,58.2,82.9,49.1,101.2L49.1,101.2z M111,66.4c1.9-0.4,3.9-0.8,5.8-1.1c0.1-0.6,0.3-1.2,0.4-1.7c-1.7,0-3.4,0.1-5.1,0.2
		C111.8,64.6,111.4,65.5,111,66.4L111,66.4z M122.3,64.7c1.6-0.1,3.2-0.2,4.7-0.2c-1.5-0.3-3-0.5-4.5-0.7
		C122.4,64.1,122.4,64.4,122.3,64.7z"/>
	<path class="st0" d="M105.1,69.5c2.2-7,4.8-14.4,8-21.2c1.7-3.6,3.8-9,7.8-10.2c7.1-2.1,4.6,8.5,4,12.2c-1.4,8.1-2.9,14.3-5,21.2
		c-0.1,0.3-1.2,3.8-2,6.6c-0.9,3-1.2,4.4,1,2.4c1.2-1.1,2.4-1.7-0.1,1.9c-3.5,4.9-6.8,5.1-5.2-1.2c5.3-20.3,10.6-46.1,3-28.9
		c-2.8,6.4-5.6,12.8-8.5,19.7c-1,2.4-6.6,19.1-8.8,18.8C97.7,90.6,103.7,73.8,105.1,69.5z"/>
	<path class="st0" d="M149.2,69.6c-0.3-0.4-0.4-1.3,0.6-1.7c1.3-0.5,2.5,0.8,2,1.9c-0.3,0.7-1.3,1.4-2.8,1.6c-1.1,0.2-1.1,0.7-1,1.7
		c0.2,2.1,0.4,4.3,0.6,6.4c3.1-0.3,5.8-1.3,8.3-3.3c-0.8,1.7-1.9,3.3-3.2,4.7l1.3-2.5c-1.7,1.4-4.6,2.4-6.4,2.4
		c-0.1,3.7-0.5,5.3-1.2,6.5c0.2-2.6,0.1-4.7,0-6.5c-4.6-0.9-4-3.8-3.6-6.9c0.3,4.4,1.8,5.6,3.5,5.6c0.1,0-0.4-4.8-0.5-6.6
		c-0.1-1.6,0.2-2.1,1.8-2.5c0.5-0.1,0.9-0.2,1.5-0.6c0.4-0.2,0.4-0.6,0.3-0.7C150.4,68.8,149.8,68.8,149.2,69.6L149.2,69.6z
		 M152.3,74.1c0.2-0.1,0.4,0.1,0.6,0.2l0.5,0.3c0.2,0.1,0.5-0.1,0.4-0.3c-0.1-0.3-0.6-0.9-0.8-1.1c-0.2-0.2-0.6,0.1-0.7,0.2
		c-0.4,0.4-0.6,0.7-1.1,1.1c-0.2,0.2-0.1,0.4-0.1,0.4C151.6,74.7,152,74.3,152.3,74.1z"/>
	<path class="st0" d="M162.9,47.9c0.6,0,1.1,0.1,1.6,0.4c0.5,0.3,0.9,0.7,1.2,1.2c0.3,0.5,0.4,1.1,0.4,1.6c0,0.6-0.1,1.1-0.4,1.6
		c-0.3,0.5-0.7,0.9-1.2,1.2c-0.5,0.3-1.1,0.4-1.6,0.4c-0.6,0-1.1-0.1-1.6-0.4c-0.5-0.3-0.9-0.7-1.2-1.2c-0.3-0.5-0.4-1.1-0.4-1.6
		c0-0.6,0.1-1.1,0.4-1.6c0.3-0.5,0.7-0.9,1.2-1.2C161.8,48,162.3,47.9,162.9,47.9L162.9,47.9z M162.9,48.4c-0.5,0-0.9,0.1-1.4,0.4
		c-0.4,0.2-0.8,0.6-1,1c-0.2,0.4-0.4,0.9-0.4,1.4c0,0.5,0.1,0.9,0.4,1.4c0.2,0.4,0.6,0.8,1,1c0.4,0.2,0.9,0.4,1.4,0.4
		c0.5,0,0.9-0.1,1.4-0.4c0.4-0.2,0.8-0.6,1-1c0.2-0.4,0.4-0.9,0.4-1.4c0-0.5-0.1-0.9-0.4-1.4c-0.2-0.4-0.6-0.8-1-1
		C163.8,48.6,163.3,48.4,162.9,48.4L162.9,48.4z M161.4,53h0.6v-1.5h0.3c0.2,0,0.4,0,0.5,0.1c0.2,0.1,0.4,0.4,0.6,0.8l0.3,0.6h0.7
		l-0.4-0.7c-0.2-0.3-0.4-0.6-0.5-0.7c-0.1-0.1-0.2-0.1-0.3-0.2c0.3,0,0.6-0.1,0.7-0.3c0.2-0.2,0.3-0.4,0.3-0.7
		c0-0.2-0.1-0.4-0.2-0.5c-0.1-0.2-0.3-0.3-0.4-0.3c-0.2-0.1-0.5-0.1-0.9-0.1h-1.2V53L161.4,53z M162,51h0.7c0.3,0,0.6,0,0.7-0.1
		c0.1-0.1,0.2-0.2,0.2-0.4c0-0.1,0-0.2-0.1-0.3c-0.1-0.1-0.1-0.1-0.2-0.2c-0.1,0-0.3-0.1-0.6-0.1H162V51z"/>
	<path class="st0" d="M70.1,103.5c0,0.1-0.1,0.3-0.1,0.5c0,0.2,0.1,0.4,0.2,0.5l0,0.2c-0.2,0-0.3,0-0.5,0.1c-0.1,0-0.3,0-0.4,0
		c-0.2,0-0.5,0-0.6-0.1c-0.2-0.1-0.3-0.2-0.4-0.3c-0.1-0.1-0.2-0.3-0.2-0.5s0-0.5,0.1-0.9l0.6-2.3l-1.5,0l-0.8,2.8
		c0,0.1-0.1,0.3-0.1,0.5c0,0.2,0.1,0.4,0.2,0.5l0,0.2c-0.2,0-0.3,0-0.5,0.1c-0.1,0-0.3,0-0.4,0c-0.2,0-0.4,0-0.6-0.1
		c-0.2-0.1-0.3-0.2-0.4-0.3c-0.1-0.1-0.2-0.3-0.2-0.5c0-0.2,0-0.5,0.1-0.9l1.4-5.3c0-0.1,0-0.2,0.1-0.3c0-0.1,0-0.2,0-0.3
		c0-0.1,0-0.2,0-0.3c0-0.1,0-0.2-0.1-0.2c-0.1-0.1-0.2-0.2-0.3-0.1l0-0.1c0.2-0.1,0.4-0.2,0.6-0.3c0.2-0.1,0.4-0.1,0.6-0.1
		c0.3,0,0.5,0.1,0.7,0.2c0.2,0.1,0.3,0.3,0.4,0.5C68,96.8,68,97,68,97.3c0,0.3,0,0.5-0.1,0.7l-0.6,2.1l1.5,0l0.8-2.8
		c0-0.1,0-0.2,0.1-0.3c0-0.1,0-0.2,0-0.3c0-0.1,0-0.2,0-0.3c0-0.1,0-0.2,0-0.2c-0.1-0.1-0.2-0.2-0.3-0.1l0-0.1
		c0.2-0.1,0.3-0.2,0.6-0.3c0.2-0.1,0.4-0.1,0.6-0.1c0.3,0,0.5,0.1,0.7,0.2c0.2,0.1,0.3,0.3,0.4,0.5c0.1,0.2,0.1,0.4,0.1,0.7
		c0,0.3,0,0.5-0.1,0.7L70.1,103.5L70.1,103.5z M81.9,103.1c-0.2,0.4-0.3,0.7-0.5,0.8c-0.2,0.1-0.3,0.2-0.5,0.1
		c-0.1,0-0.3-0.2-0.3-0.3c-0.1-0.2-0.1-0.4,0-0.6l0.5-1.7c0.1-0.2,0.1-0.5,0.1-0.7c0-0.3,0-0.5-0.1-0.7c-0.1-0.2-0.2-0.4-0.4-0.5
		c-0.2-0.1-0.4-0.2-0.7-0.2c-0.2,0-0.4,0-0.6,0.1c-0.2,0.1-0.4,0.2-0.6,0.3l0,0.1c0.1,0,0.2,0,0.3,0.1c0,0.1,0,0.1,0,0.2
		c0,0.1,0,0.2,0,0.3c0,0.1,0,0.2,0,0.3c0,0.1,0,0.2-0.1,0.3l-0.4,1.6c0,0.2-0.1,0.3-0.1,0.4c-0.1,0.1-0.1,0.2-0.2,0.4
		c-0.1,0.1-0.2,0.2-0.3,0.3c-0.1,0.1-0.3,0.1-0.4,0.1c-0.1,0-0.2-0.1-0.3-0.2c-0.1-0.1-0.1-0.3,0-0.4c0,0,0-0.1,0.1-0.3
		c0.1-0.2,0.1-0.4,0.2-0.6c0.1-0.2,0.1-0.4,0.2-0.6c0.1-0.2,0.1-0.3,0.1-0.3c0.1-0.4,0.2-0.8,0.1-1c-0.1-0.3-0.2-0.5-0.5-0.6
		c-0.2-0.1-0.5-0.1-0.8-0.1h0c-0.1,0-0.2,0-0.3-0.1c-0.1,0-0.2-0.1-0.3-0.1c-0.5-0.1-0.9-0.2-1.4-0.1c-0.4,0-0.8,0.2-1.2,0.3
		c-0.3,0.2-0.6,0.5-0.9,0.8c-0.3,0.3-0.4,0.8-0.6,1.3c-0.1,0.3-0.1,0.7-0.1,1c0,0.4,0.1,0.7,0.3,1c0.1,0.3,0.4,0.5,0.6,0.7
		c0.3,0.2,0.6,0.3,1,0.3c0.4,0,0.7-0.1,0.9-0.2c0.3-0.1,0.5-0.3,0.7-0.5c0.2,0.5,0.7,0.7,1.5,0.7c0.3,0,0.5,0,0.7-0.1
		c0.2-0.1,0.4-0.2,0.6-0.3c0.2-0.1,0.3-0.3,0.5-0.6c0,0.2,0.1,0.3,0.2,0.4c0.1,0.2,0.3,0.3,0.5,0.4c0.2,0.1,0.4,0.2,0.6,0.2
		c0.3,0,0.7,0,1-0.1c0.3-0.1,0.6-0.3,0.9-0.6l-0.2,0.8c0,0,0,0.1,0,0.2c0,0.1,0,0.1,0,0.2c-0.1,0.4-0.2,0.7-0.3,0.9
		c-0.1,0.2-0.3,0.4-0.4,0.6c-0.1,0.1-0.3,0.2-0.4,0.3c-0.1,0-0.2,0.1-0.3,0c-0.1,0-0.1-0.1-0.1-0.2c0-0.1,0-0.2,0-0.4
		c0-0.1,0.1-0.3,0.1-0.4c0-0.1,0.1-0.2,0.1-0.3c-0.2-0.1-0.3-0.2-0.5-0.3c-0.2-0.1-0.3-0.1-0.5-0.1c-0.2,0-0.3,0-0.5,0.1
		c-0.2,0.1-0.3,0.2-0.4,0.4c0,0.3,0.1,0.5,0.3,0.7c0.1,0.2,0.3,0.4,0.5,0.5s0.4,0.2,0.7,0.3c0.2,0.1,0.5,0.1,0.8,0.1
		c0.3,0,0.7,0,1-0.1c0.3-0.1,0.6-0.2,0.9-0.4c0.3-0.2,0.5-0.4,0.8-0.6c0.2-0.3,0.4-0.6,0.5-0.9c0-0.1,0.1-0.2,0.1-0.3
		c0-0.1,0.1-0.2,0.1-0.3l1.1-4.2c0.1-0.2,0.1-0.4,0.2-0.5c0.1-0.1,0.1-0.2,0.2-0.2l0-0.1c-0.7-0.4-1.3-0.5-1.7-0.4
		c-0.4,0.1-0.7,0.5-0.8,1L81.9,103.1L81.9,103.1z M75,103.4c0,0.2-0.2,0.3-0.3,0.4c-0.2,0.1-0.3,0.1-0.5,0c-0.2-0.1-0.3-0.3-0.4-0.6
		c-0.1-0.3,0-0.7,0.1-1.3c0.1-0.2,0.1-0.4,0.2-0.7c0.1-0.2,0.2-0.5,0.4-0.7c0.1-0.2,0.3-0.4,0.5-0.5c0.2-0.1,0.4-0.2,0.6-0.3
		c0.1,0,0.1,0,0.2,0.1c0,0.1,0,0.3,0,0.5c-0.1,0.2-0.1,0.5-0.2,0.8c-0.1,0.3-0.2,0.6-0.3,0.9c-0.1,0.3-0.2,0.6-0.2,0.8
		c0,0.1,0,0.1,0,0.2C75,103.2,75,103.3,75,103.4L75,103.4z M89.5,99.4c0.2,0.1,0.5,0.2,0.8,0.2c0.3,0,0.6,0,0.9,0
		c0.2,0,0.3,0,0.5,0.1c0.1,0,0.3,0.1,0.4,0.2c0.1,0.1,0.1,0.3,0.1,0.5c0,0.2,0,0.5-0.1,0.8c0,0,0,0.1-0.1,0.3
		c-0.1,0.2-0.1,0.4-0.2,0.6c-0.1,0.2-0.1,0.4-0.2,0.6c-0.1,0.2-0.1,0.3-0.1,0.3c0,0.2,0,0.3,0,0.4c0.1,0.1,0.2,0.2,0.3,0.2
		c0.1,0,0.3,0,0.4-0.1c0.1-0.1,0.3-0.2,0.4-0.3c0.1-0.1,0.2-0.3,0.3-0.4c0.1-0.1,0.1-0.3,0.2-0.4l0.2,0c-0.1,0.4-0.2,0.7-0.4,1
		c-0.1,0.3-0.3,0.5-0.5,0.6c-0.2,0.2-0.4,0.3-0.6,0.3c-0.2,0.1-0.5,0.1-0.7,0.1c-0.6,0-1.1-0.1-1.4-0.4c-0.3-0.3-0.3-0.7-0.2-1.4
		c0-0.1,0.1-0.3,0.1-0.6c0.1-0.3,0.1-0.5,0.2-0.8c0.1-0.3,0.2-0.6,0.2-0.8c0.1-0.3,0.1-0.5,0.2-0.6c-0.1,0-0.3,0-0.5-0.1
		c-0.2,0-0.3-0.1-0.4-0.1c-0.1,0.5-0.2,1-0.3,1.5c-0.1,0.5-0.3,0.9-0.4,1.4c-0.1,0.3-0.2,0.6-0.4,0.9c-0.1,0.3-0.3,0.5-0.5,0.6
		c-0.2,0.2-0.4,0.3-0.6,0.3c-0.2,0.1-0.5,0.1-0.7,0.1c-0.6,0-1.1-0.1-1.4-0.4c-0.3-0.3-0.4-0.7-0.2-1.4c0-0.2,0.1-0.5,0.2-0.8
		c0.1-0.3,0.2-0.6,0.3-0.9c0.1-0.3,0.2-0.5,0.2-0.7c0.1-0.2,0.1-0.4,0-0.5c-0.1-0.1-0.2-0.2-0.3-0.1l0-0.1c0.2-0.2,0.5-0.3,0.8-0.4
		c0.3-0.1,0.6-0.1,0.8,0c0.1,0,0.3,0.1,0.4,0.2c0.1,0.1,0.2,0.2,0.3,0.3c0.1,0.1,0.1,0.3,0.1,0.5c0,0.2,0,0.4-0.1,0.7
		c0,0,0,0.1-0.1,0.2c0,0.1-0.1,0.2-0.1,0.4c0,0.1-0.1,0.3-0.1,0.5c0,0.2-0.1,0.3-0.1,0.5c0,0.1-0.1,0.3-0.1,0.4c0,0.1,0,0.2,0,0.2
		c0,0.2,0,0.3,0,0.4c0.1,0.1,0.2,0.2,0.3,0.2c0.1,0,0.3,0,0.4-0.1c0.1-0.1,0.3-0.2,0.4-0.3c0.1-0.1,0.2-0.3,0.3-0.4
		c0-0.1,0.1-0.1,0.1-0.2c0.1-0.1,0.1-0.3,0.2-0.5c0.1-0.2,0.1-0.5,0.2-0.8c0.1-0.3,0.1-0.6,0.2-0.9c0.1-0.3,0.1-0.6,0.2-0.9
		c-0.2-0.1-0.4-0.3-0.6-0.4c-0.2-0.2-0.3-0.4-0.5-0.6c-0.2-0.5,0-1.4,0.6-1.6c0.2,0,0.3,0,0.5,0.1c0.1,0.1,0.3,0.3,0.3,0.7
		C89.5,98.4,89.5,98.9,89.5,99.4L89.5,99.4L89.5,99.4z M126.6,101.3c0.1-0.4,0.3-0.7,0.5-0.9c0.2-0.3,0.5-0.5,0.7-0.6
		c0.3-0.2,0.6-0.3,0.9-0.4c0.3-0.1,0.6-0.1,0.9-0.1c0.3,0,0.6,0.1,0.8,0.2c0.2,0.1,0.5,0.2,0.6,0.4c0.2,0.2,0.3,0.4,0.4,0.6
		c0.1,0.2,0.1,0.4,0.1,0.6c0,0.2-0.1,0.4-0.2,0.6c-0.1,0.2-0.3,0.4-0.6,0.6c-0.2,0.2-0.6,0.3-0.9,0.4c-0.4,0.1-0.8,0.1-1.3,0.1
		c0.1,0.5,0.5,0.9,1.1,1.1c0.3,0.1,0.6,0.1,0.8,0c0.2-0.1,0.5-0.2,0.7-0.3c0.2-0.1,0.4-0.3,0.5-0.6c0-0.1,0.1-0.1,0.1-0.2l1.3-5.4
		c0-0.1,0-0.2,0.1-0.3c0-0.1,0-0.2,0-0.3c0-0.1,0-0.2,0-0.3c0-0.1,0-0.2,0-0.2c0-0.1-0.1-0.2-0.3-0.1l0-0.1c0.1-0.1,0.3-0.2,0.5-0.3
		c0.2-0.1,0.4-0.1,0.6-0.1c0.3,0,0.5,0.1,0.6,0.2c0.2,0.1,0.3,0.3,0.4,0.5c0.1,0.2,0.1,0.4,0.1,0.7c0,0.3,0,0.5-0.1,0.7l-0.6,2.5
		c0.1-0.2,0.3-0.4,0.5-0.5c0.2-0.1,0.3-0.2,0.5-0.3c0.2-0.1,0.4-0.1,0.5-0.1c0.2,0,0.3,0,0.5,0c0.2,0.1,0.4,0.2,0.6,0.3
		c0.2,0.1,0.3,0.3,0.4,0.6c0.1,0.3,0,0.5-0.1,0.8c-0.1,0.2-0.3,0.4-0.5,0.6c-0.2,0.2-0.5,0.3-0.7,0.4c-0.3,0.1-0.5,0.1-0.7,0.1
		c0.3,0.1,0.5,0.2,0.6,0.4c0.2,0.2,0.3,0.4,0.4,0.6c0.1,0.2,0.2,0.4,0.3,0.5c0.1,0.2,0.2,0.3,0.3,0.3c0.1,0,0.2,0,0.4-0.1
		c0.1-0.1,0.2-0.2,0.3-0.3c0.1-0.1,0.1-0.2,0.2-0.4c0-0.1-0.1-0.3-0.1-0.4c0-0.4,0-0.9,0.2-1.4c0.1-0.4,0.3-0.7,0.5-0.9
		c0.2-0.3,0.5-0.5,0.7-0.6c0.3-0.2,0.6-0.3,0.9-0.4c0.3-0.1,0.6-0.1,0.9-0.1c0.3,0,0.6,0.1,0.8,0.2c0.2,0.1,0.5,0.2,0.6,0.4
		c0.2,0.2,0.3,0.4,0.4,0.6c0.1,0.2,0.1,0.4,0.1,0.6c0,0.2-0.1,0.4-0.2,0.6c-0.1,0.2-0.3,0.4-0.6,0.6c-0.2,0.2-0.6,0.3-0.9,0.4
		c-0.4,0.1-0.8,0.1-1.3,0.1c0.1,0.5,0.5,0.9,1.1,1.1c0.3,0.1,0.6,0.1,0.8,0c0.2-0.1,0.5-0.2,0.7-0.3c0.2-0.1,0.4-0.3,0.5-0.6
		c0-0.1,0.1-0.1,0.1-0.2c0-0.1,0-0.2,0.1-0.3l0.7-2.9h-0.6l0.1-0.5h0.6l0.4-1.8c0-0.1,0-0.2,0.1-0.3c0-0.1,0-0.2,0-0.3
		c0-0.1,0-0.2,0-0.3c0-0.1,0-0.2,0-0.2c0-0.1-0.1-0.2-0.3-0.1l0-0.1c0.1-0.1,0.3-0.2,0.5-0.3c0.2-0.1,0.4-0.1,0.6-0.1
		c0.3,0,0.5,0.1,0.6,0.2c0.2,0.1,0.3,0.3,0.4,0.5c0.1,0.2,0.1,0.4,0.1,0.7c0,0.3,0,0.5-0.1,0.7l-0.4,1.4h1l-0.1,0.5h-1l-0.8,3.1
		c-0.1,0.2,0,0.4,0,0.6c0.1,0.2,0.2,0.3,0.4,0.4c0.1,0,0.2,0.1,0.4,0.1c0.1,0,0.3,0,0.4-0.1c0.1-0.1,0.2-0.2,0.4-0.4
		c0.1-0.2,0.2-0.4,0.3-0.7l0.2,0c-0.1,0.4-0.2,0.7-0.4,0.9c-0.2,0.3-0.4,0.5-0.6,0.6c-0.2,0.2-0.4,0.3-0.7,0.3
		c-0.2,0.1-0.5,0.1-0.7,0.1c-0.3,0-0.5,0-0.7-0.1c-0.2-0.1-0.4-0.2-0.5-0.4c-0.1-0.2-0.2-0.4-0.3-0.7c0,0,0-0.1,0-0.1l0,0
		c-0.2,0.3-0.5,0.5-0.7,0.7c-0.3,0.2-0.6,0.3-0.9,0.5c-0.3,0.1-0.7,0.1-1,0.1c-0.5,0-0.9-0.1-1.2-0.3c-0.3-0.2-0.6-0.4-0.8-0.7
		c-0.1-0.1-0.1-0.2-0.2-0.4c0,0.1-0.1,0.2-0.1,0.3c-0.1,0.3-0.3,0.5-0.4,0.6c-0.2,0.2-0.3,0.3-0.5,0.3c-0.2,0.1-0.4,0.1-0.6,0.1
		c-0.3,0-0.5,0-0.7-0.1c-0.2-0.1-0.3-0.2-0.4-0.3c-0.1-0.1-0.2-0.3-0.2-0.5c-0.1-0.2-0.1-0.3-0.2-0.5c-0.1-0.2-0.2-0.4-0.3-0.5
		c-0.1-0.2-0.3-0.3-0.5-0.4l-0.3,1.1c0,0.1-0.1,0.3-0.1,0.5c0,0.2,0.1,0.4,0.2,0.5l0,0.2c-0.1,0-0.3,0-0.4,0.1c-0.1,0-0.3,0-0.4,0
		c-0.2,0-0.4,0-0.6-0.1c-0.2-0.1-0.3-0.2-0.4-0.3c-0.1-0.1-0.2-0.3-0.2-0.5c0-0.1,0-0.2,0-0.3c-0.2,0.2-0.4,0.5-0.7,0.6
		c-0.3,0.2-0.6,0.3-0.9,0.5c-0.3,0.1-0.7,0.1-1,0.1c-0.5,0-0.9-0.1-1.2-0.3c-0.3-0.2-0.6-0.4-0.8-0.7c-0.1-0.1-0.1-0.2-0.2-0.4
		c0,0.1-0.1,0.2-0.1,0.3c-0.1,0.3-0.3,0.5-0.4,0.6c-0.2,0.2-0.4,0.3-0.6,0.3c-0.2,0.1-0.4,0.1-0.7,0.1c-0.6,0-1-0.1-1.2-0.4
		c-0.2-0.3-0.3-0.7-0.2-1.4c0-0.1,0.1-0.3,0.1-0.6c0.1-0.3,0.1-0.5,0.2-0.8c0.1-0.3,0.1-0.6,0.2-0.8c0.1-0.3,0.1-0.5,0.1-0.6
		c-0.1,0-0.3,0-0.4-0.1c-0.2,0-0.3-0.1-0.4-0.1c-0.1,0.5-0.2,1-0.3,1.5c-0.1,0.3-0.1,0.6-0.2,0.8l0,0c0,0.2-0.1,0.4-0.2,0.6l0,0.1
		l0,0c-0.1,0.1-0.1,0.2-0.2,0.4c-0.2,0.3-0.5,0.5-0.7,0.7c-0.3,0.2-0.6,0.3-0.9,0.5c-0.3,0.1-0.7,0.1-1,0.1c-0.5,0-0.9-0.1-1.2-0.3
		c-0.3-0.2-0.6-0.4-0.8-0.7c-0.2-0.3-0.3-0.6-0.4-1.1c0-0.4,0-0.9,0.2-1.4c0.1-0.4,0.3-0.7,0.5-0.9c0.2-0.3,0.5-0.5,0.7-0.6
		c0.3-0.2,0.6-0.3,0.9-0.4c0.3-0.1,0.6-0.1,0.9-0.1c0.3,0,0.6,0.1,0.8,0.2c0.2,0.1,0.5,0.2,0.6,0.4c0.2,0.2,0.3,0.4,0.4,0.6
		c0.1,0.2,0.1,0.4,0.1,0.6c0,0.2-0.1,0.4-0.2,0.6c-0.1,0.2-0.3,0.4-0.6,0.6c-0.2,0.2-0.6,0.3-0.9,0.4c-0.4,0.1-0.8,0.1-1.3,0.1
		c0.1,0.5,0.5,0.9,1.1,1.1c0.3,0.1,0.6,0.1,0.8,0c0.2-0.1,0.5-0.2,0.7-0.3c0.2-0.1,0.4-0.3,0.5-0.6c0.1-0.2,0.2-0.5,0.3-0.7l0,0
		c0.1-0.2,0.1-0.4,0.2-0.6c0.1-0.3,0.1-0.6,0.2-0.9c0.1-0.3,0.1-0.6,0.1-0.9c-0.2-0.1-0.4-0.3-0.6-0.4c-0.2-0.2-0.3-0.4-0.4-0.6
		c-0.1-0.2-0.1-0.5-0.1-0.7c0-0.2,0.1-0.4,0.2-0.6c0.1-0.2,0.2-0.3,0.4-0.3c0.2,0,0.3,0,0.4,0.1c0.1,0.1,0.2,0.3,0.3,0.7
		c0.1,0.3,0.1,0.8,0,1.4h0c0.2,0.1,0.5,0.2,0.8,0.2c0.3,0,0.6,0,0.8,0c0.2,0,0.3,0,0.4,0.1c0.1,0,0.2,0.1,0.3,0.2
		c0.1,0.1,0.1,0.3,0.1,0.5c0,0.2,0,0.5-0.1,0.8c0,0,0,0.1-0.1,0.3c0,0.2-0.1,0.4-0.1,0.6c-0.1,0.2-0.1,0.4-0.1,0.6
		c0,0.2-0.1,0.3-0.1,0.3c0,0.2,0,0.3,0,0.4c0.1,0.1,0.2,0.2,0.3,0.2c0.1,0,0.3,0,0.4-0.1c0.1-0.1,0.2-0.2,0.3-0.3
		c0.1-0.1,0.2-0.2,0.2-0.4c0-0.1,0-0.2-0.1-0.4C126.4,102.3,126.4,101.8,126.6,101.3L126.6,101.3z M128.4,102.5
		c0.2,0,0.4-0.1,0.6-0.2c0.2-0.1,0.3-0.3,0.5-0.5c0.1-0.2,0.2-0.4,0.3-0.6c0.1-0.2,0.1-0.4,0.2-0.6c0-0.2,0-0.4,0-0.5
		c0-0.1-0.1-0.2-0.1-0.2c-0.1,0-0.2,0-0.3,0s-0.2,0.1-0.3,0.3c-0.1,0.1-0.2,0.3-0.4,0.6c-0.1,0.2-0.2,0.5-0.3,0.9
		c0,0.2-0.1,0.3-0.1,0.5C128.4,102.2,128.4,102.3,128.4,102.5L128.4,102.5z M119.1,102.5c0.2,0,0.4-0.1,0.6-0.2
		c0.2-0.1,0.3-0.3,0.5-0.5c0.1-0.2,0.2-0.4,0.3-0.6c0.1-0.2,0.1-0.4,0.2-0.6c0-0.2,0-0.4,0-0.5c0-0.1-0.1-0.2-0.1-0.2
		c-0.1,0-0.2,0-0.3,0c-0.1,0-0.2,0.1-0.3,0.3c-0.1,0.1-0.2,0.3-0.4,0.6c-0.1,0.2-0.2,0.5-0.3,0.9c0,0.2-0.1,0.3-0.1,0.5
		C119.1,102.2,119.1,102.3,119.1,102.5L119.1,102.5z M112.2,96.5l0.1,0.2c0.5-0.4,0.9-0.6,1.2-0.7c0.4-0.1,0.7,0,0.9,0.1
		c0.3,0.1,0.5,0.3,0.6,0.6c0.2,0.3,0.3,0.6,0.3,0.9c0,0.3,0,0.5,0,0.8c0,0.3-0.1,0.5-0.3,0.7c-0.1,0.2-0.3,0.4-0.5,0.6
		c-0.2,0.2-0.5,0.2-0.7,0.3l0.2-1c0.1-0.2,0.1-0.5,0.1-0.7c0-0.3,0-0.5-0.1-0.7c-0.1-0.2-0.2-0.4-0.4-0.5c-0.2-0.1-0.4-0.2-0.6-0.2
		c-0.2,0-0.4,0-0.6,0.1c-0.2,0.1-0.4,0.2-0.5,0.3l0,0.1c0.1,0,0.2,0,0.3,0.1c0,0.1,0,0.1,0,0.2c0,0.1,0,0.2,0,0.3c0,0.1,0,0.2,0,0.3
		c0,0.1,0,0.2-0.1,0.3l-1,4.2c-0.1,0.3-0.1,0.6,0,0.8c0.1,0.2,0.2,0.4,0.4,0.6c0.2,0.2,0.4,0.3,0.6,0.4c0.3,0.1,0.5,0.1,0.8,0.2
		c0.4,0,0.7,0,1.1-0.1c0.4-0.1,0.8-0.2,1.1-0.4c0.3-0.2,0.6-0.4,0.9-0.7c0.2-0.3,0.4-0.6,0.5-1c0-0.3,0-0.5,0-0.8
		c0-0.3-0.1-0.5-0.3-0.7c-0.1-0.2-0.3-0.4-0.6-0.5c-0.2-0.2-0.5-0.3-0.8-0.3c0.4-0.1,0.8-0.2,1.1-0.4c0.3-0.2,0.5-0.4,0.7-0.6
		c0.2-0.2,0.3-0.5,0.4-0.8c0.1-0.3,0.1-0.5,0.1-0.8c0-0.3-0.1-0.6-0.2-0.9c-0.1-0.3-0.3-0.5-0.6-0.7c-0.2-0.2-0.5-0.4-0.8-0.5
		c-0.3-0.1-0.7-0.2-1-0.2c-0.4,0-0.8,0.1-1.2,0.3S112.6,96.2,112.2,96.5L112.2,96.5z M114.6,102.5c-0.1,0.3-0.2,0.6-0.3,0.9
		c-0.1,0.3-0.3,0.5-0.4,0.6c-0.1,0.2-0.3,0.3-0.4,0.4c-0.1,0.1-0.2,0.1-0.3,0.1c-0.1,0-0.2-0.1-0.2-0.3c0-0.2,0-0.4,0.1-0.7l0.7-3
		c0.3-0.1,0.5,0,0.6,0.1c0.1,0.1,0.3,0.3,0.3,0.5c0.1,0.2,0.1,0.4,0.1,0.7C114.7,102,114.7,102.2,114.6,102.5L114.6,102.5z
		 M102.5,101.3c0.1-0.4,0.3-0.7,0.5-0.9c0.2-0.3,0.5-0.5,0.7-0.6c0.3-0.2,0.6-0.3,0.9-0.4c0.3-0.1,0.6-0.1,0.9-0.1
		c0.3,0,0.6,0.1,0.8,0.2c0.2,0.1,0.5,0.2,0.6,0.4c0.2,0.2,0.3,0.4,0.4,0.6c0.1,0.2,0.1,0.4,0.1,0.6c0,0.2-0.1,0.4-0.2,0.6
		c-0.1,0.2-0.3,0.4-0.6,0.6c-0.2,0.2-0.6,0.3-0.9,0.4c-0.4,0.1-0.8,0.1-1.3,0.1c0.1,0.5,0.5,0.9,1.1,1.1c0.3,0.1,0.6,0.1,0.8,0
		c0.2-0.1,0.5-0.2,0.7-0.3c0.2-0.1,0.4-0.3,0.5-0.6c0.1-0.2,0.2-0.5,0.3-0.7l0.2,0.1c-0.1,0.4-0.2,0.7-0.4,1
		c-0.2,0.3-0.5,0.5-0.7,0.7c-0.3,0.2-0.6,0.3-0.9,0.5c-0.3,0.1-0.7,0.1-1,0.1c-0.5,0-0.9-0.1-1.2-0.3c-0.3-0.2-0.6-0.4-0.8-0.7
		c-0.2-0.3-0.3-0.6-0.4-1.1C102.3,102.3,102.4,101.8,102.5,101.3L102.5,101.3z M104.4,102.5c0.2,0,0.4-0.1,0.6-0.2
		c0.2-0.1,0.3-0.3,0.5-0.5c0.1-0.2,0.2-0.4,0.3-0.6c0.1-0.2,0.1-0.4,0.2-0.6c0-0.2,0-0.4,0-0.5c0-0.1-0.1-0.2-0.1-0.2
		c-0.1,0-0.2,0-0.3,0s-0.2,0.1-0.3,0.3c-0.1,0.1-0.2,0.3-0.4,0.6c-0.1,0.2-0.2,0.5-0.3,0.9c0,0.2-0.1,0.3-0.1,0.5
		C104.3,102.2,104.3,102.3,104.4,102.5L104.4,102.5z M98.6,103.1l0.4-1.7c0.1-0.2,0.1-0.5,0.1-0.7c0-0.3,0-0.5-0.1-0.7
		c-0.1-0.2-0.2-0.4-0.4-0.5c-0.2-0.1-0.4-0.2-0.6-0.2c-0.2,0-0.4,0-0.6,0.1c-0.2,0.1-0.4,0.2-0.5,0.3l0,0.1c0.1,0,0.2,0,0.3,0.1
		c0,0.1,0,0.1,0,0.2c0,0.1,0,0.2,0,0.3c0,0.1,0,0.2,0,0.3c0,0.1,0,0.2-0.1,0.3l-0.4,1.6c-0.1,0.3-0.1,0.6,0,0.9
		c0.1,0.3,0.2,0.5,0.3,0.7c0.2,0.2,0.3,0.3,0.6,0.4c0.2,0.1,0.5,0.1,0.7,0.1h0.9c0.3,0,0.6-0.1,1-0.3c0.3-0.2,0.6-0.5,0.9-0.9
		c0.3-0.3,0.5-0.7,0.7-1.1c0.2-0.4,0.4-0.8,0.4-1.2c0.1-0.3,0.1-0.5,0.1-0.8c0-0.2-0.1-0.5-0.1-0.6c-0.1-0.2-0.2-0.3-0.4-0.4
		c-0.2-0.1-0.4-0.2-0.7-0.2c-0.1,0-0.3,0-0.4,0c-0.1,0-0.3,0-0.4,0l0,0.2c0.1,0.1,0.2,0.3,0.2,0.7c0,0.3,0,0.7-0.1,1.1
		c-0.1,0.6-0.2,1-0.4,1.4c-0.1,0.4-0.3,0.7-0.4,0.9c-0.2,0.2-0.3,0.4-0.4,0.4c-0.1,0.1-0.3,0.1-0.4,0c-0.1,0-0.2-0.1-0.2-0.3
		C98.5,103.5,98.5,103.3,98.6,103.1L98.6,103.1z M133.7,102c0.1-0.1,0.3-0.1,0.5-0.3c0.2-0.1,0.4-0.3,0.6-0.4
		c0.2-0.2,0.3-0.3,0.4-0.5c0.1-0.2,0.1-0.4,0-0.5c-0.1-0.1-0.2-0.2-0.2-0.2c-0.1,0-0.2,0-0.3,0.1c-0.1,0.1-0.2,0.2-0.3,0.3
		c-0.1,0.1-0.2,0.2-0.2,0.4c-0.1,0.1-0.1,0.2-0.2,0.3c0,0.1-0.1,0.2-0.1,0.2v0L133.7,102L133.7,102z M139.3,102.5
		c0.2,0,0.4-0.1,0.6-0.2c0.2-0.1,0.3-0.3,0.5-0.5c0.1-0.2,0.2-0.4,0.3-0.6c0.1-0.2,0.1-0.4,0.2-0.6c0-0.2,0-0.4,0-0.5
		c0-0.1-0.1-0.2-0.1-0.2c-0.1,0-0.2,0-0.3,0c-0.1,0-0.2,0.1-0.3,0.3c-0.1,0.1-0.2,0.3-0.4,0.6c-0.1,0.2-0.2,0.5-0.3,0.9
		c0,0.2-0.1,0.3-0.1,0.5C139.3,102.2,139.3,102.3,139.3,102.5z"/>
</g>
</svg>
