<?xml version="1.0" encoding="utf-8"?>
<!-- Generator: Adobe Illustrator 24.0.2, SVG Export Plug-In . SVG Version: 6.00 Build 0)  -->
<svg version="1.1" id="Layer_1" xmlns="http://www.w3.org/2000/svg" xmlns:xlink="http://www.w3.org/1999/xlink" x="0px" y="0px"
	 viewBox="0 0 211 133" style="enable-background:new 0 0 211 133;" xml:space="preserve">
<style type="text/css">
	.st0{fill-rule:evenodd;clip-rule:evenodd;fill:#2D523D;}
</style>
<g>
	<path class="st0" d="M123,43.1h-1.9c0-12.1-9.9-22-22-22c-12.1,0-22,9.9-22,22h-1.9c0-13.1,10.7-23.8,23.8-23.8
		C112.3,19.3,123,29.9,123,43.1z"/>
	<polygon class="st0" points="103.4,46.7 81.9,83.5 75.7,83.5 100.2,41.1 	"/>
	<polygon class="st0" points="107.3,53.5 90,83.5 84.1,83.5 104.5,48.5 	"/>
	<polygon class="st0" points="124.7,83.5 92.1,83.5 108.4,55.3 	"/>
	<polygon class="st0" points="111.3,46.6 107.3,53.5 108.4,55.3 111.3,50.3 132.6,87.2 90,87.2 92.1,83.5 90,83.5 86.8,89.1 
		135.8,89.1 	"/>
	<polygon class="st0" points="104.5,48.5 103.4,46.7 110.3,35 111.9,35.9 	"/>
	<polygon class="st0" points="122.8,92.8 122.8,94.6 75.4,94.6 81.9,83.5 84.1,83.5 78.6,92.8 	"/>
	<g>
		<path class="st0" d="M70.8,111.8l0,0.2l0,0.3l-0.1,0.3l-0.1,0.3l0,0l-0.1,0.2v0l-0.1,0.2l-0.2,0.2l-0.2,0.2h0l-0.2,0.2l-0.2,0.2h0
			l-0.2,0.1h0l-0.2,0.1l-0.3,0.1l-0.2,0.1l-0.2,0l-0.3,0l-0.3,0c0,0,0,0,0,0l-0.3,0c0,0,0,0-0.1,0l-0.3-0.1c0,0,0,0,0,0h0l-0.3-0.1
			c0,0,0,0,0,0h0l-0.2-0.2c0,0,0,0,0,0l-0.2-0.2l0,0l-0.2-0.3l-0.2-0.2l0.5-0.4l0.2,0.2l0.2,0.2l0.2,0.2l0.2,0.1l0.2,0.1l0.2,0.1
			l0.2,0l0.3,0l0.2,0l0.2,0l0.2,0l0.4-0.2l0.2-0.1l0.2-0.1l0.2-0.1l0.1-0.2l0.1-0.2l0.1-0.2l0.1-0.2l0.1-0.2l0.1-0.2l0-0.2v-0.2
			l0-0.2l0-0.2l0-0.2L70,111l-0.1-0.2l-0.1-0.2l-0.1-0.2l-0.1-0.2l-0.2-0.2l-0.2-0.1l-0.2-0.1l-0.2-0.1l-0.2-0.1l-0.2,0l-0.2,0
			l-0.2,0h-0.2l-0.2,0l-0.2-0.1l-0.2-0.1l-0.2-0.1l0,0l-0.1-0.1c0,0,0,0,0,0l-0.2-0.1v0c0,0,0,0,0,0l-0.1-0.1l-0.2-0.2l0,0l-0.1-0.1
			c0,0,0,0,0,0l-0.1-0.1l-0.1-0.2l-0.1-0.2l0,0l0-0.2l0-0.2l0-0.4l0-0.2l0-0.2l0,0l0.1-0.2l0.1-0.2l0.1-0.2c0,0,0,0,0,0l0.1-0.1v0
			l0,0l0.1-0.1c0,0,0,0,0,0v0l0.1-0.1c0,0,0,0,0,0l0.2-0.1l0,0l0.2-0.1l0.2-0.1l0.2-0.1l0.2-0.1l0.2,0l0.2,0l0.2,0l0.2,0l0.2,0
			l0.2,0.1h0l0.2,0.1l0.1,0.1c0,0,0,0,0,0h0l0.2,0.1l0.1,0.1l-0.6,0.3l-0.1-0.1l-0.1-0.1l-0.1-0.1l-0.1-0.1l-0.3-0.1h-0.3l-0.1,0
			l-0.3,0.1l-0.1,0.1l-0.1,0.1l-0.1,0.1l-0.1,0.1l-0.1,0.1l-0.1,0.1l-0.1,0.1l-0.1,0.1l0,0.1l0,0.1l0,0.3l0,0.3l0,0.1l0.1,0.2
			l0.1,0.1l0.2,0.2l0.1,0.1l0.1,0.1l0.1,0.1l0.1,0.1l0.1,0.1l0.3,0.1l0.3,0h0.2l0.3,0l0.3,0.1l0.2,0.1h0l0.2,0.1c0,0,0,0,0,0
			l0.2,0.1l0.2,0.2v0c0,0,0,0,0,0l0.2,0.2l0.2,0.2l0.1,0.2l0.2,0.3v0l0.1,0.2c0,0,0,0,0,0l0.1,0.2l0.1,0.2l0,0.3L70.8,111.8z"/>
		<path class="st0" d="M70.8,111.8l0,0.2l0,0.3l-0.1,0.3l-0.1,0.3l0,0l-0.1,0.2v0l-0.1,0.2l-0.2,0.2l-0.2,0.2h0l-0.2,0.2l-0.2,0.2h0
			l-0.2,0.1h0l-0.2,0.1l-0.3,0.1l-0.2,0.1l-0.2,0l-0.3,0l-0.3,0c0,0,0,0,0,0l-0.3,0c0,0,0,0-0.1,0l-0.3-0.1c0,0,0,0,0,0h0l-0.3-0.1
			c0,0,0,0,0,0h0l-0.2-0.2c0,0,0,0,0,0l-0.2-0.2l0,0l-0.2-0.3l-0.2-0.2l0.5-0.4l0.2,0.2l0.2,0.2l0.2,0.2l0.2,0.1l0.2,0.1l0.2,0.1
			l0.2,0l0.3,0l0.2,0l0.2,0l0.2,0l0.4-0.2l0.2-0.1l0.2-0.1l0.2-0.1l0.1-0.2l0.1-0.2l0.1-0.2l0.1-0.2l0.1-0.2l0.1-0.2l0-0.2v-0.2
			l0-0.2l0-0.2l0-0.2L70,111l-0.1-0.2l-0.1-0.2l-0.1-0.2l-0.1-0.2l-0.2-0.2l-0.2-0.1l-0.2-0.1l-0.2-0.1l-0.2-0.1l-0.2,0l-0.2,0
			l-0.2,0h-0.2l-0.2,0l-0.2-0.1l-0.2-0.1l-0.2-0.1l0,0l-0.1-0.1c0,0,0,0,0,0l-0.2-0.1v0c0,0,0,0,0,0l-0.1-0.1l-0.2-0.2l0,0l-0.1-0.1
			c0,0,0,0,0,0l-0.1-0.1l-0.1-0.2l-0.1-0.2l0,0l0-0.2l0-0.2l0-0.4l0-0.2l0-0.2l0,0l0.1-0.2l0.1-0.2l0.1-0.2c0,0,0,0,0,0l0.1-0.1v0
			l0,0l0.1-0.1c0,0,0,0,0,0v0l0.1-0.1c0,0,0,0,0,0l0.2-0.1l0,0l0.2-0.1l0.2-0.1l0.2-0.1l0.2-0.1l0.2,0l0.2,0l0.2,0l0.2,0l0.2,0
			l0.2,0.1h0l0.2,0.1l0.1,0.1c0,0,0,0,0,0h0l0.2,0.1l0.1,0.1l-0.6,0.3l-0.1-0.1l-0.1-0.1l-0.1-0.1l-0.1-0.1l-0.3-0.1h-0.3l-0.1,0
			l-0.3,0.1l-0.1,0.1l-0.1,0.1l-0.1,0.1l-0.1,0.1l-0.1,0.1l-0.1,0.1l-0.1,0.1l-0.1,0.1l0,0.1l0,0.1l0,0.3l0,0.3l0,0.1l0.1,0.2
			l0.1,0.1l0.2,0.2l0.1,0.1l0.1,0.1l0.1,0.1l0.1,0.1l0.1,0.1l0.3,0.1l0.3,0h0.2l0.3,0l0.3,0.1l0.2,0.1h0l0.2,0.1c0,0,0,0,0,0
			l0.2,0.1l0.2,0.2v0c0,0,0,0,0,0l0.2,0.2l0.2,0.2l0.1,0.2l0.2,0.3v0l0.1,0.2c0,0,0,0,0,0l0.1,0.2l0.1,0.2l0,0.3L70.8,111.8z"/>
		<path class="st0" d="M78,106.1h-2.7v8.4h-0.6v-8.4H72v-0.6h6V106.1z"/>
		<path class="st0" d="M78,106.1h-2.7v8.4h-0.6v-8.4H72v-0.6h6V106.1z"/>
		<path class="st0" d="M88.6,105.5v5.1l0,0.3l-0.1,0.4l-0.1,0.4l-0.1,0.4l-0.2,0.4l-0.2,0.3l-0.2,0.3h0l-0.3,0.3l-0.3,0.3
			c0,0,0,0,0,0l-0.3,0.2l-0.3,0.2c0,0,0,0,0,0l-0.3,0.2l-0.4,0.1l-0.4,0.1l-0.4,0l-0.3,0l-0.4,0l-0.4-0.1l-0.4-0.1l-0.4-0.1
			l-0.4-0.2l-0.4-0.2l0,0l-0.3-0.2c0,0,0,0,0,0l-0.3-0.2c0,0,0,0,0,0l-0.3-0.3l-0.2-0.3l0,0l-0.2-0.3L81,112l-0.1-0.3l-0.1-0.4
			l-0.1-0.4l0-0.4v-5.1h0.6v5.1l0,0.3l0.1,0.3l0.1,0.3l0.1,0.3l0.1,0.3l0.2,0.3l0.2,0.3l0.2,0.3l0.3,0.2l0.3,0.2l0.3,0.2l0.3,0.1
			l0.3,0.1l0.3,0.1l0.3,0l0.3,0l0.3,0l0.3,0l0.3-0.1l0.3-0.1l0.3-0.1l0.3-0.2l0.3-0.2l0.3-0.2l0.2-0.3l0.2-0.3l0.2-0.3l0.1-0.3
			l0.1-0.3l0.1-0.3l0-0.3l0-0.3v-5.1H88.6z"/>
		<path class="st0" d="M88.6,105.5v5.1l0,0.3l-0.1,0.4l-0.1,0.4l-0.1,0.4l-0.2,0.4l-0.2,0.3l-0.2,0.3h0l-0.3,0.3l-0.3,0.3
			c0,0,0,0,0,0l-0.3,0.2l-0.3,0.2c0,0,0,0,0,0l-0.3,0.2l-0.4,0.1l-0.4,0.1l-0.4,0l-0.3,0l-0.4,0l-0.4-0.1l-0.4-0.1l-0.4-0.1
			l-0.4-0.2l-0.4-0.2l0,0l-0.3-0.2c0,0,0,0,0,0l-0.3-0.2c0,0,0,0,0,0l-0.3-0.3l-0.2-0.3l0,0l-0.2-0.3L81,112l-0.1-0.3l-0.1-0.4
			l-0.1-0.4l0-0.4v-5.1h0.6v5.1l0,0.3l0.1,0.3l0.1,0.3l0.1,0.3l0.1,0.3l0.2,0.3l0.2,0.3l0.2,0.3l0.3,0.2l0.3,0.2l0.3,0.2l0.3,0.1
			l0.3,0.1l0.3,0.1l0.3,0l0.3,0l0.3,0l0.3,0l0.3-0.1l0.3-0.1l0.3-0.1l0.3-0.2l0.3-0.2l0.3-0.2l0.2-0.3l0.2-0.3l0.2-0.3l0.1-0.3
			l0.1-0.3l0.1-0.3l0-0.3l0-0.3v-5.1H88.6z"/>
		<path class="st0" d="M95.2,106.1l0.4,0.1l0.4,0.1l0.4,0.2l0.3,0.2l0.3,0.2l0.3,0.3l0.3,0.3l0.2,0.3l0.2,0.3l0.2,0.4l0.1,0.4
			l0.1,0.4l0.1,0.4l0,0.4l0,0.3l-0.1,0.4l-0.1,0.4l-0.1,0.4l-0.2,0.4l-0.2,0.3l-0.2,0.3l-0.3,0.3l-0.3,0.3l-0.3,0.2l-0.3,0.2
			l-0.3,0.2l-0.4,0.1l-0.4,0.1l0,0v0.6l0.1,0l0.4-0.1l0.4-0.1l0.4-0.2c0,0,0,0,0,0l0.4-0.2l0.4-0.3c0,0,0,0,0,0h0l0.3-0.3l0,0v0
			l0.3-0.3l0.3-0.4l0,0l0.2-0.4v0l0.2-0.4l0.1-0.4l0.1-0.4l0.1-0.4l0-0.4l0-0.4l-0.1-0.4l-0.1-0.4l-0.1-0.4l-0.2-0.4v0l-0.2-0.4
			c0,0,0,0,0,0l-0.3-0.4c0,0,0,0,0,0l-0.3-0.3l-0.4-0.3h0c0,0,0,0,0,0l-0.3-0.2c0,0,0,0,0,0v0l-0.4-0.2l0,0l-0.4-0.2l-0.4-0.1
			l-0.4-0.1l-0.1,0V106.1z M92,106.1h2.5l0.3,0l0.4,0.1l0,0v-0.6l-0.3,0l-0.4,0h-2.8c-0.2,0-0.3,0-0.3,0s0,0.1,0,0.3v8.5
			c0,0.1,0,0.3,0,0.3h0.3h2.8l0.4,0l0.3,0v-0.6l-0.3,0l-0.4,0H92V106.1z"/>
		<path class="st0" d="M95.2,106.1l0.4,0.1l0.4,0.1l0.4,0.2l0.3,0.2l0.3,0.2l0.3,0.3l0.3,0.3l0.2,0.3l0.2,0.3l0.2,0.4l0.1,0.4
			l0.1,0.4l0.1,0.4l0,0.4l0,0.3l-0.1,0.4l-0.1,0.4l-0.1,0.4l-0.2,0.4l-0.2,0.3l-0.2,0.3l-0.3,0.3l-0.3,0.3l-0.3,0.2l-0.3,0.2
			l-0.3,0.2l-0.4,0.1l-0.4,0.1l0,0v0.6l0.1,0l0.4-0.1l0.4-0.1l0.4-0.2c0,0,0,0,0,0l0.4-0.2l0.4-0.3c0,0,0,0,0,0h0l0.3-0.3l0,0v0
			l0.3-0.3l0.3-0.4l0,0l0.2-0.4v0l0.2-0.4l0.1-0.4l0.1-0.4l0.1-0.4l0-0.4l0-0.4l-0.1-0.4l-0.1-0.4l-0.1-0.4l-0.2-0.4v0l-0.2-0.4
			c0,0,0,0,0,0l-0.3-0.4c0,0,0,0,0,0l-0.3-0.3l-0.4-0.3h0c0,0,0,0,0,0l-0.3-0.2c0,0,0,0,0,0v0l-0.4-0.2l0,0l-0.4-0.2l-0.4-0.1
			l-0.4-0.1l-0.1,0V106.1z M92,106.1h2.5l0.3,0l0.4,0.1l0,0v-0.6l-0.3,0l-0.4,0h-2.8c-0.2,0-0.3,0-0.3,0s0,0.1,0,0.3v8.5
			c0,0.1,0,0.3,0,0.3h0.3h2.8l0.4,0l0.3,0v-0.6l-0.3,0l-0.4,0H92V106.1z"/>
		<path class="st0" d="M102.3,114.6h-0.6v-9.1h0.6V114.6z"/>
		<path class="st0" d="M113.2,110l0,0.3l-0.1,0.4l-0.1,0.4l-0.1,0.4l-0.2,0.4l-0.2,0.4l-0.2,0.3l-0.3,0.3l-0.3,0.3l-0.3,0.2
			l-0.3,0.2l-0.3,0.2l-0.4,0.1l-0.4,0.1l-0.4,0.1l-0.4,0h0v0.6h0l0.4,0l0.4-0.1l0.4-0.1l0.4-0.1l0.4-0.2c0,0,0,0,0,0l0.4-0.2h0
			l0.3-0.3c0,0,0,0,0,0h0l0.3-0.3l0.3-0.3c0,0,0,0,0,0h0l0.3-0.4v0l0.2-0.4l0.2-0.4l0.1-0.4l0.1-0.4l0.1-0.4l0-0.4l0-0.4l-0.1-0.4
			l-0.1-0.4l-0.1-0.4l-0.2-0.4l-0.2-0.4c0,0,0,0,0,0l-0.3-0.4h0c0,0,0,0,0,0l-0.3-0.3c0,0,0,0,0,0v0l-0.4-0.3h0c0,0,0,0,0,0
			l-0.3-0.3l-0.4-0.2l-0.4-0.2c0,0,0,0,0,0l-0.4-0.1l-0.4-0.1l-0.4-0.1l-0.4,0v0.6l0.3,0l0.4,0.1l0.4,0.1l0.4,0.1l0.3,0.2l0.3,0.2
			l0.3,0.2l0.3,0.3l0.3,0.3l0.2,0.3l0.2,0.3l0.2,0.3l0.1,0.4l0.1,0.4l0,0.4L113.2,110z M109.3,113.9l-0.3,0l-0.4-0.1l-0.4-0.1
			l-0.4-0.1l-0.4-0.2l-0.3-0.2l-0.3-0.2l-0.3-0.3l-0.3-0.3l-0.2-0.3l-0.2-0.3l-0.2-0.4l-0.1-0.4l-0.1-0.4l-0.1-0.4l0-0.4l0-0.3
			l0.1-0.4l0.1-0.4l0.1-0.4l0.2-0.4l0.2-0.4l0.2-0.3l0.3-0.3l0.3-0.3l0.3-0.2l0.3-0.2l0.3-0.2l0.4-0.1l0.4-0.1l0.4-0.1l0.3,0l0,0
			v-0.6l0,0l-0.4,0l-0.4,0.1l-0.4,0.1l-0.4,0.1l-0.4,0.2c0,0,0,0,0,0l-0.4,0.2l0,0l-0.3,0.3c0,0,0,0,0,0h0l-0.4,0.3v0c0,0,0,0,0,0
			l-0.3,0.3c0,0,0,0,0,0h0l-0.3,0.4v0l-0.2,0.4l-0.2,0.4l-0.1,0.4l-0.1,0.4l-0.1,0.4l0,0.4l0,0.4l0.1,0.4l0.1,0.4l0.1,0.4l0.2,0.4
			l0.2,0.4c0,0,0,0,0,0l0.3,0.4h0c0,0,0,0,0,0l0.3,0.3c0,0,0,0,0,0l0.3,0.3h0c0,0,0,0,0,0l0.3,0.3l0.4,0.2c0,0,0,0,0,0l0.4,0.2
			l0.4,0.1l0.4,0.1l0.4,0.1l0.4,0h0V113.9z"/>
		<path class="st0" d="M113.2,110l0,0.3l-0.1,0.4l-0.1,0.4l-0.1,0.4l-0.2,0.4l-0.2,0.4l-0.2,0.3l-0.3,0.3l-0.3,0.3l-0.3,0.2
			l-0.3,0.2l-0.3,0.2l-0.4,0.1l-0.4,0.1l-0.4,0.1l-0.4,0h0v0.6h0l0.4,0l0.4-0.1l0.4-0.1l0.4-0.1l0.4-0.2c0,0,0,0,0,0l0.4-0.2h0
			l0.3-0.3c0,0,0,0,0,0h0l0.3-0.3l0.3-0.3c0,0,0,0,0,0h0l0.3-0.4v0l0.2-0.4l0.2-0.4l0.1-0.4l0.1-0.4l0.1-0.4l0-0.4l0-0.4l-0.1-0.4
			l-0.1-0.4l-0.1-0.4l-0.2-0.4l-0.2-0.4c0,0,0,0,0,0l-0.3-0.4h0c0,0,0,0,0,0l-0.3-0.3c0,0,0,0,0,0v0l-0.4-0.3h0c0,0,0,0,0,0
			l-0.3-0.3l-0.4-0.2l-0.4-0.2c0,0,0,0,0,0l-0.4-0.1l-0.4-0.1l-0.4-0.1l-0.4,0v0.6l0.3,0l0.4,0.1l0.4,0.1l0.4,0.1l0.3,0.2l0.3,0.2
			l0.3,0.2l0.3,0.3l0.3,0.3l0.2,0.3l0.2,0.3l0.2,0.3l0.1,0.4l0.1,0.4l0,0.4L113.2,110z M109.3,113.9l-0.3,0l-0.4-0.1l-0.4-0.1
			l-0.4-0.1l-0.4-0.2l-0.3-0.2l-0.3-0.2l-0.3-0.3l-0.3-0.3l-0.2-0.3l-0.2-0.3l-0.2-0.4l-0.1-0.4l-0.1-0.4l-0.1-0.4l0-0.4l0-0.3
			l0.1-0.4l0.1-0.4l0.1-0.4l0.2-0.4l0.2-0.4l0.2-0.3l0.3-0.3l0.3-0.3l0.3-0.2l0.3-0.2l0.3-0.2l0.4-0.1l0.4-0.1l0.4-0.1l0.3,0l0,0
			v-0.6l0,0l-0.4,0l-0.4,0.1l-0.4,0.1l-0.4,0.1l-0.4,0.2c0,0,0,0,0,0l-0.4,0.2l0,0l-0.3,0.3c0,0,0,0,0,0h0l-0.4,0.3v0c0,0,0,0,0,0
			l-0.3,0.3c0,0,0,0,0,0h0l-0.3,0.4v0l-0.2,0.4l-0.2,0.4l-0.1,0.4l-0.1,0.4l-0.1,0.4l0,0.4l0,0.4l0.1,0.4l0.1,0.4l0.1,0.4l0.2,0.4
			l0.2,0.4c0,0,0,0,0,0l0.3,0.4h0c0,0,0,0,0,0l0.3,0.3c0,0,0,0,0,0l0.3,0.3h0c0,0,0,0,0,0l0.3,0.3l0.4,0.2c0,0,0,0,0,0l0.4,0.2
			l0.4,0.1l0.4,0.1l0.4,0.1l0.4,0h0V113.9z"/>
		<path class="st0" d="M134.1,110l0,0.3l-0.1,0.4l-0.1,0.4l-0.1,0.4l-0.2,0.4l-0.2,0.4l-0.2,0.3l-0.3,0.3l-0.3,0.3l-0.3,0.2
			l-0.3,0.2l-0.3,0.2l-0.4,0.1l-0.4,0.1l-0.4,0.1l-0.4,0h0v0.6l0.4,0l0.4-0.1l0.4-0.1l0.4-0.1l0.4-0.2c0,0,0,0,0,0l0.4-0.2h0
			l0.3-0.3c0,0,0,0,0,0h0l0.3-0.3l0.3-0.3c0,0,0,0,0,0h0l0.3-0.4v0l0.2-0.4l0.2-0.4l0.1-0.4l0.1-0.4l0.1-0.4l0-0.4l0-0.4l-0.1-0.4
			l-0.1-0.4l-0.1-0.4l-0.2-0.4l-0.2-0.4c0,0,0,0,0,0l-0.3-0.4h0c0,0,0,0,0,0l-0.3-0.3c0,0,0,0,0,0v0l-0.4-0.3h0c0,0,0,0,0,0
			l-0.3-0.3l-0.4-0.2l-0.4-0.2c0,0,0,0,0,0l-0.4-0.1l-0.4-0.1l-0.4-0.1l-0.4,0v0.6l0.3,0l0.4,0.1l0.4,0.1l0.4,0.1l0.3,0.2l0.3,0.2
			l0.3,0.2l0.3,0.3l0.3,0.3l0.2,0.3l0.2,0.3l0.2,0.3l0.1,0.4l0.1,0.4l0,0.4L134.1,110z M130.3,113.9l-0.3,0l-0.4-0.1l-0.4-0.1
			l-0.4-0.1l-0.4-0.2l-0.3-0.2l-0.3-0.2l-0.3-0.3l-0.3-0.3l-0.2-0.3l-0.2-0.3l-0.2-0.4l-0.1-0.4l-0.1-0.4l-0.1-0.4l0-0.4l0-0.3
			l0.1-0.4l0.1-0.4l0.1-0.4l0.2-0.4l0.2-0.4l0.2-0.3l0.3-0.3l0.3-0.3l0.3-0.2l0.3-0.2l0.3-0.2l0.4-0.1l0.4-0.1l0.4-0.1l0.3,0l0,0
			v-0.6l0,0l-0.4,0l-0.4,0.1l-0.4,0.1l-0.4,0.1l-0.4,0.2c0,0,0,0,0,0l-0.4,0.2l0,0l-0.3,0.3c0,0,0,0,0,0h0l-0.4,0.3v0c0,0,0,0,0,0
			l-0.3,0.3c0,0,0,0,0,0h0l-0.3,0.4v0l-0.2,0.4l-0.2,0.4l-0.1,0.4l-0.1,0.4l-0.1,0.4l0,0.4l0,0.4l0.1,0.4l0.1,0.4l0.1,0.4l0.2,0.4
			l0.2,0.4c0,0,0,0,0,0l0.3,0.4h0c0,0,0,0,0,0l0.3,0.3c0,0,0,0,0,0l0.3,0.3h0c0,0,0,0,0,0l0.3,0.3l0.4,0.2c0,0,0,0,0,0l0.4,0.2
			l0.4,0.1l0.4,0.1l0.4,0.1l0.4,0h0h0V113.9z"/>
		<path class="st0" d="M134.1,110l0,0.3l-0.1,0.4l-0.1,0.4l-0.1,0.4l-0.2,0.4l-0.2,0.4l-0.2,0.3l-0.3,0.3l-0.3,0.3l-0.3,0.2
			l-0.3,0.2l-0.3,0.2l-0.4,0.1l-0.4,0.1l-0.4,0.1l-0.4,0h0v0.6l0.4,0l0.4-0.1l0.4-0.1l0.4-0.1l0.4-0.2c0,0,0,0,0,0l0.4-0.2h0
			l0.3-0.3c0,0,0,0,0,0h0l0.3-0.3l0.3-0.3c0,0,0,0,0,0h0l0.3-0.4v0l0.2-0.4l0.2-0.4l0.1-0.4l0.1-0.4l0.1-0.4l0-0.4l0-0.4l-0.1-0.4
			l-0.1-0.4l-0.1-0.4l-0.2-0.4l-0.2-0.4c0,0,0,0,0,0l-0.3-0.4h0c0,0,0,0,0,0l-0.3-0.3c0,0,0,0,0,0v0l-0.4-0.3h0c0,0,0,0,0,0
			l-0.3-0.3l-0.4-0.2l-0.4-0.2c0,0,0,0,0,0l-0.4-0.1l-0.4-0.1l-0.4-0.1l-0.4,0v0.6l0.3,0l0.4,0.1l0.4,0.1l0.4,0.1l0.3,0.2l0.3,0.2
			l0.3,0.2l0.3,0.3l0.3,0.3l0.2,0.3l0.2,0.3l0.2,0.3l0.1,0.4l0.1,0.4l0,0.4L134.1,110z M130.3,113.9l-0.3,0l-0.4-0.1l-0.4-0.1
			l-0.4-0.1l-0.4-0.2l-0.3-0.2l-0.3-0.2l-0.3-0.3l-0.3-0.3l-0.2-0.3l-0.2-0.3l-0.2-0.4l-0.1-0.4l-0.1-0.4l-0.1-0.4l0-0.4l0-0.3
			l0.1-0.4l0.1-0.4l0.1-0.4l0.2-0.4l0.2-0.4l0.2-0.3l0.3-0.3l0.3-0.3l0.3-0.2l0.3-0.2l0.3-0.2l0.4-0.1l0.4-0.1l0.4-0.1l0.3,0l0,0
			v-0.6l0,0l-0.4,0l-0.4,0.1l-0.4,0.1l-0.4,0.1l-0.4,0.2c0,0,0,0,0,0l-0.4,0.2l0,0l-0.3,0.3c0,0,0,0,0,0h0l-0.4,0.3v0c0,0,0,0,0,0
			l-0.3,0.3c0,0,0,0,0,0h0l-0.3,0.4v0l-0.2,0.4l-0.2,0.4l-0.1,0.4l-0.1,0.4l-0.1,0.4l0,0.4l0,0.4l0.1,0.4l0.1,0.4l0.1,0.4l0.2,0.4
			l0.2,0.4c0,0,0,0,0,0l0.3,0.4h0c0,0,0,0,0,0l0.3,0.3c0,0,0,0,0,0l0.3,0.3h0c0,0,0,0,0,0l0.3,0.3l0.4,0.2c0,0,0,0,0,0l0.4,0.2
			l0.4,0.1l0.4,0.1l0.4,0.1l0.4,0h0h0V113.9z"/>
		<path class="st0" d="M144.8,110l0,0.3l-0.1,0.4l-0.1,0.4l-0.1,0.4l-0.2,0.4l-0.2,0.4l-0.2,0.3l-0.3,0.3l-0.3,0.3l-0.3,0.2
			l-0.3,0.2l-0.3,0.2l-0.4,0.1l-0.4,0.1l-0.4,0.1l-0.4,0h0v0.6h0l0.4,0l0.4-0.1l0.4-0.1l0.4-0.1l0.4-0.2c0,0,0,0,0,0l0.4-0.2h0
			l0.3-0.3c0,0,0,0,0,0h0l0.3-0.3l0.3-0.3c0,0,0,0,0,0h0l0.3-0.4v0l0.2-0.4l0.2-0.4l0.1-0.4l0.1-0.4l0.1-0.4l0-0.4l0-0.4l-0.1-0.4
			l-0.1-0.4l-0.1-0.4l-0.2-0.4l-0.2-0.4c0,0,0,0,0,0l-0.3-0.4h0c0,0,0,0,0,0l-0.3-0.3c0,0,0,0,0,0v0l-0.4-0.3h0c0,0,0,0,0,0
			l-0.3-0.3l-0.4-0.2l-0.4-0.2c0,0,0,0,0,0l-0.4-0.1l-0.4-0.1l-0.4-0.1l-0.4,0v0.6l0.3,0l0.4,0.1l0.4,0.1l0.4,0.1l0.3,0.2l0.3,0.2
			l0.3,0.2l0.3,0.3l0.3,0.3l0.2,0.3l0.2,0.3l0.2,0.3l0.1,0.4l0.1,0.4l0,0.4L144.8,110z M140.9,113.9l-0.3,0l-0.4-0.1l-0.4-0.1
			l-0.4-0.1l-0.4-0.2l-0.3-0.2l-0.3-0.2l-0.3-0.3l-0.3-0.3l-0.2-0.3l-0.2-0.3l-0.2-0.4l-0.1-0.4l-0.1-0.4l-0.1-0.4l0-0.4l0-0.3
			l0.1-0.4l0.1-0.4l0.1-0.4l0.2-0.4l0.2-0.4l0.2-0.3l0.3-0.3l0.3-0.3l0.3-0.2l0.3-0.2l0.3-0.2l0.4-0.1l0.4-0.1l0.4-0.1l0.3,0l0,0
			v-0.6l0,0l-0.4,0l-0.4,0.1l-0.4,0.1l-0.4,0.1l-0.4,0.2c0,0,0,0,0,0l-0.4,0.2l0,0l-0.3,0.3c0,0,0,0,0,0h0l-0.4,0.3v0c0,0,0,0,0,0
			l-0.3,0.3c0,0,0,0,0,0h0l-0.3,0.4v0l-0.2,0.4l-0.2,0.4l-0.1,0.4l-0.1,0.4l-0.1,0.4l0,0.4l0,0.4l0.1,0.4l0.1,0.4l0.1,0.4l0.2,0.4
			l0.2,0.4c0,0,0,0,0,0l0.3,0.4h0c0,0,0,0,0,0l0.3,0.3c0,0,0,0,0,0l0.3,0.3h0c0,0,0,0,0,0l0.3,0.3l0.4,0.2c0,0,0,0,0,0l0.4,0.2
			l0.4,0.1l0.4,0.1l0.4,0.1l0.4,0h0V113.9z"/>
		<path class="st0" d="M144.8,110l0,0.3l-0.1,0.4l-0.1,0.4l-0.1,0.4l-0.2,0.4l-0.2,0.4l-0.2,0.3l-0.3,0.3l-0.3,0.3l-0.3,0.2
			l-0.3,0.2l-0.3,0.2l-0.4,0.1l-0.4,0.1l-0.4,0.1l-0.4,0h0v0.6h0l0.4,0l0.4-0.1l0.4-0.1l0.4-0.1l0.4-0.2c0,0,0,0,0,0l0.4-0.2h0
			l0.3-0.3c0,0,0,0,0,0h0l0.3-0.3l0.3-0.3c0,0,0,0,0,0h0l0.3-0.4v0l0.2-0.4l0.2-0.4l0.1-0.4l0.1-0.4l0.1-0.4l0-0.4l0-0.4l-0.1-0.4
			l-0.1-0.4l-0.1-0.4l-0.2-0.4l-0.2-0.4c0,0,0,0,0,0l-0.3-0.4h0c0,0,0,0,0,0l-0.3-0.3c0,0,0,0,0,0v0l-0.4-0.3h0c0,0,0,0,0,0
			l-0.3-0.3l-0.4-0.2l-0.4-0.2c0,0,0,0,0,0l-0.4-0.1l-0.4-0.1l-0.4-0.1l-0.4,0v0.6l0.3,0l0.4,0.1l0.4,0.1l0.4,0.1l0.3,0.2l0.3,0.2
			l0.3,0.2l0.3,0.3l0.3,0.3l0.2,0.3l0.2,0.3l0.2,0.3l0.1,0.4l0.1,0.4l0,0.4L144.8,110z M140.9,113.9l-0.3,0l-0.4-0.1l-0.4-0.1
			l-0.4-0.1l-0.4-0.2l-0.3-0.2l-0.3-0.2l-0.3-0.3l-0.3-0.3l-0.2-0.3l-0.2-0.3l-0.2-0.4l-0.1-0.4l-0.1-0.4l-0.1-0.4l0-0.4l0-0.3
			l0.1-0.4l0.1-0.4l0.1-0.4l0.2-0.4l0.2-0.4l0.2-0.3l0.3-0.3l0.3-0.3l0.3-0.2l0.3-0.2l0.3-0.2l0.4-0.1l0.4-0.1l0.4-0.1l0.3,0l0,0
			v-0.6l0,0l-0.4,0l-0.4,0.1l-0.4,0.1l-0.4,0.1l-0.4,0.2c0,0,0,0,0,0l-0.4,0.2l0,0l-0.3,0.3c0,0,0,0,0,0h0l-0.4,0.3v0c0,0,0,0,0,0
			l-0.3,0.3c0,0,0,0,0,0h0l-0.3,0.4v0l-0.2,0.4l-0.2,0.4l-0.1,0.4l-0.1,0.4l-0.1,0.4l0,0.4l0,0.4l0.1,0.4l0.1,0.4l0.1,0.4l0.2,0.4
			l0.2,0.4c0,0,0,0,0,0l0.3,0.4h0c0,0,0,0,0,0l0.3,0.3c0,0,0,0,0,0l0.3,0.3h0c0,0,0,0,0,0l0.3,0.3l0.4,0.2c0,0,0,0,0,0l0.4,0.2
			l0.4,0.1l0.4,0.1l0.4,0.1l0.4,0h0V113.9z"/>
		<path class="st0" d="M123.4,114.5h-4.9c0,0-0.1,0-0.1,0c0,0,0,0,0,0c0,0,0,0,0,0h0l0,0c0,0,0,0,0,0h0v-0.1c0,0,0,0,0,0l0,0l0-0.1
			c0,0,0-0.1,0-0.1l0-0.2c0,0,0,0,0,0l0-0.2c0,0,0,0,0-0.1l0.1-0.2l0.1-0.2c0,0,0,0,0,0l0.2-0.4l0,0l0.3-0.3l0,0l0.7-0.6l0.8-0.6
			l1.6-1.2l0.3-0.3l0.3-0.3l0.2-0.4l0.1-0.2l0.1-0.2l0.1-0.3l0-0.3l0-0.2l0-0.2l-0.1-0.2l-0.1-0.2l-0.1-0.2l-0.1-0.2l-0.1-0.2
			l-0.1-0.2l-0.2-0.1l-0.2-0.1l-0.2-0.1l-0.2-0.1l-0.2-0.1l-0.2-0.1l-0.2,0H121l-0.4,0l-0.2,0l-0.2,0.1l-0.2,0.1l-0.2,0.1l-0.2,0.1
			l-0.2,0.1l-0.1,0.1l-0.1,0.2l-0.1,0.2l-0.1,0.2l-0.1,0.2l-0.1,0.2l-0.1,0.4l-0.6-0.1l0.1-0.4v0l0.1-0.2l0.1-0.2l0.1-0.2l0.2-0.2
			l0.2-0.2l0.2-0.2l0.2-0.2l0.2-0.1l0.2-0.1l0.2-0.1l0.2-0.1l0.2-0.1h0l0.4,0l0.2,0l0.3,0l0.2,0.1l0.2,0.1l0.3,0.1l0.2,0.1l0.2,0.2
			l0.2,0.2c0,0,0,0,0,0h0l0.2,0.2c0,0,0,0,0,0h0l0.2,0.2c0,0,0,0,0,0l0.1,0.2c0,0,0,0,0,0l0.1,0.2l0,0l0.1,0.5l0,0.3l0,0.3l0,0.3v0
			l-0.1,0.3c0,0,0,0,0,0l0,0.2c0,0,0,0,0,0.1l-0.1,0.2c0,0,0,0,0,0l-0.2,0.4c0,0,0,0,0,0l-0.3,0.4l-0.4,0.4l-1.6,1.2l-0.8,0.6
			l-0.7,0.6l-0.3,0.3l-0.2,0.3l-0.1,0.2l-0.1,0.2h4.5V114.5z"/>
		<path class="st0" d="M123.4,114.5h-4.9c0,0-0.1,0-0.1,0c0,0,0,0,0,0c0,0,0,0,0,0h0l0,0c0,0,0,0,0,0h0v-0.1c0,0,0,0,0,0l0,0l0-0.1
			c0,0,0-0.1,0-0.1l0-0.2c0,0,0,0,0,0l0-0.2c0,0,0,0,0-0.1l0.1-0.2l0.1-0.2c0,0,0,0,0,0l0.2-0.4l0,0l0.3-0.3l0,0l0.7-0.6l0.8-0.6
			l1.6-1.2l0.3-0.3l0.3-0.3l0.2-0.4l0.1-0.2l0.1-0.2l0.1-0.3l0-0.3l0-0.2l0-0.2l-0.1-0.2l-0.1-0.2l-0.1-0.2l-0.1-0.2l-0.1-0.2
			l-0.1-0.2l-0.2-0.1l-0.2-0.1l-0.2-0.1l-0.2-0.1l-0.2-0.1l-0.2-0.1l-0.2,0H121l-0.4,0l-0.2,0l-0.2,0.1l-0.2,0.1l-0.2,0.1l-0.2,0.1
			l-0.2,0.1l-0.1,0.1l-0.1,0.2l-0.1,0.2l-0.1,0.2l-0.1,0.2l-0.1,0.2l-0.1,0.4l-0.6-0.1l0.1-0.4v0l0.1-0.2l0.1-0.2l0.1-0.2l0.2-0.2
			l0.2-0.2l0.2-0.2l0.2-0.2l0.2-0.1l0.2-0.1l0.2-0.1l0.2-0.1l0.2-0.1h0l0.4,0l0.2,0l0.3,0l0.2,0.1l0.2,0.1l0.3,0.1l0.2,0.1l0.2,0.2
			l0.2,0.2c0,0,0,0,0,0h0l0.2,0.2c0,0,0,0,0,0h0l0.2,0.2c0,0,0,0,0,0l0.1,0.2c0,0,0,0,0,0l0.1,0.2l0,0l0.1,0.5l0,0.3l0,0.3l0,0.3v0
			l-0.1,0.3c0,0,0,0,0,0l0,0.2c0,0,0,0,0,0.1l-0.1,0.2c0,0,0,0,0,0l-0.2,0.4c0,0,0,0,0,0l-0.3,0.4l-0.4,0.4l-1.6,1.2l-0.8,0.6
			l-0.7,0.6l-0.3,0.3l-0.2,0.3l-0.1,0.2l-0.1,0.2h4.5V114.5z"/>
	</g>
</g>
</svg>
