<?xml version="1.0" encoding="utf-8"?>
<!-- Generator: Adobe Illustrator 24.0.2, SVG Export Plug-In . SVG Version: 6.00 Build 0)  -->
<svg version="1.1" id="Layer_1" xmlns="http://www.w3.org/2000/svg" xmlns:xlink="http://www.w3.org/1999/xlink" x="0px" y="0px"
	 viewBox="0 0 211 133" style="enable-background:new 0 0 211 133;" xml:space="preserve">
<style type="text/css">
	.st0{fill-rule:evenodd;clip-rule:evenodd;fill:#FDFDFD;}
	.st1{fill-rule:evenodd;clip-rule:evenodd;fill:#7F3930;}
	.st2{fill-rule:evenodd;clip-rule:evenodd;fill:url(#SVGID_1_);}
	.st3{fill-rule:evenodd;clip-rule:evenodd;fill:url(#SVGID_2_);}
	.st4{fill-rule:evenodd;clip-rule:evenodd;fill:url(#SVGID_3_);}
	.st5{fill-rule:evenodd;clip-rule:evenodd;fill:url(#SVGID_4_);}
	.st6{fill-rule:evenodd;clip-rule:evenodd;fill:url(#SVGID_5_);}
	.st7{fill-rule:evenodd;clip-rule:evenodd;fill:url(#SVGID_6_);}
	.st8{fill-rule:evenodd;clip-rule:evenodd;fill:url(#SVGID_7_);}
	.st9{fill-rule:evenodd;clip-rule:evenodd;fill:url(#SVGID_8_);}
	.st10{fill-rule:evenodd;clip-rule:evenodd;fill:url(#SVGID_9_);}
	.st11{fill-rule:evenodd;clip-rule:evenodd;fill:url(#SVGID_10_);}
	.st12{fill-rule:evenodd;clip-rule:evenodd;fill:url(#SVGID_11_);}
	.st13{fill-rule:evenodd;clip-rule:evenodd;fill:url(#SVGID_12_);}
	.st14{fill-rule:evenodd;clip-rule:evenodd;fill:url(#SVGID_13_);}
	.st15{fill-rule:evenodd;clip-rule:evenodd;fill:url(#SVGID_14_);}
	.st16{fill-rule:evenodd;clip-rule:evenodd;fill:#373435;}
	.st17{fill-rule:evenodd;clip-rule:evenodd;fill:url(#SVGID_15_);}
	.st18{fill-rule:evenodd;clip-rule:evenodd;fill:url(#SVGID_16_);}
	.st19{fill-rule:evenodd;clip-rule:evenodd;fill:#342F25;}
	.st20{fill-rule:evenodd;clip-rule:evenodd;fill:#414041;}
	.st21{fill-rule:evenodd;clip-rule:evenodd;fill:#838587;}
</style>
<g>
	<path class="st0" d="M116.5,29.6h5.2l0.8,1.6c0.3,0.5,0.6,1,1,1.4c0.4,0.4,0.8,0.7,1.3,0.9l1.8,0.7v1.4c1.8,0.4,3.4,1.3,4.7,2.9
		c1.6,2,2.2,4.6,2.4,7.2c0,0.4,0,0.7,0,1.1v29.6l-3.5-0.8c-4.1-0.9-8.2-1.7-12.4-2.2c-4.1-0.5-8.2-0.7-12.3-0.7h0
		c-4.1,0-8.3,0.2-12.4,0.7c-4.2,0.5-8.4,1.3-12.5,2.2l-3.5,0.8V46.6c0-0.4,0-0.7,0-1.1c0.1-2.5,0.7-5.1,2.4-7.2
		c1.2-1.5,2.8-2.5,4.7-2.9v-1.4l1.8-0.7c0.5-0.2,0.9-0.5,1.3-0.9c0.4-0.4,0.7-0.9,1-1.4l0.8-1.6h5.2c1.2-1.5,2.6-2.8,4.2-3.9
		c2.1-1.4,4.3-2.2,6.8-2.2h0.1c2.5,0,4.8,0.9,6.8,2.2C113.8,26.8,115.2,28.1,116.5,29.6z"/>
	<path class="st1" d="M67.6,77.3c-3.6,1-7.2,2.3-10.6,3.9c-3.4,1.6-6.6,3.6-9.8,6c4.3,3.2,3.7,6.8,3.1,10.5
		c-0.3,1.9-0.6,3.9-0.1,5.7c3.2-2.8,7.2-5.5,11.9-8.1c4.9-2.8,10.6-5.4,17-8v-8.5l-6.7,6l-0.7,0.6l-0.4-0.9L67.6,77.3L67.6,77.3z
		 M56.4,79.8c3.7-1.8,7.5-3.1,11.4-4.2l0.6-0.2l0.3,0.5l3.6,6.9l7.2-6.5l1.2-1.1v1.7v10.7v0.5l-0.5,0.2c-6.5,2.6-12.3,5.3-17.3,8.1
		c-5,2.8-9.1,5.7-12.4,8.7l-0.7,0.7l-0.4-0.9c-1.2-2.5-0.8-5-0.4-7.5c0.5-3.5,1.1-6.9-3.3-9.6l-0.9-0.6l0.8-0.7
		C49,83.8,52.7,81.6,56.4,79.8z"/>
	<path class="st1" d="M142.9,75.7c3.9,1.1,7.7,2.4,11.4,4.2c3.7,1.8,7.3,4,10.9,6.8l0.8,0.7l-0.9,0.6c-4.4,2.8-3.9,6.2-3.3,9.6
		c0.4,2.5,0.8,5-0.4,7.5l-0.4,0.9l-0.7-0.7c-3.3-3-7.4-5.9-12.4-8.7c-5-2.8-10.8-5.5-17.3-8.1l-0.5-0.2v-0.5V77.1v-1.7l1.2,1.1
		l7.2,6.5L142,76l0.3-0.5L142.9,75.7L142.9,75.7z M153.7,81.2c-3.5-1.6-7-2.9-10.6-3.9l-3.7,7.3l-0.4,0.9l-0.7-0.6l-6.7-6v8.5
		c6.4,2.6,12.1,5.3,17,8c4.7,2.6,8.7,5.3,11.9,8.1c0.5-1.8,0.2-3.8-0.1-5.7c-0.6-3.7-1.1-7.4,3.1-10.5
		C160.3,84.7,157,82.8,153.7,81.2z"/>
	<path class="st1" d="M79.2,62.1c-2.4,0.7-4.8,1.7-7,3c-2.3,1.3-4.5,3-6.5,5.1L72.3,83l6.9-6.2V62.1L79.2,62.1z M71.4,63.8
		c2.6-1.5,5.4-2.6,8.3-3.4l0.9,0.7v15.9v0.3l-0.2,0.2l-7.9,7.1l-0.7,0.6l-0.4-0.9l-7.3-14.1L63.9,70l0.4-0.4
		C66.4,67.2,68.8,65.3,71.4,63.8z"/>
	<path class="st1" d="M131,60.4c2.9,0.8,5.7,1.9,8.3,3.4c2.6,1.5,5,3.4,7.2,5.8l0.4,0.4l-0.2,0.5l-7.3,14.1l-0.4,0.9l-0.7-0.6
		l-7.9-7.1l-0.2-0.2v-0.3V61.2L131,60.4L131,60.4z M138.5,65.1c-2.2-1.3-4.5-2.2-7-3v14.6l6.9,6.2l6.6-12.7
		C143,68.1,140.8,66.5,138.5,65.1z"/>
	<linearGradient id="SVGID_1_" gradientUnits="userSpaceOnUse" x1="67.2751" y1="73.8948" x2="79.6945" y2="71.9277">
		<stop  offset="0" style="stop-color:#FFEA82"/>
		<stop  offset="1" style="stop-color:#D4BA6B"/>
	</linearGradient>
	<path class="st2" d="M72.2,65.1c-2.3,1.3-4.5,3-6.5,5.1l2.7,5.3l0.3,0.5l3.6,6.9l6.9-6.2V62.1C76.7,62.9,74.4,63.8,72.2,65.1z"/>
	<linearGradient id="SVGID_2_" gradientUnits="userSpaceOnUse" x1="57.2063" y1="90.4032" x2="67.9454" y2="84.2029">
		<stop  offset="0" style="stop-color:#FFEA82"/>
		<stop  offset="1" style="stop-color:#D4BA6B"/>
	</linearGradient>
	<path class="st3" d="M67.6,77.3c-3.6,1-7.2,2.3-10.6,3.9c-3.4,1.6-6.6,3.6-9.8,6c4.3,3.2,3.7,6.8,3.1,10.5
		c-0.3,1.9-0.6,3.9-0.1,5.7c3.2-2.8,7.2-5.5,11.9-8.1c4.9-2.8,10.6-5.4,17-8v-8.5l-6.7,6l-0.7,0.6l0,0l-0.4-0.9L67.6,77.3z"/>
	<linearGradient id="SVGID_3_" gradientUnits="userSpaceOnUse" x1="143.4642" y1="73.1517" x2="132.1692" y2="72.3619">
		<stop  offset="0" style="stop-color:#FFEA82"/>
		<stop  offset="1" style="stop-color:#D4BA6B"/>
	</linearGradient>
	<path class="st4" d="M131.5,62.1v14.6l6.9,6.2L142,76l0.3-0.5l2.7-5.3c-2-2.1-4.2-3.8-6.5-5.1C136.3,63.8,134,62.9,131.5,62.1z"/>
	<linearGradient id="SVGID_4_" gradientUnits="userSpaceOnUse" x1="156.3105" y1="92.8371" x2="140.1153" y2="82.3199">
		<stop  offset="0" style="stop-color:#FFEA82"/>
		<stop  offset="1" style="stop-color:#D4BA6B"/>
	</linearGradient>
	<path class="st5" d="M143.1,77.3l-3.7,7.3l-0.4,0.9l0,0l-0.7-0.6l-6.7-6v8.5c6.4,2.6,12.1,5.3,17,8c4.7,2.6,8.7,5.3,11.9,8.1
		c0.5-1.8,0.2-3.8-0.1-5.7c-0.6-3.7-1.1-7.4,3.1-10.5c-3.1-2.4-6.4-4.4-9.8-6C150.2,79.5,146.7,78.3,143.1,77.3z"/>
	<g>
		<linearGradient id="SVGID_5_" gradientUnits="userSpaceOnUse" x1="37.4928" y1="98.6534" x2="97.0877" y2="98.6534">
			<stop  offset="0" style="stop-color:#ED1C24"/>
			<stop  offset="1" style="stop-color:#8B0304"/>
		</linearGradient>
		<path class="st6" d="M84.8,94.8l-2.2,6.4c-12.2-6.7-18.2,3.4-28.9,3.9c-1.3-2.7-2.6-5.4-3.9-8.1C53.7,105.1,71.2,85.4,84.8,94.8z"
			/>
		<linearGradient id="SVGID_6_" gradientUnits="userSpaceOnUse" x1="71.5846" y1="101.5959" x2="86.7095" y2="101.5959">
			<stop  offset="0" style="stop-color:#ED1C24"/>
			<stop  offset="1" style="stop-color:#8B0304"/>
		</linearGradient>
		<path class="st7" d="M78,99.3l-2.3,4.5c2.1-1.7,4.5-2.6,7-2.6C81,100.3,79.4,99.7,78,99.3z"/>
		<linearGradient id="SVGID_7_" gradientUnits="userSpaceOnUse" x1="70.7169" y1="102.7607" x2="107.3788" y2="102.7607">
			<stop  offset="0" style="stop-color:#ED1C24"/>
			<stop  offset="1" style="stop-color:#8B0304"/>
		</linearGradient>
		<path class="st8" d="M75.7,103.8c-1.8,1.6-0.7,3.9,0.8,4.6c1,0.6,2.9-0.2,4.9-1.6c3.8-2.7,11.5-3.7,20.8-4.2
			c-2.9-1.2-7.2-2.6-12-5.8l0,0c-2.2,0.6-4.5,1.2-6.7,1.9c-0.3,0.8-0.6,1.6-0.8,2.5C80.1,101.3,77.8,102.2,75.7,103.8z"/>
		<linearGradient id="SVGID_8_" gradientUnits="userSpaceOnUse" x1="48.9841" y1="95.2713" x2="64.6021" y2="95.2713">
			<stop  offset="0" style="stop-color:#ED1C24"/>
			<stop  offset="1" style="stop-color:#8B0304"/>
		</linearGradient>
		<path class="st9" d="M63.4,91.6c-0.2,1.4-0.4,2.8-0.6,4.2l0,0c-6.2,2.6-11.2,5.1-13.1,1.2c-0.5-2.6,2.2-2.8,5.3-2.4
			C60.3,95.3,62.8,94,63.4,91.6L63.4,91.6z M50.2,97.8L49.8,97C49.8,97.3,50,97.6,50.2,97.8z"/>
		<linearGradient id="SVGID_9_" gradientUnits="userSpaceOnUse" x1="51.185" y1="90.1134" x2="65.277" y2="90.1134">
			<stop  offset="0" style="stop-color:#ED1C24"/>
			<stop  offset="1" style="stop-color:#8B0304"/>
		</linearGradient>
		<path class="st10" d="M63.4,91.6c0.4-2.6-1.9-4.6-7-6c0.4,1,0.9,2,1.3,3c-1.4-0.1-2.8,0.3-4.1,1.3c3.5-0.4,7.4,1.9,5.2,4.8
			c2.6-0.2,4.1-1.3,4.6-2.8L63.4,91.6z"/>
	</g>
	<g>
		<linearGradient id="SVGID_10_" gradientUnits="userSpaceOnUse" x1="113.6881" y1="98.6534" x2="173.283" y2="98.6534">
			<stop  offset="0" style="stop-color:#ED1C24"/>
			<stop  offset="1" style="stop-color:#8B0304"/>
		</linearGradient>
		<path class="st11" d="M125.9,94.8l2.2,6.4c12.2-6.7,18.2,3.4,28.9,3.9c1.3-2.7,2.6-5.4,3.9-8.1C157.1,105.1,139.6,85.4,125.9,94.8
			z"/>
		<linearGradient id="SVGID_11_" gradientUnits="userSpaceOnUse" x1="124.0698" y1="101.5959" x2="139.1947" y2="101.5959">
			<stop  offset="0" style="stop-color:#ED1C24"/>
			<stop  offset="1" style="stop-color:#8B0304"/>
		</linearGradient>
		<path class="st12" d="M132.8,99.3l2.3,4.5c-2.1-1.7-4.5-2.6-7-2.6C129.8,100.3,131.3,99.7,132.8,99.3z"/>
		<linearGradient id="SVGID_12_" gradientUnits="userSpaceOnUse" x1="103.4033" y1="102.7607" x2="140.0652" y2="102.7607">
			<stop  offset="0" style="stop-color:#ED1C24"/>
			<stop  offset="1" style="stop-color:#8B0304"/>
		</linearGradient>
		<path class="st13" d="M135.1,103.8c1.8,1.6,0.7,3.9-0.8,4.6c-1,0.6-2.9-0.2-4.9-1.6c-3.8-2.7-11.5-3.7-20.8-4.2
			c2.9-1.2,7.2-2.6,12-5.8l0,0c2.2,0.6,4.5,1.2,6.7,1.9c0.3,0.8,0.6,1.6,0.8,2.5C130.7,101.3,133,102.2,135.1,103.8z"/>
		<linearGradient id="SVGID_13_" gradientUnits="userSpaceOnUse" x1="146.1772" y1="95.2713" x2="161.7952" y2="95.2713">
			<stop  offset="0" style="stop-color:#ED1C24"/>
			<stop  offset="1" style="stop-color:#8B0304"/>
		</linearGradient>
		<path class="st14" d="M147.4,91.6c0.2,1.4,0.4,2.8,0.6,4.2l0,0c6.2,2.6,11.2,5.1,13.1,1.2c0.5-2.6-2.2-2.8-5.3-2.4
			C150.4,95.3,148,94,147.4,91.6L147.4,91.6z M160.6,97.8L161,97C161,97.3,160.8,97.6,160.6,97.8z"/>
		<linearGradient id="SVGID_14_" gradientUnits="userSpaceOnUse" x1="145.5034" y1="90.1134" x2="159.5952" y2="90.1134">
			<stop  offset="0" style="stop-color:#ED1C24"/>
			<stop  offset="1" style="stop-color:#8B0304"/>
		</linearGradient>
		<path class="st15" d="M147.4,91.6c-0.4-2.6,1.9-4.6,7-6c-0.4,1-0.9,2-1.3,3c1.4-0.1,2.8,0.3,4.1,1.3c-3.5-0.4-7.4,1.9-5.2,4.8
			c-2.6-0.2-4.1-1.3-4.6-2.8L147.4,91.6z"/>
	</g>
	<path class="st0" d="M105.3,26.3c-3.9,0.2-7,2.5-9.7,6.1c-1.6,0-3.2,0-4.8,0c-0.8,1.7-2,2.9-3.8,3.6v2.1c-5-0.3-7.1,3.2-7.1,8.5
		v26.1c8.6-2,17.1-3.1,25.5-3c8.4-0.1,16.9,1,25.3,3v-26c0-5.3-2.1-8.8-7.1-8.5v-2.1c-1.8-0.7-3-2-3.8-3.6c-1.6,0-3.2,0-4.8,0
		C112.4,28.8,109.3,26.5,105.3,26.3z"/>
	<path class="st1" d="M105.3,27.7c-1.7,0.1-3.2,0.6-4.6,1.5c-1.5,1-2.8,2.3-4.1,4l-0.4,0.5h-0.7h-4c-0.4,0.7-0.9,1.3-1.4,1.8
		c-0.5,0.5-1.2,1-1.9,1.4v1.2v1.4l-1.4-0.1c-0.1,0-0.3,0-0.4,0c-1.7,0-3,0.6-3.8,1.6c-0.9,1.1-1.3,2.7-1.4,4.7c0,0.2,0,0.5,0,0.9
		v24.4c3.8-0.8,7.6-1.5,11.3-1.9c4.3-0.5,8.6-0.8,12.9-0.7c4.3,0,8.5,0.2,12.8,0.7c3.7,0.4,7.5,1.1,11.2,1.9V46.6c0-0.3,0-0.6,0-0.9
		c-0.1-2-0.6-3.6-1.4-4.7c-0.8-1-2-1.6-3.8-1.6c-0.2,0-0.3,0-0.4,0l-1.4,0.1v-1.4v-1.2c-0.7-0.4-1.3-0.8-1.9-1.4
		c-0.5-0.5-1-1.1-1.4-1.8h-4h-0.7l-0.4-0.5c-1.3-1.7-2.6-3.1-4.1-4C108.5,28.3,107,27.8,105.3,27.7L105.3,27.7z M99.3,27
		c1.8-1.2,3.8-1.9,6-2h0.1c2.2,0.1,4.2,0.8,6,2c1.6,1,3,2.4,4.3,4.1h4.2h0.8l0.4,0.7c0.4,0.7,0.8,1.3,1.3,1.8
		c0.5,0.5,1.1,0.9,1.8,1.2l0.8,0.3v0.9v0.8c2.2,0.2,3.8,1.1,5,2.5c1.3,1.6,1.9,3.7,2,6.3c0,0.4,0,0.7,0,1v26v1.7l-1.6-0.4
		c-4.2-1-8.4-1.7-12.6-2.2c-4.2-0.5-8.3-0.8-12.5-0.7h0c-4.2,0-8.3,0.2-12.6,0.7c-4.2,0.5-8.4,1.3-12.7,2.2l-1.6,0.4v-1.7V46.6
		c0-0.3,0-0.6,0-1c0.1-2.6,0.8-4.7,2-6.3c1.2-1.5,2.8-2.3,5-2.5v-0.8v-0.9l0.8-0.3c0.7-0.3,1.3-0.7,1.8-1.2c0.5-0.5,0.9-1.1,1.3-1.8
		l0.4-0.7h0.8H95C96.3,29.4,97.7,28,99.3,27z"/>
	<path class="st1" d="M79.9,87.7c11.5,13.5,22.8,13.9,25.5,16.7c2.6-2.9,14-3.2,25.5-16.7c0-1,0-2.1,0-3.1l0,0
		c-11.5,13.5-22.8,13.9-25.5,16.7c-2.6-2.9-14-3.2-25.5-16.7l0,0C79.9,85.7,79.9,86.7,79.9,87.7z"/>
	<path class="st0" d="M105.4,103.5c0.3,0,0.6-0.3,0.6-0.6c0-0.3-0.3-0.6-0.6-0.6c-0.3,0-0.6,0.3-0.6,0.6
		C104.8,103.2,105.1,103.5,105.4,103.5z"/>
	<g>
		<g>
			<path class="st0" d="M103.5,102.3c0.3,0,0.6-0.3,0.6-0.6c0-0.3-0.3-0.6-0.6-0.6c-0.3,0-0.6,0.3-0.6,0.6
				C102.9,102,103.2,102.3,103.5,102.3z"/>
			<path class="st0" d="M101.5,101.4c0.3,0,0.6-0.3,0.6-0.6c0-0.3-0.3-0.6-0.6-0.6c-0.3,0-0.6,0.3-0.6,0.6
				C100.9,101.2,101.1,101.4,101.5,101.4z"/>
			<path class="st0" d="M99.4,100.6c0.3,0,0.6-0.3,0.6-0.6c0-0.3-0.3-0.6-0.6-0.6c-0.3,0-0.6,0.3-0.6,0.6
				C98.8,100.4,99.1,100.6,99.4,100.6z"/>
			<circle class="st0" cx="97.3" cy="99.2" r="0.6"/>
			<path class="st0" d="M95.3,98.9c0.3,0,0.6-0.3,0.6-0.6c0-0.3-0.3-0.6-0.6-0.6c-0.3,0-0.6,0.3-0.6,0.6
				C94.7,98.6,95,98.9,95.3,98.9z"/>
			<path class="st0" d="M93.3,97.8c0.3,0,0.6-0.3,0.6-0.6c0-0.3-0.3-0.6-0.6-0.6c-0.3,0-0.6,0.3-0.6,0.6
				C92.7,97.6,93,97.8,93.3,97.8z"/>
			<path class="st0" d="M91.4,96.7c0.3,0,0.6-0.3,0.6-0.6c0-0.3-0.3-0.6-0.6-0.6c-0.3,0-0.6,0.3-0.6,0.6
				C90.8,96.5,91.1,96.7,91.4,96.7z"/>
			<path class="st0" d="M89.6,95.5c0.3,0,0.6-0.3,0.6-0.6c0-0.3-0.3-0.6-0.6-0.6c-0.3,0-0.6,0.3-0.6,0.6
				C88.9,95.3,89.2,95.5,89.6,95.5z"/>
			<path class="st0" d="M87.7,94.2c0.3,0,0.6-0.3,0.6-0.6c0-0.3-0.3-0.6-0.6-0.6c-0.3,0-0.6,0.3-0.6,0.6
				C87.1,94,87.4,94.2,87.7,94.2z"/>
			<path class="st0" d="M86,92.8c0.3,0,0.6-0.3,0.6-0.6c0-0.3-0.3-0.6-0.6-0.6c-0.3,0-0.6,0.3-0.6,0.6C85.4,92.6,85.7,92.8,86,92.8z
				"/>
			<path class="st0" d="M84.3,91.4c0.3,0,0.6-0.3,0.6-0.6c0-0.3-0.3-0.6-0.6-0.6c-0.3,0-0.6,0.3-0.6,0.6
				C83.7,91.1,84,91.4,84.3,91.4z"/>
			<path class="st0" d="M82.7,89.8c0.3,0,0.6-0.3,0.6-0.6c0-0.3-0.3-0.6-0.6-0.6c-0.3,0-0.6,0.3-0.6,0.6
				C82.1,89.5,82.4,89.8,82.7,89.8z"/>
		</g>
		<path class="st0" d="M81.2,88.2c0.3,0,0.6-0.3,0.6-0.6S81.5,87,81.2,87c-0.3,0-0.6,0.3-0.6,0.6S80.9,88.2,81.2,88.2z"/>
		<g>
			<path class="st0" d="M107.3,102.3c-0.3,0-0.6-0.3-0.6-0.6c0-0.3,0.3-0.6,0.6-0.6c0.3,0,0.6,0.3,0.6,0.6
				C108,102,107.7,102.3,107.3,102.3z"/>
			<path class="st0" d="M109.4,101.4c-0.3,0-0.6-0.3-0.6-0.6c0-0.3,0.3-0.6,0.6-0.6s0.6,0.3,0.6,0.6
				C110,101.2,109.7,101.4,109.4,101.4z"/>
			<path class="st0" d="M111.5,100.6c-0.3,0-0.6-0.3-0.6-0.6c0-0.3,0.3-0.6,0.6-0.6c0.3,0,0.6,0.3,0.6,0.6
				C112.1,100.4,111.8,100.6,111.5,100.6z"/>
			<path class="st0" d="M113.5,99.8c-0.3,0-0.6-0.3-0.6-0.6c0-0.3,0.3-0.6,0.6-0.6c0.3,0,0.6,0.3,0.6,0.6
				C114.1,99.5,113.9,99.8,113.5,99.8z"/>
			<path class="st0" d="M115.5,98.9c-0.3,0-0.6-0.3-0.6-0.6c0-0.3,0.3-0.6,0.6-0.6c0.3,0,0.6,0.3,0.6,0.6
				C116.1,98.6,115.9,98.9,115.5,98.9z"/>
			<path class="st0" d="M117.5,97.8c-0.3,0-0.6-0.3-0.6-0.6c0-0.3,0.3-0.6,0.6-0.6c0.3,0,0.6,0.3,0.6,0.6
				C118.1,97.6,117.9,97.8,117.5,97.8z"/>
			<path class="st0" d="M119.5,96.7c-0.3,0-0.6-0.3-0.6-0.6c0-0.3,0.3-0.6,0.6-0.6c0.3,0,0.6,0.3,0.6,0.6
				C120.1,96.5,119.8,96.7,119.5,96.7z"/>
			<path class="st0" d="M121.3,95.5c-0.3,0-0.6-0.3-0.6-0.6c0-0.3,0.3-0.6,0.6-0.6c0.3,0,0.6,0.3,0.6,0.6
				C121.9,95.3,121.7,95.5,121.3,95.5z"/>
			<path class="st0" d="M123.1,94.2c-0.3,0-0.6-0.3-0.6-0.6c0-0.3,0.3-0.6,0.6-0.6c0.3,0,0.6,0.3,0.6,0.6
				C123.7,94,123.5,94.2,123.1,94.2z"/>
			<path class="st0" d="M124.9,92.8c-0.3,0-0.6-0.3-0.6-0.6c0-0.3,0.3-0.6,0.6-0.6c0.3,0,0.6,0.3,0.6,0.6
				C125.5,92.6,125.2,92.8,124.9,92.8z"/>
			<path class="st0" d="M126.5,91.4c-0.3,0-0.6-0.3-0.6-0.6c0-0.3,0.3-0.6,0.6-0.6c0.3,0,0.6,0.3,0.6,0.6
				C127.1,91.1,126.9,91.4,126.5,91.4z"/>
			<path class="st0" d="M128.1,89.8c-0.3,0-0.6-0.3-0.6-0.6c0-0.3,0.3-0.6,0.6-0.6c0.3,0,0.6,0.3,0.6,0.6
				C128.7,89.5,128.5,89.8,128.1,89.8z"/>
		</g>
		<path class="st0" d="M129.7,88.2c0.3,0,0.6-0.3,0.6-0.6S130,87,129.7,87c-0.3,0-0.6,0.3-0.6,0.6S129.3,88.2,129.7,88.2z"/>
	</g>
	<path class="st16" d="M105.4,81.7l-19.9,8.6c1.5,1.3,3,2.4,4.5,3.4C90,93.6,105.4,81.7,105.4,81.7z M105.4,81.7l19.9,8.6
		c-1.5,1.3-3,2.4-4.5,3.4C120.6,93.4,105.4,81.7,105.4,81.7L105.4,81.7z M105.4,81.7l2.3,18.3v0c-1,0.5-1.8,0.9-2.3,1.4
		c-0.5-0.5-1.3-1-2.3-1.4v0L105.4,81.7z M105.4,81.7l10.9,14.6c-1.4,0.7-2.7,1.3-3.9,1.8L105.4,81.7z M105.4,81.7l-7,16.4
		c-1.2-0.5-2.5-1.1-3.9-1.8L105.4,81.7z"/>
	<path class="st1" d="M73.4,79.9c-1-1.4-1.9-2.9-2.9-4.3L69.4,74l2-0.6c11.1-3.2,22.5-5.2,34.1-5.2c11.6,0,23,2,34.1,5.2l2,0.6
		l-1.1,1.7c-1,1.4-1.9,2.9-2.9,4.3c0.4,2,0.9,4,1.3,6l0.5,2.4l-2.4-0.7c-10.3-2.9-20.8-4.6-31.5-4.6c-10.7,0-21.2,1.7-31.5,4.6
		l-2.4,0.7l0.5-2.4C72.5,84,72.9,82,73.4,79.9z"/>
	<linearGradient id="SVGID_15_" gradientUnits="userSpaceOnUse" x1="63.6275" y1="33.1481" x2="147.4453" y2="126.2372">
		<stop  offset="0" style="stop-color:#FFEA82"/>
		<stop  offset="1" style="stop-color:#D4BA6B"/>
	</linearGradient>
	<path class="st17" d="M105.4,81.7c-10.9-0.1-21.6,1.7-31.9,4.7c0.5-2.2,1-4.4,1.4-6.7c-1.1-1.6-2.1-3.2-3.2-4.8
		c11.3-3.2,22.5-5.2,33.7-5.1c11.1-0.1,22.4,1.9,33.7,5.1c-1.1,1.6-2.1,3.2-3.2,4.8c0.5,2.2,1,4.4,1.4,6.7
		C127,83.3,116.4,81.6,105.4,81.7z"/>
	<path class="st16" d="M84.1,73.9l7-0.9l0.2,1.8L89,75.1l0.7,5.6l-2.3,0.3l-0.7-5.6l-2.4,0.3L84.1,73.9L84.1,73.9z M97,78.9L94.3,79
		L94,80.3l-2.4,0.1l2.4-7.7l2.5-0.1l3.2,7.4l-2.4,0.1L97,78.9L97,78.9z M96.4,77.3l-1-2.7l-0.7,2.7L96.4,77.3L96.4,77.3z
		 M100.6,72.5h3.5c0.7,0,1.2,0.1,1.7,0.3c0.4,0.2,0.8,0.5,1,0.8c0.3,0.3,0.5,0.7,0.6,1.2c0.1,0.5,0.2,0.9,0.2,1.5
		c0,0.8-0.1,1.4-0.3,1.9c-0.2,0.4-0.4,0.8-0.8,1.1c-0.3,0.3-0.7,0.5-1,0.6c-0.5,0.1-1,0.2-1.4,0.2h-3.5V72.5L100.6,72.5z M103,74.2
		v4.1h0.6c0.5,0,0.8-0.1,1-0.2c0.2-0.1,0.4-0.3,0.5-0.6c0.1-0.3,0.2-0.7,0.2-1.3c0-0.8-0.1-1.3-0.4-1.6c-0.3-0.3-0.7-0.4-1.3-0.4
		H103L103,74.2z M113.9,77.2l2,0.7c-0.2,0.6-0.4,1-0.7,1.4c-0.3,0.4-0.7,0.6-1.1,0.8c-0.4,0.2-1,0.2-1.7,0.2c-0.8,0-1.5-0.2-2-0.5
		c-0.5-0.3-0.9-0.7-1.3-1.3c-0.3-0.6-0.5-1.4-0.4-2.3c0.1-1.2,0.4-2.2,1.1-2.8c0.7-0.6,1.7-0.9,2.9-0.9c0.9,0,1.7,0.3,2.2,0.7
		c0.5,0.4,0.9,1,1.1,1.8l-2.1,0.3c-0.1-0.2-0.1-0.4-0.2-0.5c-0.1-0.2-0.3-0.3-0.5-0.4c-0.2-0.1-0.4-0.2-0.6-0.2
		c-0.5,0-0.9,0.2-1.2,0.6c-0.2,0.3-0.4,0.8-0.4,1.5c0,0.8,0.1,1.4,0.3,1.7c0.2,0.3,0.6,0.5,1,0.5c0.4,0,0.8-0.1,1-0.3
		C113.5,78.1,113.7,77.7,113.9,77.2L113.9,77.2z M117,76.9c0.2-1.2,0.6-2.1,1.4-2.7c0.8-0.6,1.8-0.8,3-0.7c1.2,0.2,2.2,0.6,2.8,1.4
		c0.6,0.7,0.8,1.7,0.7,2.9c-0.1,0.9-0.3,1.6-0.7,2.1c-0.4,0.5-0.8,0.9-1.4,1.1c-0.6,0.2-1.3,0.3-2.1,0.2c-0.8-0.1-1.5-0.3-2-0.7
		c-0.5-0.3-0.9-0.8-1.2-1.4C117,78.5,116.9,77.7,117,76.9L117,76.9z M119.3,77.2c-0.1,0.8,0,1.3,0.2,1.7c0.2,0.4,0.6,0.6,1.1,0.6
		c0.5,0.1,0.9-0.1,1.2-0.3c0.3-0.3,0.5-0.9,0.6-1.7c0.1-0.7,0-1.2-0.2-1.6c-0.2-0.4-0.6-0.6-1.1-0.6c-0.5-0.1-0.9,0.1-1.2,0.4
		C119.6,75.9,119.4,76.4,119.3,77.2L119.3,77.2z M125.6,79.7l2.2,0.3l-0.3,2.1l-2.2-0.3L125.6,79.7z"/>
	<linearGradient id="SVGID_16_" gradientUnits="userSpaceOnUse" x1="89.629" y1="39.3251" x2="120.8658" y2="74.0171">
		<stop  offset="0" style="stop-color:#FFEA82"/>
		<stop  offset="1" style="stop-color:#D4BA6B"/>
	</linearGradient>
	<path class="st18" d="M81.2,46.6v24.3c8-1.7,16-2.7,24.2-2.7c8.1,0,16.1,1,24,2.6V46.6c0-0.3,0-0.6,0-0.9c-0.1-2-0.6-3.6-1.4-4.7
		c-0.8-1-2-1.6-3.8-1.6c-0.2,0-0.3,0-0.4,0l-1.4,0.1v-1.4v-1.2c-0.7-0.4-1.3-0.8-1.9-1.4c-0.5-0.5-1-1.1-1.4-1.8h-4h-0.7l-0.4-0.5
		c-1.3-1.7-2.6-3.1-4.1-4c-1.4-0.9-2.9-1.5-4.6-1.5c-1.7,0.1-3.2,0.6-4.6,1.5c-1.5,1-2.8,2.3-4.1,4l-0.4,0.5h-0.7h-4
		c-0.4,0.7-0.9,1.3-1.4,1.8c-0.5,0.5-1.2,1-1.9,1.4v1.2v1.4l-1.4-0.1c-0.1,0-0.3,0-0.4,0c-1.7,0-3,0.6-3.8,1.6
		c-0.9,1.1-1.3,2.7-1.4,4.7C81.3,46,81.2,46.3,81.2,46.6z"/>
	<path class="st19" d="M94.8,40h10.5c2.1,0,3.7,0.3,5,0.8c1.3,0.6,2.3,1.4,3.2,2.4c0.8,1.1,1.4,2.3,1.8,3.7c0.4,1.4,0.6,2.9,0.6,4.4
		c0,2.5-0.3,4.4-0.8,5.7c-0.6,1.4-1.3,2.5-2.3,3.4c-1,0.9-2.1,1.5-3.2,1.8c-1.6,0.4-3,0.6-4.2,0.6H94.8V40L94.8,40z M101.9,45.2
		v12.5h1.7c1.5,0,2.5-0.2,3.2-0.5c0.6-0.3,1.1-0.9,1.5-1.7c0.4-0.8,0.5-2.1,0.5-4c0-2.4-0.4-4.1-1.2-5c-0.8-0.9-2.1-1.3-3.9-1.3
		H101.9z"/>
	<path class="st20" d="M95.5,40.7v21.4h9.8c1.4,0,2.7-0.3,4-0.6c1.1-0.3,2-0.9,2.9-1.7c0.9-0.9,1.6-1.9,2.1-3.1
		c0.7-1.6,0.8-3.7,0.8-5.4c0-1.4-0.2-2.9-0.5-4.2c-0.3-1.2-0.9-2.4-1.7-3.4c-0.8-1-1.7-1.7-2.9-2.2c-1.4-0.6-3.2-0.8-4.7-0.8H95.5
		L95.5,40.7z M101.1,44.4h2.5c1.6,0,3.4,0.3,4.5,1.6c1.2,1.4,1.4,3.8,1.4,5.5c0,1.3-0.1,3.1-0.6,4.3c-0.4,0.9-1,1.6-1.8,2.1
		c-1,0.5-2.4,0.6-3.5,0.6h-2.5V44.4z"/>
	<path class="st21" d="M114.2,54.7c-0.9,3.9-3.2,6.1-7.6,6.8C109.7,59.9,112.4,57.8,114.2,54.7z"/>
</g>
</svg>
