<?xml version="1.0" encoding="utf-8"?>
<!-- Generator: Adobe Illustrator 24.0.2, SVG Export Plug-In . SVG Version: 6.00 Build 0)  -->
<svg version="1.1" id="Layer_1" xmlns="http://www.w3.org/2000/svg" xmlns:xlink="http://www.w3.org/1999/xlink" x="0px" y="0px"
	 viewBox="0 0 211 133" style="enable-background:new 0 0 211 133;" xml:space="preserve">
<style type="text/css">
	.st0{fill-rule:evenodd;clip-rule:evenodd;fill:#FDFDFD;}
	.st1{fill-rule:evenodd;clip-rule:evenodd;fill:#3D924E;}
	.st2{fill-rule:evenodd;clip-rule:evenodd;fill:#055839;}
	.st3{fill-rule:evenodd;clip-rule:evenodd;fill:#BCBEC0;}
	.st4{fill-rule:evenodd;clip-rule:evenodd;fill:#EC3237;}
	.st5{fill-rule:evenodd;clip-rule:evenodd;fill:#D1D2D4;}
</style>
<g>
	<circle class="st0" cx="107.3" cy="42.3" r="23.4"/>
	<g>
		<path class="st1" d="M135.3,12.6l-0.1,3.7l-3.2,86.9l-0.2,6.1l-12.3,5.5l-5,2.2l-7.3,3.2l-15.6-6.9l-9-4L79,12.6H135.3L135.3,12.6
			z M107.1,64.7c12,0,21.6-9.7,21.6-21.6c0-12-9.7-21.6-21.6-21.6c-12,0-21.6,9.7-21.6,21.6C85.5,55,95.2,64.7,107.1,64.7z"/>
		<path class="st2" d="M131.9,103.1l-0.1,2.9l-0.1,0c-13.4-4-29.6-4.6-49.3-0.6l-0.1-0.1l-0.2-4.9C99,98.7,116.8,99.7,131.9,103.1z"
			/>
		<g>
			<path class="st3" d="M103.6,61.1c-0.4-2.8,0.3-4.8,1.3-6.7c1-1.8,2.5-3.3,2.7-6.4c0-0.5,0.1-1,0.2-1.5c0.8-0.3,1.5-0.4,1.5,1.2
				c0,2.6-1.3,4.8-2.8,7C104.3,57.8,104.8,59,103.6,61.1z"/>
			<path class="st3" d="M114.7,44.9c0.5-0.4,1-0.4,1.7-0.1c1.2,0.8,1.3,2.7,0.1,5.4c-1.2,2.7-3.5,6.8-5.5,10.7
				c-0.4-1.6,0-3.7,1.4-6.1C114.3,51.5,116,48.4,114.7,44.9z"/>
			<path class="st3" d="M110.8,45.3c0.6-0.1,1.2-0.1,1.7,0c1.7,0.9,1.3,3.4-0.3,6.6c-1.6,3.2-3.3,6.4-5,9.6
				c-0.7-1.5,0.1-4.4,2.5-8.6C111.1,50.5,111.9,47.9,110.8,45.3z"/>
			<path class="st3" d="M101.4,51.5c0.3-5,1.7-7.7,3.8-8.9c-0.5-0.4-1.1-0.9-1.6-1.3c2.5,0,5.1-0.1,7.6-0.1c0.8-1,1.6-2,2.3-3
				c0.5-0.7,0.5-1-0.2-1.7c-3.5-3.6-7-6.7-10.4-9.4c-0.8-0.7-1.8-0.8-2.9-0.7c-0.2,0-0.3,0.1-0.2,0.3c0.4,1.2,1.1,2.5,1.9,3
				c0.3,0,0.6,0.1,0.9,0.1c0.4,0,0.4,0.3,0.3,0.8c-0.1,0.4-0.1,1-0.5,1.4c-1,1.2-2.8,2.4-4.1,3.1c-4.9,2.5-7.8,8.4-2.5,14.8l0.1,2.7
				c0,0.5-0.8,0.5-0.8,0l0-1.6c-4.2-5.1-5.5-10.1-2-14.2c1.2-1.4,3.5-2.5,5.6-3.3c1.3-0.5,3.9-1.9,2.7-3.1c-0.9-0.5-1.9-1.9-2.4-3.4
				c-0.3-0.7,0.1-1.2,0.6-1.4c0.5-0.2,1.1-0.3,1.6-0.4c1-0.1,1.7,0.3,2.1,0.9c0.4,0.5,0.9,1,1.3,1.5c0.4,0.4,1.1,0.4,1.8,0.1
				c2-0.9,3.2-2,3.7-3.4c0.7,1.6,0.1,2.9-2.6,4c-0.6,0.3-0.7,0.7-0.2,1c2.9,2.1,5.5,4.2,7.8,6.6c0.6,0.6,0.8,1.2,0.2,1.9l-3.2,3.8
				c-0.4,0.6-1.1,0.7-1.5,0.7c-3.6-0.2-7.6,1.6-8.7,9.3C101.7,52.3,101.4,51.8,101.4,51.5L101.4,51.5z M106.7,33.9
				c0.6,0,1.1-0.5,1.1-1.1c0-0.6-0.5-1.1-1.1-1.1c-0.6,0-1.1,0.5-1.1,1.1C105.6,33.4,106.1,33.9,106.7,33.9z"/>
		</g>
		<g>
			<path class="st4" d="M103.3,60.9c-0.4-2.8,0.3-4.8,1.3-6.7c1-1.8,2.5-3.3,2.7-6.4c0-0.5,0.1-1,0.2-1.5c0.8-0.3,1.5-0.4,1.5,1.2
				c0,2.6-1.3,4.8-2.8,7C104,57.6,104.4,58.8,103.3,60.9z"/>
			<path class="st1" d="M114.3,44.7c0.5-0.4,1-0.4,1.7-0.1c1.2,0.8,1.3,2.7,0.1,5.4c-1.2,2.7-3.5,6.8-5.5,10.7
				c-0.4-1.6,0-3.7,1.4-6.1C113.9,51.3,115.6,48.2,114.3,44.7z"/>
			<path class="st0" d="M110.5,45c0.6-0.1,1.2-0.1,1.7,0c1.7,0.9,1.3,3.4-0.3,6.6c-1.6,3.2-3.3,6.4-5,9.6c-0.7-1.5,0.1-4.4,2.5-8.6
				C110.8,50.2,111.6,47.7,110.5,45z"/>
			<path class="st4" d="M101.1,51.3c0.3-5,1.7-7.7,3.8-8.9c-0.5-0.4-1.1-0.9-1.6-1.3c2.5,0,5.1-0.1,7.6-0.1c0.8-1,1.6-2,2.3-3
				c0.5-0.7,0.5-1-0.2-1.7c-3.5-3.6-7-6.7-10.4-9.4c-0.8-0.7-1.8-0.8-2.9-0.7c-0.2,0-0.3,0.1-0.2,0.3c0.4,1.2,1.1,2.5,1.9,3
				c0.3,0,0.6,0.1,0.9,0.1c0.4,0,0.4,0.3,0.3,0.8c-0.1,0.4-0.1,1-0.5,1.4c-1,1.2-2.8,2.4-4.1,3.1c-4.9,2.5-7.8,8.4-2.5,14.8l0.1,2.6
				c0,0.5-0.8,0.5-0.8,0l0-1.6c-4.2-5.1-5.5-10.1-2-14.2c1.2-1.4,3.5-2.5,5.6-3.3c1.3-0.5,3.9-1.9,2.7-3.1c-0.9-0.5-1.9-1.9-2.4-3.4
				c-0.3-0.7,0.1-1.2,0.6-1.4c0.5-0.2,1.1-0.3,1.6-0.4c1-0.1,1.7,0.3,2.1,0.9c0.4,0.5,0.9,1,1.3,1.5c0.4,0.4,1.1,0.4,1.8,0.1
				c2-0.9,3.2-2,3.7-3.4c0.7,1.6,0.1,2.9-2.6,4c-0.6,0.3-0.7,0.7-0.2,1c2.9,2.1,5.5,4.2,7.8,6.6c0.6,0.6,0.8,1.2,0.2,1.9l-3.2,3.8
				c-0.4,0.6-1.1,0.7-1.5,0.7c-3.6-0.2-7.6,1.6-8.7,9.3C101.3,52.1,101.1,51.6,101.1,51.3L101.1,51.3z M106.4,33.7
				c0.6,0,1.1-0.5,1.1-1.1s-0.5-1.1-1.1-1.1c-0.6,0-1.1,0.5-1.1,1.1S105.8,33.7,106.4,33.7z"/>
		</g>
		<path class="st0" d="M63.6,80.4c22.7-13.1,56-17.2,84.5-10.9v38.8c-22.5-9.5-57-11.3-84.5-4.9V80.4z"/>
		<path class="st0" d="M63.6,80.4c22.7-13.1,56-17.2,84.5-10.9v38.8c-22.5-9.5-57-11.3-84.5-4.9V80.4z"/>
		<path class="st5" d="M122.3,94.3v-2.8c0.3,0,0.6-0.1,1-0.3c0.3-0.1,0.5-0.4,0.6-0.9c0.1-0.9,0.1-1.5,0.1-2.2
			c-0.6-0.1-1.2-0.1-1.7,0v-2.3c0.6,0,1.2,0.1,1.8,0.1c0.3-1.3-0.1-2.6-1.3-2.8c-0.1,0-0.3,0-0.4-0.1v-2.5c1,0,1.9,0.3,2.8,0.6
			c1.5,0.6,2,2.6,2,4.8c0,1.6,0,3.2,0,4.8C126.6,92.9,124.5,94.2,122.3,94.3L122.3,94.3z M129.3,76.6c0,4.1,0,8.1-0.1,12.2v2.9
			c0,1.6,1.2,2.2,2.9,2.1v-0.5v-5.2c-0.1-0.6-0.1-1.3,0-1.8v-1.9c0.8-1.8,4-1.9,4.3,1.5l0,6.5c0.2,0.6,0.6,1,1.1,1.2l1.7,0v-9.1
			c-1-5.3-6.4-4.5-7.1-2.5l0,0l0-4.4c-0.3-0.6-0.7-1-1.2-1.1C130.4,76.6,129.8,76.7,129.3,76.6z M122.3,80.6v2.5
			c-1.5-0.2-2.8,0-3.7,1.1c-0.4,0.5-1.1,0.2-0.7-0.9C118.5,81.2,120.4,80.5,122.3,80.6L122.3,80.6z M122.3,85.8v2.3
			c-1.2,0.2-1.9,0.9-1.6,2.5c0.4,0.6,1,0.9,1.6,0.9v2.8c-1.8,0-3.6-0.9-4.6-3.1c-1-2.5,0.5-4.6,2.8-5.3
			C121.1,85.7,121.7,85.7,122.3,85.8L122.3,85.8z M109.8,94.3v-2.9c0.7,0.1,1.3-0.1,1.7-0.8c1-1.6,1.1-3.3,0.7-5
			c-0.3-1.3-1.4-2.3-2.5-2.3v-2.5c1.6-0.3,3.4,0.3,4.5,2.2c1.8,3.1,1.7,7.3-0.7,9.6C112.5,93.7,111.1,94.3,109.8,94.3z M87.6,85.9
			c0.3-1.3-0.1-2.6-1.3-2.8c-0.1,0-0.3,0-0.4-0.1v-2.5c1,0,1.9,0.3,2.8,0.6c1.5,0.6,2,2.6,2,4.8c0,1.6,0,3.2,0,4.8
			c-0.5,2-2.6,3.4-4.7,3.4v-2.8c0.3,0,0.6-0.1,1-0.3c0.3-0.1,0.5-0.4,0.6-0.9c0.1-0.9,0.1-1.5,0.1-2.2c-0.6-0.1-1.2-0.1-1.7,0v-2.3
			C86.4,85.8,87,85.9,87.6,85.9L87.6,85.9z M109.8,80.7v2.5c-0.7,0-1.5,0.4-2.1,1.5c-0.8,1.4-0.9,3.5,0.2,5.4
			c0.4,0.7,1.1,1.2,1.9,1.3v2.9c-2.6,0-5-2-5.5-5.4c0-4.1,0-8.2,0.1-12.2c0.5,0,1.1-0.1,1.6,0c0.5,0.1,0.9,0.5,1.2,1.1
			c0,1.5,0,2.9,0,4.4C107.8,81.4,108.8,80.9,109.8,80.7L109.8,80.7z M91.6,81.1c-0.1-0.5,0.1-0.5,0.4-0.5c1.9,0,2.9,0.5,3.2,1.7
			c0.5,2.5,1.4,4.9,2.1,7.4c0.7-2.3,1.3-4.5,2-6.8c0.2-0.7,0.3-1.4,0.1-2c2.1-0.3,3.6,0.1,2.9,2.8c-1.1,4.1-2.6,8.1-4.5,11.9
			c-1.1,2.3-3.5,3-5.1,1.5c-1-1-0.7-2.1,0.3-1.8c1.2,0.3,2.1-0.5,2.7-2.3C94.1,89.1,92.6,85.1,91.6,81.1z M85.8,83.1
			c-1.5-0.2-2.8,0-3.7,1.1c-0.4,0.5-1.1,0.2-0.7-0.9c0.7-2.1,2.5-2.8,4.4-2.8V83.1L85.8,83.1z M85.8,94.3c-1.8,0-3.6-0.9-4.6-3.1
			c-1-2.5,0.5-4.6,2.8-5.3c0.6-0.2,1.2-0.1,1.8-0.1v2.3c-1.2,0.2-1.9,0.9-1.6,2.5c0.4,0.6,1,0.9,1.6,0.9V94.3L85.8,94.3z M76.4,78
			H75l-2,1.8L73,91c0.7,2.2,2.2,3.4,4.8,3.3c2-0.1,2.6-1.3,2.3-3.3l-0.4,0l-0.4,0.4h-2.5c-0.5-0.5-0.8-1.1-0.8-1.7v-6.1h3l0.9-0.9
			l0-1.7h-3.6L76.4,78z"/>
		<path class="st2" d="M121.7,93.6v-2.8c0.3,0,0.6-0.1,1-0.3c0.3-0.1,0.5-0.4,0.6-0.9c0.1-0.8,0.1-1.5,0.1-2.2
			c-0.6-0.1-1.2-0.1-1.7,0v-2.3c0.6,0,1.2,0.1,1.8,0.1c0.3-1.3-0.1-2.6-1.3-2.8c-0.1,0-0.3,0-0.4-0.1v-2.5c1,0,1.9,0.3,2.8,0.6
			c1.5,0.6,2,2.6,2,4.8c0,1.6,0,3.2,0,4.8C125.9,92.3,123.8,93.6,121.7,93.6L121.7,93.6z M128.7,76c0,4.1,0,8.2-0.1,12.2v2.9
			c0,1.6,1.2,2.2,2.9,2.1v-0.5v-5.2c-0.1-0.6-0.1-1.3,0-1.8v-1.9c0.8-1.8,4-1.9,4.3,1.5l0,6.5c0.2,0.6,0.6,1,1.1,1.2l1.7,0v-9.1
			c-1-5.3-6.4-4.5-7.1-2.5l0,0l0-4.4c-0.3-0.6-0.7-1-1.2-1.1C129.8,76,129.2,76,128.7,76z M121.7,79.9v2.5c-1.5-0.2-2.8,0-3.7,1.1
			c-0.4,0.5-1.1,0.2-0.7-0.9C117.9,80.6,119.8,79.9,121.7,79.9L121.7,79.9z M121.7,85.2v2.3c-1.2,0.2-1.9,0.9-1.6,2.5
			c0.4,0.6,1,0.9,1.6,0.9v2.8c-1.8,0-3.6-0.9-4.6-3.1c-1-2.5,0.5-4.6,2.8-5.3C120.5,85.1,121.1,85.1,121.7,85.2L121.7,85.2z
			 M109.2,93.6v-2.9c0.7,0.1,1.3-0.1,1.7-0.8c1-1.6,1.1-3.3,0.7-5c-0.3-1.3-1.4-2.3-2.5-2.3V80c1.6-0.3,3.4,0.3,4.5,2.2
			c1.8,3.1,1.7,7.3-0.7,9.6C111.8,93.1,110.5,93.6,109.2,93.6z M86.9,85.3c0.3-1.3-0.1-2.6-1.3-2.8c-0.1,0-0.3,0-0.4-0.1v-2.5
			c1,0,1.9,0.3,2.8,0.6c1.5,0.6,2,2.6,2,4.8c0,1.6,0,3.2,0,4.8c-0.5,2-2.6,3.4-4.7,3.4v-2.8c0.3,0,0.6-0.1,1-0.3
			c0.3-0.1,0.5-0.4,0.6-0.9c0.1-0.8,0.1-1.5,0.1-2.2c-0.6-0.1-1.2-0.1-1.7,0v-2.3C85.8,85.2,86.4,85.3,86.9,85.3L86.9,85.3z
			 M109.2,80v2.5c-0.7,0-1.5,0.4-2.1,1.5c-0.8,1.4-0.9,3.5,0.2,5.4c0.4,0.7,1.1,1.2,1.9,1.3v2.9c-2.6,0-5-2-5.5-5.4
			c0-4.1,0-8.2,0.1-12.2c0.5,0,1.1-0.1,1.6,0c0.5,0.1,0.9,0.5,1.2,1.1c0,1.5,0,2.9,0,4.4C107.2,80.8,108.1,80.2,109.2,80L109.2,80z
			 M91,80.5C90.9,80,91.1,80,91.4,80c1.9,0,2.9,0.5,3.2,1.7c0.5,2.5,1.4,4.9,2.1,7.4c0.7-2.3,1.3-4.5,2-6.8c0.2-0.7,0.3-1.4,0.1-2
			c2.1-0.3,3.6,0.1,2.9,2.8c-1.1,4.1-2.6,8.1-4.5,11.9c-1.1,2.3-3.5,3-5.1,1.5c-1-1-0.7-2.1,0.3-1.8c1.2,0.3,2.1-0.5,2.7-2.3
			C93.4,88.5,92,84.5,91,80.5z M85.2,82.5c-1.5-0.2-2.8,0-3.7,1.1c-0.4,0.5-1.1,0.2-0.7-0.9c0.7-2.1,2.5-2.8,4.4-2.8V82.5L85.2,82.5
			z M85.2,93.6c-1.8,0-3.6-0.9-4.6-3.1c-1-2.5,0.5-4.6,2.8-5.3c0.6-0.2,1.2-0.1,1.8-0.1v2.3c-1.2,0.2-1.9,0.9-1.6,2.5
			c0.4,0.6,1,0.9,1.6,0.9V93.6L85.2,93.6z M75.8,77.4h-1.4l-2,1.8l0,11.2c0.7,2.2,2.2,3.4,4.8,3.3c2-0.1,2.6-1.3,2.3-3.3l-0.4,0
			l-0.4,0.4h-2.5c-0.5-0.5-0.8-1.1-0.8-1.7v-6.1h3l0.9-0.9l0-1.7h-3.6L75.8,77.4z"/>
	</g>
</g>
</svg>
