<?xml version="1.0" encoding="utf-8"?>
<!-- Generator: Adobe Illustrator 24.0.2, SVG Export Plug-In . SVG Version: 6.00 Build 0)  -->
<svg version="1.1" id="Layer_1" xmlns="http://www.w3.org/2000/svg" xmlns:xlink="http://www.w3.org/1999/xlink" x="0px" y="0px"
	 viewBox="0 0 211 133" style="enable-background:new 0 0 211 133;" xml:space="preserve">
<style type="text/css">
	.st0{fill-rule:evenodd;clip-rule:evenodd;fill:#FDFDFD;}
	.st1{fill-rule:evenodd;clip-rule:evenodd;fill:#373435;}
	.st2{fill-rule:evenodd;clip-rule:evenodd;fill:#4B4B4D;}
	.st3{fill-rule:evenodd;clip-rule:evenodd;fill:#EC3237;}
</style>
<g>
	<path class="st0" d="M27,41h157.1v38.9H49C36.9,79.9,27,70,27,57.9V41z"/>
	<path class="st1" d="M44.5,90.8h-1V84h1V90.8L44.5,90.8z M43.6,83.2v-1h0.9v1H43.6z"/>
	<path class="st1" d="M46.6,90.8h-0.9v-5.1h0.9v0.6c0.2-0.2,0.4-0.4,0.6-0.5c0.2-0.1,0.5-0.2,0.8-0.2c0.7,0,1.2,0.2,1.5,0.6
		c0.4,0.4,0.5,1,0.5,1.7v2.9h-0.9v-2.7c0-0.5-0.1-0.9-0.3-1.2c-0.2-0.3-0.5-0.4-0.9-0.4c-0.5,0-0.8,0.2-1,0.5
		c-0.2,0.3-0.3,0.8-0.3,1.5V90.8z"/>
	<path class="st1" d="M50.8,89.2h0.9c0,0.3,0.1,0.5,0.2,0.7c0.2,0.2,0.3,0.3,0.6,0.3c0.2,0,0.4-0.1,0.5-0.2c0.1-0.1,0.2-0.3,0.2-0.5
		c0-0.2,0-0.3-0.1-0.5c-0.1-0.1-0.3-0.2-0.5-0.3c-0.1,0-0.2-0.1-0.3-0.1c-0.4-0.1-0.6-0.2-0.7-0.3c-0.2-0.1-0.3-0.3-0.4-0.5
		C51.1,87.5,51,87.3,51,87c0-0.4,0.1-0.8,0.4-1.1c0.3-0.3,0.6-0.4,1.1-0.4c0.4,0,0.8,0.1,1,0.4c0.3,0.3,0.4,0.6,0.4,1.1h-0.9
		c0-0.2-0.1-0.3-0.2-0.4c-0.1-0.1-0.3-0.2-0.4-0.2c-0.2,0-0.3,0.1-0.4,0.2c-0.1,0.1-0.2,0.3-0.2,0.4c0,0.3,0.2,0.5,0.7,0.7
		c0.1,0.1,0.2,0.1,0.3,0.1c0.4,0.2,0.7,0.4,0.8,0.6c0.2,0.2,0.2,0.6,0.2,0.9c0,0.5-0.2,0.8-0.5,1.1c-0.3,0.3-0.7,0.5-1.2,0.5
		c-0.5,0-0.9-0.2-1.2-0.5C51,90.2,50.8,89.7,50.8,89.2L50.8,89.2z M51.3,92.8v-0.5c0.2,0.1,0.5,0.1,0.7,0.1c0.2,0,0.4,0,0.5,0
		c0.2,0,0.3,0,0.4-0.1c0.1-0.1,0.1-0.2,0.1-0.3c0-0.1-0.1-0.2-0.2-0.3c-0.1-0.1-0.3-0.1-0.5-0.1c-0.1,0-0.1,0-0.1,0c0,0-0.1,0-0.1,0
		v-0.9h0.4v0.5h0.1c0.3,0,0.6,0.1,0.8,0.2c0.2,0.1,0.3,0.4,0.3,0.6c0,0.3-0.1,0.5-0.3,0.6c-0.2,0.2-0.5,0.2-0.9,0.2
		c-0.2,0-0.3,0-0.5-0.1C51.7,92.9,51.5,92.9,51.3,92.8z"/>
	<path class="st1" d="M55.6,88.2c0,0.5,0.2,1,0.5,1.3c0.3,0.4,0.8,0.5,1.3,0.5c0.5,0,0.9-0.2,1.2-0.5c0.3-0.4,0.5-0.8,0.5-1.2
		c0-0.5-0.2-0.9-0.5-1.3c-0.3-0.4-0.8-0.5-1.2-0.5c-0.5,0-0.9,0.2-1.2,0.5C55.7,87.3,55.6,87.7,55.6,88.2L55.6,88.2z M59,90.8v-0.6
		c-0.2,0.2-0.5,0.4-0.8,0.6c-0.3,0.1-0.6,0.2-0.9,0.2c-0.8,0-1.4-0.3-1.9-0.8c-0.5-0.5-0.8-1.2-0.8-1.9c0-0.4,0.1-0.7,0.2-1
		c0.1-0.3,0.3-0.6,0.5-0.9c0.3-0.3,0.5-0.5,0.8-0.6c0.3-0.1,0.7-0.2,1-0.2c0.4,0,0.7,0.1,1,0.2c0.3,0.1,0.6,0.3,0.8,0.6v-0.6h0.9
		v5.1H59z"/>
	<path class="st1" d="M61.7,88.2c0,0.5,0.2,1,0.5,1.3c0.3,0.4,0.8,0.5,1.3,0.5c0.5,0,0.9-0.2,1.2-0.5c0.3-0.4,0.5-0.8,0.5-1.2
		c0-0.5-0.2-0.9-0.5-1.3c-0.3-0.4-0.8-0.5-1.2-0.5c-0.5,0-0.9,0.2-1.2,0.5C61.9,87.3,61.7,87.7,61.7,88.2L61.7,88.2z M65.2,90.8
		v-0.6c-0.2,0.2-0.5,0.4-0.8,0.6c-0.3,0.1-0.6,0.2-0.9,0.2c-0.8,0-1.4-0.3-1.9-0.8c-0.5-0.5-0.8-1.2-0.8-1.9c0-0.4,0.1-0.7,0.2-1
		c0.1-0.3,0.3-0.6,0.5-0.9c0.3-0.3,0.5-0.5,0.8-0.6c0.3-0.1,0.7-0.2,1-0.2c0.4,0,0.7,0.1,1,0.2c0.3,0.1,0.6,0.3,0.8,0.6v-0.6h0.9
		v5.1H65.2z"/>
	<polygon class="st1" points="67.5,90.8 67.5,86.5 66.8,86.5 66.8,85.7 67.5,85.7 67.5,84 68.4,84 68.4,85.7 69.1,85.7 69.1,86.5 
		68.4,86.5 68.4,90.8 	"/>
	<path class="st1" d="M70.1,92v-0.6c0.1,0,0.2-0.1,0.2-0.2c0-0.1,0.1-0.2,0.1-0.4v-0.1h-0.3v-1.1h0.9v1c0,0.4-0.1,0.7-0.2,0.9
		C70.7,91.8,70.5,91.9,70.1,92z"/>
	<path class="st1" d="M76.3,90.8h-1V84h1V90.8L76.3,90.8z M75.3,83.2v-1h0.9v1H75.3z"/>
	<polygon class="st1" points="77.7,90.8 77.7,86.5 77,86.5 77,85.7 77.7,85.7 77.7,84 78.6,84 78.6,85.7 79.4,85.7 79.4,86.5 
		78.6,86.5 78.6,90.8 	"/>
	<path class="st1" d="M81,90.8H80V84H81v2.2c0.1-0.2,0.3-0.4,0.6-0.5c0.2-0.1,0.5-0.2,0.8-0.2c0.6,0,1.1,0.2,1.4,0.6
		c0.3,0.4,0.5,1,0.5,1.7v2.9h-0.9v-2.6c0-0.6-0.1-1-0.3-1.3c-0.2-0.3-0.5-0.4-0.9-0.4c-0.2,0-0.5,0.1-0.6,0.2
		c-0.2,0.1-0.3,0.3-0.4,0.5c-0.1,0.1-0.1,0.3-0.1,0.5c0,0.2,0,0.5,0,0.9V90.8z"/>
	<path class="st1" d="M86.1,88.2c0,0.5,0.2,1,0.5,1.3c0.3,0.4,0.8,0.5,1.3,0.5c0.5,0,0.9-0.2,1.2-0.5c0.3-0.4,0.5-0.8,0.5-1.2
		c0-0.5-0.2-0.9-0.5-1.3c-0.3-0.4-0.8-0.5-1.2-0.5c-0.5,0-0.9,0.2-1.2,0.5C86.3,87.3,86.1,87.7,86.1,88.2L86.1,88.2z M89.6,90.8
		v-0.6c-0.2,0.2-0.5,0.4-0.8,0.6c-0.3,0.1-0.6,0.2-0.9,0.2c-0.8,0-1.4-0.3-1.9-0.8c-0.5-0.5-0.8-1.2-0.8-1.9c0-0.4,0.1-0.7,0.2-1
		c0.1-0.3,0.3-0.6,0.5-0.9c0.3-0.3,0.5-0.5,0.8-0.6c0.3-0.1,0.7-0.2,1-0.2c0.4,0,0.7,0.1,1,0.2c0.3,0.1,0.6,0.3,0.8,0.6v-0.6h0.9
		v5.1H89.6z"/>
	<rect x="91.6" y="84" class="st1" width="0.9" height="6.8"/>
	<path class="st1" d="M94.3,88.2c0,0.5,0.2,1,0.5,1.3c0.3,0.4,0.8,0.5,1.3,0.5c0.5,0,0.9-0.2,1.2-0.5c0.3-0.4,0.5-0.8,0.5-1.2
		c0-0.5-0.2-0.9-0.5-1.3c-0.3-0.4-0.8-0.5-1.2-0.5c-0.5,0-0.9,0.2-1.2,0.5C94.5,87.3,94.3,87.7,94.3,88.2L94.3,88.2z M97.7,90.8
		v-0.6c-0.2,0.2-0.5,0.4-0.8,0.6c-0.3,0.1-0.6,0.2-0.9,0.2c-0.8,0-1.4-0.3-1.9-0.8c-0.5-0.5-0.8-1.2-0.8-1.9c0-0.4,0.1-0.7,0.2-1
		c0.1-0.3,0.3-0.6,0.5-0.9c0.3-0.3,0.5-0.5,0.8-0.6c0.3-0.1,0.7-0.2,1-0.2c0.4,0,0.7,0.1,1,0.2c0.3,0.1,0.6,0.3,0.8,0.6v-0.6h0.9
		v5.1H97.7z"/>
	<polygon class="st1" points="100.1,90.8 100.1,86.5 99.3,86.5 99.3,85.7 100.1,85.7 100.1,84 101,84 101,85.7 101.7,85.7 
		101.7,86.5 101,86.5 101,90.8 	"/>
	<polygon class="st1" points="107.2,90.8 106.5,90.8 104.6,85.7 105.6,85.7 106.9,89.4 108.3,85.7 109.3,85.7 	"/>
	<path class="st1" d="M113.8,87.8c-0.1-0.4-0.3-0.7-0.6-1c-0.3-0.2-0.6-0.3-1-0.3c-0.4,0-0.8,0.1-1.1,0.4c-0.3,0.2-0.5,0.6-0.6,1
		H113.8L113.8,87.8z M110.5,88.6c0.1,0.4,0.3,0.8,0.6,1c0.3,0.3,0.7,0.4,1.1,0.4c0.3,0,0.6-0.1,0.8-0.2c0.2-0.1,0.4-0.4,0.6-0.6h1
		c-0.2,0.6-0.6,1-1,1.3c-0.4,0.3-0.9,0.5-1.5,0.5c-0.4,0-0.7-0.1-1-0.2c-0.3-0.1-0.6-0.3-0.9-0.6c-0.2-0.3-0.4-0.5-0.6-0.9
		c-0.1-0.3-0.2-0.7-0.2-1c0-0.4,0.1-0.7,0.2-1c0.1-0.3,0.3-0.6,0.5-0.9c0.3-0.3,0.5-0.5,0.9-0.6c0.3-0.1,0.7-0.2,1-0.2
		c0.5,0,0.9,0.1,1.3,0.3c0.4,0.2,0.7,0.5,1,0.9c0.1,0.2,0.3,0.5,0.3,0.8c0.1,0.3,0.1,0.6,0.1,1v0.1H110.5z"/>
	<path class="st1" d="M119.4,90.8h-1V84h1V90.8L119.4,90.8z M118.5,83.2v-1h0.9v1H118.5z"/>
	<path class="st1" d="M121.5,90.8h-0.9V84h0.9v2.2c0.1-0.2,0.3-0.4,0.6-0.5c0.2-0.1,0.5-0.2,0.8-0.2c0.6,0,1.1,0.2,1.4,0.6
		c0.3,0.4,0.5,1,0.5,1.7v2.9h-0.9v-2.6c0-0.6-0.1-1-0.3-1.3c-0.2-0.3-0.5-0.4-0.9-0.4c-0.2,0-0.5,0.1-0.6,0.2
		c-0.2,0.1-0.3,0.3-0.4,0.5c-0.1,0.1-0.1,0.3-0.1,0.5c0,0.2,0,0.5,0,0.9V90.8z"/>
	<path class="st1" d="M126.9,90.8h-0.9v-5.1h0.9v0.6c0.2-0.2,0.3-0.4,0.5-0.5c0.2-0.1,0.4-0.2,0.7-0.2v1c-0.4,0-0.7,0.2-0.9,0.4
		c-0.2,0.2-0.3,0.6-0.3,1V90.8z"/>
	<path class="st1" d="M129.4,88.2c0,0.5,0.2,1,0.5,1.3c0.3,0.4,0.8,0.5,1.3,0.5c0.5,0,0.9-0.2,1.2-0.5c0.3-0.4,0.5-0.8,0.5-1.2
		c0-0.5-0.2-0.9-0.5-1.3c-0.3-0.4-0.8-0.5-1.2-0.5c-0.5,0-0.9,0.2-1.2,0.5C129.6,87.3,129.4,87.7,129.4,88.2L129.4,88.2z
		 M132.8,90.8v-0.6c-0.2,0.2-0.5,0.4-0.8,0.6c-0.3,0.1-0.6,0.2-0.9,0.2c-0.8,0-1.4-0.3-1.9-0.8c-0.5-0.5-0.8-1.2-0.8-1.9
		c0-0.4,0.1-0.7,0.2-1c0.1-0.3,0.3-0.6,0.5-0.9c0.3-0.3,0.5-0.5,0.8-0.6c0.3-0.1,0.7-0.2,1-0.2c0.4,0,0.7,0.1,1,0.2
		c0.3,0.1,0.6,0.3,0.8,0.6v-0.6h0.9v5.1H132.8z"/>
	<path class="st1" d="M139.7,89.1c-0.2,0.6-0.5,1.1-1,1.4c-0.4,0.3-0.9,0.5-1.5,0.5c-0.4,0-0.7-0.1-1-0.2c-0.3-0.1-0.6-0.3-0.8-0.6
		c-0.2-0.3-0.4-0.5-0.6-0.9c-0.1-0.3-0.2-0.7-0.2-1c0-0.4,0.1-0.7,0.2-1c0.1-0.3,0.3-0.6,0.5-0.9c0.3-0.3,0.6-0.5,0.9-0.6
		c0.3-0.1,0.7-0.2,1.1-0.2c0.6,0,1.1,0.2,1.5,0.5c0.4,0.3,0.7,0.8,0.9,1.4h-1c-0.2-0.3-0.4-0.5-0.6-0.7c-0.3-0.2-0.6-0.2-0.9-0.2
		c-0.5,0-0.8,0.2-1.2,0.5c-0.3,0.3-0.5,0.8-0.5,1.3c0,0.5,0.2,0.9,0.5,1.3c0.3,0.3,0.7,0.5,1.2,0.5c0.3,0,0.6-0.1,0.9-0.3
		c0.3-0.2,0.5-0.4,0.6-0.7H139.7z"/>
	<path class="st1" d="M141.3,88.2c0,0.5,0.2,1,0.5,1.3c0.3,0.4,0.8,0.5,1.3,0.5c0.5,0,0.9-0.2,1.2-0.5c0.3-0.4,0.5-0.8,0.5-1.2
		c0-0.5-0.2-0.9-0.5-1.3c-0.3-0.4-0.8-0.5-1.2-0.5c-0.5,0-0.9,0.2-1.2,0.5C141.5,87.3,141.3,87.7,141.3,88.2L141.3,88.2z
		 M144.8,90.8v-0.6c-0.2,0.2-0.5,0.4-0.8,0.6c-0.3,0.1-0.6,0.2-0.9,0.2c-0.8,0-1.4-0.3-1.9-0.8c-0.5-0.5-0.8-1.2-0.8-1.9
		c0-0.4,0.1-0.7,0.2-1c0.1-0.3,0.3-0.6,0.5-0.9c0.3-0.3,0.5-0.5,0.8-0.6c0.3-0.1,0.7-0.2,1-0.2c0.4,0,0.7,0.1,1,0.2
		c0.3,0.1,0.6,0.3,0.8,0.6v-0.6h0.9v5.1H144.8z"/>
	<polygon class="st1" points="147.1,90.8 147.1,86.5 146.4,86.5 146.4,85.7 147.1,85.7 147.1,84 148,84 148,85.7 148.7,85.7 
		148.7,86.5 148,86.5 148,90.8 	"/>
	<polygon class="st1" points="155.4,90.8 152.2,90.8 152.2,84 153.2,84 153.2,89.9 155.4,89.9 	"/>
	<polygon class="st1" points="156.4,90.8 156.4,86.5 155.7,86.5 155.7,85.7 156.4,85.7 156.4,84 157.4,84 157.4,85.7 158.1,85.7 
		158.1,86.5 157.4,86.5 157.4,90.8 	"/>
	<path class="st1" d="M159.5,88.2c0,0.5,0.2,1,0.5,1.3c0.3,0.4,0.8,0.5,1.3,0.5c0.5,0,0.9-0.2,1.2-0.5c0.3-0.4,0.5-0.8,0.5-1.2
		c0-0.5-0.2-0.9-0.5-1.3c-0.3-0.4-0.8-0.5-1.2-0.5c-0.5,0-0.9,0.2-1.2,0.5C159.6,87.3,159.5,87.7,159.5,88.2L159.5,88.2z
		 M162.9,90.8v-0.6c-0.2,0.2-0.5,0.4-0.8,0.6c-0.3,0.1-0.6,0.2-0.9,0.2c-0.8,0-1.4-0.3-1.9-0.8c-0.5-0.5-0.8-1.2-0.8-1.9
		c0-0.4,0.1-0.7,0.2-1c0.1-0.3,0.3-0.6,0.5-0.9c0.3-0.3,0.5-0.5,0.8-0.6c0.3-0.1,0.7-0.2,1-0.2c0.3,0,0.7,0.1,1,0.2
		c0.3,0.1,0.6,0.3,0.8,0.6V84h0.9v6.8H162.9z"/>
	<rect x="165.3" y="89.7" class="st1" width="0.9" height="1.1"/>
	<path class="st1" d="M170.1,88.9h0.9c0,0.4,0.1,0.6,0.3,0.8c0.2,0.2,0.4,0.3,0.7,0.3c0.3,0,0.6-0.1,0.8-0.3
		c0.2-0.2,0.3-0.5,0.3-0.8c0-0.3-0.1-0.5-0.2-0.7c-0.1-0.2-0.5-0.3-0.9-0.5c0,0-0.1,0-0.1,0c-0.6-0.2-1-0.4-1.2-0.7
		c-0.1-0.2-0.2-0.3-0.3-0.5c-0.1-0.2-0.1-0.4-0.1-0.6c0-0.6,0.2-1.1,0.5-1.4c0.3-0.4,0.8-0.5,1.4-0.5c0.5,0,0.9,0.2,1.3,0.5
		c0.3,0.3,0.5,0.8,0.5,1.3H173c0-0.3-0.1-0.5-0.3-0.7c-0.2-0.2-0.4-0.2-0.6-0.2c-0.3,0-0.5,0.1-0.7,0.3c-0.2,0.2-0.3,0.4-0.3,0.7
		c0,0.1,0,0.2,0,0.3c0,0.1,0.1,0.2,0.1,0.3c0.1,0.2,0.4,0.3,0.9,0.4c0.2,0.1,0.4,0.1,0.5,0.1c0.4,0.2,0.8,0.4,1,0.7
		c0.2,0.3,0.3,0.7,0.3,1.2c0,0.7-0.2,1.2-0.6,1.6c-0.4,0.4-0.9,0.6-1.5,0.6c-0.6,0-1-0.2-1.4-0.6C170.2,90,170.1,89.5,170.1,88.9
		L170.1,88.9z M170.9,92.8v-0.5c0.2,0.1,0.5,0.1,0.7,0.1c0.2,0,0.4,0,0.5,0c0.2,0,0.3,0,0.4-0.1c0.1-0.1,0.1-0.2,0.1-0.3
		c0-0.1-0.1-0.2-0.2-0.3c-0.1-0.1-0.3-0.1-0.5-0.1c-0.1,0-0.1,0-0.1,0c0,0-0.1,0-0.1,0v-0.9h0.4v0.5h0.1c0.3,0,0.6,0.1,0.8,0.2
		c0.2,0.1,0.3,0.4,0.3,0.6c0,0.3-0.1,0.5-0.3,0.6s-0.5,0.2-0.9,0.2c-0.2,0-0.3,0-0.5-0.1C171.4,92.9,171.1,92.9,170.9,92.8z"/>
	<polygon class="st1" points="175.2,90.8 175.2,86.5 174.5,86.5 174.5,85.7 175.2,85.7 175.2,84 176.1,84 176.1,85.7 176.9,85.7 
		176.9,86.5 176.1,86.5 176.1,90.8 	"/>
	<path class="st1" d="M178.4,85.1h-0.9V84h0.9V85.1L178.4,85.1z M177.5,90.8v-5.1h0.9v5.1H177.5z"/>
	<rect x="179.9" y="89.7" class="st1" width="0.9" height="1.1"/>
	<g>
		<path class="st2" d="M37.3,51.5h23.8v23.8h6V51.5h3h18.9v23.8h41.8c0.6,0,1.1-0.1,1.5-0.4c0.4-0.3,0.8-0.6,1.1-1.1
			c0.3-0.4,0.4-0.9,0.4-1.5c0-0.6-0.1-1.1-0.4-1.5c-0.3-0.4-0.6-0.8-1.1-1.1c-0.4-0.3-0.9-0.4-1.5-0.4H94.9v-15l-10.2-8.8H70H37.3
			h-3c-0.6,0-1.1,0.1-1.5,0.4c-0.4,0.3-0.8,0.6-1.1,1.1c-0.3,0.4-0.4,0.9-0.4,1.5c0,0.6,0.1,1.1,0.4,1.5c0.3,0.4,0.6,0.8,1.1,1.1
			c0.4,0.3,0.9,0.4,1.5,0.4H37.3z"/>
		<path class="st2" d="M177.8,75.3c0.6,0,1.1-0.1,1.5-0.4c0.4-0.3,0.8-0.6,1.1-1.1c0.3-0.4,0.4-0.9,0.4-1.5c0-0.6-0.1-1.1-0.4-1.5
			c-0.3-0.4-0.6-0.8-1.1-1.1c-0.4-0.3-0.9-0.4-1.5-0.4H142c-1.2,0-2.4-0.2-3.5-0.7c-1.1-0.5-2-1.1-2.8-1.9c-0.8-0.8-1.4-1.8-1.9-2.8
			c-0.5-1.1-0.7-2.2-0.7-3.5c0-1.2,0.2-2.4,0.7-3.5c0.5-1.1,1.1-2,1.9-2.8c0.8-0.8,1.8-1.4,2.8-1.9c1.1-0.5,2.2-0.7,3.5-0.7h35.7
			c0.6,0,1.1-0.1,1.5-0.4c0.4-0.3,0.8-0.6,1.1-1.1c0.3-0.4,0.4-0.9,0.4-1.5c0-0.6-0.1-1.1-0.4-1.5c-0.3-0.5-0.6-0.8-1.1-1.1
			c-0.4-0.3-0.9-0.4-1.5-0.4H142c-2.1,0-4,0.4-5.8,1.2c-1.8,0.8-3.4,1.8-4.7,3.2c-1.4,1.4-2.4,2.9-3.2,4.7c-0.8,1.8-1.2,3.7-1.2,5.8
			c0,2.1,0.4,4,1.2,5.8c0.8,1.8,1.8,3.4,3.2,4.7c1.4,1.4,2.9,2.4,4.7,3.2c1.8,0.8,3.7,1.2,5.8,1.2H177.8z"/>
		<polygon class="st3" points="85.8,45.6 95.1,45.6 95.1,53.4 		"/>
	</g>
	<polygon class="st3" points="40.6,90.6 31.3,90.6 31.3,82.7 	"/>
</g>
</svg>
