<?xml version="1.0" encoding="utf-8"?>
<!-- Generator: Adobe Illustrator 24.0.2, SVG Export Plug-In . SVG Version: 6.00 Build 0)  -->
<svg version="1.1" id="Layer_1" xmlns="http://www.w3.org/2000/svg" xmlns:xlink="http://www.w3.org/1999/xlink" x="0px" y="0px"
	 viewBox="0 0 211 133" style="enable-background:new 0 0 211 133;" xml:space="preserve">
<style type="text/css">
	.st0{fill-rule:evenodd;clip-rule:evenodd;fill:#FFCB29;}
	.st1{fill-rule:evenodd;clip-rule:evenodd;fill:#212131;}
	.st2{fill-rule:evenodd;clip-rule:evenodd;fill:#373435;}
</style>
<path class="st0" d="M99.3,110.3c3.4-2.4,7-5.2,10.3-7.8c10.7-8.5,23.1-15.2,27.9-27.5c8.6-21.9-6.9-41-24.5-44.8
	c-30.6-6.6-55.7,31.9-28.5,57.9c3,2.9,7.1,5.1,11.7,6.6C101.6,96.4,97.9,99.4,99.3,110.3z"/>
<path class="st1" d="M94.7,53.4L94.7,53.4L94.7,53.4z M91.8,44.8l0.1,0.2L91.8,44.8z M91.8,44.8l-0.2-0.2
	C91.9,44.7,91.7,44.5,91.8,44.8L91.8,44.8z M74.9,44.3c-0.5-0.1-0.3-0.1-0.4-0.7c-0.3-2.4-0.8-3.4,0.3-6.4l0.2-0.5
	c0,0.5,0.2,1.2,0.3,1.7L74.9,44.3L74.9,44.3z M75.3,38c0-0.5,0.2-3.5,0.4-3.9c0.1-0.2,0.6-0.5,0.9-0.5c0.4,1.5-0.3,0.2-1,3.4
	C75.5,37.4,75.5,37.7,75.3,38L75.3,38z M91.9,45C92,45.1,92,45.1,91.9,45c0,0.1,0.1,0.2,0.1,0.2l1.6,3.5c0.2,0.4,0.1,0,0,0.4
	c-0.1,1.8,1.7,2.4,0.2,3.4c0.1,0.3,0,0.2,0.3,0.3c-0.2,0.3-0.5,0.3-0.2,0.6c0.3,0.3,0.3,0,0.7-0.1c-0.1,0.5-0.2,0.1-0.2,0.7
	c1.5-0.1,2-2.3,1.7-3.2c-0.1-0.5-0.7-1.2-0.7-1.8c0-0.3,0.8-1.3-0.1-1.8c-0.5-0.3-0.5,0.2-0.7-1.7c-0.2-2.4-0.1-3-1.1-5.2
	c-0.2-0.5-0.2-0.5-0.2-1.1c0.3-0.1,0.9-0.2,1.2-0.4c0.2-0.1,0.4-0.1,0.4-0.5c0-0.1-0.1-0.2-0.1-0.3l-1.4-4.5
	c0.9-0.1,0.8-1.3,2.6-1.4c0.6-0.1,0.7,0.1,1.2,0.1c-0.1-0.6-0.6-1-0.9-1.5c-0.4-0.7,0.1-0.4-0.1-2.1c-0.2-1.4-0.6-2-2.4-2.5
	c-3.5-0.9-3.8,3.1-3.8,3.2c-0.3,0.5-1.5,0.2-2.1,0.2c1.1-2.2,0-4.8-1.9-5.2c-0.5-0.1-1.1,0-1.7,0.2c-0.9,0.4-0.4,0.3-1.5,0
	c-0.5-0.1-2.9-0.7-3.4-0.6c-0.5,0.2-1.9,1.4-2.2,1.8l-1.2,1.8c-0.5,0.9-0.2,0.2-1.3,0.7c-2.2,0.9-2,2.9-1.1,4.7
	c-0.3,0.2-0.6,0.3-0.8,0.6c0.3,0.5,1.4,0.7,2,0.7c0,1.7-1.6,4.5-1.2,7.5c0.1,0.6,0.3,2.2,0.5,2.6c-1.7,0-1.7,0-2.3,1.1
	c0.6,0,0.6,0,0.7,0.7c0.1,1.7,0.3,1.5,1.8,2.2c0,1.1-0.2,1.3,0.4,1.3c0,0.1-0.1,0.5-0.1,0.5c0,0.4,0.1,0,0.3,0.7
	c0.1,0.3-0.1,0.1,0.1,0.4c0.9-0.1,0.4-0.4,1-0.8c-0.3,1.1-0.6,1-0.7,1.9c1.4-0.1,1.2-1.9,1.8-2.2c0.3-0.2,0.1,0.3,0.1,0.8
	c0.8-0.1,0.9-1.1,0.9-1.9c2,0,2,0.3,1.9,1.5c-0.1,0.8-0.2,2.4,0.1,3.2c0.4,0.9,0.7-0.2,1.1,2.4c0.1,0.5,0.1,1,0.2,1.5
	c0.1,0.5,0.4,1,0.4,1.4c-1.1,0-0.9,0-0.9,1.9c0.3,0.1,1.1,0.4,1.6,0.4c0,0.5-0.3,0.6-0.4,1.3c-0.2,1.4,0.1,3.5,0.4,4.8
	c0.3,1.5-0.2,2.8-0.8,4.1c-0.4,0.9-0.4,0.4-1.1,0.7c-0.3,1.3,0.1,1.2,0,2c-0.1,0.7-0.4,1.1-0.5,1.7l8,0c1.2,0,1.4-0.1,1.4-1.3
	c-1.1-0.7-1.8,0.2-2.6-0.6c-0.7-0.6,0.1-0.7-0.4-2.8c-0.3-0.1-0.5,0.2-0.9-0.6c-0.7-1.3,1-3.3,1.9-6.2c0.5-1.8,0.3-1.1,1.1-2.3
	c0.7,0.2,0.8,0.2,1.4,0c0.1-0.2,0.5-1.7,0.6-2c-0.5-0.3-0.9-0.3-0.9-1.1c0.5,0,0.5-0.2,1-0.3c0-0.5-0.1-0.8-0.1-1.4
	c0-0.6,0-1.1,0-1.7c0-0.7,0.1-1,0.1-1.5c0-0.5,0-1.1,0-1.7c0-0.5,0.1-0.9,0.1-1.6c0-0.7-0.1-1-0.1-1.6c-0.1-0.6,0.1-1-0.2-1.5
	c-0.1-0.1-0.2-0.3-0.3-0.5c-0.2-0.4-0.1-0.9,0.5-1c0.2,0,0.6,0,0.9,0C91.9,45.7,91.9,45.6,91.9,45z"/>
<g>
	<path class="st2" d="M96.2,64.8l-0.2-1.4c-0.1-0.3-0.2-0.8-0.3-1.3l-1.2-5.5L94,54.7c0.6,0,1.1,0,1.5,0c0.4,0,0.9,0,1.5,0
		c0.1,0.8,0.2,1.4,0.3,1.8l0.6,3c0.1,0.6,0.3,1.4,0.4,2.3l0.2-1l0.9-3.4l0.6-2.6c0.7,0,1.2,0,1.7,0c0.5,0,1.1,0,1.7,0l0.5,3.1l0.6,4
		l0.3-1.1c0.1-0.2,0.1-0.4,0.2-0.6c0.1-0.2,0.2-0.6,0.4-1.1l0.9-2.8l0.4-1.4c0.6,0,1.1,0,1.5,0c0.4,0,0.9,0,1.5,0l-2.9,8.6l-0.5,1.5
		c-0.7,0-1.4,0-1.9,0c-0.6,0-1.2,0-1.9,0l-0.2-1l-0.6-3.5c0-0.2-0.1-0.4-0.1-0.7c0-0.2-0.1-0.6-0.1-1l-0.3,1.1
		c-0.1,0.3-0.1,0.5-0.2,0.8l-1.2,4.3c-0.7,0-1.4,0-1.9,0C97.5,64.8,96.9,64.8,96.2,64.8z"/>
	<path class="st2" d="M110.5,59.4c0.1-0.5,0.2-0.8,0.2-1c0-0.2,0.1-0.5,0.1-0.9c1.4-0.3,2.6-0.5,3.7-0.5c0.6,0,1.1,0.1,1.6,0.2
		c0.5,0.1,0.9,0.3,1.1,0.6c0.3,0.3,0.4,0.7,0.4,1.2c0,0.3,0,0.9-0.1,1.9c-0.1,1-0.1,2.2-0.2,3.8c-0.5,0-1,0-1.4,0c-0.5,0-1,0-1.5,0
		c0.1-0.5,0.1-1.7,0.2-3.4c-0.2,0.1-0.3,0.2-0.4,0.2c-0.1,0-0.3,0.1-0.6,0.2c-0.3,0.1-0.5,0.1-0.6,0.2c-0.1,0.1-0.3,0.1-0.4,0.2
		c-0.1,0.1-0.2,0.2-0.2,0.3c0,0.1-0.1,0.2-0.1,0.3c0,0.2,0.1,0.3,0.2,0.4c0.1,0.1,0.3,0.2,0.6,0.2c0.1,0,0.2,0,0.3,0
		c0.1,0,0.3-0.1,0.5-0.1c-0.1,0.4-0.3,0.9-0.5,1.6c-0.4,0.1-0.8,0.1-1.2,0.1c-0.6,0-1.1-0.1-1.5-0.3c-0.4-0.2-0.7-0.4-0.9-0.8
		c-0.2-0.4-0.3-0.8-0.3-1.1c0-0.2,0-0.5,0.1-0.7c0.1-0.2,0.2-0.4,0.4-0.7c0.2-0.2,0.4-0.4,0.6-0.5c0.2-0.2,0.5-0.3,0.9-0.4
		c0.4-0.1,0.9-0.3,1.5-0.4c0.3-0.1,0.5-0.1,0.7-0.2c0.2-0.1,0.4-0.1,0.5-0.1c0.1,0,0.2-0.1,0.2-0.1c0.1-0.1,0.1-0.1,0.1-0.2
		c0-0.1,0-0.1,0-0.2c0-0.2-0.1-0.3-0.2-0.4c-0.2-0.1-0.4-0.2-0.7-0.2C112.8,58.7,111.8,59,110.5,59.4z"/>
	<path class="st2" d="M119,64.8l0.1-1.6l0.3-5.5l0.1-3c0.7,0,1.2,0,1.5,0c0.4,0,0.9,0,1.5,0l-0.2,2.3l-0.3,5.6l-0.1,2.2
		c-0.5,0-1,0-1.4,0L119,64.8z"/>
	<path class="st2" d="M126.9,60.6l1.3-1.8l1-1.5c0.7,0,1.2,0,1.5,0c0.5,0,1.1,0,1.7,0l-1.5,1.9c-0.3,0.4-0.7,0.9-1.1,1.4
		c0.3,0.6,1.2,2,2.5,4.2c-0.6,0-1.1,0-1.6,0c-0.5,0-1,0-1.6,0l-0.5-0.9c-0.2-0.3-0.3-0.6-0.4-0.8c0-0.1-0.4-0.7-1-1.8L126.9,60.6z"
		/>
	<path class="st2" d="M123.6,64.8c0.1-0.6,0.1-1.1,0.1-1.5c0-0.5,0.1-1.2,0.1-2l0.1-1.8c0-0.8,0.1-1.6,0.1-2.3c0-0.9,0-1.7,0-2.5
		c0.7,0,1.2,0,1.6,0c0.4,0,0.9,0,1.4,0c-0.1,1.3-0.2,2.9-0.3,4.8c-0.1,1.9-0.1,3.7-0.1,5.3c-0.6,0-1.1,0-1.4,0
		C124.7,64.8,124.2,64.8,123.6,64.8z"/>
</g>
<path class="st2" d="M98.9,70.6c0.4,0,0.8,0,1.1,0c0.3,0,0.6,0,1,0c0,0.3,0,0.5,0,0.7c0,0.2,0,0.4-0.1,0.7c0,0.2-0.1,0.5-0.2,0.7
	c-0.1,0.2-0.1,0.4-0.2,0.6c-0.1,0.2-0.2,0.4-0.3,0.6c0.3,0.4,0.5,0.7,0.7,1c0.2,0.3,0.4,0.6,0.6,0.8c-0.6,0-1,0-1.4,0
	c-0.5,0-0.9,0-1.3,0L98.4,75c-0.2,0.2-0.4,0.3-0.5,0.4c-0.1,0.1-0.3,0.2-0.5,0.3c-0.2,0.1-0.4,0.1-0.7,0.2c-0.2,0-0.5,0.1-0.7,0.1
	c-0.6,0-1.2-0.1-1.7-0.4c-0.5-0.2-0.9-0.6-1.2-1.1c-0.3-0.5-0.4-1-0.4-1.6c0-0.6,0.2-1.2,0.5-1.7c0.3-0.5,0.9-1,1.7-1.5
	c-0.2-0.3-0.3-0.6-0.3-0.8c-0.1-0.2-0.1-0.4-0.1-0.6c0-0.3,0.1-0.7,0.2-1c0.1-0.3,0.3-0.6,0.6-0.8c0.3-0.2,0.6-0.4,0.8-0.4
	c0.3-0.1,0.6-0.1,1-0.1c0.6,0,1.3,0.1,2,0.3l0,1.9l0,0.3c-0.3-0.1-0.5-0.2-0.7-0.3C98.4,68,98.2,68,98,68c-0.2,0-0.4,0-0.5,0.1
	c-0.2,0.1-0.3,0.2-0.3,0.3c-0.1,0.1-0.1,0.3-0.1,0.4c0,0.1,0,0.2,0,0.3c0,0.1,0.1,0.2,0.1,0.4c0.1,0.2,0.2,0.4,0.3,0.6
	c0.1,0.2,0.3,0.4,0.4,0.6c0.1,0.1,0.2,0.3,0.4,0.6l0.5,0.7c0-0.1,0-0.2,0.1-0.3c0-0.1,0-0.2,0-0.4C98.9,71,98.9,70.8,98.9,70.6
	L98.9,70.6z M97.3,73.4c-0.2-0.2-0.4-0.5-0.6-0.8c-0.2-0.3-0.5-0.7-0.7-1c-0.1,0.1-0.2,0.2-0.3,0.2c-0.1,0.1-0.1,0.1-0.2,0.2
	c-0.1,0.1-0.1,0.2-0.2,0.3c-0.1,0.1-0.1,0.2-0.1,0.3c0,0.1,0,0.2,0,0.3c0,0.2,0,0.4,0.1,0.6c0.1,0.2,0.2,0.3,0.4,0.4
	c0.2,0.1,0.4,0.1,0.6,0.1c0.2,0,0.3,0,0.4-0.1c0.1,0,0.2-0.1,0.3-0.2C97.1,73.6,97.2,73.5,97.3,73.4z"/>
<path class="st2" d="M103.1,75.7c0.2-2.4,0.4-5,0.4-7.9l-3.1,0.1l0-0.8c0-0.4,0-0.9,0-1.4c1.4,0,3,0,4.9,0l1.8,0h1.8l1,0l0,0.7
	c0,0.4,0,0.7,0,1c0,0.3,0,0.4,0,0.6c-1.1-0.1-1.9-0.1-2.6-0.1h-0.5c-0.1,0.9-0.1,1.7-0.2,2.4c-0.1,1.1-0.1,2.1-0.1,3.1
	c0,1,0,1.8,0,2.4c-0.8,0-1.3,0-1.6,0C104.6,75.7,104,75.7,103.1,75.7z"/>
<path class="st2" d="M110.2,70.3c0.1-0.5,0.2-0.8,0.2-1c0-0.2,0.1-0.5,0.1-0.9c1.4-0.3,2.6-0.5,3.7-0.5c0.6,0,1.1,0.1,1.6,0.2
	c0.5,0.1,0.9,0.3,1.1,0.6c0.3,0.3,0.4,0.7,0.4,1.2c0,0.3,0,0.9-0.1,1.9c-0.1,1-0.1,2.2-0.2,3.8c-0.5,0-1,0-1.4,0c-0.5,0-1,0-1.5,0
	c0.1-0.5,0.1-1.7,0.2-3.4c-0.2,0.1-0.3,0.2-0.4,0.2c-0.1,0-0.3,0.1-0.6,0.2c-0.3,0.1-0.5,0.1-0.6,0.2c-0.1,0.1-0.3,0.1-0.4,0.2
	c-0.1,0.1-0.2,0.2-0.2,0.3c0,0.1-0.1,0.2-0.1,0.3c0,0.2,0.1,0.3,0.2,0.4c0.1,0.1,0.3,0.2,0.6,0.2c0.1,0,0.2,0,0.3,0
	c0.1,0,0.3-0.1,0.5-0.1c-0.1,0.4-0.3,0.9-0.5,1.6c-0.4,0.1-0.8,0.1-1.2,0.1c-0.6,0-1.1-0.1-1.5-0.3c-0.4-0.2-0.7-0.4-0.9-0.8
	c-0.2-0.4-0.3-0.8-0.3-1.1c0-0.2,0-0.5,0.1-0.7c0.1-0.2,0.2-0.4,0.4-0.7c0.2-0.2,0.4-0.4,0.6-0.5c0.2-0.2,0.5-0.3,0.9-0.4
	c0.4-0.1,0.9-0.3,1.5-0.4c0.3-0.1,0.5-0.1,0.7-0.2c0.2-0.1,0.4-0.1,0.5-0.1c0.1,0,0.2-0.1,0.2-0.1c0.1-0.1,0.1-0.1,0.1-0.2
	c0-0.1,0-0.1,0-0.2c0-0.2-0.1-0.3-0.2-0.4c-0.2-0.1-0.4-0.2-0.7-0.2C112.5,69.6,111.4,69.8,110.2,70.3z"/>
<path class="st2" d="M118.6,75.7l0.1-1.6l0.3-5.5l0.1-3c0.7,0,1.2,0,1.5,0c0.4,0,0.9,0,1.5,0l-0.2,2.3l-0.3,5.6l-0.1,2.2
	c-0.5,0-1,0-1.4,0L118.6,75.7z"/>
<path class="st2" d="M123.3,75.7c0.1-0.6,0.1-1.1,0.1-1.5c0-0.5,0.1-1.2,0.1-2l0.1-1.8c0-0.8,0.1-1.6,0.1-2.3c0-0.9,0-1.7,0-2.5
	c0.7,0,1.2,0,1.6,0c0.4,0,0.9,0,1.4,0c-0.1,1.3-0.2,2.9-0.3,4.8c-0.1,1.9-0.1,3.7-0.1,5.3c-0.6,0-1.1,0-1.4,0
	C124.4,75.7,123.9,75.7,123.3,75.7L123.3,75.7z M126.6,71.4l1.3-1.8l1-1.5c0.7,0,1.2,0,1.5,0c0.5,0,1.1,0,1.7,0l-1.5,1.9
	c-0.3,0.4-0.7,0.9-1.1,1.4c0.3,0.6,1.2,2,2.5,4.2c-0.6,0-1.1,0-1.6,0c-0.5,0-1,0-1.6,0l-0.5-0.9c-0.2-0.3-0.3-0.6-0.4-0.8
	c0-0.1-0.4-0.7-1-1.8L126.6,71.4z"/>
<path class="st2" d="M129.1,55.5v-1.8h-0.7v-0.3h1.7v0.3h-0.7v1.8H129.1L129.1,55.5z M130.4,55.5v-2.1h0.5l0.5,1.7l0.5-1.7h0.5v2.1
	h-0.3v-1.8l-0.6,1.8h-0.3l-0.6-1.8v1.8H130.4z"/>
</svg>
