<?xml version="1.0" encoding="utf-8"?>
<!-- Generator: Adobe Illustrator 24.0.2, SVG Export Plug-In . SVG Version: 6.00 Build 0)  -->
<svg version="1.1" id="Layer_1" xmlns="http://www.w3.org/2000/svg" xmlns:xlink="http://www.w3.org/1999/xlink" x="0px" y="0px"
	 viewBox="0 0 211 133" style="enable-background:new 0 0 211 133;" xml:space="preserve">
<style type="text/css">
	.st0{fill-rule:evenodd;clip-rule:evenodd;fill:#FDB92E;}
	.st1{fill-rule:evenodd;clip-rule:evenodd;fill:#E3DCCA;}
	.st2{fill-rule:evenodd;clip-rule:evenodd;fill:#373435;}
	.st3{fill-rule:evenodd;clip-rule:evenodd;fill:#313460;}
	.st4{fill-rule:evenodd;clip-rule:evenodd;fill:#FEFEFE;}
	.st5{fill-rule:evenodd;clip-rule:evenodd;fill:#EDBE43;}
</style>
<g>
	<g>
		<path class="st0" d="M38.7,212.2c0,0.4-0.2,0.7-0.5,0.9c-0.3,0.2-0.7,0.2-1,0c0,0-13.4-7.7-13.4-7.7c-0.3-0.2-0.5-0.5-0.5-0.9
			c0-0.4,0.2-0.7,0.5-0.9c0,0,12.3-7.1,13.4-7.7h0c0.3-0.2,0.7-0.2,1,0c0.3,0.2,0.5,0.5,0.5,0.9l0,0
			C38.7,201.9,38.7,207.1,38.7,212.2z"/>
		<path class="st0" d="M38.7,235.4c0,0.4-0.2,0.7-0.5,0.9c-0.3,0.2-0.7,0.2-1,0c0,0-13.4-7.7-13.4-7.7c-0.3-0.2-0.5-0.5-0.5-0.9
			c0-0.4,0.2-0.7,0.5-0.9c0,0,12.3-7.1,13.4-7.7h0c0.3-0.2,0.7-0.2,1,0c0.3,0.2,0.5,0.5,0.5,0.9h0C38.7,225,38.7,230.2,38.7,235.4z"
			/>
		<path class="st0" d="M41.1,212.2c0,0.4,0.2,0.7,0.5,0.9c0.3,0.2,0.7,0.2,1,0c0,0,13.4-7.7,13.4-7.7c0.3-0.2,0.5-0.5,0.5-0.9
			c0-0.4-0.2-0.7-0.5-0.9c0,0-12.3-7.1-13.4-7.7h0c-0.3-0.2-0.7-0.2-1,0s-0.5,0.5-0.5,0.9l0,0C41.1,201.9,41.1,207.1,41.1,212.2z"/>
		<path class="st0" d="M41.1,235.4c0,0.4,0.2,0.7,0.5,0.9c0.3,0.2,0.7,0.2,1,0c0,0,13.4-7.7,13.4-7.7c0.3-0.2,0.5-0.5,0.5-0.9
			c0-0.4-0.2-0.7-0.5-0.9c0,0-12.3-7.1-13.4-7.7h0c-0.3-0.2-0.7-0.2-1,0c-0.3,0.2-0.5,0.5-0.5,0.9h0C41.1,225,41.1,230.2,41.1,235.4
			z"/>
		<path class="st0" d="M58.7,223.8c0,0.4-0.2,0.7-0.5,0.9c-0.3,0.2-0.7,0.2-1,0c0,0-13.4-7.7-13.4-7.7c-0.3-0.2-0.5-0.5-0.5-0.9
			c0-0.4,0.2-0.7,0.5-0.9c0,0,12.3-7.1,13.4-7.7l0,0c0.3-0.2,0.7-0.2,1,0c0.3,0.2,0.5,0.5,0.5,0.9l0,0
			C58.7,213.5,58.7,218.6,58.7,223.8z"/>
		<path class="st0" d="M21,223.8c0,0.4,0.2,0.7,0.5,0.9c0.3,0.2,0.7,0.2,1,0c0,0,13.4-7.7,13.4-7.7c0.3-0.2,0.5-0.5,0.5-0.9
			c0-0.4-0.2-0.7-0.5-0.9c0,0-12.3-7.1-13.4-7.7l0,0c-0.3-0.2-0.7-0.2-1,0c-0.3,0.2-0.5,0.5-0.5,0.9l0,0C21,213.5,21,218.6,21,223.8
			z"/>
	</g>
	<g>
		<path class="st1" d="M38.7,258.5c0,0.4-0.2,0.7-0.5,0.9c-0.3,0.2-0.7,0.2-1,0c0,0-13.4-7.7-13.4-7.7c-0.3-0.2-0.5-0.5-0.5-0.9
			c0-0.4,0.2-0.7,0.5-0.9c0,0,12.3-7.1,13.4-7.7l0,0c0.3-0.2,0.7-0.2,1,0c0.3,0.2,0.5,0.5,0.5,0.9h0
			C38.7,248.2,38.7,253.3,38.7,258.5z"/>
		<path class="st1" d="M41.1,258.5c0,0.4,0.2,0.7,0.5,0.9c0.3,0.2,0.7,0.2,1,0c0,0,13.4-7.7,13.4-7.7c0.3-0.2,0.5-0.5,0.5-0.9
			c0-0.4-0.2-0.7-0.5-0.9c0,0-12.3-7.1-13.4-7.7l0,0c-0.3-0.2-0.7-0.2-1,0c-0.3,0.2-0.5,0.5-0.5,0.9h0
			C41.1,248.2,41.1,253.3,41.1,258.5z"/>
		<path class="st1" d="M58.7,246.9c0,0.4-0.2,0.7-0.5,0.9c-0.3,0.2-0.7,0.2-1,0c0,0-13.4-7.7-13.4-7.7c-0.3-0.2-0.5-0.5-0.5-0.9
			c0-0.4,0.2-0.7,0.5-0.9c0,0,12.3-7.1,13.4-7.7l0,0c0.3-0.2,0.7-0.2,1,0c0.3,0.2,0.5,0.5,0.5,0.9l0,0
			C58.7,236.6,58.7,241.8,58.7,246.9z"/>
		<g>
			<path class="st1" d="M41.1,189.1c0,0.4,0.2,0.7,0.5,0.9c0.3,0.2,0.7,0.2,1,0c0,0,13.4-7.7,13.4-7.7c0.3-0.2,0.5-0.5,0.5-0.9
				c0-0.4-0.2-0.7-0.5-0.9c0,0-12.3-7.1-13.4-7.7h0c-0.3-0.2-0.7-0.2-1,0c-0.3,0.2-0.5,0.5-0.5,0.9h0
				C41.1,178.8,41.1,184,41.1,189.1z"/>
			<path class="st1" d="M38.7,189.1c0,0.4-0.2,0.7-0.5,0.9c-0.3,0.2-0.7,0.2-1,0c0,0-13.4-7.7-13.4-7.7c-0.3-0.2-0.5-0.5-0.5-0.9
				c0-0.4,0.2-0.7,0.5-0.9c0,0,12.3-7.1,13.4-7.7l0,0c0.3-0.2,0.7-0.2,1,0c0.3,0.2,0.5,0.5,0.5,0.9l0,0
				C38.7,178.8,38.7,184,38.7,189.1z"/>
			<path class="st1" d="M58.7,200.7c0,0.4-0.2,0.7-0.5,0.9c-0.3,0.2-0.7,0.2-1,0c0,0-13.4-7.7-13.4-7.7c-0.3-0.2-0.5-0.5-0.5-0.9
				c0-0.4,0.2-0.7,0.5-0.9c0,0,12.3-7.1,13.4-7.7l0,0c0.3-0.2,0.7-0.2,1,0c0.3,0.2,0.5,0.5,0.5,0.9h0
				C58.7,190.4,58.7,195.5,58.7,200.7z"/>
			<path class="st1" d="M61.1,200.7c0,0.4,0.2,0.7,0.5,0.9c0.3,0.2,0.7,0.2,1,0c0,0,13.4-7.7,13.4-7.7c0.3-0.2,0.5-0.5,0.5-0.9
				c0-0.4-0.2-0.7-0.5-0.9c0,0-12.3-7.1-13.4-7.7v0c-0.3-0.2-0.7-0.2-1,0c-0.3,0.2-0.5,0.5-0.5,0.9h0
				C61.1,190.4,61.1,195.5,61.1,200.7z"/>
			<path class="st1" d="M61.1,223.8c0,0.4,0.2,0.7,0.5,0.9c0.3,0.2,0.7,0.2,1,0c0,0,13.4-7.7,13.4-7.7c0.3-0.2,0.5-0.5,0.5-0.9
				c0-0.4-0.2-0.7-0.5-0.9c0,0-12.3-7.1-13.4-7.7v0c-0.3-0.2-0.7-0.2-1,0c-0.3,0.2-0.5,0.5-0.5,0.9l0,0
				C61.1,213.5,61.1,218.6,61.1,223.8z"/>
			<path class="st1" d="M61.1,246.9c0,0.4,0.2,0.7,0.5,0.9c0.3,0.2,0.7,0.2,1,0c0,0,13.4-7.7,13.4-7.7c0.3-0.2,0.5-0.5,0.5-0.9
				c0-0.4-0.2-0.7-0.5-0.9c0,0-12.3-7.1-13.4-7.7v0c-0.3-0.2-0.7-0.2-1,0s-0.5,0.5-0.5,0.9l0,0C61.1,236.6,61.1,241.8,61.1,246.9z"
				/>
			<path class="st1" d="M21,200.7c0,0.4,0.2,0.7,0.5,0.9c0.3,0.2,0.7,0.2,1,0c0,0,13.4-7.7,13.4-7.7c0.3-0.2,0.5-0.5,0.5-0.9
				c0-0.4-0.2-0.7-0.5-0.9c0,0-12.3-7.1-13.4-7.7l0,0c-0.3-0.2-0.7-0.2-1,0c-0.3,0.2-0.5,0.5-0.5,0.9h0C21,190.4,21,195.5,21,200.7z
				"/>
			<path class="st1" d="M21,246.9c0,0.4,0.2,0.7,0.5,0.9c0.3,0.2,0.7,0.2,1,0c0,0,13.4-7.7,13.4-7.7c0.3-0.2,0.5-0.5,0.5-0.9
				c0-0.4-0.2-0.7-0.5-0.9c0,0-12.3-7.1-13.4-7.7l0,0c-0.3-0.2-0.7-0.2-1,0c-0.3,0.2-0.5,0.5-0.5,0.9l0,0
				C21,236.6,21,241.8,21,246.9z"/>
			<path class="st1" d="M78.8,212.2c0,0.4-0.2,0.7-0.5,0.9c-0.3,0.2-0.7,0.2-1,0c0,0-13.4-7.7-13.4-7.7c-0.3-0.2-0.5-0.5-0.5-0.9
				c0-0.4,0.2-0.7,0.5-0.9c0,0,12.3-7.1,13.4-7.7h0c0.3-0.2,0.7-0.2,1,0c0.3,0.2,0.5,0.5,0.5,0.9v0
				C78.8,201.9,78.8,207.1,78.8,212.2z"/>
			<path class="st1" d="M78.8,235.4c0,0.4-0.2,0.7-0.5,0.9c-0.3,0.2-0.7,0.2-1,0c0,0-13.4-7.7-13.4-7.7c-0.3-0.2-0.5-0.5-0.5-0.9
				c0-0.4,0.2-0.7,0.5-0.9c0,0,12.3-7.1,13.4-7.7h0c0.3-0.2,0.7-0.2,1,0c0.3,0.2,0.5,0.5,0.5,0.9l0,0
				C78.8,225,78.8,230.2,78.8,235.4z"/>
			<path class="st1" d="M1,212.2c0,0.4,0.2,0.7,0.5,0.9c0.3,0.2,0.7,0.2,1,0c0,0,13.4-7.7,13.4-7.7c0.3-0.2,0.5-0.5,0.5-0.9
				c0-0.4-0.2-0.7-0.5-0.9c0,0-12.3-7.1-13.4-7.7h0c-0.3-0.2-0.7-0.2-1,0c-0.3,0.2-0.5,0.5-0.5,0.9l0,0C1,201.9,1,207.1,1,212.2z"/>
			<path class="st1" d="M1,235.4c0,0.4,0.2,0.7,0.5,0.9c0.3,0.2,0.7,0.2,1,0c0,0,13.4-7.7,13.4-7.7c0.3-0.2,0.5-0.5,0.5-0.9
				c0-0.4-0.2-0.7-0.5-0.9c0,0-12.3-7.1-13.4-7.7h0c-0.3-0.2-0.7-0.2-1,0c-0.3,0.2-0.5,0.5-0.5,0.9h0C1,225,1,230.2,1,235.4z"/>
			<path class="st1" d="M18.7,200.7c0,0.4-0.2,0.7-0.5,0.9c-0.3,0.2-0.7,0.2-1,0c0,0-13.4-7.7-13.4-7.7c-0.3-0.2-0.5-0.5-0.5-0.9
				c0-0.4,0.2-0.7,0.5-0.9c0,0,12.3-7.1,13.4-7.7l0,0c0.3-0.2,0.7-0.2,1,0c0.3,0.2,0.5,0.5,0.5,0.9h0
				C18.7,190.4,18.7,195.5,18.7,200.7z"/>
			<path class="st1" d="M18.7,223.8c0,0.4-0.2,0.7-0.5,0.9c-0.3,0.2-0.7,0.2-1,0c0,0-13.4-7.7-13.4-7.7c-0.3-0.2-0.5-0.5-0.5-0.9
				c0-0.4,0.2-0.7,0.5-0.9c0,0,12.3-7.1,13.4-7.7l0,0c0.3-0.2,0.7-0.2,1,0c0.3,0.2,0.5,0.5,0.5,0.9l0,0
				C18.7,213.5,18.7,218.6,18.7,223.8z"/>
			<path class="st1" d="M18.7,246.9c0,0.4-0.2,0.7-0.5,0.9c-0.3,0.2-0.7,0.2-1,0c0,0-13.4-7.7-13.4-7.7c-0.3-0.2-0.5-0.5-0.5-0.9
				c0-0.4,0.2-0.7,0.5-0.9c0,0,12.3-7.1,13.4-7.7l0,0c0.3-0.2,0.7-0.2,1,0c0.3,0.2,0.5,0.5,0.5,0.9l0,0
				C18.7,236.6,18.7,241.8,18.7,246.9z"/>
		</g>
	</g>
</g>
<g>
	<path class="st2" d="M227.1,217.2h-12.2v-25.7H213v27.1h14V217.2L227.1,217.2z M191.4,208.2H202l-5.3-14.1L191.4,208.2L191.4,208.2
		z M197.5,191.5l10.3,27.1H206l-3.4-9h-11.7l-3.4,9h-1.8l10.4-27.1H197.5L197.5,191.5z M186,191.5h-16.8v1.4h7.5v25.7h1.7V193h7.6
		V191.5L186,191.5z M164.2,191.5h-1.7v27.1h1.7V191.5L164.2,191.5z M147,191.2c-3.9,0-7.1,1.3-9.5,4c-2.4,2.7-3.6,6-3.6,9.9
		c0,4.2,1.2,7.6,3.5,10.2c2.4,2.5,5.5,3.8,9.5,3.8c1.6,0,3.2-0.2,4.7-0.7c1.5-0.5,2.6-0.8,3-1.1c0.5-0.3,0.9-0.5,1.1-0.7v-10.4h-1.8
		v9.5l-0.7,0.5c-0.5,0.3-1.3,0.6-2.5,0.9c-1.2,0.3-2.5,0.5-3.9,0.5c-3.3,0-6-1.2-8.1-3.5c-2.1-2.3-3.1-5.3-3.1-9c0-3.7,1-6.7,3.1-9
		c2.1-2.3,4.8-3.5,8.1-3.5c1.9,0,3.6,0.5,4.9,1.4c1.4,0.9,2.2,1.8,2.5,2.7l1.5-0.7c-0.3-1-1.3-2-2.8-3.1
		C151.4,191.7,149.4,191.2,147,191.2L147,191.2z M127.8,191.5h-1.7v27.1h1.7V191.5L127.8,191.5z M118.1,205.1c0,3.9-1,6.9-3.1,9
		c-2,2.1-5,3.1-8.8,3.1h-5V193h5.1c3.8,0,6.7,1,8.8,3.1C117.1,198.2,118.1,201.2,118.1,205.1L118.1,205.1z M119.9,205.1
		c0-4.3-1.2-7.6-3.6-10c-2.4-2.4-5.7-3.6-10-3.6h-6.9v27.1h6.9c4.3,0,7.6-1.2,10-3.6C118.7,212.7,119.9,209.3,119.9,205.1z"/>
	<path class="st0" d="M104.2,234.9h7.5c-0.1,1.8-0.7,3.2-1.9,4.3c-1.2,1.1-2.6,1.7-4.3,1.7c-1.7,0-3.2-0.6-4.4-1.8
		c-1.2-1.2-1.8-2.7-1.8-4.5c0-0.8,0.2-1.6,0.5-2.4c0.3-0.8,0.8-1.4,1.4-2c0.6-0.6,1.3-1,2-1.3c0.7-0.3,1.5-0.4,2.4-0.4
		c1.2,0,2.2,0.3,3.2,0.9c0.9,0.6,1.7,1.4,2.2,2.4h-1.5c-0.6-0.7-1.2-1.3-1.8-1.6c-0.7-0.3-1.4-0.5-2.2-0.5c-1.4,0-2.6,0.5-3.5,1.5
		c-1,1-1.4,2.2-1.4,3.6c0,1.5,0.5,2.7,1.4,3.7c1,1,2.1,1.5,3.5,1.5c1.1,0,2.1-0.4,3-1.1c0.9-0.7,1.4-1.6,1.7-2.8h-6.1V234.9
		L104.2,234.9z M114.4,229.9v10.9h-1.2v-12.1h3.2c0.7,0,1.3,0.1,1.7,0.2c0.4,0.1,0.8,0.3,1.2,0.5c0.5,0.3,0.9,0.8,1.1,1.3
		c0.3,0.6,0.4,1.2,0.4,1.8c0,0.9-0.3,1.7-0.8,2.4c-0.6,0.7-1.3,1-2.1,1.1l2.9,4.7h-1.4l-3.6-5.8h1.1c0.8,0,1.4-0.2,1.9-0.7
		c0.5-0.4,0.7-1,0.7-1.7c0-0.4-0.1-0.8-0.2-1.2c-0.1-0.3-0.4-0.7-0.6-0.9c-0.2-0.2-0.5-0.4-0.9-0.5c-0.3-0.1-0.9-0.1-1.8-0.1H114.4
		L114.4,229.9z M122.5,240.7h-1.3l4.7-12.1h1.4l4.7,12.1h-1.3l-1.4-3.8H124L122.5,240.7L122.5,240.7z M128.9,235.9l-2.3-6.1
		l-2.3,6.1H128.9L128.9,235.9z M134,229.9v4.6h1.7c1,0,1.7-0.2,2.2-0.6c0.5-0.4,0.7-0.9,0.7-1.7c0-0.8-0.2-1.4-0.7-1.8
		c-0.5-0.4-1.2-0.6-2.2-0.6H134L134,229.9z M132.8,228.7h2.6c0.7,0,1.3,0,1.8,0.1c0.4,0.1,0.8,0.2,1.1,0.4c0.5,0.3,0.9,0.7,1.2,1.2
		c0.3,0.5,0.4,1.1,0.4,1.7c0,0.6-0.1,1.2-0.4,1.7c-0.3,0.5-0.6,0.9-1.1,1.2c-0.3,0.2-0.7,0.4-1.1,0.5c-0.4,0.1-1,0.1-1.7,0.1H134
		v5.1h-1.2V228.7L132.8,228.7z M142.7,240.7h-1.2v-12.1h1.2v5.4h5.7v-5.4h1.2v12.1h-1.2v-5.5h-5.7V240.7L142.7,240.7z M153.1,240.7
		h-1.2v-12.1h1.2V240.7L153.1,240.7z M164.9,231.8c-0.5-0.8-1.1-1.3-1.8-1.7c-0.7-0.4-1.4-0.5-2.3-0.5c-1.3,0-2.5,0.5-3.4,1.5
		c-1,1-1.4,2.2-1.4,3.6c0,1.5,0.5,2.7,1.4,3.7c0.9,1,2.1,1.5,3.5,1.5c0.8,0,1.6-0.2,2.3-0.5c0.7-0.4,1.3-0.9,1.8-1.6h1.4
		c-0.6,1-1.3,1.8-2.2,2.4c-0.9,0.6-2,0.8-3.1,0.8c-1.8,0-3.3-0.6-4.4-1.8c-1.2-1.2-1.8-2.7-1.8-4.5c0-0.8,0.2-1.6,0.5-2.4
		c0.3-0.8,0.8-1.4,1.4-2c0.6-0.6,1.2-1,1.9-1.3c0.7-0.3,1.5-0.4,2.3-0.4c1.2,0,2.3,0.3,3.2,0.9c1,0.6,1.7,1.4,2.3,2.5H164.9
		L164.9,231.8z M174,229.8v9.8h2.5c1.5,0,2.7-0.4,3.5-1.3c0.8-0.9,1.2-2.1,1.2-3.7c0-0.8-0.1-1.5-0.4-2.2c-0.3-0.7-0.7-1.2-1.2-1.7
		c-0.4-0.3-0.8-0.6-1.3-0.7c-0.5-0.1-1.2-0.2-2.1-0.2H174L174,229.8z M172.9,228.7h3.4c0.9,0,1.7,0.1,2.4,0.3
		c0.6,0.2,1.2,0.5,1.7,0.9c0.7,0.6,1.2,1.3,1.6,2.1c0.4,0.8,0.6,1.7,0.6,2.7c0,1.1-0.2,2-0.6,2.9c-0.4,0.9-1,1.6-1.8,2.1
		c-0.5,0.4-1.1,0.6-1.6,0.8c-0.6,0.2-1.5,0.2-2.7,0.2h-2.9V228.7L172.9,228.7z M185.4,234.1h5.1v1.2h-5.1v4.3h5.1v1.2h-6.3v-12.1
		h6.3v1.2h-5.1V234.1L185.4,234.1z M192.1,237.3h1.1c0,0.7,0.2,1.3,0.6,1.8c0.4,0.4,0.9,0.7,1.6,0.7c0.7,0,1.3-0.2,1.7-0.7
		c0.4-0.4,0.6-1,0.6-1.8c0-1.1-0.8-1.9-2.5-2.5c-0.1,0-0.2-0.1-0.3-0.1c-0.9-0.3-1.5-0.7-1.9-1.2c-0.4-0.5-0.6-1.1-0.6-1.8
		c0-1,0.3-1.7,0.9-2.4c0.6-0.6,1.4-0.9,2.3-0.9c0.9,0,1.6,0.3,2.2,0.8c0.5,0.6,0.8,1.3,0.9,2.4h-1.1c-0.1-0.7-0.3-1.2-0.6-1.5
		c-0.3-0.4-0.8-0.5-1.3-0.5c-0.6,0-1.1,0.2-1.5,0.6c-0.4,0.4-0.6,0.9-0.6,1.5c0,0.3,0.1,0.6,0.2,0.8c0.1,0.2,0.3,0.4,0.5,0.6
		c0.3,0.2,0.7,0.4,1.5,0.6c0.4,0.1,0.7,0.2,0.9,0.3c0.8,0.3,1.3,0.7,1.7,1.2c0.3,0.5,0.5,1.1,0.5,1.9c0,1.2-0.3,2.1-1,2.8
		c-0.6,0.7-1.5,1.1-2.5,1.1c-1,0-1.8-0.3-2.4-1C192.4,239.3,192.1,238.4,192.1,237.3L192.1,237.3z M201.8,240.7h-1.2v-12.1h1.2
		V240.7L201.8,240.7z M208.2,234.9h7.5c-0.1,1.8-0.7,3.2-1.9,4.3c-1.2,1.1-2.6,1.7-4.3,1.7c-1.7,0-3.2-0.6-4.4-1.8
		c-1.2-1.2-1.8-2.7-1.8-4.5c0-0.8,0.2-1.6,0.5-2.4c0.3-0.8,0.8-1.4,1.4-2c0.6-0.6,1.3-1,2-1.3c0.7-0.3,1.5-0.4,2.4-0.4
		c1.2,0,2.2,0.3,3.2,0.9c0.9,0.6,1.7,1.4,2.2,2.4h-1.5c-0.6-0.7-1.2-1.3-1.8-1.6c-0.7-0.3-1.4-0.5-2.2-0.5c-1.4,0-2.6,0.5-3.5,1.5
		c-1,1-1.4,2.2-1.4,3.6c0,1.5,0.5,2.7,1.4,3.7c1,1,2.1,1.5,3.5,1.5c1.1,0,2.1-0.4,3-1.1c0.9-0.7,1.4-1.6,1.7-2.8h-6.1V234.9
		L208.2,234.9z M225.4,239.3l-0.1-10.6h1.2v12.1H225l-6.6-10.6l0.1,10.6h-1.2v-12.1h1.4L225.4,239.3z"/>
</g>
<path class="st3" d="M93.4,104.8v-1.2h3.1v2.9c-0.3,0.3-0.7,0.6-1.3,0.8c-0.6,0.2-1.2,0.3-1.8,0.3c-0.8,0-1.4-0.2-2-0.5
	c-0.6-0.3-1-0.8-1.3-1.4c-0.3-0.6-0.4-1.2-0.4-1.9c0-0.8,0.2-1.4,0.5-2c0.3-0.6,0.8-1,1.4-1.3c0.5-0.2,1-0.4,1.7-0.4
	c0.9,0,1.6,0.2,2.1,0.6c0.5,0.4,0.8,0.9,1,1.6l-1.5,0.3c-0.1-0.4-0.3-0.6-0.6-0.8c-0.3-0.2-0.6-0.3-1-0.3c-0.6,0-1.1,0.2-1.5,0.6
	c-0.4,0.4-0.6,1-0.6,1.8c0,0.9,0.2,1.5,0.6,1.9c0.4,0.4,0.9,0.6,1.5,0.6c0.3,0,0.6-0.1,0.9-0.2c0.3-0.1,0.6-0.3,0.8-0.4v-0.9H93.4
	L93.4,104.8z M98.6,102.3h1.3v0.7c0.5-0.5,1-0.8,1.6-0.8c0.3,0,0.6,0.1,0.9,0.2c0.2,0.1,0.4,0.3,0.6,0.6c0.2-0.3,0.5-0.5,0.7-0.6
	c0.3-0.1,0.5-0.2,0.9-0.2c0.4,0,0.7,0.1,1,0.2c0.3,0.2,0.5,0.4,0.6,0.7c0.1,0.2,0.1,0.6,0.1,1.1v3.3h-1.4v-3c0-0.5,0-0.9-0.1-1
	c-0.1-0.2-0.3-0.3-0.6-0.3c-0.2,0-0.4,0.1-0.5,0.2c-0.2,0.1-0.3,0.3-0.4,0.5c-0.1,0.2-0.1,0.6-0.1,1.1v2.5h-1.4v-2.9
	c0-0.5,0-0.8-0.1-1c0-0.1-0.1-0.3-0.2-0.3c-0.1-0.1-0.2-0.1-0.4-0.1c-0.2,0-0.4,0.1-0.6,0.2c-0.2,0.1-0.3,0.3-0.4,0.5
	c-0.1,0.2-0.1,0.6-0.1,1.1v2.5h-1.4V102.3L98.6,102.3z M108.4,107.5v-7.2h1.4v2.6c0.4-0.5,0.9-0.7,1.5-0.7c0.6,0,1.2,0.2,1.6,0.7
	c0.4,0.5,0.6,1.1,0.6,2c0,0.9-0.2,1.6-0.6,2.1c-0.4,0.5-0.9,0.7-1.5,0.7c-0.3,0-0.6-0.1-0.9-0.2c-0.3-0.2-0.5-0.4-0.8-0.7v0.8H108.4
	L108.4,107.5z M109.7,104.8c0,0.5,0.1,0.9,0.3,1.2c0.2,0.4,0.6,0.6,1,0.6c0.3,0,0.6-0.1,0.8-0.4c0.2-0.3,0.3-0.7,0.3-1.2
	c0-0.6-0.1-1-0.3-1.3c-0.2-0.3-0.5-0.4-0.8-0.4c-0.3,0-0.6,0.1-0.8,0.4C109.9,103.9,109.7,104.3,109.7,104.8L109.7,104.8z
	 M115.4,107.5v-7.2h1.5v2.8h2.8v-2.8h1.5v7.2h-1.5v-3.2h-2.8v3.2H115.4z"/>
<path class="st4" d="M66.9,84.9c-0.1,0.1-0.1,0.2-0.1,0.3c-0.1,0.3-0.3,0.5-0.4,0.8c-0.4,0.8-0.7,1.5-1.1,2.3c0.3-0.8,0.6-1.6,1-2.3
	c0.1-0.4,0.3-0.7,0.5-1.1C66.8,84.8,66.8,84.9,66.9,84.9z"/>
<path class="st4" d="M77.4,67.2c-1.1,1.5-2.1,3-3.2,4.7c-0.3,0.5-0.7,1.1-1,1.6c-0.6,1-1.2,2-1.8,3.1c-1,1.8-2,3.5-2.9,5.3
	c0,0-0.1,0-0.1-0.1c0.8-1.6,1.7-3.2,2.6-4.7c0.1-0.2,0.2-0.4,0.3-0.6c0.5-0.8,1-1.6,1.4-2.4c0.3-0.5,0.7-1,1-1.5
	C74.9,70.7,76.1,68.9,77.4,67.2z"/>
<path class="st5" d="M159.9,55.1c-0.6-1.3-1.4-2.6-2.2-3.8c-0.9-1.2-1.8-2.3-2.8-3.4c-4.1-4.2-9.1-7.5-14.4-10
	c-2.7-1.3-5.4-2.4-8.2-3.3c-1.4-0.4-2.8-0.9-4.3-1.2l-1.5-0.4L126,33c-1.5,0.5-3,1.1-4.5,1.7c-0.8,0.3-1.6,0.6-2.4,1
	c0.1,0,0.2,0,0.2,0c1.2,0.1,2.3,0.3,3.5,0.5c5.6,0.9,11.1,2.2,16.5,4.2c2.7,1,5.3,2.1,7.7,3.5c2.5,1.4,4.9,3,7,4.9
	c2.1,1.9,4,4.1,5.3,6.6c1.4,2.5,2.1,5.3,2.1,8.2c0,2.9-0.7,5.7-2.1,8.2c-1.3,2.5-3.2,4.8-5.3,6.7c-2.1,1.9-4.5,3.5-7,4.9
	c-2.5,1.4-5.1,2.5-7.7,3.5c-5.3,2-10.8,3.3-16.4,4.3c-2.8,0.5-5.6,0.9-8.5,1.1c-2.8,0.2-5.7,0.4-8.5,0.5c-5.7,0.1-11.4-0.1-17.1-0.9
	c-5.7-0.8-11.3-2.2-16.6-4.4c-1.4-0.6-2.8-1.2-4.1-1.9c0,0.1-0.1,0.2-0.1,0.2c-0.1,0.3-0.3,0.5-0.4,0.8c1.4,0.7,2.7,1.4,4.1,2
	c2.7,1.2,5.4,2.2,8.2,3.1c2.8,0.9,5.6,1.6,8.5,2.2c2.9,0.6,5.7,1.1,8.7,1.5c2.9,0.3,5.8,0.5,8.8,0.6c5.9,0.1,11.8-0.3,17.6-1.4
	c1.5-0.3,2.9-0.6,4.3-0.9c1.4-0.4,2.8-0.8,4.2-1.2c2.8-0.9,5.6-2,8.2-3.2c5.3-2.5,10.3-5.8,14.4-10c1-1,2-2.2,2.8-3.3
	c0.8-1.2,1.7-2.4,2.3-3.8c1.3-2.6,2-5.5,2-8.5C161.9,60.7,161.2,57.8,159.9,55.1L159.9,55.1z M66.8,84.8c-0.2,0.4-0.3,0.7-0.5,1.1
	c0,0,0,0,0.1,0c0.1-0.3,0.3-0.5,0.4-0.8c0-0.1,0.1-0.2,0.1-0.3C66.8,84.9,66.8,84.8,66.8,84.8z"/>
<path class="st5" d="M106.3,37.3c-2.4,1.4-4.8,2.9-7,4.5c-1.2,0.9-2.3,1.7-3.3,2.5c-0.4,0.3-0.8,0.6-1.1,0.9
	c-0.9,0.7-1.7,1.4-2.6,2.1l0,0c0,0,0,0,0,0l0,0l0,0c-7,6-13.1,13.1-18.2,21c-0.3,0.4-0.6,0.9-0.9,1.3c-0.2,0.4-0.5,0.7-0.7,1.1
	c-0.5,0.8-0.9,1.6-1.4,2.3c-0.5,0.9-0.9,1.6-1.3,2.3c-1.5,2.8-2.9,5.7-4.2,8.6c-2.7-1.6-5.3-3.5-7.5-5.7c-1-1-1.9-2.1-2.8-3.2
	c-0.8-1.2-1.6-2.3-2.1-3.6c-1.2-2.5-1.8-5.2-1.8-8c0.1-2.7,0.9-5.4,2.2-7.7c1.3-2.4,3.1-4.5,5.1-6.4c4.1-3.7,9-6.5,14.2-8.7
	c5.2-2.1,10.7-3.6,16.3-4.5c2.8-0.4,5.6-0.8,8.4-1.1c2.8-0.2,5.6-0.3,8.5-0.4c1.6,0,3.2,0,4.8,0.1C109.3,35.7,107.8,36.5,106.3,37.3
	L106.3,37.3z M148.9,25.4c-4.8,0.1-9.8,0.7-15.3,1.8c-2.3,0.5-4.8,1.1-7.5,1.8c-2.7,0.8-5.1,1.6-7.3,2.5c-0.1,0.1-0.3,0.1-0.4,0.2
	c-4.1-0.6-8.3-0.8-12.4-0.9c-11.8,0-23.7,2-34.6,6.7c-5.4,2.4-10.7,5.5-15,9.8c-1.1,1.1-2,2.2-3,3.4c-0.9,1.3-1.7,2.5-2.3,4
	c-1.3,2.8-2,5.9-2,8.9c0.1,3.1,0.9,6.1,2.4,8.7c1.4,2.7,3.4,5,5.5,7c2.4,2.2,5.2,4.2,8,5.9c-1.9,4.5-3.5,9.2-4.8,13.9l0.8,0.2
	c1.4-4,2.8-7.6,4.3-11c0.4-0.8,0.7-1.5,1.1-2.3c0.1-0.3,0.3-0.5,0.4-0.8c0-0.1,0.1-0.2,0.1-0.3c0.5-1,1-2,1.5-3
	c0.9-1.8,1.9-3.6,2.9-5.4c0.6-1,1.2-2.1,1.8-3.1c0.3-0.5,0.7-1.1,1-1.6c1.1-1.6,2.1-3.2,3.2-4.7c2-2.7,3.9-5.2,5.9-7.4
	c3.5-4.1,7-7.6,10.6-10.6l0,0l0,0c0.7-0.6,1.5-1.2,2.3-1.9c0.6-0.5,1.3-1,2-1.6l4.7-3.3c1-0.7,2.1-1.4,3.2-2.1
	c4.3-2.7,8.9-5,13.5-6.9c2.5-1,5-1.9,7.5-2.8c0.1,0,0.2-0.1,0.3-0.1c6.9-2.2,14.1-3.7,21.6-4.4L148.9,25.4z"/>
<path class="st3" d="M104.7,52.2l-3.5,10.2c1.8,0.1,3.4,0.4,4.6,0.9c1.2,0.4,2.3,1.1,3.3,2L104.7,52.2L104.7,52.2z M142.7,54.7
	c-2.4-2.7-5.1-4-8.3-4c-1.3,0-2.2,0.3-2.8,0.8c-0.5,0.5-0.8,1.6-0.8,3.2v16.7c0,2,0.3,3.2,0.8,3.6c0.5,0.4,1.8,0.6,3.7,0.6
	c0.3,0,0.5,0,0.8,0c3.1-0.1,5.5-1.1,7.3-3c0.3-0.3,0.6-0.7,0.9-1c1.4-1.9,2-4.3,2-7.2C146.2,60.6,145,57.4,142.7,54.7L142.7,54.7z
	 M89,73.9c-1.5,1.3-3,2.7-4.5,4.1c-0.8,0.7-1.7,1.2-2.7,1.6c-0.1,0-0.1,0.1-0.2,0.1c-0.9,0.3-1.9,0.4-2.9,0.3c-1-0.1-2-0.4-3-0.8
	c-0.8-0.4-1.6-0.8-2.3-1.4c0,0,0,0-0.1,0c0,0,0,0,0,0c0-0.1,0.1-0.1,0.1-0.2c0.5-1,1.5-2.6,3.4-3.8c0.4-0.3,1.3-0.8,2.5-1
	c1.1-0.2,1.8-0.1,2.8,0c0,0,1.3,0.1,4.4,0.2c1.6,0,4-0.5,7-2.9C92,71.2,90.5,72.5,89,73.9L89,73.9z M119.9,77.5h-9.7v-0.6
	c0.6-0.2,1.1-0.6,1.4-1c0.3-0.4,0.4-1,0.4-1.7c0-2.5-1-4.6-3.1-6.4c-2.1-1.8-4.8-2.8-8.3-3.2L98,71.9c-0.2,0.6-0.4,1.2-0.5,1.6
	c-0.1,0.5-0.1,0.9-0.1,1.2c0,0.7,0.2,1.2,0.5,1.6c0.3,0.4,0.9,0.6,1.6,0.6v0.6H91v-0.6c1.7-0.4,3.1-2.1,4.2-5.3l0.1-0.2l7-19.6
	c0.1-0.3,0.1-0.5,0.2-0.7c0-0.2,0.1-0.4,0.1-0.6c0-0.3-0.1-0.6-0.3-0.8c-0.2-0.2-0.5-0.4-0.9-0.6v-0.6h9.1v0.6
	c-0.4,0.2-0.7,0.4-0.9,0.6c-0.2,0.2-0.3,0.5-0.3,0.9c0,0.2,0,0.4,0.1,0.5c0,0.2,0.1,0.4,0.2,0.7l6.9,20.7c0.6,1.9,1.2,3,1.6,3.5
	c0.4,0.5,1,0.8,1.7,0.8V77.5L119.9,77.5z M151.6,65c0,1.9-0.4,3.6-1,5.2c-0.7,1.6-1.8,3-3.1,4.2c-1.3,1.1-2.7,1.9-4.3,2.4
	c-1.6,0.5-3.7,0.7-6.2,0.7h-13.8v-0.6c1-0.1,1.7-0.4,2.1-1c0.4-0.6,0.6-1.9,0.6-3.8V54c0-2-0.2-3.3-0.6-3.9c-0.4-0.6-1.1-0.9-2.1-1
	v-0.6h11c2.2,0,4.2,0.3,5.9,0.7c1.8,0.5,3.4,1.2,4.8,2.2c2.1,1.5,3.8,3.4,5,5.8c1.2,2.3,1.8,4.8,1.8,7.6V65L151.6,65z M86.7,50.8
	h-3.6c-3.3,0-5.8,0.5-7.5,1.6c-1.7,1-3,2.8-3.9,5.3h-0.6l2.1-9.7c0.3,0.2,0.6,0.3,0.9,0.4c0.3,0.1,0.7,0.1,1.1,0.1h14
	C88.3,49.3,87.5,50,86.7,50.8L86.7,50.8z M156.1,55.7c1.3,2.2,2,4.8,2,7.4c0,0.2,0,0.5,0,0.7v0c-0.1,2.3-0.8,4.6-2,6.7
	c-1.3,2.3-3,4.3-5,6c-0.3,0.3-0.7,0.6-1,0.8c-1.7,1.4-3.6,2.5-5.6,3.6c-2.3,1.2-4.8,2.3-7.3,3.2c-5,1.8-10.2,3-15.5,3.8
	c-2.6,0.4-5.3,0.8-8,1c-2.7,0.2-5.3,0.4-8,0.4c-5.4,0.1-10.8-0.1-16.1-0.8c-5.3-0.7-10.6-2-15.6-3.9c-1.5-0.6-2.9-1.2-4.3-1.9
	c0.9-1.8,1.9-3.6,3-5.3c0.6-1,1.2-2,1.9-3.1c0.3-0.5,0.7-1,1-1.6c3.1-4.7,6.1-8.6,9.2-12c3.6-4.1,7.1-7.5,10.7-10.5l0,0l0,0
	c0.7-0.6,1.5-1.2,2.4-1.9c0.6-0.5,1.3-1,2-1.6l4.7-3.3c1.1-0.7,2.2-1.4,3.2-2c2.2-1.3,4.5-2.6,6.8-3.7c0.2,0,0.3,0,0.5,0
	c2.2,0.2,4.3,0.5,6.5,0.8c5.3,0.8,10.5,2,15.5,3.7c2.5,0.9,5,1.9,7.3,3.2c2.4,1.2,4.6,2.7,6.6,4.4C153.1,51.5,154.9,53.5,156.1,55.7
	L156.1,55.7z M105.8,37.3h0.6c-2.4,1.4-4.8,2.9-7,4.5c-1.2,0.9-2.3,1.7-3.3,2.5c-0.4,0.3-0.8,0.6-1.1,0.9c-0.9,0.7-1.7,1.4-2.6,2.1
	l0,0c0,0,0,0,0,0l0,0l0,0c-7,6-13.1,13.1-18.2,21c-0.3,0.4-0.6,0.9-0.9,1.3c-0.2,0.4-0.5,0.7-0.7,1.1c-0.2,0.2-0.2,0.5-0.4,0.7
	c-0.5,0.8-0.9,1.7-1.3,2.4c-0.5,0.8-0.8,1.5-1.2,2.1c0,0.1-0.1,0.1-0.1,0.2c-0.9,1.6-1.7,3.3-2.5,4.9c-2.2-1.3-4.5-3-6.4-4.8
	c-1-0.9-1.8-1.9-2.6-2.9c-0.8-1-1.5-2.1-2-3.2c-0.6-1.3-1.1-2.6-1.4-4c-0.1-0.6-0.2-1.2-0.3-1.8c0-0.4-0.1-0.9,0-1.3
	c0.1-2.4,0.8-4.8,2.1-6.9c1.2-2.1,2.9-4,4.8-5.7c3.8-3.4,8.5-5.9,13.4-7.8c4.9-1.9,10.1-3.2,15.3-4.1c2.6-0.4,5.3-0.7,7.9-1
	C100.4,37.4,103.1,37.4,105.8,37.3z"/>
</svg>
