<?xml version="1.0" encoding="utf-8"?>
<!-- Generator: Adobe Illustrator 24.0.2, SVG Export Plug-In . SVG Version: 6.00 Build 0)  -->
<svg version="1.1" id="Layer_1" xmlns="http://www.w3.org/2000/svg" xmlns:xlink="http://www.w3.org/1999/xlink" x="0px" y="0px"
	 viewBox="0 0 119.2 66.5" style="enable-background:new 0 0 119.2 66.5;" xml:space="preserve">
<style type="text/css">
	.st0{fill-rule:evenodd;clip-rule:evenodd;fill:#C52F33;}
	.st1{fill-rule:evenodd;clip-rule:evenodd;fill:#4D4D4D;}
	.st2{fill-rule:evenodd;clip-rule:evenodd;fill:#4D4D4D;stroke:#FEFEFE;stroke-width:0.216;stroke-miterlimit:2.6131;}
</style>
<g>
	<path class="st0" d="M4.1,45.6V45h2.2v1.9c-0.3,0.3-0.7,0.5-1,0.6c-0.4,0.2-0.7,0.2-1.1,0.2c-0.5,0-0.9-0.1-1.4-0.3
		c-0.4-0.2-0.7-0.5-0.9-0.9C1.7,46,1.6,45.5,1.6,45c0-0.5,0.1-0.9,0.3-1.4c0.2-0.4,0.5-0.7,0.9-0.9c0.4-0.2,0.8-0.3,1.4-0.3
		c0.4,0,0.7,0.1,1,0.2c0.3,0.1,0.5,0.3,0.7,0.5c0.2,0.2,0.3,0.5,0.4,0.8L5.6,44c-0.1-0.3-0.2-0.5-0.3-0.6c-0.1-0.2-0.3-0.3-0.5-0.4
		s-0.4-0.2-0.7-0.2c-0.3,0-0.6,0.1-0.8,0.2c-0.2,0.1-0.4,0.2-0.5,0.4c-0.2,0.2-0.3,0.3-0.3,0.5c-0.1,0.3-0.2,0.7-0.2,1.1
		c0,0.5,0.1,0.8,0.2,1.2c0.2,0.3,0.4,0.5,0.7,0.7C3.5,47,3.8,47,4.2,47S4.7,47,5,46.9c0.3-0.1,0.5-0.2,0.6-0.4v-0.9H4.1L4.1,45.6z
		 M8.5,47.6v-5.2h2.3c0.5,0,0.8,0.1,1.1,0.2c0.2,0.1,0.4,0.3,0.6,0.5c0.2,0.2,0.2,0.5,0.2,0.8c0,0.4-0.1,0.7-0.4,0.9
		c-0.2,0.3-0.6,0.4-1.1,0.5c0.2,0.1,0.3,0.2,0.4,0.3c0.2,0.2,0.4,0.4,0.6,0.7l0.9,1.4h-0.8l-0.7-1.1c-0.2-0.3-0.4-0.5-0.5-0.7
		s-0.3-0.3-0.4-0.4c-0.1-0.1-0.2-0.1-0.3-0.2c-0.1,0-0.2,0-0.4,0H9.2v2.3L8.5,47.6L8.5,47.6z M9.2,44.7h1.4c0.3,0,0.5-0.1,0.7-0.1
		c0.2-0.1,0.3-0.2,0.4-0.3c0.1-0.2,0.2-0.3,0.2-0.5c0-0.3-0.1-0.4-0.3-0.6C11.5,43,11.2,43,10.8,43H9.2L9.2,44.7L9.2,44.7z M14.7,45
		c0-0.8,0.2-1.5,0.7-2c0.5-0.5,1.1-0.7,1.7-0.7c0.5,0,0.9,0.1,1.3,0.3c0.4,0.2,0.7,0.5,0.8,0.9c0.2,0.4,0.3,0.8,0.3,1.4
		c0,0.5-0.1,1-0.3,1.4s-0.5,0.7-0.9,0.9s-0.8,0.3-1.2,0.3c-0.5,0-0.9-0.1-1.3-0.4c-0.4-0.2-0.7-0.5-0.8-0.9
		C14.7,45.9,14.7,45.5,14.7,45L14.7,45z M15.4,45.1c0,0.6,0.2,1.1,0.5,1.5c0.3,0.4,0.7,0.5,1.3,0.5c0.5,0,0.9-0.2,1.3-0.5
		c0.3-0.4,0.5-0.9,0.5-1.5c0-0.4-0.1-0.8-0.2-1.1c-0.2-0.3-0.4-0.6-0.6-0.7c-0.3-0.2-0.6-0.3-0.9-0.3c-0.5,0-0.9,0.2-1.2,0.5
		C15.5,43.7,15.4,44.3,15.4,45.1L15.4,45.1z M25,42.4h0.7v2.9c0,0.5-0.1,0.9-0.2,1.2c-0.1,0.3-0.3,0.5-0.6,0.7s-0.7,0.3-1.2,0.3
		c-0.5,0-0.8-0.1-1.2-0.3c-0.3-0.2-0.5-0.4-0.6-0.7c-0.1-0.3-0.2-0.7-0.2-1.3v-2.9h0.7v2.9c0,0.4,0.1,0.8,0.1,1
		c0.1,0.2,0.2,0.4,0.4,0.5c0.2,0.1,0.4,0.2,0.7,0.2c0.5,0,0.8-0.1,1.1-0.3c0.2-0.2,0.3-0.7,0.3-1.3L25,42.4L25,42.4z M28,47.6v-5.2
		h1.9c0.3,0,0.6,0,0.8,0.1c0.3,0.1,0.5,0.1,0.6,0.3c0.2,0.1,0.3,0.3,0.4,0.5c0.1,0.2,0.2,0.4,0.2,0.7c0,0.4-0.2,0.8-0.4,1.1
		s-0.8,0.5-1.5,0.5h-1.3v2.1H28L28,47.6z M28.7,44.9H30c0.4,0,0.7-0.1,0.9-0.3c0.2-0.2,0.3-0.4,0.3-0.7c0-0.2-0.1-0.4-0.2-0.5
		c-0.1-0.2-0.3-0.3-0.4-0.3C30.5,43,30.3,43,30,43h-1.3C28.7,43,28.7,44.9,28.7,44.9z"/>
	<g>
		<path class="st1" d="M44.4,37.5c-0.7,0.5-1.1,0.6-1.6,0.8c0.4-1.8,0.7-3.6,1.1-5.4c0.4-1.8,0.5-4.1,0.9-5.9c0.5-0.4,1.2-1,1.7-1.3
			c0.4,1.3,0.8,3.4,1.2,4.7c0.4,1.3,0.5,2.3,0.9,3.6c-0.5,0.3-0.9,1.1-1.4,1.5c-0.1-0.5-0.2-1-0.3-1.5c-0.7,0.5-1.5,1-2.3,1.5
			C44.5,36.1,44.5,36.8,44.4,37.5L44.4,37.5z M46.4,32.2c-0.1-0.5-0.3-1-0.4-1.5c-0.1-0.5-0.2-1-0.4-1.5c-0.1,0.6-0.3,1.3-0.4,1.9
			c-0.1,0.6-0.3,1.3-0.4,1.9C45.5,32.8,46,32.5,46.4,32.2L46.4,32.2z M37.4,39.7c0-1.7,0-3.7,0-5.4c0-1.7,0.1-3.1,0.1-4.8
			c0.8-0.1,1.6-0.2,2.4-0.4C40.4,29,40.8,29,41,29c0.2,0.1,0.4,0.2,0.5,0.3c0.1,0.2,0.2,0.5,0.3,0.8c0.1,0.4,0.1,0.8,0.1,1.3
			c0,0.7-0.1,1.3-0.3,1.7c-0.1,0.2-0.5,0.3-0.8,0.5c0.3,0.1,0.6,0.1,0.7,0.4c0.2,0.3,0.3,0.7,0.3,1.4c0.1,0.6,0.1,1.2,0.1,1.7
			c0,0.2,0.1,0.2,0.1,0.5c0.1,0.3,0.1,0.8,0.2,1.1c-0.5,0.1-1.1,0.4-1.5,0.5c-0.1-0.2-0.1-0.8-0.1-1s-0.1-0.5-0.1-0.8
			c0-0.5-0.1-0.7-0.1-1.2c0-0.5-0.1-0.8-0.1-0.9c-0.1-0.2-0.3-0.3-0.5-0.2c-0.3,0.1-0.6,0.1-0.9,0.2c0,0.7,0,1.4,0,2.1
			c0,0.7,0,1.5,0,2.2C38.4,39.6,37.9,39.7,37.4,39.7L37.4,39.7z M38.9,30.6c0,0.7,0,1.4,0,2.1c0.3-0.1,0.5-0.1,0.8-0.2
			c0.2-0.1,0.4-0.2,0.4-0.3c0.1-0.2,0.2-0.5,0.2-0.8c0-0.4-0.1-0.6-0.2-0.8c-0.1-0.2-0.2-0.2-0.4-0.2C39.4,30.5,39.2,30.6,38.9,30.6
			L38.9,30.6z M29.6,38.3c-0.2-1.8-0.4-3.4-0.6-5.2c-0.2-1.8-0.4-3.7-0.6-5.6c0.5,0.3,1,0.5,1.5,0.7c0.1,1.2,0.2,2.3,0.3,3.5
			c0.1,1.2,0.2,2.3,0.3,3.5c0.2-1.1,0.4-2.1,0.5-3.2c0.2-1.1,0.4-2,0.5-3.1c0.5,0.1,1,0.3,1.5,0.3c0.2,1.1,0.3,2,0.5,3.1
			c0.2,1.1,0.3,2.3,0.5,3.4c0.1-1.1,0.3-2.2,0.4-3.4c0.1-1.1,0.3-1.7,0.4-2.8c0.4,0,0.8,0.1,1.3,0c-0.2,1.8-0.4,2.9-0.6,4.7
			c-0.2,1.7-0.4,3.7-0.6,5.5c-0.5,0-1.1-0.1-1.6-0.2c-0.2-1.2-0.4-2.5-0.5-3.7c-0.2-1.2-0.4-2.4-0.5-3.6c-0.2,1.2-0.4,2.3-0.6,3.5
			c-0.2,1.2-0.4,2.1-0.6,3.3C30.6,38.7,30.1,38.5,29.6,38.3L29.6,38.3z M23.3,33.6l-1.4-0.9c0.4-1.6,0.6-2.5,1-4.1
			c0.4-1.6,0.7-3.1,1.1-4.6c0.5,0.4,1.1,1,1.6,1.5c0.4,2.1,0.7,4,1.1,6.1c0.4,2.1,0.7,3.8,1.1,5.8c-0.5-0.4-1.1-0.8-1.7-1.2
			c-0.1-0.7-0.2-1.2-0.3-1.9c-0.7-0.6-1.5-1.2-2.3-1.7C23.5,33.2,23.5,33,23.3,33.6L23.3,33.6z M25.4,31.6c-0.1-0.7-0.3-1.5-0.4-2.3
			c-0.1-0.7-0.2-1.5-0.3-2.2c-0.1,0.6-0.3,1.1-0.4,1.7c-0.1,0.6-0.3,1.1-0.4,1.7C24.5,30.9,25,31.2,25.4,31.6L25.4,31.6z M15.5,30.6
			c0-1.7,0-3.3,0-5s0-3.5,0-5.2c0.6,0.1,1.2,0.2,1.8,0.4c0.3,1.3,0.6,2.6,1,3.8c0.3,1.3,0.6,2.6,1,3.9c0-1.2,0-2.4,0-3.6
			c0-1.2,0-2.4,0-3.6c0.5,0.2,0.9,0.4,1.4,0.6c0,1.8,0,3.7,0,5.5c0,1.8,0,2.9,0,4.7c-0.6-0.3-1.3-0.5-1.9-0.8
			c-0.3-1.3-0.6-2.2-0.9-3.4c-0.3-1.3-0.6-2.6-0.9-3.8c0,1.2,0,2.4,0,3.6c0,1.2,0,2.1,0,3.2C16.5,30.7,16,30.7,15.5,30.6L15.5,30.6z
			 M11.7,28.4c0,0.7,0,1.5,0,2.2c-1.3,0.2-2.5,0.6-3.7,1c0-1.6,0-3.5,0-5.1C8,24.8,8,23.1,8,21.4c0.5-0.2,1-0.4,1.5-0.5
			c0,1.3,0,2.7,0,4c0,1.3,0,2.6,0,3.9C10.2,28.6,11,28.4,11.7,28.4L11.7,28.4z M2.4,35.4c-0.5,0.5-1,1.2-1.4,1.7
			c0.4-2.2,0.7-4.4,1.1-6.5c0.4-2.1,0.7-4.1,1.1-6.1c0.5-0.4,1.1-0.9,1.6-1.2c0.4,1.4,0.7,2.9,1.1,4.4c0.4,1.5,0.7,2.9,1.1,4.4
			c-0.5,0.3-1.1,0.6-1.6,0.9c-0.1-0.5-0.2-1.1-0.3-1.6c-0.7,0.6-1.5,1.2-2.3,1.9C2.6,33.9,2.5,34.6,2.4,35.4L2.4,35.4z M4.6,29.4
			c-0.1-0.5-0.3-1.1-0.4-1.6S4,26.8,3.8,26.3c-0.1,0.7-0.3,1.4-0.4,2.2c-0.1,0.7-0.3,1.4-0.4,2.2C3.6,30.1,4.1,29.7,4.6,29.4z"/>
		<path class="st1" d="M54.3,17.3l-1.7,7.8l0,0c0.4,1.3,0.8,2.7,1.3,4.1l0,0l4.6-9.3l0,0l0.6-1.5C58.9,15.3,55.5,14.4,54.3,17.3
			L54.3,17.3z M58.5,13c-4.1-2.8-7.3,0.7-7.4,4.4c0,2.7,0.7,5.3,1.5,7.9l0,0L51,32.4l0,0c-2.4-5.2-5.2-11.9-1.7-17.4
			c1.9-2.5,4.6-4.4,7.9-3.5l0,0l0,0c-0.5-1.2,0.4-2.2,1.6-2.4l0,0c-1.7,0.7-0.6,2.3,0,3.2l0,0c2.2,2.5,2.2,5.6-0.3,7.5l0.6-1.5
			C61,16.6,60.3,14.9,58.5,13L58.5,13z M51,32.3L50,37l0.8-1.6l0,0l0.8-1.7l0,0l-0.2-0.4l-0.2-0.4l0,0l-0.2-0.3L51,32.3L51,32.3
			L51,32.3z M52.7,49.9l-0.1-0.1c-2.8-2.7-9.2-5.8-13.2-5.1c-1.6,0.3-2.8,1.4-2.9,3.2C37.6,55.7,48.3,53.3,52.7,49.9L52.7,49.9
			L52.7,49.9L52.7,49.9z M56.3,42.5L56.3,42.5c3.4,0.4,6.8,1.2,10.3,1.9l0,0c3,0.5,6.2,1.1,9.2,0.8l0,0v0.1c-2.5,5.3-7.9,9-14.2,9
			c-1.2,0-2.3-0.1-3.4-0.4c0-0.1-0.1-0.1-0.1-0.1l0,0c-1.8-1.1-3.3-2.5-4.9-3.7l0,0c-3.7,3.5-7.6,5.9-12.9,5.5
			c-3-0.6-5.7-2.7-5.4-5.8c1.2-9.2,13.8-8.8,20.1-7.5l0,0c0.6-2.5-2.2-6.4-3.4-8.5l0,0l2.2-4.5l0,0C56.4,35.5,57.4,36.6,56.3,42.5
			L56.3,42.5z M57.1,20.3c-0.8,0-1.5-0.7-1.5-1.5c0-0.8,0.7-1.5,1.5-1.5s1.5,0.7,1.5,1.5S57.9,20.3,57.1,20.3z"/>
		<path class="st2" d="M75.8,46.6c15.3,1.1,32.9,1.7,42.4-15.5c-13,8.1-26,13.9-41.5,14.2h-0.3c-0.1,0.2-0.4,0.8-0.6,1.2
			C75.9,46.5,75.8,46.6,75.8,46.6L75.8,46.6z M74.8,48.2c0.4-0.5,0.7-1,1-1.5l0,0c8.8,1.2,22.1,1.4,30.3-2.1
			C100.2,53.1,83.7,50.4,74.8,48.2L74.8,48.2z M73.2,50.1c0.6-0.6,1.1-1.3,1.6-1.9c6.4,2.2,14.1,3.3,20.8,2.8l-0.3,0.3
			c-2.7,2.8-5.2,3.5-9,3.1C81.7,53.8,77.1,52.2,73.2,50.1L73.2,50.1z M70.6,52.3c1.8,1.7,3.5,2.9,5.8,3.9c2.9,1.2,5.4,0.1,8.1-1.4
			c-4.1-1.2-8.1-2.4-11.3-4.7l0,0C72.4,50.9,71.5,51.6,70.6,52.3C70.6,52.3,70.6,52.3,70.6,52.3L70.6,52.3z M75.3,56.4
			c-2-1-3.8-2.5-4.8-4.1l0,0c-1.4,0.9-3.1,1.6-4.8,2.1l0,0C68.8,57.4,71.2,58.4,75.3,56.4L75.3,56.4z M59.1,54.7
			c0.8,0.2,1.7,0.2,2.6,0.2c1.3,0,2.6-0.2,3.8-0.5c0.6,0.8,1,1.4,1.7,1.9C65,57.3,61.2,55.8,59.1,54.7z"/>
	</g>
</g>
</svg>
