<?xml version="1.0" encoding="utf-8"?>
<!-- Generator: Adobe Illustrator 24.0.2, SVG Export Plug-In . SVG Version: 6.00 Build 0)  -->
<svg version="1.1" id="Layer_1" xmlns="http://www.w3.org/2000/svg" xmlns:xlink="http://www.w3.org/1999/xlink" x="0px" y="0px"
	 viewBox="0 0 119.2 66.5" style="enable-background:new 0 0 119.2 66.5;" xml:space="preserve">
<style type="text/css">
	.st0{fill-rule:evenodd;clip-rule:evenodd;fill:#FDB92E;}
	.st1{fill-rule:evenodd;clip-rule:evenodd;fill:#E3DCCA;}
	.st2{fill-rule:evenodd;clip-rule:evenodd;fill:#373435;}
</style>
<g>
	<g>
		<path class="st0" d="M20.3,31.2c0,0.2-0.1,0.4-0.3,0.5c-0.2,0.1-0.4,0.1-0.5,0l-7-4c-0.2-0.1-0.3-0.3-0.3-0.5s0.1-0.4,0.3-0.5
			c0,0,6.4-3.7,7-4l0,0c0.2-0.1,0.4-0.1,0.5,0c0.2,0.1,0.3,0.3,0.3,0.5l0,0C20.3,25.8,20.3,28.6,20.3,31.2z"/>
		<path class="st0" d="M20.3,43.3c0,0.2-0.1,0.4-0.3,0.5c-0.2,0.1-0.4,0.1-0.5,0l-7-4c-0.2-0.1-0.3-0.3-0.3-0.5
			c0-0.2,0.1-0.4,0.3-0.5c0,0,6.4-3.7,7-4l0,0c0.2-0.1,0.4-0.1,0.5,0c0.2,0.1,0.3,0.3,0.3,0.5l0,0C20.3,37.9,20.3,40.6,20.3,43.3z"
			/>
		<path class="st0" d="M21.5,31.2c0,0.2,0.1,0.4,0.3,0.5c0.2,0.1,0.4,0.1,0.5,0l7-4c0.2-0.1,0.3-0.3,0.3-0.5s-0.1-0.4-0.3-0.5
			c0,0-6.4-3.7-7-4l0,0c-0.2-0.1-0.4-0.1-0.5,0c-0.2,0.1-0.3,0.3-0.3,0.5l0,0C21.5,25.8,21.5,28.6,21.5,31.2z"/>
		<path class="st0" d="M21.5,43.3c0,0.2,0.1,0.4,0.3,0.5c0.2,0.1,0.4,0.1,0.5,0l7-4c0.2-0.1,0.3-0.3,0.3-0.5c0-0.2-0.1-0.4-0.3-0.5
			c0,0-6.4-3.7-7-4l0,0c-0.2-0.1-0.4-0.1-0.5,0c-0.2,0.1-0.3,0.3-0.3,0.5l0,0C21.5,37.9,21.5,40.6,21.5,43.3z"/>
		<path class="st0" d="M30.7,37.3c0,0.2-0.1,0.4-0.3,0.5c-0.2,0.1-0.4,0.1-0.5,0l-7-4c-0.2-0.1-0.3-0.3-0.3-0.5s0.1-0.4,0.3-0.5
			c0,0,6.4-3.7,7-4l0,0c0.2-0.1,0.4-0.1,0.5,0c0.2,0.1,0.3,0.3,0.3,0.5l0,0C30.7,31.9,30.7,34.6,30.7,37.3z"/>
		<path class="st0" d="M11,37.3c0,0.2,0.1,0.4,0.3,0.5c0.2,0.1,0.4,0.1,0.5,0l7-4c0.2-0.1,0.3-0.3,0.3-0.5s-0.1-0.4-0.3-0.5
			c0,0-6.4-3.7-7-4l0,0c-0.2-0.1-0.4-0.1-0.5,0C11.2,28.9,11,29,11,29.2l0,0C11,31.9,11,34.6,11,37.3z"/>
	</g>
	<g>
		<path class="st1" d="M20.3,55.4c0,0.2-0.1,0.4-0.3,0.5c-0.2,0.1-0.4,0.1-0.5,0l-7-4c-0.2-0.1-0.3-0.3-0.3-0.5
			c0-0.2,0.1-0.4,0.3-0.5c0,0,6.4-3.7,7-4l0,0c0.2-0.1,0.4-0.1,0.5,0c0.2,0.1,0.3,0.3,0.3,0.5l0,0C20.3,50,20.3,52.7,20.3,55.4z"/>
		<path class="st1" d="M21.5,55.4c0,0.2,0.1,0.4,0.3,0.5c0.2,0.1,0.4,0.1,0.5,0l7-4c0.2-0.1,0.3-0.3,0.3-0.5c0-0.2-0.1-0.4-0.3-0.5
			c0,0-6.4-3.7-7-4l0,0c-0.2-0.1-0.4-0.1-0.5,0c-0.2,0.1-0.3,0.3-0.3,0.5l0,0C21.5,50,21.5,52.7,21.5,55.4z"/>
		<path class="st1" d="M30.7,49.3c0,0.2-0.1,0.4-0.3,0.5c-0.2,0.1-0.4,0.1-0.5,0l-7-4c-0.2-0.1-0.3-0.3-0.3-0.5s0.1-0.4,0.3-0.5
			c0,0,6.4-3.7,7-4l0,0c0.2-0.1,0.4-0.1,0.5,0c0.2,0.1,0.3,0.3,0.3,0.5l0,0C30.7,43.9,30.7,46.7,30.7,49.3z"/>
		<g>
			<path class="st1" d="M21.5,19.2c0,0.2,0.1,0.4,0.3,0.5c0.2,0.1,0.4,0.1,0.5,0l7-4c0.2-0.1,0.3-0.3,0.3-0.5c0-0.2-0.1-0.4-0.3-0.5
				c0,0-6.4-3.7-7-4l0,0c-0.2-0.1-0.4-0.1-0.5,0c-0.2,0.1-0.3,0.3-0.3,0.5l0,0C21.5,13.8,21.5,16.5,21.5,19.2z"/>
			<path class="st1" d="M20.3,19.2c0,0.2-0.1,0.4-0.3,0.5c-0.2,0.1-0.4,0.1-0.5,0l-7-4c-0.2-0.1-0.3-0.3-0.3-0.5
				c0-0.2,0.1-0.4,0.3-0.5c0,0,6.4-3.7,7-4l0,0c0.2-0.1,0.4-0.1,0.5,0c0.2,0.1,0.3,0.3,0.3,0.5l0,0C20.3,13.8,20.3,16.5,20.3,19.2z"
				/>
			<path class="st1" d="M30.7,25.2c0,0.2-0.1,0.4-0.3,0.5c-0.2,0.1-0.4,0.1-0.5,0l-7-4c-0.2-0.1-0.3-0.3-0.3-0.5
				c0-0.2,0.1-0.4,0.3-0.5c0,0,6.4-3.7,7-4l0,0c0.2-0.1,0.4-0.1,0.5,0c0.2,0.1,0.3,0.3,0.3,0.5l0,0C30.7,19.8,30.7,22.5,30.7,25.2z"
				/>
			<path class="st1" d="M32,25.2c0,0.2,0.1,0.4,0.3,0.5c0.2,0.1,0.4,0.1,0.5,0l7-4c0.2-0.1,0.3-0.3,0.3-0.5c0-0.2-0.1-0.4-0.3-0.5
				c0,0-6.4-3.7-7-4l0,0c-0.2-0.1-0.4-0.1-0.5,0C32.1,16.8,32,17,32,17.2l0,0C32,19.8,32,22.5,32,25.2z"/>
			<path class="st1" d="M32,37.3c0,0.2,0.1,0.4,0.3,0.5s0.4,0.1,0.5,0l7-4c0.2-0.1,0.3-0.3,0.3-0.5s-0.1-0.4-0.3-0.5
				c0,0-6.4-3.7-7-4l0,0c-0.2-0.1-0.4-0.1-0.5,0C32.1,28.9,32,29,32,29.2l0,0C32,31.9,32,34.6,32,37.3z"/>
			<path class="st1" d="M32,49.3c0,0.2,0.1,0.4,0.3,0.5c0.2,0.1,0.4,0.1,0.5,0l7-4c0.2-0.1,0.3-0.3,0.3-0.5c0-0.2-0.1-0.4-0.3-0.5
				c0,0-6.4-3.7-7-4l0,0c-0.2-0.1-0.4-0.1-0.5,0c-0.2,0.1-0.3,0.3-0.3,0.5l0,0C32,43.9,32,46.7,32,49.3z"/>
			<path class="st1" d="M11,25.2c0,0.2,0.1,0.4,0.3,0.5c0.2,0.1,0.4,0.1,0.5,0l7-4c0.2-0.1,0.3-0.3,0.3-0.5c0-0.2-0.1-0.4-0.3-0.5
				c0,0-6.4-3.7-7-4l0,0c-0.2-0.1-0.4-0.1-0.5,0C11.2,16.8,11,17,11,17.2l0,0C11,19.8,11,22.5,11,25.2z"/>
			<path class="st1" d="M11,49.3c0,0.2,0.1,0.4,0.3,0.5c0.2,0.1,0.4,0.1,0.5,0l7-4c0.2-0.1,0.3-0.3,0.3-0.5c0-0.2-0.1-0.4-0.3-0.5
				c0,0-6.4-3.7-7-4l0,0c-0.2-0.1-0.4-0.1-0.5,0c-0.2,0.1-0.3,0.3-0.3,0.5l0,0C11,43.9,11,46.7,11,49.3z"/>
			<path class="st1" d="M41.2,31.2c0,0.2-0.1,0.4-0.3,0.5c-0.2,0.1-0.4,0.1-0.5,0l-7-4c-0.2-0.1-0.3-0.3-0.3-0.5s0.1-0.4,0.3-0.5
				c0,0,6.4-3.7,7-4l0,0c0.2-0.1,0.4-0.1,0.5,0c0.2,0.1,0.3,0.3,0.3,0.5l0,0C41.2,25.8,41.2,28.6,41.2,31.2z"/>
			<path class="st1" d="M41.2,43.3c0,0.2-0.1,0.4-0.3,0.5c-0.2,0.1-0.4,0.1-0.5,0l-7-4c-0.2-0.1-0.3-0.3-0.3-0.5
				c0-0.2,0.1-0.4,0.3-0.5c0,0,6.4-3.7,7-4l0,0c0.2-0.1,0.4-0.1,0.5,0c0.2,0.1,0.3,0.3,0.3,0.5l0,0C41.2,37.9,41.2,40.6,41.2,43.3z"
				/>
			<path class="st1" d="M0.6,31.2c0,0.2,0.1,0.4,0.3,0.5c0.2,0.1,0.4,0.1,0.5,0l7-4c0.2-0.1,0.3-0.3,0.3-0.5s-0.1-0.4-0.3-0.5
				c0,0-6.4-3.7-7-4l0,0c-0.2-0.1-0.4-0.1-0.5,0c-0.2,0.1-0.3,0.3-0.3,0.5l0,0C0.6,25.8,0.6,28.6,0.6,31.2z"/>
			<path class="st1" d="M0.6,43.3c0,0.2,0.1,0.4,0.3,0.5c0.2,0.1,0.4,0.1,0.5,0l7-4c0.2-0.1,0.3-0.3,0.3-0.5c0-0.2-0.1-0.4-0.3-0.5
				c0,0-6.4-3.7-7-4l0,0c-0.2-0.1-0.4-0.1-0.5,0c-0.2,0.1-0.3,0.3-0.3,0.5l0,0C0.6,37.9,0.6,40.6,0.6,43.3z"/>
			<path class="st1" d="M9.8,25.2c0,0.2-0.1,0.4-0.3,0.5c-0.2,0.1-0.4,0.1-0.5,0l-7-4c-0.2-0.1-0.3-0.3-0.3-0.5
				c0-0.2,0.1-0.4,0.3-0.5c0,0,6.4-3.7,7-4l0,0c0.2-0.1,0.4-0.1,0.5,0c0.2,0.1,0.3,0.3,0.3,0.5l0,0C9.8,19.8,9.8,22.5,9.8,25.2z"/>
			<path class="st1" d="M9.8,37.3c0,0.2-0.1,0.4-0.3,0.5c-0.2,0.1-0.4,0.1-0.5,0l-7-4c-0.2-0.1-0.3-0.3-0.3-0.5s0.1-0.4,0.3-0.5
				c0,0,6.4-3.7,7-4l0,0c0.2-0.1,0.4-0.1,0.5,0c0.2,0.1,0.3,0.3,0.3,0.5l0,0C9.8,31.9,9.8,34.6,9.8,37.3z"/>
			<path class="st1" d="M9.8,49.3c0,0.2-0.1,0.4-0.3,0.5c-0.2,0.1-0.4,0.1-0.5,0l-7-4c-0.2-0.1-0.3-0.3-0.3-0.5s0.1-0.4,0.3-0.5
				c0,0,6.4-3.7,7-4l0,0c0.2-0.1,0.4-0.1,0.5,0c0.2,0.1,0.3,0.3,0.3,0.5l0,0C9.8,43.9,9.8,46.7,9.8,49.3z"/>
		</g>
	</g>
</g>
<g>
	<path class="st2" d="M118.6,33.8h-6.4V20.4h-1v14.1h7.3L118.6,33.8L118.6,33.8z M100,29.1h5.5l-2.8-7.4L100,29.1L100,29.1z
		 M103.1,20.4l5.4,14.1h-0.9l-1.8-4.7h-6.1l-1.8,4.7H97l5.4-14.1H103.1L103.1,20.4z M97.1,20.4h-8.8v0.7h3.9v13.4h0.9V21.2h4V20.4
		L97.1,20.4z M85.8,20.4h-0.9v14.1h0.9V20.4L85.8,20.4z M76.8,20.3c-2,0-3.7,0.7-5,2.1c-1.3,1.4-1.9,3.1-1.9,5.2
		c0,2.2,0.6,4,1.8,5.3c1.3,1.3,2.9,2,5,2c0.8,0,1.7-0.1,2.5-0.4c0.8-0.3,1.4-0.4,1.6-0.6c0.3-0.2,0.5-0.3,0.6-0.4v-5.4h-0.9v5
		L80,33.3c-0.3,0.2-0.7,0.3-1.3,0.5c-0.6,0.2-1.3,0.3-2,0.3c-1.7,0-3.1-0.6-4.2-1.8s-1.6-2.8-1.6-4.7s0.5-3.5,1.6-4.7S75,21,76.7,21
		c1,0,1.9,0.3,2.6,0.7c0.7,0.5,1.1,0.9,1.3,1.4l0.8-0.4c-0.2-0.5-0.7-1-1.5-1.6C79.1,20.5,78,20.3,76.8,20.3L76.8,20.3z M66.8,20.4
		h-0.9v14.1h0.9V20.4L66.8,20.4z M61.7,27.5c0,2-0.5,3.6-1.6,4.7c-1,1.1-2.6,1.6-4.6,1.6h-2.6V21.2h2.7c2,0,3.5,0.5,4.6,1.6
		C61.2,23.9,61.7,25.5,61.7,27.5L61.7,27.5z M62.7,27.5c0-2.2-0.6-4-1.9-5.2c-1.3-1.3-3-1.9-5.2-1.9H52v14.1h3.6
		c2.2,0,4-0.6,5.2-1.9C62,31.5,62.7,29.7,62.7,27.5z"/>
	<path class="st0" d="M54.5,43.1h3.9c-0.1,0.9-0.4,1.7-1,2.2c-0.6,0.6-1.4,0.9-2.2,0.9c-0.9,0-1.7-0.3-2.3-0.9
		c-0.6-0.6-0.9-1.4-0.9-2.3c0-0.4,0.1-0.8,0.3-1.3s0.4-0.7,0.7-1c0.3-0.3,0.7-0.5,1-0.7c0.4-0.2,0.8-0.2,1.3-0.2
		c0.6,0,1.1,0.2,1.7,0.5c0.5,0.3,0.9,0.7,1.1,1.3h-0.8c-0.3-0.4-0.6-0.7-0.9-0.8c-0.4-0.2-0.7-0.3-1.1-0.3c-0.7,0-1.4,0.3-1.8,0.8
		c-0.5,0.5-0.7,1.1-0.7,1.9c0,0.8,0.3,1.4,0.7,1.9c0.5,0.5,1.1,0.8,1.8,0.8c0.6,0,1.1-0.2,1.6-0.6c0.5-0.4,0.7-0.8,0.9-1.5h-3.2
		L54.5,43.1C54.4,43.1,54.5,43.1,54.5,43.1z M59.8,40.5v5.7h-0.6v-6.3h1.7c0.4,0,0.7,0.1,0.9,0.1c0.2,0.1,0.4,0.2,0.6,0.3
		c0.3,0.2,0.5,0.4,0.6,0.7c0.2,0.3,0.2,0.6,0.2,0.9c0,0.5-0.2,0.9-0.4,1.3c-0.3,0.4-0.7,0.5-1.1,0.6l1.5,2.5h-0.7l-1.9-3h0.6
		c0.4,0,0.7-0.1,1-0.4c0.3-0.2,0.4-0.5,0.4-0.9c0-0.2-0.1-0.4-0.1-0.6c-0.1-0.2-0.2-0.4-0.3-0.5s-0.3-0.2-0.5-0.3
		c-0.2-0.1-0.5-0.1-0.9-0.1L59.8,40.5C59.8,40.4,59.8,40.5,59.8,40.5z M64,46.1h-0.7l2.5-6.3h0.7l2.5,6.3h-0.7l-0.7-2h-2.8L64,46.1
		L64,46.1z M67.3,43.6l-1.2-3.2l-1.2,3.2H67.3L67.3,43.6z M70,40.5v2.4h0.9c0.5,0,0.9-0.1,1.1-0.3c0.3-0.2,0.4-0.5,0.4-0.9
		s-0.1-0.7-0.4-0.9c-0.3-0.2-0.6-0.3-1.1-0.3L70,40.5L70,40.5z M69.4,39.8h1.4c0.4,0,0.7,0,0.9,0.1c0.2,0.1,0.4,0.1,0.6,0.2
		c0.3,0.2,0.5,0.4,0.6,0.6c0.2,0.3,0.2,0.6,0.2,0.9c0,0.3-0.1,0.6-0.2,0.9c-0.2,0.3-0.3,0.5-0.6,0.6c-0.2,0.1-0.4,0.2-0.6,0.3
		c-0.2,0.1-0.5,0.1-0.9,0.1H70v2.7h-0.6V39.8L69.4,39.8z M74.5,46.1h-0.6v-6.3h0.6v2.8h3v-2.8h0.6v6.3h-0.6v-2.9h-3V46.1L74.5,46.1z
		 M80,46.1h-0.6v-6.3H80V46.1L80,46.1z M86.1,41.4c-0.3-0.4-0.6-0.7-0.9-0.9c-0.4-0.2-0.7-0.3-1.2-0.3c-0.7,0-1.3,0.3-1.8,0.8
		c-0.5,0.5-0.7,1.1-0.7,1.9c0,0.8,0.3,1.4,0.7,1.9s1.1,0.8,1.8,0.8c0.4,0,0.8-0.1,1.2-0.3c0.4-0.2,0.7-0.5,0.9-0.8h0.7
		c-0.3,0.5-0.7,0.9-1.1,1.3s-1,0.4-1.6,0.4c-0.9,0-1.7-0.3-2.3-0.9c-0.6-0.6-0.9-1.4-0.9-2.3c0-0.4,0.1-0.8,0.3-1.3s0.4-0.7,0.7-1
		c0.3-0.3,0.6-0.5,1-0.7s0.8-0.2,1.2-0.2c0.6,0,1.2,0.2,1.7,0.5c0.5,0.3,0.9,0.7,1.2,1.3h-0.8L86.1,41.4L86.1,41.4z M90.9,40.4v5.1
		h1.3c0.8,0,1.4-0.2,1.8-0.7c0.4-0.5,0.6-1.1,0.6-1.9c0-0.4-0.1-0.8-0.2-1.1c-0.2-0.4-0.4-0.6-0.6-0.9c-0.2-0.2-0.4-0.3-0.7-0.4
		c-0.3-0.1-0.6-0.1-1.1-0.1L90.9,40.4L90.9,40.4z M90.3,39.8h1.8c0.5,0,0.9,0.1,1.3,0.2c0.3,0.1,0.6,0.3,0.9,0.5
		c0.4,0.3,0.6,0.7,0.8,1.1c0.2,0.4,0.3,0.9,0.3,1.4c0,0.6-0.1,1-0.3,1.5c-0.2,0.5-0.5,0.8-0.9,1.1c-0.3,0.2-0.6,0.3-0.8,0.4
		c-0.3,0.1-0.8,0.1-1.4,0.1h-1.5L90.3,39.8L90.3,39.8z M96.8,42.6h2.7v0.6h-2.7v2.2h2.7v0.6h-3.3v-6.3h3.3v0.6h-2.7V42.6L96.8,42.6z
		 M100.3,44.3h0.6c0,0.4,0.1,0.7,0.3,0.9c0.2,0.2,0.5,0.4,0.8,0.4c0.4,0,0.7-0.1,0.9-0.4c0.2-0.2,0.3-0.5,0.3-0.9
		c0-0.6-0.4-1-1.3-1.3c-0.1,0-0.1-0.1-0.2-0.1c-0.5-0.2-0.8-0.4-1-0.6c-0.2-0.3-0.3-0.6-0.3-0.9c0-0.5,0.2-0.9,0.5-1.3
		c0.3-0.3,0.7-0.5,1.2-0.5s0.8,0.2,1.1,0.4c0.3,0.3,0.4,0.7,0.5,1.3h-0.6c-0.1-0.4-0.2-0.6-0.3-0.8c-0.2-0.2-0.4-0.3-0.7-0.3
		c-0.3,0-0.6,0.1-0.8,0.3c-0.2,0.2-0.3,0.5-0.3,0.8c0,0.2,0.1,0.3,0.1,0.4c0.1,0.1,0.2,0.2,0.3,0.3c0.2,0.1,0.4,0.2,0.8,0.3
		c0.2,0.1,0.4,0.1,0.5,0.2c0.4,0.2,0.7,0.4,0.9,0.6c0.2,0.3,0.3,0.6,0.3,1c0,0.6-0.2,1.1-0.5,1.5c-0.3,0.4-0.8,0.6-1.3,0.6
		s-0.9-0.2-1.3-0.5C100.5,45.4,100.3,44.9,100.3,44.3L100.3,44.3z M105.4,46.1h-0.6v-6.3h0.6V46.1L105.4,46.1z M108.7,43.1h3.9
		c-0.1,0.9-0.4,1.7-1,2.2s-1.4,0.9-2.2,0.9s-1.7-0.3-2.3-0.9c-0.6-0.6-0.9-1.4-0.9-2.3c0-0.4,0.1-0.8,0.3-1.3c0.2-0.4,0.4-0.7,0.7-1
		c0.3-0.3,0.7-0.5,1-0.7s0.8-0.2,1.3-0.2c0.6,0,1.1,0.2,1.7,0.5c0.5,0.3,0.9,0.7,1.1,1.3h-0.8c-0.3-0.4-0.6-0.7-0.9-0.8
		c-0.4-0.2-0.7-0.3-1.1-0.3c-0.7,0-1.4,0.3-1.8,0.8c-0.5,0.5-0.7,1.1-0.7,1.9c0,0.8,0.3,1.4,0.7,1.9c0.5,0.5,1.1,0.8,1.8,0.8
		c0.6,0,1.1-0.2,1.6-0.6s0.7-0.8,0.9-1.5h-3.2L108.7,43.1C108.7,43.1,108.7,43.1,108.7,43.1z M117.7,45.4l-0.1-5.5h0.6v6.3h-0.8
		l-3.4-5.5l0.1,5.5h-0.6v-6.3h0.7L117.7,45.4z"/>
</g>
</svg>
